<svg width="700" height="900" viewBox="0 0 700 900" fill="none" xmlns="http://www.w3.org/2000/svg">
<path d="M274.466 452.175C282.265 445.607 255.86 409.402 238.833 394.62C221.807 379.838 203.251 369.849 175.519 363.325C147.788 356.8 112.241 357.807 104.559 359.451C96.8768 361.095 92.1072 397.273 93.14 426.324C94.1728 455.376 111.986 499.559 121.687 511.547C131.389 523.535 148.195 545.392 155.536 539.072C162.876 532.751 266.666 458.742 274.466 452.175Z" fill="#83D6A7"/>
<path d="M436.184 441.211C417.914 417.874 432.336 411.775 449.755 395.888C467.173 380 499.656 363.033 523.347 359.451C547.038 355.87 594.667 347.483 600.672 358.445C606.678 369.408 607.639 398.844 606.678 424.606C605.716 450.368 596.704 468.554 586.939 485.609L586.869 485.731C577.162 502.684 574.896 506.641 555.691 523.43C536.441 540.259 522.011 555.838 512.158 543.653C502.306 531.467 454.454 464.549 436.184 441.211Z" fill="#83D6A7"/>
<path d="M586.939 485.609C596.704 468.554 605.716 450.368 606.678 424.606C607.639 398.844 606.678 369.408 600.672 358.445C594.667 347.483 547.038 355.87 523.347 359.451C499.656 363.033 467.173 380 449.755 395.888C432.336 411.775 417.914 417.874 436.184 441.211C454.454 464.549 502.306 531.467 512.158 543.653C522.011 555.838 536.441 540.259 555.691 523.43C574.896 506.641 577.162 502.684 586.869 485.731M586.939 485.609L586.869 485.731M586.939 485.609C586.915 485.65 586.892 485.691 586.869 485.731M274.466 452.175C282.265 445.607 255.86 409.402 238.833 394.62C221.807 379.838 203.251 369.849 175.519 363.325C147.788 356.8 112.241 357.807 104.559 359.451C96.8768 361.095 92.1072 397.273 93.14 426.324C94.1728 455.376 111.986 499.559 121.687 511.547C131.389 523.535 148.195 545.392 155.536 539.072C162.876 532.751 266.666 458.742 274.466 452.175Z" stroke="black" stroke-width="3" stroke-linecap="round"/>
</svg>
