<svg width="701" height="901" viewBox="0 0 701 901" fill="none" xmlns="http://www.w3.org/2000/svg">
<path d="M356.521 806.935C352.782 807.416 350.452 809.352 350.922 811.089C351.391 812.825 353.179 813.114 356.521 813.114C359.862 813.114 365.049 813.286 365.445 813.286C365.762 813.286 375.906 813.424 378.616 813.114C381.325 812.804 384.847 811.48 384.546 809.523C384.245 807.567 379.067 806.393 374.492 806.212C369.916 806.031 369.398 806.178 363.613 806.363C363.613 806.363 360.259 806.453 356.521 806.935Z" fill="#482B1D"/>
<path d="M415.007 787.785L399.885 795.346C399.885 795.346 403.962 803.659 405.471 809.909C406.98 816.16 407.001 823.789 405.471 832.401C405.161 834.146 404.827 835.69 404.491 837.042C404.491 837.042 413.701 836.178 420.282 834.29C426.863 832.401 432.154 830.071 432.154 830.071C432.324 829.343 432.479 828.568 432.623 827.74C433.94 820.142 432.623 810.517 428.773 803.223C424.923 795.928 415.007 787.785 415.007 787.785Z" fill="#E7B842"/>
<path fill-rule="evenodd" clip-rule="evenodd" d="M399.885 795.346C399.885 795.346 370.169 797.827 358.462 798.36C346.755 798.892 336.275 801.095 325.738 802.615C315.202 804.134 298.891 805.148 298.891 805.148C298.214 813.765 297.466 816.451 297.27 827.842C297.073 839.232 302.107 845.416 308.92 848.915L333.318 848.392C333.318 848.392 353.624 848.933 356.889 845.907C360.155 842.882 360.65 836.103 364.007 834.558C367.365 833.014 375.572 832.826 379.856 833.887C384.139 834.947 383.348 844.631 386.101 845.907C388.854 847.183 398.922 847.742 398.922 847.742C400.881 846.094 401.827 844.717 401.827 844.717C401.827 844.717 403.171 842.362 404.491 837.042C404.827 835.69 405.161 834.146 405.471 832.401C407.001 823.789 406.98 816.16 405.471 809.909C403.962 803.659 399.885 795.346 399.885 795.346ZM351.855 825.327C351.704 823.822 355.828 821.775 358.086 820.992C360.344 820.21 362.902 819.818 366.635 819.487C370.368 819.156 375.364 819.239 378.375 819.453C381.385 819.668 389.302 819.909 389.392 823.34C389.482 826.772 377.652 827.253 377.652 827.253C377.652 827.253 362.842 828.006 359.441 827.825C356.039 827.645 352.005 826.832 351.855 825.327ZM350.922 811.089C350.452 809.352 352.782 807.416 356.521 806.935C360.259 806.453 363.613 806.363 363.613 806.363C369.398 806.178 369.916 806.031 374.492 806.212C379.067 806.393 384.245 807.567 384.546 809.523C384.847 811.48 381.325 812.804 378.616 813.114C375.906 813.424 365.762 813.286 365.445 813.286C365.049 813.286 359.862 813.114 356.521 813.114C353.179 813.114 351.391 812.825 350.922 811.089Z" fill="#E7B842"/>
<path d="M308.92 848.915C315.734 852.413 343.063 854.689 361.907 854.487C380.751 854.284 388.552 853.474 393.922 850.941C396.012 849.955 397.673 848.793 398.922 847.742C398.922 847.742 388.854 847.183 386.101 845.907C383.348 844.631 384.139 834.947 379.856 833.887C375.572 832.826 367.365 833.014 364.007 834.558C360.65 836.103 360.155 842.882 356.889 845.907C353.624 848.933 333.318 848.392 333.318 848.392L308.92 848.915Z" fill="white"/>
<path d="M401.827 844.717C401.827 844.717 418.034 844.963 423.505 841.721C428.38 838.833 430.761 836.024 432.154 830.071C432.154 830.071 426.863 832.401 420.282 834.29C413.701 836.178 404.491 837.042 404.491 837.042C403.171 842.362 401.827 844.717 401.827 844.717Z" fill="white"/>
<path d="M376.142 557.971C354.263 554.794 254.111 546.7 254.111 546.7C252.877 551.148 245.911 556.853 239.927 564.126C232.144 573.584 225.063 584.252 220.373 592.696C215.684 601.139 205.075 618.429 201.531 635.652C197.987 652.875 202.341 663.412 202.341 663.412C202.341 663.412 203.739 659.363 210.435 653.789C217.131 648.215 222.704 646.391 235.469 645.581C248.234 644.77 259.082 649.613 265.457 653.789C271.833 657.965 296.251 674.366 296.251 674.366L311.373 690.378C311.373 690.378 323.79 706.246 329.452 708.819C335.114 711.393 386.448 710.669 392.768 710.393C399.088 710.117 405.482 709.471 405.482 709.471C405.482 709.471 427.682 707.399 436.332 706.124C444.983 704.848 460.375 700.667 460.375 700.667L478.659 689.164C478.659 689.164 465.043 689.671 461.144 687.22C457.245 684.769 457.546 676.076 457.444 669.693C457.343 663.31 458.307 650.849 461.801 645.783C465.294 640.718 474.465 632.41 474.465 632.41L486.465 623.758C486.465 623.758 488.649 621.367 490.168 615.491C491.688 609.615 490.675 597.052 488.446 587.022C486.217 576.992 473.295 559.436 473.295 559.436L454.741 538.627C454.741 538.627 448.359 559.408 435.658 564.337C422.957 569.266 398.02 561.149 376.142 557.971Z" fill="white"/>
<path d="M250.261 524.411C244.197 526.269 254.111 546.7 254.111 546.7C254.111 546.7 354.263 554.794 376.142 557.971C398.02 561.149 422.957 569.266 435.658 564.337C448.359 559.408 454.741 538.627 454.741 538.627C454.741 538.627 453.449 508.187 452.579 506.238C451.709 504.288 436.378 512.712 431.019 514.689C431.019 514.689 438.309 549.58 434.836 551.379C431.362 553.178 389.655 527.587 389.655 527.587C389.655 527.587 256.324 522.553 250.261 524.411Z" fill="white"/>
<path d="M478.659 689.164C478.659 689.164 481.421 669.693 480.645 658.247C479.869 646.8 474.465 632.41 474.465 632.41C474.465 632.41 465.294 640.718 461.801 645.783C458.307 650.849 457.343 663.31 457.444 669.693C457.546 676.076 457.245 684.769 461.144 687.22C465.043 689.671 478.659 689.164 478.659 689.164Z" fill="#DADADA"/>
<path d="M480.645 658.247C481.421 669.693 478.659 689.164 478.659 689.164C478.659 689.164 493.412 681.463 496.982 677.418C500.552 673.372 503.423 666.293 502.951 658.575C502.478 650.857 498.974 641.528 496.408 636.176C493.842 630.824 486.465 623.758 486.465 623.758L474.465 632.41C474.465 632.41 479.869 646.8 480.645 658.247Z" fill="#FFFBE5"/>
<path d="M235.469 673.34C213.543 673.859 205.07 674.366 205.07 674.366C205.07 674.366 200.82 683.775 198.843 694.381C196.866 704.986 196.57 712.447 200.82 719.032C205.07 725.617 213.768 733.513 225.53 735.745C237.293 737.978 253.571 737.164 260.223 733.013C266.876 728.863 267.484 727.137 268.674 721.512C269.864 715.888 260.696 705.558 262.722 706.469C264.748 707.381 267.686 716.803 276.095 715.689C284.504 714.574 285.528 708.901 286.035 706.469C286.541 704.038 286.032 697.76 286.032 697.76L282.34 689.187L280.051 683.338C269.83 680.711 251.936 672.951 235.469 673.34Z" fill="#FFFBE5"/>
<path d="M296.251 674.366C296.251 674.366 292.86 680.8 287.355 683.775C285.984 684.516 283.439 684.209 280.051 683.338L282.34 689.187L286.032 697.76C286.032 697.76 296.527 715.75 298.485 724.604C300.443 733.459 300.512 752.972 300.512 752.972L298.891 805.148C298.891 805.148 315.202 804.134 325.738 802.615C336.275 801.095 346.755 798.892 358.462 798.36C370.169 797.827 399.885 795.346 399.885 795.346C399.885 795.346 403.018 782.895 404.053 774.551C405.087 766.208 407.801 750.439 410.537 742.131C413.272 733.824 422.289 715.081 422.289 715.081L405.482 709.471C405.482 709.471 399.088 710.117 392.768 710.393C386.448 710.669 335.114 711.393 329.452 708.819C323.79 706.246 311.373 690.378 311.373 690.378L296.251 674.366Z" fill="#554E48"/>
<path d="M421.679 749.978L428.976 717.411L422.289 715.081C422.289 715.081 413.272 733.824 410.537 742.131C407.801 750.439 405.087 766.208 404.053 774.551C403.018 782.895 399.885 795.346 399.885 795.346L415.007 787.785L421.679 749.978Z" fill="#554E48"/>
<path d="M460.375 700.667C460.375 700.667 444.983 704.848 436.332 706.124C427.682 707.399 405.482 709.471 405.482 709.471L422.289 715.081L428.976 717.411C428.976 717.411 440.728 718.323 447.009 718.019C453.291 717.715 458.342 716.682 460.375 715.081C462.409 713.48 460.375 700.667 460.375 700.667Z" fill="white"/>
<path d="M434.836 551.379C438.309 549.58 431.019 514.689 431.019 514.689L389.655 527.587C389.655 527.587 431.362 553.178 434.836 551.379Z" fill="black"/>
<path d="M265.457 653.789C259.082 649.613 248.234 644.77 235.469 645.581C222.704 646.391 217.131 648.215 210.435 653.789C203.739 659.363 202.341 663.412 202.341 663.412L205.07 674.366C205.07 674.366 213.543 673.859 235.469 673.34C251.936 672.951 269.83 680.711 280.051 683.338C283.439 684.209 285.984 684.516 287.355 683.775C292.86 680.8 296.251 674.366 296.251 674.366C296.251 674.366 271.833 657.965 265.457 653.789Z" fill="white"/>
<path d="M358.086 820.992C355.828 821.775 351.704 823.822 351.855 825.327C352.005 826.832 356.039 827.645 359.441 827.825C362.842 828.006 377.652 827.253 377.652 827.253C377.652 827.253 389.482 826.772 389.392 823.34C389.302 819.909 381.385 819.668 378.375 819.453C375.364 819.239 370.368 819.156 366.635 819.487C362.902 819.818 360.344 820.21 358.086 820.992Z" fill="#482B1D"/>
<path d="M287.355 683.775L288.068 685.095L287.355 683.775ZM235.469 673.34L235.504 674.84L235.469 673.34ZM282.34 689.187L280.943 689.734L280.952 689.757L280.962 689.78L282.34 689.187ZM337.015 624.531C337.476 623.842 337.29 622.91 336.602 622.45C335.913 621.99 334.981 622.175 334.521 622.864L337.015 624.531ZM311.373 690.378L312.554 689.453L312.511 689.398L312.464 689.348L311.373 690.378ZM469.501 612.654L470.955 612.289L470.952 612.274L470.947 612.259L469.501 612.654ZM462.317 581.194C462.064 580.405 461.219 579.971 460.43 580.225C459.641 580.478 459.207 581.323 459.461 582.112L462.317 581.194ZM473.295 559.436L474.503 558.547L474.462 558.491L474.415 558.438L473.295 559.436ZM405.482 709.471L405.342 707.977L405.331 707.978L405.482 709.471ZM421.679 749.978L420.215 749.651L420.208 749.684L420.202 749.718L421.679 749.978ZM422.289 715.081L422.783 713.664L422.773 713.661L422.764 713.658L422.289 715.081ZM300.512 752.972L302.011 753.018L302.012 752.992L302.012 752.966L300.512 752.972ZM393.922 850.941L394.561 852.297L393.922 850.941ZM405.471 832.401L406.948 832.663L405.471 832.401ZM432.623 827.74L434.101 827.996L432.623 827.74ZM423.505 841.721L424.269 843.012L423.505 841.721ZM239.927 564.126L241.085 565.079L241.085 565.079L239.927 564.126ZM333.318 848.392L333.358 846.892L333.322 846.891L333.286 846.892L333.318 848.392ZM377.652 827.253L377.591 825.755L377.584 825.755L377.576 825.755L377.652 827.253ZM363.613 806.363L363.654 807.862L363.661 807.862L363.613 806.363ZM404.491 837.042L403.035 836.681L403.035 836.681L404.491 837.042ZM432.154 830.071L433.614 830.412L432.154 830.071ZM280.051 683.338L280.425 681.885L280.425 681.885L280.051 683.338ZM249.821 522.977C248.57 523.36 247.754 524.244 247.302 525.322C246.874 526.342 246.763 527.539 246.805 528.73C246.889 531.12 247.613 534.009 248.484 536.712C249.364 539.443 250.433 542.102 251.278 544.07C251.701 545.056 252.07 545.874 252.334 546.446C252.466 546.733 252.572 546.958 252.645 547.112C252.682 547.19 252.71 547.249 252.73 547.29C252.74 547.31 252.747 547.326 252.752 547.337C252.755 547.342 252.757 547.346 252.758 547.349C252.759 547.351 252.76 547.352 252.76 547.353C252.76 547.353 252.761 547.354 252.761 547.354C252.761 547.354 252.761 547.355 254.111 546.7C255.46 546.045 255.46 546.045 255.46 546.045C255.46 546.045 255.46 546.045 255.46 546.045C255.46 546.044 255.459 546.044 255.459 546.043C255.458 546.041 255.456 546.038 255.454 546.033C255.45 546.024 255.443 546.011 255.435 545.992C255.417 545.956 255.391 545.9 255.356 545.828C255.287 545.682 255.186 545.466 255.059 545.19C254.804 544.638 254.446 543.845 254.035 542.887C253.21 540.966 252.18 538.401 251.339 535.792C250.49 533.156 249.872 530.588 249.803 528.625C249.768 527.639 249.878 526.935 250.068 526.483C250.234 526.087 250.435 525.927 250.7 525.845L249.821 522.977ZM254.111 546.7C253.99 548.195 253.99 548.195 253.991 548.195C253.992 548.195 253.993 548.195 253.994 548.195C253.997 548.196 254.002 548.196 254.008 548.196C254.02 548.197 254.038 548.199 254.062 548.201C254.11 548.205 254.182 548.211 254.277 548.218C254.467 548.234 254.75 548.257 255.119 548.287C255.858 548.347 256.944 548.435 258.334 548.549C261.115 548.776 265.112 549.105 269.977 549.509C279.707 550.317 292.908 551.428 306.791 552.638C334.587 555.061 365.041 557.875 375.926 559.456L376.357 556.487C365.365 554.891 334.803 552.069 307.052 549.65C293.163 548.439 279.958 547.328 270.225 546.519C265.359 546.115 261.361 545.786 258.579 545.559C257.188 545.445 256.101 545.357 255.362 545.296C254.993 545.266 254.71 545.243 254.52 545.228C254.425 545.22 254.352 545.214 254.304 545.211C254.28 545.209 254.262 545.207 254.25 545.206C254.244 545.206 254.239 545.205 254.236 545.205C254.234 545.205 254.233 545.205 254.233 545.205C254.232 545.205 254.231 545.205 254.111 546.7ZM375.926 559.456C381.351 560.244 386.977 561.34 392.589 562.47C398.187 563.598 403.782 564.762 409.088 565.672C414.394 566.582 419.467 567.248 424.038 567.368C428.595 567.488 432.761 567.07 436.201 565.735L435.116 562.938C432.205 564.068 428.491 564.484 424.117 564.369C419.756 564.254 414.846 563.616 409.595 562.716C404.344 561.815 398.809 560.663 393.181 559.529C387.567 558.398 381.871 557.288 376.357 556.487L375.926 559.456ZM436.201 565.735C443.075 563.067 448.063 556.223 451.278 550.354C452.908 547.379 454.128 544.567 454.941 542.5C455.348 541.465 455.655 540.614 455.86 540.018C455.963 539.72 456.04 539.486 456.093 539.325C456.119 539.244 456.139 539.181 456.153 539.138C456.16 539.116 456.165 539.1 456.169 539.088C456.17 539.082 456.172 539.077 456.173 539.074C456.174 539.072 456.174 539.07 456.174 539.069C456.174 539.069 456.175 539.068 456.175 539.068C456.175 539.067 456.175 539.067 454.741 538.627C453.307 538.186 453.307 538.186 453.307 538.186C453.307 538.186 453.307 538.186 453.307 538.186C453.307 538.186 453.307 538.187 453.307 538.187C453.306 538.189 453.305 538.192 453.304 538.196C453.302 538.204 453.298 538.217 453.292 538.235C453.281 538.27 453.263 538.325 453.24 538.398C453.193 538.543 453.121 538.76 453.024 539.04C452.831 539.6 452.539 540.411 452.15 541.402C451.369 543.385 450.2 546.076 448.647 548.913C445.496 554.666 440.943 560.677 435.116 562.938L436.201 565.735ZM454.741 538.627C456.24 538.563 456.24 538.563 456.24 538.563C456.24 538.562 456.24 538.562 456.24 538.562C456.24 538.561 456.24 538.559 456.239 538.557C456.239 538.554 456.239 538.548 456.239 538.541C456.238 538.526 456.237 538.504 456.236 538.475C456.233 538.417 456.23 538.331 456.225 538.219C456.215 537.996 456.201 537.667 456.182 537.249C456.145 536.411 456.091 535.214 456.024 533.77C455.889 530.884 455.7 527.013 455.484 523.081C455.268 519.151 455.024 515.15 454.779 512.005C454.657 510.434 454.534 509.063 454.412 508.016C454.351 507.494 454.289 507.036 454.225 506.667C454.17 506.353 454.09 505.943 453.949 505.627L451.209 506.849C451.177 506.777 451.209 506.833 451.269 507.179C451.319 507.47 451.374 507.866 451.432 508.363C451.547 509.354 451.667 510.68 451.788 512.238C452.031 515.348 452.273 519.322 452.489 523.246C452.704 527.167 452.893 531.028 453.027 533.91C453.095 535.351 453.148 536.546 453.185 537.381C453.204 537.799 453.218 538.126 453.228 538.349C453.233 538.461 453.236 538.546 453.239 538.604C453.24 538.632 453.241 538.654 453.242 538.669C453.242 538.676 453.242 538.681 453.242 538.685C453.242 538.687 453.242 538.688 453.242 538.689C453.242 538.689 453.242 538.69 453.242 538.69C453.242 538.69 453.242 538.69 454.741 538.627ZM453.949 505.627C453.657 504.973 453.097 504.668 452.655 504.545C452.241 504.43 451.822 504.435 451.484 504.467C450.796 504.531 449.973 504.752 449.124 505.035C447.396 505.609 445.167 506.571 442.859 507.627C438.136 509.787 433.112 512.318 430.5 513.281L431.539 516.096C434.286 515.083 439.606 512.414 444.106 510.355C446.41 509.302 448.511 508.4 450.07 507.881C450.864 507.617 451.424 507.485 451.761 507.454C451.936 507.438 451.941 507.46 451.85 507.435C451.731 507.402 451.392 507.259 451.209 506.849L453.949 505.627ZM431.019 514.689C429.551 514.996 429.551 514.996 429.551 514.996C429.551 514.996 429.551 514.996 429.551 514.997C429.552 514.998 429.552 514.999 429.552 515.001C429.553 515.005 429.554 515.011 429.556 515.02C429.56 515.036 429.565 515.061 429.571 515.093C429.585 515.158 429.605 515.256 429.631 515.383C429.683 515.637 429.759 516.011 429.855 516.487C430.047 517.441 430.317 518.806 430.631 520.45C431.258 523.739 432.057 528.139 432.748 532.589C433.44 537.05 434.016 541.522 434.207 544.97C434.303 546.704 434.297 548.113 434.179 549.11C434.12 549.613 434.039 549.94 433.966 550.128C433.88 550.351 433.883 550.183 434.146 550.047L435.525 552.711C436.222 552.35 436.575 551.699 436.764 551.213C436.965 550.692 437.085 550.086 437.158 549.462C437.307 548.207 437.301 546.595 437.202 544.805C437.003 541.205 436.408 536.616 435.712 532.129C435.015 527.633 434.209 523.197 433.578 519.888C433.262 518.233 432.99 516.858 432.796 515.896C432.7 515.415 432.623 515.037 432.57 514.78C432.543 514.651 432.523 514.552 432.509 514.485C432.502 514.451 432.497 514.426 432.493 514.409C432.492 514.4 432.49 514.393 432.489 514.389C432.489 514.387 432.488 514.385 432.488 514.384C432.488 514.383 432.488 514.383 432.488 514.383C432.488 514.382 432.488 514.382 431.019 514.689ZM434.146 550.047C434.318 549.958 434.426 549.968 434.364 549.97C434.317 549.971 434.208 549.965 434.019 549.932C433.642 549.864 433.105 549.713 432.403 549.461C431.008 548.961 429.152 548.138 426.969 547.073C422.613 544.947 417.107 541.936 411.684 538.854C406.266 535.775 400.955 532.638 396.996 530.271C395.017 529.087 393.377 528.096 392.232 527.401C391.659 527.054 391.211 526.78 390.906 526.594C390.753 526.501 390.636 526.43 390.558 526.381C390.518 526.357 390.489 526.339 390.469 526.327C390.459 526.321 390.451 526.316 390.446 526.313C390.444 526.312 390.442 526.311 390.441 526.31C390.44 526.31 390.44 526.309 390.44 526.309C390.439 526.309 390.439 526.309 389.655 527.587C388.87 528.866 388.87 528.866 388.871 528.866C388.871 528.867 388.872 528.867 388.872 528.867C388.874 528.868 388.876 528.869 388.878 528.871C388.883 528.874 388.891 528.879 388.901 528.885C388.922 528.897 388.952 528.916 388.991 528.94C389.071 528.989 389.189 529.061 389.342 529.155C389.65 529.342 390.101 529.617 390.675 529.966C391.825 530.664 393.471 531.658 395.456 532.845C399.426 535.22 404.758 538.368 410.202 541.462C415.64 544.553 421.211 547.601 425.653 549.769C427.869 550.85 429.841 551.73 431.391 552.285C432.162 552.562 432.877 552.775 433.492 552.885C433.8 552.94 434.122 552.976 434.436 552.969C434.736 552.962 435.136 552.913 435.525 552.711L434.146 550.047ZM389.655 527.587C389.711 526.089 389.711 526.089 389.71 526.088C389.709 526.088 389.707 526.088 389.705 526.088C389.701 526.088 389.695 526.088 389.687 526.088C389.671 526.087 389.647 526.086 389.614 526.085C389.55 526.082 389.455 526.079 389.328 526.074C389.076 526.065 388.701 526.051 388.212 526.032C387.233 525.996 385.798 525.943 383.969 525.876C380.311 525.742 375.078 525.552 368.78 525.331C356.184 524.888 339.325 524.316 322.277 523.803C305.229 523.29 287.986 522.835 274.623 522.624C267.943 522.518 262.222 522.474 257.977 522.514C255.856 522.534 254.09 522.576 252.751 522.642C252.082 522.676 251.506 522.716 251.038 522.765C250.601 522.811 250.161 522.873 249.821 522.977L250.7 525.845C250.698 525.846 250.711 525.842 250.745 525.834C250.778 525.827 250.823 525.819 250.881 525.809C250.999 525.79 251.154 525.769 251.35 525.749C251.742 525.708 252.259 525.671 252.9 525.639C254.18 525.575 255.9 525.534 258.005 525.514C262.212 525.474 267.903 525.518 274.575 525.623C287.917 525.834 305.143 526.289 322.186 526.802C339.228 527.315 356.081 527.886 368.674 528.329C374.971 528.55 380.202 528.74 383.859 528.874C385.687 528.941 387.122 528.994 388.1 529.03C388.589 529.049 388.964 529.063 389.216 529.072C389.342 529.077 389.438 529.08 389.502 529.083C389.534 529.084 389.558 529.085 389.574 529.085C389.582 529.086 389.588 529.086 389.592 529.086C389.594 529.086 389.596 529.086 389.597 529.086C389.598 529.086 389.598 529.086 389.655 527.587ZM219.062 591.967C214.428 600.31 203.664 617.844 200.062 635.35L203 635.954C206.486 619.014 216.939 601.967 221.685 593.424L219.062 591.967ZM200.062 635.35C198.252 644.142 198.455 651.253 199.121 656.191C199.453 658.659 199.902 660.583 200.272 661.902C200.457 662.561 200.623 663.069 200.745 663.419C200.806 663.594 200.856 663.729 200.892 663.824C200.91 663.871 200.924 663.908 200.935 663.935C200.94 663.948 200.945 663.959 200.948 663.967C200.95 663.972 200.951 663.975 200.953 663.978C200.953 663.979 200.954 663.981 200.954 663.982C200.954 663.982 200.955 663.983 200.955 663.983C200.955 663.984 200.955 663.985 202.341 663.412C203.728 662.839 203.728 662.839 203.728 662.84C203.728 662.84 203.728 662.84 203.729 662.841C203.729 662.841 203.729 662.841 203.729 662.841C203.729 662.842 203.729 662.841 203.728 662.84C203.728 662.838 203.726 662.834 203.723 662.827C203.717 662.813 203.708 662.789 203.695 662.755C203.669 662.686 203.629 662.578 203.578 662.432C203.475 662.138 203.328 661.688 203.161 661.091C202.825 659.896 202.406 658.109 202.094 655.79C201.468 651.154 201.265 644.385 203 635.954L200.062 635.35ZM235.564 647.078C247.906 646.294 258.434 650.982 264.636 655.044L266.279 652.534C259.729 648.244 248.562 643.246 235.374 644.084L235.564 647.078ZM264.636 655.044C267.816 657.126 275.506 662.265 282.41 666.889C285.86 669.2 289.111 671.381 291.5 672.983C292.694 673.785 293.673 674.441 294.353 674.898C294.693 675.126 294.958 675.304 295.139 675.426C295.229 675.486 295.298 675.532 295.344 675.564C295.367 675.579 295.385 675.591 295.396 675.599C295.402 675.603 295.407 675.606 295.41 675.608C295.411 675.609 295.412 675.609 295.413 675.61C295.413 675.61 295.414 675.61 295.414 675.611C295.414 675.611 295.414 675.611 296.251 674.366C297.087 673.12 297.087 673.12 297.087 673.12C297.086 673.12 297.086 673.12 297.086 673.12C297.085 673.119 297.084 673.118 297.082 673.117C297.079 673.115 297.075 673.112 297.069 673.108C297.057 673.1 297.04 673.089 297.017 673.073C296.97 673.042 296.901 672.996 296.811 672.935C296.631 672.814 296.365 672.636 296.025 672.407C295.345 671.951 294.366 671.294 293.172 670.492C290.783 668.889 287.531 666.708 284.08 664.397C277.181 659.777 269.475 654.627 266.279 652.534L264.636 655.044ZM296.251 674.366C294.923 673.666 294.924 673.666 294.924 673.666C294.924 673.666 294.924 673.665 294.924 673.665C294.924 673.665 294.924 673.665 294.924 673.665C294.924 673.665 294.924 673.665 294.924 673.666C294.923 673.667 294.921 673.67 294.919 673.675C294.914 673.684 294.906 673.698 294.895 673.719C294.873 673.759 294.838 673.823 294.79 673.906C294.696 674.072 294.552 674.319 294.361 674.626C293.979 675.241 293.412 676.094 292.682 677.036C291.206 678.939 289.133 681.109 286.642 682.456L288.068 685.095C291.082 683.466 293.457 680.931 295.052 678.874C295.858 677.835 296.483 676.894 296.909 676.209C297.122 675.867 297.286 675.587 297.398 675.39C297.454 675.291 297.497 675.213 297.527 675.158C297.542 675.131 297.554 675.109 297.562 675.093C297.567 675.086 297.57 675.079 297.572 675.074C297.574 675.072 297.575 675.07 297.576 675.068C297.576 675.068 297.576 675.067 297.577 675.066C297.577 675.066 297.577 675.066 297.577 675.065C297.577 675.065 297.578 675.065 296.251 674.366ZM235.434 671.841C224.464 672.1 216.856 672.357 211.988 672.549C209.554 672.644 207.805 672.724 206.663 672.78C206.092 672.808 205.673 672.83 205.396 672.845C205.257 672.852 205.154 672.858 205.085 672.862C205.051 672.864 205.025 672.866 205.008 672.867C204.999 672.867 204.993 672.867 204.988 672.868C204.986 672.868 204.984 672.868 204.983 672.868C204.982 672.868 204.982 672.868 204.981 672.868C204.981 672.868 204.981 672.868 204.981 672.868C204.981 672.868 204.981 672.868 205.07 674.366C205.16 675.863 205.16 675.863 205.16 675.863C205.16 675.863 205.16 675.863 205.16 675.863C205.16 675.863 205.16 675.863 205.161 675.863C205.162 675.863 205.163 675.863 205.165 675.863C205.169 675.862 205.175 675.862 205.183 675.861C205.199 675.861 205.223 675.859 205.256 675.857C205.322 675.854 205.422 675.848 205.558 675.841C205.83 675.826 206.244 675.804 206.81 675.776C207.942 675.721 209.681 675.642 212.106 675.546C216.957 675.355 224.548 675.099 235.504 674.84L235.434 671.841ZM206.526 674.003L203.797 663.049L200.886 663.774L203.615 674.728L206.526 674.003ZM205.07 674.366C203.703 673.748 203.703 673.748 203.703 673.749C203.703 673.749 203.703 673.749 203.703 673.749C203.702 673.75 203.702 673.75 203.702 673.751C203.701 673.753 203.7 673.755 203.699 673.758C203.696 673.763 203.693 673.771 203.689 673.781C203.68 673.801 203.667 673.83 203.65 673.867C203.617 673.943 203.568 674.053 203.507 674.196C203.383 674.482 203.206 674.9 202.987 675.433C202.55 676.499 201.949 678.029 201.285 679.893C199.96 683.616 198.376 688.7 197.369 694.106L200.318 694.656C201.287 689.456 202.817 684.533 204.111 680.899C204.757 679.085 205.341 677.6 205.763 676.57C205.974 676.056 206.144 675.655 206.261 675.385C206.319 675.25 206.364 675.148 206.394 675.08C206.409 675.046 206.42 675.021 206.427 675.005C206.431 674.997 206.434 674.991 206.435 674.987C206.436 674.985 206.437 674.984 206.437 674.983C206.437 674.983 206.437 674.983 206.437 674.983C206.437 674.983 206.437 674.983 206.437 674.983C206.437 674.983 206.437 674.983 205.07 674.366ZM197.369 694.106C195.387 704.735 194.966 712.728 199.56 719.845L202.08 718.219C198.174 712.166 198.345 705.237 200.318 694.656L197.369 694.106ZM199.56 719.845C203.98 726.695 212.999 734.894 225.251 737.219L225.81 734.272C214.537 732.133 206.16 724.54 202.08 718.219L199.56 719.845ZM225.251 737.219C231.271 738.362 238.411 738.72 244.897 738.269C251.318 737.823 257.363 736.565 261.017 734.286L259.429 731.741C256.43 733.612 251.01 734.837 244.689 735.276C238.432 735.712 231.552 735.361 225.81 734.272L225.251 737.219ZM261.017 734.286C264.367 732.196 266.414 730.591 267.735 728.663C269.06 726.729 269.554 724.601 270.142 721.823L267.207 721.202C266.604 724.049 266.199 725.596 265.259 726.968C264.315 728.347 262.732 729.68 259.429 731.741L261.017 734.286ZM270.142 721.823C270.53 719.989 270.055 717.956 269.364 716.13C268.658 714.263 267.634 712.385 266.673 710.772C266.19 709.961 265.715 709.205 265.296 708.543C264.871 707.872 264.517 707.317 264.251 706.873C264.119 706.653 264.021 706.48 263.954 706.35C263.876 706.198 263.879 706.178 263.895 706.24C263.901 706.264 263.946 706.428 263.92 706.661C263.891 706.931 263.742 707.408 263.246 707.709C262.823 707.965 262.428 707.914 262.317 707.896C262.242 707.883 262.187 707.867 262.158 707.857C262.128 707.847 262.11 707.839 262.106 707.837L263.338 705.101C263.218 705.048 263.033 704.974 262.811 704.937C262.616 704.904 262.158 704.86 261.69 705.144C261.15 705.471 260.976 705.995 260.939 706.332C260.906 706.631 260.961 706.88 260.995 707.006C261.065 707.275 261.189 707.533 261.288 707.724C261.397 707.937 261.532 708.172 261.678 708.415C261.968 708.9 262.351 709.499 262.761 710.147C263.177 710.805 263.634 711.533 264.096 712.308C265.025 713.866 265.944 715.569 266.558 717.192C267.188 718.856 267.414 720.223 267.207 721.202L270.142 721.823ZM262.106 707.837C262.037 707.806 262.124 707.83 262.39 708.143C262.628 708.425 262.905 708.808 263.253 709.308C263.923 710.271 264.798 711.584 265.886 712.827C268.09 715.345 271.384 717.826 276.292 717.176L275.898 714.202C272.398 714.666 270.018 712.993 268.144 710.851C267.193 709.764 266.429 708.62 265.715 707.595C265.371 707.1 265.02 706.607 264.677 706.203C264.362 705.831 263.914 705.361 263.338 705.101L262.106 707.837ZM276.292 717.176C280.857 716.571 283.599 714.686 285.236 712.462C286.825 710.303 287.255 707.966 287.503 706.775L284.566 706.163C284.307 707.405 283.972 709.119 282.82 710.684C281.717 712.183 279.742 713.692 275.898 714.202L276.292 717.176ZM296.251 674.366C297.413 675.313 297.413 675.313 297.413 675.313C297.413 675.313 297.413 675.313 297.414 675.313C297.414 675.312 297.415 675.311 297.416 675.31C297.418 675.308 297.42 675.305 297.424 675.3C297.431 675.291 297.442 675.278 297.456 675.261C297.484 675.226 297.526 675.175 297.581 675.107C297.691 674.972 297.853 674.773 298.062 674.517C298.48 674.004 299.085 673.261 299.832 672.344C301.326 670.509 303.388 667.975 305.662 665.174C310.21 659.574 315.61 652.904 319.009 648.644L316.663 646.773C313.274 651.022 307.881 657.682 303.333 663.283C301.06 666.082 298.998 668.616 297.505 670.45C296.759 671.367 296.155 672.109 295.737 672.622C295.528 672.878 295.366 673.077 295.256 673.212C295.201 673.279 295.159 673.331 295.131 673.365C295.117 673.383 295.106 673.396 295.099 673.404C295.095 673.409 295.092 673.412 295.091 673.414C295.09 673.415 295.089 673.416 295.089 673.417C295.088 673.417 295.088 673.417 295.088 673.417C295.088 673.418 295.088 673.418 296.251 674.366ZM319.009 648.644C325.813 640.113 334.767 627.895 337.015 624.531L334.521 622.864C332.334 626.136 323.435 638.283 316.663 646.773L319.009 648.644ZM295.16 675.395L310.283 691.408L312.464 689.348L297.341 673.336L295.16 675.395ZM311.373 690.378C310.192 691.302 310.192 691.302 310.192 691.302C310.192 691.303 310.192 691.303 310.193 691.303C310.193 691.304 310.194 691.305 310.195 691.306C310.196 691.308 310.199 691.311 310.202 691.315C310.208 691.323 310.218 691.335 310.23 691.35C310.254 691.381 310.29 691.427 310.337 691.486C310.431 691.605 310.569 691.779 310.746 692.001C311.1 692.444 311.611 693.079 312.242 693.848C313.503 695.386 315.245 697.466 317.168 699.63C319.088 701.79 321.204 704.051 323.209 705.943C325.173 707.797 327.168 709.429 328.831 710.185L330.073 707.454C328.905 706.923 327.224 705.607 325.268 703.761C323.352 701.954 321.302 699.765 319.41 697.637C317.522 695.512 315.806 693.464 314.562 691.946C313.94 691.188 313.437 690.563 313.09 690.128C312.916 689.911 312.782 689.741 312.691 689.627C312.646 689.569 312.611 689.525 312.588 689.496C312.577 689.482 312.568 689.471 312.562 689.463C312.56 689.46 312.558 689.457 312.556 689.456C312.556 689.455 312.555 689.454 312.555 689.454C312.555 689.454 312.555 689.453 312.554 689.453C312.554 689.453 312.554 689.453 311.373 690.378ZM328.831 710.185C329.787 710.619 331.443 710.905 333.367 711.127C335.371 711.359 337.901 711.542 340.769 711.688C346.509 711.979 353.679 712.122 360.852 712.175C375.194 712.281 389.637 712.031 392.834 711.891L392.703 708.894C389.58 709.031 375.195 709.281 360.875 709.175C353.717 709.122 346.597 708.98 340.921 708.692C338.081 708.548 335.623 708.368 333.711 708.147C331.719 707.917 330.532 707.663 330.073 707.454L328.831 710.185ZM436.551 707.608C440.952 706.959 447.022 705.579 451.954 704.374C454.428 703.769 456.63 703.205 458.214 702.791C459.006 702.585 459.643 702.415 460.084 702.298C460.304 702.239 460.474 702.193 460.59 702.162C460.648 702.147 460.693 702.135 460.722 702.127C460.737 702.123 460.749 702.119 460.756 702.117C460.76 702.116 460.763 702.116 460.765 702.115C460.766 702.115 460.767 702.114 460.767 702.114C460.768 702.114 460.768 702.114 460.768 702.114C460.768 702.114 460.768 702.114 460.375 700.667C459.982 699.219 459.982 699.219 459.982 699.219C459.982 699.219 459.982 699.219 459.981 699.219C459.981 699.219 459.98 699.219 459.979 699.22C459.978 699.22 459.975 699.221 459.971 699.222C459.964 699.224 459.953 699.227 459.939 699.231C459.91 699.238 459.867 699.25 459.81 699.265C459.696 699.296 459.528 699.341 459.31 699.399C458.875 699.516 458.242 699.683 457.456 699.889C455.883 700.299 453.697 700.86 451.242 701.46C446.314 702.664 440.363 704.013 436.114 704.64L436.551 707.608ZM478.659 689.164C480.144 689.375 480.144 689.375 480.144 689.374C480.145 689.374 480.145 689.374 480.145 689.374C480.145 689.373 480.145 689.372 480.145 689.371C480.145 689.368 480.146 689.364 480.147 689.359C480.148 689.349 480.15 689.335 480.153 689.316C480.158 689.278 480.166 689.221 480.176 689.147C480.196 689 480.226 688.783 480.263 688.504C480.338 687.944 480.443 687.134 480.567 686.126C480.815 684.111 481.138 681.305 481.436 678.138C482.031 671.832 482.538 663.999 482.141 658.145L479.148 658.348C479.527 663.941 479.042 671.567 478.45 677.857C478.155 680.989 477.835 683.766 477.59 685.76C477.467 686.756 477.363 687.557 477.29 688.107C477.253 688.382 477.224 688.595 477.204 688.738C477.194 688.81 477.187 688.864 477.182 688.9C477.179 688.918 477.177 688.932 477.176 688.941C477.175 688.945 477.175 688.949 477.175 688.951C477.174 688.952 477.174 688.953 477.174 688.953C477.174 688.953 477.174 688.953 477.174 688.954C477.174 688.954 477.174 688.954 478.659 689.164ZM482.141 658.145C481.743 652.262 480.163 645.683 478.705 640.621C477.974 638.08 477.266 635.9 476.742 634.355C476.479 633.582 476.262 632.967 476.11 632.544C476.034 632.332 475.975 632.169 475.934 632.057C475.913 632.001 475.897 631.958 475.886 631.929C475.881 631.915 475.877 631.903 475.874 631.896C475.872 631.892 475.871 631.889 475.871 631.887C475.87 631.885 475.87 631.885 475.87 631.884C475.869 631.884 475.869 631.883 475.869 631.883C475.869 631.883 475.869 631.883 474.465 632.41C473.061 632.937 473.061 632.937 473.061 632.937C473.061 632.937 473.061 632.937 473.061 632.937C473.061 632.938 473.061 632.938 473.061 632.939C473.062 632.94 473.062 632.942 473.064 632.946C473.066 632.952 473.07 632.961 473.074 632.974C473.084 633 473.099 633.04 473.118 633.092C473.156 633.197 473.213 633.353 473.287 633.558C473.433 633.966 473.645 634.565 473.901 635.32C474.414 636.83 475.106 638.964 475.822 641.451C477.261 646.446 478.771 652.784 479.148 658.348L482.141 658.145ZM475.92 632.044L470.955 612.289L468.046 613.02L473.01 632.776L475.92 632.044ZM469.501 612.654C470.947 612.259 470.947 612.258 470.947 612.258C470.947 612.258 470.947 612.258 470.947 612.257C470.947 612.256 470.947 612.255 470.946 612.253C470.945 612.25 470.944 612.245 470.942 612.238C470.938 612.225 470.933 612.204 470.925 612.178C470.911 612.124 470.889 612.045 470.861 611.941C470.804 611.734 470.721 611.43 470.615 611.042C470.402 610.267 470.098 609.155 469.73 607.812C468.994 605.127 468.002 601.517 466.983 597.818C464.951 590.449 462.786 582.651 462.317 581.194L459.461 582.112C459.904 583.491 462.044 591.193 464.091 598.616C465.11 602.313 466.101 605.921 466.837 608.606C467.205 609.948 467.509 611.059 467.721 611.834C467.827 612.222 467.91 612.526 467.967 612.733C467.995 612.836 468.017 612.916 468.032 612.969C468.039 612.996 468.044 613.016 468.048 613.029C468.05 613.036 468.051 613.041 468.052 613.045C468.053 613.046 468.053 613.048 468.053 613.048C468.053 613.049 468.053 613.049 468.054 613.049C468.054 613.05 468.054 613.05 469.501 612.654ZM474.465 632.41C473.458 631.298 473.458 631.298 473.458 631.299C473.457 631.299 473.457 631.299 473.457 631.299C473.457 631.299 473.456 631.3 473.456 631.3C473.454 631.302 473.453 631.303 473.45 631.305C473.445 631.31 473.438 631.316 473.429 631.324C473.411 631.341 473.385 631.365 473.35 631.397C473.28 631.46 473.179 631.553 473.048 631.673C472.787 631.913 472.412 632.261 471.951 632.693C471.029 633.558 469.763 634.765 468.386 636.133C465.66 638.84 462.401 642.271 460.566 644.932L463.036 646.635C464.694 644.23 467.767 640.975 470.5 638.261C471.852 636.919 473.097 635.732 474.004 634.881C474.457 634.456 474.825 634.115 475.08 633.881C475.207 633.764 475.306 633.673 475.372 633.613C475.405 633.582 475.431 633.559 475.448 633.544C475.456 633.536 475.462 633.531 475.466 633.527C475.468 633.525 475.47 633.524 475.471 633.523C475.471 633.522 475.472 633.522 475.472 633.522C475.472 633.522 475.472 633.522 475.472 633.522C475.472 633.522 475.472 633.522 474.465 632.41ZM460.566 644.932C458.604 647.776 457.457 652.47 456.79 657.027C456.113 661.661 455.893 666.453 455.945 669.717L458.944 669.669C458.895 666.551 459.106 661.921 459.759 657.461C460.422 652.926 461.504 648.856 463.036 646.635L460.566 644.932ZM455.945 669.717C455.994 672.837 455.943 676.736 456.383 680.124C456.604 681.828 456.957 683.489 457.55 684.919C458.142 686.349 459.018 687.655 460.346 688.49L461.942 685.95C461.321 685.56 460.773 684.86 460.321 683.771C459.87 682.683 459.562 681.312 459.358 679.738C458.947 676.571 458.996 672.932 458.944 669.669L455.945 669.717ZM461.174 701.936L479.458 690.434L477.861 687.895L459.576 699.397L461.174 701.936ZM460.346 688.49C461.594 689.275 463.436 689.737 465.285 690.038C467.189 690.348 469.32 690.518 471.295 690.61C473.274 690.701 475.126 690.714 476.481 690.705C477.159 690.7 477.715 690.69 478.102 690.681C478.296 690.676 478.448 690.672 478.552 690.669C478.604 690.667 478.644 690.666 478.671 690.665C478.685 690.664 478.696 690.664 478.703 690.664C478.707 690.663 478.709 690.663 478.711 690.663C478.712 690.663 478.713 690.663 478.714 690.663C478.714 690.663 478.714 690.663 478.715 690.663C478.715 690.663 478.715 690.663 478.659 689.164C478.604 687.665 478.604 687.665 478.604 687.665C478.604 687.665 478.604 687.665 478.603 687.665C478.603 687.665 478.603 687.665 478.602 687.665C478.601 687.665 478.599 687.665 478.596 687.666C478.59 687.666 478.581 687.666 478.569 687.666C478.545 687.667 478.508 687.669 478.459 687.67C478.362 687.673 478.217 687.677 478.031 687.682C477.658 687.69 477.12 687.701 476.46 687.705C475.141 687.714 473.344 687.701 471.433 687.613C469.516 687.524 467.512 687.361 465.767 687.077C463.965 686.784 462.643 686.391 461.942 685.95L460.346 688.49ZM491.62 615.866C492.443 612.685 492.554 607.875 492.209 602.714C491.863 597.51 491.041 591.786 489.91 586.697L486.982 587.348C488.08 592.288 488.879 597.861 489.216 602.914C489.556 608.012 489.413 612.421 488.716 615.115L491.62 615.866ZM489.91 586.697C488.733 581.401 484.809 574.304 481.309 568.676C479.538 565.829 477.839 563.3 476.583 561.483C475.955 560.574 475.436 559.843 475.075 559.337C474.894 559.084 474.752 558.888 474.655 558.754C474.606 558.688 474.569 558.636 474.543 558.602C474.53 558.584 474.521 558.571 474.514 558.562C474.511 558.557 474.508 558.554 474.506 558.551C474.505 558.55 474.505 558.549 474.504 558.549C474.504 558.548 474.504 558.548 474.504 558.548C474.503 558.547 474.503 558.547 473.295 559.436C472.087 560.326 472.087 560.326 472.087 560.326C472.087 560.326 472.087 560.326 472.088 560.326C472.088 560.326 472.088 560.327 472.089 560.328C472.09 560.33 472.092 560.333 472.095 560.337C472.101 560.344 472.11 560.356 472.122 560.373C472.145 560.405 472.181 560.453 472.227 560.518C472.321 560.646 472.458 560.837 472.635 561.084C472.989 561.577 473.497 562.296 474.115 563.189C475.352 564.978 477.023 567.465 478.761 570.26C482.279 575.917 485.93 582.614 486.982 587.348L489.91 586.697ZM474.415 558.438L455.861 537.628L453.621 539.625L472.176 560.435L474.415 558.438ZM475.342 633.627L487.342 624.974L485.588 622.541L473.588 631.193L475.342 633.627ZM486.465 623.758C487.573 624.769 487.573 624.769 487.574 624.768C487.574 624.768 487.574 624.768 487.575 624.767C487.575 624.767 487.576 624.766 487.577 624.765C487.578 624.763 487.58 624.762 487.581 624.76C487.585 624.756 487.588 624.752 487.593 624.747C487.602 624.737 487.612 624.725 487.625 624.71C487.651 624.68 487.684 624.641 487.724 624.591C487.805 624.493 487.914 624.353 488.046 624.171C488.309 623.807 488.662 623.274 489.06 622.553C489.856 621.111 490.829 618.927 491.62 615.866L488.716 615.115C487.988 617.931 487.109 619.88 486.434 621.103C486.096 621.714 485.808 622.145 485.615 622.413C485.518 622.547 485.444 622.641 485.399 622.695C485.377 622.723 485.362 622.741 485.355 622.749C485.351 622.753 485.35 622.755 485.35 622.754C485.35 622.754 485.351 622.753 485.352 622.752C485.353 622.751 485.354 622.75 485.354 622.749C485.355 622.749 485.355 622.748 485.356 622.748C485.356 622.748 485.357 622.747 485.357 622.747C485.357 622.747 485.358 622.746 486.465 623.758ZM486.465 623.758C485.427 624.841 485.427 624.841 485.427 624.841C485.427 624.841 485.427 624.841 485.427 624.841C485.427 624.841 485.428 624.841 485.428 624.841C485.429 624.842 485.43 624.843 485.431 624.844C485.434 624.847 485.439 624.852 485.445 624.858C485.458 624.87 485.478 624.889 485.504 624.915C485.556 624.965 485.634 625.041 485.734 625.14C485.936 625.339 486.228 625.629 486.587 625.996C487.306 626.729 488.291 627.761 489.353 628.957C491.509 631.382 493.87 634.353 495.055 636.824L497.76 635.528C496.38 632.648 493.77 629.409 491.596 626.963C490.493 625.723 489.473 624.654 488.729 623.895C488.356 623.515 488.052 623.212 487.84 623.003C487.734 622.899 487.651 622.818 487.593 622.762C487.565 622.734 487.543 622.713 487.528 622.698C487.52 622.691 487.514 622.685 487.51 622.681C487.508 622.679 487.506 622.678 487.505 622.677C487.504 622.676 487.504 622.676 487.504 622.675C487.503 622.675 487.503 622.675 487.503 622.675C487.503 622.675 487.503 622.674 486.465 623.758ZM495.055 636.824C497.59 642.111 500.998 651.235 501.453 658.667L504.448 658.483C503.958 650.48 500.357 640.944 497.76 635.528L495.055 636.824ZM501.453 658.667C501.902 665.993 499.161 672.681 495.857 676.425L498.107 678.41C501.942 674.063 504.944 666.593 504.448 658.483L501.453 658.667ZM495.857 676.425C495.098 677.285 493.644 678.436 491.766 679.722C489.92 680.986 487.774 682.308 485.722 683.515C483.672 684.72 481.731 685.801 480.302 686.581C479.587 686.971 479.002 687.285 478.595 687.501C478.392 687.61 478.234 687.693 478.127 687.75C478.073 687.778 478.032 687.799 478.005 687.814C477.992 687.821 477.981 687.826 477.975 687.829C477.971 687.831 477.969 687.833 477.967 687.833C477.966 687.834 477.966 687.834 477.966 687.834C477.965 687.834 477.965 687.834 477.965 687.834C477.965 687.834 477.965 687.834 478.659 689.164C479.353 690.494 479.354 690.494 479.354 690.494C479.354 690.494 479.354 690.494 479.354 690.493C479.355 690.493 479.356 690.493 479.357 690.492C479.359 690.491 479.362 690.49 479.365 690.488C479.373 690.484 479.384 690.478 479.398 690.47C479.427 690.455 479.47 690.433 479.525 690.404C479.636 690.345 479.798 690.26 480.005 690.149C480.419 689.929 481.014 689.61 481.739 689.214C483.187 688.424 485.157 687.327 487.242 686.101C489.324 684.877 491.536 683.516 493.461 682.198C495.353 680.902 497.081 679.573 498.107 678.41L495.857 676.425ZM460.375 700.667C458.894 700.902 458.894 700.902 458.894 700.902C458.894 700.902 458.894 700.902 458.894 700.902C458.894 700.902 458.894 700.902 458.894 700.903C458.894 700.904 458.894 700.906 458.895 700.909C458.896 700.914 458.897 700.923 458.899 700.934C458.902 700.957 458.908 700.992 458.915 701.037C458.929 701.129 458.949 701.264 458.974 701.437C459.025 701.784 459.095 702.282 459.173 702.886C459.33 704.097 459.517 705.72 459.642 707.385C459.767 709.062 459.825 710.732 459.736 712.053C459.692 712.718 459.614 713.237 459.513 713.603C459.397 714.024 459.313 714.008 459.447 713.902L461.303 716.26C461.945 715.754 462.243 714.987 462.405 714.401C462.582 713.76 462.679 713.016 462.73 712.253C462.832 710.722 462.762 708.888 462.634 707.162C462.504 705.424 462.31 703.743 462.149 702.501C462.068 701.879 461.995 701.364 461.943 701.003C461.916 700.823 461.895 700.682 461.88 700.584C461.873 700.536 461.867 700.498 461.863 700.472C461.861 700.46 461.859 700.45 461.858 700.443C461.858 700.439 461.857 700.437 461.857 700.435C461.857 700.434 461.857 700.433 461.857 700.433C461.857 700.432 461.857 700.432 461.857 700.432C461.857 700.432 461.857 700.431 460.375 700.667ZM459.447 713.902C458.712 714.481 457.224 715.084 454.969 715.57C452.769 716.044 450.022 716.371 446.937 716.521L447.082 719.517C450.278 719.363 453.197 719.021 455.601 718.503C457.95 717.996 460.005 717.281 461.303 716.26L459.447 713.902ZM392.834 711.891C396.02 711.752 399.219 711.52 401.618 711.323C402.818 711.225 403.82 711.135 404.523 711.07C404.874 711.037 405.151 711.01 405.34 710.992C405.434 710.983 405.507 710.976 405.556 710.971C405.581 710.968 405.6 710.966 405.612 710.965C405.619 710.964 405.624 710.964 405.627 710.964C405.629 710.963 405.63 710.963 405.631 710.963C405.631 710.963 405.632 710.963 405.632 710.963C405.632 710.963 405.632 710.963 405.632 710.963C405.632 710.963 405.632 710.963 405.482 709.471C405.331 707.978 405.331 707.978 405.331 707.978C405.331 707.978 405.331 707.978 405.331 707.978C405.331 707.978 405.33 707.978 405.33 707.978C405.329 707.978 405.328 707.979 405.327 707.979C405.324 707.979 405.319 707.979 405.314 707.98C405.302 707.981 405.284 707.983 405.26 707.985C405.213 707.99 405.142 707.997 405.049 708.006C404.864 708.024 404.592 708.05 404.245 708.082C403.551 708.147 402.56 708.236 401.372 708.333C398.994 708.528 395.837 708.757 392.703 708.894L392.834 711.891ZM405.482 709.471C405.621 710.964 405.621 710.964 405.621 710.964C405.621 710.964 405.622 710.964 405.622 710.964C405.623 710.964 405.624 710.964 405.625 710.964C405.628 710.964 405.632 710.963 405.637 710.963C405.648 710.962 405.664 710.96 405.685 710.958C405.728 710.954 405.791 710.948 405.873 710.941C406.038 710.925 406.282 710.902 406.594 710.873C407.219 710.813 408.121 710.727 409.23 710.62C411.448 710.406 414.496 710.107 417.815 709.768C424.441 709.091 432.187 708.251 436.551 707.608L436.114 704.64C431.827 705.272 424.148 706.105 417.511 706.783C414.198 707.122 411.156 707.42 408.941 707.634C407.834 707.741 406.934 707.827 406.311 707.886C405.999 707.915 405.757 707.938 405.593 707.954C405.51 707.961 405.448 707.967 405.406 707.971C405.385 707.973 405.369 707.975 405.358 707.976C405.353 707.976 405.349 707.977 405.346 707.977C405.345 707.977 405.344 707.977 405.343 707.977C405.343 707.977 405.343 707.977 405.342 707.977C405.342 707.977 405.342 707.977 405.482 709.471ZM446.937 716.521C443.878 716.669 439.436 716.521 435.713 716.331C433.862 716.236 432.205 716.133 431.011 716.052C430.414 716.012 429.933 715.978 429.602 715.954C429.436 715.942 429.308 715.932 429.222 715.926C429.179 715.922 429.146 715.92 429.124 715.918C429.113 715.917 429.105 715.917 429.099 715.916C429.097 715.916 429.095 715.916 429.093 715.916C429.093 715.916 429.092 715.916 429.092 715.916C429.092 715.916 429.092 715.916 429.092 715.916C429.092 715.916 429.092 715.916 428.976 717.411C428.86 718.907 428.86 718.907 428.86 718.907C428.86 718.907 428.86 718.907 428.86 718.907C428.861 718.907 428.861 718.907 428.862 718.907C428.864 718.907 428.866 718.907 428.869 718.907C428.875 718.908 428.884 718.908 428.895 718.909C428.918 718.911 428.952 718.914 428.996 718.917C429.085 718.924 429.216 718.933 429.384 718.946C429.72 718.97 430.206 719.005 430.809 719.045C432.015 719.127 433.689 719.232 435.56 719.327C439.285 719.517 443.859 719.673 447.082 719.517L446.937 716.521ZM427.512 717.083L420.215 749.651L423.143 750.306L430.439 717.739L427.512 717.083ZM420.202 749.718L413.53 787.524L416.484 788.046L423.156 750.239L420.202 749.718ZM414.337 786.443L399.214 794.005L400.556 796.688L415.678 789.127L414.337 786.443ZM399.885 795.346C401.339 795.712 401.339 795.712 401.339 795.712C401.339 795.712 401.34 795.712 401.34 795.712C401.34 795.711 401.34 795.71 401.34 795.71C401.34 795.708 401.341 795.705 401.342 795.702C401.343 795.696 401.346 795.687 401.349 795.674C401.355 795.65 401.364 795.614 401.376 795.567C401.399 795.472 401.434 795.333 401.478 795.153C401.566 794.793 401.694 794.271 401.849 793.619C402.161 792.314 402.587 790.488 403.046 788.399C403.961 784.234 405.015 778.98 405.541 774.736L402.564 774.367C402.056 778.466 401.026 783.609 400.116 787.756C399.662 789.823 399.24 791.631 398.932 792.922C398.777 793.567 398.652 794.083 398.565 794.437C398.521 794.614 398.487 794.75 398.465 794.842C398.453 794.888 398.444 794.923 398.439 794.946C398.436 794.958 398.434 794.966 398.432 794.972C398.431 794.975 398.431 794.977 398.431 794.978C398.43 794.979 398.43 794.98 398.43 794.98C398.43 794.98 398.43 794.98 398.43 794.98C398.43 794.98 398.43 794.98 399.885 795.346ZM405.541 774.736C406.573 766.415 409.273 750.764 411.961 742.6L409.112 741.662C406.329 750.114 403.601 766.001 402.564 774.367L405.541 774.736ZM429.469 715.995L422.783 713.664L421.795 716.497L428.482 718.828L429.469 715.995ZM422.764 713.658L405.956 708.048L405.007 710.894L421.814 716.504L422.764 713.658ZM411.961 742.6C413.3 738.535 416.204 731.844 418.805 726.11C420.099 723.256 421.309 720.661 422.195 718.778C422.637 717.837 422.999 717.075 423.25 716.548C423.376 716.284 423.474 716.08 423.54 715.941C423.573 715.872 423.598 715.819 423.615 715.784C423.624 715.766 423.63 715.753 423.634 715.744C423.637 715.74 423.638 715.737 423.639 715.734C423.64 715.733 423.64 715.732 423.64 715.732C423.64 715.732 423.641 715.731 423.641 715.731C423.641 715.731 423.641 715.731 422.289 715.081C420.937 714.431 420.937 714.431 420.937 714.431C420.937 714.431 420.937 714.431 420.937 714.432C420.936 714.432 420.936 714.433 420.935 714.434C420.934 714.437 420.933 714.44 420.93 714.445C420.926 714.454 420.919 714.468 420.911 714.486C420.893 714.522 420.868 714.576 420.834 714.646C420.767 714.786 420.668 714.992 420.542 715.257C420.289 715.788 419.925 716.555 419.48 717.501C418.59 719.392 417.374 722.001 416.073 724.871C413.481 730.585 410.509 737.42 409.112 741.662L411.961 742.6ZM399.885 795.346C399.76 793.851 399.76 793.851 399.76 793.851C399.759 793.851 399.759 793.852 399.759 793.852C399.758 793.852 399.756 793.852 399.755 793.852C399.751 793.852 399.746 793.853 399.739 793.853C399.724 793.854 399.703 793.856 399.675 793.859C399.618 793.863 399.534 793.87 399.424 793.879C399.204 793.898 398.879 793.925 398.462 793.959C397.627 794.028 396.421 794.127 394.937 794.247C391.97 794.488 387.892 794.815 383.448 795.158C374.551 795.845 364.22 796.596 358.394 796.861L358.53 799.858C364.411 799.591 374.791 798.835 383.679 798.149C388.128 797.805 392.21 797.478 395.18 797.237C396.665 797.117 397.872 797.018 398.708 796.949C399.126 796.914 399.451 796.887 399.672 796.869C399.783 796.86 399.867 796.853 399.924 796.848C399.952 796.846 399.973 796.844 399.988 796.843C399.995 796.842 400 796.842 400.004 796.842C400.006 796.841 400.007 796.841 400.008 796.841C400.009 796.841 400.009 796.841 400.009 796.841C400.009 796.841 400.01 796.841 399.885 795.346ZM358.394 796.861C346.59 797.398 335.943 799.627 325.524 801.13L325.952 804.099C336.607 802.563 346.921 800.386 358.53 799.858L358.394 796.861ZM325.524 801.13C320.303 801.883 313.629 802.513 308.24 802.956C305.55 803.177 303.188 803.351 301.499 803.469C300.654 803.528 299.978 803.574 299.514 803.604C299.281 803.62 299.102 803.631 298.981 803.639C298.92 803.643 298.874 803.646 298.843 803.648C298.828 803.649 298.816 803.649 298.809 803.65C298.805 803.65 298.802 803.65 298.8 803.65C298.799 803.65 298.799 803.65 298.798 803.65C298.798 803.65 298.798 803.65 298.798 803.65C298.798 803.65 298.798 803.65 298.891 805.148C298.984 806.645 298.984 806.645 298.984 806.645C298.984 806.645 298.984 806.645 298.984 806.645C298.985 806.645 298.986 806.645 298.987 806.644C298.989 806.644 298.992 806.644 298.996 806.644C299.004 806.643 299.016 806.643 299.032 806.642C299.064 806.64 299.11 806.637 299.172 806.633C299.295 806.625 299.476 806.613 299.71 806.598C300.179 806.567 300.859 806.521 301.709 806.462C303.407 806.343 305.781 806.168 308.486 805.946C313.887 805.502 320.637 804.866 325.952 804.099L325.524 801.13ZM300.39 805.194L302.011 753.018L299.012 752.925L297.391 805.101L300.39 805.194ZM300.512 752.972C302.012 752.966 302.012 752.966 302.012 752.966C302.012 752.966 302.012 752.966 302.012 752.965C302.012 752.965 302.012 752.964 302.012 752.962C302.012 752.96 302.011 752.956 302.011 752.951C302.011 752.941 302.011 752.927 302.011 752.908C302.011 752.87 302.011 752.814 302.01 752.74C302.009 752.594 302.008 752.378 302.005 752.101C301.999 751.546 301.989 750.745 301.97 749.756C301.933 747.78 301.863 745.051 301.731 742.043C301.47 736.067 300.961 728.852 299.95 724.28L297.021 724.928C297.968 729.211 298.472 736.179 298.734 742.174C298.864 745.151 298.934 747.854 298.971 749.813C298.989 750.792 298.999 751.584 299.005 752.131C299.008 752.405 299.009 752.617 299.01 752.761C299.011 752.832 299.011 752.887 299.011 752.923C299.011 752.941 299.011 752.955 299.011 752.964C299.012 752.968 299.012 752.972 299.012 752.974C299.012 752.975 299.012 752.976 299.012 752.976C299.012 752.977 299.012 752.977 299.012 752.977C299.012 752.977 299.012 752.977 300.512 752.972ZM287.503 706.775C287.799 705.353 287.785 702.993 287.722 701.151C287.69 700.196 287.641 699.32 287.6 698.683C287.58 698.365 287.562 698.105 287.549 697.924C287.542 697.834 287.537 697.763 287.533 697.715C287.531 697.691 287.53 697.672 287.529 697.659C287.528 697.653 287.528 697.648 287.527 697.644C287.527 697.642 287.527 697.641 287.527 697.64C287.527 697.64 287.527 697.639 287.527 697.639C287.527 697.639 287.527 697.639 287.527 697.639C287.527 697.638 287.527 697.638 286.032 697.76C284.537 697.881 284.537 697.881 284.537 697.881C284.537 697.881 284.537 697.881 284.537 697.881C284.537 697.881 284.537 697.881 284.537 697.881C284.537 697.882 284.537 697.883 284.537 697.884C284.537 697.887 284.538 697.891 284.538 697.896C284.539 697.907 284.54 697.924 284.542 697.947C284.545 697.991 284.55 698.058 284.557 698.144C284.569 698.316 284.587 698.566 284.606 698.874C284.646 699.49 284.693 700.336 284.724 701.254C284.789 703.16 284.776 705.154 284.566 706.163L287.503 706.775ZM287.409 697.166L283.717 688.594L280.962 689.78L284.654 698.353L287.409 697.166ZM299.95 724.28C298.923 719.638 295.718 712.763 292.86 707.178C291.415 704.357 290.034 701.816 289.013 699.98C288.503 699.062 288.082 698.32 287.789 697.806C287.642 697.549 287.528 697.35 287.449 697.214C287.41 697.146 287.38 697.094 287.359 697.058C287.349 697.041 287.341 697.027 287.336 697.018C287.333 697.014 287.331 697.01 287.33 697.008C287.329 697.007 287.328 697.006 287.328 697.005C287.328 697.005 287.328 697.004 287.328 697.004C287.328 697.004 287.327 697.004 286.032 697.76C284.736 698.515 284.736 698.515 284.736 698.516C284.736 698.516 284.736 698.516 284.736 698.516C284.737 698.516 284.737 698.517 284.738 698.518C284.739 698.52 284.741 698.523 284.743 698.527C284.748 698.535 284.755 698.548 284.765 698.565C284.784 698.598 284.813 698.648 284.851 698.714C284.927 698.846 285.04 699.041 285.184 699.294C285.472 699.799 285.887 700.531 286.391 701.438C287.4 703.252 288.765 705.762 290.189 708.545C293.068 714.169 296.089 720.717 297.021 724.928L299.95 724.28ZM297.395 805.03C296.729 813.521 295.967 816.371 295.77 827.816L298.769 827.867C298.965 816.531 299.7 814.01 300.386 805.265L297.395 805.03ZM295.77 827.816C295.667 833.743 296.927 838.429 299.187 842.121C301.446 845.811 304.639 848.403 308.235 850.249L309.606 847.58C306.388 845.928 303.658 843.679 301.745 840.555C299.834 837.432 298.675 833.331 298.769 827.867L295.77 827.816ZM308.235 850.249C310.153 851.234 313.334 852.062 317.153 852.765C321.023 853.477 325.711 854.088 330.756 854.581C340.846 855.567 352.443 856.088 361.923 855.987L361.891 852.987C352.526 853.087 341.037 852.572 331.048 851.596C326.054 851.107 321.455 850.506 317.696 849.814C313.885 849.113 311.094 848.344 309.606 847.58L308.235 850.249ZM361.923 855.987C380.681 855.785 388.839 854.997 394.561 852.297L393.282 849.584C388.265 851.95 380.821 852.783 361.891 852.987L361.923 855.987ZM406.948 832.663C408.503 823.912 408.5 816.064 406.929 809.557L404.013 810.261C405.46 816.256 405.5 823.666 403.994 832.138L406.948 832.663ZM406.929 809.557C406.145 806.31 404.71 802.579 403.494 799.7C402.882 798.252 402.318 797.002 401.907 796.113C401.701 795.668 401.533 795.313 401.416 795.069C401.358 794.947 401.312 794.852 401.281 794.787C401.265 794.755 401.253 794.73 401.245 794.713C401.241 794.704 401.237 794.698 401.235 794.693C401.234 794.691 401.233 794.689 401.233 794.688C401.232 794.687 401.232 794.687 401.232 794.686C401.232 794.686 401.232 794.686 401.232 794.686C401.232 794.686 401.231 794.686 399.885 795.346C398.538 796.007 398.538 796.007 398.538 796.007C398.538 796.007 398.538 796.007 398.538 796.007C398.538 796.007 398.538 796.007 398.538 796.008C398.539 796.008 398.539 796.01 398.54 796.011C398.542 796.015 398.545 796.02 398.548 796.028C398.555 796.042 398.566 796.065 398.581 796.095C398.61 796.155 398.653 796.245 398.709 796.362C398.821 796.597 398.984 796.94 399.184 797.373C399.584 798.238 400.134 799.457 400.73 800.867C401.93 803.707 403.288 807.258 404.013 810.261L406.929 809.557ZM415.007 787.785C414.055 788.944 414.055 788.944 414.055 788.944C414.055 788.944 414.055 788.944 414.055 788.944C414.055 788.944 414.056 788.944 414.056 788.945C414.057 788.945 414.058 788.947 414.06 788.948C414.064 788.952 414.071 788.957 414.079 788.964C414.097 788.978 414.123 789 414.158 789.03C414.229 789.088 414.334 789.176 414.469 789.292C414.741 789.523 415.135 789.863 415.622 790.294C416.595 791.157 417.933 792.382 419.388 793.831C422.327 796.758 425.632 800.486 427.446 803.923L430.1 802.523C428.064 798.665 424.486 794.674 421.505 791.705C420 790.207 418.618 788.941 417.612 788.049C417.108 787.603 416.698 787.249 416.413 787.006C416.27 786.885 416.158 786.791 416.081 786.727C416.043 786.695 416.013 786.67 415.992 786.653C415.982 786.645 415.974 786.638 415.969 786.634C415.966 786.631 415.964 786.629 415.962 786.628C415.961 786.628 415.961 786.627 415.96 786.627C415.96 786.626 415.96 786.626 415.96 786.626C415.959 786.626 415.959 786.626 415.007 787.785ZM427.446 803.923C431.135 810.911 432.408 820.198 431.145 827.484L434.101 827.996C435.472 820.086 434.111 810.123 430.1 802.523L427.446 803.923ZM422.74 840.431C421.605 841.103 419.779 841.658 417.531 842.083C415.32 842.501 412.843 842.769 410.506 842.939C408.173 843.108 406.006 843.178 404.419 843.205C403.627 843.219 402.982 843.222 402.536 843.221C402.313 843.221 402.14 843.22 402.023 843.219C401.965 843.219 401.921 843.218 401.892 843.218C401.877 843.218 401.867 843.217 401.86 843.217C401.856 843.217 401.854 843.217 401.852 843.217C401.851 843.217 401.851 843.217 401.85 843.217C401.85 843.217 401.85 843.217 401.85 843.217C401.85 843.217 401.85 843.217 401.827 844.717C401.805 846.217 401.805 846.217 401.805 846.217C401.805 846.217 401.806 846.217 401.806 846.217C401.807 846.217 401.808 846.217 401.809 846.217C401.811 846.217 401.815 846.217 401.819 846.217C401.828 846.217 401.84 846.217 401.856 846.218C401.889 846.218 401.936 846.218 401.998 846.219C402.122 846.22 402.302 846.221 402.533 846.221C402.995 846.222 403.658 846.219 404.471 846.205C406.095 846.177 408.32 846.105 410.723 845.931C413.122 845.757 415.722 845.478 418.088 845.031C420.417 844.591 422.669 843.96 424.269 843.012L422.74 840.431ZM390.101 529.019L431.466 516.121L430.573 513.257L389.208 526.155L390.101 529.019ZM252.665 546.299C252.426 547.162 251.876 548.185 251 549.398C250.131 550.601 249.005 551.907 247.693 553.341C245.11 556.166 241.792 559.498 238.769 563.172L241.085 565.079C244.046 561.48 247.203 558.323 249.907 555.366C251.24 553.908 252.46 552.5 253.432 551.155C254.395 549.82 255.179 548.461 255.556 547.101L252.665 546.299ZM238.769 563.172C230.926 572.703 223.795 583.447 219.062 591.967L221.685 593.424C226.332 585.058 233.362 574.464 241.085 565.079L238.769 563.172ZM202.341 663.412C203.759 663.901 203.759 663.902 203.759 663.903C203.759 663.903 203.759 663.903 203.758 663.904C203.758 663.905 203.758 663.906 203.758 663.906C203.757 663.908 203.757 663.909 203.756 663.91C203.756 663.912 203.755 663.913 203.755 663.913C203.755 663.913 203.757 663.909 203.76 663.901C203.766 663.886 203.778 663.855 203.797 663.81C203.835 663.719 203.901 663.571 204.003 663.368C204.208 662.963 204.556 662.343 205.11 661.546C206.216 659.953 208.146 657.646 211.395 654.942L209.476 652.636C206.029 655.505 203.912 658.01 202.645 659.835C202.012 660.747 201.593 661.487 201.326 662.016C201.192 662.28 201.097 662.491 201.033 662.644C201 662.72 200.976 662.782 200.958 662.829C200.949 662.852 200.942 662.871 200.936 662.887C200.933 662.895 200.931 662.902 200.929 662.907C200.928 662.91 200.927 662.913 200.926 662.916C200.925 662.917 200.925 662.918 200.925 662.919C200.925 662.92 200.924 662.92 200.924 662.921C200.924 662.921 200.924 662.922 202.341 663.412ZM211.395 654.942C214.633 652.246 217.537 650.506 221.143 649.324C224.787 648.129 229.221 647.48 235.564 647.078L235.374 644.084C228.952 644.491 224.217 645.159 220.209 646.473C216.165 647.799 212.934 649.757 209.476 652.636L211.395 654.942ZM308.953 850.414L333.35 849.892L333.286 846.892L308.888 847.415L308.953 850.414ZM333.318 848.392C333.278 849.891 333.278 849.891 333.279 849.891C333.279 849.891 333.279 849.891 333.28 849.891C333.28 849.891 333.281 849.891 333.283 849.891C333.286 849.892 333.29 849.892 333.295 849.892C333.305 849.892 333.32 849.892 333.34 849.893C333.38 849.894 333.439 849.895 333.515 849.897C333.667 849.9 333.889 849.905 334.173 849.909C334.741 849.918 335.554 849.927 336.539 849.929C338.508 849.933 341.173 849.905 343.945 849.783C346.71 849.66 349.619 849.441 352.063 849.053C353.284 848.86 354.426 848.618 355.392 848.313C356.318 848.019 357.252 847.616 357.909 847.008L355.87 844.807C355.71 844.955 355.295 845.196 354.486 845.453C353.716 845.696 352.736 845.909 351.594 846.09C349.312 846.452 346.532 846.665 343.813 846.786C341.101 846.906 338.485 846.932 336.544 846.929C335.575 846.927 334.776 846.918 334.221 846.909C333.943 846.905 333.726 846.901 333.579 846.898C333.506 846.896 333.45 846.895 333.413 846.894C333.394 846.893 333.38 846.893 333.371 846.893C333.366 846.893 333.363 846.893 333.361 846.892C333.36 846.892 333.359 846.892 333.358 846.892C333.358 846.892 333.358 846.892 333.358 846.892C333.358 846.892 333.358 846.892 333.318 848.392ZM357.909 847.008C358.907 846.082 359.646 844.918 360.241 843.761C360.833 842.609 361.335 841.356 361.797 840.258C362.275 839.12 362.711 838.141 363.205 837.36C363.698 836.581 364.165 836.137 364.634 835.921L363.381 833.195C362.171 833.752 361.317 834.734 360.67 835.755C360.026 836.774 359.504 837.969 359.031 839.097C358.54 840.264 358.097 841.37 357.573 842.389C357.052 843.402 356.504 844.22 355.87 844.807L357.909 847.008ZM364.634 835.921C366.028 835.28 368.667 834.851 371.638 834.745C374.568 834.64 377.539 834.858 379.495 835.343L380.216 832.431C377.889 831.855 374.614 831.636 371.531 831.747C368.488 831.855 365.344 832.292 363.381 833.195L364.634 835.921ZM379.495 835.343C379.981 835.463 380.454 835.844 380.926 836.736C381.404 837.636 381.757 838.827 382.097 840.182C382.418 841.458 382.74 842.943 383.148 844.128C383.356 844.734 383.614 845.347 383.956 845.879C384.298 846.411 384.781 846.949 385.47 847.268L386.732 844.546C386.731 844.546 386.726 844.544 386.715 844.536C386.705 844.529 386.688 844.515 386.666 844.494C386.62 844.45 386.556 844.375 386.479 844.256C386.321 844.01 386.156 843.649 385.984 843.152C385.632 842.128 385.368 840.887 385.007 839.451C384.666 838.092 384.241 836.583 383.577 835.33C382.907 834.067 381.873 832.841 380.216 832.431L379.495 835.343ZM394.561 852.297C396.785 851.248 398.554 850.012 399.887 848.89L397.956 846.595C396.791 847.575 395.238 848.661 393.282 849.584L394.561 852.297ZM399.887 848.89C400.933 848.01 401.714 847.199 402.238 846.599C402.501 846.299 402.7 846.051 402.837 845.873C402.906 845.785 402.959 845.713 402.996 845.661C403.015 845.635 403.03 845.614 403.042 845.598C403.047 845.59 403.052 845.584 403.055 845.578C403.057 845.576 403.059 845.573 403.06 845.572C403.061 845.571 403.062 845.57 403.062 845.569C403.062 845.568 403.063 845.568 403.063 845.568C403.063 845.567 403.063 845.567 403.063 845.567C403.064 845.567 403.064 845.567 401.827 844.717C400.591 843.867 400.591 843.867 400.592 843.867C400.592 843.867 400.592 843.867 400.592 843.867C400.592 843.866 400.592 843.866 400.592 843.866C400.593 843.865 400.593 843.865 400.593 843.865C400.594 843.864 400.594 843.864 400.594 843.864C400.594 843.864 400.593 843.865 400.591 843.867C400.588 843.872 400.58 843.883 400.57 843.898C400.548 843.927 400.512 843.976 400.461 844.042C400.359 844.174 400.2 844.374 399.981 844.624C399.543 845.124 398.87 845.826 397.956 846.595L399.887 848.89ZM385.47 847.268C386.355 847.678 387.676 847.978 389.008 848.21C390.387 848.45 391.941 848.644 393.388 848.795C394.838 848.947 396.199 849.058 397.196 849.131C397.695 849.168 398.104 849.195 398.389 849.213C398.531 849.222 398.643 849.229 398.719 849.233C398.758 849.235 398.787 849.237 398.807 849.238C398.817 849.239 398.825 849.239 398.83 849.24C398.833 849.24 398.835 849.24 398.836 849.24C398.837 849.24 398.837 849.24 398.838 849.24C398.838 849.24 398.838 849.24 398.838 849.24C398.838 849.24 398.839 849.24 398.922 847.742C399.005 846.245 399.005 846.245 399.005 846.245C399.005 846.245 399.005 846.245 399.005 846.245C399.005 846.245 399.004 846.245 399.004 846.245C399.003 846.245 399.001 846.244 398.999 846.244C398.995 846.244 398.988 846.244 398.979 846.243C398.96 846.242 398.933 846.241 398.897 846.238C398.824 846.234 398.717 846.228 398.579 846.219C398.302 846.201 397.903 846.175 397.415 846.139C396.439 846.067 395.111 845.959 393.7 845.811C392.286 845.663 390.807 845.478 389.523 845.254C388.193 845.023 387.223 844.774 386.732 844.546L385.47 847.268ZM357.595 819.575C356.38 819.996 354.682 820.748 353.28 821.612C352.585 822.04 351.893 822.538 351.367 823.084C350.903 823.566 350.255 824.405 350.362 825.476L353.347 825.178C353.379 825.496 353.191 825.515 353.527 825.166C353.803 824.88 354.255 824.535 354.854 824.166C356.041 823.434 357.535 822.771 358.577 822.409L357.595 819.575ZM350.362 825.476C350.468 826.536 351.223 827.209 351.814 827.589C352.444 827.993 353.227 828.29 354.017 828.515C355.614 828.97 357.593 829.229 359.361 829.323L359.52 826.327C357.886 826.241 356.148 826.003 354.84 825.63C354.177 825.441 353.711 825.242 353.436 825.065C353.122 824.863 353.317 824.87 353.347 825.178L350.362 825.476ZM359.361 829.323C361.149 829.418 365.789 829.27 369.882 829.106C371.95 829.023 373.912 828.934 375.355 828.867C376.077 828.833 376.67 828.804 377.083 828.784C377.289 828.773 377.45 828.765 377.56 828.76C377.615 828.757 377.657 828.755 377.685 828.754C377.699 828.753 377.71 828.752 377.717 828.752C377.721 828.752 377.724 828.752 377.726 828.752C377.726 828.752 377.727 828.752 377.728 828.752C377.728 828.752 377.728 828.752 377.728 828.751C377.728 828.751 377.728 828.751 377.652 827.253C377.576 825.755 377.576 825.755 377.576 825.755C377.576 825.755 377.576 825.755 377.576 825.755C377.575 825.755 377.574 825.755 377.574 825.755C377.572 825.756 377.569 825.756 377.566 825.756C377.559 825.756 377.548 825.757 377.534 825.757C377.506 825.759 377.465 825.761 377.41 825.764C377.301 825.769 377.141 825.777 376.936 825.787C376.525 825.807 375.934 825.836 375.215 825.87C373.775 825.937 371.821 826.026 369.762 826.108C365.599 826.275 361.133 826.413 359.52 826.327L359.361 829.323ZM377.652 827.253C377.713 828.752 377.714 828.752 377.714 828.752C377.714 828.752 377.714 828.752 377.715 828.752C377.715 828.752 377.716 828.752 377.717 828.752C377.719 828.752 377.722 828.752 377.725 828.752C377.732 828.751 377.742 828.751 377.754 828.75C377.779 828.749 377.815 828.748 377.861 828.745C377.952 828.741 378.085 828.733 378.252 828.723C378.587 828.703 379.063 828.669 379.633 828.619C380.767 828.517 382.294 828.345 383.831 828.058C385.344 827.776 386.97 827.365 388.246 826.751C389.391 826.2 390.94 825.143 390.892 823.301L387.893 823.38C387.889 823.253 387.993 823.543 386.945 824.048C386.029 824.489 384.714 824.842 383.281 825.109C381.871 825.372 380.447 825.534 379.366 825.63C378.828 825.678 378.38 825.71 378.068 825.729C377.913 825.738 377.791 825.745 377.71 825.749C377.669 825.751 377.638 825.753 377.618 825.753C377.608 825.754 377.601 825.754 377.596 825.754C377.594 825.755 377.593 825.755 377.592 825.755C377.591 825.755 377.591 825.755 377.591 825.755C377.591 825.755 377.591 825.755 377.591 825.755C377.591 825.755 377.591 825.755 377.652 827.253ZM390.892 823.301C390.851 821.762 389.903 820.71 388.859 820.048C387.838 819.401 386.545 818.996 385.298 818.725C382.796 818.179 379.916 818.059 378.481 817.957L378.268 820.949C379.843 821.062 382.427 821.169 384.659 821.656C385.779 821.9 386.67 822.213 387.253 822.582C387.813 822.937 387.888 823.202 387.893 823.38L390.892 823.301ZM378.481 817.957C375.416 817.739 370.336 817.653 366.502 817.993L366.767 820.981C370.399 820.659 375.313 820.739 378.268 820.949L378.481 817.957ZM366.502 817.993C362.746 818.326 360.035 818.729 357.595 819.575L358.577 822.409C360.653 821.69 363.058 821.31 366.767 820.981L366.502 817.993ZM356.329 805.447C354.268 805.712 352.481 806.39 351.229 807.351C350.021 808.28 349.008 809.759 349.474 811.48L352.37 810.697C352.365 810.682 352.283 810.325 353.057 809.731C353.787 809.17 355.034 808.638 356.712 808.422L356.329 805.447ZM349.474 811.48C349.655 812.149 349.985 812.744 350.492 813.226C350.988 813.697 351.583 813.992 352.196 814.184C353.366 814.551 354.866 814.614 356.521 814.614V811.614C354.834 811.614 353.769 811.533 353.093 811.321C352.782 811.224 352.633 811.121 352.557 811.05C352.493 810.989 352.423 810.896 352.37 810.697L349.474 811.48ZM356.521 814.614C358.172 814.614 360.288 814.657 362.051 814.7C363.778 814.742 365.223 814.786 365.445 814.786V811.786C365.445 811.786 365.443 811.786 365.437 811.786C365.432 811.786 365.425 811.786 365.417 811.786C365.399 811.785 365.376 811.785 365.347 811.784C365.29 811.783 365.215 811.781 365.123 811.779C364.938 811.774 364.692 811.768 364.394 811.76C363.8 811.744 363.008 811.722 362.124 811.7C360.359 811.657 358.211 811.614 356.521 811.614V814.614ZM365.445 814.786C365.445 814.786 365.448 814.786 365.457 814.786C365.465 814.786 365.476 814.786 365.49 814.786C365.517 814.787 365.554 814.787 365.6 814.787C365.675 814.788 365.836 814.79 365.976 814.791C366.289 814.794 366.723 814.799 367.244 814.803C368.285 814.811 369.672 814.818 371.135 814.816C374.015 814.812 377.328 814.771 378.786 814.604L378.445 811.624C377.194 811.767 374.08 811.812 371.131 811.816C368.137 811.821 365.717 811.786 365.445 811.786V814.786ZM378.786 814.604C380.273 814.434 382.018 813.986 383.401 813.267C384.09 812.909 384.781 812.436 385.289 811.815C385.818 811.168 386.183 810.303 386.028 809.295L383.063 809.751C383.064 809.757 383.064 809.755 383.062 809.763C383.057 809.779 383.036 809.831 382.965 809.917C382.812 810.105 382.51 810.349 382.017 810.605C381.038 811.115 379.667 811.484 378.445 811.624L378.786 814.604ZM386.028 809.295C385.856 808.174 385.038 807.421 384.306 806.947C383.537 806.449 382.565 806.063 381.545 805.763C379.491 805.158 376.924 804.807 374.551 804.713L374.432 807.711C376.634 807.798 378.944 808.124 380.698 808.641C381.582 808.901 382.247 809.187 382.676 809.465C383.143 809.767 383.085 809.894 383.063 809.751L386.028 809.295ZM374.551 804.713C369.905 804.53 369.301 804.68 363.565 804.863L363.661 807.862C369.495 807.675 369.927 807.533 374.432 807.711L374.551 804.713ZM363.613 806.363C363.573 804.863 363.573 804.863 363.573 804.863C363.573 804.863 363.573 804.863 363.573 804.863C363.572 804.863 363.572 804.863 363.572 804.863C363.571 804.863 363.57 804.863 363.569 804.863C363.567 804.863 363.564 804.863 363.561 804.864C363.553 804.864 363.543 804.864 363.529 804.864C363.502 804.865 363.462 804.867 363.41 804.868C363.307 804.872 363.158 804.877 362.967 804.886C362.585 804.902 362.039 804.929 361.374 804.971C360.047 805.055 358.24 805.201 356.329 805.447L356.712 808.422C358.54 808.187 360.279 808.046 361.564 807.965C362.205 807.924 362.731 807.898 363.095 807.883C363.277 807.875 363.419 807.87 363.514 807.867C363.561 807.865 363.597 807.864 363.621 807.863C363.632 807.863 363.641 807.862 363.647 807.862C363.65 807.862 363.651 807.862 363.653 807.862C363.653 807.862 363.654 807.862 363.654 807.862C363.654 807.862 363.654 807.862 363.654 807.862C363.654 807.862 363.654 807.862 363.654 807.862C363.654 807.862 363.654 807.862 363.613 806.363ZM401.827 844.717C403.13 845.46 403.131 845.46 403.131 845.46C403.131 845.459 403.131 845.459 403.131 845.459C403.132 845.458 403.132 845.458 403.132 845.457C403.133 845.456 403.134 845.454 403.135 845.453C403.136 845.45 403.138 845.446 403.141 845.442C403.145 845.434 403.151 845.423 403.158 845.41C403.173 845.384 403.192 845.348 403.216 845.303C403.263 845.213 403.328 845.085 403.409 844.918C403.571 844.582 403.794 844.09 404.057 843.431C404.584 842.113 405.271 840.129 405.947 837.404L403.035 836.681C402.392 839.275 401.747 841.129 401.271 842.318C401.034 842.913 400.839 843.342 400.707 843.614C400.641 843.751 400.591 843.848 400.56 843.907C400.544 843.937 400.533 843.957 400.527 843.968C400.524 843.974 400.523 843.977 400.522 843.978C400.522 843.978 400.522 843.978 400.522 843.978C400.523 843.977 400.523 843.977 400.523 843.976C400.523 843.976 400.524 843.975 400.524 843.975C400.524 843.975 400.524 843.975 400.524 843.974C400.524 843.974 400.525 843.974 401.827 844.717ZM405.947 837.404C406.291 836.018 406.632 834.441 406.948 832.663L403.994 832.138C403.69 833.851 403.363 835.362 403.035 836.681L405.947 837.404ZM404.491 837.042C404.631 838.536 404.631 838.536 404.632 838.536C404.632 838.536 404.632 838.536 404.632 838.536C404.633 838.536 404.633 838.535 404.634 838.535C404.635 838.535 404.637 838.535 404.64 838.535C404.645 838.534 404.652 838.534 404.661 838.533C404.68 838.531 404.707 838.528 404.743 838.525C404.814 838.518 404.919 838.507 405.054 838.493C405.323 838.466 405.714 838.424 406.204 838.368C407.181 838.256 408.553 838.087 410.134 837.859C413.28 837.404 417.307 836.704 420.696 835.731L419.869 832.848C416.676 833.764 412.808 834.441 409.704 834.89C408.159 835.113 406.817 835.278 405.863 835.387C405.386 835.442 405.006 835.483 404.746 835.509C404.616 835.523 404.516 835.533 404.45 835.539C404.416 835.543 404.391 835.545 404.375 835.547C404.366 835.547 404.36 835.548 404.356 835.548C404.354 835.548 404.353 835.549 404.352 835.549C404.352 835.549 404.351 835.549 404.351 835.549C404.351 835.549 404.351 835.549 404.351 835.549C404.351 835.549 404.351 835.549 404.491 837.042ZM431.145 827.484C431.006 828.288 430.856 829.034 430.693 829.729L433.614 830.412C433.792 829.652 433.953 828.848 434.101 827.996L431.145 827.484ZM430.693 829.729C430.028 832.57 429.155 834.546 427.942 836.136C426.725 837.731 425.09 839.038 422.74 840.431L424.269 843.012C426.794 841.516 428.787 839.974 430.328 837.955C431.872 835.93 432.886 833.525 433.614 830.412L430.693 829.729ZM420.696 835.731C424.039 834.772 427.048 833.702 429.221 832.873C430.308 832.458 431.188 832.103 431.798 831.85C432.103 831.724 432.341 831.623 432.503 831.554C432.585 831.519 432.647 831.492 432.69 831.473C432.711 831.464 432.728 831.457 432.739 831.452C432.745 831.449 432.749 831.447 432.753 831.446C432.754 831.445 432.755 831.445 432.756 831.444C432.757 831.444 432.757 831.444 432.757 831.444C432.758 831.444 432.758 831.444 432.758 831.444C432.758 831.444 432.758 831.444 432.154 830.071C431.549 828.698 431.549 828.698 431.549 828.698C431.549 828.698 431.549 828.698 431.549 828.698C431.549 828.698 431.549 828.698 431.549 828.698C431.549 828.698 431.548 828.699 431.547 828.699C431.545 828.7 431.542 828.701 431.537 828.703C431.528 828.707 431.514 828.713 431.495 828.722C431.457 828.738 431.4 828.763 431.323 828.796C431.171 828.861 430.944 828.957 430.65 829.078C430.063 829.322 429.209 829.667 428.151 830.07C426.033 830.879 423.107 831.918 419.869 832.848L420.696 835.731ZM286.642 682.456C286.34 682.619 285.714 682.752 284.573 682.665C283.471 682.582 282.086 682.312 280.425 681.885L279.678 684.791C281.404 685.235 282.986 685.554 284.347 685.657C285.667 685.757 286.999 685.673 288.068 685.095L286.642 682.456ZM280.425 681.885C277.923 681.242 274.935 680.28 271.55 679.185C268.183 678.096 264.447 676.883 260.512 675.765C252.655 673.532 243.893 671.641 235.434 671.841L235.504 674.84C243.512 674.65 251.931 676.445 259.692 678.651C263.567 679.752 267.251 680.948 270.627 682.04C273.987 683.127 277.069 684.12 279.678 684.791L280.425 681.885ZM283.737 688.64L281.448 682.792L278.654 683.885L280.943 689.734L283.737 688.64Z" fill="black"/>
</svg>
