<svg width="701" height="901" viewBox="0 0 701 901" fill="none" xmlns="http://www.w3.org/2000/svg">
<path d="M253.314 650.8C257.976 644.333 267.441 640.8 268.805 635.082C270.168 629.365 265.975 599.495 266.138 590.081C266.301 580.667 267.825 563.798 268.859 555.745C269.893 547.692 271.186 538.623 272.072 532.271C272.958 525.919 272.486 526.391 272.486 526.391L260.611 523.706L260.595 523.703C260.595 523.703 259.718 529.8 255.574 534.263C251.429 538.727 243.579 544.747 235.395 553.078C227.211 561.409 219.762 574.837 215.449 586.451C211.137 598.066 208.785 613.747 209.275 623.99C209.765 634.232 212.313 648.541 215.989 657.657C219.664 666.772 221.673 672.603 228.24 677.406C234.807 682.208 246.506 685.96 246.506 685.96C246.506 685.96 248.652 657.268 253.314 650.8Z" fill="#FFFBE5"/>
<path d="M446.698 553.471C449.511 561.695 455.624 582.881 454.469 595.076C453.313 607.27 447.574 617.591 447.216 624.406C446.857 631.22 455.671 637.754 457.71 640.728C459.75 643.703 461.861 654.652 462.718 660.63C462.718 660.63 470.449 649.392 472.64 642.578C474.832 635.763 478.817 623.768 479.734 612.935C480.65 602.102 477.941 586.029 474.553 574.433C471.166 562.836 457.896 546.227 450.882 539.205C443.868 532.182 433.72 526.391 433.72 526.391C433.72 526.391 443.884 545.248 446.698 553.471Z" fill="#FFFBE5"/>
<path d="M432.898 764.807C422.772 768.489 389.693 767.446 381.469 766.403C373.245 765.359 370.299 763.764 368.704 763.089L369.827 782.818L393.805 784.843C393.805 784.843 419.765 785.857 422.404 784.843C425.043 783.828 429.707 777.724 433.941 776.897C438.176 776.07 448.364 775.424 451.003 776.468C453.642 777.511 457.569 782.111 459.349 782.818C461.129 783.525 466.494 782.818 466.494 782.818L457.901 751.944C457.901 751.944 443.024 761.125 432.898 764.807Z" fill="#FFFBE5"/>
<path d="M315.015 759.079L314.697 759.093C304.076 759.546 273.333 759.468 269.554 759.093C269.554 759.093 271.016 764.475 271.737 769.471C272.458 774.468 272.992 784.843 272.992 784.843C272.992 784.843 274.008 790.46 277.629 791.013C281.25 791.565 288.41 792.194 291.437 791.013C294.464 789.832 293.865 786.222 298.297 784.843C302.73 783.464 325.437 783.156 328.321 784.843C331.206 786.53 332.126 789.888 334.52 791.013C336.913 792.137 362.067 786.53 362.067 786.53C362.067 786.53 361.431 776.157 360.419 771.435C359.406 766.713 356.837 753.295 356.837 753.295C356.837 753.295 348.083 755.724 340.78 757.013C333.55 758.289 325.482 758.633 315.015 759.079Z" fill="#FFFBE5"/>
<path d="M410.197 587.439C413.184 587.026 437.54 595.683 439.601 599.805C441.662 603.927 443.723 608.675 442.899 612.935C442.075 617.195 432.731 625.912 428.884 626.324C425.036 626.736 412.676 618.156 410.762 612.935C408.848 607.714 407.21 587.851 410.197 587.439Z" fill="#D8927F"/>
<path d="M294.96 529.307C298.171 532.3 305.644 538.179 311.653 540.991C319.335 544.585 338.723 548.599 350.578 549.446C362.433 550.294 382.498 548.57 391.305 545.222C400.112 541.875 409.251 536.506 411.27 533.506C413.29 530.506 413.184 523.902 413.184 523.902L360.198 532.295L294.96 529.307Z" fill="#FFFBE5"/>
<path fill-rule="evenodd" clip-rule="evenodd" d="M294.96 529.307C294.066 528.475 293.502 527.865 293.392 527.608C292.887 526.43 262.926 524.219 260.611 523.706L272.486 526.391C272.486 526.391 272.958 525.919 272.072 532.271C271.186 538.623 269.893 547.692 268.859 555.745C267.825 563.798 266.301 580.667 266.138 590.081C265.975 599.495 270.168 629.365 268.805 635.082C267.441 640.8 257.976 644.333 253.314 650.8C248.652 657.268 246.506 685.96 246.506 685.96C246.506 685.96 245.635 692.127 246.222 693.959C246.809 695.792 259.736 696.42 259.736 696.42C268.859 697.116 323.438 699.874 343.51 700.492C363.582 701.109 456.377 703.302 456.377 703.302C456.377 703.302 464.515 703.588 465.572 702.942C466.629 702.296 465.482 688.153 465.105 681.057C464.727 673.96 463.575 666.608 462.718 660.63C461.861 654.652 459.75 643.703 457.71 640.728C455.671 637.754 446.857 631.22 447.216 624.406C447.574 617.591 453.313 607.27 454.469 595.076C455.624 582.881 449.511 561.695 446.698 553.471C443.884 545.248 433.72 526.391 433.72 526.391C433.72 526.391 431.851 522.586 431.066 520.992H413.184V523.902C413.184 523.902 413.29 530.506 411.27 533.506C409.251 536.506 400.112 541.875 391.305 545.222C382.498 548.57 362.433 550.294 350.578 549.446C338.723 548.599 319.335 544.585 311.653 540.991C305.644 538.179 298.171 532.3 294.96 529.307ZM439.601 599.805C437.54 595.683 413.184 587.026 410.197 587.439C407.21 587.851 408.848 607.714 410.762 612.935C412.676 618.156 425.036 626.736 428.884 626.324C432.731 625.912 442.075 617.195 442.899 612.935C443.723 608.675 441.662 603.927 439.601 599.805Z" fill="#7CACAE"/>
<path d="M343.51 700.492C323.438 699.874 268.859 697.116 259.736 696.42C259.736 696.42 260.724 724.464 261.689 731.87C262.654 739.277 264.004 758.233 264.679 758.609C265.354 758.984 269.554 759.093 269.554 759.093C273.333 759.468 304.076 759.546 314.697 759.093L315.015 759.079C325.482 758.633 333.55 758.289 340.78 757.013C348.083 755.724 356.837 753.295 356.837 753.295L360.042 752.452C360.042 752.452 361.935 716.039 362.067 715.169C362.198 714.298 362.26 757.197 363.242 758.854C364.224 760.511 367.108 762.414 368.704 763.089C370.299 763.764 373.245 765.359 381.469 766.403C389.693 767.446 422.772 768.489 432.898 764.807C443.024 761.125 457.901 751.944 457.901 751.944C457.901 751.944 461.313 749.71 462.418 744.739C463.522 739.768 456.377 703.302 456.377 703.302C456.377 703.302 363.582 701.109 343.51 700.492Z" fill="#F16593"/>
<path fill-rule="evenodd" clip-rule="evenodd" d="M393.805 784.843L369.827 782.818C369.827 782.818 370.79 794.756 371.22 801.814C371.65 808.872 372.452 829.022 373.033 829.718C373.613 830.413 375.086 830.781 375.086 830.781C376.407 831.149 388.465 833.657 393.805 834.218C399.144 834.779 435.207 835.237 444.056 834.586C452.905 833.935 477.965 828.874 477.965 828.874C477.965 828.874 479.735 813.47 479.049 805.312C478.364 797.154 466.494 782.818 466.494 782.818C466.494 782.818 461.129 783.525 459.349 782.818C457.569 782.111 453.642 777.511 451.003 776.468C448.364 775.424 438.176 776.07 433.941 776.897C429.707 777.724 425.043 783.828 422.404 784.843C419.765 785.857 393.805 784.843 393.805 784.843ZM463.305 802.799C459.036 804.534 434.297 805.606 429.843 805.344C425.389 805.082 423.377 804.406 423.306 801.207C423.235 798.008 425.392 796.401 428.422 795.599C431.453 794.797 441.484 794.153 445.601 793.629C449.718 793.105 456.867 792.468 460.273 792.543C463.68 792.618 468.321 793.741 468.733 796.623C469.144 799.505 467.574 801.064 463.305 802.799Z" fill="#CF6F64"/>
<path fill-rule="evenodd" clip-rule="evenodd" d="M362.067 786.53C362.067 786.53 336.913 792.137 334.52 791.013C332.126 789.888 331.206 786.53 328.321 784.843C325.437 783.156 302.73 783.464 298.297 784.843C293.865 786.222 294.464 789.832 291.437 791.013C288.41 792.194 281.25 791.565 277.629 791.013C274.008 790.46 272.992 784.843 272.992 784.843C272.992 784.843 269.221 791.504 266.95 798.5C264.679 805.496 263.82 813.659 264.618 820.409C265.416 827.16 265.907 830.561 266.75 837.309C266.75 837.309 301.502 839.926 313.408 840.294C325.314 840.662 340.78 839.557 347.285 837.309C353.79 835.061 363.585 831.863 363.585 831.863C363.585 831.863 364.551 831.527 365.083 830.781C365.614 830.035 366.285 808.461 366.285 808.461L362.067 786.53ZM290.324 808.461C290.193 803.877 293.546 802.051 298.297 801.134C303.049 800.218 322.286 799.564 327.64 799.956C332.994 800.349 340.314 800.412 340.365 805.574C340.416 810.736 335.284 811.213 330.049 812.218C324.813 813.223 307.143 812.98 302.366 812.98L302.167 812.98C297.393 812.981 290.453 812.982 290.324 808.461Z" fill="#CF6F64"/>
<path d="M298.297 801.134C293.546 802.051 290.193 803.877 290.324 808.461C290.453 812.982 297.393 812.981 302.167 812.98L302.366 812.98C307.143 812.98 324.813 813.223 330.049 812.218C335.284 811.213 340.416 810.736 340.365 805.574C340.314 800.412 332.994 800.349 327.64 799.956C322.286 799.564 303.049 800.218 298.297 801.134Z" fill="#D8927F"/>
<path d="M429.843 805.344C434.297 805.606 459.036 804.534 463.305 802.799C467.574 801.064 469.144 799.505 468.733 796.623C468.321 793.741 463.68 792.618 460.273 792.543C456.867 792.468 449.718 793.105 445.601 793.629C441.484 794.153 431.453 794.797 428.422 795.599C425.392 796.401 423.235 798.008 423.306 801.207C423.377 804.406 425.389 805.082 429.843 805.344Z" fill="#D8927F"/>
<path d="M313.408 840.294C301.502 839.926 266.75 837.309 266.75 837.309C266.75 837.309 268.345 846.005 269.037 846.615C269.728 847.225 276.708 848.456 280.574 849.009C284.441 849.561 294.935 850.727 301.502 851.218C308.069 851.709 329.487 852.029 338.079 850.666C346.671 849.302 359.498 846.185 362.014 843.424C364.53 840.662 363.585 832.846 363.585 831.863C363.585 831.863 353.79 835.061 347.285 837.309C340.78 839.557 325.314 840.662 313.408 840.294Z" fill="#B9675D"/>
<path d="M477.965 828.874C477.965 828.874 452.905 833.935 444.056 834.586C435.207 835.237 399.144 834.779 393.805 834.218C388.465 833.657 376.407 831.149 375.086 830.781C375.086 830.781 373.92 836.734 377.48 838.084C381.039 839.435 389.079 841.337 397.855 842.38C406.631 843.424 428.05 845.204 435.046 845.388C442.042 845.572 458.245 844.518 463.768 843.045C469.291 841.572 474.999 840.171 476.84 836.427C478.681 832.684 477.965 828.874 477.965 828.874Z" fill="#B9675D"/>
<path d="M260.595 523.703L260.926 522.24L259.341 521.882L259.11 523.489L260.595 523.703ZM293.392 527.608L292.013 528.199L292.013 528.199L293.392 527.608ZM413.184 520.992V519.492H411.684V520.992H413.184ZM431.066 520.992L432.412 520.33L432 519.492H431.066V520.992ZM259.736 696.42L259.85 694.924L259.829 694.922L259.808 694.921L259.736 696.42ZM272.486 526.391L272.155 527.854L272.962 528.036L273.546 527.451L272.486 526.391ZM246.506 685.96L247.991 686.17L247.998 686.121L248.002 686.072L246.506 685.96ZM433.72 526.391L432.374 527.052L432.386 527.077L432.4 527.102L433.72 526.391ZM340.78 757.013L341.04 758.49L341.04 758.49L340.78 757.013ZM360.042 752.452L360.424 753.902L361.484 753.624L361.54 752.53L360.042 752.452ZM456.377 703.302L456.43 701.802L456.421 701.802L456.413 701.802L456.377 703.302ZM369.827 782.818L368.33 782.904L368.331 782.921L368.332 782.939L369.827 782.818ZM393.805 784.843L393.678 786.337L393.712 786.34L393.746 786.342L393.805 784.843ZM375.086 830.781L375.489 829.336L375.47 829.331L375.45 829.326L375.086 830.781ZM356.837 753.295L356.455 751.845L356.446 751.847L356.436 751.85L356.837 753.295ZM266.75 837.309L265.262 837.495L265.267 837.538L265.275 837.58L266.75 837.309ZM366.285 808.461L367.784 808.508L367.789 808.341L367.758 808.178L366.285 808.461ZM269.554 759.093L269.702 757.6L269.648 757.595L269.593 757.593L269.554 759.093ZM294.96 529.307L293.937 530.405L293.937 530.405L294.96 529.307ZM360.198 532.295L360.129 533.794L360.282 533.801L360.433 533.777L360.198 532.295ZM290.324 808.461L288.824 808.504L288.824 808.504L290.324 808.461ZM315.015 759.079L315.079 760.578L315.079 760.578L315.015 759.079ZM292.013 528.199C292.13 528.472 292.311 528.709 292.427 528.853C292.566 529.027 292.736 529.215 292.921 529.41C293.295 529.802 293.789 530.276 294.371 530.804C295.54 531.863 297.116 533.186 298.912 534.58C302.486 537.353 307.027 540.483 311.017 542.349L312.289 539.632C308.597 537.905 304.261 534.934 300.751 532.21C299.005 530.855 297.489 529.58 296.386 528.581C295.833 528.08 295.397 527.659 295.093 527.34C294.94 527.179 294.833 527.058 294.766 526.974C294.675 526.861 294.717 526.892 294.771 527.018L292.013 528.199ZM311.017 542.349C315.023 544.224 321.933 546.153 329.237 547.715C336.571 549.284 344.454 550.512 350.471 550.943L350.685 547.95C344.847 547.533 337.108 546.331 329.864 544.782C322.589 543.226 315.965 541.352 312.289 539.632L311.017 542.349ZM350.471 550.943C356.506 551.374 364.575 551.15 372.231 550.4C379.856 549.654 387.24 548.372 391.838 546.624L390.772 543.82C386.564 545.42 379.511 546.674 371.938 547.415C364.396 548.153 356.505 548.367 350.685 547.95L350.471 550.943ZM391.838 546.624C396.321 544.921 400.883 542.705 404.592 540.528C406.447 539.439 408.108 538.348 409.448 537.323C410.759 536.321 411.869 535.303 412.515 534.344L410.026 532.669C409.662 533.209 408.872 533.987 407.626 534.94C406.41 535.87 404.857 536.894 403.074 537.94C399.507 540.034 395.096 542.177 390.772 543.82L391.838 546.624ZM413.184 522.492H431.066V519.492H413.184V522.492ZM445.278 553.957C446.67 558.024 448.885 565.322 450.607 573.108C452.338 580.936 453.529 589.086 452.975 594.934L455.962 595.217C456.563 588.871 455.276 580.33 453.536 572.46C451.787 564.549 449.539 557.142 448.117 552.986L445.278 553.957ZM452.975 594.934C452.414 600.852 450.739 606.344 449.118 611.291C447.533 616.128 445.911 620.665 445.718 624.327L448.714 624.484C448.88 621.332 450.306 617.301 451.969 612.225C453.596 607.259 455.367 601.494 455.962 595.217L452.975 594.934ZM445.718 624.327C445.506 628.36 447.984 632.094 450.418 634.975C451.665 636.451 452.985 637.798 454.085 638.928C455.231 640.105 456.054 640.964 456.473 641.577L458.947 639.88C458.347 639.005 457.303 637.932 456.234 636.835C455.119 635.69 453.876 634.42 452.709 633.039C450.317 630.206 448.567 627.266 448.714 624.484L445.718 624.327ZM463.607 681.136C463.798 684.745 464.175 689.973 464.378 694.485C464.478 696.731 464.532 698.739 464.498 700.213C464.481 700.957 464.443 701.516 464.387 701.886C464.374 701.974 464.361 702.043 464.35 702.094C464.344 702.119 464.339 702.138 464.336 702.151C464.332 702.165 464.33 702.171 464.33 702.169C464.331 702.169 464.335 702.157 464.343 702.138C464.352 702.119 464.368 702.087 464.394 702.045C464.439 701.974 464.558 701.804 464.79 701.662L466.354 704.222C466.895 703.891 467.094 703.352 467.16 703.166C467.255 702.896 467.314 702.602 467.354 702.329C467.437 701.773 467.48 701.066 467.498 700.282C467.534 698.701 467.476 696.609 467.375 694.351C467.173 689.857 466.788 684.465 466.602 680.977L463.607 681.136ZM343.556 698.992C323.497 698.375 268.943 695.618 259.85 694.924L259.622 697.915C268.775 698.613 323.378 701.373 343.464 701.991L343.556 698.992ZM254.531 651.678C256.701 648.667 260.001 646.325 263.212 643.848C264.775 642.642 266.319 641.398 267.562 640.063C268.808 638.726 269.84 637.208 270.264 635.43L267.345 634.734C267.088 635.815 266.425 636.883 265.367 638.018C264.307 639.156 262.937 640.271 261.38 641.472C258.353 643.808 254.589 646.466 252.097 649.923L254.531 651.678ZM270.264 635.43C270.475 634.542 270.558 633.308 270.575 631.911C270.591 630.483 270.538 628.774 270.438 626.883C270.237 623.1 269.844 618.51 269.415 613.831C268.551 604.397 267.558 594.707 267.638 590.107L264.638 590.055C264.555 594.869 265.577 604.821 266.428 614.105C266.856 618.784 267.245 623.322 267.442 627.042C267.541 628.902 267.59 630.539 267.575 631.876C267.559 633.243 267.475 634.193 267.345 634.734L270.264 635.43ZM267.638 590.107C267.8 580.767 269.317 563.957 270.347 555.936L267.371 555.554C266.333 563.64 264.803 580.567 264.638 590.055L267.638 590.107ZM270.347 555.936C271.379 547.893 272.671 538.837 273.558 532.478L270.586 532.064C269.702 538.408 268.406 547.49 267.371 555.554L270.347 555.936ZM273.558 532.478C274.001 529.301 274.119 527.732 274.111 526.933C274.109 526.727 274.098 526.536 274.073 526.363C274.053 526.22 274.006 525.957 273.859 525.692C273.697 525.398 273.244 524.849 272.44 524.884C272.119 524.898 271.876 525.008 271.731 525.093C271.656 525.138 271.594 525.183 271.545 525.222C271.521 525.242 271.499 525.261 271.479 525.279C271.469 525.288 271.46 525.296 271.451 525.305C271.446 525.309 271.442 525.313 271.438 525.317C271.436 525.32 271.433 525.323 271.432 525.324C271.429 525.327 271.426 525.33 272.486 526.391C273.546 527.451 273.543 527.454 273.54 527.457C273.539 527.458 273.536 527.461 273.534 527.464C273.53 527.468 273.526 527.472 273.521 527.476C273.512 527.484 273.503 527.493 273.494 527.502C273.474 527.519 273.453 527.538 273.429 527.557C273.383 527.594 273.323 527.638 273.251 527.68C273.112 527.761 272.878 527.868 272.569 527.881C271.787 527.915 271.364 527.379 271.232 527.141C271.167 527.022 271.136 526.924 271.123 526.877C271.109 526.826 271.104 526.793 271.104 526.789C271.103 526.785 271.11 526.833 271.111 526.965C271.117 527.518 271.029 528.889 270.586 532.064L273.558 532.478ZM256.673 535.284C258.933 532.851 260.275 530.005 261.053 527.81C261.444 526.706 261.698 525.748 261.855 525.06C261.934 524.716 261.989 524.439 262.025 524.243C262.043 524.146 262.056 524.068 262.065 524.013C262.069 523.986 262.073 523.964 262.075 523.947C262.076 523.939 262.077 523.933 262.078 523.927C262.078 523.925 262.079 523.923 262.079 523.921C262.079 523.92 262.079 523.919 262.079 523.918C262.079 523.918 262.08 523.917 262.08 523.917C262.08 523.917 262.08 523.916 260.595 523.703C259.11 523.489 259.11 523.489 259.11 523.489C259.11 523.489 259.11 523.488 259.11 523.488C259.11 523.488 259.111 523.487 259.111 523.487C259.111 523.487 259.111 523.487 259.111 523.487C259.11 523.488 259.11 523.49 259.11 523.494C259.108 523.501 259.106 523.514 259.104 523.532C259.098 523.568 259.088 523.626 259.074 523.704C259.045 523.859 258.999 524.093 258.931 524.39C258.795 524.986 258.571 525.831 258.225 526.809C257.527 528.778 256.36 531.213 254.475 533.243L256.673 535.284ZM236.465 554.129C240.518 550.004 244.493 546.445 247.994 543.343C251.467 540.266 254.538 537.583 256.673 535.284L254.475 533.243C252.465 535.407 249.538 537.966 246.004 541.098C242.498 544.205 238.456 547.822 234.325 552.027L236.465 554.129ZM234.325 552.027C225.945 560.557 218.401 574.192 214.043 585.929L216.856 586.973C221.123 575.481 228.477 562.261 236.465 554.129L234.325 552.027ZM214.043 585.929C209.664 597.723 207.276 613.607 207.777 624.061L210.773 623.918C210.293 613.888 212.61 598.408 216.856 586.973L214.043 585.929ZM207.777 624.061C208.272 634.417 210.842 648.903 214.598 658.217L217.38 657.096C213.785 648.18 211.258 634.046 210.773 623.918L207.777 624.061ZM214.598 658.217C218.228 667.22 220.375 673.512 227.355 678.617L229.126 676.195C222.972 671.694 221.101 666.323 217.38 657.096L214.598 658.217ZM247.651 693.502C247.582 693.286 247.52 692.765 247.519 691.935C247.518 691.157 247.569 690.26 247.639 689.394C247.709 688.533 247.798 687.725 247.869 687.13C247.904 686.834 247.935 686.592 247.957 686.425C247.968 686.341 247.977 686.277 247.983 686.233C247.986 686.212 247.988 686.195 247.989 686.185C247.99 686.179 247.991 686.175 247.991 686.173C247.991 686.172 247.991 686.171 247.991 686.17C247.991 686.17 247.991 686.17 247.991 686.17C247.991 686.17 247.991 686.17 247.991 686.17C247.991 686.17 247.991 686.17 246.506 685.96C245.021 685.751 245.021 685.751 245.021 685.751C245.021 685.751 245.021 685.751 245.021 685.751C245.021 685.752 245.021 685.752 245.02 685.753C245.02 685.754 245.02 685.755 245.02 685.757C245.019 685.76 245.019 685.765 245.018 685.772C245.016 685.784 245.013 685.803 245.01 685.827C245.004 685.875 244.994 685.945 244.983 686.033C244.959 686.211 244.927 686.465 244.89 686.775C244.816 687.394 244.723 688.241 244.649 689.151C244.575 690.056 244.518 691.044 244.519 691.938C244.52 692.779 244.569 693.716 244.794 694.417L247.651 693.502ZM246.506 685.96C248.002 686.072 248.002 686.072 248.002 686.072C248.002 686.072 248.002 686.072 248.002 686.071C248.002 686.071 248.002 686.069 248.002 686.068C248.002 686.065 248.003 686.06 248.003 686.053C248.004 686.04 248.006 686.02 248.008 685.993C248.012 685.94 248.018 685.86 248.027 685.756C248.043 685.546 248.068 685.238 248.102 684.842C248.169 684.05 248.271 682.911 248.407 681.523C248.68 678.745 249.091 674.978 249.647 671.014C250.204 667.045 250.901 662.904 251.742 659.37C252.602 655.76 253.558 653.026 254.531 651.678L252.097 649.923C250.738 651.808 249.678 655.086 248.824 658.675C247.952 662.34 247.239 666.585 246.676 670.597C246.113 674.615 245.697 678.425 245.421 681.23C245.284 682.632 245.181 683.785 245.113 684.588C245.079 684.989 245.053 685.303 245.036 685.518C245.027 685.625 245.021 685.707 245.017 685.763C245.015 685.79 245.013 685.812 245.012 685.826C245.011 685.833 245.011 685.839 245.011 685.842C245.011 685.844 245.01 685.846 245.01 685.847C245.01 685.847 245.01 685.848 245.01 685.848C245.01 685.848 245.01 685.849 246.506 685.96ZM227.355 678.617C230.79 681.129 235.496 683.323 239.266 684.872C241.165 685.652 242.856 686.279 244.073 686.712C244.681 686.929 245.172 687.097 245.512 687.211C245.682 687.269 245.815 687.313 245.905 687.342C245.951 687.357 245.985 687.369 246.009 687.376C246.021 687.38 246.031 687.383 246.037 687.385C246.04 687.386 246.043 687.387 246.045 687.388C246.046 687.388 246.046 687.388 246.047 687.388C246.047 687.388 246.047 687.389 246.048 687.389C246.048 687.389 246.048 687.389 246.506 685.96C246.964 684.532 246.964 684.532 246.964 684.532C246.964 684.532 246.964 684.532 246.964 684.532C246.964 684.532 246.964 684.532 246.963 684.532C246.962 684.531 246.96 684.531 246.958 684.53C246.953 684.529 246.945 684.526 246.935 684.523C246.914 684.516 246.883 684.506 246.841 684.492C246.757 684.464 246.632 684.423 246.469 684.368C246.144 684.259 245.669 684.096 245.078 683.886C243.896 683.465 242.251 682.855 240.406 682.097C236.685 680.568 232.257 678.485 229.126 676.195L227.355 678.617ZM429.721 521.655C430.113 522.451 430.776 523.8 431.341 524.951C431.624 525.526 431.882 526.051 432.07 526.433C432.163 526.623 432.239 526.778 432.292 526.885C432.318 526.939 432.339 526.981 432.353 527.009C432.36 527.023 432.365 527.034 432.369 527.041C432.37 527.045 432.372 527.047 432.373 527.049C432.373 527.05 432.373 527.051 432.374 527.051C432.374 527.052 432.374 527.052 432.374 527.052C432.374 527.052 432.374 527.052 432.374 527.052C432.374 527.052 432.374 527.052 433.72 526.391C435.067 525.729 435.067 525.729 435.067 525.729C435.066 525.729 435.066 525.729 435.066 525.729C435.066 525.729 435.066 525.729 435.066 525.728C435.066 525.728 435.066 525.727 435.065 525.726C435.064 525.724 435.063 525.722 435.061 525.718C435.058 525.711 435.052 525.7 435.045 525.686C435.031 525.658 435.011 525.616 434.985 525.562C434.932 525.455 434.856 525.3 434.762 525.11C434.575 524.728 434.317 524.203 434.034 523.628C433.468 522.477 432.805 521.127 432.412 520.33L429.721 521.655ZM433.72 526.391C432.4 527.102 432.4 527.102 432.4 527.102C432.4 527.102 432.4 527.103 432.4 527.103C432.4 527.103 432.401 527.104 432.401 527.105C432.403 527.107 432.404 527.111 432.407 527.115C432.412 527.124 432.419 527.137 432.428 527.155C432.447 527.191 432.476 527.244 432.513 527.313C432.588 527.452 432.698 527.658 432.839 527.922C433.121 528.452 433.528 529.218 434.025 530.163C435.019 532.055 436.373 534.661 437.814 537.522C440.714 543.279 443.91 549.959 445.278 553.957L448.117 552.986C446.671 548.761 443.379 541.9 440.493 536.172C439.042 533.291 437.68 530.669 436.68 528.768C436.18 527.817 435.771 527.045 435.486 526.511C435.344 526.244 435.233 526.037 435.157 525.896C435.119 525.825 435.09 525.771 435.071 525.735C435.061 525.716 435.053 525.703 435.048 525.693C435.046 525.689 435.044 525.685 435.043 525.683C435.042 525.681 435.042 525.681 435.041 525.68C435.041 525.68 435.041 525.679 435.041 525.679C435.041 525.679 435.041 525.679 433.72 526.391ZM433.72 526.391C432.977 527.693 432.977 527.693 432.977 527.693C432.977 527.693 432.977 527.693 432.977 527.693C432.977 527.693 432.977 527.693 432.977 527.694C432.978 527.694 432.98 527.695 432.982 527.696C432.986 527.699 432.992 527.702 433.001 527.707C433.019 527.718 433.047 527.733 433.083 527.755C433.156 527.797 433.265 527.86 433.407 527.944C433.691 528.112 434.107 528.361 434.629 528.683C435.674 529.326 437.142 530.256 438.826 531.404C442.206 533.707 446.409 536.849 449.821 540.265L451.943 538.145C448.34 534.538 443.963 531.273 440.515 528.925C438.786 527.746 437.278 526.79 436.201 526.128C435.663 525.796 435.231 525.538 434.933 525.362C434.784 525.274 434.668 525.206 434.589 525.16C434.549 525.137 434.519 525.119 434.498 525.107C434.487 525.101 434.479 525.097 434.473 525.093C434.471 525.092 434.468 525.09 434.467 525.09C434.466 525.089 434.465 525.089 434.465 525.088C434.465 525.088 434.464 525.088 434.464 525.088C434.464 525.088 434.464 525.088 433.72 526.391ZM449.821 540.265C453.263 543.711 458.281 549.554 462.856 555.974C467.452 562.422 471.493 569.306 473.113 574.853L475.993 574.012C474.226 567.963 469.939 560.744 465.299 554.233C460.639 547.694 455.515 541.721 451.943 538.145L449.821 540.265ZM473.113 574.853C476.477 586.368 479.134 602.238 478.239 612.809L481.229 613.061C482.167 601.966 479.404 585.691 475.993 574.012L473.113 574.853ZM478.239 612.809C477.34 623.438 473.418 635.26 471.212 642.118L474.068 643.037C476.246 636.266 480.295 624.098 481.229 613.061L478.239 612.809ZM456.473 641.577C456.852 642.129 457.313 643.192 457.806 644.714C458.286 646.196 458.756 647.985 459.196 649.89C460.075 653.699 460.809 657.888 461.233 660.843L464.202 660.417C463.769 657.393 463.02 653.12 462.119 649.216C461.669 647.264 461.176 645.384 460.66 643.79C460.156 642.236 459.589 640.815 458.947 639.88L456.473 641.577ZM461.233 660.843C462.094 666.853 463.234 674.123 463.607 681.136L466.602 680.977C466.221 673.797 465.055 666.363 464.202 660.417L461.233 660.843ZM471.212 642.118C470.175 645.343 467.779 649.724 465.572 653.385C464.481 655.196 463.456 656.797 462.705 657.946C462.329 658.52 462.022 658.981 461.81 659.296C461.703 659.454 461.621 659.576 461.565 659.658C461.537 659.699 461.516 659.73 461.502 659.75C461.495 659.76 461.49 659.768 461.486 659.773C461.485 659.775 461.484 659.777 461.483 659.778C461.482 659.779 461.482 659.779 461.482 659.78C461.482 659.78 461.482 659.78 461.482 659.78C461.482 659.78 461.482 659.78 462.718 660.63C463.953 661.48 463.954 661.48 463.954 661.48C463.954 661.48 463.954 661.479 463.954 661.479C463.954 661.479 463.955 661.478 463.955 661.477C463.956 661.476 463.958 661.473 463.96 661.47C463.964 661.464 463.97 661.456 463.978 661.445C463.993 661.422 464.016 661.389 464.045 661.346C464.104 661.26 464.189 661.134 464.299 660.971C464.518 660.646 464.832 660.175 465.215 659.589C465.981 658.418 467.027 656.784 468.142 654.933C470.349 651.272 472.914 646.627 474.068 643.037L471.212 642.118ZM259.736 696.42C259.808 694.921 259.809 694.921 259.809 694.921C259.808 694.921 259.808 694.921 259.808 694.921C259.808 694.921 259.808 694.921 259.807 694.921C259.806 694.921 259.804 694.921 259.801 694.921C259.795 694.921 259.786 694.92 259.775 694.92C259.751 694.919 259.716 694.917 259.67 694.914C259.578 694.909 259.441 694.902 259.267 694.892C258.918 694.871 258.417 694.84 257.814 694.797C256.606 694.71 254.996 694.576 253.373 694.387C251.739 694.196 250.141 693.954 248.938 693.66C248.329 693.511 247.887 693.364 247.61 693.234C247.471 693.169 247.424 693.131 247.428 693.135C247.434 693.139 247.466 693.166 247.508 693.221C247.55 693.277 247.609 693.371 247.651 693.502L244.794 694.417C244.949 694.902 245.262 695.235 245.513 695.444C245.772 695.658 246.062 695.821 246.333 695.949C246.875 696.204 247.539 696.406 248.225 696.574C249.61 696.913 251.354 697.172 253.025 697.367C254.708 697.563 256.366 697.701 257.6 697.789C258.218 697.833 258.731 697.866 259.092 697.887C259.272 697.897 259.414 697.905 259.511 697.91C259.559 697.913 259.597 697.915 259.623 697.916C259.635 697.917 259.645 697.917 259.652 697.917C259.655 697.918 259.658 697.918 259.66 697.918C259.661 697.918 259.662 697.918 259.662 697.918C259.662 697.918 259.663 697.918 259.663 697.918C259.663 697.918 259.663 697.918 259.736 696.42ZM259.736 696.42C258.237 696.473 258.237 696.473 258.237 696.473C258.237 696.473 258.237 696.473 258.237 696.474C258.237 696.475 258.237 696.476 258.237 696.478C258.237 696.481 258.237 696.486 258.237 696.493C258.238 696.507 258.239 696.527 258.24 696.554C258.241 696.607 258.244 696.687 258.248 696.791C258.256 696.998 258.267 697.304 258.281 697.695C258.31 698.477 258.352 699.602 258.406 700.976C258.514 703.723 258.668 707.464 258.852 711.437C259.219 719.348 259.709 728.284 260.202 732.064L263.176 731.676C262.704 728.05 262.218 719.261 261.849 711.298C261.665 707.334 261.512 703.601 261.404 700.859C261.35 699.487 261.308 698.364 261.279 697.584C261.265 697.194 261.254 696.889 261.246 696.682C261.242 696.579 261.24 696.5 261.238 696.447C261.237 696.42 261.236 696.4 261.236 696.387C261.235 696.38 261.235 696.375 261.235 696.372C261.235 696.37 261.235 696.369 261.235 696.368C261.235 696.368 261.235 696.367 261.235 696.367C261.235 696.367 261.235 696.367 259.736 696.42ZM260.202 732.064C260.68 735.733 261.254 742.278 261.8 748.018C262.071 750.873 262.335 753.527 262.574 755.495C262.693 756.475 262.809 757.311 262.921 757.924C262.976 758.225 263.036 758.512 263.105 758.749C263.139 758.864 263.188 759.014 263.259 759.164C263.295 759.239 263.352 759.349 263.438 759.465C263.514 759.569 263.677 759.767 263.951 759.92L265.408 757.297C265.661 757.438 265.802 757.616 265.856 757.69C265.92 757.777 265.955 757.848 265.969 757.876C265.995 757.932 265.998 757.953 265.985 757.906C265.96 757.821 265.921 757.655 265.872 757.387C265.777 756.863 265.669 756.099 265.552 755.133C265.318 753.209 265.058 750.591 264.786 747.734C264.246 742.051 263.663 735.414 263.176 731.676L260.202 732.064ZM360.042 752.452C361.54 752.53 361.54 752.53 361.54 752.529C361.54 752.529 361.54 752.529 361.54 752.528C361.541 752.527 361.541 752.525 361.541 752.523C361.541 752.519 361.541 752.512 361.542 752.503C361.543 752.486 361.544 752.46 361.546 752.425C361.549 752.356 361.555 752.254 361.562 752.121C361.576 751.854 361.596 751.462 361.622 750.964C361.674 749.966 361.748 748.541 361.838 746.827C362.018 743.4 362.258 738.822 362.503 734.216C362.748 729.61 362.997 724.979 363.193 721.444C363.291 719.677 363.375 718.186 363.44 717.11C363.472 716.572 363.498 716.14 363.519 715.831C363.543 715.477 363.554 715.368 363.55 715.393L360.584 714.945C360.554 715.142 360.505 715.914 360.445 716.931C360.38 718.013 360.295 719.51 360.197 721.278C360.001 724.816 359.752 729.451 359.507 734.057C359.263 738.664 359.022 743.243 358.842 746.67C358.753 748.384 358.678 749.81 358.626 750.807C358.6 751.306 358.58 751.698 358.566 751.965C358.559 752.098 358.553 752.201 358.55 752.269C358.548 752.304 358.547 752.33 358.546 752.348C358.545 752.356 358.545 752.363 358.545 752.367C358.545 752.37 358.545 752.371 358.545 752.372C358.545 752.373 358.544 752.373 358.544 752.374C358.544 752.374 358.544 752.374 360.042 752.452ZM363.55 715.393C363.547 715.411 363.54 715.459 363.525 715.52C363.525 715.521 363.475 715.757 363.31 716C363.178 716.167 362.701 716.517 362.337 716.632C361.879 716.643 361.181 716.363 360.958 716.161C360.857 716.036 360.726 715.819 360.688 715.735C360.667 715.682 360.636 715.59 360.625 715.553C360.581 715.39 360.578 715.246 360.583 715.32C360.584 715.341 360.588 715.408 360.592 715.542C360.599 715.797 360.607 716.204 360.615 716.75C360.631 717.839 360.648 719.446 360.668 721.409C360.707 725.334 360.758 730.67 360.836 736.085C360.913 741.498 361.017 747.001 361.163 751.258C361.236 753.385 361.321 755.215 361.419 756.573C361.467 757.25 361.521 757.831 361.581 758.281C361.611 758.504 361.646 758.718 361.688 758.907C361.719 759.044 361.788 759.344 361.951 759.619L364.532 758.089C364.634 758.261 364.644 758.376 364.616 758.254C364.601 758.183 364.579 758.063 364.555 757.881C364.506 757.521 364.458 757.011 364.411 756.358C364.317 755.056 364.234 753.27 364.161 751.155C364.016 746.93 363.912 741.452 363.835 736.042C363.758 730.635 363.707 725.306 363.668 721.379C363.648 719.418 363.631 717.803 363.615 716.706C363.607 716.159 363.599 715.732 363.59 715.453C363.586 715.321 363.582 715.196 363.575 715.105C363.573 715.081 363.571 715.047 363.566 715.009C363.565 714.998 363.554 714.891 363.521 714.766C363.509 714.727 363.478 714.634 363.456 714.579C363.418 714.495 363.287 714.277 363.185 714.151C362.962 713.948 362.263 713.668 361.804 713.679C361.44 713.795 360.962 714.145 360.83 714.312C360.663 714.557 360.613 714.796 360.612 714.8C360.596 714.866 360.588 714.919 360.584 714.945L363.55 715.393ZM381.28 767.891C385.488 768.425 395.89 768.946 406.48 768.877C411.785 768.842 417.169 768.659 421.876 768.251C426.544 767.846 430.68 767.21 433.411 766.217L432.386 763.397C430.053 764.246 426.257 764.86 421.617 765.262C417.017 765.661 411.719 765.843 406.46 765.877C395.923 765.946 385.674 765.424 381.658 764.915L381.28 767.891ZM433.411 766.217C438.591 764.333 444.927 761.069 449.923 758.307C452.431 756.921 454.619 755.651 456.182 754.727C456.963 754.265 457.588 753.889 458.019 753.629C458.234 753.498 458.401 753.397 458.514 753.327C458.571 753.293 458.614 753.266 458.643 753.248C458.658 753.239 458.669 753.232 458.677 753.228C458.68 753.225 458.683 753.223 458.685 753.222C458.686 753.222 458.687 753.221 458.688 753.221C458.688 753.221 458.688 753.22 458.688 753.22C458.689 753.22 458.689 753.22 457.901 751.944C457.113 750.667 457.113 750.667 457.113 750.667C457.113 750.667 457.113 750.667 457.113 750.667C457.112 750.668 457.112 750.668 457.111 750.669C457.109 750.67 457.107 750.671 457.104 750.673C457.097 750.677 457.086 750.684 457.073 750.692C457.045 750.709 457.004 750.735 456.949 750.768C456.839 750.835 456.676 750.934 456.465 751.062C456.042 751.318 455.426 751.688 454.655 752.145C453.111 753.057 450.948 754.313 448.471 755.682C443.497 758.432 437.332 761.599 432.386 763.397L433.411 766.217ZM464.79 701.662C464.932 701.575 464.956 701.608 464.627 701.663C464.37 701.706 464.018 701.744 463.584 701.774C462.721 701.835 461.643 701.86 460.572 701.864C459.506 701.869 458.469 701.853 457.697 701.837C457.312 701.828 456.994 701.82 456.773 701.813C456.662 701.81 456.576 701.807 456.517 701.805C456.488 701.804 456.466 701.804 456.451 701.803C456.444 701.803 456.438 701.803 456.435 701.803C456.433 701.803 456.432 701.803 456.431 701.802C456.431 701.802 456.43 701.802 456.43 701.802C456.43 701.802 456.43 701.802 456.43 701.802C456.43 701.802 456.43 701.802 456.377 703.302C456.324 704.801 456.325 704.801 456.325 704.801C456.325 704.801 456.325 704.801 456.325 704.801C456.325 704.801 456.326 704.801 456.326 704.801C456.328 704.801 456.329 704.801 456.331 704.801C456.336 704.801 456.342 704.801 456.35 704.801C456.366 704.802 456.39 704.803 456.42 704.804C456.482 704.806 456.571 704.809 456.685 704.812C456.913 704.819 457.239 704.827 457.633 704.836C458.42 704.853 459.484 704.869 460.585 704.864C461.68 704.859 462.834 704.834 463.794 704.767C464.272 704.733 464.73 704.688 465.12 704.622C465.439 704.569 465.947 704.47 466.354 704.222L464.79 701.662ZM456.377 703.302C456.413 701.802 456.412 701.802 456.412 701.802C456.411 701.802 456.41 701.802 456.408 701.802C456.406 701.802 456.401 701.802 456.396 701.802C456.384 701.801 456.368 701.801 456.345 701.8C456.301 701.799 456.234 701.798 456.146 701.796C455.97 701.791 455.708 701.785 455.366 701.777C454.681 701.761 453.675 701.737 452.386 701.707C449.81 701.645 446.107 701.557 441.6 701.45C432.587 701.234 420.361 700.941 407.507 700.628C381.797 700.003 353.586 699.301 343.556 698.992L343.464 701.991C353.506 702.3 381.729 703.002 407.434 703.628C420.288 703.94 432.515 704.234 441.529 704.449C446.035 704.556 449.738 704.645 452.315 704.706C453.603 704.736 454.61 704.76 455.295 704.776C455.637 704.784 455.899 704.791 456.075 704.795C456.163 704.797 456.23 704.798 456.274 704.8C456.297 704.8 456.314 704.8 456.325 704.801C456.33 704.801 456.335 704.801 456.338 704.801C456.339 704.801 456.34 704.801 456.341 704.801C456.341 704.801 456.342 704.801 456.377 703.302ZM463.882 745.064C464.072 744.209 464.061 742.896 463.973 741.44C463.88 739.922 463.687 738.054 463.428 735.981C462.91 731.831 462.116 726.782 461.291 721.906C460.465 717.026 459.604 712.303 458.951 708.802C458.624 707.051 458.349 705.604 458.155 704.595C458.058 704.091 457.982 703.696 457.93 703.427C457.904 703.292 457.884 703.189 457.87 703.119C457.863 703.084 457.858 703.058 457.855 703.04C457.853 703.031 457.851 703.025 457.851 703.02C457.85 703.018 457.85 703.016 457.85 703.015C457.849 703.014 457.849 703.014 457.849 703.014C457.849 703.013 457.849 703.013 456.377 703.302C454.905 703.59 454.905 703.59 454.905 703.59C454.905 703.591 454.905 703.591 454.905 703.591C454.906 703.593 454.906 703.594 454.906 703.596C454.907 703.601 454.909 703.607 454.91 703.616C454.914 703.633 454.919 703.659 454.925 703.693C454.939 703.762 454.959 703.864 454.985 703.998C455.037 704.265 455.113 704.658 455.209 705.161C455.402 706.166 455.676 707.607 456.002 709.352C456.654 712.844 457.511 717.548 458.333 722.406C459.156 727.268 459.941 732.267 460.452 736.353C460.707 738.397 460.891 740.194 460.978 741.622C461.069 743.112 461.04 744.025 460.954 744.413L463.882 745.064ZM361.951 759.619C362.6 760.714 363.768 761.749 364.854 762.548C365.969 763.368 367.19 764.077 368.119 764.47L369.288 761.707C368.621 761.425 367.603 760.846 366.631 760.131C365.631 759.395 364.865 758.651 364.532 758.089L361.951 759.619ZM368.119 764.47C368.853 764.78 370.098 765.397 372.153 766.039C374.215 766.683 377.095 767.36 381.28 767.891L381.658 764.915C377.619 764.402 374.915 763.759 373.048 763.176C371.176 762.591 370.15 762.072 369.288 761.707L368.119 764.47ZM367.206 763.174L368.33 782.904L371.325 782.733L370.201 763.003L367.206 763.174ZM369.701 784.313L393.678 786.337L393.931 783.348L369.953 781.324L369.701 784.313ZM393.805 784.843C393.746 786.342 393.746 786.342 393.746 786.342C393.747 786.342 393.747 786.342 393.747 786.342C393.748 786.342 393.749 786.342 393.751 786.342C393.754 786.342 393.759 786.342 393.765 786.342C393.778 786.343 393.797 786.344 393.822 786.345C393.871 786.346 393.945 786.349 394.04 786.353C394.232 786.36 394.513 786.37 394.871 786.383C395.588 786.409 396.614 786.445 397.854 786.485C400.333 786.564 403.668 786.659 407.087 786.723C410.502 786.787 414.016 786.819 416.847 786.771C418.261 786.747 419.523 786.702 420.525 786.63C421.025 786.594 421.478 786.55 421.862 786.495C422.218 786.443 422.612 786.37 422.942 786.243L421.865 783.443C421.879 783.437 421.853 783.448 421.767 783.467C421.686 783.485 421.576 783.505 421.434 783.525C421.147 783.567 420.771 783.605 420.309 783.638C419.387 783.704 418.187 783.747 416.796 783.771C414.018 783.818 410.546 783.787 407.142 783.724C403.741 783.66 400.421 783.565 397.95 783.486C396.715 783.447 395.693 783.411 394.979 783.385C394.623 783.372 394.343 783.362 394.153 783.355C394.058 783.351 393.986 783.349 393.937 783.347C393.912 783.346 393.894 783.345 393.882 783.345C393.875 783.344 393.871 783.344 393.868 783.344C393.866 783.344 393.865 783.344 393.864 783.344C393.864 783.344 393.864 783.344 393.863 783.344C393.863 783.344 393.863 783.344 393.805 784.843ZM422.942 786.243C423.858 785.891 424.814 785.166 425.684 784.442C426.566 783.708 427.597 782.765 428.557 781.933C429.556 781.066 430.558 780.247 431.546 779.599C432.544 778.945 433.441 778.523 434.229 778.369L433.654 775.425C432.324 775.685 431.051 776.336 429.901 777.091C428.741 777.851 427.618 778.777 426.592 779.666C425.526 780.591 424.631 781.415 423.765 782.137C422.886 782.868 422.269 783.288 421.865 783.443L422.942 786.243ZM434.229 778.369C436.243 777.976 439.766 777.613 443.13 777.48C444.805 777.414 446.409 777.406 447.74 777.476C449.132 777.549 450.042 777.701 450.451 777.863L451.554 775.073C450.644 774.713 449.291 774.554 447.898 774.48C446.444 774.404 444.742 774.414 443.011 774.482C439.563 774.618 435.874 774.991 433.654 775.425L434.229 778.369ZM450.451 777.863C450.913 778.045 451.521 778.426 452.256 778.99C452.976 779.543 453.734 780.205 454.5 780.888C455.248 781.556 456.021 782.259 456.708 782.829C457.357 783.367 458.102 783.937 458.795 784.212L459.903 781.424C459.706 781.346 459.293 781.076 458.623 780.52C457.991 779.996 457.283 779.351 456.497 778.65C455.728 777.964 454.898 777.237 454.083 776.611C453.285 775.997 452.412 775.412 451.554 775.073L450.451 777.863ZM458.795 784.212C459.489 784.488 460.372 784.581 461.15 784.615C461.973 784.651 462.866 784.627 463.674 784.581C464.486 784.535 465.236 784.467 465.783 784.41C466.057 784.381 466.281 784.355 466.438 784.337C466.516 784.327 466.578 784.32 466.621 784.314C466.642 784.312 466.659 784.309 466.67 784.308C466.676 784.307 466.681 784.307 466.684 784.306C466.685 784.306 466.687 784.306 466.688 784.306C466.688 784.306 466.689 784.306 466.689 784.306C466.689 784.306 466.689 784.305 466.689 784.305C466.69 784.305 466.69 784.305 466.494 782.818C466.298 781.331 466.298 781.331 466.298 781.331C466.298 781.331 466.298 781.331 466.298 781.331C466.298 781.331 466.298 781.331 466.298 781.331C466.297 781.331 466.297 781.331 466.296 781.331C466.294 781.332 466.291 781.332 466.286 781.333C466.278 781.334 466.264 781.336 466.246 781.338C466.209 781.342 466.153 781.349 466.082 781.358C465.938 781.375 465.729 781.399 465.472 781.426C464.957 781.479 464.256 781.543 463.504 781.586C462.748 781.629 461.966 781.648 461.282 781.618C460.554 781.586 460.1 781.502 459.903 781.424L458.795 784.212ZM457.901 751.944C458.723 753.199 458.723 753.198 458.724 753.198C458.724 753.198 458.724 753.197 458.725 753.197C458.726 753.197 458.726 753.196 458.727 753.195C458.729 753.194 458.731 753.193 458.734 753.191C458.738 753.188 458.743 753.185 458.75 753.181C458.762 753.172 458.778 753.162 458.796 753.149C458.833 753.123 458.883 753.088 458.943 753.043C459.064 752.953 459.228 752.826 459.424 752.659C459.815 752.326 460.337 751.833 460.894 751.17C462.008 749.844 463.267 747.83 463.882 745.064L460.954 744.413C460.463 746.619 459.465 748.207 458.597 749.241C458.162 749.758 457.762 750.134 457.479 750.375C457.338 750.495 457.227 750.581 457.156 750.633C457.121 750.659 457.096 750.677 457.083 750.686C457.076 750.691 457.072 750.693 457.072 750.694C457.071 750.694 457.072 750.694 457.073 750.693C457.074 750.692 457.075 750.692 457.076 750.691C457.076 750.691 457.077 750.69 457.077 750.69C457.078 750.69 457.078 750.69 457.078 750.689C457.079 750.689 457.079 750.689 457.901 751.944ZM467.939 782.416L459.346 751.542L456.456 752.346L465.049 783.22L467.939 782.416ZM466.494 782.818C465.338 783.775 465.338 783.775 465.338 783.775C465.338 783.775 465.338 783.775 465.338 783.775C465.339 783.775 465.339 783.776 465.34 783.776C465.341 783.778 465.343 783.78 465.345 783.783C465.35 783.789 465.358 783.799 465.369 783.812C465.39 783.837 465.422 783.877 465.464 783.928C465.548 784.032 465.673 784.186 465.833 784.387C466.153 784.787 466.613 785.37 467.167 786.096C468.277 787.549 469.761 789.568 471.264 791.835C472.77 794.106 474.279 796.602 475.449 799.011C476.632 801.448 477.406 803.675 477.555 805.438L480.544 805.186C480.349 802.871 479.383 800.247 478.148 797.701C476.899 795.128 475.312 792.51 473.765 790.177C472.215 787.84 470.689 785.765 469.551 784.275C468.982 783.53 468.509 782.929 468.177 782.514C468.011 782.306 467.88 782.145 467.79 782.034C467.746 781.979 467.711 781.937 467.687 781.908C467.675 781.893 467.666 781.882 467.66 781.874C467.656 781.871 467.654 781.868 467.652 781.865C467.651 781.864 467.651 781.864 467.65 781.863C467.65 781.863 467.65 781.862 467.649 781.862C467.649 781.862 467.649 781.862 466.494 782.818ZM477.555 805.438C477.887 809.387 477.625 815.173 477.269 820.043C477.091 822.462 476.893 824.63 476.739 826.192C476.661 826.973 476.595 827.602 476.549 828.036C476.525 828.252 476.507 828.42 476.494 828.533C476.488 828.589 476.483 828.632 476.48 828.661C476.478 828.675 476.477 828.686 476.476 828.693C476.476 828.696 476.476 828.699 476.476 828.701C476.475 828.701 476.475 828.702 476.475 828.702C476.475 828.703 476.475 828.703 476.475 828.703C476.475 828.703 476.475 828.703 477.965 828.874C479.456 829.045 479.456 829.045 479.456 829.045C479.456 829.045 479.456 829.045 479.456 829.044C479.456 829.044 479.456 829.043 479.456 829.042C479.456 829.04 479.457 829.037 479.457 829.033C479.458 829.025 479.459 829.013 479.461 828.998C479.464 828.968 479.469 828.923 479.476 828.865C479.489 828.749 479.508 828.577 479.532 828.357C479.579 827.916 479.646 827.278 479.724 826.487C479.88 824.906 480.081 822.713 480.261 820.262C480.617 815.39 480.898 809.395 480.544 805.186L477.555 805.438ZM477.965 828.874C477.669 827.404 477.668 827.404 477.668 827.404C477.668 827.404 477.668 827.404 477.668 827.404C477.667 827.404 477.666 827.404 477.664 827.405C477.661 827.405 477.657 827.406 477.651 827.407C477.639 827.41 477.621 827.413 477.597 827.418C477.55 827.428 477.48 827.442 477.387 827.46C477.202 827.497 476.929 827.552 476.579 827.622C475.878 827.761 474.866 827.961 473.625 828.203C471.141 828.687 467.738 829.338 464.06 830.01C456.668 831.361 448.275 832.772 443.946 833.09L444.166 836.082C448.687 835.75 457.248 834.305 464.599 832.962C468.292 832.287 471.707 831.633 474.198 831.147C475.444 830.905 476.46 830.704 477.164 830.564C477.516 830.494 477.79 830.439 477.977 830.402C478.07 830.383 478.141 830.369 478.189 830.359C478.213 830.354 478.231 830.351 478.244 830.348C478.25 830.347 478.254 830.346 478.258 830.345C478.259 830.345 478.26 830.345 478.261 830.345C478.262 830.345 478.262 830.344 478.262 830.344C478.262 830.344 478.262 830.344 477.965 828.874ZM443.946 833.09C439.597 833.41 428.437 833.46 417.629 833.357C406.805 833.253 396.542 832.997 393.961 832.726L393.648 835.71C396.406 835.999 406.845 836.253 417.6 836.356C428.371 836.46 439.667 836.413 444.166 836.082L443.946 833.09ZM374.184 828.756C374.297 828.891 374.353 829.012 374.371 829.051C374.394 829.102 374.406 829.137 374.408 829.144C374.412 829.157 374.405 829.138 374.392 829.07C374.365 828.937 374.332 828.725 374.294 828.424C374.22 827.827 374.141 826.982 374.06 825.94C373.898 823.862 373.731 821.072 373.567 818.07C373.242 812.093 372.932 805.252 372.717 801.723L369.723 801.905C369.937 805.433 370.243 812.196 370.572 818.233C370.735 821.238 370.904 824.058 371.069 826.173C371.152 827.229 371.234 828.127 371.317 828.793C371.358 829.123 371.402 829.422 371.451 829.664C371.475 829.783 371.506 829.918 371.547 830.048C371.57 830.12 371.658 830.412 371.881 830.679L374.184 828.756ZM372.717 801.723C372.502 798.182 372.153 793.423 371.858 789.556C371.711 787.621 371.577 785.906 371.48 784.676C371.431 784.061 371.392 783.566 371.365 783.226C371.351 783.055 371.341 782.923 371.333 782.834C371.33 782.789 371.327 782.755 371.325 782.732C371.324 782.721 371.324 782.712 371.323 782.706C371.323 782.704 371.323 782.701 371.323 782.7C371.323 782.699 371.322 782.699 371.322 782.698C371.322 782.698 371.322 782.698 371.322 782.698C371.322 782.698 371.322 782.698 369.827 782.818C368.332 782.939 368.332 782.939 368.332 782.939C368.332 782.939 368.332 782.939 368.332 782.939C368.332 782.94 368.332 782.94 368.332 782.941C368.332 782.942 368.333 782.945 368.333 782.947C368.333 782.953 368.334 782.962 368.335 782.973C368.337 782.996 368.339 783.03 368.343 783.074C368.35 783.163 368.361 783.295 368.374 783.464C368.401 783.804 368.441 784.298 368.489 784.912C368.586 786.14 368.72 787.852 368.867 789.783C369.161 793.649 369.509 798.388 369.723 801.905L372.717 801.723ZM393.961 832.726C388.71 832.175 376.734 829.683 375.489 829.336L374.683 832.226C376.079 832.615 388.22 835.14 393.648 835.71L393.961 832.726ZM375.086 830.781C375.45 829.326 375.45 829.326 375.451 829.326C375.451 829.326 375.451 829.326 375.451 829.326C375.451 829.326 375.452 829.326 375.452 829.326C375.452 829.327 375.453 829.327 375.453 829.327C375.454 829.327 375.454 829.327 375.454 829.327C375.454 829.327 375.453 829.327 375.45 829.326C375.445 829.325 375.435 829.322 375.421 829.318C375.392 829.31 375.347 829.297 375.289 829.279C375.172 829.243 375.012 829.19 374.842 829.12C374.668 829.05 374.505 828.972 374.372 828.892C374.23 828.807 374.182 828.754 374.184 828.756L371.881 830.679C372.425 831.33 373.243 831.709 373.713 831.9C373.983 832.01 374.228 832.092 374.405 832.146C374.494 832.174 374.569 832.195 374.623 832.21C374.65 832.218 374.672 832.223 374.689 832.228C374.697 832.23 374.705 832.232 374.71 832.233C374.713 832.234 374.715 832.235 374.717 832.235C374.718 832.235 374.719 832.236 374.72 832.236C374.721 832.236 374.721 832.236 374.721 832.236C374.722 832.236 374.722 832.236 374.722 832.236C374.722 832.236 374.723 832.236 375.086 830.781ZM375.086 830.781C373.614 830.493 373.614 830.493 373.614 830.494C373.614 830.494 373.614 830.495 373.614 830.495C373.614 830.496 373.614 830.497 373.613 830.498C373.613 830.5 373.613 830.502 373.612 830.504C373.611 830.51 373.61 830.517 373.608 830.525C373.605 830.541 373.601 830.563 373.596 830.59C373.587 830.645 373.574 830.721 373.56 830.816C373.531 831.006 373.496 831.272 373.466 831.594C373.407 832.232 373.367 833.116 373.455 834.065C373.62 835.846 374.313 838.487 376.948 839.487L378.012 836.682C377.087 836.331 376.584 835.321 376.442 833.788C376.376 833.08 376.405 832.391 376.453 831.871C376.477 831.614 376.505 831.404 376.526 831.263C376.537 831.193 376.546 831.14 376.552 831.106C376.555 831.09 376.557 831.078 376.558 831.072C376.559 831.069 376.559 831.067 376.559 831.067C376.559 831.066 376.559 831.067 376.559 831.067C376.559 831.067 376.559 831.068 376.559 831.068C376.559 831.068 376.559 831.069 376.559 831.069C376.558 831.069 376.558 831.07 375.086 830.781ZM376.948 839.487C380.665 840.897 388.837 842.819 397.678 843.87L398.032 840.891C389.321 839.855 381.414 837.972 378.012 836.682L376.948 839.487ZM397.678 843.87C406.48 844.916 427.948 846.701 435.007 846.887L435.086 843.888C428.152 843.706 406.783 841.931 398.032 840.891L397.678 843.87ZM435.007 846.887C438.578 846.981 444.434 846.76 450.072 846.333C455.675 845.91 461.239 845.272 464.154 844.494L463.381 841.596C460.773 842.291 455.475 842.917 449.846 843.342C444.254 843.765 438.511 843.978 435.086 843.888L435.007 846.887ZM464.154 844.494C466.873 843.769 469.804 843.022 472.274 841.967C474.728 840.919 477.026 839.449 478.186 837.089L475.494 835.765C474.813 837.149 473.336 838.252 471.096 839.208C468.87 840.158 466.186 840.848 463.381 841.596L464.154 844.494ZM478.186 837.089C479.227 834.972 479.536 832.86 479.592 831.301C479.62 830.517 479.585 829.859 479.542 829.39C479.521 829.155 479.497 828.967 479.477 828.832C479.468 828.765 479.459 828.711 479.453 828.672C479.449 828.652 479.447 828.636 479.444 828.623C479.443 828.617 479.442 828.612 479.442 828.607C479.441 828.605 479.441 828.603 479.441 828.602C479.44 828.601 479.44 828.6 479.44 828.599C479.44 828.599 479.44 828.598 479.44 828.598C479.44 828.598 479.44 828.597 477.965 828.874C476.491 829.151 476.491 829.151 476.491 829.15C476.491 829.15 476.491 829.15 476.491 829.149C476.491 829.149 476.491 829.148 476.491 829.148C476.491 829.147 476.49 829.147 476.49 829.146C476.49 829.146 476.49 829.146 476.491 829.147C476.491 829.149 476.492 829.155 476.493 829.164C476.496 829.182 476.501 829.214 476.508 829.258C476.52 829.346 476.538 829.485 476.555 829.666C476.588 830.028 476.617 830.557 476.594 831.193C476.548 832.474 476.294 834.139 475.494 835.765L478.186 837.089ZM429.755 806.842C432.086 806.979 439.472 806.769 446.737 806.318C450.388 806.091 454.047 805.8 457.072 805.456C458.583 805.284 459.951 805.096 461.088 804.894C462.194 804.697 463.18 804.469 463.87 804.189L462.741 801.409C462.363 801.563 461.642 801.748 460.561 801.941C459.51 802.128 458.21 802.307 456.733 802.475C453.779 802.811 450.175 803.098 446.551 803.323C439.265 803.776 432.054 803.972 429.931 803.847L429.755 806.842ZM463.87 804.189C466.036 803.309 467.77 802.382 468.886 801.148C470.108 799.797 470.476 798.218 470.217 796.411L467.248 796.835C467.401 797.911 467.19 798.551 466.662 799.135C466.029 799.834 464.844 800.555 462.741 801.409L463.87 804.189ZM470.217 796.411C469.893 794.139 467.952 792.841 466.18 792.136C464.329 791.401 462.129 791.084 460.306 791.044L460.241 794.043C461.824 794.078 463.648 794.359 465.072 794.925C466.574 795.521 467.161 796.225 467.248 796.835L470.217 796.411ZM460.306 791.044C456.782 790.966 449.541 791.615 445.412 792.141L445.79 795.117C449.896 794.594 456.952 793.971 460.241 794.043L460.306 791.044ZM445.412 792.141C443.383 792.399 439.903 792.686 436.461 793.016C433.113 793.338 429.701 793.709 428.038 794.149L428.806 797.049C430.174 796.687 433.293 796.335 436.748 796.003C440.108 795.68 443.702 795.383 445.79 795.117L445.412 792.141ZM428.038 794.149C426.394 794.584 424.815 795.279 423.645 796.439C422.426 797.648 421.762 799.254 421.806 801.24L424.806 801.174C424.779 799.961 425.157 799.164 425.757 798.569C426.405 797.926 427.419 797.416 428.806 797.049L428.038 794.149ZM421.806 801.24C421.827 802.188 421.994 803.074 422.399 803.856C422.816 804.661 423.435 805.256 424.195 805.684C425.606 806.478 427.56 806.713 429.755 806.842L429.931 803.847C427.672 803.714 426.393 803.479 425.667 803.07C425.358 802.896 425.182 802.706 425.063 802.476C424.932 802.223 424.82 801.826 424.806 801.174L421.806 801.24ZM341.04 758.49C344.741 757.837 348.793 756.898 351.908 756.127C353.468 755.74 354.798 755.394 355.74 755.145C356.21 755.02 356.584 754.919 356.84 754.85C356.968 754.815 357.067 754.788 357.134 754.769C357.168 754.76 357.194 754.753 357.211 754.748C357.22 754.746 357.226 754.744 357.231 754.743C357.233 754.742 357.235 754.742 357.236 754.741C357.237 754.741 357.237 754.741 357.237 754.741C357.238 754.741 357.238 754.741 357.238 754.741C357.238 754.741 357.238 754.741 356.837 753.295C356.436 751.85 356.436 751.85 356.436 751.85C356.436 751.85 356.436 751.85 356.436 751.85C356.436 751.85 356.435 751.85 356.435 751.85C356.434 751.851 356.433 751.851 356.431 751.852C356.427 751.853 356.421 751.854 356.413 751.856C356.396 751.861 356.372 751.868 356.34 751.877C356.275 751.894 356.179 751.921 356.053 751.955C355.802 752.023 355.435 752.122 354.971 752.245C354.042 752.491 352.728 752.833 351.186 753.215C348.098 753.98 344.122 754.9 340.519 755.536L341.04 758.49ZM357.219 754.746L360.424 753.902L359.661 751.001L356.455 751.845L357.219 754.746ZM356.837 753.295C355.364 753.577 355.364 753.578 355.364 753.578C355.364 753.578 355.364 753.578 355.364 753.578C355.364 753.579 355.364 753.579 355.364 753.58C355.365 753.582 355.365 753.584 355.366 753.587C355.367 753.594 355.369 753.604 355.371 753.616C355.376 753.642 355.384 753.68 355.393 753.73C355.412 753.829 355.44 753.976 355.476 754.164C355.549 754.54 355.653 755.083 355.781 755.75C356.038 757.082 356.391 758.908 356.776 760.881C357.544 764.823 358.442 769.372 358.952 771.75L361.885 771.121C361.383 768.776 360.49 764.255 359.721 760.307C359.336 758.336 358.984 756.513 358.727 755.182C358.599 754.516 358.495 753.974 358.423 753.598C358.386 753.41 358.358 753.264 358.339 753.165C358.33 753.115 358.323 753.077 358.318 753.052C358.315 753.039 358.313 753.029 358.312 753.023C358.312 753.02 358.311 753.017 358.311 753.016C358.311 753.015 358.311 753.014 358.31 753.014C358.31 753.014 358.31 753.014 358.31 753.013C358.31 753.013 358.31 753.013 356.837 753.295ZM358.952 771.75C359.436 774.009 359.842 777.697 360.128 780.887C360.27 782.468 360.381 783.903 360.456 784.943C360.493 785.463 360.522 785.884 360.541 786.174C360.55 786.319 360.558 786.431 360.563 786.507C360.565 786.545 360.567 786.574 360.568 786.593C360.569 786.603 360.569 786.61 360.569 786.615C360.569 786.617 360.57 786.619 360.57 786.62C360.57 786.621 360.57 786.621 360.57 786.621C360.57 786.621 360.57 786.621 360.57 786.622C360.57 786.622 360.57 786.622 362.067 786.53C363.564 786.438 363.564 786.438 363.564 786.438C363.564 786.438 363.564 786.437 363.564 786.437C363.564 786.437 363.564 786.436 363.564 786.436C363.564 786.434 363.564 786.432 363.564 786.43C363.563 786.424 363.563 786.417 363.562 786.406C363.561 786.386 363.559 786.356 363.556 786.317C363.552 786.239 363.544 786.124 363.534 785.976C363.515 785.68 363.486 785.254 363.448 784.727C363.372 783.675 363.26 782.222 363.116 780.619C362.831 777.443 362.413 773.583 361.885 771.121L358.952 771.75ZM362.067 786.53C361.741 785.066 361.74 785.066 361.74 785.066C361.74 785.066 361.74 785.066 361.74 785.066C361.739 785.066 361.738 785.066 361.736 785.067C361.733 785.067 361.729 785.068 361.723 785.07C361.711 785.072 361.693 785.076 361.67 785.081C361.623 785.092 361.552 785.107 361.461 785.128C361.277 785.168 361.007 785.228 360.662 785.303C359.972 785.454 358.983 785.668 357.788 785.921C355.398 786.428 352.19 787.092 348.909 787.72C345.623 788.349 342.286 788.938 339.631 789.3C338.301 789.482 337.17 789.602 336.316 789.645C335.887 789.666 335.558 789.666 335.322 789.651C335.039 789.632 335.039 789.599 335.158 789.655L333.882 792.37C334.3 792.567 334.776 792.621 335.125 792.644C335.521 792.67 335.977 792.665 336.465 792.641C337.445 792.592 338.672 792.459 340.037 792.273C342.771 791.9 346.171 791.298 349.473 790.666C352.78 790.033 356.009 789.365 358.411 788.856C359.612 788.601 360.606 788.386 361.301 788.234C361.649 788.158 361.921 788.098 362.107 788.057C362.2 788.037 362.271 788.021 362.32 788.01C362.344 788.005 362.362 788.001 362.374 787.998C362.381 787.997 362.385 787.996 362.388 787.995C362.39 787.995 362.391 787.994 362.392 787.994C362.392 787.994 362.393 787.994 362.393 787.994C362.393 787.994 362.393 787.994 362.067 786.53ZM335.158 789.655C334.366 789.283 333.757 788.513 332.806 787.241C331.936 786.075 330.82 784.566 329.079 783.548L327.564 786.138C328.707 786.806 329.494 787.82 330.403 789.036C331.232 790.146 332.28 791.618 333.882 792.37L335.158 789.655ZM329.079 783.548C328.453 783.182 327.53 782.971 326.631 782.822C325.661 782.661 324.469 782.536 323.144 782.441C320.489 782.25 317.2 782.174 313.881 782.193C310.56 782.212 307.183 782.328 304.348 782.528C301.575 782.722 299.152 783.006 297.852 783.41L298.743 786.275C299.659 785.99 301.736 785.718 304.558 785.52C307.317 785.326 310.628 785.212 313.899 785.193C317.171 785.174 320.377 785.25 322.929 785.433C324.208 785.525 325.298 785.642 326.139 785.782C326.56 785.851 326.899 785.924 327.158 785.995C327.286 786.031 327.385 786.063 327.458 786.091C327.494 786.105 327.521 786.117 327.539 786.125C327.558 786.134 327.566 786.138 327.564 786.138L329.079 783.548ZM297.852 783.41C295.155 784.25 293.949 785.831 293.077 787.193C292.191 788.578 291.849 789.242 290.892 789.615L291.982 792.41C294.052 791.602 294.925 789.871 295.604 788.811C296.297 787.728 297.008 786.815 298.743 786.275L297.852 783.41ZM290.892 789.615C289.695 790.082 287.432 790.242 284.801 790.163C282.25 790.087 279.616 789.798 277.855 789.53L277.402 792.495C279.262 792.779 282.019 793.081 284.711 793.162C287.322 793.24 290.152 793.124 291.982 792.41L290.892 789.615ZM277.855 789.53C276.818 789.372 275.961 788.441 275.305 787.072C274.999 786.434 274.787 785.8 274.65 785.32C274.583 785.082 274.536 784.887 274.506 784.756C274.491 784.69 274.481 784.64 274.475 784.609C274.472 784.594 274.47 784.583 274.468 784.578C274.468 784.575 274.468 784.573 274.468 784.573C274.468 784.573 274.468 784.573 274.468 784.573C274.468 784.574 274.468 784.574 274.468 784.574C274.468 784.575 274.468 784.575 274.468 784.575C274.468 784.575 274.468 784.576 272.992 784.843C271.516 785.11 271.516 785.11 271.516 785.111C271.516 785.111 271.516 785.111 271.516 785.112C271.516 785.112 271.517 785.113 271.517 785.114C271.517 785.116 271.518 785.118 271.518 785.121C271.519 785.126 271.52 785.132 271.522 785.14C271.525 785.156 271.529 785.177 271.534 785.202C271.544 785.254 271.559 785.326 271.579 785.415C271.619 785.593 271.68 785.841 271.764 786.138C271.932 786.729 272.199 787.533 272.6 788.369C273.357 789.947 274.819 792.101 277.402 792.495L277.855 789.53ZM272.992 784.843C271.687 784.104 271.687 784.104 271.687 784.104C271.687 784.104 271.686 784.104 271.686 784.104C271.686 784.105 271.686 784.105 271.686 784.106C271.685 784.107 271.684 784.109 271.683 784.111C271.681 784.114 271.678 784.12 271.674 784.127C271.666 784.141 271.654 784.162 271.639 784.188C271.61 784.242 271.566 784.32 271.511 784.42C271.4 784.622 271.24 784.916 271.042 785.29C270.646 786.038 270.095 787.106 269.472 788.395C268.229 790.968 266.688 794.449 265.523 798.037L268.377 798.963C269.483 795.554 270.962 792.207 272.173 789.7C272.777 788.45 273.311 787.415 273.693 786.695C273.883 786.336 274.036 786.055 274.14 785.865C274.192 785.77 274.232 785.698 274.259 785.65C274.272 785.626 274.282 785.609 274.289 785.597C274.292 785.591 274.294 785.587 274.296 785.585C274.296 785.583 274.297 785.583 274.297 785.582C274.297 785.582 274.297 785.582 274.297 785.582C274.297 785.582 274.297 785.582 274.297 785.582C274.297 785.582 274.297 785.582 272.992 784.843ZM265.523 798.037C263.191 805.224 262.303 813.604 263.128 820.586L266.108 820.233C265.337 813.713 266.168 805.768 268.377 798.963L265.523 798.037ZM263.128 820.586C263.926 827.338 264.422 830.775 265.262 837.495L268.239 837.123C267.392 830.347 266.905 826.983 266.108 820.233L263.128 820.586ZM266.75 837.309C266.638 838.805 266.638 838.805 266.638 838.805C266.638 838.805 266.639 838.805 266.639 838.805C266.64 838.805 266.642 838.805 266.644 838.805C266.648 838.806 266.655 838.806 266.663 838.807C266.68 838.808 266.705 838.81 266.738 838.813C266.804 838.817 266.903 838.825 267.032 838.834C267.289 838.854 267.669 838.882 268.156 838.918C269.13 838.991 270.535 839.094 272.257 839.22C275.703 839.471 280.421 839.81 285.512 840.16C295.68 840.859 307.375 841.608 313.362 841.793L313.455 838.795C307.535 838.611 295.901 837.868 285.717 837.167C280.632 836.817 275.918 836.479 272.475 836.228C270.754 836.102 269.351 835.999 268.378 835.926C267.891 835.89 267.513 835.862 267.255 835.843C267.127 835.833 267.029 835.826 266.963 835.821C266.93 835.818 266.905 835.817 266.888 835.815C266.88 835.815 266.873 835.814 266.869 835.814C266.867 835.814 266.866 835.814 266.864 835.814C266.864 835.814 266.864 835.813 266.863 835.813C266.863 835.813 266.863 835.813 266.75 837.309ZM313.362 841.793C319.374 841.979 326.273 841.793 332.496 841.278C338.677 840.765 344.332 839.917 347.775 838.727L346.795 835.891C343.733 836.95 338.403 837.778 332.248 838.288C326.135 838.794 319.349 838.977 313.455 838.795L313.362 841.793ZM366.304 831.652C366.493 831.387 366.564 831.106 366.582 831.041C366.615 830.915 366.642 830.782 366.662 830.661C366.705 830.414 366.743 830.107 366.779 829.764C366.851 829.073 366.923 828.145 366.992 827.076C367.13 824.931 367.265 822.152 367.382 819.405C367.499 816.657 367.599 813.933 367.671 811.896C367.706 810.878 367.734 810.031 367.754 809.439C367.764 809.142 367.771 808.91 367.776 808.751C367.779 808.672 367.781 808.611 367.782 808.57C367.782 808.55 367.783 808.534 367.783 808.524C367.783 808.518 367.784 808.514 367.784 808.512C367.784 808.51 367.784 808.509 367.784 808.509C367.784 808.508 367.784 808.508 367.784 808.508C367.784 808.508 367.784 808.508 366.285 808.461C364.785 808.414 364.785 808.415 364.785 808.415C364.785 808.415 364.785 808.415 364.785 808.415C364.785 808.416 364.785 808.417 364.785 808.418C364.785 808.421 364.785 808.425 364.785 808.43C364.784 808.44 364.784 808.456 364.783 808.476C364.782 808.516 364.78 808.577 364.778 808.656C364.773 808.814 364.765 809.045 364.755 809.34C364.736 809.931 364.708 810.775 364.672 811.791C364.601 813.823 364.501 816.539 364.384 819.277C364.267 822.018 364.134 824.771 363.998 826.882C363.93 827.94 363.861 828.82 363.795 829.452C363.762 829.77 363.731 830.003 363.705 830.154C363.692 830.232 363.684 830.263 363.684 830.262C363.685 830.262 363.692 830.234 363.709 830.191C363.72 830.16 363.765 830.046 363.861 829.911L366.304 831.652ZM367.758 808.178L363.54 786.246L360.594 786.813L364.811 808.744L367.758 808.178ZM347.775 838.727C351.018 837.606 355.086 836.247 358.346 835.167C359.976 834.627 361.402 834.157 362.421 833.823C362.931 833.655 363.338 833.522 363.618 833.43C363.758 833.384 363.867 833.349 363.94 833.325C363.976 833.313 364.004 833.304 364.023 833.298C364.032 833.295 364.039 833.292 364.044 833.291C364.046 833.29 364.048 833.29 364.049 833.289C364.05 833.289 364.05 833.289 364.05 833.289C364.051 833.289 364.051 833.289 364.051 833.289C364.051 833.289 364.051 833.289 363.585 831.863C363.12 830.437 363.12 830.437 363.12 830.437C363.119 830.437 363.119 830.437 363.119 830.437C363.119 830.437 363.118 830.437 363.118 830.437C363.117 830.438 363.115 830.438 363.112 830.439C363.108 830.441 363.1 830.443 363.091 830.446C363.072 830.452 363.044 830.461 363.008 830.473C362.934 830.497 362.825 830.533 362.685 830.579C362.404 830.671 361.996 830.805 361.485 830.972C360.464 831.308 359.035 831.778 357.403 832.319C354.14 833.4 350.057 834.764 346.795 835.891L347.775 838.727ZM363.585 831.863C364.077 833.28 364.078 833.28 364.078 833.279C364.078 833.279 364.078 833.279 364.079 833.279C364.079 833.279 364.08 833.279 364.08 833.279C364.081 833.278 364.082 833.278 364.084 833.277C364.086 833.277 364.089 833.276 364.092 833.275C364.098 833.273 364.104 833.27 364.112 833.267C364.127 833.262 364.147 833.254 364.169 833.246C364.214 833.228 364.274 833.204 364.344 833.174C364.483 833.113 364.672 833.023 364.883 832.902C365.285 832.671 365.864 832.27 366.304 831.652L363.861 829.911C363.77 830.038 363.6 830.179 363.387 830.301C363.29 830.357 363.203 830.398 363.145 830.424C363.116 830.436 363.096 830.444 363.086 830.448C363.081 830.45 363.079 830.451 363.08 830.45C363.081 830.45 363.082 830.45 363.084 830.449C363.085 830.448 363.087 830.448 363.088 830.447C363.089 830.447 363.09 830.447 363.091 830.447C363.091 830.446 363.091 830.446 363.092 830.446C363.092 830.446 363.092 830.446 363.093 830.446C363.093 830.446 363.093 830.446 363.585 831.863ZM362.085 831.863C362.085 832.156 362.153 832.973 362.196 833.776C362.244 834.668 362.281 835.776 362.244 836.928C362.207 838.086 362.095 839.245 361.861 840.25C361.62 841.279 361.285 841.997 360.905 842.414L363.123 844.434C364.002 843.47 364.492 842.175 364.782 840.931C365.078 839.663 365.202 838.289 365.243 837.025C365.284 835.754 365.242 834.551 365.191 833.615C365.136 832.589 365.085 832.061 365.085 831.863H362.085ZM360.905 842.414C360.522 842.835 359.532 843.443 357.846 844.143C356.231 844.814 354.186 845.486 351.918 846.125C347.387 847.402 342.091 848.51 337.844 849.184L338.315 852.147C342.66 851.457 348.073 850.325 352.732 849.013C355.06 848.357 357.23 847.647 358.996 846.914C360.691 846.21 362.249 845.394 363.123 844.434L360.905 842.414ZM337.844 849.184C333.677 849.846 326.282 850.108 319.025 850.137C311.793 850.166 304.841 849.963 301.614 849.722L301.39 852.714C304.73 852.963 311.771 853.166 319.037 853.137C326.279 853.108 333.89 852.849 338.315 852.147L337.844 849.184ZM301.614 849.722C295.078 849.233 284.617 848.071 280.787 847.524L280.362 850.493C284.264 851.051 294.793 852.22 301.39 852.714L301.614 849.722ZM280.787 847.524C278.876 847.251 276.19 846.809 273.903 846.361C272.757 846.137 271.733 845.916 270.963 845.717C270.575 845.616 270.277 845.528 270.07 845.456C269.967 845.419 269.907 845.394 269.88 845.381C269.832 845.358 269.915 845.389 270.029 845.491L268.044 847.74C268.245 847.917 268.463 848.029 268.595 848.092C268.749 848.165 268.914 848.229 269.074 848.285C269.397 848.399 269.787 848.511 270.212 848.621C271.066 848.842 272.158 849.077 273.327 849.306C275.67 849.764 278.407 850.214 280.362 850.493L280.787 847.524ZM270.029 845.491C270.208 845.649 270.266 845.793 270.233 845.728C270.22 845.703 270.191 845.638 270.146 845.519C270.059 845.283 269.953 844.941 269.834 844.507C269.599 843.646 269.341 842.534 269.1 841.417C268.861 840.305 268.642 839.21 268.483 838.391C268.403 837.982 268.339 837.643 268.294 837.407C268.272 837.288 268.255 837.196 268.243 837.133C268.237 837.102 268.233 837.078 268.23 837.062C268.229 837.054 268.227 837.048 268.227 837.044C268.226 837.042 268.226 837.041 268.226 837.04C268.226 837.039 268.226 837.039 268.226 837.039C268.226 837.039 268.226 837.039 268.226 837.039C268.226 837.039 268.226 837.039 266.75 837.309C265.275 837.58 265.275 837.58 265.275 837.58C265.275 837.58 265.275 837.58 265.275 837.58C265.275 837.581 265.275 837.581 265.275 837.582C265.276 837.583 265.276 837.585 265.276 837.587C265.277 837.591 265.278 837.598 265.28 837.606C265.283 837.623 265.288 837.648 265.294 837.681C265.306 837.746 265.323 837.841 265.346 837.961C265.392 838.203 265.457 838.548 265.538 838.964C265.699 839.794 265.922 840.911 266.168 842.049C266.412 843.183 266.683 844.359 266.941 845.3C267.069 845.767 267.201 846.205 267.333 846.561C267.399 846.738 267.475 846.923 267.561 847.092C267.627 847.222 267.778 847.505 268.044 847.74L270.029 845.491ZM272.992 784.843C274.49 784.766 274.49 784.766 274.49 784.765C274.49 784.765 274.49 784.765 274.49 784.765C274.49 784.765 274.49 784.764 274.49 784.763C274.49 784.762 274.49 784.76 274.49 784.758C274.489 784.752 274.489 784.745 274.488 784.735C274.487 784.714 274.486 784.685 274.484 784.646C274.48 784.568 274.474 784.453 274.465 784.305C274.449 784.01 274.426 783.584 274.395 783.056C274.333 782.001 274.243 780.543 274.131 778.927C273.908 775.711 273.591 771.817 273.222 769.257L270.252 769.685C270.604 772.122 270.915 775.914 271.138 779.135C271.25 780.737 271.339 782.184 271.4 783.231C271.43 783.754 271.454 784.177 271.47 784.469C271.478 784.615 271.484 784.728 271.488 784.804C271.49 784.843 271.492 784.872 271.493 784.891C271.493 784.901 271.493 784.908 271.494 784.913C271.494 784.915 271.494 784.917 271.494 784.918C271.494 784.919 271.494 784.919 271.494 784.92C271.494 784.92 271.494 784.92 271.494 784.92C271.494 784.92 271.494 784.92 272.992 784.843ZM263.951 759.92C264.243 760.082 264.57 760.161 264.765 760.203C265.002 760.254 265.268 760.296 265.534 760.33C266.068 760.399 266.693 760.45 267.272 760.488C267.856 760.526 268.416 760.552 268.828 760.569C269.034 760.577 269.205 760.583 269.324 760.586C269.384 760.588 269.431 760.59 269.464 760.591C269.48 760.591 269.492 760.592 269.501 760.592C269.505 760.592 269.509 760.592 269.511 760.592C269.512 760.592 269.513 760.592 269.514 760.592C269.514 760.592 269.515 760.592 269.515 760.592C269.515 760.592 269.515 760.592 269.515 760.592C269.515 760.592 269.515 760.592 269.554 759.093C269.593 757.593 269.593 757.593 269.593 757.593C269.593 757.593 269.593 757.593 269.593 757.593C269.593 757.593 269.593 757.593 269.593 757.593C269.592 757.593 269.592 757.593 269.591 757.593C269.589 757.593 269.587 757.593 269.583 757.593C269.576 757.593 269.565 757.592 269.55 757.592C269.521 757.591 269.477 757.59 269.42 757.588C269.307 757.584 269.145 757.579 268.947 757.571C268.551 757.555 268.018 757.53 267.468 757.494C266.913 757.458 266.36 757.412 265.917 757.355C265.695 757.326 265.522 757.297 265.4 757.271C265.237 757.236 265.285 757.229 265.408 757.297L263.951 759.92ZM269.406 760.585C271.389 760.782 280.119 760.893 289.558 760.903C299.043 760.913 309.414 760.819 314.761 760.591L314.633 757.594C309.359 757.819 299.048 757.913 289.561 757.903C280.029 757.893 271.498 757.778 269.702 757.6L269.406 760.585ZM273.222 769.257C272.853 766.7 272.297 764.06 271.837 762.07C271.606 761.073 271.398 760.233 271.247 759.642C271.172 759.346 271.111 759.112 271.069 758.951C271.048 758.871 271.031 758.809 271.02 758.766C271.014 758.745 271.01 758.729 271.007 758.718C271.005 758.712 271.004 758.708 271.003 758.705C271.003 758.703 271.002 758.702 271.002 758.701C271.002 758.701 271.002 758.7 271.002 758.7C271.002 758.7 271.002 758.7 271.002 758.7C271.002 758.699 271.002 758.699 269.554 759.093C268.107 759.486 268.107 759.486 268.107 759.486C268.107 759.486 268.107 759.486 268.107 759.486C268.107 759.486 268.107 759.486 268.107 759.486C268.107 759.487 268.107 759.488 268.107 759.489C268.108 759.491 268.109 759.494 268.11 759.499C268.113 759.508 268.117 759.523 268.122 759.542C268.132 759.581 268.148 759.64 268.168 759.716C268.208 759.869 268.267 760.095 268.34 760.382C268.486 760.956 268.689 761.774 268.914 762.746C269.365 764.696 269.9 767.246 270.252 769.685L273.222 769.257ZM410.402 588.925C410.392 588.926 410.506 588.916 410.815 588.953C411.098 588.988 411.466 589.052 411.918 589.149C412.821 589.343 413.985 589.652 415.332 590.054C418.023 590.859 421.373 592.017 424.7 593.318C428.032 594.621 431.306 596.054 433.856 597.402C435.134 598.077 436.198 598.715 436.988 599.287C437.831 599.899 438.175 600.307 438.26 600.476L440.943 599.134C440.512 598.272 439.644 597.508 438.749 596.859C437.801 596.171 436.6 595.459 435.258 594.75C432.569 593.328 429.181 591.849 425.793 590.524C422.4 589.198 418.972 588.012 416.191 587.18C414.803 586.765 413.557 586.433 412.548 586.216C412.045 586.108 411.581 586.024 411.178 585.975C410.802 585.929 410.376 585.9 409.992 585.953L410.402 588.925ZM438.26 600.476C439.282 602.521 440.264 604.644 440.895 606.749C441.527 608.857 441.775 610.846 441.426 612.65L444.372 613.22C444.847 610.764 444.477 608.25 443.769 605.888C443.06 603.523 441.981 601.211 440.943 599.134L438.26 600.476ZM441.426 612.65C441.286 613.373 440.717 614.493 439.696 615.874C438.707 617.212 437.404 618.648 435.994 619.983C434.583 621.318 433.097 622.521 431.756 623.404C430.355 624.327 429.305 624.77 428.724 624.832L429.044 627.815C430.386 627.672 431.947 626.871 433.406 625.91C434.924 624.91 436.547 623.59 438.056 622.162C439.565 620.733 440.993 619.166 442.108 617.658C443.191 616.193 444.099 614.627 444.372 613.22L441.426 612.65ZM428.724 624.832C428.523 624.854 428.126 624.823 427.496 624.64C426.889 624.465 426.162 624.178 425.346 623.787C423.714 623.006 421.825 621.859 419.975 620.525C418.125 619.192 416.351 617.699 414.936 616.243C413.491 614.755 412.538 613.423 412.17 612.419L409.354 613.451C409.942 615.058 411.253 616.756 412.784 618.333C414.345 619.94 416.26 621.546 418.221 622.959C420.18 624.371 422.223 625.618 424.051 626.493C424.964 626.93 425.849 627.287 426.662 627.522C427.452 627.75 428.282 627.897 429.044 627.815L428.724 624.832ZM412.17 612.419C411.749 611.269 411.305 609.18 410.931 606.592C410.562 604.037 410.275 601.099 410.14 598.311C410.004 595.509 410.023 592.919 410.245 591.038C410.358 590.085 410.513 589.407 410.677 588.996C410.889 588.467 410.904 588.855 410.402 588.925L409.992 585.953C408.742 586.125 408.155 587.224 407.892 587.881C407.582 588.655 407.39 589.638 407.266 590.686C407.015 592.808 407.004 595.588 407.143 598.456C407.283 601.338 407.579 604.371 407.962 607.021C408.34 609.638 408.818 611.99 409.354 613.451L412.17 612.419ZM294.891 530.806L360.129 533.794L360.267 530.797L295.028 527.809L294.891 530.806ZM412.515 534.344C413.747 532.513 414.248 529.782 414.475 527.745C414.594 526.684 414.646 525.724 414.668 525.03C414.68 524.682 414.683 524.398 414.685 524.2C414.685 524.101 414.685 524.023 414.685 523.968C414.685 523.941 414.684 523.92 414.684 523.905C414.684 523.897 414.684 523.891 414.684 523.887C414.684 523.884 414.684 523.883 414.684 523.881C414.684 523.88 414.684 523.88 414.684 523.879C414.684 523.879 414.684 523.879 414.684 523.879C414.684 523.878 414.684 523.878 413.184 523.902C411.684 523.926 411.684 523.926 411.684 523.926C411.684 523.926 411.684 523.926 411.684 523.926C411.684 523.926 411.684 523.926 411.684 523.926C411.684 523.926 411.684 523.926 411.684 523.927C411.684 523.929 411.684 523.933 411.684 523.938C411.684 523.948 411.685 523.964 411.685 523.986C411.685 524.03 411.685 524.096 411.685 524.183C411.684 524.358 411.68 524.614 411.67 524.932C411.649 525.57 411.601 526.449 411.494 527.413C411.269 529.428 410.813 531.499 410.026 532.669L412.515 534.344ZM414.684 523.902V520.992H411.684V523.902H414.684ZM360.433 533.777L413.419 525.384L412.949 522.421L359.963 530.814L360.433 533.777ZM298.013 799.662C295.565 800.134 293.244 800.877 291.537 802.256C289.737 803.71 288.746 805.771 288.824 808.504L291.823 808.418C291.77 806.567 292.391 805.422 293.423 804.589C294.548 803.68 296.279 803.051 298.581 802.607L298.013 799.662ZM302.366 814.48C304.73 814.48 310.373 814.541 316.053 814.476C321.674 814.411 327.553 814.224 330.332 813.691L329.766 810.745C327.309 811.217 321.735 811.411 316.018 811.476C310.359 811.541 304.779 811.48 302.366 811.48V814.48ZM330.332 813.691C332.808 813.216 335.67 812.807 337.817 811.817C338.937 811.301 339.982 810.581 340.736 809.514C341.501 808.431 341.88 807.112 341.865 805.559L338.865 805.589C338.875 806.616 338.632 807.293 338.286 807.783C337.928 808.288 337.373 808.718 336.561 809.093C334.846 809.883 332.526 810.215 329.766 810.745L330.332 813.691ZM341.865 805.559C341.848 803.865 341.214 802.505 340.141 801.486C339.115 800.512 337.767 799.921 336.4 799.533C333.704 798.77 330.317 798.649 327.75 798.461L327.53 801.452C330.317 801.657 333.266 801.764 335.582 802.42C336.721 802.742 337.546 803.159 338.075 803.661C338.556 804.118 338.856 804.702 338.865 805.589L341.865 805.559ZM327.75 798.461C324.978 798.257 318.751 798.327 312.686 798.556C306.645 798.784 300.524 799.177 298.013 799.662L298.581 802.607C300.822 802.175 306.695 801.784 312.799 801.554C318.879 801.324 324.948 801.263 327.53 801.452L327.75 798.461ZM260.935 522.242C260.934 522.242 260.933 522.241 260.932 522.241L260.258 525.165C260.267 525.167 260.277 525.169 260.286 525.171L260.935 522.242ZM272.817 524.927L260.941 522.243L260.28 525.17L272.155 527.854L272.817 524.927ZM260.941 522.243L260.926 522.24L260.264 525.166L260.28 525.17L260.941 522.243ZM260.286 525.171C260.676 525.257 261.496 525.356 262.503 525.464C263.555 525.577 264.925 525.711 266.497 525.86C269.649 526.159 273.615 526.519 277.535 526.901C281.455 527.283 285.299 527.683 288.188 528.061C289.638 528.25 290.818 528.43 291.64 528.594C292.057 528.678 292.337 528.748 292.5 528.802C292.586 528.83 292.588 528.837 292.546 528.814C292.524 528.802 292.455 528.764 292.371 528.691C292.294 528.626 292.128 528.468 292.013 528.199L294.771 527.018C294.538 526.474 294.076 526.231 293.975 526.176C293.789 526.076 293.594 526.003 293.433 525.95C293.1 525.841 292.683 525.743 292.227 525.652C291.305 525.468 290.044 525.278 288.577 525.086C285.635 524.702 281.749 524.297 277.826 523.915C273.903 523.533 269.913 523.17 266.78 522.873C265.209 522.725 263.855 522.592 262.823 522.482C261.747 522.366 261.124 522.284 260.935 522.242L260.286 525.171ZM314.952 757.58L314.633 757.594L314.761 760.591L315.079 760.578L314.952 757.58ZM340.519 755.536C333.407 756.791 325.448 757.133 314.952 757.58L315.079 760.578C325.515 760.133 333.692 759.787 341.04 758.49L340.519 755.536ZM314.761 760.591C314.867 760.587 314.973 760.582 315.079 760.578L314.952 757.58C314.846 757.585 314.739 757.589 314.633 757.594L314.761 760.591ZM293.937 530.405C297.206 533.451 304.81 539.445 311.017 542.349L312.289 539.632C306.478 536.913 299.136 531.149 295.982 528.21L293.937 530.405ZM295.982 528.21C295.55 527.807 295.215 527.475 294.984 527.224C294.868 527.099 294.79 527.007 294.744 526.947C294.68 526.864 294.721 526.9 294.771 527.018L292.013 528.199C292.119 528.445 292.271 528.654 292.372 528.784C292.49 528.936 292.63 529.097 292.78 529.26C293.081 529.586 293.476 529.975 293.937 530.405L295.982 528.21ZM302.365 811.48L302.166 811.48L302.167 814.48L302.366 814.48L302.365 811.48ZM302.166 811.48C299.732 811.48 296.995 811.473 294.854 810.958C293.791 810.702 293.021 810.353 292.532 809.935C292.096 809.562 291.843 809.106 291.823 808.418L288.824 808.504C288.869 810.076 289.532 811.316 290.583 812.215C291.58 813.068 292.868 813.566 294.153 813.875C296.708 814.489 299.828 814.48 302.167 814.48L302.166 811.48ZM302.167 814.48C302.234 814.48 302.3 814.48 302.366 814.48V811.48C302.3 811.48 302.233 811.48 302.166 811.48L302.167 814.48Z" fill="black"/>
</svg>
