<svg width="701" height="901" viewBox="0 0 701 901" fill="none" xmlns="http://www.w3.org/2000/svg">
<path fill-rule="evenodd" clip-rule="evenodd" d="M408.684 588.29C405.925 588.427 403.736 590.332 402.875 592.582C402.014 594.832 402.588 600.199 403.836 601.871C405.084 603.544 407.153 604.993 410.439 604.797C413.725 604.6 414.495 601.537 414.969 599.485C415.442 597.432 415.328 594.555 414.28 592.309C413.232 590.062 411.443 588.153 408.684 588.29ZM406.634 596.353C406.541 594.82 407.493 593.622 408.684 593.607C409.876 593.591 410.737 594.61 410.751 595.887C410.765 597.164 410.048 598.253 408.814 598.405C407.58 598.557 406.726 597.885 406.634 596.353Z" fill="white"/>
<path fill-rule="evenodd" clip-rule="evenodd" d="M423.261 603.073C425.312 603.225 427.378 602.206 428.411 600.853C429.444 599.5 429.63 598.847 429.63 598.847C429.63 598.847 429.407 596.307 429.407 595.973C429.407 595.638 429.243 594.179 429.243 594.179L428.09 588.802C428.09 588.802 427.679 588.097 427.106 587.398C426.532 586.699 425.743 585.999 425.743 585.999C425.743 585.999 424.652 584.966 421.754 585.224C418.857 585.483 417.451 588.128 416.948 589.663C416.446 591.199 416.446 592.471 416.446 594.179C416.446 595.887 416.776 598.679 417.666 600.032C418.555 601.385 421.209 602.92 423.261 603.073ZM420.022 593.766C419.783 591.944 421.259 591.028 422.27 591.028C423.282 591.028 424.336 590.961 424.659 593.213C424.981 595.465 423.716 595.887 422.27 595.887C420.825 595.887 420.261 595.588 420.022 593.766Z" fill="white"/>
<path d="M425.743 585.999C425.743 585.999 426.532 586.699 427.106 587.398C427.679 588.097 428.09 588.802 428.09 588.802C428.09 588.802 431.317 585.977 431.722 586.224C432.127 586.471 431.84 588.173 431.61 589.527C431.381 590.88 429.243 594.179 429.243 594.179C429.243 594.179 429.407 595.638 429.407 595.973C429.407 596.307 429.63 598.847 429.63 598.847C429.63 598.847 430.783 599.271 433.83 598.405C436.877 597.539 438.353 596.824 439.07 596.231C439.788 595.638 442.714 592.826 441.71 589.755C440.706 586.684 436.656 592.202 436.531 591.245C436.406 590.287 438.105 577.915 436.531 576.938C434.957 575.962 431.085 579.06 429.63 580.602C428.176 582.145 425.743 585.999 425.743 585.999Z" fill="white"/>
<path fill-rule="evenodd" clip-rule="evenodd" d="M378.271 564.749C378.271 564.749 387.482 569.205 381.348 568.954C378.237 568.826 326.769 566.637 305.796 564.491C284.823 562.346 256.275 551.618 255.105 550.585C255.105 550.585 238.084 565.378 230.229 573.96C222.374 582.541 205.529 599.688 200.895 609.176C196.26 618.664 195.983 623.96 195.628 626.645C195.273 629.329 195.944 638.588 197.208 646.848C198.472 655.108 202.369 664.149 204.16 668.726C205.951 673.302 212.534 686.473 212.534 686.473C214.272 687.869 220.17 692.724 224.173 692.78C228.175 692.836 232.976 690.326 241.605 685.469C250.233 680.611 257.931 675.535 257.931 675.535C258.919 683.131 260.17 697.895 260.566 699.361C260.74 700.009 264.181 701.015 268.658 702.035C276.86 703.904 283.894 707.204 300.48 708.259C317.066 709.314 362.217 709.114 390.817 706.736C419.417 704.357 463.443 697.808 463.443 697.808C466.623 696.991 469.169 695.961 471.96 692.557C474.751 689.152 471.698 622.792 472.751 612.409C473.803 602.025 478.064 579.166 486.324 578.479C494.583 577.792 507.34 583.369 508.069 581.224C508.798 579.079 508.267 574.159 508.267 574.159C508.267 574.159 499.817 546.985 495.93 538.576C492.043 530.166 482.407 517.637 475.524 515.663C475.524 515.663 461.881 509.081 453.174 509.657C444.468 510.232 418.138 526.226 418.138 526.226C419.235 533.771 420.563 539.268 419.407 546.299C418.25 553.33 414.548 564.491 409.366 566.551C404.183 568.61 387.169 565.622 378.271 564.749ZM402.875 592.582C403.736 590.332 405.925 588.427 408.684 588.29C411.443 588.153 413.232 590.062 414.28 592.309C415.328 594.555 415.442 597.432 414.969 599.485C414.495 601.537 413.725 604.6 410.439 604.797C407.153 604.993 405.084 603.544 403.836 601.871C402.588 600.199 402.014 594.832 402.875 592.582ZM428.411 600.853C427.378 602.206 425.312 603.225 423.261 603.073C421.209 602.92 418.555 601.385 417.666 600.032C416.776 598.679 416.446 595.887 416.446 594.179C416.446 592.471 416.446 591.199 416.948 589.663C417.451 588.128 418.857 585.483 421.754 585.224C424.652 584.966 425.743 585.999 425.743 585.999C425.743 585.999 428.176 582.145 429.63 580.602C431.085 579.06 434.957 575.962 436.531 576.938C438.105 577.915 436.406 590.287 436.531 591.245C436.656 592.202 440.706 586.684 441.71 589.755C442.714 592.826 439.788 595.638 439.07 596.231C438.353 596.824 436.877 597.539 433.83 598.405C430.783 599.271 429.63 598.847 429.63 598.847C429.63 598.847 429.444 599.5 428.411 600.853Z" fill="#31445F"/>
<path d="M408.684 593.607C407.493 593.622 406.541 594.82 406.634 596.353C406.726 597.885 407.58 598.557 408.814 598.405C410.048 598.253 410.765 597.164 410.751 595.887C410.737 594.61 409.876 593.591 408.684 593.607Z" fill="#31445F"/>
<path d="M422.27 591.028C421.259 591.028 419.783 591.944 420.022 593.766C420.261 595.588 420.825 595.887 422.27 595.887C423.716 595.887 424.981 595.465 424.659 593.213C424.336 590.961 423.282 591.028 422.27 591.028Z" fill="#31445F"/>
<path d="M429.243 594.179C429.243 594.179 431.381 590.88 431.61 589.527C431.84 588.173 432.127 586.471 431.722 586.224C431.317 585.977 428.09 588.802 428.09 588.802L429.243 594.179Z" fill="#31445F"/>
<path d="M463.443 697.808C463.443 697.808 419.417 704.357 390.817 706.736C362.217 709.114 317.066 709.314 300.48 708.259C283.894 707.204 276.86 703.904 268.658 702.035C269.739 705.59 272.289 708.816 277.332 711.447C281.502 713 314.059 720.854 357.137 719.712C400.216 718.57 450.724 718.435 450.724 718.435C457.79 717.72 464.568 714.01 464.343 711.968C464.118 709.926 463.443 697.808 463.443 697.808Z" fill="#31445F"/>
<path d="M367.906 560.887L378.271 564.749C387.169 565.622 404.183 568.61 409.366 566.551C414.548 564.491 418.25 553.33 419.407 546.299C420.563 539.268 419.235 533.771 418.138 526.226C417.912 524.673 417.699 523.242 417.516 522.035C409.772 521.948 402.985 524.464 401.997 524.674C401.567 524.765 400.161 527.231 398.151 530.581C395.541 534.93 391.911 540.769 388.069 544.84C381.267 552.048 368.956 561.13 367.906 560.887Z" fill="#EC93B4"/>
<path d="M245.793 525.789C246.198 534.285 252.732 548.49 255.105 550.585C256.275 551.618 284.823 562.346 305.796 564.491C326.769 566.637 378.237 568.826 381.348 568.954C387.482 569.205 378.271 564.749 378.271 564.749L367.906 560.887C349.533 558.617 312.384 551.28 304.339 549.56C296.293 547.839 265.713 537.803 257.615 529.222C256.731 528.285 255.894 527.41 255.105 526.606C248.67 520.051 245.432 518.222 245.793 525.789Z" fill="#EC93B4"/>
<path d="M357.137 719.712C314.059 720.854 281.502 713 277.332 711.447C275.949 715.441 268.569 730.061 266.515 740.442C264.461 750.823 257.194 784.588 257.194 784.588C257.194 784.588 264.814 788.606 268.658 787.937C272.503 787.267 273.098 781.463 277.417 779.565C281.735 777.668 292.532 778.951 296.692 780.402C300.853 781.853 303.119 788.237 306.119 789.109C309.119 789.98 338.086 791.844 338.086 791.844C338.807 785.339 347.514 756.404 351.2 750.544C354.887 744.684 363.966 737.398 362.892 741.279C361.817 745.161 362.47 783.751 362.47 783.751C362.47 783.751 375.636 786.821 383.957 787.434C392.278 788.048 403.865 788.886 405.445 787.434C407.025 785.983 407.499 784.197 411.448 781.072C415.398 777.947 416.914 778.438 425.826 777.891C434.738 777.344 437.788 782.445 439.624 784.365C441.46 786.285 446.786 786.207 446.786 786.207L450.724 718.435C450.724 718.435 400.216 718.57 357.137 719.712Z" fill="#242424"/>
<path fill-rule="evenodd" clip-rule="evenodd" d="M446.786 786.207C446.786 786.207 441.46 786.285 439.624 784.365C437.788 782.445 434.738 777.344 425.826 777.891C416.914 778.438 415.398 777.947 411.448 781.072C407.499 784.197 407.025 785.983 405.445 787.434C403.865 788.886 392.278 788.048 383.957 787.434C375.636 786.821 362.47 783.751 362.47 783.751C362.102 791.118 362.997 823.488 363.998 826.223C364.618 827.917 364.712 828.369 364.694 828.467C366.445 828.799 403.365 835.757 406.656 833.087C410.026 830.353 414.556 819.86 418.769 818.074C422.982 816.288 427.261 815.624 432.893 815.705C438.525 815.786 440.535 816.252 443.995 818.586C447.456 820.921 449.138 829.072 449.806 830.326C450.473 831.581 457.332 830.326 457.332 830.326C457.332 830.326 459.479 811.266 458.847 805.126C458.215 798.987 454.475 794.746 452.422 792.067C450.368 789.388 448.63 787.632 446.786 786.207ZM445.048 805.74C444.522 811.321 437.833 808.531 431.04 808.921C424.246 809.312 413.081 814.837 413.186 808.029C413.292 801.22 424.615 800.048 429.67 799.992C434.726 799.936 445.575 800.159 445.048 805.74Z" fill="#EC93B4"/>
<path fill-rule="evenodd" clip-rule="evenodd" d="M338.086 791.844C338.086 791.844 309.119 789.98 306.119 789.109C303.119 788.237 300.853 781.853 296.692 780.402C292.532 778.951 281.735 777.668 277.417 779.565C273.098 781.463 272.503 787.267 268.658 787.937C264.814 788.606 257.194 784.588 257.194 784.588C256.3 788.886 248.715 799.169 246.977 805.705C245.239 812.241 247.24 831.525 247.24 831.525C247.24 831.525 261.038 835.655 262.987 834.036C264.935 832.418 263.513 828.288 267.411 823.544C271.308 818.8 277.131 818.472 283.488 818.664C289.846 818.856 298.851 820.474 300.853 823.544C302.854 826.613 305.856 833.491 309.279 834.517C312.702 835.543 335.453 833.396 335.453 833.396C335.453 833.396 336.438 823.38 337.086 815.116C337.734 806.853 337.596 796.389 338.086 791.844ZM285.903 801.914C285.903 801.914 302.827 802.917 302.025 809.019C301.223 815.12 293.758 812.2 286.108 811.852C278.458 811.503 269.904 813.246 269.821 807.101C269.739 800.955 285.903 801.914 285.903 801.914Z" fill="#EC93B4"/>
<path d="M418.769 818.074C414.556 819.86 410.026 830.353 406.656 833.087C403.365 835.757 366.445 828.799 364.694 828.467C364.683 828.528 364.63 828.455 364.63 828.455C364.524 830.129 364.156 836.548 364.63 837.999C365.103 839.45 365.367 839.729 372.213 841.012C379.06 842.296 389.011 843.58 400.915 844.529C412.82 845.477 420.981 845.422 431.724 844.529C442.468 843.636 452.632 844.361 454.37 841.961C456.108 839.561 457.332 830.326 457.332 830.326C457.332 830.326 450.473 831.581 449.806 830.326C449.138 829.072 447.456 820.921 443.995 818.586C440.535 816.252 438.525 815.786 432.893 815.705C427.261 815.624 422.982 816.288 418.769 818.074Z" fill="#F4F4F4"/>
<path d="M262.987 834.036C261.038 835.655 247.24 831.525 247.24 831.525C247.767 835.934 247.872 841.459 249.399 843.636C250.926 845.812 254.297 846.649 260.301 847.263C266.305 847.877 277.464 847.989 285.893 848.156C294.322 848.324 313.334 847.431 320.181 846.649C327.027 845.868 331.197 845.067 332.767 843.636C334.338 842.204 335.453 833.396 335.453 833.396C335.453 833.396 312.702 835.543 309.279 834.517C305.856 833.491 302.854 826.613 300.853 823.544C298.851 820.474 289.846 818.856 283.488 818.664C277.131 818.472 271.308 818.8 267.411 823.544C263.513 828.288 264.935 832.418 262.987 834.036Z" fill="#F4F4F4"/>
<path d="M431.04 808.921C437.833 808.531 444.522 811.321 445.048 805.74C445.575 800.159 434.726 799.936 429.67 799.992C424.615 800.048 413.292 801.22 413.186 808.029C413.081 814.837 424.246 809.312 431.04 808.921Z" fill="#F4F4F4"/>
<path d="M302.025 809.019C302.827 802.917 285.903 801.914 285.903 801.914C285.903 801.914 269.739 800.955 269.821 807.101C269.904 813.246 278.458 811.503 286.108 811.852C293.758 812.2 301.223 815.12 302.025 809.019Z" fill="#F4F4F4"/>
<path d="M478.034 504.164C476.334 508.712 475.524 515.663 475.524 515.663C482.407 517.637 492.043 530.166 495.93 538.576C499.817 546.985 508.267 574.159 508.267 574.159C515.797 570.469 531.236 561.66 529.616 541.665C527.997 521.67 517.956 513.604 511.477 510.944C504.999 508.283 499.088 508.884 495.93 507.769C492.772 506.653 490.262 500.56 486.861 499.96C483.459 499.359 479.735 499.616 478.034 504.164Z" fill="#FFFBE5"/>
<path d="M204.16 668.726C202.369 664.149 198.472 655.108 197.208 646.848C195.944 638.588 195.273 629.329 195.628 626.645C183.726 630.775 175.668 638.253 172.561 646.513C169.454 654.773 169.507 666.996 171.245 671.405C172.983 675.814 178.618 684.018 181.04 686.473C183.463 688.929 190.731 693.003 197.524 692.78C204.318 692.557 212.534 686.473 212.534 686.473C212.534 686.473 205.951 673.302 204.16 668.726Z" fill="#FFFBE5"/>
<path d="M304.339 549.56C312.384 551.28 349.533 558.617 367.906 560.887C368.956 561.13 381.267 552.048 388.069 544.84C391.911 540.769 395.541 534.93 398.151 530.581L255.105 526.606C255.894 527.41 256.731 528.285 257.615 529.222C265.713 537.803 296.293 547.839 304.339 549.56Z" fill="#FFFBE5"/>
<path d="M245.793 525.789L244.294 525.861L245.793 525.789ZM381.348 568.954L381.286 570.452L381.348 568.954ZM367.906 560.887L368.243 559.426L368.167 559.408L368.09 559.399L367.906 560.887ZM257.615 529.222L256.524 530.251L257.615 529.222ZM388.069 544.84L389.16 545.87L389.16 545.87L388.069 544.84ZM401.997 524.674L401.686 523.206L401.997 524.674ZM417.516 522.035L418.999 521.81L418.808 520.55L417.533 520.535L417.516 522.035ZM475.524 515.663L474.872 517.014L474.987 517.07L475.11 517.105L475.524 515.663ZM260.566 699.361L262.014 698.971L262.014 698.971L260.566 699.361ZM263.583 646.75C263.899 645.984 263.534 645.107 262.768 644.792C262.003 644.476 261.126 644.841 260.81 645.606L263.583 646.75ZM268.658 702.035L268.991 700.573L268.991 700.573L268.658 702.035ZM257.194 784.588L255.727 784.272L255.725 784.283L257.194 784.588ZM247.24 831.525L245.748 831.68L245.749 831.691L245.751 831.703L247.24 831.525ZM335.453 833.396L336.941 833.584L336.944 833.564L336.946 833.543L335.453 833.396ZM363.998 826.223L362.589 826.738L362.589 826.738L363.998 826.223ZM406.656 833.087L405.711 831.923L405.711 831.923L406.656 833.087ZM457.332 830.326L458.819 830.523L458.821 830.509L458.823 830.494L457.332 830.326ZM364.63 828.455L364.911 826.982L363.239 826.662L363.132 828.361L364.63 828.455ZM285.903 801.914L285.814 803.411L285.814 803.411L285.903 801.914ZM425.743 585.999L424.711 587.088L424.729 587.105L424.748 587.122L425.743 585.999ZM255.105 526.606L254.035 527.657L254.035 527.657L255.105 526.606ZM398.151 530.581L399.437 531.353L398.151 530.581ZM244.294 525.861C244.509 530.368 246.323 536.234 248.321 541.152C249.329 543.632 250.404 545.921 251.387 547.736C251.878 548.643 252.354 549.446 252.795 550.103C253.22 550.735 253.667 551.317 254.112 551.71L256.098 549.461C255.95 549.33 255.674 549.009 255.286 548.431C254.913 547.876 254.486 547.16 254.025 546.307C253.103 544.604 252.074 542.418 251.101 540.023C249.137 535.191 247.481 529.706 247.291 525.718L244.294 525.861ZM381.286 570.452C382.095 570.486 382.821 570.453 383.397 570.285C383.689 570.2 384.062 570.046 384.38 569.742C384.74 569.396 384.956 568.922 384.955 568.399C384.953 567.937 384.785 567.566 384.644 567.328C384.498 567.08 384.317 566.866 384.149 566.692C383.813 566.344 383.389 566.012 382.974 565.719C382.132 565.126 381.11 564.543 380.326 564.121C379.928 563.906 379.581 563.727 379.332 563.601C379.207 563.538 379.107 563.488 379.037 563.454C379.002 563.437 378.974 563.423 378.955 563.414C378.946 563.409 378.938 563.406 378.933 563.403C378.93 563.402 378.928 563.401 378.927 563.4C378.926 563.4 378.925 563.399 378.925 563.399C378.925 563.399 378.924 563.399 378.924 563.399C378.924 563.399 378.924 563.399 378.271 564.749C377.617 566.099 377.617 566.099 377.617 566.099C377.617 566.099 377.617 566.099 377.617 566.099C377.617 566.099 377.617 566.099 377.618 566.099C377.618 566.1 377.62 566.1 377.621 566.101C377.625 566.103 377.631 566.106 377.638 566.109C377.654 566.117 377.677 566.128 377.708 566.144C377.77 566.174 377.862 566.22 377.977 566.278C378.208 566.395 378.532 566.562 378.902 566.762C379.654 567.167 380.551 567.682 381.245 568.171C381.597 568.42 381.846 568.625 381.99 568.775C382.063 568.85 382.074 568.875 382.06 568.851C382.052 568.838 381.955 568.677 381.955 568.406C381.954 568.074 382.098 567.773 382.303 567.576C382.466 567.42 382.6 567.393 382.556 567.405C382.462 567.433 382.134 567.485 381.409 567.455L381.286 570.452ZM378.794 563.343L368.429 559.482L367.382 562.293L377.747 566.154L378.794 563.343ZM368.09 559.399C349.787 557.137 312.693 549.813 304.653 548.093L304.025 551.027C312.076 552.748 349.279 560.097 367.722 562.376L368.09 559.399ZM304.653 548.093C300.739 547.256 291.166 544.348 281.545 540.568C276.744 538.681 271.965 536.591 267.899 534.451C263.799 532.292 260.553 530.15 258.706 528.193L256.524 530.251C258.726 532.585 262.34 534.915 266.502 537.105C270.699 539.314 275.586 541.45 280.448 543.36C290.153 547.173 299.893 550.143 304.025 551.027L304.653 548.093ZM367.568 562.349C367.895 562.424 368.177 562.383 368.316 562.357C368.479 562.326 368.628 562.278 368.748 562.234C368.989 562.146 369.246 562.022 369.498 561.888C370.01 561.616 370.649 561.223 371.369 560.748C372.818 559.791 374.7 558.429 376.748 556.844C380.838 553.679 385.684 549.553 389.16 545.87L386.978 543.811C383.652 547.335 378.941 551.354 374.912 554.471C372.902 556.027 371.083 557.341 369.716 558.244C369.029 558.698 368.48 559.032 368.091 559.238C367.893 559.343 367.771 559.397 367.713 559.418C367.683 559.429 367.703 559.42 367.757 559.409C367.788 559.403 367.982 559.365 368.243 559.426L367.568 562.349ZM402.308 526.141C403.587 525.87 409.973 523.45 417.499 523.535L417.533 520.535C413.502 520.49 409.743 521.121 406.885 521.782C405.453 522.113 404.239 522.453 403.326 522.722C402.873 522.855 402.485 522.974 402.198 523.06C402.052 523.104 401.934 523.139 401.841 523.165C401.795 523.178 401.758 523.188 401.73 523.196C401.716 523.199 401.705 523.202 401.697 523.204C401.689 523.206 401.686 523.206 401.686 523.206L402.308 526.141ZM417.927 546.055C417.366 549.467 416.182 553.893 414.522 557.688C413.692 559.585 412.762 561.28 411.762 562.601C410.75 563.939 409.749 564.784 408.812 565.157L409.92 567.945C411.573 567.288 412.979 565.966 414.155 564.412C415.343 562.841 416.382 560.92 417.27 558.891C419.046 554.833 420.292 550.162 420.887 546.542L417.927 546.055ZM408.812 565.157C407.805 565.557 406.023 565.765 403.575 565.761C401.183 565.757 398.349 565.555 395.36 565.257C392.376 564.96 389.272 564.571 386.343 564.2C383.425 563.831 380.668 563.477 378.417 563.256L378.124 566.242C380.322 566.457 383.029 566.804 385.966 567.176C388.892 567.547 392.033 567.941 395.063 568.242C398.088 568.543 401.035 568.757 403.569 568.761C406.047 568.765 408.336 568.574 409.92 567.945L408.812 565.157ZM416.033 522.26C416.215 523.464 416.428 524.891 416.653 526.442L419.622 526.01C419.396 524.454 419.183 523.021 418.999 521.81L416.033 522.26ZM416.653 526.442C417.772 534.135 419.035 539.318 417.927 546.055L420.887 546.542C422.092 539.217 420.698 533.408 419.622 526.01L416.653 526.442ZM418.138 526.226C418.916 527.508 418.916 527.508 418.916 527.508C418.917 527.508 418.917 527.508 418.917 527.507C418.918 527.507 418.919 527.506 418.92 527.505C418.923 527.504 418.928 527.501 418.934 527.497C418.946 527.49 418.965 527.478 418.989 527.464C419.039 527.434 419.112 527.39 419.209 527.331C419.402 527.215 419.687 527.045 420.053 526.827C420.785 526.391 421.843 525.767 423.139 525.016C425.733 523.514 429.28 521.506 433.094 519.482C436.912 517.456 440.978 515.425 444.617 513.867C448.316 512.284 451.38 511.278 453.273 511.153L453.075 508.16C450.615 508.323 447.123 509.532 443.436 511.109C439.689 512.713 435.541 514.788 431.688 516.832C427.831 518.879 424.251 520.905 421.636 522.42C420.328 523.177 419.26 523.807 418.519 524.248C418.148 524.469 417.859 524.642 417.662 524.761C417.564 524.82 417.488 524.865 417.437 524.896C417.412 524.912 417.392 524.923 417.379 524.931C417.373 524.935 417.368 524.938 417.364 524.94C417.363 524.942 417.361 524.942 417.36 524.943C417.36 524.943 417.36 524.943 417.359 524.944C417.359 524.944 417.359 524.944 418.138 526.226ZM453.273 511.153C457.299 510.887 462.637 512.292 467.119 513.86C469.328 514.633 471.272 515.424 472.664 516.022C473.359 516.321 473.915 516.571 474.295 516.745C474.485 516.832 474.632 516.901 474.729 516.947C474.778 516.97 474.815 516.987 474.839 516.998C474.851 517.004 474.86 517.008 474.865 517.011C474.868 517.012 474.87 517.013 474.871 517.014C474.872 517.014 474.872 517.014 474.872 517.014C474.872 517.015 474.872 517.015 474.872 517.015C474.872 517.014 474.872 517.014 475.524 515.663C476.176 514.312 476.175 514.312 476.175 514.312C476.175 514.312 476.175 514.312 476.174 514.312C476.174 514.312 476.173 514.311 476.172 514.311C476.169 514.31 476.167 514.308 476.163 514.306C476.155 514.303 476.144 514.297 476.13 514.291C476.102 514.277 476.061 514.258 476.008 514.233C475.901 514.183 475.746 514.11 475.546 514.018C475.146 513.835 474.568 513.575 473.848 513.266C472.41 512.648 470.399 511.829 468.109 511.028C463.592 509.448 457.755 507.85 453.075 508.16L453.273 511.153ZM475.524 515.663C477.014 515.837 477.014 515.837 477.014 515.837C477.014 515.837 477.014 515.837 477.014 515.837C477.014 515.837 477.014 515.837 477.014 515.837C477.014 515.836 477.014 515.835 477.014 515.834C477.014 515.831 477.015 515.827 477.016 515.821C477.017 515.809 477.019 515.791 477.022 515.766C477.028 515.717 477.037 515.643 477.05 515.546C477.074 515.353 477.112 515.071 477.162 514.717C477.263 514.008 477.414 513.016 477.618 511.885C478.028 509.602 478.637 506.834 479.439 504.69L476.629 503.639C475.73 506.043 475.084 509.024 474.665 511.354C474.453 512.529 474.296 513.559 474.192 514.296C474.139 514.664 474.1 514.96 474.074 515.165C474.061 515.268 474.051 515.348 474.044 515.403C474.041 515.43 474.038 515.451 474.037 515.466C474.036 515.473 474.035 515.479 474.035 515.483C474.034 515.485 474.034 515.486 474.034 515.488C474.034 515.488 474.034 515.489 474.034 515.489C474.034 515.489 474.034 515.489 474.034 515.49C474.034 515.49 474.034 515.49 475.524 515.663ZM479.439 504.69C480.148 502.792 481.197 501.941 482.312 501.544C483.517 501.116 484.991 501.153 486.6 501.437L487.121 498.482C485.329 498.166 483.24 498.03 481.307 498.718C479.284 499.437 477.62 500.988 476.629 503.639L479.439 504.69ZM486.6 501.437C487.06 501.518 487.606 501.81 488.276 502.401C488.942 502.988 489.606 503.757 490.334 504.631C491.033 505.47 491.803 506.423 492.595 507.219C493.38 508.01 494.321 508.791 495.43 509.183L496.43 506.354C495.96 506.188 495.403 505.79 494.723 505.105C494.049 504.427 493.387 503.61 492.639 502.711C491.919 501.847 491.121 500.91 490.261 500.151C489.405 499.397 488.362 498.702 487.121 498.482L486.6 501.437ZM495.43 509.183C496.376 509.517 497.469 509.704 498.588 509.849C499.664 509.988 501.03 510.116 502.28 510.266C504.911 510.582 507.853 511.077 510.908 512.331L512.047 509.556C508.624 508.15 505.371 507.616 502.637 507.288C501.205 507.116 500.096 507.019 498.973 506.874C497.894 506.734 497.063 506.578 496.43 506.354L495.43 509.183ZM510.908 512.331C516.858 514.775 526.547 522.348 528.121 541.786L531.111 541.544C529.447 520.993 519.053 512.433 512.047 509.556L510.908 512.331ZM528.121 541.786C529.656 560.74 515.108 569.136 507.607 572.812L508.927 575.506C516.487 571.801 532.815 562.579 531.111 541.544L528.121 541.786ZM497.292 537.946C495.283 533.601 491.824 528.254 487.995 523.736C486.077 521.473 484.041 519.39 482.02 517.733C480.018 516.092 477.94 514.796 475.937 514.222L475.11 517.105C476.549 517.518 478.257 518.528 480.119 520.054C481.962 521.564 483.869 523.509 485.706 525.676C489.387 530.019 492.69 535.14 494.568 539.205L497.292 537.946ZM508.267 574.159C509.699 573.713 509.699 573.713 509.699 573.713C509.699 573.713 509.699 573.712 509.699 573.712C509.698 573.711 509.698 573.71 509.697 573.708C509.696 573.705 509.695 573.7 509.693 573.693C509.689 573.68 509.682 573.66 509.674 573.634C509.658 573.582 509.634 573.505 509.602 573.404C509.539 573.202 509.447 572.905 509.327 572.525C509.088 571.764 508.742 570.668 508.315 569.326C507.461 566.644 506.281 562.978 504.98 559.049C502.389 551.228 499.278 542.244 497.292 537.946L494.568 539.205C496.469 543.317 499.526 552.124 502.132 559.992C503.429 563.908 504.605 567.561 505.456 570.236C505.882 571.574 506.227 572.666 506.465 573.424C506.584 573.803 506.676 574.098 506.739 574.299C506.77 574.399 506.794 574.475 506.81 574.527C506.818 574.552 506.824 574.572 506.828 574.585C506.83 574.591 506.832 574.596 506.833 574.599C506.833 574.601 506.834 574.602 506.834 574.603C506.834 574.603 506.834 574.604 506.834 574.604C506.834 574.604 506.834 574.604 508.267 574.159ZM508.267 574.159C506.775 574.32 506.775 574.32 506.775 574.319C506.775 574.319 506.775 574.319 506.775 574.319C506.775 574.319 506.775 574.319 506.775 574.319C506.775 574.32 506.775 574.32 506.775 574.321C506.776 574.323 506.776 574.325 506.776 574.329C506.777 574.337 506.778 574.349 506.78 574.366C506.783 574.399 506.788 574.45 506.795 574.515C506.807 574.647 506.824 574.839 506.843 575.077C506.88 575.554 506.922 576.211 506.942 576.929C506.984 578.45 506.915 579.958 506.649 580.742L509.489 581.707C509.952 580.345 509.982 578.32 509.941 576.845C509.919 576.065 509.873 575.357 509.834 574.845C509.814 574.588 509.795 574.379 509.781 574.233C509.774 574.16 509.769 574.103 509.765 574.063C509.763 574.043 509.761 574.027 509.76 574.016C509.759 574.011 509.759 574.007 509.759 574.003C509.758 574.002 509.758 574.001 509.758 574C509.758 573.999 509.758 573.999 509.758 573.998C509.758 573.998 509.758 573.998 509.758 573.998C509.758 573.998 509.758 573.998 508.267 574.159ZM506.649 580.742C506.851 580.145 507.381 580.168 507.079 580.205C506.853 580.234 506.427 580.22 505.744 580.12C504.402 579.922 502.565 579.469 500.372 578.94C496.122 577.915 490.617 576.617 486.199 576.984L486.448 579.974C490.29 579.655 495.293 580.801 499.669 581.857C501.788 582.368 503.794 582.865 505.307 583.088C506.051 583.197 506.806 583.263 507.45 583.182C508.017 583.112 509.105 582.839 509.489 581.707L506.649 580.742ZM486.199 576.984C483.43 577.214 481.267 579.266 479.612 581.787C477.925 584.356 476.536 587.753 475.403 591.358C473.134 598.585 471.791 607.003 471.258 612.257L474.243 612.56C474.763 607.431 476.077 599.228 478.266 592.257C479.363 588.763 480.653 585.667 482.12 583.433C483.62 581.15 485.088 580.087 486.448 579.974L486.199 576.984ZM471.258 612.257C470.985 614.959 470.982 621.157 471.076 628.852C471.17 636.587 471.366 645.981 471.508 655.123C471.649 664.28 471.736 673.196 471.613 680.031C471.552 683.452 471.439 686.323 471.258 688.433C471.167 689.491 471.061 690.323 470.945 690.924C470.886 691.224 470.831 691.438 470.784 691.577C470.727 691.744 470.715 691.709 470.8 691.606L473.12 693.508C473.379 693.192 473.53 692.821 473.626 692.536C473.731 692.225 473.817 691.871 473.89 691.496C474.036 690.745 474.152 689.792 474.247 688.69C474.437 686.478 474.551 683.526 474.613 680.084C474.736 673.194 474.649 664.233 474.507 655.077C474.366 645.905 474.17 636.55 474.076 628.815C473.98 621.041 473.991 615.05 474.243 612.56L471.258 612.257ZM470.8 691.606C469.505 693.185 468.308 694.166 467.107 694.848C465.894 695.537 464.611 695.959 463.07 696.355L463.817 699.261C465.455 698.84 467.035 698.339 468.588 697.457C470.152 696.569 471.624 695.333 473.12 693.508L470.8 691.606ZM463.443 697.808C463.223 696.324 463.223 696.325 463.222 696.325C463.222 696.325 463.221 696.325 463.221 696.325C463.219 696.325 463.218 696.325 463.215 696.326C463.21 696.326 463.202 696.328 463.191 696.329C463.17 696.332 463.138 696.337 463.096 696.343C463.013 696.356 462.888 696.374 462.723 696.398C462.395 696.447 461.908 696.518 461.279 696.61C460.021 696.793 458.191 697.058 455.906 697.384C451.335 698.034 444.943 698.926 437.658 699.893C423.081 701.827 404.955 704.055 390.693 705.241L390.941 708.23C405.28 707.038 423.466 704.802 438.053 702.867C445.349 701.899 451.751 701.005 456.329 700.354C458.618 700.028 460.451 699.762 461.712 699.579C462.343 699.487 462.83 699.415 463.161 699.366C463.326 699.342 463.451 699.323 463.536 699.311C463.578 699.305 463.61 699.3 463.632 699.297C463.642 699.295 463.65 699.294 463.656 699.293C463.658 699.293 463.661 699.292 463.662 699.292C463.663 699.292 463.663 699.292 463.663 699.292C463.664 699.292 463.664 699.292 463.443 697.808ZM390.693 705.241C362.159 707.614 317.082 707.812 300.575 706.762L300.385 709.756C317.049 710.816 362.274 710.615 390.941 708.23L390.693 705.241ZM262.014 698.971C262.014 698.972 262.009 698.95 261.998 698.896C261.988 698.845 261.976 698.779 261.962 698.694C261.935 698.524 261.903 698.303 261.867 698.031C261.795 697.489 261.711 696.774 261.617 695.924C261.43 694.223 261.206 692.01 260.963 689.596C260.478 684.782 259.916 679.166 259.418 675.341L256.443 675.728C256.934 679.499 257.492 685.063 257.978 689.897C258.221 692.307 258.446 694.535 258.635 696.252C258.73 697.11 258.816 697.85 258.893 698.425C258.963 698.959 259.037 699.455 259.118 699.752L262.014 698.971ZM257.931 675.535C259.429 675.614 259.429 675.614 259.429 675.614C259.429 675.614 259.429 675.614 259.429 675.613C259.429 675.613 259.429 675.612 259.429 675.611C259.429 675.608 259.429 675.605 259.429 675.6C259.43 675.59 259.431 675.574 259.432 675.554C259.434 675.514 259.437 675.453 259.442 675.373C259.451 675.214 259.465 674.978 259.484 674.675C259.521 674.068 259.578 673.192 259.656 672.116C259.813 669.964 260.053 667.018 260.39 663.84C260.727 660.66 261.159 657.262 261.697 654.203C262.239 651.117 262.872 648.475 263.583 646.75L260.81 645.606C259.968 647.649 259.291 650.56 258.742 653.684C258.188 656.836 257.748 660.307 257.407 663.524C257.066 666.743 256.822 669.724 256.664 671.898C256.585 672.986 256.527 673.874 256.489 674.49C256.47 674.798 256.456 675.038 256.447 675.202C256.442 675.284 256.439 675.347 256.436 675.389C256.435 675.41 256.434 675.427 256.434 675.438C256.433 675.443 256.433 675.447 256.433 675.45C256.433 675.452 256.433 675.453 256.433 675.454C256.433 675.454 256.433 675.454 256.433 675.455C256.433 675.455 256.433 675.455 257.931 675.535ZM257.931 675.535C257.105 674.282 257.105 674.282 257.105 674.282C257.105 674.282 257.105 674.282 257.105 674.282C257.104 674.283 257.104 674.283 257.104 674.283C257.103 674.284 257.102 674.284 257.1 674.286C257.096 674.288 257.091 674.291 257.084 674.296C257.07 674.306 257.048 674.32 257.019 674.339C256.962 674.376 256.876 674.432 256.764 674.506C256.538 674.653 256.206 674.869 255.781 675.143C254.929 675.691 253.703 676.474 252.209 677.408C249.218 679.277 245.157 681.748 240.869 684.162L242.34 686.776C246.681 684.332 250.783 681.836 253.798 679.952C255.306 679.01 256.544 678.22 257.406 677.665C257.836 677.387 258.173 677.168 258.403 677.018C258.517 676.944 258.605 676.886 258.665 676.847C258.695 676.827 258.717 676.813 258.733 676.802C258.74 676.797 258.746 676.794 258.75 676.791C258.752 676.79 258.754 676.789 258.755 676.788C258.755 676.788 258.756 676.787 258.756 676.787C258.756 676.787 258.756 676.787 258.756 676.787C258.756 676.787 258.757 676.787 257.931 675.535ZM240.869 684.162C236.544 686.596 233.249 688.401 230.548 689.595C227.845 690.789 225.877 691.304 224.194 691.28L224.152 694.28C226.471 694.312 228.905 693.6 231.76 692.339C234.617 691.077 238.037 689.199 242.34 686.776L240.869 684.162ZM205.557 668.179C203.733 663.518 199.923 654.673 198.691 646.621L195.726 647.075C197.021 655.543 201.006 664.781 202.763 669.272L205.557 668.179ZM202.243 609.834C204.457 605.3 209.689 598.786 215.479 592.22C221.244 585.683 227.369 579.306 231.336 574.972L229.123 572.947C225.234 577.195 219.009 583.682 213.229 590.236C207.475 596.761 201.967 603.564 199.547 608.518L202.243 609.834ZM231.336 574.972C235.212 570.737 241.385 564.935 246.623 560.163C249.235 557.784 251.602 555.672 253.317 554.154C254.174 553.395 254.868 552.786 255.347 552.366C255.586 552.156 255.772 551.994 255.898 551.884C255.961 551.829 256.009 551.787 256.041 551.759C256.057 551.745 256.069 551.735 256.077 551.728C256.081 551.724 256.084 551.722 256.086 551.72C256.087 551.719 256.088 551.718 256.088 551.718C256.089 551.718 256.089 551.718 256.089 551.718C256.089 551.718 256.089 551.718 255.105 550.585C254.121 549.453 254.121 549.453 254.121 549.453C254.121 549.453 254.12 549.454 254.12 549.454C254.12 549.454 254.119 549.455 254.118 549.456C254.116 549.458 254.112 549.461 254.108 549.464C254.1 549.472 254.087 549.482 254.071 549.497C254.038 549.525 253.99 549.568 253.926 549.623C253.798 549.734 253.611 549.898 253.37 550.11C252.887 550.532 252.19 551.145 251.329 551.908C249.606 553.432 247.228 555.554 244.602 557.946C239.366 562.716 233.101 568.6 229.123 572.947L231.336 574.972ZM198.691 646.621C198.065 642.531 197.586 638.188 197.307 634.541C197.024 630.834 196.962 628.003 197.115 626.841L194.141 626.448C193.94 627.971 194.036 631.112 194.316 634.77C194.6 638.488 195.088 642.906 195.726 647.075L198.691 646.621ZM197.115 626.841C197.466 624.191 197.719 619.095 202.243 609.834L199.547 608.518C194.802 618.233 194.501 623.73 194.141 626.448L197.115 626.841ZM195.137 625.228C182.927 629.464 174.459 637.207 171.157 645.985L173.965 647.041C176.877 639.299 184.525 632.085 196.12 628.062L195.137 625.228ZM171.157 645.985C169.528 650.317 168.748 655.611 168.587 660.352C168.427 665.043 168.864 669.455 169.849 671.955L172.64 670.855C171.888 668.945 171.429 665.042 171.585 660.454C171.74 655.916 172.487 650.97 173.965 647.041L171.157 645.985ZM169.849 671.955C170.779 674.313 172.695 677.574 174.636 680.5C176.574 683.423 178.654 686.19 179.972 687.527L182.108 685.42C181.004 684.301 179.056 681.738 177.136 678.843C175.219 675.951 173.449 672.906 172.64 670.855L169.849 671.955ZM179.972 687.527C181.359 688.933 183.963 690.66 187.042 692.006C190.137 693.358 193.881 694.401 197.574 694.279L197.475 691.281C194.374 691.383 191.087 690.499 188.244 689.257C185.386 688.008 183.144 686.47 182.108 685.42L179.972 687.527ZM197.574 694.279C201.328 694.156 205.332 692.44 208.283 690.866C209.783 690.066 211.061 689.274 211.966 688.682C212.418 688.386 212.779 688.138 213.028 687.964C213.153 687.876 213.25 687.807 213.317 687.758C213.351 687.734 213.377 687.715 213.395 687.702C213.404 687.695 213.412 687.69 213.417 687.686C213.419 687.684 213.422 687.683 213.423 687.681C213.424 687.681 213.425 687.68 213.425 687.68C213.425 687.68 213.426 687.679 213.426 687.679C213.426 687.679 213.426 687.679 212.534 686.473C211.641 685.268 211.641 685.268 211.642 685.268C211.642 685.268 211.642 685.268 211.642 685.268C211.642 685.267 211.642 685.268 211.641 685.268C211.641 685.268 211.64 685.269 211.639 685.27C211.636 685.272 211.631 685.275 211.625 685.28C211.611 685.29 211.591 685.305 211.562 685.325C211.506 685.366 211.42 685.428 211.306 685.507C211.08 685.666 210.746 685.895 210.322 686.172C209.474 686.728 208.274 687.471 206.871 688.22C204.015 689.743 200.515 691.181 197.475 691.281L197.574 694.279ZM224.194 691.28C223.467 691.27 222.552 691.034 221.496 690.586C220.455 690.145 219.364 689.535 218.309 688.864C216.198 687.52 214.352 686.01 213.473 685.304L211.595 687.643C212.453 688.332 214.425 689.948 216.699 691.394C217.836 692.119 219.079 692.82 220.324 693.348C221.554 693.87 222.877 694.262 224.152 694.28L224.194 691.28ZM212.534 686.473C213.876 685.803 213.876 685.803 213.875 685.803C213.875 685.803 213.875 685.802 213.875 685.802C213.875 685.802 213.875 685.801 213.874 685.801C213.874 685.799 213.872 685.797 213.871 685.794C213.868 685.787 213.863 685.778 213.857 685.766C213.845 685.741 213.826 685.704 213.802 685.655C213.753 685.558 213.682 685.415 213.591 685.231C213.408 684.863 213.144 684.331 212.822 683.68C212.178 682.376 211.301 680.59 210.369 678.663C208.492 674.783 206.427 670.402 205.557 668.179L202.763 669.272C203.684 671.626 205.806 676.119 207.668 679.969C208.605 681.906 209.486 683.699 210.132 685.008C210.455 685.663 210.72 686.196 210.904 686.566C210.996 686.751 211.068 686.896 211.117 686.994C211.141 687.043 211.16 687.08 211.173 687.105C211.179 687.118 211.184 687.128 211.187 687.134C211.189 687.137 211.19 687.14 211.191 687.141C211.191 687.142 211.191 687.143 211.192 687.143C211.192 687.144 211.192 687.144 211.192 687.144C211.192 687.144 211.192 687.144 212.534 686.473ZM300.575 706.762C284.147 705.717 277.417 702.492 268.991 700.573L268.325 703.498C276.303 705.316 283.642 708.691 300.385 709.756L300.575 706.762ZM268.991 700.573C266.766 700.066 264.836 699.57 263.455 699.13C262.757 698.907 262.249 698.714 261.926 698.558C261.849 698.521 261.791 698.49 261.749 698.465C261.706 698.44 261.689 698.428 261.692 698.429C261.693 698.431 261.703 698.438 261.719 698.453C261.735 698.467 261.76 698.492 261.79 698.528C261.844 698.594 261.952 698.741 262.014 698.971L259.118 699.752C259.273 700.329 259.685 700.671 259.868 700.812C260.102 700.991 260.37 701.138 260.622 701.26C261.134 701.507 261.798 701.75 262.543 701.988C264.045 702.467 266.073 702.985 268.325 703.498L268.991 700.573ZM267.223 702.472C268.441 706.479 271.306 709.995 276.638 712.777L278.025 710.117C273.273 707.637 271.037 704.702 270.093 701.599L267.223 702.472ZM276.808 712.853C279.049 713.687 288.362 716.057 302.431 718.075C316.545 720.1 335.539 721.785 357.177 721.212L357.098 718.213C335.657 718.781 316.834 717.11 302.857 715.105C288.835 713.094 279.784 710.76 277.855 710.041L276.808 712.853ZM357.177 721.212C378.704 720.641 402.092 720.322 420.1 720.145C429.103 720.057 436.761 720.005 442.167 719.974C444.871 719.959 447.011 719.949 448.476 719.943C449.208 719.94 449.771 719.938 450.151 719.937C450.341 719.936 450.486 719.936 450.582 719.936C450.631 719.936 450.667 719.935 450.692 719.935C450.704 719.935 450.713 719.935 450.719 719.935C450.722 719.935 450.724 719.935 450.726 719.935C450.727 719.935 450.727 719.935 450.727 719.935C450.728 719.935 450.728 719.935 450.724 718.435C450.72 716.935 450.72 716.935 450.719 716.935C450.719 716.935 450.718 716.935 450.718 716.935C450.716 716.935 450.714 716.935 450.711 716.935C450.704 716.935 450.695 716.935 450.683 716.935C450.658 716.935 450.622 716.936 450.573 716.936C450.476 716.936 450.332 716.936 450.141 716.937C449.76 716.938 449.197 716.94 448.464 716.943C446.998 716.949 444.856 716.959 442.151 716.974C436.741 717.005 429.079 717.057 420.07 717.146C402.055 717.322 378.649 717.642 357.098 718.213L357.177 721.212ZM450.875 719.928C454.6 719.551 458.235 718.39 460.937 717.042C462.284 716.37 463.46 715.621 464.31 714.852C464.734 714.468 465.122 714.039 465.401 713.57C465.676 713.108 465.91 712.496 465.834 711.804L462.852 712.132C462.832 711.951 462.903 711.901 462.823 712.036C462.747 712.163 462.587 712.365 462.297 712.627C461.719 713.15 460.801 713.757 459.598 714.357C457.201 715.553 453.915 716.605 450.573 716.943L450.875 719.928ZM465.834 711.804C465.727 710.83 465.504 707.342 465.306 704.033C465.208 702.392 465.117 700.815 465.05 699.648C465.016 699.064 464.989 698.583 464.97 698.248C464.961 698.081 464.954 697.95 464.949 697.861C464.946 697.816 464.944 697.782 464.943 697.759C464.942 697.748 464.942 697.739 464.942 697.733C464.941 697.731 464.941 697.728 464.941 697.727C464.941 697.726 464.941 697.726 464.941 697.725C464.941 697.725 464.941 697.725 464.941 697.725C464.941 697.725 464.941 697.725 463.443 697.808C461.946 697.892 461.946 697.892 461.946 697.892C461.946 697.892 461.946 697.892 461.946 697.892C461.946 697.892 461.946 697.893 461.946 697.894C461.946 697.895 461.946 697.898 461.946 697.9C461.947 697.906 461.947 697.915 461.948 697.927C461.949 697.95 461.951 697.984 461.953 698.029C461.958 698.118 461.966 698.249 461.975 698.417C461.994 698.753 462.021 699.235 462.055 699.819C462.122 700.988 462.213 702.568 462.311 704.212C462.507 707.472 462.734 711.063 462.852 712.132L465.834 711.804ZM449.227 718.348L445.289 786.12L448.284 786.294L452.222 718.522L449.227 718.348ZM446.786 786.207C446.764 784.707 446.765 784.707 446.765 784.707C446.765 784.707 446.765 784.707 446.765 784.707C446.766 784.707 446.766 784.707 446.766 784.707C446.766 784.707 446.766 784.707 446.765 784.707C446.764 784.707 446.762 784.707 446.758 784.707C446.751 784.707 446.739 784.707 446.722 784.707C446.689 784.707 446.638 784.707 446.57 784.706C446.435 784.705 446.236 784.701 445.99 784.69C445.495 784.669 444.823 784.622 444.104 784.52C443.378 784.418 442.643 784.265 442.009 784.045C441.354 783.818 440.932 783.562 440.708 783.328L438.54 785.402C439.234 786.128 440.166 786.582 441.026 786.88C441.907 787.185 442.848 787.373 443.684 787.491C444.526 787.61 445.3 787.663 445.861 787.687C446.143 787.7 446.374 787.704 446.538 787.706C446.619 787.707 446.684 787.707 446.73 787.707C446.753 787.707 446.771 787.707 446.784 787.707C446.791 787.707 446.796 787.707 446.8 787.707C446.802 787.707 446.804 787.707 446.805 787.707C446.806 787.707 446.807 787.706 446.807 787.706C446.807 787.706 446.808 787.706 446.808 787.706C446.808 787.706 446.808 787.706 446.786 786.207ZM440.708 783.328C439.982 782.569 438.502 780.529 436.228 778.966C433.843 777.328 430.52 776.1 425.734 776.394L425.918 779.388C430.044 779.135 432.702 780.184 434.529 781.439C436.467 782.771 437.43 784.241 438.54 785.402L440.708 783.328ZM425.734 776.394C421.412 776.659 418.617 776.682 416.526 777.036C414.235 777.424 412.64 778.216 410.518 779.896L412.379 782.248C414.206 780.802 415.345 780.278 417.027 779.994C418.909 779.675 421.328 779.67 425.918 779.388L425.734 776.394ZM410.518 779.896C408.445 781.536 407.258 782.847 406.384 783.948C405.455 785.116 405.105 785.709 404.43 786.33L406.459 788.539C407.364 787.708 408.042 786.683 408.732 785.815C409.477 784.878 410.502 783.733 412.379 782.248L410.518 779.896ZM362.47 783.751C363.97 783.726 363.97 783.725 363.97 783.725C363.97 783.725 363.97 783.724 363.97 783.724C363.97 783.723 363.97 783.721 363.97 783.719C363.97 783.714 363.97 783.707 363.97 783.698C363.969 783.68 363.969 783.652 363.968 783.615C363.967 783.543 363.965 783.434 363.963 783.293C363.958 783.01 363.952 782.594 363.944 782.063C363.928 781.001 363.907 779.48 363.885 777.642C363.84 773.967 363.792 769.027 363.778 763.966C363.763 758.904 363.783 753.731 363.872 749.585C363.917 747.511 363.979 745.707 364.062 744.308C364.149 742.845 364.253 741.983 364.337 741.679L361.446 740.879C361.261 741.545 361.15 742.739 361.068 744.129C360.981 745.584 360.918 747.431 360.873 749.521C360.783 753.703 360.763 758.905 360.778 763.975C360.792 769.047 360.841 773.997 360.885 777.679C360.907 779.52 360.929 781.044 360.944 782.107C360.952 782.639 360.959 783.056 360.963 783.341C360.966 783.483 360.967 783.591 360.969 783.665C360.969 783.702 360.97 783.729 360.97 783.748C360.97 783.757 360.97 783.764 360.97 783.769C360.97 783.772 360.97 783.773 360.97 783.775C360.97 783.775 360.97 783.776 360.97 783.776C360.97 783.776 360.97 783.776 362.47 783.751ZM364.337 741.679C364.428 741.351 364.496 740.98 364.476 740.6C364.455 740.214 364.335 739.709 363.937 739.29C363.53 738.861 363.02 738.719 362.621 738.694C362.24 738.67 361.885 738.744 361.603 738.829C360.544 739.149 359.199 740.047 357.896 741.085C355.206 743.229 351.886 746.637 349.93 749.745L352.47 751.343C354.201 748.591 357.264 745.425 359.766 743.432C361.06 742.401 362.013 741.839 362.47 741.701C362.567 741.672 362.542 741.695 362.434 741.688C362.308 741.68 362.016 741.624 361.761 741.355C361.515 741.097 361.484 740.828 361.48 740.758C361.477 740.696 361.489 740.722 361.446 740.879L364.337 741.679ZM349.93 749.745C348.914 751.361 347.631 754.411 346.29 758.034C344.933 761.705 343.468 766.101 342.099 770.507C339.381 779.255 336.975 788.257 336.596 791.678L339.577 792.009C339.919 788.926 342.226 780.208 344.964 771.397C346.322 767.024 347.77 762.681 349.104 759.075C350.456 755.421 351.643 752.657 352.47 751.343L349.93 749.745ZM338.086 791.844C338.183 790.347 338.183 790.347 338.182 790.347C338.182 790.347 338.182 790.347 338.182 790.347C338.181 790.346 338.179 790.346 338.178 790.346C338.174 790.346 338.169 790.346 338.162 790.345C338.148 790.344 338.127 790.343 338.1 790.341C338.045 790.338 337.964 790.332 337.858 790.326C337.645 790.312 337.333 790.291 336.935 790.265C336.138 790.212 334.995 790.136 333.615 790.042C330.855 789.854 327.144 789.594 323.341 789.307C319.535 789.02 315.644 788.706 312.521 788.41C310.958 788.262 309.597 788.12 308.539 787.988C307.435 787.85 306.777 787.738 306.537 787.668L305.701 790.549C306.211 790.697 307.115 790.834 308.169 790.965C309.269 791.102 310.663 791.248 312.238 791.397C315.39 791.696 319.303 792.011 323.115 792.299C326.928 792.586 330.647 792.847 333.411 793.035C334.794 793.129 335.938 793.206 336.737 793.258C337.137 793.285 337.45 793.305 337.663 793.319C337.77 793.326 337.851 793.331 337.906 793.335C337.934 793.337 337.955 793.338 337.969 793.339C337.976 793.339 337.981 793.34 337.985 793.34C337.987 793.34 337.988 793.34 337.989 793.34C337.989 793.34 337.99 793.34 337.99 793.34C337.99 793.34 337.99 793.34 338.086 791.844ZM306.537 787.668C306.183 787.565 305.706 787.246 305.058 786.557C304.422 785.88 303.785 785.033 303.026 784.054C301.617 782.235 299.755 779.882 297.186 778.986L296.198 781.819C297.79 782.374 299.141 783.938 300.655 785.892C301.359 786.8 302.111 787.802 302.873 788.612C303.624 789.411 304.555 790.217 305.701 790.549L306.537 787.668ZM297.186 778.986C294.933 778.2 291.049 777.502 287.219 777.232C285.29 777.096 283.331 777.065 281.555 777.195C279.806 777.324 278.123 777.616 276.813 778.192L278.02 780.938C278.87 780.565 280.156 780.306 281.775 780.187C283.369 780.07 285.178 780.095 287.008 780.224C290.696 780.484 294.291 781.153 296.198 781.819L297.186 778.986ZM276.813 778.192C274.179 779.35 272.724 781.694 271.608 783.385C270.358 785.28 269.579 786.254 268.401 786.459L268.916 789.415C271.581 788.95 273.023 786.687 274.112 785.038C275.334 783.185 276.336 781.678 278.02 780.938L276.813 778.192ZM268.401 786.459C267.729 786.576 266.76 786.5 265.574 786.233C264.417 785.972 263.178 785.56 262.024 785.114C260.875 784.671 259.837 784.205 259.086 783.85C258.711 783.672 258.409 783.523 258.202 783.419C258.099 783.368 258.02 783.327 257.968 783.3C257.941 783.286 257.922 783.276 257.909 783.27C257.903 783.266 257.899 783.264 257.896 783.263C257.894 783.262 257.894 783.262 257.893 783.261C257.893 783.261 257.893 783.261 257.893 783.261C257.893 783.261 257.893 783.261 257.893 783.261C257.893 783.261 257.893 783.261 257.194 784.588C256.494 785.915 256.494 785.915 256.494 785.915C256.494 785.915 256.495 785.915 256.495 785.916C256.495 785.916 256.496 785.916 256.497 785.916C256.498 785.917 256.5 785.918 256.502 785.919C256.507 785.922 256.513 785.925 256.522 785.93C256.538 785.938 256.562 785.951 256.592 785.966C256.653 785.998 256.742 786.043 256.854 786.1C257.08 786.213 257.403 786.373 257.803 786.562C258.6 786.939 259.708 787.436 260.944 787.913C262.175 788.388 263.563 788.855 264.915 789.159C266.239 789.457 267.665 789.632 268.916 789.415L268.401 786.459ZM257.194 784.588C258.66 784.904 258.66 784.904 258.66 784.903C258.66 784.903 258.66 784.903 258.66 784.902C258.66 784.901 258.661 784.9 258.661 784.898C258.662 784.893 258.663 784.887 258.665 784.879C258.669 784.863 258.674 784.839 258.681 784.806C258.695 784.742 258.715 784.647 258.742 784.522C258.796 784.272 258.875 783.904 258.976 783.432C259.179 782.488 259.471 781.129 259.828 779.465C260.541 776.136 261.514 771.591 262.551 766.72C264.624 756.985 266.957 745.937 267.987 740.733L265.044 740.151C264.019 745.328 261.691 756.353 259.617 766.096C258.58 770.964 257.608 775.508 256.895 778.836C256.538 780.499 256.246 781.859 256.043 782.802C255.942 783.274 255.863 783.641 255.809 783.891C255.782 784.016 255.762 784.111 255.748 784.175C255.741 784.208 255.736 784.232 255.732 784.248C255.731 784.256 255.729 784.262 255.728 784.266C255.728 784.268 255.728 784.27 255.727 784.271C255.727 784.271 255.727 784.272 255.727 784.272C255.727 784.272 255.727 784.272 257.194 784.588ZM267.987 740.733C268.982 735.702 271.288 729.571 273.56 724.127C274.691 721.416 275.8 718.904 276.721 716.805C277.628 714.736 278.379 713.007 278.749 711.938L275.914 710.957C275.593 711.884 274.903 713.48 273.974 715.6C273.057 717.69 271.935 720.231 270.791 722.972C268.513 728.432 266.102 734.801 265.044 740.151L267.987 740.733ZM255.725 784.283C255.548 785.135 254.997 786.421 254.132 788.093C253.285 789.731 252.218 791.59 251.097 793.567C248.902 797.438 246.456 801.826 245.527 805.319L248.426 806.09C249.235 803.049 251.451 799.026 253.707 795.047C254.811 793.099 255.916 791.174 256.797 789.471C257.66 787.802 258.392 786.19 258.662 784.893L255.725 784.283ZM245.527 805.319C245.043 807.139 244.842 809.723 244.785 812.465C244.727 815.242 244.816 818.304 244.958 821.141C245.101 823.981 245.298 826.614 245.46 828.535C245.54 829.496 245.612 830.28 245.664 830.825C245.69 831.098 245.711 831.31 245.725 831.455C245.733 831.528 245.738 831.583 245.742 831.621C245.744 831.64 245.745 831.654 245.746 831.664C245.747 831.669 245.747 831.673 245.748 831.675C245.748 831.677 245.748 831.678 245.748 831.678C245.748 831.679 245.748 831.679 245.748 831.679C245.748 831.679 245.748 831.68 247.24 831.525C248.732 831.37 248.732 831.37 248.732 831.37C248.732 831.37 248.732 831.37 248.732 831.369C248.732 831.369 248.732 831.368 248.732 831.367C248.731 831.365 248.731 831.362 248.731 831.357C248.73 831.349 248.728 831.335 248.727 831.317C248.723 831.282 248.718 831.228 248.711 831.158C248.697 831.017 248.676 830.809 248.651 830.541C248.6 830.006 248.529 829.233 248.449 828.284C248.29 826.385 248.095 823.788 247.955 820.991C247.814 818.19 247.728 815.206 247.784 812.528C247.841 809.816 248.041 807.539 248.426 806.09L245.527 805.319ZM247.24 831.525C246.81 832.962 246.81 832.962 246.81 832.962C246.81 832.962 246.811 832.962 246.811 832.962C246.811 832.962 246.812 832.962 246.813 832.963C246.815 832.963 246.818 832.964 246.822 832.965C246.829 832.967 246.839 832.97 246.853 832.975C246.88 832.983 246.92 832.995 246.972 833.01C247.076 833.04 247.228 833.085 247.422 833.14C247.808 833.252 248.361 833.409 249.031 833.592C250.368 833.957 252.177 834.429 254.054 834.851C255.92 835.27 257.896 835.65 259.552 835.819C260.377 835.903 261.173 835.94 261.862 835.889C262.47 835.844 263.316 835.713 263.945 835.19L262.028 832.882C262.17 832.764 262.159 832.858 261.639 832.897C261.2 832.93 260.599 832.91 259.856 832.834C258.377 832.684 256.538 832.334 254.712 831.924C252.895 831.515 251.133 831.056 249.822 830.698C249.167 830.519 248.627 830.366 248.252 830.258C248.064 830.204 247.918 830.161 247.819 830.132C247.769 830.117 247.731 830.106 247.706 830.098C247.694 830.095 247.685 830.092 247.678 830.09C247.675 830.089 247.673 830.089 247.672 830.088C247.671 830.088 247.671 830.088 247.67 830.088C247.67 830.088 247.67 830.088 247.67 830.088C247.67 830.088 247.67 830.088 247.24 831.525ZM263.945 835.19C264.762 834.511 265.152 833.62 265.392 832.802C265.616 832.035 265.772 831.071 265.937 830.264C266.288 828.554 266.839 826.603 268.57 824.496L266.252 822.592C264.085 825.229 263.398 827.715 262.999 829.66C262.789 830.681 262.691 831.349 262.512 831.96C262.348 832.52 262.185 832.752 262.028 832.882L263.945 835.19ZM268.57 824.496C271.954 820.376 277.039 819.97 283.443 820.163L283.534 817.164C277.223 816.974 270.662 817.224 266.252 822.592L268.57 824.496ZM283.443 820.163C286.534 820.256 290.267 820.698 293.445 821.481C295.035 821.873 296.441 822.339 297.542 822.866C298.678 823.41 299.32 823.939 299.596 824.363L302.109 822.725C301.385 821.614 300.15 820.789 298.837 820.16C297.487 819.514 295.869 818.989 294.163 818.568C290.748 817.727 286.8 817.263 283.534 817.164L283.443 820.163ZM299.596 824.363C300.064 825.08 300.598 826.034 301.226 827.146C301.841 828.236 302.529 829.45 303.269 830.606C304.006 831.757 304.824 832.898 305.711 833.834C306.584 834.754 307.631 835.589 308.848 835.954L309.71 833.08C309.216 832.932 308.603 832.523 307.888 831.769C307.187 831.031 306.487 830.068 305.796 828.988C305.107 827.912 304.456 826.767 303.839 825.672C303.233 824.599 302.642 823.542 302.109 822.725L299.596 824.363ZM308.848 835.954C309.476 836.142 310.377 836.223 311.324 836.262C312.319 836.304 313.523 836.303 314.846 836.274C317.493 836.217 320.684 836.043 323.75 835.838C326.819 835.633 329.78 835.396 331.972 835.21C333.068 835.117 333.973 835.037 334.604 834.98C334.919 834.952 335.166 834.929 335.335 834.913C335.419 834.906 335.484 834.9 335.527 834.896C335.549 834.894 335.566 834.892 335.577 834.891C335.583 834.89 335.587 834.89 335.59 834.89C335.591 834.89 335.592 834.89 335.593 834.889C335.593 834.889 335.594 834.889 335.594 834.889C335.594 834.889 335.594 834.889 335.453 833.396C335.312 831.903 335.312 831.903 335.312 831.903C335.312 831.903 335.312 831.903 335.311 831.903C335.311 831.903 335.31 831.903 335.309 831.903C335.306 831.903 335.302 831.904 335.297 831.904C335.286 831.905 335.27 831.907 335.248 831.909C335.206 831.913 335.142 831.919 335.059 831.926C334.892 831.942 334.648 831.964 334.334 831.992C333.708 832.049 332.808 832.128 331.718 832.221C329.537 832.406 326.596 832.641 323.55 832.845C320.5 833.048 317.361 833.219 314.78 833.275C313.488 833.303 312.354 833.302 311.449 833.265C310.497 833.225 309.938 833.149 309.71 833.08L308.848 835.954ZM335.453 833.396C336.946 833.543 336.946 833.543 336.946 833.543C336.946 833.542 336.946 833.542 336.946 833.542C336.946 833.542 336.946 833.541 336.946 833.541C336.946 833.539 336.947 833.538 336.947 833.535C336.947 833.53 336.948 833.523 336.949 833.513C336.951 833.494 336.954 833.465 336.957 833.427C336.965 833.352 336.976 833.24 336.99 833.095C337.018 832.804 337.059 832.38 337.11 831.845C337.213 830.776 337.356 829.264 337.52 827.493C337.847 823.953 338.256 819.376 338.581 815.234L335.59 814.999C335.267 819.121 334.86 823.683 334.533 827.217C334.369 828.983 334.226 830.492 334.124 831.559C334.073 832.092 334.032 832.515 334.004 832.804C333.99 832.949 333.979 833.06 333.972 833.136C333.968 833.173 333.965 833.202 333.963 833.221C333.962 833.23 333.962 833.237 333.961 833.242C333.961 833.245 333.961 833.246 333.961 833.248C333.961 833.248 333.961 833.249 333.961 833.249C333.961 833.249 333.96 833.249 333.96 833.249C333.96 833.249 333.96 833.249 335.453 833.396ZM338.581 815.234C338.909 811.056 339.037 806.335 339.145 802.124C339.254 797.87 339.341 794.2 339.578 792.004L336.595 791.683C336.342 794.033 336.253 797.867 336.146 802.048C336.038 806.271 335.911 810.913 335.59 814.999L338.581 815.234ZM335.453 833.396C333.965 833.208 333.965 833.208 333.965 833.207C333.965 833.207 333.965 833.207 333.965 833.208C333.965 833.208 333.965 833.208 333.965 833.208C333.965 833.209 333.965 833.21 333.965 833.212C333.964 833.216 333.963 833.221 333.962 833.229C333.96 833.245 333.957 833.268 333.953 833.299C333.945 833.361 333.933 833.454 333.916 833.573C333.884 833.81 333.835 834.153 333.772 834.569C333.645 835.403 333.46 836.525 333.228 837.685C332.995 838.853 332.721 840.028 332.42 840.979C332.269 841.455 332.121 841.845 331.981 842.137C331.827 842.458 331.739 842.544 331.757 842.527L333.778 844.744C334.189 844.37 334.479 843.867 334.687 843.432C334.909 842.969 335.105 842.436 335.28 841.885C335.629 840.782 335.928 839.486 336.17 838.273C336.414 837.052 336.606 835.883 336.737 835.02C336.803 834.588 336.854 834.232 336.888 833.982C336.905 833.857 336.919 833.759 336.928 833.691C336.932 833.657 336.935 833.631 336.938 833.613C336.939 833.604 336.94 833.597 336.94 833.593C336.941 833.59 336.941 833.588 336.941 833.587C336.941 833.586 336.941 833.586 336.941 833.585C336.941 833.585 336.941 833.585 336.941 833.585C336.941 833.584 336.941 833.584 335.453 833.396ZM331.757 842.527C331.286 842.956 330.2 843.45 328.119 843.924C326.11 844.381 323.424 844.769 320.01 845.159L320.351 848.14C323.783 847.748 326.606 847.345 328.785 846.849C330.894 846.369 332.678 845.747 333.778 844.744L331.757 842.527ZM320.01 845.159C313.234 845.932 294.289 846.823 285.923 846.657L285.863 849.656C294.355 849.825 313.434 848.929 320.351 848.14L320.01 845.159ZM285.923 846.657C277.44 846.488 266.377 846.377 260.453 845.771L260.148 848.755C266.232 849.378 277.488 849.49 285.863 849.656L285.923 846.657ZM260.453 845.771C257.466 845.466 255.25 845.114 253.619 844.604C252 844.097 251.126 843.486 250.627 842.774L248.171 844.497C249.199 845.962 250.775 846.857 252.723 847.467C254.661 848.073 257.131 848.447 260.148 848.755L260.453 845.771ZM250.627 842.774C250.395 842.443 250.157 841.889 249.943 841.067C249.733 840.262 249.57 839.301 249.432 838.226C249.295 837.155 249.186 836.008 249.078 834.834C248.971 833.669 248.864 832.474 248.729 831.347L245.751 831.703C245.879 832.78 245.983 833.929 246.091 835.108C246.199 836.278 246.311 837.476 246.457 838.608C246.602 839.738 246.784 840.842 247.04 841.824C247.291 842.787 247.64 843.74 248.171 844.497L250.627 842.774ZM360.972 783.676C360.784 787.431 360.919 797.427 361.221 806.772C361.373 811.458 361.568 816.007 361.788 819.562C361.898 821.337 362.015 822.878 362.137 824.068C362.199 824.663 362.262 825.184 362.33 825.61C362.392 826.005 362.472 826.418 362.589 826.738L365.406 825.707C365.408 825.712 365.394 825.672 365.369 825.56C365.347 825.456 365.321 825.318 365.293 825.142C365.238 824.79 365.18 824.328 365.122 823.761C365.005 822.629 364.891 821.135 364.782 819.376C364.564 815.862 364.371 811.345 364.22 806.675C363.917 797.31 363.788 787.438 363.968 783.826L360.972 783.676ZM407.601 834.252C408.627 833.42 409.647 832.089 410.612 830.692C411.591 829.275 412.637 827.601 413.653 826.045C414.689 824.456 415.714 822.956 416.723 821.752C417.759 820.515 418.643 819.757 419.354 819.455L418.183 816.693C416.788 817.285 415.526 818.508 414.423 819.826C413.292 821.177 412.184 822.806 411.14 824.405C410.076 826.037 409.094 827.611 408.144 828.987C407.181 830.381 406.37 831.388 405.711 831.923L407.601 834.252ZM419.354 819.455C423.323 817.773 427.382 817.126 432.871 817.205L432.915 814.205C427.139 814.122 422.641 814.804 418.183 816.693L419.354 819.455ZM432.871 817.205C435.674 817.245 437.433 817.383 438.887 817.754C440.301 818.115 441.508 818.718 443.156 819.83L444.834 817.343C443.022 816.121 441.494 815.323 439.63 814.847C437.807 814.382 435.744 814.246 432.915 814.205L432.871 817.205ZM443.156 819.83C443.755 820.234 444.372 820.964 444.977 821.99C445.57 822.999 446.091 824.188 446.544 825.39C446.996 826.589 447.365 827.761 447.671 828.739C447.822 829.22 447.961 829.669 448.084 830.035C448.197 830.371 448.331 830.749 448.481 831.031L451.13 829.622C451.132 829.626 451.127 829.616 451.114 829.588C451.102 829.561 451.087 829.523 451.068 829.474C451.029 829.373 450.983 829.243 450.928 829.08C450.818 828.751 450.689 828.339 450.534 827.843C450.229 826.867 449.837 825.62 449.352 824.333C448.868 823.049 448.277 821.684 447.562 820.468C446.856 819.27 445.965 818.106 444.834 817.343L443.156 819.83ZM448.481 831.031C448.834 831.694 449.461 831.978 449.836 832.106C450.256 832.249 450.718 832.317 451.144 832.351C452.006 832.419 453.023 832.372 453.949 832.291C454.89 832.209 455.801 832.087 456.472 831.986C456.809 831.936 457.089 831.89 457.286 831.857C457.384 831.84 457.461 831.827 457.515 831.817C457.542 831.813 457.563 831.809 457.578 831.806C457.585 831.805 457.591 831.804 457.595 831.803C457.597 831.803 457.598 831.803 457.6 831.802C457.6 831.802 457.601 831.802 457.601 831.802C457.601 831.802 457.601 831.802 457.602 831.802C457.602 831.802 457.602 831.802 457.332 830.326C457.062 828.851 457.062 828.851 457.063 828.851C457.063 828.851 457.063 828.851 457.063 828.851C457.063 828.851 457.062 828.851 457.062 828.851C457.062 828.851 457.061 828.851 457.06 828.851C457.057 828.852 457.053 828.852 457.047 828.854C457.036 828.856 457.018 828.859 456.995 828.863C456.948 828.871 456.877 828.883 456.787 828.899C456.605 828.929 456.344 828.972 456.028 829.019C455.392 829.115 454.547 829.228 453.689 829.302C452.817 829.378 451.994 829.409 451.382 829.36C451.071 829.335 450.888 829.295 450.805 829.267C450.677 829.223 450.944 829.272 451.13 829.622L448.481 831.031ZM457.332 830.326C458.823 830.494 458.823 830.494 458.823 830.494C458.823 830.494 458.823 830.493 458.823 830.493C458.823 830.492 458.823 830.492 458.823 830.49C458.823 830.488 458.824 830.484 458.824 830.48C458.825 830.47 458.827 830.456 458.829 830.438C458.833 830.401 458.839 830.346 458.847 830.275C458.863 830.133 458.886 829.924 458.915 829.656C458.972 829.12 459.054 828.349 459.15 827.404C459.342 825.515 459.591 822.93 459.821 820.152C460.275 814.662 460.672 808.21 460.339 804.973L457.355 805.28C457.653 808.182 457.293 814.33 456.831 819.905C456.604 822.659 456.356 825.224 456.165 827.1C456.07 828.039 455.989 828.804 455.932 829.335C455.903 829.6 455.881 829.806 455.865 829.946C455.857 830.016 455.852 830.07 455.848 830.105C455.846 830.123 455.844 830.137 455.843 830.145C455.843 830.15 455.842 830.153 455.842 830.155C455.842 830.156 455.842 830.157 455.842 830.158C455.842 830.158 455.842 830.158 455.842 830.158C455.842 830.158 455.842 830.158 457.332 830.326ZM460.339 804.973C459.655 798.328 455.59 793.734 453.612 791.154L451.231 792.979C453.361 795.757 456.775 799.646 457.355 805.28L460.339 804.973ZM453.612 791.154C451.498 788.396 449.671 786.541 447.704 785.02L445.869 787.393C447.588 788.723 449.238 790.379 451.231 792.979L453.612 791.154ZM457.332 830.326C455.845 830.129 455.845 830.129 455.845 830.129C455.845 830.129 455.845 830.129 455.845 830.129C455.845 830.129 455.845 830.13 455.845 830.13C455.845 830.131 455.845 830.132 455.845 830.134C455.844 830.138 455.843 830.144 455.842 830.152C455.84 830.168 455.837 830.193 455.832 830.226C455.823 830.292 455.809 830.389 455.791 830.515C455.755 830.766 455.702 831.13 455.632 831.574C455.492 832.464 455.288 833.671 455.032 834.949C454.775 836.231 454.469 837.561 454.129 838.702C453.773 839.895 453.428 840.705 453.155 841.081L455.585 842.841C456.181 842.018 456.641 840.773 457.003 839.56C457.381 838.295 457.707 836.865 457.974 835.539C458.241 834.208 458.451 832.957 458.596 832.04C458.668 831.58 458.723 831.204 458.761 830.941C458.78 830.809 458.794 830.706 458.804 830.635C458.809 830.6 458.813 830.572 458.815 830.554C458.816 830.544 458.817 830.537 458.818 830.532C458.818 830.529 458.819 830.527 458.819 830.526C458.819 830.525 458.819 830.525 458.819 830.524C458.819 830.524 458.819 830.524 458.819 830.524C458.819 830.524 458.819 830.523 457.332 830.326ZM453.155 841.081C453.147 841.092 453.054 841.206 452.718 841.359C452.391 841.507 451.927 841.651 451.304 841.781C450.055 842.04 448.38 842.198 446.34 842.312C442.361 842.536 436.975 842.587 431.6 843.034L431.849 846.023C437.217 845.577 442.285 845.545 446.508 845.308C448.57 845.192 450.433 845.025 451.914 844.718C452.656 844.564 453.356 844.364 453.96 844.089C454.554 843.819 455.158 843.43 455.585 842.841L453.155 841.081ZM431.6 843.034C420.938 843.92 412.859 843.976 401.035 843.033L400.796 846.024C412.781 846.979 421.023 846.923 431.849 846.023L431.6 843.034ZM401.035 843.033C389.164 842.087 379.268 840.809 372.49 839.538L371.937 842.487C378.851 843.783 388.858 845.072 400.796 846.024L401.035 843.033ZM372.49 839.538C369.004 838.885 367.412 838.521 366.612 838.185C366.435 838.111 366.337 838.053 366.285 838.017C366.259 838 366.245 837.988 366.239 837.981C366.232 837.975 366.229 837.972 366.227 837.97C366.215 837.954 366.177 837.906 366.055 837.533L363.204 838.464C363.319 838.817 363.492 839.348 363.876 839.833C364.284 840.347 364.82 840.687 365.451 840.952C366.613 841.439 368.576 841.857 371.937 842.487L372.49 839.538ZM366.055 837.533C366.055 837.533 366.055 837.532 366.055 837.531C366.054 837.529 366.054 837.527 366.053 837.524C366.051 837.517 366.049 837.509 366.046 837.497C366.04 837.473 366.033 837.441 366.026 837.4C366.01 837.317 365.995 837.21 365.98 837.076C365.95 836.808 365.928 836.471 365.914 836.076C365.885 835.287 365.889 834.33 365.912 833.345C365.957 831.38 366.074 829.38 366.127 828.549L363.132 828.361C363.079 829.205 362.959 831.251 362.913 833.276C362.889 834.287 362.884 835.311 362.916 836.186C362.945 836.992 363.01 837.872 363.204 838.464L366.055 837.533ZM431.126 810.419C432.718 810.327 434.325 810.421 435.908 810.54C437.449 810.656 439.038 810.803 440.423 810.777C441.79 810.751 443.243 810.56 444.415 809.791C445.69 808.956 446.378 807.617 446.542 805.881L443.555 805.599C443.456 806.654 443.11 807.06 442.77 807.283C442.328 807.573 441.585 807.755 440.366 807.778C439.163 807.8 437.773 807.672 436.133 807.549C434.535 807.429 432.758 807.32 430.954 807.424L431.126 810.419ZM446.542 805.881C446.729 803.896 445.859 802.366 444.507 801.301C443.228 800.294 441.509 799.682 439.786 799.29C436.318 798.5 432.183 798.464 429.654 798.492L429.687 801.492C432.214 801.464 436.031 801.512 439.12 802.215C440.675 802.569 441.886 803.056 442.651 803.658C443.343 804.203 443.631 804.794 443.555 805.599L446.542 805.881ZM429.654 798.492C427.062 798.521 422.79 798.832 419.1 800.054C415.521 801.239 411.755 803.559 411.687 808.005L414.686 808.052C414.723 805.689 416.671 804.019 420.044 802.902C423.306 801.821 427.223 801.519 429.687 801.492L429.654 798.492ZM411.687 808.005C411.67 809.054 411.869 810.016 412.368 810.826C412.878 811.652 413.619 812.184 414.442 812.497C415.983 813.084 417.933 812.948 419.762 812.656C421.645 812.356 423.756 811.821 425.71 811.365C427.718 810.897 429.573 810.508 431.126 810.419L430.954 807.424C429.11 807.53 427.022 807.979 425.028 808.443C422.982 808.921 421.034 809.415 419.289 809.694C417.492 809.981 416.245 809.974 415.51 809.694C415.195 809.574 415.028 809.424 414.921 809.25C414.804 809.06 414.676 808.706 414.686 808.052L411.687 808.005ZM303.512 809.214C303.824 806.841 302.335 805.157 300.658 804.074C298.973 802.986 296.739 802.241 294.622 801.721C292.477 801.195 290.322 800.87 288.714 800.677C287.907 800.58 287.231 800.515 286.756 800.475C286.518 800.454 286.329 800.44 286.199 800.431C286.134 800.426 286.084 800.423 286.049 800.42C286.031 800.419 286.018 800.418 286.008 800.418C286.003 800.417 285.999 800.417 285.997 800.417C285.995 800.417 285.994 800.417 285.993 800.417C285.993 800.417 285.992 800.417 285.992 800.417C285.992 800.417 285.991 800.417 285.903 801.914C285.814 803.411 285.814 803.411 285.814 803.411C285.814 803.411 285.814 803.411 285.814 803.411C285.814 803.411 285.814 803.411 285.815 803.412C285.816 803.412 285.819 803.412 285.822 803.412C285.829 803.412 285.839 803.413 285.854 803.414C285.883 803.416 285.927 803.419 285.986 803.423C286.103 803.431 286.278 803.445 286.501 803.464C286.948 803.502 287.588 803.563 288.355 803.655C289.896 803.841 291.921 804.148 293.907 804.635C295.92 805.129 297.768 805.778 299.03 806.594C300.301 807.415 300.627 808.145 300.538 808.823L303.512 809.214ZM285.903 801.914C285.992 800.417 285.991 800.417 285.991 800.417C285.991 800.417 285.99 800.417 285.99 800.417C285.989 800.417 285.988 800.417 285.986 800.416C285.984 800.416 285.98 800.416 285.975 800.416C285.966 800.415 285.953 800.415 285.936 800.414C285.902 800.412 285.854 800.409 285.791 800.406C285.666 800.401 285.485 800.393 285.257 800.386C284.8 800.371 284.15 800.357 283.372 800.36C281.822 800.367 279.736 800.44 277.636 800.716C275.564 800.987 273.347 801.471 271.613 802.364C269.87 803.262 268.29 804.767 268.322 807.121L271.321 807.081C271.312 806.361 271.721 805.682 272.986 805.031C274.259 804.376 276.068 803.947 278.026 803.69C279.957 803.437 281.906 803.366 283.384 803.36C284.121 803.357 284.733 803.37 285.16 803.384C285.373 803.391 285.54 803.398 285.651 803.403C285.707 803.406 285.749 803.408 285.777 803.409C285.79 803.41 285.8 803.411 285.807 803.411C285.81 803.411 285.812 803.411 285.813 803.411C285.814 803.411 285.814 803.411 285.814 803.411C285.814 803.411 285.814 803.411 285.814 803.411C285.814 803.411 285.814 803.411 285.903 801.914ZM268.322 807.121C268.347 809.062 269.074 810.564 270.42 811.583C271.672 812.53 273.307 812.941 274.947 813.139C276.609 813.34 278.49 813.345 280.362 813.326C282.269 813.308 284.181 813.265 286.04 813.35L286.177 810.353C284.211 810.264 282.184 810.308 280.333 810.326C278.447 810.345 276.75 810.336 275.307 810.161C273.841 809.983 272.845 809.656 272.23 809.191C271.71 808.797 271.336 808.212 271.321 807.081L268.322 807.121ZM286.04 813.35C287.88 813.434 289.718 813.673 291.521 813.902C293.288 814.127 295.058 814.348 296.629 814.354C298.18 814.36 299.773 814.162 301.067 813.359C302.456 812.496 303.266 811.09 303.512 809.214L300.538 808.823C300.384 809.998 299.96 810.515 299.484 810.81C298.914 811.164 298.012 811.359 296.64 811.354C295.288 811.349 293.708 811.156 291.899 810.926C290.125 810.7 288.161 810.444 286.177 810.353L286.04 813.35ZM254.112 551.71C254.272 551.851 254.449 551.955 254.552 552.013C254.678 552.086 254.824 552.161 254.979 552.236C255.29 552.388 255.694 552.569 256.173 552.772C257.133 553.18 258.448 553.7 260.044 554.297C263.24 555.492 267.601 557.006 272.579 558.554C282.517 561.643 295.009 564.896 305.644 565.984L305.949 562.999C295.611 561.942 283.342 558.758 273.47 555.689C268.543 554.157 264.236 552.662 261.095 551.487C259.523 550.9 258.252 550.396 257.345 550.011C256.89 549.818 256.54 549.66 256.294 549.54C256.171 549.48 256.087 549.436 256.036 549.407C255.96 549.363 256.012 549.385 256.098 549.461L254.112 551.71ZM305.644 565.984C326.673 568.135 378.196 570.326 381.286 570.452L381.409 567.455C378.279 567.327 326.866 565.139 305.949 562.999L305.644 565.984ZM404.43 786.33C404.532 786.236 404.504 786.312 404.063 786.417C403.683 786.507 403.153 786.583 402.47 786.638C401.111 786.747 399.316 786.761 397.267 786.709C393.176 786.606 388.236 786.246 384.068 785.939L383.847 788.93C388 789.237 393.014 789.603 397.191 789.708C399.276 789.761 401.194 789.75 402.711 789.628C403.468 789.567 404.166 789.475 404.755 789.336C405.283 789.211 405.962 788.996 406.459 788.539L404.43 786.33ZM384.068 785.939C380.002 785.639 374.703 784.733 370.38 783.89C368.228 783.471 366.333 783.07 364.977 782.775C364.299 782.627 363.756 782.505 363.383 782.421C363.197 782.379 363.053 782.346 362.956 782.324C362.908 782.313 362.871 782.304 362.847 782.298C362.834 782.296 362.825 782.294 362.819 782.292C362.816 782.291 362.814 782.291 362.813 782.291C362.812 782.29 362.811 782.29 362.811 782.29C362.811 782.29 362.811 782.29 362.811 782.29C362.811 782.29 362.811 782.29 362.47 783.751C362.13 785.212 362.13 785.212 362.13 785.212C362.13 785.212 362.13 785.212 362.131 785.212C362.131 785.212 362.132 785.212 362.133 785.212C362.134 785.213 362.137 785.214 362.14 785.214C362.147 785.216 362.157 785.218 362.17 785.221C362.196 785.227 362.234 785.236 362.284 785.247C362.384 785.27 362.531 785.304 362.721 785.347C363.101 785.433 363.652 785.556 364.338 785.706C365.711 786.005 367.627 786.41 369.807 786.835C374.147 787.681 379.592 788.617 383.847 788.93L384.068 785.939ZM408.61 586.792C405.183 586.962 402.519 589.313 401.474 592.046L404.276 593.118C404.952 591.351 406.667 589.892 408.759 589.788L408.61 586.792ZM401.474 592.046C400.913 593.512 400.875 595.708 401.073 597.6C401.176 598.583 401.351 599.565 401.594 600.434C401.827 601.271 402.157 602.13 402.634 602.769L405.038 600.974C404.891 600.777 404.681 600.338 404.483 599.628C404.294 598.95 404.145 598.136 404.056 597.287C403.871 595.515 403.976 593.903 404.276 593.118L401.474 592.046ZM402.634 602.769C404.139 604.785 406.668 606.525 410.529 606.294L410.35 603.299C407.639 603.461 406.029 602.302 405.038 600.974L402.634 602.769ZM410.529 606.294C412.732 606.162 414.151 605.022 415.026 603.639C415.844 602.346 416.199 600.823 416.43 599.822L413.507 599.147C413.265 600.199 412.998 601.234 412.491 602.035C412.042 602.745 411.433 603.235 410.35 603.299L410.529 606.294ZM423.15 604.568C425.706 604.758 428.262 603.52 429.603 601.763L427.219 599.943C426.494 600.892 424.919 601.691 423.372 601.577L423.15 604.568ZM415.639 591.674C414.483 589.197 412.268 586.61 408.61 586.792L408.759 589.788C410.619 589.696 411.98 590.928 412.921 592.943L415.639 591.674ZM428.265 586.447C427.928 586.035 427.543 585.642 427.256 585.362C427.11 585.22 426.983 585.101 426.892 585.017C426.846 584.975 426.809 584.941 426.783 584.917C426.77 584.906 426.759 584.896 426.752 584.889C426.748 584.886 426.745 584.883 426.742 584.881C426.741 584.88 426.74 584.879 426.739 584.878C426.739 584.878 426.739 584.878 426.738 584.878C426.738 584.877 426.738 584.877 426.738 584.877C426.738 584.877 426.738 584.877 426.738 584.877C426.738 584.877 426.738 584.877 425.743 585.999C424.748 587.122 424.748 587.122 424.748 587.122C424.748 587.122 424.748 587.122 424.747 587.122C424.747 587.122 424.747 587.122 424.747 587.122C424.747 587.121 424.747 587.121 424.747 587.121C424.747 587.121 424.747 587.122 424.748 587.122C424.748 587.122 424.75 587.124 424.752 587.126C424.756 587.129 424.763 587.136 424.773 587.144C424.792 587.161 424.821 587.188 424.858 587.222C424.933 587.291 425.039 587.391 425.162 587.511C425.413 587.756 425.71 588.062 425.946 588.35L428.265 586.447ZM425.743 585.999C426.775 584.911 426.774 584.91 426.773 584.909C426.773 584.909 426.772 584.908 426.772 584.908C426.771 584.907 426.769 584.906 426.768 584.905C426.766 584.903 426.764 584.901 426.761 584.898C426.757 584.894 426.752 584.889 426.746 584.885C426.736 584.875 426.724 584.864 426.71 584.853C426.684 584.83 426.652 584.803 426.615 584.774C426.54 584.716 426.445 584.647 426.326 584.573C426.089 584.423 425.763 584.253 425.339 584.102C424.484 583.797 423.268 583.583 421.621 583.73L421.888 586.718C423.138 586.607 423.917 586.78 424.332 586.928C424.542 587.003 424.67 587.075 424.728 587.111C424.757 587.13 424.769 587.139 424.766 587.137C424.764 587.135 424.758 587.131 424.749 587.123C424.745 587.119 424.739 587.114 424.733 587.108C424.729 587.105 424.726 587.102 424.722 587.099C424.72 587.097 424.719 587.095 424.717 587.094C424.716 587.093 424.715 587.092 424.714 587.091C424.713 587.09 424.712 587.09 424.712 587.089C424.711 587.089 424.711 587.088 425.743 585.999ZM425.743 585.999C427.011 586.8 427.011 586.8 427.011 586.8C427.011 586.8 427.011 586.8 427.011 586.8C427.011 586.8 427.011 586.8 427.011 586.8C427.012 586.799 427.012 586.799 427.012 586.798C427.013 586.797 427.015 586.794 427.017 586.791C427.021 586.784 427.028 586.774 427.036 586.76C427.054 586.733 427.08 586.692 427.114 586.639C427.181 586.534 427.28 586.38 427.403 586.191C427.649 585.812 427.992 585.292 428.38 584.725C429.175 583.562 430.086 582.306 430.722 581.632L428.539 579.573C427.72 580.441 426.688 581.884 425.902 583.033C425.499 583.623 425.143 584.163 424.888 584.555C424.761 584.751 424.658 584.911 424.587 585.022C424.551 585.078 424.523 585.122 424.504 585.151C424.495 585.166 424.487 585.178 424.482 585.186C424.48 585.19 424.478 585.193 424.477 585.195C424.476 585.196 424.475 585.197 424.475 585.198C424.475 585.198 424.475 585.198 424.474 585.198C424.474 585.199 424.474 585.199 424.474 585.199C424.474 585.199 424.474 585.199 425.743 585.999ZM430.722 581.632C431.37 580.944 432.604 579.868 433.833 579.096C434.451 578.708 434.995 578.444 435.414 578.322C435.88 578.186 435.892 578.307 435.74 578.213L437.322 575.664C436.382 575.081 435.32 575.224 434.573 575.442C433.777 575.674 432.967 576.098 432.238 576.555C430.774 577.474 429.346 578.718 428.539 579.573L430.722 581.632ZM435.74 578.213C435.626 578.142 435.552 578.066 435.512 578.017C435.472 577.969 435.455 577.936 435.454 577.934C435.453 577.931 435.46 577.946 435.474 577.984C435.487 578.022 435.503 578.075 435.52 578.145C435.592 578.446 435.649 578.905 435.679 579.524C435.739 580.749 435.683 582.349 435.577 584.003C435.473 585.648 435.323 587.295 435.205 588.609C435.147 589.261 435.096 589.84 435.064 590.286C435.047 590.509 435.035 590.712 435.029 590.883C435.024 591.018 435.018 591.239 435.044 591.439L438.018 591.05C438.029 591.13 438.021 591.142 438.027 590.991C438.031 590.874 438.04 590.713 438.056 590.504C438.086 590.087 438.135 589.534 438.194 588.876C438.31 587.571 438.464 585.884 438.571 584.194C438.678 582.514 438.744 580.777 438.676 579.378C438.642 578.685 438.573 578.01 438.436 577.443C438.368 577.159 438.271 576.852 438.124 576.565C437.983 576.29 437.739 575.923 437.322 575.664L435.74 578.213ZM435.044 591.439C435.088 591.778 435.307 592.488 436.102 592.767C436.699 592.977 437.207 592.765 437.338 592.709C437.683 592.561 438.01 592.3 438.196 592.149C438.742 591.707 439.115 591.344 439.698 590.902C439.954 590.707 440.182 590.554 440.378 590.447C440.475 590.395 440.552 590.36 440.611 590.339C440.67 590.316 440.697 590.313 440.695 590.313C440.675 590.316 440.514 590.324 440.344 590.205C440.199 590.103 440.221 590.027 440.284 590.221L443.136 589.288C442.948 588.714 442.624 588.139 442.064 587.747C441.48 587.338 440.837 587.267 440.294 587.34C439.342 587.468 438.459 588.076 437.884 588.512C437.313 588.946 436.588 589.591 436.307 589.818C436.081 590.002 436.063 589.991 436.159 589.95C436.165 589.947 436.572 589.753 437.096 589.937C437.817 590.19 437.99 590.831 438.018 591.05L435.044 591.439ZM440.284 590.221C440.596 591.174 440.333 592.176 439.749 593.151C439.168 594.121 438.39 594.847 438.115 595.075L440.026 597.387C440.468 597.022 441.512 596.046 442.322 594.693C443.13 593.346 443.828 591.406 443.136 589.288L440.284 590.221ZM438.115 595.075C437.657 595.453 436.448 596.101 433.42 596.962L434.24 599.848C437.306 598.976 439.049 598.195 440.026 597.387L438.115 595.075ZM429.603 601.763C430.164 601.029 430.515 600.458 430.734 600.044C430.844 599.836 430.921 599.667 430.974 599.537C431.001 599.472 431.021 599.416 431.037 599.369C431.046 599.346 431.052 599.325 431.058 599.307C431.061 599.298 431.064 599.289 431.066 599.281C431.067 599.277 431.069 599.273 431.07 599.269C431.07 599.268 431.071 599.266 431.071 599.264C431.072 599.263 431.072 599.262 431.072 599.261C431.072 599.261 431.072 599.26 431.072 599.26C431.073 599.259 431.073 599.259 429.63 598.847C428.188 598.435 428.188 598.434 428.188 598.434C428.189 598.433 428.189 598.433 428.189 598.432C428.189 598.432 428.189 598.431 428.19 598.43C428.19 598.428 428.191 598.427 428.191 598.425C428.192 598.422 428.193 598.419 428.194 598.416C428.195 598.411 428.197 598.406 428.198 598.402C428.201 598.394 428.202 598.388 428.203 598.386C428.205 598.38 428.203 598.386 428.196 598.403C428.183 598.437 428.148 598.516 428.082 598.641C427.95 598.892 427.691 599.324 427.219 599.943L429.603 601.763ZM429.63 598.847C431.125 598.715 431.125 598.715 431.125 598.715C431.125 598.715 431.125 598.715 431.125 598.715C431.125 598.715 431.125 598.715 431.125 598.715C431.125 598.715 431.125 598.714 431.125 598.714C431.124 598.712 431.124 598.711 431.124 598.708C431.124 598.703 431.123 598.696 431.122 598.687C431.121 598.669 431.118 598.641 431.115 598.607C431.109 598.537 431.1 598.437 431.09 598.316C431.069 598.074 431.041 597.748 431.014 597.412C430.986 597.075 430.958 596.731 430.938 596.453C430.927 596.313 430.919 596.194 430.914 596.102C430.907 595.996 430.907 595.963 430.907 595.973L427.907 595.973C427.907 596.22 427.972 597.03 428.024 597.659C428.052 597.999 428.08 598.329 428.101 598.574C428.112 598.696 428.12 598.797 428.127 598.867C428.13 598.903 428.132 598.93 428.134 598.949C428.135 598.959 428.135 598.966 428.136 598.971C428.136 598.973 428.136 598.975 428.136 598.976C428.136 598.977 428.136 598.978 428.136 598.978C428.136 598.978 428.136 598.978 428.136 598.978C428.136 598.978 428.136 598.978 428.136 598.978C428.136 598.978 428.136 598.978 429.63 598.847ZM433.42 596.962C432.005 597.365 431.093 597.449 430.583 597.451C430.329 597.452 430.175 597.432 430.108 597.421C430.074 597.415 430.062 597.411 430.07 597.413C430.073 597.414 430.082 597.417 430.095 597.421C430.102 597.423 430.11 597.425 430.119 597.429C430.123 597.43 430.128 597.432 430.133 597.433C430.135 597.434 430.138 597.435 430.141 597.436C430.142 597.437 430.143 597.437 430.145 597.438C430.145 597.438 430.146 597.438 430.147 597.438C430.148 597.439 430.149 597.439 429.63 598.847C429.112 600.254 429.113 600.255 429.114 600.255C429.115 600.255 429.116 600.256 429.116 600.256C429.118 600.256 429.119 600.257 429.121 600.258C429.124 600.259 429.127 600.26 429.13 600.261C429.136 600.263 429.142 600.265 429.149 600.267C429.162 600.272 429.177 600.277 429.193 600.282C429.225 600.292 429.261 600.303 429.302 600.313C429.385 600.335 429.486 600.358 429.609 600.379C429.853 600.42 430.178 600.452 430.593 600.451C431.421 600.448 432.609 600.312 434.24 599.848L433.42 596.962ZM430.907 595.973C430.907 595.711 430.855 595.169 430.817 594.8C430.796 594.592 430.776 594.395 430.76 594.251C430.752 594.179 430.746 594.119 430.741 594.078C430.739 594.057 430.737 594.041 430.736 594.029C430.735 594.024 430.735 594.019 430.734 594.016C430.734 594.015 430.734 594.014 430.734 594.013C430.734 594.013 430.734 594.012 430.734 594.012C430.734 594.012 430.734 594.012 430.734 594.012C430.734 594.012 430.734 594.012 430.734 594.012C430.734 594.012 430.734 594.012 429.243 594.179C427.752 594.346 427.752 594.346 427.752 594.346C427.752 594.346 427.752 594.346 427.752 594.346C427.752 594.346 427.752 594.346 427.752 594.346C427.753 594.346 427.753 594.346 427.753 594.347C427.753 594.347 427.753 594.348 427.753 594.349C427.753 594.352 427.754 594.356 427.754 594.361C427.755 594.371 427.757 594.387 427.759 594.407C427.764 594.446 427.77 594.503 427.777 594.573C427.792 594.713 427.813 594.902 427.832 595.1C427.853 595.3 427.872 595.504 427.886 595.676C427.894 595.762 427.899 595.835 427.903 595.893C427.907 595.957 427.907 595.979 427.907 595.973L430.907 595.973ZM429.243 594.179C430.502 594.994 430.502 594.994 430.502 594.994C430.502 594.994 430.502 594.994 430.502 594.994C430.502 594.994 430.503 594.993 430.503 594.993C430.503 594.992 430.504 594.992 430.504 594.991C430.506 594.989 430.508 594.986 430.51 594.982C430.515 594.975 430.521 594.964 430.53 594.951C430.547 594.925 430.571 594.886 430.602 594.838C430.664 594.74 430.752 594.601 430.857 594.43C431.068 594.089 431.352 593.617 431.646 593.099C431.937 592.585 432.247 592.007 432.503 591.458C432.743 590.942 432.996 590.328 433.089 589.777L430.131 589.276C430.11 589.402 430.009 589.707 429.784 590.191C429.574 590.64 429.307 591.142 429.036 591.621C428.766 592.097 428.502 592.534 428.304 592.854C428.206 593.014 428.125 593.142 428.069 593.231C428.041 593.275 428.019 593.309 428.005 593.331C427.997 593.343 427.992 593.351 427.989 593.356C427.987 593.359 427.986 593.361 427.985 593.362C427.985 593.363 427.984 593.363 427.984 593.363C427.984 593.363 427.984 593.363 427.984 593.363C427.984 593.363 427.984 593.363 427.984 593.363C427.984 593.363 427.984 593.363 429.243 594.179ZM433.089 589.777C433.201 589.119 433.343 588.285 433.399 587.579C433.427 587.233 433.441 586.837 433.396 586.471C433.374 586.288 433.329 586.048 433.227 585.802C433.126 585.562 432.919 585.197 432.503 584.943L430.941 587.504C430.626 587.312 430.498 587.055 430.459 586.96C430.417 586.86 430.415 586.804 430.419 586.836C430.427 586.902 430.431 587.062 430.409 587.341C430.365 587.887 430.249 588.581 430.131 589.276L433.089 589.777ZM430.71 593.864L429.557 588.488L426.623 589.117L427.776 594.493L430.71 593.864ZM428.09 588.802C429.386 588.047 429.386 588.047 429.386 588.047C429.386 588.047 429.386 588.047 429.386 588.047C429.386 588.047 429.386 588.047 429.386 588.046C429.385 588.046 429.385 588.046 429.385 588.045C429.384 588.044 429.384 588.043 429.383 588.042C429.381 588.039 429.379 588.036 429.377 588.032C429.372 588.024 429.366 588.014 429.358 588.001C429.343 587.975 429.321 587.939 429.294 587.894C429.239 587.806 429.161 587.682 429.064 587.535C428.872 587.244 428.595 586.848 428.265 586.447L425.946 588.35C426.19 588.647 426.406 588.954 426.562 589.19C426.639 589.307 426.7 589.403 426.74 589.468C426.76 589.501 426.775 589.525 426.784 589.541C426.789 589.548 426.792 589.554 426.793 589.557C426.794 589.558 426.795 589.559 426.795 589.559C426.795 589.559 426.795 589.559 426.795 589.559C426.794 589.558 426.794 589.558 426.794 589.558C426.794 589.558 426.794 589.558 426.794 589.558C426.794 589.558 426.794 589.558 426.794 589.557C426.794 589.557 426.794 589.557 428.09 588.802ZM432.503 584.943C432.029 584.654 431.563 584.702 431.384 584.73C431.167 584.764 430.985 584.832 430.866 584.882C430.622 584.985 430.379 585.129 430.175 585.259C429.752 585.53 429.265 585.896 428.826 586.242C428.379 586.594 427.949 586.952 427.632 587.219C427.473 587.353 427.342 587.466 427.25 587.545C427.204 587.585 427.167 587.617 427.142 587.639C427.13 587.65 427.12 587.658 427.113 587.664C427.11 587.667 427.107 587.669 427.105 587.671C427.104 587.672 427.103 587.672 427.103 587.673C427.103 587.673 427.102 587.673 427.102 587.673C427.102 587.674 427.102 587.674 427.102 587.674C427.102 587.674 427.102 587.674 428.09 588.802C429.078 589.931 429.078 589.931 429.078 589.931C429.078 589.931 429.078 589.931 429.078 589.931C429.078 589.931 429.078 589.931 429.078 589.931C429.078 589.931 429.079 589.93 429.079 589.93C429.081 589.929 429.083 589.927 429.085 589.924C429.091 589.92 429.099 589.912 429.11 589.903C429.133 589.883 429.166 589.854 429.209 589.817C429.295 589.743 429.419 589.637 429.569 589.51C429.87 589.256 430.272 588.922 430.682 588.599C431.101 588.269 431.496 587.976 431.792 587.786C431.864 587.74 431.922 587.705 431.967 587.68C432.015 587.653 432.035 587.645 432.033 587.646C432.031 587.646 432.016 587.653 431.989 587.661C431.964 587.669 431.914 587.684 431.845 587.694C431.757 587.708 431.364 587.762 430.941 587.504L432.503 584.943ZM408.665 592.107C406.346 592.136 405.011 594.354 405.136 596.443L408.131 596.263C408.105 595.825 408.231 595.503 408.371 595.319C408.509 595.138 408.635 595.107 408.703 595.106L408.665 592.107ZM405.136 596.443C405.197 597.456 405.527 598.438 406.294 599.127C407.077 599.83 408.072 600.008 408.998 599.894L408.631 596.916C408.474 596.936 408.382 596.922 408.339 596.911C408.319 596.906 408.308 596.901 408.305 596.899C408.301 596.897 408.3 596.896 408.298 596.894C408.297 596.893 408.266 596.867 408.229 596.776C408.19 596.68 408.146 596.517 408.131 596.263L405.136 596.443ZM408.998 599.894C411.203 599.622 412.271 597.675 412.251 595.87L409.251 595.904C409.255 596.265 409.154 596.527 409.042 596.679C408.944 596.812 408.82 596.893 408.631 596.916L408.998 599.894ZM412.251 595.87C412.23 593.973 410.881 592.078 408.665 592.107L408.703 595.106C408.838 595.105 408.943 595.152 409.037 595.258C409.142 595.376 409.248 595.593 409.251 595.904L412.251 595.87ZM422.27 589.528C421.364 589.528 420.367 589.917 419.627 590.643C418.836 591.419 418.352 592.569 418.535 593.961L421.509 593.571C421.453 593.142 421.588 592.922 421.728 592.785C421.919 592.598 422.166 592.528 422.27 592.528L422.27 589.528ZM418.535 593.961C418.661 594.919 418.911 595.954 419.715 596.647C420.523 597.342 421.546 597.387 422.27 597.387V594.387C421.945 594.387 421.764 594.368 421.662 594.346C421.578 594.328 421.613 594.321 421.672 594.373C421.73 594.422 421.716 594.444 421.672 594.329C421.622 594.199 421.562 593.969 421.509 593.571L418.535 593.961ZM422.27 597.387C423.052 597.387 424.207 597.293 425.097 596.539C426.106 595.684 426.343 594.391 426.143 593L423.174 593.426C423.235 593.856 423.204 594.088 423.176 594.191C423.17 594.216 423.164 594.232 423.16 594.242C423.155 594.251 423.153 594.256 423.152 594.256C423.152 594.257 423.153 594.256 423.155 594.254C423.155 594.253 423.156 594.252 423.157 594.251C423.158 594.25 423.158 594.25 423.158 594.25C423.158 594.25 423.157 594.251 423.156 594.251C423.155 594.252 423.153 594.254 423.15 594.256C423.143 594.26 423.133 594.266 423.117 594.273C423.084 594.288 423.032 594.307 422.955 594.326C422.792 594.364 422.568 594.387 422.27 594.387V597.387ZM426.143 593C425.955 591.687 425.494 590.604 424.509 589.998C423.641 589.464 422.632 589.528 422.27 589.528L422.27 592.528C422.566 592.528 422.713 592.527 422.85 592.543C422.964 592.556 422.968 592.573 422.937 592.554C422.813 592.477 423.039 592.486 423.174 593.426L426.143 593ZM412.921 592.943C413.806 594.839 413.918 597.367 413.507 599.147L416.43 599.822C416.966 597.497 416.851 594.271 415.639 591.674L412.921 592.943ZM414.946 594.179C414.946 595.115 415.036 596.329 415.246 597.503C415.449 598.634 415.795 599.917 416.412 600.856L418.919 599.208C418.647 598.793 418.384 598.004 418.199 596.974C418.022 595.987 417.946 594.951 417.946 594.179L414.946 594.179ZM421.621 583.73C417.758 584.074 416.061 587.552 415.523 589.197L418.374 590.13C418.84 588.704 419.955 586.891 421.888 586.718L421.621 583.73ZM416.412 600.856C417.046 601.82 418.168 602.686 419.3 603.314C420.451 603.953 421.84 604.471 423.15 604.568L423.372 601.577C422.63 601.522 421.666 601.196 420.755 600.691C419.825 600.175 419.175 599.597 418.919 599.208L416.412 600.856ZM415.523 589.197C414.937 590.99 414.946 592.489 414.946 594.179L417.946 594.179C417.946 592.452 417.956 591.408 418.374 590.13L415.523 589.197ZM362.589 826.738C362.895 827.574 363.06 828.075 363.146 828.366C363.189 828.513 363.204 828.581 363.207 828.598C363.209 828.607 363.204 828.582 363.2 828.536C363.197 828.505 363.186 828.373 363.218 828.198L366.17 828.736C366.23 828.406 366.168 828.109 366.153 828.028C366.124 827.88 366.08 827.711 366.024 827.521C365.912 827.138 365.72 826.566 365.406 825.707L362.589 826.738ZM364.415 829.941C365.296 830.108 374.988 831.935 384.88 833.387C389.821 834.112 394.843 834.749 398.851 835.035C400.85 835.177 402.637 835.236 404.053 835.167C404.759 835.133 405.413 835.065 405.972 834.947C406.49 834.837 407.113 834.648 407.601 834.252L405.711 831.923C405.788 831.86 405.737 831.93 405.351 832.012C405.008 832.084 404.529 832.141 403.907 832.171C402.667 832.231 401.016 832.182 399.064 832.042C395.169 831.764 390.234 831.141 385.315 830.419C375.487 828.976 365.843 827.158 364.973 826.994L364.415 829.941ZM364.63 828.455C364.348 829.928 364.348 829.928 364.348 829.928C364.348 829.928 364.348 829.928 364.348 829.928C364.348 829.928 364.348 829.928 364.348 829.928C364.348 829.928 364.348 829.928 364.348 829.928C364.348 829.928 364.348 829.928 364.348 829.928C364.348 829.928 364.348 829.929 364.348 829.929C364.349 829.929 364.349 829.929 364.349 829.929C364.35 829.929 364.351 829.929 364.353 829.929C364.355 829.93 364.36 829.931 364.365 829.932C364.376 829.934 364.393 829.937 364.415 829.941L364.973 826.994C364.952 826.99 364.937 826.987 364.926 826.985C364.921 826.984 364.917 826.983 364.915 826.982C364.913 826.982 364.912 826.982 364.912 826.982C364.912 826.982 364.911 826.982 364.911 826.982C364.911 826.982 364.911 826.982 364.911 826.982C364.911 826.982 364.911 826.982 364.911 826.982C364.911 826.982 364.911 826.982 364.911 826.982C364.911 826.982 364.911 826.982 364.911 826.982C364.911 826.982 364.911 826.982 364.911 826.982C364.911 826.982 364.911 826.982 364.63 828.455ZM363.218 828.198C363.237 828.093 363.287 827.883 363.437 827.657C363.606 827.402 363.894 827.144 364.305 827.038C364.683 826.941 364.998 827.015 365.173 827.077C365.348 827.14 365.472 827.222 365.535 827.267C365.661 827.358 365.74 827.447 365.763 827.474C365.781 827.494 365.796 827.512 365.808 827.527C365.814 827.534 365.819 827.542 365.824 827.548C365.827 827.552 365.829 827.555 365.832 827.558C365.833 827.56 365.834 827.561 365.835 827.563C365.836 827.564 365.837 827.565 365.837 827.565C365.837 827.566 365.838 827.566 365.838 827.566C365.838 827.567 365.838 827.567 365.838 827.567C365.839 827.567 365.839 827.568 364.63 828.455C363.42 829.343 363.42 829.343 363.421 829.343C363.421 829.343 363.421 829.344 363.421 829.344C363.421 829.344 363.422 829.345 363.422 829.345C363.423 829.346 363.423 829.347 363.424 829.347C363.425 829.349 363.426 829.351 363.428 829.352C363.43 829.356 363.433 829.36 363.436 829.364C363.442 829.371 363.448 829.38 363.456 829.389C363.47 829.407 363.489 829.431 363.513 829.457C363.547 829.496 363.64 829.599 363.78 829.7C363.823 829.732 364.338 830.128 365.053 829.944C365.955 829.711 366.141 828.894 366.17 828.736L363.218 828.198ZM258.706 528.193C257.818 527.251 256.974 526.369 256.175 525.556L254.035 527.657C254.814 528.452 255.644 529.319 256.524 530.251L258.706 528.193ZM256.175 525.556C254.555 523.905 253.099 522.513 251.829 521.484C250.611 520.496 249.373 519.679 248.21 519.434C247.582 519.302 246.87 519.313 246.196 519.661C245.525 520.007 245.093 520.582 244.821 521.19C244.313 522.327 244.203 523.943 244.294 525.861L247.291 525.718C247.202 523.852 247.362 522.858 247.56 522.415C247.642 522.232 247.672 522.275 247.571 522.327C247.468 522.38 247.435 522.336 247.591 522.369C247.996 522.455 248.752 522.851 249.94 523.814C251.076 524.735 252.437 526.03 254.035 527.657L256.175 525.556ZM389.16 545.87C393.129 541.663 396.835 535.689 399.437 531.353L396.865 529.809C394.247 534.171 390.693 539.874 386.978 543.811L389.16 545.87ZM399.437 531.353C400.455 529.657 401.291 528.232 401.937 527.202C402.261 526.686 402.512 526.31 402.694 526.068C402.738 526.01 402.774 525.965 402.802 525.932C402.815 525.916 402.826 525.904 402.834 525.895C402.842 525.886 402.846 525.882 402.846 525.882C402.846 525.883 402.844 525.884 402.841 525.887C402.838 525.89 402.834 525.894 402.827 525.899C402.815 525.909 402.793 525.928 402.76 525.951C402.712 525.984 402.554 526.089 402.308 526.141L401.686 523.206C401.386 523.27 401.166 523.405 401.05 523.486C400.92 523.576 400.814 523.672 400.735 523.75C400.578 523.906 400.43 524.088 400.3 524.261C400.035 524.611 399.728 525.078 399.396 525.608C398.729 526.671 397.857 528.155 396.865 529.809L399.437 531.353ZM255.063 528.106L398.109 532.08L398.192 529.082L255.147 525.107L255.063 528.106Z" fill="black"/>
</svg>
