<svg width="700" height="900" viewBox="0 0 700 900" fill="none" xmlns="http://www.w3.org/2000/svg">
<path d="M344.912 370.196C330.787 370.951 307.56 379.533 309.059 394.96C310.559 410.387 337.059 416.046 346.08 415.578C358.894 415.455 383.903 409.624 384.765 391.241C385.627 372.858 359.038 369.44 344.912 370.196Z" fill="white"/>
<path d="M344.402 437.055C342.058 450.945 320.156 461.235 303.67 466.567C302.42 466.971 301.085 467.342 299.684 467.682C299.684 467.682 298.172 495.215 287.756 496.031C277.34 496.847 273.109 471.027 273.109 471.027C263.386 471.553 255.745 471.443 255.745 471.443C255.745 471.443 273.579 502.633 284.186 512.099C294.793 521.566 311.709 528.508 326.5 528.637C341.291 528.766 367.445 530.006 379.192 526.584C390.94 523.162 403.143 519.513 420.251 506.283C437.359 493.052 448.536 471.13 448.536 471.13C448.536 471.13 439.783 471.397 430.172 471.297C430.172 471.297 421.768 495.083 413.513 494.752C405.259 494.42 400.403 468.718 400.403 468.718C389.482 466.773 377.664 463.761 371.299 460.494C361.806 455.622 350.17 449.875 344.402 437.055Z" fill="white"/>
<path d="M416.922 469.918C412.742 469.573 405.768 469.673 400.403 468.718C400.403 468.718 405.259 494.42 413.513 494.752C421.768 495.083 430.172 471.297 430.172 471.297C424.983 471.244 421.37 470.285 416.922 469.918Z" fill="white"/>
<path d="M273.109 471.027C273.109 471.027 277.34 496.847 287.756 496.031C298.172 495.215 299.684 467.682 299.684 467.682C291.712 469.618 281.614 470.566 273.109 471.027Z" fill="white"/>
<path d="M346.08 415.578L346.032 410.578L345.927 410.579L345.821 410.585L346.08 415.578ZM303.67 466.567L302.131 461.809L302.131 461.809L303.67 466.567ZM212.041 438.943C211.717 436.201 209.23 434.241 206.488 434.565C203.746 434.89 201.786 437.376 202.111 440.118L212.041 438.943ZM371.299 460.494L373.582 456.046L371.299 460.494ZM416.922 469.918L417.333 464.935L416.922 469.918ZM495.854 434.935C496.066 432.181 494.005 429.778 491.251 429.567C488.498 429.356 486.095 431.417 485.884 434.17L495.854 434.935ZM273.109 471.027L272.839 466.034L273.109 471.027ZM400.403 468.718L401.28 463.795L400.403 468.718ZM344.645 365.203C336.899 365.617 326.797 368.135 318.669 372.722C310.735 377.2 303.039 384.702 304.083 395.444L314.036 394.477C313.581 389.792 316.749 385.289 323.584 381.431C330.227 377.682 338.8 375.53 345.18 375.189L344.645 365.203ZM304.083 395.444C305.122 406.14 314.611 412.447 322.838 415.85C331.37 419.38 340.99 420.849 346.339 420.571L345.821 410.585C342.149 410.775 334.009 409.649 326.66 406.61C319.006 403.443 314.496 399.207 314.036 394.477L304.083 395.444ZM346.128 420.578C353.086 420.511 363.288 418.923 372.045 414.776C380.774 410.641 389.204 403.333 389.759 391.475L379.77 391.007C379.464 397.532 374.959 402.331 367.764 405.738C360.598 409.133 351.889 410.522 346.032 410.578L346.128 420.578ZM389.759 391.475C390.038 385.523 388.049 380.591 384.612 376.755C381.286 373.043 376.787 370.543 372.186 368.85C363.024 365.476 352.106 364.804 344.645 365.203L345.18 375.189C351.845 374.832 361.283 375.491 368.731 378.234C372.436 379.598 375.305 381.353 377.164 383.428C378.912 385.379 379.922 387.768 379.77 391.007L389.759 391.475ZM341.095 415.189L339.417 436.665L349.387 437.444L351.065 415.968L341.095 415.189ZM339.472 436.223C338.675 440.947 334.251 445.975 326.658 450.8C319.32 455.463 310.159 459.213 302.131 461.809L305.208 471.324C313.666 468.589 323.7 464.528 332.021 459.241C340.086 454.115 347.786 447.053 349.332 437.887L339.472 436.223ZM255.745 471.443C256.187 466.462 256.187 466.462 256.187 466.462C256.187 466.462 256.187 466.462 256.187 466.462C256.187 466.462 256.186 466.462 256.186 466.462C256.184 466.462 256.181 466.462 256.177 466.462C256.17 466.461 256.158 466.46 256.141 466.458C256.109 466.455 256.059 466.451 255.994 466.445C255.863 466.433 255.667 466.415 255.415 466.391C254.911 466.343 254.18 466.272 253.282 466.179C251.484 465.994 249.025 465.725 246.375 465.387C240.858 464.684 235.199 463.766 232.578 462.851L229.282 472.292C233.076 473.617 239.825 474.634 245.112 475.307C247.863 475.657 250.405 475.936 252.258 476.127C253.185 476.222 253.942 476.296 254.469 476.346C254.733 476.371 254.939 476.39 255.081 476.403C255.151 476.41 255.206 476.415 255.244 476.418C255.262 476.42 255.277 476.421 255.287 476.422C255.292 476.422 255.296 476.423 255.299 476.423C255.3 476.423 255.301 476.423 255.302 476.423C255.302 476.423 255.303 476.423 255.303 476.423C255.303 476.423 255.304 476.423 255.745 471.443ZM232.578 462.851C228.962 461.589 224.726 460.507 220.746 457.282C217.021 454.264 213.237 449.044 212.041 438.943L202.111 440.118C203.584 452.566 208.52 460.247 214.451 465.052C220.127 469.651 226.484 471.315 229.282 472.292L232.578 462.851ZM339.842 439.106C346.436 453.762 359.771 460.198 369.016 464.943L373.582 456.046C363.842 451.047 353.904 445.989 348.962 435.003L339.842 439.106ZM479.811 465.671C487.356 460.68 491.289 452.701 493.346 446.539C494.396 443.391 495.017 440.539 495.377 438.469C495.558 437.43 495.675 436.577 495.748 435.971C495.784 435.667 495.809 435.424 495.826 435.249C495.835 435.162 495.841 435.091 495.846 435.038C495.848 435.012 495.85 434.99 495.851 434.973C495.852 434.964 495.853 434.957 495.853 434.95C495.854 434.947 495.854 434.944 495.854 434.942C495.854 434.94 495.854 434.939 495.854 434.938C495.854 434.936 495.854 434.935 490.869 434.553C485.884 434.17 485.884 434.169 485.884 434.168C485.884 434.167 485.884 434.166 485.884 434.165C485.884 434.164 485.884 434.163 485.884 434.162C485.885 434.16 485.885 434.159 485.885 434.159C485.885 434.16 485.884 434.165 485.883 434.175C485.882 434.194 485.878 434.229 485.873 434.281C485.863 434.385 485.846 434.553 485.819 434.779C485.765 435.23 485.672 435.907 485.525 436.755C485.229 438.458 484.716 440.807 483.86 443.373C482.103 448.638 479.128 454.133 474.294 457.331L479.811 465.671ZM448.536 471.13C448.98 476.11 448.981 476.11 448.983 476.11C448.983 476.11 448.984 476.11 448.985 476.11C448.987 476.11 448.989 476.109 448.992 476.109C448.997 476.109 449.002 476.108 449.009 476.108C449.023 476.106 449.04 476.105 449.062 476.103C449.104 476.098 449.162 476.093 449.235 476.085C449.38 476.07 449.585 476.048 449.844 476.017C450.362 475.955 451.098 475.86 452.012 475.719C453.839 475.437 456.393 474.974 459.355 474.239C465.22 472.785 472.959 470.204 479.811 465.671L474.294 457.331C468.767 460.986 462.247 463.22 456.949 464.533C454.329 465.182 452.075 465.591 450.489 465.835C449.697 465.957 449.076 466.038 448.663 466.087C448.456 466.112 448.302 466.128 448.205 466.138C448.157 466.143 448.123 466.147 448.103 466.149C448.094 466.149 448.088 466.15 448.086 466.15C448.085 466.15 448.085 466.15 448.086 466.15C448.086 466.15 448.087 466.15 448.088 466.15C448.088 466.15 448.089 466.15 448.089 466.15C448.09 466.15 448.091 466.15 448.536 471.13ZM448.536 471.13C444.081 468.859 444.082 468.858 444.082 468.858C444.082 468.857 444.082 468.857 444.082 468.857C444.083 468.856 444.083 468.856 444.083 468.856C444.082 468.857 444.081 468.859 444.08 468.862C444.077 468.868 444.071 468.879 444.062 468.896C444.045 468.929 444.018 468.982 443.98 469.054C443.903 469.199 443.785 469.422 443.627 469.715C443.309 470.3 442.83 471.164 442.2 472.249C440.937 474.42 439.075 477.461 436.696 480.901C431.902 487.836 425.171 496.158 417.193 502.327L423.31 510.238C432.44 503.177 439.851 493.923 444.922 486.588C447.476 482.895 449.477 479.628 450.845 477.275C451.529 476.098 452.057 475.146 452.418 474.481C452.598 474.148 452.737 473.887 452.833 473.704C452.881 473.613 452.918 473.542 452.944 473.491C452.957 473.465 452.968 473.445 452.975 473.43C452.979 473.423 452.982 473.416 452.985 473.411C452.986 473.409 452.987 473.407 452.988 473.405C452.989 473.404 452.989 473.403 452.989 473.403C452.99 473.402 452.99 473.401 448.536 471.13ZM417.193 502.327C400.806 514.999 389.294 518.434 377.794 521.783L380.591 531.384C392.585 527.891 405.481 524.026 423.31 510.238L417.193 502.327ZM377.794 521.783C372.673 523.275 363.86 523.84 353.936 523.942C344.119 524.043 334.14 523.703 326.543 523.637L326.456 533.637C333.651 533.699 344.144 534.044 354.039 533.942C363.826 533.841 373.964 533.314 380.591 531.384L377.794 521.783ZM326.543 523.637C313.027 523.519 297.264 517.069 287.515 508.369L280.857 515.83C292.322 526.062 310.391 533.497 326.456 533.637L326.543 523.637ZM287.515 508.369C282.804 504.164 276.041 494.595 270.192 485.514C267.338 481.082 264.807 476.937 262.989 473.897C262.08 472.379 261.351 471.139 260.851 470.282C260.601 469.853 260.408 469.52 260.279 469.296C260.214 469.183 260.165 469.098 260.132 469.042C260.116 469.014 260.104 468.993 260.096 468.979C260.093 468.973 260.09 468.968 260.088 468.965C260.087 468.963 260.087 468.962 260.086 468.961C260.086 468.961 260.086 468.961 260.086 468.961C260.086 468.961 260.086 468.961 255.745 471.443C251.405 473.925 251.405 473.925 251.405 473.926C251.406 473.926 251.406 473.927 251.406 473.927C251.407 473.928 251.408 473.93 251.409 473.933C251.412 473.937 251.416 473.943 251.42 473.952C251.43 473.968 251.443 473.992 251.461 474.023C251.497 474.085 251.55 474.177 251.618 474.295C251.755 474.532 251.955 474.879 252.214 475.321C252.73 476.206 253.478 477.478 254.407 479.031C256.264 482.136 258.855 486.379 261.785 490.929C267.504 499.809 274.962 510.568 280.857 515.83L287.515 508.369ZM272.839 466.034C268.063 466.293 263.794 466.395 260.72 466.433C259.184 466.451 257.95 466.454 257.104 466.452C256.68 466.451 256.354 466.449 256.136 466.447C256.028 466.446 255.946 466.445 255.892 466.444C255.865 466.444 255.846 466.444 255.833 466.444C255.827 466.443 255.822 466.443 255.82 466.443C255.819 466.443 255.818 466.443 255.817 466.443C255.817 466.443 255.817 466.443 255.817 466.443C255.817 466.443 255.817 466.443 255.817 466.443C255.818 466.443 255.818 466.443 255.745 471.443C255.673 476.442 255.673 476.442 255.674 476.442C255.674 476.442 255.674 476.442 255.674 476.442C255.675 476.442 255.675 476.442 255.676 476.442C255.678 476.442 255.68 476.442 255.682 476.442C255.687 476.443 255.694 476.443 255.702 476.443C255.719 476.443 255.744 476.443 255.775 476.444C255.838 476.444 255.93 476.445 256.049 476.446C256.287 476.448 256.634 476.451 257.079 476.452C257.969 476.454 259.252 476.451 260.842 476.432C264.019 476.393 268.432 476.287 273.38 476.02L272.839 466.034ZM273.109 471.027C268.175 471.835 268.175 471.836 268.175 471.837C268.175 471.838 268.176 471.839 268.176 471.84C268.176 471.842 268.177 471.845 268.177 471.848C268.178 471.853 268.179 471.861 268.181 471.87C268.184 471.887 268.188 471.911 268.193 471.941C268.203 472.001 268.217 472.084 268.236 472.19C268.274 472.402 268.329 472.704 268.402 473.083C268.548 473.839 268.767 474.906 269.063 476.18C269.65 478.71 270.56 482.133 271.839 485.576C273.093 488.951 274.823 492.687 277.182 495.609C279.522 498.507 283.177 501.405 288.146 501.016L287.365 491.046C287.126 491.065 286.347 491.041 284.964 489.328C283.6 487.638 282.32 485.072 281.214 482.094C280.133 479.184 279.334 476.203 278.803 473.917C278.54 472.783 278.347 471.839 278.221 471.187C278.158 470.861 278.112 470.609 278.082 470.443C278.068 470.36 278.057 470.299 278.051 470.261C278.047 470.242 278.045 470.229 278.044 470.221C278.043 470.218 278.043 470.216 278.043 470.215C278.043 470.215 278.043 470.215 278.043 470.216C278.043 470.216 278.043 470.217 278.043 470.217C278.043 470.217 278.043 470.218 273.109 471.027ZM302.131 461.809C301.019 462.169 299.806 462.507 298.504 462.823L300.864 472.541C302.364 472.176 303.821 471.773 305.208 471.324L302.131 461.809ZM298.504 462.823C290.992 464.647 281.267 465.578 272.839 466.034L273.38 476.02C281.961 475.555 292.432 474.589 300.864 472.541L298.504 462.823ZM288.146 501.016C293.156 500.623 296.381 497.052 298.309 493.817C300.293 490.487 301.601 486.404 302.487 482.72C303.389 478.969 303.932 475.291 304.251 472.58C304.411 471.216 304.516 470.078 304.582 469.274C304.615 468.872 304.638 468.552 304.653 468.328C304.66 468.216 304.666 468.128 304.67 468.065C304.672 468.034 304.673 468.009 304.674 467.991C304.675 467.982 304.675 467.974 304.675 467.968C304.676 467.965 304.676 467.963 304.676 467.961C304.676 467.96 304.676 467.959 304.676 467.958C304.676 467.957 304.676 467.956 299.684 467.682C294.691 467.408 294.691 467.407 294.691 467.406C294.691 467.406 294.691 467.405 294.691 467.405C294.691 467.405 294.691 467.405 294.691 467.405C294.691 467.406 294.691 467.409 294.691 467.413C294.69 467.421 294.69 467.436 294.688 467.457C294.686 467.498 294.682 467.565 294.676 467.655C294.663 467.835 294.644 468.107 294.615 468.459C294.557 469.164 294.463 470.183 294.319 471.414C294.028 473.89 293.542 477.147 292.764 480.381C291.971 483.682 290.948 486.635 289.719 488.698C288.433 490.854 287.564 491.031 287.365 491.046L288.146 501.016ZM369.016 464.943C376.101 468.579 388.568 471.689 399.526 473.64L401.28 463.795C390.396 461.857 379.227 458.943 373.582 456.046L369.016 464.943ZM399.526 473.64C402.547 474.178 405.904 474.402 408.873 474.542C412.016 474.689 414.532 474.738 416.511 474.901L417.333 464.935C415.132 464.753 412.072 464.68 409.341 464.552C406.437 464.416 403.624 464.213 401.28 463.795L399.526 473.64ZM400.403 468.718C395.49 469.646 395.49 469.647 395.49 469.648C395.49 469.648 395.49 469.649 395.491 469.65C395.491 469.652 395.491 469.654 395.492 469.657C395.493 469.662 395.494 469.668 395.496 469.677C395.499 469.693 395.503 469.716 395.509 469.744C395.52 469.801 395.536 469.882 395.556 469.985C395.597 470.191 395.657 470.486 395.736 470.858C395.893 471.602 396.126 472.654 396.431 473.915C397.038 476.423 397.946 479.814 399.139 483.251C400.313 486.631 401.854 490.327 403.805 493.292C405.56 495.959 408.643 499.56 413.312 499.748L413.714 489.756C414.256 489.778 413.637 490.041 412.159 487.796C410.878 485.849 409.658 483.057 408.586 479.97C407.534 476.94 406.712 473.884 406.15 471.563C405.871 470.409 405.66 469.451 405.519 468.787C405.449 468.456 405.397 468.199 405.363 468.028C405.346 467.943 405.333 467.879 405.325 467.839C405.322 467.819 405.319 467.805 405.317 467.796C405.316 467.792 405.316 467.789 405.316 467.788C405.316 467.788 405.316 467.788 405.316 467.788C405.316 467.788 405.316 467.788 405.316 467.788C405.316 467.789 405.316 467.79 400.403 468.718ZM416.511 474.901C418.551 475.069 420.323 475.364 422.582 475.678C424.779 475.982 427.218 476.267 430.12 476.297L430.223 466.298C427.937 466.274 425.975 466.053 423.956 465.773C421.999 465.501 419.74 465.134 417.333 464.935L416.511 474.901ZM430.12 476.297C434.983 476.347 439.621 476.305 443.038 476.25C444.748 476.223 446.156 476.192 447.139 476.169C447.63 476.157 448.015 476.147 448.279 476.139C448.41 476.136 448.511 476.133 448.58 476.131C448.615 476.13 448.641 476.129 448.659 476.128C448.668 476.128 448.675 476.128 448.68 476.128C448.682 476.128 448.684 476.128 448.686 476.128C448.686 476.128 448.687 476.128 448.687 476.128C448.688 476.128 448.688 476.128 448.688 476.128C448.688 476.128 448.688 476.128 448.536 471.13C448.383 466.132 448.383 466.132 448.383 466.132C448.383 466.132 448.383 466.132 448.383 466.132C448.383 466.132 448.383 466.132 448.383 466.132C448.382 466.132 448.381 466.132 448.379 466.132C448.375 466.133 448.369 466.133 448.362 466.133C448.346 466.133 448.322 466.134 448.29 466.135C448.226 466.137 448.13 466.14 448.003 466.143C447.75 466.15 447.377 466.16 446.897 466.172C445.938 466.195 444.557 466.225 442.878 466.252C439.516 466.305 434.972 466.347 430.223 466.298L430.12 476.297ZM413.312 499.748C417.767 499.927 421.199 496.943 423.329 494.556C425.669 491.935 427.713 488.586 429.355 485.492C431.022 482.35 432.398 479.229 433.352 476.914C433.832 475.75 434.21 474.777 434.471 474.089C434.601 473.744 434.702 473.47 434.772 473.279C434.807 473.183 434.834 473.108 434.853 473.055C434.863 473.028 434.87 473.007 434.876 472.992C434.878 472.984 434.881 472.978 434.882 472.973C434.883 472.971 434.884 472.969 434.885 472.967C434.885 472.966 434.885 472.965 434.885 472.965C434.886 472.964 434.886 472.963 430.172 471.297C425.457 469.632 425.457 469.631 425.458 469.631C425.458 469.63 425.458 469.63 425.458 469.63C425.458 469.63 425.458 469.63 425.458 469.63C425.457 469.631 425.457 469.634 425.455 469.637C425.453 469.645 425.448 469.658 425.441 469.676C425.428 469.713 425.407 469.771 425.378 469.85C425.321 470.007 425.234 470.244 425.118 470.549C424.887 471.16 424.544 472.042 424.107 473.104C423.227 475.238 421.987 478.043 420.521 480.806C419.03 483.616 417.426 486.153 415.868 487.898C414.101 489.878 413.387 489.743 413.714 489.756L413.312 499.748Z" fill="white"/>
</svg>
