<svg width="700" height="900" viewBox="0 0 700 900" fill="none" xmlns="http://www.w3.org/2000/svg">
<path d="M346.669 438.969C337.618 438.876 329.405 438.442 321.953 437.722C321.953 437.722 297.181 461.333 294.326 505.587C294 510.629 294.206 515.362 294.858 519.79C302.573 539.236 326.304 546.901 334.559 548.227C342.813 549.554 366.397 548.08 377.305 534.666C388.212 521.253 394.729 513.507 394.729 496.863C394.729 480.22 393.54 463.18 385.677 444.322C382.006 439.843 379.353 437.722 379.353 437.722C369.795 438.64 358.956 439.096 346.669 438.969Z" fill="white"/>
<path d="M350.952 569.825C372.364 569.35 409.479 553.171 407.1 505.587C405.49 473.391 393.357 453.695 385.677 444.322C393.54 463.18 394.729 480.22 394.729 496.863C394.729 513.507 388.212 521.253 377.305 534.666C366.397 548.08 342.813 549.554 334.559 548.227C326.304 546.901 302.573 539.236 294.858 519.79C295.755 525.88 297.495 531.394 299.857 536.343C310.855 559.381 335.334 570.172 350.952 569.825Z" fill="white"/>
<path d="M350.952 330C297.061 329.999 273.375 348.02 261.492 364.615C271.485 375.206 319.071 407.087 346.669 408.039C374.267 408.991 428.629 374.986 437.554 364.615C425.857 346.651 402.661 330.001 350.952 330Z" fill="white"/>
<path d="M261.492 364.615C254.909 373.81 250.381 382.566 250.074 387.578C249.298 400.257 253.405 431.097 321.953 437.722C329.405 438.442 337.618 438.876 346.669 438.969C358.956 439.096 369.795 438.64 379.353 437.722C441.61 431.742 449.52 406.155 448.975 394.24C448.734 388.982 444.801 375.746 437.554 364.615C428.629 374.986 374.267 408.991 346.669 408.039C319.071 407.087 271.485 375.206 261.492 364.615Z" fill="white"/>
<path d="M261.492 364.615C273.375 348.02 297.061 329.999 350.952 330C402.661 330.001 425.858 346.651 437.554 364.615M261.492 364.615C254.909 373.81 250.381 382.566 250.074 387.578C249.298 400.257 253.405 431.097 321.953 437.722M261.492 364.615C271.485 375.206 319.071 407.087 346.669 408.039C374.267 408.991 428.629 374.986 437.554 364.615M437.554 364.615C444.801 375.746 448.734 388.982 448.975 394.24C449.52 406.155 441.61 431.742 379.353 437.722M321.953 437.722C329.405 438.442 337.618 438.876 346.669 438.969C358.956 439.096 369.795 438.64 379.353 437.722M321.953 437.722C321.953 437.722 297.181 461.333 294.326 505.587C291.471 549.84 329.54 570.301 350.952 569.825C372.364 569.35 409.479 553.171 407.1 505.587C404.721 458.003 379.353 437.722 379.353 437.722" stroke="white" stroke-width="3"/>
</svg>
