<svg width="700" height="900" viewBox="0 0 700 900" fill="none" xmlns="http://www.w3.org/2000/svg">
<path d="M345.785 387.01C331.146 386.678 322.68 394.463 323.74 398.715C324.231 400.684 327.48 406.702 332.103 411.679C336.725 416.655 347.462 424.037 347.462 424.037C347.462 424.037 355.222 418.579 360.947 412.394C364.918 408.102 367.116 404.985 367.603 399.918C368.09 394.851 360.425 387.343 345.785 387.01Z" fill="white"/>
<path d="M347.462 424.037C347.462 424.037 328.074 439.972 317.732 443.69C307.39 447.408 293.525 445.992 293.525 445.992C296.286 461.643 298.371 469.552 303.503 481.888C303.503 481.888 332.607 468.898 349.3 469.682C365.993 470.465 396.627 479.873 396.627 479.873C396.627 479.873 399.322 471.667 401.966 460.376C404.609 449.086 404.465 439.889 404.465 439.889H398.29C398.29 439.889 389.827 468.572 378.66 465.92C367.494 463.267 368.09 436.076 368.09 436.076C355.191 431.925 347.462 424.037 347.462 424.037Z" fill="white"/>
<path d="M398.29 439.889C398.29 439.889 387.625 439.764 383.137 439.103C378.648 438.443 368.09 436.076 368.09 436.076C368.09 436.076 367.494 463.267 378.66 465.92C389.827 468.572 398.29 439.889 398.29 439.889Z" fill="white"/>
<path d="M303.503 481.888C312.382 505.18 328.997 510.416 346.845 512.752C364.693 515.088 383.474 500.694 396.627 479.873C396.627 479.873 365.993 470.465 349.3 469.682C332.607 468.898 303.503 481.888 303.503 481.888Z" fill="white"/>
<path d="M323.74 398.715L328.591 397.505L323.74 398.715ZM275.852 430.637C274.554 428.199 271.526 427.276 269.088 428.574C266.651 429.872 265.728 432.9 267.026 435.337L275.852 430.637ZM396.627 479.873L400.854 482.544L401.185 482.021L401.378 481.433L396.627 479.873ZM430.312 431.947C432.247 429.977 432.218 426.811 430.247 424.877C428.277 422.942 425.111 422.971 423.177 424.941L430.312 431.947ZM556.511 415.771C553.912 416.703 552.559 419.565 553.491 422.165C554.422 424.764 557.284 426.117 559.884 425.186L556.511 415.771ZM635.162 412.312C637.922 412.223 640.087 409.913 639.997 407.153C639.908 404.393 637.599 402.228 634.839 402.317L635.162 412.312ZM562.084 439.739C559.355 440.159 557.484 442.713 557.905 445.442C558.325 448.171 560.879 450.043 563.608 449.622L562.084 439.739ZM625.492 447.954C628.251 448.071 630.582 445.929 630.698 443.17C630.815 440.411 628.673 438.08 625.914 437.963L625.492 447.954ZM142.078 435.882C144.784 436.433 147.424 434.686 147.975 431.98C148.525 429.274 146.778 426.634 144.072 426.083L142.078 435.882ZM63.806 418.205C61.0467 418.312 58.8965 420.636 59.0035 423.395C59.1104 426.154 61.4341 428.304 64.1934 428.197L63.806 418.205ZM137.943 460.809C140.691 461.09 143.145 459.091 143.426 456.344C143.707 453.597 141.708 451.142 138.961 450.861L137.943 460.809ZM76.0998 453.432C73.3542 453.728 71.3678 456.193 71.6631 458.938C71.9583 461.684 74.4234 463.67 77.169 463.375L76.0998 453.432ZM360.947 412.394L364.616 415.79L360.947 412.394ZM328.591 397.505C328.795 398.32 328.394 398.493 328.851 397.8C329.251 397.194 330.101 396.293 331.567 395.357C334.461 393.508 339.241 391.863 345.671 392.009L345.899 382.012C337.69 381.825 330.917 383.906 326.184 386.929C323.835 388.429 321.852 390.251 320.506 392.29C319.217 394.243 318.155 396.983 318.888 399.924L328.591 397.505ZM345.671 392.009C352.18 392.157 356.766 393.893 359.52 395.8C362.548 397.896 362.617 399.53 362.626 399.44L372.58 400.396C373.076 395.239 369.556 390.585 365.213 387.578C360.596 384.381 354.03 382.196 345.899 382.012L345.671 392.009ZM347.462 424.037C344.287 420.174 344.287 420.174 344.287 420.174C344.287 420.174 344.287 420.174 344.287 420.174C344.287 420.174 344.286 420.174 344.286 420.175C344.284 420.176 344.281 420.179 344.277 420.182C344.269 420.188 344.257 420.199 344.24 420.212C344.206 420.24 344.154 420.282 344.085 420.339C343.947 420.451 343.741 420.618 343.473 420.834C342.937 421.265 342.156 421.889 341.186 422.65C339.241 424.175 336.547 426.243 333.542 428.42C327.337 432.915 320.447 437.4 316.041 438.985L319.424 448.395C325.36 446.261 333.334 440.92 339.409 436.518C342.543 434.247 345.342 432.099 347.356 430.519C348.364 429.729 349.179 429.078 349.744 428.624C350.026 428.396 350.246 428.218 350.398 428.095C350.473 428.033 350.531 427.986 350.572 427.953C350.592 427.936 350.607 427.924 350.618 427.915C350.623 427.91 350.628 427.907 350.631 427.904C350.632 427.903 350.634 427.902 350.635 427.901C350.635 427.901 350.636 427.9 350.636 427.9C350.636 427.9 350.637 427.899 347.462 424.037ZM316.041 438.985C311.615 440.576 306.189 441.13 301.634 441.236C299.403 441.288 297.473 441.231 296.109 441.161C295.428 441.126 294.892 441.089 294.534 441.061C294.355 441.047 294.221 441.035 294.137 441.027C294.094 441.023 294.064 441.02 294.047 441.019C294.038 441.018 294.032 441.017 294.03 441.017C294.029 441.017 294.029 441.017 294.029 441.017C294.03 441.017 294.03 441.017 294.031 441.017C294.031 441.017 294.032 441.017 294.032 441.017C294.033 441.017 294.034 441.017 293.525 445.992C293.017 450.966 293.018 450.966 293.019 450.966C293.019 450.966 293.02 450.966 293.021 450.966C293.023 450.966 293.024 450.966 293.026 450.967C293.03 450.967 293.035 450.967 293.041 450.968C293.052 450.969 293.066 450.971 293.084 450.972C293.12 450.976 293.169 450.98 293.231 450.986C293.354 450.997 293.528 451.012 293.749 451.03C294.189 451.064 294.817 451.108 295.598 451.148C297.156 451.228 299.339 451.292 301.867 451.234C306.83 451.118 313.508 450.522 319.424 448.395L316.041 438.985ZM295.381 441.349C286.02 437.608 280.901 434.544 278.221 432.575C276.888 431.594 276.184 430.904 275.869 430.56C275.712 430.388 275.653 430.305 275.66 430.316C275.664 430.321 275.685 430.35 275.718 430.403C275.735 430.43 275.755 430.463 275.777 430.502C275.788 430.521 275.8 430.542 275.813 430.565C275.819 430.576 275.825 430.588 275.832 430.6C275.835 430.606 275.838 430.612 275.842 430.618C275.843 430.621 275.846 430.626 275.847 430.627C275.849 430.632 275.852 430.637 271.439 432.987C267.026 435.337 267.028 435.342 267.031 435.347C267.032 435.349 267.034 435.353 267.036 435.357C267.039 435.363 267.043 435.37 267.047 435.376C267.054 435.39 267.061 435.403 267.069 435.417C267.084 435.445 267.101 435.473 267.118 435.503C267.152 435.563 267.19 435.626 267.232 435.694C267.316 435.828 267.416 435.979 267.535 436.145C267.773 436.476 268.085 436.867 268.494 437.314C269.311 438.205 270.518 439.323 272.298 440.632C275.847 443.241 281.772 446.679 291.67 450.635L295.381 441.349ZM298.831 483.669C303.63 496.259 310.691 504.319 319.231 509.462C327.623 514.514 337.068 516.515 346.196 517.709L347.494 507.794C338.774 506.653 330.987 504.867 324.39 500.895C317.941 497.012 312.255 490.809 308.175 480.107L298.831 483.669ZM346.196 517.709C356.71 519.086 367.095 515.483 376.335 509.113C385.583 502.736 394.006 493.384 400.854 482.544L392.4 477.203C386.095 487.183 378.551 495.438 370.658 500.88C362.757 506.328 354.828 508.754 347.494 507.794L346.196 517.709ZM406.834 461.516C408.226 455.569 408.882 450.189 409.191 446.294C409.346 444.343 409.415 442.752 409.445 441.636C409.46 441.078 409.465 440.638 409.466 440.329C409.467 440.175 409.467 440.053 409.466 439.966C409.466 439.923 409.466 439.888 409.465 439.862C409.465 439.849 409.465 439.838 409.465 439.83C409.465 439.826 409.465 439.822 409.465 439.819C409.465 439.817 409.465 439.816 409.465 439.815C409.465 439.814 409.465 439.813 409.465 439.813C409.465 439.812 409.465 439.811 404.465 439.889C399.466 439.967 399.466 439.966 399.466 439.965C399.466 439.965 399.466 439.965 399.466 439.964C399.466 439.964 399.466 439.963 399.466 439.963C399.466 439.962 399.466 439.961 399.466 439.962C399.466 439.962 399.466 439.965 399.466 439.969C399.466 439.979 399.466 439.997 399.466 440.024C399.467 440.077 399.467 440.164 399.466 440.283C399.465 440.522 399.461 440.888 399.448 441.368C399.422 442.329 399.362 443.744 399.222 445.503C398.942 449.029 398.348 453.893 397.097 459.237L406.834 461.516ZM405.368 444.807C412.951 443.414 419.145 440.214 423.401 437.418C425.541 436.013 427.227 434.687 428.393 433.696C428.978 433.2 429.435 432.786 429.757 432.485C429.918 432.334 430.045 432.211 430.138 432.12C430.185 432.075 430.222 432.038 430.251 432.009C430.266 431.994 430.278 431.982 430.288 431.971C430.293 431.966 430.298 431.962 430.302 431.958C430.304 431.956 430.306 431.954 430.307 431.952C430.308 431.951 430.309 431.95 430.31 431.95C430.311 431.949 430.312 431.947 426.744 428.444C423.177 424.941 423.178 424.94 423.179 424.939C423.179 424.939 423.18 424.938 423.181 424.937C423.182 424.936 423.183 424.935 423.184 424.934C423.185 424.932 423.187 424.931 423.188 424.93C423.189 424.929 423.189 424.929 423.186 424.932C423.181 424.937 423.168 424.95 423.146 424.971C423.103 425.013 423.028 425.085 422.922 425.185C422.71 425.384 422.374 425.689 421.922 426.073C421.016 426.842 419.658 427.913 417.912 429.06C414.396 431.368 409.451 433.89 403.562 434.971L405.368 444.807ZM404.465 434.889H398.29V444.889H404.465V434.889ZM398.29 439.889C398.349 434.889 398.349 434.889 398.349 434.889C398.349 434.889 398.349 434.889 398.349 434.889C398.349 434.889 398.348 434.889 398.348 434.889C398.347 434.889 398.345 434.889 398.343 434.889C398.339 434.889 398.332 434.889 398.323 434.889C398.304 434.889 398.275 434.888 398.237 434.888C398.161 434.887 398.048 434.885 397.901 434.883C397.608 434.878 397.182 434.871 396.657 434.86C395.604 434.838 394.156 434.803 392.573 434.747C389.31 434.632 385.792 434.44 383.864 434.157L382.409 444.05C384.97 444.427 389.029 444.628 392.22 444.741C393.865 444.799 395.363 444.836 396.45 444.858C396.995 444.869 397.437 444.877 397.745 444.882C397.898 444.884 398.019 444.886 398.101 444.887C398.142 444.888 398.174 444.888 398.196 444.888C398.207 444.888 398.215 444.888 398.221 444.889C398.224 444.889 398.227 444.889 398.228 444.889C398.229 444.889 398.23 444.889 398.23 444.889C398.23 444.889 398.231 444.889 398.231 444.889C398.231 444.889 398.231 444.889 398.29 439.889ZM398.29 439.889C393.494 438.474 393.495 438.473 393.495 438.473C393.495 438.473 393.495 438.472 393.495 438.472C393.495 438.471 393.495 438.472 393.495 438.472C393.495 438.473 393.494 438.476 393.493 438.48C393.49 438.489 393.485 438.505 393.479 438.527C393.465 438.571 393.444 438.641 393.415 438.734C393.357 438.922 393.268 439.206 393.149 439.571C392.912 440.302 392.557 441.354 392.097 442.613C391.171 445.147 389.844 448.443 388.215 451.615C386.55 454.857 384.737 457.639 382.939 459.4C381.104 461.199 380.167 461.139 379.816 461.055L377.505 470.784C382.737 472.027 387.046 469.377 389.938 466.543C392.867 463.672 395.263 459.781 397.111 456.183C398.993 452.516 400.48 448.807 401.489 446.046C401.997 444.657 402.391 443.489 402.66 442.662C402.794 442.248 402.898 441.918 402.969 441.687C403.005 441.571 403.033 441.48 403.052 441.416C403.062 441.384 403.07 441.358 403.075 441.339C403.078 441.33 403.08 441.322 403.082 441.316C403.083 441.313 403.084 441.311 403.084 441.309C403.084 441.308 403.085 441.307 403.085 441.306C403.085 441.305 403.086 441.304 398.29 439.889ZM383.864 434.157C381.796 433.852 378.182 433.128 374.96 432.45C373.377 432.116 371.93 431.803 370.88 431.572C370.354 431.457 369.929 431.363 369.635 431.298C369.489 431.266 369.375 431.24 369.298 431.223C369.26 431.215 369.231 431.208 369.211 431.204C369.202 431.202 369.195 431.2 369.19 431.199C369.188 431.198 369.186 431.198 369.185 431.198C369.184 431.198 369.184 431.198 369.184 431.198C369.184 431.198 369.183 431.198 369.183 431.198C369.183 431.198 369.183 431.198 368.09 436.076C366.996 440.955 366.996 440.955 366.997 440.955C366.997 440.956 366.997 440.956 366.997 440.956C366.998 440.956 366.998 440.956 366.999 440.956C367 440.956 367.002 440.957 367.005 440.957C367.011 440.959 367.019 440.96 367.029 440.963C367.05 440.967 367.081 440.974 367.121 440.983C367.201 441.001 367.319 441.027 367.469 441.061C367.771 441.128 368.205 441.224 368.74 441.341C369.809 441.575 371.283 441.894 372.899 442.235C376.079 442.905 379.988 443.694 382.409 444.05L383.864 434.157ZM369.622 431.317C363.763 429.431 359.056 426.687 355.814 424.409C354.198 423.273 352.963 422.266 352.15 421.559C351.743 421.206 351.443 420.93 351.255 420.752C351.161 420.663 351.095 420.599 351.058 420.562C351.039 420.544 351.028 420.532 351.024 420.528C351.022 420.526 351.021 420.525 351.023 420.527C351.024 420.528 351.025 420.529 351.026 420.531C351.027 420.532 351.028 420.533 351.029 420.534C351.03 420.534 351.031 420.535 351.031 420.535C351.032 420.536 351.033 420.537 347.462 424.037C343.891 427.536 343.892 427.537 343.893 427.538C343.893 427.539 343.894 427.54 343.895 427.541C343.896 427.542 343.898 427.544 343.9 427.546C343.903 427.549 343.907 427.553 343.912 427.558C343.921 427.567 343.932 427.578 343.945 427.591C343.971 427.617 344.004 427.65 344.045 427.691C344.128 427.772 344.24 427.881 344.383 428.016C344.668 428.285 345.073 428.658 345.592 429.109C346.631 430.011 348.135 431.235 350.064 432.591C353.911 435.294 359.518 438.57 366.558 440.836L369.622 431.317ZM379.816 461.055C379.05 460.873 377.938 460.154 376.737 457.837C375.559 455.565 374.698 452.486 374.113 449.142C373.538 445.855 373.279 442.599 373.166 440.138C373.11 438.915 373.091 437.907 373.086 437.213C373.083 436.867 373.084 436.599 373.086 436.424C373.086 436.336 373.087 436.271 373.088 436.231C373.088 436.211 373.088 436.197 373.089 436.189C373.089 436.186 373.089 436.184 373.089 436.183C373.089 436.183 373.089 436.183 373.089 436.183C373.089 436.184 373.089 436.184 373.089 436.184C373.089 436.185 373.089 436.186 368.09 436.076C363.091 435.967 363.091 435.968 363.091 435.969C363.091 435.97 363.091 435.971 363.091 435.972C363.091 435.974 363.091 435.977 363.091 435.98C363.091 435.986 363.091 435.994 363.09 436.003C363.09 436.022 363.09 436.047 363.089 436.078C363.088 436.141 363.087 436.229 363.086 436.341C363.084 436.565 363.083 436.885 363.086 437.287C363.092 438.09 363.114 439.227 363.176 440.595C363.301 443.315 363.59 447.023 364.262 450.865C364.924 454.65 366.007 458.866 367.858 462.438C369.686 465.966 372.687 469.64 377.505 470.784L379.816 461.055ZM288.601 446.86C291.407 462.761 293.576 471.044 298.887 483.809L308.119 479.967C303.166 468.06 301.166 460.525 298.449 445.123L288.601 446.86ZM303.503 481.888C305.541 486.454 305.54 486.454 305.54 486.454C305.54 486.454 305.54 486.454 305.54 486.454C305.54 486.454 305.541 486.454 305.542 486.453C305.544 486.452 305.548 486.451 305.553 486.448C305.565 486.443 305.583 486.435 305.608 486.424C305.657 486.402 305.734 486.369 305.836 486.324C306.041 486.234 306.349 486.101 306.749 485.93C307.55 485.588 308.721 485.097 310.181 484.508C313.105 483.328 317.17 481.766 321.736 480.23C331.097 477.081 341.749 474.333 349.065 474.676L349.534 464.687C340.157 464.247 327.911 467.602 318.547 470.752C313.75 472.366 309.496 474.002 306.441 475.233C304.912 475.85 303.679 476.368 302.823 476.733C302.395 476.916 302.061 477.06 301.831 477.161C301.717 477.211 301.628 477.25 301.566 477.277C301.536 477.291 301.512 477.301 301.495 477.309C301.486 477.313 301.48 477.316 301.475 477.318C301.472 477.319 301.47 477.32 301.468 477.321C301.468 477.321 301.467 477.321 301.466 477.322C301.466 477.322 301.465 477.322 303.503 481.888ZM396.627 479.873C401.378 481.433 401.378 481.433 401.378 481.433C401.378 481.432 401.378 481.432 401.378 481.432C401.378 481.431 401.379 481.43 401.379 481.43C401.38 481.428 401.38 481.426 401.381 481.423C401.383 481.417 401.385 481.41 401.388 481.401C401.395 481.382 401.403 481.355 401.414 481.321C401.437 481.252 401.469 481.152 401.51 481.022C401.593 480.763 401.713 480.385 401.864 479.899C402.167 478.925 402.596 477.516 403.107 475.751C404.13 472.224 405.488 467.264 406.834 461.516L397.097 459.237C395.8 464.78 394.489 469.568 393.503 472.966C393.011 474.664 392.601 476.012 392.315 476.93C392.172 477.389 392.061 477.741 391.986 477.975C391.949 478.092 391.921 478.179 391.902 478.236C391.893 478.264 391.886 478.285 391.882 478.298C391.88 478.304 391.878 478.309 391.878 478.311C391.877 478.313 391.877 478.313 391.877 478.314C391.877 478.314 391.877 478.314 391.877 478.314C391.877 478.314 391.877 478.313 391.877 478.313C391.877 478.313 391.877 478.313 396.627 479.873ZM349.065 474.676C356.86 475.042 368.258 477.47 378.004 479.92C382.813 481.129 387.112 482.315 390.207 483.199C391.754 483.64 392.999 484.006 393.853 484.26C394.281 484.387 394.61 484.486 394.832 484.553C394.942 484.587 395.026 484.612 395.081 484.629C395.109 484.637 395.129 484.643 395.142 484.647C395.149 484.65 395.153 484.651 395.156 484.652C395.158 484.652 395.159 484.653 395.159 484.653C395.16 484.653 395.16 484.653 395.16 484.653C395.16 484.653 395.16 484.653 396.627 479.873C398.095 475.093 398.095 475.093 398.094 475.093C398.094 475.093 398.093 475.093 398.093 475.093C398.091 475.092 398.089 475.092 398.087 475.091C398.083 475.09 398.076 475.088 398.068 475.085C398.052 475.08 398.028 475.073 397.997 475.063C397.935 475.045 397.845 475.017 397.727 474.981C397.491 474.91 397.147 474.806 396.704 474.675C395.818 474.411 394.538 474.036 392.952 473.583C389.783 472.678 385.379 471.463 380.442 470.222C370.698 467.772 358.432 465.105 349.534 464.687L349.065 474.676ZM138.452 455.835C138.961 450.861 138.96 450.861 138.959 450.861C138.959 450.861 138.958 450.861 138.957 450.861C138.956 450.861 138.955 450.86 138.953 450.86C138.95 450.86 138.946 450.86 138.942 450.859C138.933 450.858 138.921 450.857 138.906 450.856C138.876 450.853 138.835 450.849 138.782 450.844C138.677 450.834 138.526 450.82 138.332 450.804C137.943 450.77 137.379 450.726 136.648 450.676C135.186 450.578 133.058 450.461 130.344 450.383C124.915 450.228 117.132 450.229 107.621 450.846L108.267 460.825C117.431 460.231 124.901 460.232 130.058 460.379C132.636 460.453 134.634 460.563 135.975 460.654C136.645 460.699 137.151 460.739 137.482 460.767C137.648 460.782 137.77 460.793 137.847 460.8C137.886 460.804 137.913 460.806 137.929 460.808C137.937 460.809 137.943 460.809 137.945 460.809C137.946 460.809 137.947 460.809 137.946 460.809C137.946 460.809 137.946 460.809 137.945 460.809C137.945 460.809 137.945 460.809 137.945 460.809C137.944 460.809 137.943 460.809 138.452 455.835ZM107.621 450.846C98.2362 451.454 90.3677 452.099 84.841 452.593C82.0774 452.84 79.8984 453.049 78.4074 453.197C77.6618 453.271 77.0881 453.329 76.6993 453.369C76.5048 453.39 76.3566 453.405 76.2561 453.416C76.2059 453.421 76.1676 453.425 76.1415 453.428C76.1285 453.429 76.1184 453.43 76.1115 453.431C76.108 453.431 76.1053 453.432 76.1033 453.432C76.1024 453.432 76.1016 453.432 76.101 453.432C76.1007 453.432 76.1004 453.432 76.1003 453.432C76.1 453.432 76.0998 453.432 76.6344 458.404C77.169 463.375 77.1689 463.375 77.1689 463.375C77.1689 463.375 77.1689 463.375 77.169 463.375C77.1692 463.375 77.1695 463.375 77.1701 463.375C77.1712 463.375 77.1731 463.375 77.1758 463.374C77.1811 463.374 77.1895 463.373 77.2009 463.372C77.2238 463.369 77.2587 463.365 77.3056 463.361C77.3994 463.351 77.5408 463.336 77.7283 463.316C78.1034 463.278 78.6627 463.221 79.3934 463.148C80.8549 463.003 83.0018 462.797 85.7312 462.553C91.1906 462.065 98.9768 461.427 108.267 460.825L107.621 450.846ZM143.075 430.983C144.072 426.083 144.072 426.083 144.071 426.083C144.071 426.083 144.071 426.083 144.07 426.083C144.069 426.083 144.068 426.082 144.066 426.082C144.063 426.081 144.058 426.08 144.052 426.079C144.039 426.076 144.02 426.073 143.996 426.068C143.947 426.058 143.875 426.043 143.781 426.024C143.594 425.987 143.317 425.931 142.961 425.86C142.248 425.719 141.213 425.514 139.919 425.264C137.331 424.764 133.705 424.078 129.548 423.336C121.261 421.856 110.75 420.132 102.124 419.217L101.069 429.161C109.331 430.038 119.559 431.71 127.79 433.18C131.891 433.912 135.468 434.589 138.019 435.082C139.295 435.329 140.313 435.53 141.01 435.668C141.359 435.738 141.628 435.792 141.808 435.828C141.899 435.846 141.967 435.86 142.012 435.869C142.035 435.874 142.052 435.877 142.063 435.879C142.069 435.88 142.073 435.881 142.075 435.882C142.076 435.882 142.077 435.882 142.078 435.882C142.078 435.882 142.078 435.882 142.078 435.882C142.078 435.882 142.078 435.882 143.075 430.983ZM102.124 419.217C93.4318 418.295 83.8377 418.047 76.4809 418.024C72.7884 418.012 69.6303 418.057 67.3921 418.105C66.2726 418.129 65.3821 418.154 64.7686 418.173C64.4618 418.182 64.2242 418.19 64.0618 418.196C63.9806 418.198 63.9182 418.201 63.8753 418.202C63.8539 418.203 63.8373 418.204 63.8257 418.204C63.8199 418.204 63.8154 418.205 63.8121 418.205C63.8105 418.205 63.8091 418.205 63.8081 418.205C63.8076 418.205 63.8071 418.205 63.8068 418.205C63.8064 418.205 63.806 418.205 63.9997 423.201C64.1934 428.197 64.1932 428.197 64.1931 428.197C64.1931 428.197 64.1931 428.197 64.1932 428.197C64.1935 428.197 64.194 428.197 64.1949 428.197C64.1966 428.197 64.1996 428.197 64.2038 428.197C64.2123 428.197 64.2257 428.196 64.244 428.196C64.2805 428.194 64.3364 428.192 64.411 428.19C64.5602 428.184 64.784 428.177 65.0764 428.168C65.6614 428.15 66.5207 428.126 67.6065 428.103C69.779 428.056 72.8535 428.012 76.4491 428.024C83.6686 428.047 92.8729 428.292 101.069 429.161L102.124 419.217ZM558.198 420.478C559.884 425.186 559.884 425.186 559.883 425.186C559.883 425.186 559.883 425.186 559.883 425.186C559.883 425.186 559.884 425.186 559.884 425.185C559.886 425.185 559.888 425.184 559.892 425.183C559.899 425.18 559.912 425.176 559.928 425.17C559.961 425.158 560.013 425.14 560.082 425.115C560.221 425.066 560.43 424.993 560.705 424.898C561.254 424.708 562.064 424.432 563.095 424.09C565.157 423.406 568.093 422.465 571.574 421.439C578.565 419.379 587.622 417.017 596.15 415.699L594.622 405.816C585.465 407.232 575.928 409.73 568.747 411.847C565.141 412.91 562.096 413.886 559.948 414.598C558.874 414.954 558.022 415.245 557.436 415.448C557.143 415.549 556.916 415.628 556.76 415.683C556.682 415.711 556.622 415.732 556.58 415.747C556.559 415.754 556.543 415.76 556.532 415.764C556.526 415.766 556.521 415.768 556.518 415.769C556.516 415.77 556.515 415.77 556.514 415.771C556.513 415.771 556.513 415.771 556.512 415.771C556.512 415.771 556.511 415.771 558.198 420.478ZM596.15 415.699C604.785 414.364 614.525 413.514 622.161 412.999C625.967 412.743 629.226 412.57 631.531 412.462C632.683 412.409 633.596 412.371 634.218 412.346C634.529 412.334 634.768 412.326 634.927 412.32C635.007 412.317 635.067 412.315 635.106 412.314C635.126 412.313 635.14 412.313 635.149 412.312C635.154 412.312 635.157 412.312 635.159 412.312C635.16 412.312 635.161 412.312 635.161 412.312C635.162 412.312 635.162 412.312 635.162 412.312C635.162 412.312 635.162 412.312 635 407.314C634.839 402.317 634.838 402.317 634.838 402.317C634.838 402.317 634.837 402.317 634.837 402.317C634.836 402.317 634.834 402.317 634.833 402.317C634.829 402.317 634.825 402.318 634.819 402.318C634.807 402.318 634.79 402.319 634.767 402.319C634.723 402.321 634.657 402.323 634.572 402.326C634.402 402.332 634.152 402.341 633.828 402.354C633.182 402.379 632.244 402.418 631.064 402.473C628.704 402.584 625.375 402.76 621.488 403.022C613.739 403.545 603.672 404.417 594.622 405.816L596.15 415.699ZM562.846 444.68C563.608 449.622 563.608 449.622 563.608 449.622C563.608 449.622 563.607 449.622 563.607 449.622C563.607 449.622 563.608 449.622 563.608 449.622C563.609 449.622 563.611 449.622 563.614 449.621C563.62 449.62 563.629 449.619 563.642 449.617C563.669 449.613 563.71 449.607 563.766 449.598C563.877 449.582 564.045 449.557 564.267 449.525C564.711 449.461 565.367 449.368 566.205 449.257C567.881 449.034 570.278 448.736 573.141 448.438C578.887 447.84 586.43 447.25 593.769 447.25L593.769 437.25C585.951 437.25 578.031 437.875 572.106 438.492C569.133 438.802 566.641 439.111 564.888 439.344C564.011 439.461 563.317 439.558 562.839 439.627C562.6 439.662 562.415 439.689 562.288 439.708C562.225 439.717 562.176 439.725 562.141 439.73C562.124 439.733 562.111 439.735 562.102 439.736C562.097 439.737 562.093 439.737 562.09 439.738C562.089 439.738 562.087 439.738 562.087 439.738C562.086 439.738 562.086 439.739 562.085 439.739C562.085 439.739 562.084 439.739 562.846 444.68ZM593.769 447.25C601.28 447.25 609.21 447.426 615.275 447.602C618.305 447.691 620.862 447.779 622.661 447.845C623.561 447.878 624.27 447.905 624.754 447.925C624.996 447.934 625.181 447.942 625.306 447.947C625.368 447.949 625.415 447.951 625.446 447.953C625.462 447.953 625.474 447.954 625.481 447.954C625.485 447.954 625.488 447.954 625.49 447.954C625.49 447.954 625.491 447.954 625.491 447.954C625.492 447.954 625.492 447.954 625.492 447.954C625.492 447.954 625.492 447.954 625.703 442.959C625.914 437.963 625.914 437.963 625.914 437.963C625.913 437.963 625.913 437.963 625.913 437.963C625.912 437.963 625.911 437.963 625.91 437.963C625.908 437.963 625.905 437.963 625.9 437.963C625.892 437.962 625.879 437.962 625.862 437.961C625.829 437.96 625.78 437.958 625.716 437.955C625.587 437.95 625.397 437.942 625.151 437.932C624.658 437.913 623.939 437.885 623.028 437.852C621.209 437.785 618.625 437.696 615.566 437.607C609.454 437.429 601.417 437.25 593.769 437.25L593.769 447.25ZM347.462 424.037C350.294 419.917 350.295 419.917 350.295 419.917C350.295 419.917 350.295 419.917 350.295 419.917C350.295 419.917 350.295 419.917 350.294 419.917C350.294 419.916 350.292 419.915 350.29 419.914C350.286 419.911 350.28 419.907 350.271 419.9C350.253 419.888 350.225 419.869 350.188 419.843C350.114 419.792 350.002 419.714 349.856 419.612C349.565 419.409 349.141 419.11 348.616 418.736C347.565 417.985 346.117 416.935 344.532 415.736C341.269 413.268 337.748 410.41 335.766 408.276L328.439 415.082C331.079 417.924 335.238 421.244 338.499 423.711C340.176 424.98 341.701 426.086 342.808 426.876C343.361 427.271 343.812 427.588 344.126 427.808C344.284 427.918 344.407 428.003 344.492 428.062C344.534 428.092 344.568 428.115 344.591 428.13C344.602 428.138 344.611 428.145 344.617 428.149C344.621 428.151 344.623 428.153 344.625 428.154C344.626 428.155 344.627 428.155 344.628 428.156C344.628 428.156 344.628 428.156 344.628 428.157C344.629 428.157 344.629 428.157 347.462 424.037ZM335.766 408.276C333.723 406.076 331.95 403.606 330.637 401.46C329.984 400.392 329.468 399.442 329.102 398.689C328.7 397.859 328.587 397.486 328.591 397.505L318.888 399.924C319.331 401.698 320.618 404.245 322.107 406.678C323.697 409.277 325.86 412.305 328.439 415.082L335.766 408.276ZM362.626 399.44C362.299 402.845 361.023 404.949 357.277 408.998L364.616 415.79C368.812 411.255 371.934 407.124 372.58 400.396L362.626 399.44ZM357.277 408.998C354.65 411.836 351.489 414.574 348.922 416.64C347.652 417.662 346.554 418.499 345.778 419.077C345.39 419.365 345.084 419.588 344.879 419.737C344.777 419.811 344.699 419.866 344.649 419.901C344.625 419.919 344.607 419.932 344.596 419.94C344.591 419.943 344.587 419.946 344.585 419.947C344.584 419.948 344.584 419.948 344.584 419.948C344.584 419.948 344.584 419.948 344.584 419.948C344.585 419.948 344.585 419.947 344.585 419.947C344.585 419.947 344.586 419.947 347.462 424.037C350.338 428.127 350.338 428.126 350.339 428.126C350.339 428.126 350.339 428.126 350.34 428.125C350.34 428.125 350.341 428.124 350.342 428.124C350.344 428.122 350.347 428.121 350.35 428.118C350.355 428.114 350.363 428.109 350.372 428.102C350.391 428.089 350.418 428.07 350.451 428.046C350.518 427.999 350.613 427.931 350.734 427.844C350.975 427.669 351.32 427.418 351.75 427.098C352.608 426.459 353.807 425.545 355.193 424.43C357.938 422.22 361.519 419.137 364.616 415.79L357.277 408.998Z" fill="white"/>
</svg>
