<svg width="700" height="900" viewBox="0 0 700 900" fill="none" xmlns="http://www.w3.org/2000/svg">
<path d="M417.928 483.572C424.902 484.707 430.171 484.856 436.541 484.377L437.487 484.306C446.294 483.644 452.218 483.2 457.656 481.224C457.656 481.224 442.397 509.945 437.22 510C432.043 510.055 417.928 483.572 417.928 483.572Z" fill="white"/>
<path d="M320.064 423.015C315.815 423.309 312.006 428.74 314.35 432.41C316.694 436.08 323.873 437.254 326.071 432.41C328.268 427.566 324.313 422.721 320.064 423.015Z" fill="white"/>
<path d="M360.208 422.721C355.959 423.015 352.15 428.447 354.494 432.116C356.838 435.786 364.017 436.961 366.215 432.116C368.413 427.272 364.457 422.428 360.208 422.721Z" fill="white"/>
<path d="M211.645 460.256C208.701 457.342 203.952 457.367 201.039 460.311C198.125 463.255 198.15 468.004 201.094 470.918L211.645 460.256ZM342.04 471.312L342.013 478.812L342.04 471.312ZM436.541 484.377L435.978 476.898L436.541 484.377ZM489.077 467.638C492.134 464.843 492.347 460.099 489.553 457.042C486.758 453.984 482.014 453.771 478.957 456.566L489.077 467.638ZM514.33 404.798C510.674 406.745 509.289 411.288 511.236 414.944C513.183 418.6 517.725 419.985 521.381 418.038L514.33 404.798ZM678.5 390.039C678.522 385.897 675.181 382.522 671.039 382.5C666.897 382.478 663.522 385.819 663.5 389.961L678.5 390.039ZM167.103 423.012C169.794 426.161 174.529 426.531 177.677 423.84C180.826 421.149 181.196 416.414 178.505 413.266L167.103 423.012ZM36.6989 402.333C37.1134 398.212 34.1085 394.535 29.9871 394.12C25.8658 393.706 22.1887 396.711 21.7742 400.832L36.6989 402.333ZM201.094 470.918C207.251 477.01 213.733 482.557 221.685 486.502C229.74 490.499 238.896 492.657 250.208 492.611L250.147 477.611C240.91 477.648 234.096 475.916 228.352 473.065C222.504 470.164 217.356 465.907 211.645 460.256L201.094 470.918ZM250.208 492.611C261.549 492.565 275.771 488.749 290.512 485.443C305.774 482.02 322.945 478.741 342.013 478.812L342.068 463.812C321.285 463.735 302.798 467.315 287.229 470.807C271.139 474.416 259.354 477.573 250.147 477.611L250.208 492.611ZM521.381 418.038C529.012 413.974 535.624 408.472 551.094 407.3L549.961 392.342C530.561 393.813 520.582 401.469 514.33 404.798L521.381 418.038ZM551.094 407.3C556.626 406.88 562.996 410.278 571.241 416.741C575.453 420.041 578.772 422.97 583.173 426.505C587.168 429.714 591.51 432.952 595.994 435.215L602.753 421.825C599.743 420.305 596.411 417.899 592.566 414.81C589.127 412.048 584.441 408.028 580.494 404.935C572.423 398.609 561.865 391.44 549.961 392.342L551.094 407.3ZM595.994 435.215C612.694 443.646 629.392 445.109 646.99 438.788L641.919 424.671C628.457 429.507 616.031 428.527 602.753 421.825L595.994 435.215ZM646.99 438.788C656.811 435.261 664.627 427.546 669.919 418.881C675.229 410.188 678.449 399.827 678.5 390.039L663.5 389.961C663.465 396.703 661.177 404.418 657.118 411.062C653.042 417.735 647.628 422.621 641.919 424.671L646.99 438.788ZM172.804 418.139C178.505 413.266 178.503 413.264 178.501 413.261C178.5 413.26 178.498 413.258 178.497 413.256C178.494 413.253 178.491 413.25 178.488 413.246C178.482 413.239 178.475 413.23 178.467 413.221C178.451 413.203 178.433 413.182 178.411 413.158C178.369 413.109 178.314 413.048 178.249 412.975C178.118 412.829 177.942 412.637 177.721 412.405C177.28 411.941 176.658 411.314 175.867 410.581C174.289 409.119 172 407.2 169.076 405.289C163.26 401.489 154.609 397.516 143.893 397.606L144.018 412.605C150.883 412.548 156.657 415.092 160.87 417.846C162.96 419.211 164.587 420.578 165.671 421.583C166.21 422.083 166.607 422.485 166.85 422.741C166.972 422.869 167.055 422.96 167.097 423.007C167.119 423.031 167.13 423.044 167.131 423.045C167.132 423.045 167.129 423.043 167.125 423.038C167.122 423.035 167.119 423.032 167.116 423.027C167.114 423.025 167.112 423.023 167.11 423.02C167.109 423.019 167.107 423.017 167.107 423.017C167.105 423.014 167.103 423.012 172.804 418.139ZM143.893 397.606C123.031 397.78 106.505 411.422 95.8179 423.66L107.116 433.526C116.941 422.276 129.717 412.725 144.018 412.605L143.893 397.606ZM95.8179 423.66C91.3565 428.768 87.6015 431.2 83.8353 432.578C79.8285 434.045 75.273 434.536 68.5336 434.903L69.3492 449.881C76.0889 449.514 82.6683 448.978 88.9906 446.665C95.5535 444.263 101.322 440.162 107.116 433.526L95.8179 423.66ZM68.5336 434.903C57.7554 435.49 47.0556 429.302 42.4328 423.089L30.3982 432.042C37.7894 441.977 53.1691 450.762 69.3492 449.881L68.5336 434.903ZM42.4328 423.089C37.5435 416.517 35.8781 410.492 36.6989 402.333L21.7742 400.832C20.5792 412.712 23.2735 422.466 30.3982 432.042L42.4328 423.089ZM342.013 478.812C356.213 478.864 369.436 480.976 381.855 483.557C393.888 486.059 406.185 489.258 416.722 490.974L419.133 476.169C408.894 474.502 398.165 471.627 384.908 468.871C372.036 466.196 357.704 463.869 342.068 463.812L342.013 478.812ZM416.722 490.974C424.313 492.21 430.177 492.377 437.104 491.856L435.978 476.898C430.166 477.335 425.491 477.205 419.133 476.169L416.722 490.974ZM417.928 483.572C411.309 487.099 411.31 487.1 411.31 487.101C411.31 487.101 411.311 487.102 411.311 487.103C411.312 487.104 411.313 487.106 411.314 487.108C411.316 487.113 411.32 487.119 411.324 487.127C411.332 487.142 411.344 487.164 411.359 487.192C411.388 487.247 411.432 487.328 411.487 487.43C411.598 487.636 411.759 487.933 411.965 488.309C412.375 489.06 412.964 490.126 413.686 491.402C415.126 493.946 417.116 497.367 419.291 500.81C421.435 504.207 423.887 507.832 426.247 510.679C427.411 512.084 428.742 513.532 430.164 514.692C431.246 515.575 433.83 517.536 437.299 517.5L437.141 502.5C439.315 502.477 440.325 503.623 439.645 503.068C439.304 502.79 438.683 502.178 437.796 501.108C436.053 499.005 434.005 496.02 431.974 492.802C429.972 489.632 428.111 486.435 426.742 484.016C426.06 482.81 425.506 481.808 425.124 481.11C424.934 480.762 424.786 480.49 424.688 480.308C424.639 480.217 424.602 480.148 424.578 480.104C424.566 480.082 424.558 480.065 424.552 480.055C424.55 480.05 424.548 480.047 424.547 480.045C424.546 480.044 424.546 480.044 424.546 480.043C424.546 480.043 424.546 480.044 424.546 480.044C424.546 480.044 424.546 480.044 417.928 483.572ZM460.218 488.273C471.582 484.144 479.647 476.258 489.077 467.638L478.957 456.566C468.756 465.89 463.052 471.284 455.095 474.175L460.218 488.273ZM437.299 517.5C439.283 517.479 440.87 516.803 441.859 516.271C442.899 515.711 443.787 515.03 444.495 514.417C445.905 513.195 447.253 511.668 448.455 510.164C450.893 507.114 453.47 503.222 455.752 499.547C458.061 495.828 460.188 492.133 461.732 489.383C462.506 488.003 463.138 486.852 463.579 486.043C463.799 485.637 463.972 485.317 464.091 485.096C464.15 484.985 464.196 484.899 464.228 484.84C464.244 484.81 464.256 484.787 464.265 484.771C464.269 484.763 464.272 484.756 464.275 484.752C464.276 484.749 464.277 484.747 464.278 484.746C464.278 484.745 464.279 484.744 464.279 484.744C464.279 484.743 464.28 484.743 457.656 481.224C451.033 477.705 451.033 477.705 451.033 477.704C451.033 477.705 451.033 477.704 451.033 477.705C451.033 477.705 451.033 477.705 451.032 477.707C451.031 477.709 451.029 477.713 451.026 477.719C451.02 477.73 451.01 477.748 450.997 477.773C450.971 477.822 450.93 477.897 450.877 477.997C450.77 478.196 450.61 478.493 450.403 478.874C449.988 479.635 449.388 480.728 448.651 482.042C447.171 484.679 445.161 488.168 443.008 491.636C440.827 495.148 438.619 498.446 436.739 500.798C435.783 501.994 435.089 502.719 434.674 503.079C434.469 503.256 434.498 503.198 434.746 503.065C434.943 502.959 435.804 502.514 437.141 502.5L437.299 517.5ZM437.103 491.856L438.049 491.785L436.925 476.827L435.979 476.898L437.103 491.856ZM438.048 491.785C446.541 491.147 453.609 490.674 460.218 488.273L455.095 474.175C450.828 475.725 446.046 476.142 436.925 476.827L438.048 491.785ZM437.104 491.856C437.422 491.832 437.737 491.808 438.048 491.785L436.925 476.827C436.614 476.85 436.298 476.874 435.978 476.898L437.104 491.856ZM319.547 415.533C314.523 415.88 310.575 419.044 308.424 422.393C306.266 425.753 304.749 431.312 308.029 436.447L320.67 428.373C321.083 429.02 321.164 429.692 321.125 430.116C321.092 430.474 320.991 430.583 321.045 430.5C321.093 430.425 321.163 430.362 321.189 430.344C321.217 430.326 321.024 430.467 320.581 430.497L319.547 415.533ZM308.029 436.447C310.746 440.7 315.563 442.825 319.8 443.088C324.321 443.369 330.164 441.542 332.901 435.509L319.241 429.312C319.312 429.154 319.442 428.943 319.646 428.732C319.848 428.524 320.067 428.373 320.264 428.273C320.639 428.085 320.833 428.124 320.73 428.117C320.632 428.111 320.484 428.072 320.378 428.015C320.257 427.951 320.435 428.004 320.67 428.373L308.029 436.447ZM332.901 435.509C337.473 425.43 329.391 414.853 319.547 415.533L320.581 430.497C320.129 430.528 319.8 430.414 319.628 430.324C319.465 430.239 319.385 430.15 319.339 430.085C319.288 430.012 319.225 429.886 319.205 429.702C319.194 429.609 319.197 429.517 319.209 429.436C319.222 429.353 319.241 429.31 319.241 429.312L332.901 435.509ZM359.691 415.239C354.668 415.586 350.719 418.751 348.568 422.1C346.41 425.46 344.893 431.018 348.174 436.154L360.815 428.079C361.228 428.726 361.308 429.398 361.27 429.822C361.237 430.181 361.136 430.289 361.189 430.206C361.237 430.132 361.307 430.068 361.334 430.051C361.362 430.032 361.168 430.173 360.725 430.204L359.691 415.239ZM348.174 436.154C350.89 440.407 355.708 442.532 359.944 442.795C364.465 443.076 370.308 441.248 373.045 435.215L359.385 429.018C359.457 428.86 359.586 428.649 359.791 428.439C359.993 428.23 360.211 428.079 360.409 427.98C360.783 427.791 360.977 427.83 360.875 427.824C360.776 427.818 360.629 427.778 360.522 427.721C360.402 427.658 360.579 427.71 360.815 428.079L348.174 436.154ZM373.045 435.215C377.617 425.137 369.535 414.559 359.691 415.239L360.725 430.204C360.274 430.235 359.945 430.12 359.772 430.03C359.609 429.945 359.529 429.857 359.484 429.792C359.433 429.719 359.37 429.593 359.349 429.408C359.338 429.315 359.341 429.224 359.354 429.142C359.367 429.06 359.386 429.017 359.385 429.018L373.045 435.215Z" fill="white"/>
</svg>
