<svg width="700" height="900" viewBox="0 0 700 900" fill="none" xmlns="http://www.w3.org/2000/svg">
<path d="M228.807 426.765C228.234 424.506 211.98 430.238 199.775 433.278C187.57 436.317 169.804 437.837 160.126 437.981C150.449 438.126 127.465 434.426 118.889 431.686C110.312 428.945 99.8228 422.206 91.8064 420.903C83.79 419.601 78.0855 434.942 78.0845 441.817C78.0836 448.691 76.8559 459.474 83.789 468.881L83.8796 469.004C90.7781 478.365 97.1884 487.063 105.817 491.242C114.483 495.439 148.86 498.044 160.126 496.597C171.393 495.15 192.842 491.893 200.036 489.325C207.23 486.757 224.726 477.777 226.28 476.118C227.834 474.459 229.381 429.024 228.807 426.765Z" fill="white"/>
<path d="M462.824 420.218C462.679 417.575 483.367 426.588 496.387 428.622C509.407 430.656 524.81 433.897 541.445 431.427C558.08 428.958 578.488 423.016 590.194 416.611C601.9 410.207 606.213 404.959 608.831 404.033C611.45 403.106 621.077 422.014 621 434.746C620.923 447.478 617.38 458.437 613.76 465.227C610.141 472.018 594.584 483.825 584.418 485.136C574.253 486.448 564.087 487.605 549.839 487.759C535.592 487.914 518.033 486.584 507.174 485.136C496.315 483.689 477.5 478.336 475.753 476.416C474.005 474.497 462.968 422.862 462.824 420.218Z" fill="white"/>
<path d="M83.789 468.881C76.8559 459.474 78.0836 448.691 78.0845 441.817C78.0855 434.942 83.79 419.601 91.8064 420.903C99.8228 422.206 110.312 428.945 118.889 431.686C127.465 434.426 150.449 438.126 160.126 437.981C169.804 437.837 187.57 436.317 199.775 433.278C211.98 430.238 228.234 424.506 228.807 426.765C229.381 429.024 227.834 474.459 226.28 476.118C224.726 477.777 207.23 486.757 200.036 489.325C192.842 491.893 171.393 495.15 160.126 496.597C148.86 498.044 114.483 495.439 105.817 491.242C97.1884 487.063 90.7781 478.365 83.8796 469.004M83.789 468.881L83.8796 469.004M83.789 468.881C83.8192 468.922 83.8494 468.963 83.8796 469.004M462.824 420.218C462.679 417.575 483.367 426.588 496.387 428.622C509.407 430.656 524.81 433.897 541.445 431.427C558.08 428.958 578.488 423.016 590.194 416.611C601.9 410.207 606.213 404.959 608.831 404.033C611.45 403.106 621.077 422.014 621 434.746C620.923 447.478 617.38 458.437 613.76 465.227C610.141 472.018 594.584 483.825 584.418 485.136C574.253 486.448 564.087 487.605 549.839 487.759C535.592 487.914 518.033 486.584 507.174 485.136C496.315 483.689 477.5 478.336 475.753 476.416C474.005 474.497 462.968 422.862 462.824 420.218Z" stroke="white" stroke-width="3" stroke-linecap="round"/>
</svg>
