<svg width="700" height="900" viewBox="0 0 700 900" fill="none" xmlns="http://www.w3.org/2000/svg">
<path d="M99.1007 556.581L100.001 557C100.001 557 100.016 556.526 100.061 556.222C100.105 555.918 100.197 555.552 100.255 555.298C100.314 555.044 100.35 554.657 100.461 554.376C100.571 554.094 100.776 553.704 100.9 553.58C101.025 553.455 101.055 553.41 101.236 553.363C101.416 553.317 101.624 553.312 101.851 553.156C102.079 553 102.153 552.734 102.086 552.502C102.019 552.27 101.704 552.081 101.704 552.081C101.513 551.939 101.349 551.931 101.173 551.74C100.998 551.548 100.742 551.211 100.163 550.95C99.5831 550.69 98.9627 550.482 98.4974 550.498C98.0321 550.515 97.1139 550.752 96.7955 551.163C96.4771 551.575 96.362 552.191 96.2376 552.661C96.1133 553.132 95.7413 554.409 95.7413 554.409L96.534 554.738M99.1007 556.581L99.3791 555.059C99.3791 555.059 99.5158 554.318 99.6036 553.895C99.6913 553.472 99.7709 553.146 99.9342 552.897C100.097 552.649 100.306 552.721 100.558 552.665C100.809 552.608 99.9978 552.227 99.4852 552.152C98.9725 552.076 98.428 552.102 98.0933 552.258C97.7586 552.414 97.5055 552.764 97.3014 553.075C97.2208 553.198 97.0536 553.481 96.9177 553.781C96.7097 554.241 96.534 554.738 96.534 554.738M99.1007 556.581L98.0565 555.76M96.534 554.738L97.1545 555.121M98.0565 555.76C98.0565 555.76 98.228 555.43 98.4076 555.059C98.5872 554.687 98.7423 554.208 98.7423 554.208C98.7423 554.208 98.8443 553.948 98.9015 553.655C98.9586 553.361 99.0076 553.066 98.8117 552.99C98.6158 552.913 98.379 553.121 98.2035 553.312C98.028 553.504 97.7137 554.09 97.7137 554.09C97.5908 554.367 97.4892 554.538 97.3667 554.758C97.2443 554.978 97.1545 555.121 97.1545 555.121M98.0565 555.76C98.0565 555.76 97.4924 555.357 97.1545 555.121M86.7631 556.351C86.5622 556.486 86.187 556.801 85.9382 556.92C85.9382 556.92 85.5652 556.341 85.3389 555.998C85.1126 555.654 84.864 555.368 84.6663 554.995C84.4687 554.621 84.4081 554.255 84.3539 553.695C84.2997 553.135 84.3794 552.48 84.5261 552.023C84.6727 551.566 85.0967 550.715 85.272 550.429C85.4473 550.142 86.4642 549.112 86.9838 549.338C87.5034 549.564 87.7604 550.538 87.8221 550.775C87.8839 551.013 87.9439 551.634 88.0931 552.023C88.2422 552.413 88.6127 552.776 88.6127 552.776C88.6127 552.776 88.9793 553.159 89.1865 553.374C89.3937 553.589 89.7424 553.904 89.7424 553.904C89.7424 553.904 89.6098 554.003 89.4281 554.165C89.2463 554.326 89.0354 554.494 89.0354 554.494M86.7631 556.351C86.7631 556.351 86.6076 556.134 86.4909 555.952C86.3743 555.769 86.1623 555.531 85.9913 555.271C85.8202 555.011 85.653 554.714 85.581 554.384C85.5091 554.054 85.4974 553.465 85.5286 553.224C85.5597 552.984 85.7132 552.485 85.9485 552.008C86.1837 551.531 86.4384 551.119 86.6698 551.182C86.9011 551.244 86.9187 551.646 87.0009 551.924C87.083 552.202 87.2274 552.503 87.4116 552.761C87.5901 553.012 87.6962 553.138 87.8974 553.379M86.7631 556.351C86.7631 556.351 87.319 555.949 87.7215 555.59M89.0354 554.494C89.0354 554.494 88.8505 554.632 88.6987 554.763C88.5468 554.895 88.4406 554.954 88.394 554.995M89.0354 554.494C89.0354 554.494 88.7609 554.291 88.5742 554.127C88.3875 553.963 88.1311 553.658 87.917 553.402M87.917 553.402L87.8974 553.379M87.917 553.402C87.9103 553.394 87.9038 553.386 87.8974 553.379M87.7215 555.59C87.7215 555.59 87.5585 555.402 87.4191 555.213C87.2797 555.024 87.1527 554.843 87.0382 554.637C86.9237 554.43 86.7893 554.175 86.7121 553.904C86.6349 553.634 86.5702 553.25 86.7121 553.224C86.854 553.198 87.0183 553.367 87.1926 553.576C87.3668 553.785 87.5658 554.065 87.7215 554.247C87.8771 554.428 88.1484 554.725 88.1484 554.725L88.394 554.995M87.7215 555.59C87.9536 555.383 88.1968 555.168 88.394 554.995" stroke="white" stroke-opacity="0.11" stroke-width="3"/>
</svg>
