<svg width="157" height="157" viewBox="0 0 157 157" fill="none" xmlns="http://www.w3.org/2000/svg">
<g clip-path="url(#clip0_151_2)">
<path fill-rule="evenodd" clip-rule="evenodd" d="M78.5 157C121.854 157 157 121.854 157 78.5C157 35.1456 121.854 0 78.5 0C35.1456 0 0 35.1456 0 78.5C0 121.854 35.1456 157 78.5 157ZM78.501 124.686C104.008 124.686 124.686 104.008 124.686 78.501C124.686 52.9939 104.008 32.3164 78.501 32.3164C52.9939 32.3164 32.3164 52.9939 32.3164 78.501C32.3164 104.008 52.9939 124.686 78.501 124.686Z" fill="#285FF3"/>
<path d="M65.1387 69.1387C65.1387 66.9295 66.9295 65.1387 69.1387 65.1387H87.8613C90.0705 65.1387 91.8613 66.9295 91.8613 69.1387V87.8613C91.8613 90.0705 90.0705 91.8613 87.8613 91.8613H69.1387C66.9295 91.8613 65.1387 90.0705 65.1387 87.8613V69.1387Z" fill="#285FF3"/>
</g>
<defs>
<clipPath id="clip0_151_2">
<rect width="157" height="157" fill="white"/>
</clipPath>
</defs>
</svg>
