<svg width="701" height="901" viewBox="0 0 701 901" fill="none" xmlns="http://www.w3.org/2000/svg">
<path d="M364.834 500.617C365.483 500.644 368.669 504.208 371.936 506.288C375.204 508.367 382.85 509.501 382.85 509.501C382.85 509.501 383.25 518.628 381.09 522.76C378.929 526.891 373.07 533.102 366.535 533.345C360 533.588 354.023 528.464 351.44 525.055C348.857 521.645 349.28 510.122 349.28 510.122C351.548 509.663 355.194 509.447 358.354 506.747C361.513 504.046 364.186 500.59 364.834 500.617Z" fill="#F40430"/>
<path d="M362.322 481.354C358.779 481.412 352.358 482.884 352.293 486.03C352.227 489.177 358.792 491.023 362.884 491.068C366.977 491.113 373.277 489.672 373.319 486.03C373.361 482.389 365.865 481.296 362.322 481.354Z" fill="black"/>
<path d="M331.867 495.94C331.895 495.112 331.247 494.418 330.419 494.389C329.591 494.361 328.897 495.009 328.869 495.837L331.867 495.94ZM403.344 495.879C403.339 495.051 402.663 494.383 401.835 494.388C401.006 494.393 400.339 495.069 400.344 495.897L403.344 495.879ZM328.869 495.837C328.79 498.119 328.898 500.99 329.789 503.636C330.694 506.321 332.436 508.847 335.622 510.206L336.799 507.446C334.595 506.506 333.34 504.779 332.632 502.678C331.911 500.537 331.793 498.089 331.867 495.94L328.869 495.837ZM335.622 510.206C338.584 511.469 342.083 511.798 344.745 511.836C346.093 511.855 347.266 511.799 348.104 511.739C348.523 511.709 348.86 511.677 349.094 511.653C349.212 511.64 349.304 511.63 349.368 511.622C349.4 511.619 349.425 511.616 349.443 511.613C349.452 511.612 349.459 511.611 349.464 511.611C349.466 511.61 349.469 511.61 349.47 511.61C349.471 511.61 349.472 511.61 349.472 511.61C349.473 511.61 349.473 511.609 349.473 511.609C349.474 511.609 349.474 511.609 349.28 510.122C349.086 508.635 349.086 508.635 349.086 508.635C349.086 508.635 349.086 508.635 349.086 508.635C349.087 508.635 349.087 508.635 349.086 508.635C349.086 508.635 349.086 508.635 349.085 508.635C349.082 508.635 349.078 508.636 349.073 508.636C349.061 508.638 349.042 508.64 349.017 508.643C348.966 508.649 348.887 508.658 348.784 508.669C348.578 508.69 348.272 508.719 347.887 508.747C347.116 508.802 346.032 508.854 344.787 508.836C342.261 508.8 339.225 508.481 336.799 507.446L335.622 510.206ZM364.772 502.116C364.519 502.105 364.357 502.024 364.347 502.019C364.313 502.004 364.314 502 364.357 502.029C364.444 502.088 364.585 502.195 364.793 502.37C365.209 502.72 365.739 503.204 366.401 503.799C367.684 504.951 369.381 506.439 371.131 507.553L372.742 505.022C371.224 504.057 369.694 502.723 368.405 501.566C367.782 501.007 367.189 500.465 366.723 500.073C366.49 499.878 366.25 499.687 366.026 499.536C365.914 499.461 365.776 499.377 365.624 499.305C365.494 499.244 365.231 499.132 364.897 499.118L364.772 502.116ZM371.131 507.553C373.004 508.745 375.963 509.593 378.276 510.134C379.468 510.413 380.552 510.625 381.337 510.767C381.731 510.838 382.051 510.892 382.274 510.929C382.386 510.947 382.473 510.961 382.533 510.97C382.564 510.975 382.587 510.978 382.603 510.981C382.611 510.982 382.618 510.983 382.622 510.984C382.624 510.984 382.626 510.984 382.627 510.984C382.628 510.984 382.629 510.984 382.629 510.985C382.629 510.985 382.63 510.985 382.63 510.985C382.63 510.985 382.63 510.985 382.85 509.501C383.07 508.017 383.07 508.017 383.07 508.017C383.07 508.017 383.07 508.017 383.07 508.017C383.07 508.017 383.07 508.017 383.07 508.017C383.069 508.017 383.068 508.017 383.067 508.017C383.064 508.016 383.059 508.016 383.053 508.015C383.04 508.013 383.02 508.01 382.993 508.005C382.94 507.997 382.86 507.985 382.756 507.968C382.548 507.934 382.246 507.883 381.871 507.815C381.121 507.68 380.089 507.478 378.961 507.213C376.634 506.668 374.136 505.91 372.742 505.022L371.131 507.553ZM382.923 510.999C383.701 510.961 384.7 510.987 385.976 510.991C387.212 510.995 388.63 510.976 390.092 510.835C392.976 510.558 396.254 509.79 398.707 507.559L396.688 505.34C394.955 506.916 392.468 507.593 389.805 507.849C388.492 507.975 387.19 507.995 385.985 507.991C384.821 507.988 383.658 507.96 382.777 508.003L382.923 510.999ZM398.707 507.559C401.118 505.366 402.253 502.39 402.8 500.087C403.076 498.92 403.212 497.884 403.278 497.136C403.312 496.761 403.328 496.457 403.336 496.241C403.34 496.133 403.342 496.048 403.343 495.987C403.343 495.956 403.343 495.932 403.344 495.914C403.344 495.905 403.344 495.897 403.344 495.892C403.344 495.889 403.344 495.886 403.344 495.884C403.344 495.883 403.344 495.882 403.344 495.882C403.344 495.881 403.344 495.881 403.344 495.88C403.344 495.88 403.344 495.879 401.844 495.888C400.344 495.897 400.344 495.896 400.344 495.896C400.344 495.896 400.344 495.896 400.344 495.895C400.344 495.895 400.344 495.895 400.344 495.894C400.344 495.894 400.344 495.894 400.344 495.894C400.344 495.895 400.344 495.898 400.344 495.901C400.344 495.909 400.343 495.923 400.343 495.943C400.343 495.983 400.341 496.046 400.338 496.13C400.332 496.299 400.319 496.552 400.29 496.87C400.233 497.508 400.117 498.398 399.881 499.395C399.4 501.421 398.463 503.726 396.688 505.34L398.707 507.559ZM382.85 509.501C381.352 509.567 381.352 509.566 381.352 509.566C381.352 509.566 381.352 509.566 381.352 509.566C381.352 509.566 381.352 509.566 381.352 509.567C381.352 509.567 381.352 509.568 381.352 509.57C381.352 509.574 381.352 509.579 381.352 509.587C381.353 509.602 381.354 509.626 381.355 509.657C381.357 509.721 381.36 509.816 381.364 509.94C381.37 510.188 381.377 510.55 381.379 510.998C381.382 511.895 381.365 513.131 381.283 514.49C381.112 517.293 380.677 520.312 379.76 522.065L382.419 523.455C383.663 521.075 384.108 517.465 384.277 514.672C384.365 513.232 384.383 511.929 384.379 510.986C384.377 510.513 384.37 510.129 384.363 509.862C384.359 509.728 384.356 509.624 384.353 509.551C384.352 509.515 384.351 509.487 384.35 509.468C384.35 509.458 384.349 509.45 384.349 509.445C384.349 509.442 384.349 509.44 384.349 509.438C384.349 509.438 384.349 509.437 384.349 509.436C384.349 509.436 384.349 509.436 384.349 509.436C384.349 509.435 384.349 509.435 382.85 509.501ZM379.76 522.065C378.777 523.945 376.903 526.375 374.5 528.352C372.09 530.335 369.298 531.741 366.479 531.846L366.591 534.844C370.307 534.706 373.712 532.885 376.406 530.669C379.107 528.447 381.242 525.705 382.419 523.455L379.76 522.065ZM366.479 531.846C363.617 531.952 360.789 530.882 358.311 529.304C355.837 527.729 353.826 525.721 352.636 524.149L350.244 525.961C351.636 527.798 353.906 530.057 356.7 531.835C359.49 533.611 362.918 534.98 366.591 534.844L366.479 531.846ZM352.636 524.149C352.201 523.576 351.796 522.494 351.482 520.978C351.178 519.513 350.995 517.829 350.888 516.212C350.782 514.6 350.755 513.087 350.754 511.975C350.754 511.42 350.76 510.967 350.766 510.654C350.77 510.498 350.773 510.377 350.775 510.296C350.776 510.255 350.777 510.224 350.778 510.204C350.778 510.194 350.778 510.187 350.779 510.183C350.779 510.18 350.779 510.179 350.779 510.178C350.779 510.177 350.779 510.177 350.779 510.177C350.779 510.177 350.779 510.177 350.779 510.177C350.779 510.177 350.779 510.177 349.28 510.122C347.781 510.067 347.781 510.067 347.781 510.068C347.781 510.068 347.781 510.068 347.781 510.068C347.781 510.069 347.781 510.07 347.781 510.071C347.781 510.072 347.781 510.075 347.78 510.078C347.78 510.085 347.78 510.094 347.779 510.106C347.779 510.13 347.778 510.164 347.776 510.209C347.774 510.298 347.77 510.428 347.767 510.593C347.76 510.924 347.754 511.398 347.754 511.977C347.755 513.132 347.783 514.713 347.895 516.408C348.006 518.097 348.201 519.933 348.544 521.588C348.877 523.192 349.387 524.829 350.244 525.961L352.636 524.149ZM362.298 479.854C360.379 479.886 357.716 480.293 355.478 481.129C354.361 481.546 353.258 482.104 352.403 482.85C351.538 483.604 350.821 484.653 350.793 485.999L353.792 486.062C353.797 485.834 353.907 485.519 354.375 485.111C354.853 484.694 355.589 484.29 356.528 483.939C358.403 483.238 360.722 482.88 362.347 482.854L362.298 479.854ZM350.793 485.999C350.765 487.362 351.469 488.451 352.329 489.243C353.183 490.028 354.308 490.638 355.471 491.104C357.8 492.039 360.649 492.543 362.868 492.568L362.901 489.568C361.027 489.547 358.548 489.106 356.588 488.32C355.606 487.926 354.846 487.481 354.36 487.034C353.88 486.593 353.788 486.271 353.792 486.062L350.793 485.999ZM362.868 492.568C365.059 492.592 367.854 492.224 370.162 491.33C372.342 490.486 374.786 488.873 374.819 486.048L371.819 486.013C371.809 486.829 371.083 487.757 369.079 488.533C367.204 489.259 364.803 489.589 362.901 489.568L362.868 492.568ZM374.819 486.048C374.836 484.546 374.052 483.398 373.065 482.593C372.103 481.808 370.855 481.261 369.612 480.873C367.115 480.094 364.191 479.823 362.298 479.854L362.347 482.854C363.997 482.827 366.592 483.073 368.718 483.737C369.787 484.07 370.626 484.475 371.168 484.918C371.686 485.34 371.823 485.694 371.819 486.013L374.819 486.048ZM349.577 511.592C351.613 511.18 355.792 510.909 359.328 507.887L357.379 505.606C354.596 507.985 351.483 508.146 348.982 508.652L349.577 511.592ZM359.328 507.887C360.976 506.478 362.487 504.882 363.621 503.695C364.202 503.086 364.662 502.608 365.012 502.284C365.19 502.119 365.297 502.033 365.35 501.998C365.375 501.98 365.353 501.999 365.291 502.026C365.245 502.046 365.053 502.127 364.772 502.116L364.897 499.118C364.535 499.103 364.246 499.208 364.088 499.277C363.914 499.353 363.765 499.446 363.649 499.526C363.419 499.684 363.187 499.885 362.973 500.083C362.541 500.483 362.013 501.034 361.451 501.623C360.296 502.833 358.891 504.314 357.379 505.606L359.328 507.887Z" fill="black"/>
</svg>
