<svg width="701" height="901" viewBox="0 0 701 901" fill="none" xmlns="http://www.w3.org/2000/svg">
<path d="M362.028 524.168C358.856 524.135 355.979 523.983 353.368 523.73C353.368 523.73 344.688 532.004 343.687 547.51C343.573 549.276 343.646 550.935 343.874 552.486C346.577 559.3 354.892 561.985 357.785 562.45C360.677 562.915 368.94 562.399 372.762 557.699C376.584 552.999 378.867 550.285 378.867 544.453C378.867 538.621 378.451 532.651 375.696 526.043C374.409 524.474 373.48 523.73 373.48 523.73C370.131 524.052 366.333 524.212 362.028 524.168Z" fill="#DE4037"/>
<path d="M363.528 570.018C371.031 569.851 384.036 564.182 383.202 547.51C382.638 536.229 378.386 529.327 375.696 526.043C378.451 532.651 378.867 538.621 378.867 544.453C378.867 550.285 376.584 552.999 372.762 557.699C368.94 562.399 360.677 562.915 357.785 562.45C354.892 561.985 346.577 559.3 343.874 552.486C344.188 554.62 344.798 556.552 345.626 558.286C349.479 566.358 358.056 570.14 363.528 570.018Z" fill="#951711"/>
<path d="M363.528 485.986C344.646 485.986 336.346 492.3 332.183 498.115C335.684 501.826 352.358 512.997 362.028 513.33C371.698 513.664 390.745 501.749 393.873 498.115C389.774 491.821 381.646 485.987 363.528 485.986Z" fill="#FABC3C"/>
<path d="M332.183 498.115C329.876 501.337 328.29 504.405 328.182 506.161C327.91 510.603 329.349 521.409 353.368 523.73C355.979 523.983 358.856 524.135 362.028 524.168C366.333 524.212 370.131 524.052 373.48 523.73C395.294 521.635 398.065 512.67 397.874 508.495C397.79 506.653 396.412 502.015 393.873 498.115C390.745 501.749 371.698 513.664 362.028 513.33C352.358 512.997 335.684 501.826 332.183 498.115Z" fill="#FABC3C"/>
<path d="M332.183 498.115C336.346 492.3 344.646 485.986 363.528 485.986C381.646 485.987 389.774 491.821 393.873 498.115M332.183 498.115C329.876 501.337 328.29 504.405 328.182 506.161C327.91 510.603 329.349 521.409 353.368 523.73M332.183 498.115C335.684 501.826 352.358 512.997 362.028 513.33C371.698 513.664 390.745 501.749 393.873 498.115M393.873 498.115C396.412 502.015 397.79 506.653 397.874 508.495C398.065 512.67 395.294 521.635 373.48 523.73M353.368 523.73C355.979 523.983 358.856 524.135 362.028 524.168C366.333 524.212 370.131 524.052 373.48 523.73M353.368 523.73C353.368 523.73 344.688 532.004 343.687 547.51C342.687 563.015 356.026 570.185 363.528 570.018C371.031 569.851 384.036 564.182 383.202 547.51C382.368 530.837 373.48 523.73 373.48 523.73" stroke="black" stroke-width="3"/>
</svg>
