<svg width="701" height="901" viewBox="0 0 701 901" fill="none" xmlns="http://www.w3.org/2000/svg">
<path d="M362.262 493.524C359.968 497.902 359.874 499.732 354.843 504.622C349.811 509.513 347.262 511.04 341.585 511.667C341.585 511.667 341.708 521.359 343.095 525.208C344.482 529.056 347.257 532.502 350.971 535.276C354.685 538.051 359.324 539.407 364.187 539.132C369.05 538.856 374.42 536.44 377.301 533.116C380.181 529.793 382.117 527.937 383.773 522.702C385.428 517.466 384.31 509.545 384.31 509.545C382.072 509.59 376.881 507.8 371.824 504.622C366.768 501.445 365.395 499.834 362.262 493.524Z" fill="#FF4949"/>
<path d="M355.401 480.502C355.401 480.502 357.46 484.082 362.262 483.814M362.262 483.814C366.096 483.903 369.811 479.025 369.811 479.025M362.262 483.814V493.524M362.262 493.524C359.968 497.902 359.874 499.732 354.843 504.622C349.811 509.513 347.262 511.04 341.585 511.667M362.262 493.524C365.395 499.834 366.768 501.445 371.824 504.622C376.881 507.8 382.072 509.59 384.31 509.545M341.585 511.667C336.972 511.504 335.581 509.402 334.789 507.246M341.585 511.667C341.585 511.667 341.708 521.359 343.095 525.208C344.482 529.056 347.257 532.502 350.971 535.276C354.685 538.051 359.324 539.407 364.187 539.132C369.05 538.856 374.42 536.44 377.301 533.116C380.181 529.793 382.117 527.937 383.773 522.702C385.428 517.466 384.31 509.545 384.31 509.545M384.31 509.545C386.547 509.5 388.919 508.202 391.783 504.622" stroke="black" stroke-width="3" stroke-linecap="round"/>
</svg>
