<svg width="700" height="900" viewBox="0 0 700 900" fill="none" xmlns="http://www.w3.org/2000/svg">
<path d="M292.715 521.331C292.715 521.331 299.524 537.772 303.047 537.96C306.569 538.148 313.882 521.208 313.882 521.208C313.882 521.208 307.183 522.629 303.534 522.629C299.884 522.629 292.715 521.331 292.715 521.331Z" fill="white"/>
<path d="M410.621 521.571C410.621 521.571 419.673 538.521 422.993 538.486C426.313 538.451 434.298 521.208 434.298 521.208C434.298 521.208 427.185 522.629 422.993 522.703C418.801 522.776 410.621 521.571 410.621 521.571Z" fill="white"/>
<path d="M276.359 508.637C275.574 507.861 274.307 507.869 273.531 508.655C272.755 509.441 272.763 510.707 273.549 511.483L276.359 508.637ZM361.956 513.724L361.949 515.724L361.956 513.724ZM454.35 509.307C455.166 508.563 455.224 507.298 454.48 506.482C453.735 505.666 452.47 505.608 451.654 506.352L454.35 509.307ZM473.764 473.625C472.788 474.143 472.418 475.354 472.936 476.33C473.455 477.305 474.666 477.675 475.641 477.157L473.764 473.625ZM574.91 461.693C574.916 460.589 574.025 459.688 572.921 459.683C571.816 459.677 570.916 460.568 570.91 461.672L574.91 461.693ZM251.91 480.993C252.629 481.832 253.891 481.93 254.73 481.211C255.569 480.493 255.667 479.23 254.948 478.391L251.91 480.993ZM163.353 469.296C163.463 468.197 162.662 467.217 161.563 467.106C160.464 466.995 159.483 467.796 159.373 468.895L163.353 469.296ZM313.882 521.208L313.49 519.246L313.478 519.249L313.467 519.251L313.882 521.208ZM368.432 490.537C368.432 491.641 369.328 492.537 370.432 492.537C371.537 492.537 372.432 491.641 372.432 490.537H368.432ZM378.472 487.318C379.503 487.715 380.66 487.201 381.057 486.17C381.453 485.139 380.939 483.982 379.908 483.585L378.472 487.318ZM349.236 490.778C349.369 491.874 350.366 492.655 351.462 492.522C352.559 492.389 353.34 491.393 353.207 490.296L349.236 490.778ZM340.997 484.137C340.011 484.635 339.615 485.838 340.113 486.824C340.611 487.81 341.814 488.206 342.8 487.708L340.997 484.137ZM475.641 477.157C480.276 474.693 485.147 470.769 495.805 469.963L495.503 465.974C483.8 466.859 478.031 471.356 473.764 473.625L475.641 477.157ZM495.805 469.963C500.547 469.604 505.417 472.484 510.672 476.595C513.323 478.668 515.708 480.747 518.35 482.865C520.883 484.896 523.479 486.813 526.078 488.123L527.878 484.55C525.671 483.439 523.345 481.743 520.852 479.744C518.466 477.832 515.717 475.463 513.136 473.444C507.927 469.369 501.942 465.487 495.503 465.974L495.805 469.963ZM526.078 488.123C536.146 493.195 546.053 494.041 556.562 490.274L555.212 486.508C545.804 489.881 537.034 489.163 527.878 484.55L526.078 488.123ZM556.562 490.274C562.09 488.292 566.652 483.883 569.819 478.709C572.99 473.528 574.88 467.39 574.91 461.693L570.91 461.672C570.885 466.555 569.244 471.986 566.407 476.621C563.566 481.264 559.644 484.919 555.212 486.508L556.562 490.274ZM253.429 479.692C254.948 478.391 254.948 478.391 254.947 478.39C254.947 478.39 254.946 478.389 254.946 478.389C254.945 478.388 254.944 478.387 254.943 478.385C254.941 478.383 254.938 478.38 254.935 478.376C254.929 478.369 254.921 478.36 254.911 478.348C254.891 478.326 254.864 478.296 254.831 478.259C254.763 478.184 254.668 478.08 254.545 477.951C254.299 477.692 253.942 477.333 253.482 476.907C252.562 476.057 251.219 474.932 249.5 473.811C246.07 471.574 241.062 469.299 234.913 469.351L234.946 473.35C240.071 473.308 244.313 475.204 247.315 477.161C248.811 478.137 249.978 479.116 250.766 479.844C251.159 480.208 251.455 480.507 251.649 480.71C251.745 480.811 251.816 480.888 251.86 480.937C251.881 480.961 251.897 480.978 251.905 480.988C251.909 480.993 251.912 480.996 251.913 480.997C251.913 480.997 251.913 480.997 251.913 480.997C251.912 480.996 251.912 480.996 251.912 480.995C251.911 480.995 251.911 480.995 251.911 480.994C251.91 480.994 251.91 480.993 253.429 479.692ZM234.913 469.351C222.765 469.452 212.87 477.418 206.177 485.066L209.187 487.7C215.649 480.316 224.545 473.437 234.946 473.35L234.913 469.351ZM206.177 485.066C203.067 488.621 200.282 490.489 197.342 491.563C194.339 492.66 191.038 492.983 186.716 493.218L186.933 497.212C191.255 496.977 195.095 496.643 198.715 495.32C202.399 493.975 205.721 491.662 209.187 487.7L206.177 485.066ZM186.716 493.218C178.79 493.649 171.052 489.202 167.57 484.53L164.363 486.921C168.585 492.585 177.571 497.721 186.933 497.212L186.716 493.218ZM167.57 484.53C164.016 479.763 162.756 475.212 163.353 469.296L159.373 468.895C158.676 475.805 160.212 481.353 164.363 486.921L167.57 484.53ZM361.949 515.724C371.325 515.759 380.012 517.151 388.061 518.821C396.007 520.469 403.599 522.456 410.3 523.545L410.942 519.597C404.32 518.521 397.145 516.62 388.874 514.904C380.704 513.209 371.721 511.76 361.964 511.724L361.949 515.724ZM410.621 521.571C408.857 522.513 408.857 522.514 408.857 522.514C408.857 522.514 408.857 522.514 408.858 522.515C408.858 522.515 408.858 522.516 408.859 522.518C408.86 522.52 408.862 522.523 408.865 522.528C408.869 522.537 408.876 522.55 408.885 522.566C408.903 522.6 408.93 522.649 408.964 522.713C409.033 522.84 409.134 523.025 409.263 523.261C409.521 523.731 409.892 524.402 410.347 525.205C411.257 526.811 412.51 528.958 413.872 531.111C415.226 533.251 416.722 535.452 418.12 537.136C418.815 537.972 419.536 538.743 420.245 539.32C420.864 539.824 421.848 540.498 423.014 540.486L422.972 536.486C423.308 536.483 423.282 536.634 422.77 536.218C422.349 535.875 421.818 535.328 421.198 534.58C419.965 533.095 418.576 531.065 417.252 528.973C415.936 526.892 414.718 524.805 413.827 523.233C413.382 522.448 413.02 521.795 412.77 521.338C412.645 521.11 412.548 520.932 412.483 520.811C412.45 520.75 412.425 520.704 412.409 520.673C412.401 520.658 412.395 520.647 412.391 520.639C412.389 520.636 412.387 520.633 412.386 520.631C412.386 520.63 412.386 520.63 412.385 520.629C412.385 520.629 412.385 520.629 412.385 520.629C412.385 520.629 412.385 520.629 410.621 521.571ZM434.98 523.088C441.615 520.682 448.119 514.992 454.35 509.307L451.654 506.352C445.297 512.152 439.372 517.24 433.616 519.328L434.98 523.088ZM423.014 540.486C424.199 540.473 425.161 539.759 425.758 539.231C426.439 538.627 427.116 537.83 427.76 536.971C429.056 535.243 430.416 532.992 431.636 530.809C432.864 528.613 433.982 526.425 434.791 524.79C435.196 523.971 435.526 523.289 435.754 522.81C435.868 522.57 435.957 522.381 436.018 522.251C436.049 522.187 436.072 522.137 436.088 522.102C436.096 522.085 436.102 522.072 436.106 522.063C436.108 522.058 436.11 522.055 436.111 522.053C436.112 522.051 436.112 522.05 436.112 522.05C436.113 522.049 436.113 522.049 436.113 522.049C436.113 522.048 436.113 522.048 434.298 521.208C432.483 520.367 432.483 520.367 432.483 520.367C432.483 520.367 432.483 520.367 432.483 520.368C432.483 520.368 432.483 520.368 432.483 520.369C432.482 520.371 432.48 520.374 432.479 520.378C432.475 520.385 432.47 520.397 432.463 520.412C432.448 520.443 432.426 520.49 432.397 520.551C432.34 520.674 432.254 520.856 432.143 521.088C431.922 521.552 431.602 522.217 431.206 523.015C430.414 524.615 429.329 526.739 428.145 528.858C426.953 530.99 425.695 533.058 424.559 534.572C423.988 535.335 423.496 535.89 423.106 536.236C422.63 536.658 422.617 536.49 422.972 536.486L423.014 540.486ZM273.549 511.483C278.998 516.866 284.501 521.208 292.199 523.263L293.231 519.398C286.522 517.607 281.619 513.831 276.359 508.637L273.549 511.483ZM292.715 521.331C290.867 522.096 290.868 522.096 290.868 522.096C290.868 522.097 290.868 522.097 290.868 522.097C290.868 522.098 290.869 522.099 290.869 522.1C290.87 522.103 290.872 522.106 290.873 522.11C290.877 522.119 290.882 522.132 290.889 522.148C290.903 522.181 290.923 522.229 290.949 522.292C291.002 522.416 291.078 522.597 291.177 522.826C291.374 523.285 291.658 523.938 292.01 524.722C292.712 526.286 293.69 528.384 294.784 530.495C295.871 532.592 297.106 534.767 298.326 536.454C298.932 537.294 299.584 538.08 300.259 538.683C300.876 539.235 301.8 539.896 302.94 539.957L303.153 535.963C303.412 535.977 303.353 536.084 302.924 535.7C302.552 535.368 302.094 534.839 301.567 534.111C300.52 532.662 299.391 530.692 298.336 528.655C297.287 526.632 296.343 524.607 295.659 523.083C295.317 522.323 295.042 521.69 294.853 521.249C294.758 521.028 294.685 520.856 294.636 520.739C294.611 520.681 294.593 520.637 294.581 520.607C294.574 520.593 294.57 520.582 294.567 520.575C294.565 520.571 294.564 520.569 294.564 520.567C294.563 520.566 294.563 520.566 294.563 520.566C294.563 520.565 294.563 520.565 294.563 520.565C294.563 520.565 294.563 520.565 292.715 521.331ZM314.273 523.169C326.99 520.63 342.878 515.654 361.949 515.724L361.964 511.724C342.356 511.652 325.726 516.804 313.49 519.246L314.273 523.169ZM302.94 539.957C304.156 540.022 305.158 539.366 305.8 538.834C306.507 538.248 307.188 537.465 307.821 536.628C309.095 534.944 310.396 532.738 311.546 530.603C312.704 528.452 313.746 526.304 314.496 524.698C314.872 523.894 315.176 523.223 315.387 522.751C315.492 522.515 315.574 522.329 315.63 522.202C315.658 522.138 315.68 522.088 315.695 522.054C315.702 522.037 315.708 522.024 315.712 522.015C315.713 522.011 315.715 522.007 315.716 522.005C315.717 522.004 315.717 522.003 315.717 522.002C315.717 522.001 315.718 522.001 315.718 522.001C315.718 522.001 315.718 522 313.882 521.208C312.046 520.415 312.046 520.415 312.046 520.415C312.046 520.415 312.046 520.415 312.045 520.415C312.045 520.416 312.045 520.416 312.045 520.417C312.044 520.419 312.043 520.421 312.041 520.425C312.038 520.432 312.033 520.443 312.027 520.458C312.014 520.489 311.994 520.534 311.967 520.594C311.915 520.715 311.836 520.892 311.735 521.119C311.532 521.573 311.237 522.224 310.872 523.005C310.141 524.57 309.134 526.645 308.024 528.706C306.906 530.783 305.719 532.776 304.63 534.216C304.082 534.941 303.614 535.45 303.247 535.754C302.815 536.112 302.817 535.945 303.153 535.963L302.94 539.957ZM370.432 490.537C372.432 490.537 372.432 490.538 372.432 490.539C372.432 490.539 372.432 490.54 372.432 490.54C372.432 490.542 372.432 490.543 372.432 490.544C372.432 490.546 372.432 490.548 372.432 490.55C372.432 490.553 372.432 490.556 372.432 490.559C372.432 490.564 372.432 490.566 372.432 490.566C372.432 490.567 372.432 490.559 372.433 490.542C372.435 490.51 372.44 490.446 372.453 490.356C372.478 490.177 372.531 489.906 372.64 489.59C372.856 488.965 373.285 488.182 374.165 487.53L371.784 484.315C370.122 485.547 369.279 487.071 368.86 488.282C368.652 488.884 368.545 489.414 368.491 489.805C368.464 490.001 368.449 490.166 368.441 490.289C368.437 490.351 368.435 490.404 368.434 490.445C368.433 490.466 368.433 490.484 368.432 490.499C368.432 490.507 368.432 490.514 368.432 490.52C368.432 490.523 368.432 490.526 368.432 490.529C368.432 490.53 368.432 490.532 368.432 490.533C368.432 490.534 368.432 490.535 368.432 490.535C368.432 490.536 368.432 490.537 370.432 490.537ZM374.165 487.53C374.867 487.01 375.834 486.875 376.846 486.972C377.327 487.018 377.754 487.11 378.058 487.192C378.209 487.233 378.325 487.269 378.398 487.293C378.434 487.305 378.459 487.314 378.472 487.319C378.478 487.321 378.482 487.322 378.482 487.322C378.482 487.322 378.481 487.322 378.479 487.321C378.479 487.321 378.478 487.321 378.476 487.32C378.476 487.32 378.475 487.32 378.474 487.319C378.474 487.319 378.473 487.319 378.473 487.319C378.473 487.319 378.472 487.318 379.19 485.452C379.908 483.585 379.907 483.585 379.907 483.585C379.906 483.584 379.906 483.584 379.905 483.584C379.904 483.584 379.903 483.583 379.902 483.583C379.9 483.582 379.898 483.581 379.895 483.58C379.89 483.578 379.884 483.576 379.877 483.573C379.863 483.568 379.845 483.562 379.824 483.554C379.782 483.539 379.726 483.519 379.657 483.496C379.519 483.451 379.328 483.391 379.094 483.329C378.631 483.204 377.98 483.062 377.225 482.99C375.765 482.851 373.625 482.952 371.784 484.315L374.165 487.53ZM351.221 490.537C353.207 490.296 353.207 490.295 353.207 490.294C353.207 490.294 353.207 490.293 353.206 490.293C353.206 490.291 353.206 490.29 353.206 490.289C353.206 490.286 353.205 490.283 353.205 490.28C353.204 490.274 353.203 490.267 353.202 490.259C353.2 490.244 353.197 490.225 353.194 490.203C353.188 490.16 353.179 490.105 353.167 490.04C353.143 489.908 353.106 489.733 353.052 489.524C352.943 489.109 352.762 488.546 352.461 487.924C351.858 486.677 350.747 485.139 348.765 484.138L346.961 487.708C347.961 488.213 348.529 488.982 348.86 489.666C349.026 490.009 349.125 490.317 349.18 490.531C349.208 490.637 349.224 490.717 349.232 490.761C349.236 490.783 349.238 490.797 349.239 490.8C349.239 490.801 349.239 490.8 349.238 490.797C349.238 490.795 349.238 490.792 349.237 490.789C349.237 490.788 349.237 490.786 349.237 490.784C349.237 490.783 349.236 490.782 349.236 490.781C349.236 490.78 349.236 490.78 349.236 490.779C349.236 490.778 349.236 490.778 351.221 490.537ZM348.765 484.138C346.778 483.133 344.822 483.151 343.431 483.385C342.731 483.503 342.147 483.68 341.732 483.829C341.524 483.905 341.354 483.974 341.231 484.029C341.168 484.056 341.117 484.079 341.078 484.098C341.059 484.107 341.042 484.115 341.029 484.122C341.022 484.125 341.016 484.128 341.01 484.131C341.008 484.132 341.005 484.133 341.003 484.134C341.002 484.135 341.001 484.135 341 484.136C340.999 484.136 340.999 484.137 340.998 484.137C340.998 484.137 340.997 484.137 341.899 485.923C342.8 487.708 342.8 487.708 342.799 487.708C342.799 487.709 342.798 487.709 342.798 487.709C342.797 487.71 342.796 487.71 342.795 487.71C342.794 487.711 342.792 487.712 342.791 487.712C342.789 487.714 342.787 487.714 342.786 487.715C342.784 487.716 342.784 487.716 342.787 487.714C342.793 487.711 342.809 487.704 342.835 487.693C342.885 487.671 342.972 487.634 343.09 487.592C343.328 487.506 343.676 487.4 344.095 487.33C344.941 487.187 345.967 487.205 346.961 487.708L348.765 484.138ZM292.715 521.331C292.359 523.299 292.359 523.299 292.359 523.299C292.359 523.299 292.359 523.299 292.359 523.299C292.36 523.299 292.36 523.299 292.361 523.299C292.362 523.299 292.363 523.299 292.365 523.3C292.369 523.301 292.375 523.302 292.382 523.303C292.397 523.305 292.418 523.309 292.446 523.314C292.501 523.324 292.582 523.338 292.686 523.357C292.894 523.393 293.193 523.444 293.563 523.506C294.303 523.63 295.328 523.794 296.47 523.959C298.715 524.283 301.549 524.629 303.534 524.629L303.534 520.629C301.869 520.629 299.294 520.326 297.042 520C295.936 519.841 294.94 519.681 294.222 519.561C293.863 519.501 293.573 519.451 293.375 519.416C293.275 519.399 293.199 519.385 293.147 519.376C293.122 519.372 293.102 519.368 293.09 519.366C293.083 519.365 293.079 519.364 293.076 519.363C293.074 519.363 293.073 519.363 293.072 519.363C293.072 519.363 293.072 519.363 293.072 519.363C293.072 519.363 293.072 519.363 293.072 519.363C293.072 519.363 293.072 519.363 292.715 521.331ZM303.534 524.629C305.54 524.629 308.272 524.247 310.405 523.891C311.492 523.71 312.462 523.529 313.16 523.393C313.509 523.325 313.791 523.268 313.987 523.228C314.085 523.208 314.161 523.193 314.214 523.182C314.24 523.176 314.26 523.172 314.274 523.169C314.281 523.168 314.286 523.166 314.29 523.166C314.292 523.165 314.294 523.165 314.295 523.165C314.295 523.165 314.296 523.164 314.296 523.164C314.296 523.164 314.296 523.164 314.297 523.164C314.297 523.164 314.297 523.164 313.882 521.208C313.467 519.251 313.467 519.251 313.467 519.251C313.467 519.251 313.467 519.251 313.467 519.251C313.467 519.251 313.466 519.251 313.466 519.251C313.466 519.252 313.465 519.252 313.463 519.252C313.461 519.253 313.457 519.253 313.451 519.255C313.439 519.257 313.421 519.261 313.398 519.266C313.35 519.276 313.279 519.29 313.187 519.309C313.002 519.347 312.732 519.401 312.396 519.467C311.724 519.597 310.791 519.772 309.747 519.946C307.618 520.301 305.176 520.629 303.534 520.629L303.534 524.629ZM410.621 521.571C410.33 523.55 410.33 523.55 410.33 523.55C410.33 523.55 410.33 523.55 410.33 523.55C410.331 523.55 410.331 523.55 410.332 523.55C410.333 523.55 410.335 523.551 410.337 523.551C410.341 523.552 410.348 523.553 410.356 523.554C410.372 523.556 410.396 523.56 410.428 523.564C410.491 523.573 410.583 523.587 410.701 523.603C410.937 523.637 411.277 523.684 411.698 523.741C412.54 523.854 413.708 524.004 415.009 524.152C417.575 524.444 420.786 524.742 423.028 524.702L422.958 520.703C421.007 520.737 418.032 520.47 415.461 520.177C414.193 520.033 413.054 519.887 412.231 519.776C411.82 519.721 411.489 519.675 411.261 519.643C411.147 519.627 411.059 519.614 411 519.605C410.971 519.601 410.948 519.598 410.934 519.596C410.926 519.595 410.921 519.594 410.917 519.593C410.915 519.593 410.914 519.593 410.913 519.593C410.913 519.593 410.913 519.593 410.913 519.593C410.913 519.593 410.913 519.593 410.913 519.593C410.913 519.593 410.913 519.593 410.621 521.571ZM423.028 524.702C425.274 524.663 428.219 524.269 430.53 523.903C431.701 523.718 432.738 523.535 433.482 523.398C433.855 523.33 434.155 523.273 434.362 523.233C434.466 523.213 434.547 523.197 434.603 523.186C434.63 523.181 434.652 523.177 434.666 523.174C434.674 523.172 434.679 523.171 434.683 523.17C434.685 523.17 434.687 523.17 434.688 523.169C434.689 523.169 434.689 523.169 434.689 523.169C434.69 523.169 434.69 523.169 434.69 523.169C434.69 523.169 434.69 523.169 434.298 521.208C433.906 519.247 433.906 519.247 433.907 519.247C433.906 519.247 433.907 519.247 433.906 519.247C433.906 519.247 433.906 519.247 433.906 519.247C433.905 519.247 433.904 519.247 433.903 519.247C433.9 519.248 433.895 519.249 433.889 519.25C433.877 519.252 433.858 519.256 433.832 519.261C433.781 519.271 433.705 519.286 433.606 519.305C433.409 519.343 433.12 519.398 432.76 519.464C432.04 519.596 431.036 519.773 429.905 519.952C427.611 520.315 424.903 520.669 422.958 520.703L423.028 524.702Z" fill="black"/>
</svg>
