<svg width="701" height="901" viewBox="0 0 701 901" fill="none" xmlns="http://www.w3.org/2000/svg">
<path d="M361.726 479.233C359.294 479.115 354.95 483.483 355.894 486.033C356.839 488.583 366.259 488.772 367.345 486.174C368.432 483.577 364.158 479.351 361.726 479.233Z" fill="black"/>
<path d="M385.432 527.447C387.516 525.471 392.215 523.054 392.151 513.838C392.086 504.621 385.18 501.038 381.134 500.476C377.087 499.914 374.21 501.988 374.21 501.988L374.766 533.811C374.766 533.811 383.347 529.422 385.432 527.447Z" fill="white"/>
<path d="M362.251 506.263C358.851 506.121 351.202 502.139 351.202 502.139V534.096C351.202 534.096 355.341 536.583 362.599 536.56C369.858 536.538 374.766 533.811 374.766 533.811L374.21 501.988C374.21 501.988 365.651 506.405 362.251 506.263Z" fill="white"/>
<path d="M345.246 500.79C341.066 500.861 334.408 504.733 333.369 512.713C332.33 520.694 335.518 523.669 338.327 526.597C341.137 529.524 351.202 534.096 351.202 534.096V502.139C351.202 502.139 349.425 500.719 345.246 500.79Z" fill="white"/>
<path d="M361.799 477.735C360.768 477.685 359.739 478.097 358.895 478.595C358.016 479.112 357.16 479.827 356.435 480.622C355.714 481.414 355.072 482.342 354.676 483.312C354.288 484.263 354.071 485.429 354.488 486.554L357.301 485.512C357.245 485.362 357.217 485.026 357.454 484.444C357.683 483.882 358.102 483.247 358.653 482.643C359.2 482.042 359.827 481.527 360.417 481.179C361.042 480.811 361.468 480.722 361.653 480.731L361.799 477.735ZM354.488 486.554C354.747 487.253 355.251 487.756 355.755 488.108C356.263 488.463 356.86 488.726 357.465 488.923C358.677 489.316 360.133 489.511 361.543 489.534C362.953 489.556 364.419 489.407 365.652 489.046C366.772 488.718 368.176 488.076 368.729 486.753L365.962 485.596C365.972 485.572 365.791 485.88 364.809 486.167C363.941 486.421 362.789 486.553 361.59 486.534C360.391 486.515 359.247 486.347 358.393 486.069C357.965 485.931 357.662 485.781 357.471 485.647C357.275 485.51 357.278 485.45 357.301 485.512L354.488 486.554ZM368.729 486.753C369.199 485.63 369.037 484.458 368.672 483.485C368.305 482.503 367.68 481.573 366.978 480.779C366.271 479.981 365.433 479.265 364.578 478.73C363.75 478.213 362.771 477.782 361.799 477.735L361.653 480.731C361.897 480.743 362.364 480.884 362.988 481.274C363.583 481.646 364.203 482.171 364.732 482.769C365.266 483.371 365.659 483.992 365.863 484.537C366.07 485.09 366.035 485.421 365.962 485.596L368.729 486.753ZM345.22 499.29C340.36 499.372 333.024 503.741 331.882 512.52L334.857 512.907C335.792 505.724 341.773 502.349 345.271 502.29L345.22 499.29ZM331.882 512.52C331.332 516.745 331.887 519.787 333.054 522.202C334.196 524.566 335.884 526.217 337.245 527.635L339.41 525.558C337.961 524.048 336.65 522.748 335.756 520.897C334.886 519.098 334.368 516.662 334.857 512.907L331.882 512.52ZM386.463 528.535C387.257 527.783 389.286 526.379 390.819 524.228C392.448 521.941 393.685 518.717 393.651 513.827L390.651 513.848C390.681 518.175 389.601 520.767 388.375 522.487C387.053 524.342 385.69 525.135 384.4 526.358L386.463 528.535ZM393.651 513.827C393.579 503.632 385.867 499.619 381.34 498.99L380.927 501.962C384.494 502.457 390.593 505.61 390.651 513.848L393.651 513.827ZM362.313 504.764C361.678 504.738 360.724 504.517 359.559 504.134C358.423 503.76 357.194 503.268 356.048 502.772C354.906 502.276 353.864 501.784 353.108 501.415C352.73 501.231 352.425 501.078 352.215 500.972C352.11 500.919 352.029 500.877 351.974 500.849C351.947 500.835 351.927 500.825 351.914 500.818C351.907 500.814 351.902 500.812 351.899 500.81C351.897 500.81 351.896 500.809 351.896 500.809C351.895 500.808 351.895 500.808 351.895 500.808C351.895 500.808 351.895 500.808 351.895 500.808C351.895 500.808 351.895 500.808 351.202 502.139C350.51 503.469 350.51 503.469 350.51 503.469C350.51 503.469 350.51 503.47 350.51 503.47C350.511 503.47 350.511 503.47 350.512 503.47C350.513 503.471 350.515 503.472 350.517 503.473C350.521 503.475 350.527 503.478 350.535 503.482C350.551 503.491 350.574 503.503 350.604 503.518C350.663 503.548 350.75 503.593 350.86 503.649C351.082 503.761 351.401 503.92 351.793 504.112C352.577 504.494 353.66 505.006 354.855 505.524C356.046 506.041 357.366 506.571 358.621 506.984C359.846 507.387 361.123 507.717 362.188 507.762L362.313 504.764ZM351.202 502.139C352.138 500.967 352.138 500.966 352.137 500.966C352.137 500.966 352.136 500.965 352.136 500.965C352.135 500.964 352.134 500.963 352.133 500.962C352.131 500.961 352.129 500.959 352.126 500.957C352.122 500.954 352.117 500.95 352.111 500.946C352.101 500.937 352.088 500.928 352.073 500.917C352.044 500.895 352.007 500.869 351.962 500.838C351.873 500.778 351.753 500.701 351.601 500.614C351.297 500.441 350.865 500.229 350.297 500.025C349.157 499.617 347.487 499.252 345.22 499.29L345.271 502.29C347.183 502.257 348.492 502.566 349.286 502.85C349.684 502.993 349.958 503.131 350.117 503.222C350.197 503.267 350.249 503.301 350.273 503.317C350.285 503.326 350.291 503.33 350.289 503.329C350.289 503.328 350.287 503.327 350.283 503.324C350.281 503.322 350.278 503.32 350.276 503.318C350.274 503.317 350.273 503.316 350.271 503.315C350.27 503.314 350.27 503.314 350.269 503.313C350.268 503.313 350.268 503.312 350.267 503.312C350.267 503.311 350.266 503.311 351.202 502.139ZM337.245 527.635C338.082 528.508 339.371 529.423 340.727 530.274C342.11 531.142 343.668 532.008 345.12 532.772C346.574 533.537 347.938 534.208 348.936 534.688C349.436 534.928 349.846 535.12 350.131 535.253C350.274 535.32 350.386 535.371 350.462 535.407C350.5 535.424 350.53 535.438 350.55 535.447C350.56 535.451 350.568 535.455 350.573 535.457C350.576 535.459 350.578 535.46 350.579 535.46C350.58 535.461 350.581 535.461 350.581 535.461C350.581 535.461 350.582 535.461 350.582 535.461C350.582 535.461 350.582 535.461 351.202 534.096C351.823 532.73 351.823 532.73 351.823 532.73C351.823 532.73 351.823 532.73 351.822 532.73C351.822 532.73 351.822 532.73 351.821 532.729C351.821 532.729 351.819 532.728 351.817 532.727C351.812 532.725 351.806 532.722 351.797 532.718C351.778 532.71 351.751 532.697 351.715 532.681C351.643 532.647 351.536 532.598 351.398 532.534C351.122 532.405 350.723 532.218 350.235 531.984C349.259 531.515 347.93 530.86 346.517 530.117C345.101 529.372 343.616 528.545 342.322 527.733C341.001 526.904 339.977 526.149 339.41 525.558L337.245 527.635ZM351.202 534.096C350.43 535.381 350.43 535.382 350.431 535.382C350.431 535.382 350.431 535.382 350.432 535.383C350.432 535.383 350.433 535.384 350.434 535.384C350.436 535.385 350.438 535.386 350.44 535.388C350.445 535.391 350.451 535.394 350.458 535.398C350.471 535.406 350.488 535.416 350.51 535.428C350.553 535.453 350.613 535.486 350.688 535.526C350.839 535.606 351.054 535.716 351.331 535.844C351.884 536.102 352.687 536.436 353.723 536.766C355.796 537.426 358.801 538.072 362.604 538.06L362.595 535.06C359.139 535.071 356.446 534.485 354.634 533.907C353.728 533.619 353.043 533.332 352.594 533.124C352.37 533.019 352.205 532.935 352.101 532.879C352.049 532.852 352.012 532.831 351.991 532.819C351.981 532.813 351.974 532.809 351.971 532.808C351.97 532.807 351.97 532.807 351.97 532.807C351.971 532.807 351.971 532.808 351.972 532.808C351.972 532.808 351.973 532.809 351.973 532.809C351.974 532.809 351.974 532.809 351.974 532.81C351.975 532.81 351.975 532.81 351.202 534.096ZM349.702 502.139V534.096H352.702V502.139H349.702ZM381.34 498.99C379.015 498.667 377.032 499.103 375.639 499.612C374.941 499.868 374.383 500.144 373.992 500.362C373.797 500.471 373.642 500.566 373.531 500.638C373.476 500.673 373.431 500.703 373.398 500.725C373.381 500.737 373.368 500.746 373.357 500.754C373.351 500.758 373.347 500.761 373.343 500.764C373.341 500.765 373.339 500.766 373.337 500.768C373.337 500.768 373.336 500.769 373.335 500.769C373.335 500.77 373.334 500.77 373.334 500.77C373.333 500.77 373.333 500.771 374.21 501.988C375.087 503.204 375.087 503.205 375.086 503.205C375.086 503.205 375.086 503.206 375.085 503.206C375.085 503.206 375.084 503.206 375.084 503.207C375.083 503.207 375.082 503.208 375.082 503.208C375.08 503.209 375.08 503.21 375.08 503.21C375.08 503.209 375.083 503.207 375.089 503.204C375.1 503.196 375.121 503.182 375.152 503.162C375.215 503.122 375.316 503.059 375.453 502.983C375.728 502.829 376.142 502.623 376.67 502.43C377.726 502.043 379.205 501.723 380.927 501.962L381.34 498.99ZM374.21 501.988C373.522 500.655 373.522 500.655 373.522 500.655C373.522 500.655 373.522 500.655 373.522 500.655C373.522 500.655 373.522 500.655 373.522 500.655C373.521 500.655 373.52 500.656 373.518 500.657C373.514 500.659 373.509 500.662 373.501 500.665C373.486 500.673 373.463 500.685 373.433 500.7C373.372 500.731 373.281 500.777 373.164 500.836C372.929 500.953 372.589 501.122 372.169 501.324C371.328 501.729 370.174 502.266 368.92 502.797C367.662 503.33 366.325 503.848 365.112 504.221C363.856 504.608 362.891 504.788 362.313 504.764L362.188 507.762C363.31 507.809 364.69 507.49 365.995 507.088C367.343 506.673 368.784 506.113 370.09 505.56C371.401 505.004 372.6 504.446 373.47 504.027C373.906 503.817 374.26 503.642 374.507 503.518C374.631 503.457 374.727 503.408 374.793 503.374C374.826 503.357 374.852 503.344 374.87 503.335C374.878 503.331 374.885 503.327 374.89 503.325C374.892 503.324 374.894 503.323 374.895 503.322C374.896 503.322 374.897 503.321 374.897 503.321C374.897 503.321 374.898 503.321 374.898 503.321C374.898 503.321 374.898 503.321 374.21 501.988ZM362.604 538.06C366.419 538.049 369.615 537.327 371.863 536.606C372.988 536.245 373.879 535.883 374.497 535.607C374.806 535.47 375.047 535.353 375.215 535.269C375.299 535.226 375.364 535.192 375.411 535.167C375.434 535.155 375.453 535.145 375.467 535.137C375.474 535.134 375.48 535.131 375.484 535.128C375.487 535.127 375.489 535.126 375.49 535.125C375.491 535.124 375.492 535.124 375.493 535.124C375.493 535.123 375.493 535.123 375.493 535.123C375.494 535.123 375.494 535.123 374.766 533.811C374.037 532.5 374.038 532.5 374.038 532.5C374.038 532.5 374.039 532.499 374.039 532.499C374.039 532.499 374.04 532.499 374.04 532.499C374.04 532.499 374.04 532.498 374.04 532.498C374.04 532.499 374.039 532.499 374.036 532.501C374.031 532.503 374.021 532.509 374.007 532.516C373.978 532.531 373.932 532.556 373.867 532.588C373.738 532.653 373.539 532.75 373.274 532.868C372.745 533.104 371.956 533.425 370.947 533.749C368.926 534.397 366.039 535.05 362.595 535.06L362.604 538.06ZM374.766 533.811C375.449 535.147 375.449 535.147 375.449 535.147C375.449 535.147 375.449 535.146 375.45 535.146C375.45 535.146 375.45 535.146 375.451 535.146C375.452 535.145 375.454 535.144 375.456 535.143C375.461 535.141 375.467 535.137 375.475 535.133C375.492 535.124 375.517 535.112 375.55 535.095C375.614 535.062 375.709 535.013 375.83 534.95C376.071 534.825 376.418 534.644 376.84 534.421C377.684 533.975 378.833 533.359 380.049 532.679C381.263 532.001 382.555 531.253 383.683 530.545C384.781 529.856 385.823 529.142 386.463 528.535L384.4 526.358C383.998 526.739 383.186 527.315 382.088 528.004C381.021 528.674 379.777 529.394 378.585 530.06C377.396 530.725 376.269 531.33 375.438 531.768C375.024 531.988 374.684 532.165 374.448 532.287C374.33 532.349 374.238 532.396 374.176 532.428C374.145 532.444 374.121 532.456 374.106 532.464C374.098 532.468 374.092 532.471 374.088 532.473C374.086 532.474 374.085 532.475 374.084 532.475C374.083 532.475 374.083 532.476 374.083 532.476C374.083 532.476 374.083 532.476 374.083 532.476C374.083 532.476 374.083 532.476 374.766 533.811ZM372.71 502.014L373.266 533.837L376.266 533.785L375.71 501.961L372.71 502.014Z" fill="black"/>
</svg>
