<svg width="700" height="900" viewBox="0 0 700 900" fill="none" xmlns="http://www.w3.org/2000/svg">
<path d="M233.553 572.47C227.535 572.153 214.344 576.28 212.902 586.82C211.46 597.359 229.435 599.475 233.553 599.475C237.671 599.475 252.25 596.122 252.868 586.82C253.486 577.517 239.572 572.788 233.553 572.47Z" fill="#FF8DAF"/>
<path d="M196.974 505.53C195.785 476.279 201.463 441.416 201.463 441.416C201.463 441.416 208.874 447.837 220.018 448.235C231.163 448.634 235.447 446.157 243.634 439.337C249.102 434.783 250.219 427.584 250.954 422.843C251.32 420.485 251.592 418.735 252.258 418.22C252.898 417.725 254.959 418.808 258.125 420.472C264.865 424.014 276.614 430.189 290.335 429.376C310.501 428.181 323.135 417.11 329.09 405.513C335.046 393.915 334.693 377.395 333.442 373.135C332.869 371.183 334.497 373.529 336.788 376.922L337.254 377.614C339.9 381.54 343.244 386.499 345.15 387.983C348.88 390.887 355.308 395.839 368.389 396.519C381.471 397.199 392.028 390.875 399.902 379.271C399.548 387.459 403.504 396.034 406.474 402.17C409.444 408.306 412.615 412.251 419.751 418.374C426.886 424.496 437.779 424.597 449.798 424.701C457.796 424.77 466.8 418.978 472.377 415.39C475.18 413.586 477.118 412.34 477.626 412.675C478.46 413.225 478.637 416.704 478.85 420.884C479.026 424.323 479.225 428.237 479.835 431.382C481.185 438.349 485.611 444.307 490.028 448.729C494.445 453.15 502.26 458.762 512.963 457.742C523.665 456.722 529.272 453.49 529.272 453.49C530.262 460.463 532.669 482.061 530.631 501.958C529.891 509.174 528.348 516.926 526.891 524.242C524.331 537.1 522.039 548.61 524.855 553.488C525.855 555.22 527.212 556.735 528.697 558.393C533.773 564.058 540.346 571.395 539.295 594.813C538.88 604.057 535.217 610.969 529.332 616.311C529.332 616.311 579.185 610.557 581.863 584.573C584.541 558.589 555.389 557.224 553.228 553.488C551.067 549.752 604.788 525.826 601.886 485.906C598.985 445.986 566.707 433.163 558.889 436.79C551.07 440.418 569.176 424.701 558.889 410.384C548.601 396.067 530.399 406.131 536.203 398.765C542.006 391.398 562.771 349.12 546.49 321.394C530.21 293.667 499.569 285.505 472.377 290.033C445.185 294.56 433.547 306.736 432.863 309.493C432.179 312.249 432.863 282.048 404.571 277.031C376.279 272.013 366.726 291.738 363.948 295.779C361.169 299.821 326.753 239.005 264.235 259.074C201.716 279.143 202.146 339.316 204.981 341.924C207.817 344.532 183.338 328.359 167.633 338.924C151.928 349.488 157.482 369.532 159.089 371.247C160.696 372.962 126.272 361.326 113.61 396.519C100.948 431.712 129.197 453.002 132.732 452.59C135.611 452.255 105.648 458.16 98.8928 495.956C92.1372 533.752 125.989 558.668 124.38 558.507C122.771 558.346 99.1219 573.392 105.945 599.475C112.769 625.557 170.132 632.736 203.29 618.623C192.658 610.865 185.457 600.349 185.762 586.82C186.075 572.908 190.63 567.36 194.881 562.182C197.542 558.942 200.083 555.846 201.391 550.937C203.151 544.329 202.222 540.232 200.751 533.752C199.384 527.722 197.548 519.628 196.974 505.53Z" fill="#FFF3F3"/>
<path fill-rule="evenodd" clip-rule="evenodd" d="M278.52 639.539C300.265 642.26 337.81 644.811 361.084 644.981C384.359 645.151 431.757 644.301 466.754 637.328C468.758 636.929 470.766 636.535 472.772 636.142C485.76 633.595 498.628 631.072 509.537 627.21C517.373 624.436 524.198 620.972 529.332 616.311C535.217 610.969 538.88 604.057 539.295 594.813C540.346 571.395 533.773 564.058 528.697 558.393C527.212 556.735 525.855 555.22 524.855 553.488C522.039 548.61 524.331 537.1 526.891 524.242C528.348 516.926 529.891 509.174 530.631 501.958C532.669 482.061 530.262 460.463 529.272 453.49C529.272 453.49 523.665 456.722 512.963 457.742C502.26 458.762 494.445 453.15 490.028 448.729C485.611 444.307 481.185 438.349 479.835 431.382C479.225 428.237 479.026 424.323 478.85 420.884C478.637 416.704 478.46 413.225 477.626 412.675C477.118 412.34 475.18 413.586 472.377 415.39C466.8 418.978 457.796 424.77 449.798 424.701C437.779 424.597 426.886 424.496 419.751 418.374C412.615 412.251 409.444 408.306 406.474 402.17C403.504 396.034 399.548 387.459 399.902 379.271C392.028 390.875 381.471 397.199 368.389 396.519C355.308 395.839 348.88 390.887 345.15 387.983C343.244 386.499 339.9 381.54 337.254 377.614L336.788 376.922C334.497 373.529 332.869 371.183 333.442 373.135C334.693 377.395 335.046 393.915 329.09 405.513C323.135 417.11 310.501 428.181 290.335 429.376C276.614 430.189 264.865 424.014 258.125 420.472C254.959 418.808 252.898 417.725 252.258 418.22C251.592 418.735 251.32 420.485 250.954 422.843C250.219 427.584 249.102 434.783 243.634 439.337C235.447 446.157 231.163 448.634 220.018 448.235C208.874 447.837 201.463 441.416 201.463 441.416C201.463 441.416 195.785 476.279 196.974 505.53C197.548 519.628 199.384 527.722 200.751 533.752C202.222 540.232 203.151 544.329 201.391 550.937C200.083 555.846 197.542 558.942 194.881 562.182C190.63 567.36 186.075 572.908 185.762 586.82C185.457 600.349 192.658 610.865 203.29 618.623C210.433 623.836 219.124 627.803 228.128 630.604C245.284 635.939 252.962 636.747 265.379 638.054L265.383 638.055C269.182 638.455 273.426 638.902 278.52 639.539ZM212.902 586.82C214.344 576.28 227.535 572.153 233.553 572.47C239.572 572.788 253.486 577.517 252.868 586.82C252.25 596.122 237.671 599.475 233.553 599.475C229.435 599.475 211.46 597.359 212.902 586.82ZM472.997 589.417C474.439 578.878 487.63 574.751 493.648 575.068C499.667 575.385 513.581 580.115 512.963 589.417C512.345 598.72 497.766 602.072 493.648 602.072C489.53 602.072 471.555 599.957 472.997 589.417Z" fill="#FFF9EC"/>
<path d="M493.648 575.068C487.63 574.751 474.439 578.878 472.997 589.417C471.555 599.957 489.53 602.072 493.648 602.072C497.766 602.072 512.345 598.72 512.963 589.417C513.581 580.115 499.667 575.385 493.648 575.068Z" fill="#FF8DAF"/>
<path d="M278.52 639.539L278.334 641.027L278.334 641.027L278.52 639.539ZM228.128 630.604L227.683 632.036L227.683 632.036L228.128 630.604ZM185.762 586.82L184.262 586.786L184.262 586.786L185.762 586.82ZM201.391 550.937L199.942 550.55L199.942 550.55L201.391 550.937ZM196.974 505.53L195.476 505.591L196.974 505.53ZM201.463 441.416L202.445 440.282L202.377 440.223L202.303 440.173L201.463 441.416ZM195.733 431.018C195.35 430.283 194.444 429.999 193.71 430.382C192.975 430.766 192.691 431.672 193.074 432.406L195.733 431.018ZM243.634 439.337L242.674 438.185L242.674 438.185L243.634 439.337ZM252.258 418.22L251.34 417.033L251.34 417.033L252.258 418.22ZM290.335 429.376L290.424 430.874L290.424 430.874L290.335 429.376ZM333.442 373.135L332.003 373.558L332.003 373.558L333.442 373.135ZM345.15 387.983L346.072 386.8L346.072 386.8L345.15 387.983ZM402.03 373.25C402.093 372.424 401.475 371.703 400.649 371.64C399.823 371.576 399.102 372.194 399.039 373.02L402.03 373.25ZM449.798 424.701L449.811 423.201L449.811 423.201L449.798 424.701ZM477.626 412.675L476.8 413.928L476.8 413.928L477.626 412.675ZM479.835 431.382L481.307 431.097L481.307 431.097L479.835 431.382ZM538.719 447.683C539.268 447.063 539.211 446.115 538.591 445.565C537.971 445.016 537.023 445.073 536.473 445.693L538.719 447.683ZM530.631 501.958L532.123 502.111L532.123 502.111L530.631 501.958ZM524.855 553.488L526.154 552.738L526.154 552.738L524.855 553.488ZM539.295 594.813L537.796 594.745L537.796 594.745L539.295 594.813ZM466.754 637.328L466.461 635.857L466.461 635.857L466.754 637.328ZM509.537 627.21L510.038 628.624L510.038 628.624L509.537 627.21ZM132.732 452.59L132.559 451.1L132.732 452.59ZM265.379 638.054L265.554 636.565L265.545 636.564L265.536 636.563L265.379 638.054ZM194.881 562.182L196.04 563.134L196.04 563.134L194.881 562.182ZM200.751 533.752L199.289 534.083L199.289 534.083L200.751 533.752ZM250.954 422.843L252.437 423.073L252.437 423.073L250.954 422.843ZM258.125 420.472L257.427 421.8L257.427 421.8L258.125 420.472ZM337.254 377.614L338.498 376.776L338.498 376.776L337.254 377.614ZM472.377 415.39L473.188 416.651L473.188 416.651L472.377 415.39ZM478.85 420.884L480.349 420.807L480.349 420.807L478.85 420.884ZM526.891 524.242L528.362 524.535L528.362 524.535L526.891 524.242ZM528.697 558.393L529.814 557.392L529.814 557.392L528.697 558.393ZM472.772 636.142L473.061 637.614L473.061 637.614L472.772 636.142ZM265.383 638.055L265.208 639.545L265.217 639.546L265.226 639.547L265.383 638.055ZM361.095 643.481C337.881 643.311 300.394 640.764 278.706 638.051L278.334 641.027C300.136 643.756 337.739 646.31 361.073 646.481L361.095 643.481ZM198.473 505.469C197.883 490.947 198.997 475 200.265 462.657C200.898 456.491 201.569 451.237 202.08 447.525C202.336 445.669 202.553 444.2 202.705 443.195C202.781 442.693 202.841 442.307 202.881 442.047C202.902 441.918 202.917 441.819 202.928 441.754C202.933 441.721 202.937 441.696 202.94 441.68C202.941 441.672 202.942 441.666 202.943 441.662C202.943 441.66 202.943 441.659 202.943 441.658C202.943 441.657 202.944 441.657 202.944 441.657C202.944 441.657 202.944 441.657 201.463 441.416C199.983 441.175 199.983 441.175 199.982 441.175C199.982 441.176 199.982 441.176 199.982 441.177C199.982 441.178 199.982 441.18 199.981 441.182C199.981 441.186 199.98 441.193 199.978 441.202C199.975 441.219 199.971 441.245 199.966 441.279C199.955 441.348 199.939 441.449 199.918 441.581C199.876 441.846 199.815 442.238 199.738 442.746C199.584 443.763 199.366 445.245 199.109 447.115C198.593 450.854 197.918 456.144 197.281 462.35C196.007 474.752 194.877 490.862 195.476 505.591L198.473 505.469ZM202.303 440.173C201.723 439.781 201.01 439.057 200.233 438.085C199.472 437.135 198.718 436.036 198.044 434.978C197.372 433.924 196.793 432.93 196.381 432.199C196.175 431.834 196.012 431.536 195.9 431.331C195.845 431.228 195.802 431.148 195.774 431.095C195.76 431.068 195.75 431.048 195.743 431.035C195.739 431.029 195.737 431.024 195.735 431.021C195.734 431.02 195.734 431.019 195.734 431.018C195.733 431.018 195.733 431.018 195.733 431.018C195.733 431.018 195.733 431.018 195.733 431.018C195.733 431.018 195.733 431.018 194.404 431.712C193.074 432.406 193.074 432.406 193.074 432.407C193.074 432.407 193.074 432.407 193.075 432.407C193.075 432.408 193.075 432.408 193.075 432.409C193.076 432.41 193.077 432.412 193.078 432.414C193.08 432.418 193.084 432.425 193.088 432.433C193.096 432.449 193.108 432.472 193.124 432.501C193.156 432.561 193.202 432.647 193.261 432.757C193.38 432.976 193.552 433.29 193.767 433.673C194.198 434.436 194.806 435.479 195.514 436.59C196.22 437.699 197.039 438.896 197.89 439.96C198.725 441.003 199.664 442.011 200.624 442.659L202.303 440.173ZM201.463 441.416C200.481 442.549 200.481 442.55 200.482 442.55C200.482 442.55 200.482 442.551 200.483 442.551C200.483 442.552 200.484 442.552 200.485 442.553C200.487 442.555 200.49 442.557 200.493 442.559C200.498 442.564 200.506 442.571 200.515 442.579C200.534 442.595 200.56 442.617 200.593 442.644C200.659 442.699 200.754 442.776 200.876 442.872C201.121 443.064 201.476 443.333 201.935 443.654C202.852 444.296 204.186 445.149 205.88 446.012C209.263 447.738 214.117 449.525 219.965 449.734L220.072 446.736C214.774 446.547 210.351 444.925 207.243 443.34C205.691 442.549 204.476 441.771 203.655 441.196C203.245 440.909 202.934 440.674 202.73 440.513C202.628 440.433 202.553 440.371 202.505 440.332C202.481 440.312 202.464 440.298 202.454 440.289C202.449 440.285 202.446 440.282 202.444 440.281C202.444 440.281 202.443 440.28 202.444 440.28C202.444 440.281 202.444 440.281 202.444 440.281C202.444 440.281 202.445 440.281 202.445 440.281C202.445 440.282 202.445 440.282 201.463 441.416ZM219.965 449.734C225.656 449.938 229.746 449.413 233.502 447.882C237.223 446.365 240.495 443.904 244.594 440.49L242.674 438.185C238.586 441.589 235.623 443.777 232.369 445.104C229.149 446.417 225.525 446.931 220.072 446.736L219.965 449.734ZM290.424 430.874C311.163 429.644 324.248 418.227 330.425 406.198L327.756 404.828C322.022 415.993 309.84 426.717 290.246 427.879L290.424 430.874ZM330.425 406.198C333.527 400.158 334.955 392.912 335.464 386.695C335.969 380.52 335.584 375.107 334.881 372.712L332.003 373.558C332.551 375.423 332.968 380.401 332.474 386.45C331.982 392.457 330.61 399.271 327.756 404.828L330.425 406.198ZM344.229 389.167C348.073 392.16 354.794 397.314 368.312 398.017L368.467 395.021C355.823 394.363 349.688 389.615 346.072 386.8L344.229 389.167ZM368.312 398.017C382.025 398.73 393.041 392.053 401.144 380.114L398.661 378.429C391.015 389.696 380.916 395.668 368.467 395.021L368.312 398.017ZM399.902 379.271C401.393 379.439 401.393 379.439 401.393 379.439C401.393 379.439 401.393 379.439 401.393 379.439C401.393 379.439 401.393 379.438 401.393 379.438C401.393 379.438 401.393 379.437 401.393 379.436C401.394 379.433 401.394 379.43 401.394 379.426C401.395 379.417 401.397 379.404 401.399 379.388C401.402 379.354 401.408 379.305 401.415 379.242C401.429 379.115 401.449 378.933 401.474 378.709C401.524 378.261 401.591 377.646 401.662 376.98C401.804 375.656 401.965 374.099 402.03 373.25L399.039 373.02C398.978 373.816 398.822 375.327 398.679 376.66C398.609 377.322 398.542 377.933 398.492 378.379C398.468 378.602 398.448 378.783 398.434 378.909C398.427 378.971 398.421 379.02 398.417 379.053C398.416 379.07 398.414 379.082 398.413 379.091C398.413 379.095 398.412 379.098 398.412 379.1C398.412 379.101 398.412 379.102 398.412 379.103C398.412 379.103 398.412 379.103 398.412 379.103C398.412 379.103 398.412 379.103 398.412 379.103C398.412 379.103 398.412 379.103 399.902 379.271ZM398.404 379.206C398.031 387.829 402.178 396.737 405.124 402.824L407.824 401.517C404.831 395.332 401.065 387.089 401.401 379.336L398.404 379.206ZM405.124 402.824C408.207 409.194 411.529 413.296 418.774 419.512L420.727 417.235C413.702 411.207 410.681 407.419 407.824 401.517L405.124 402.824ZM418.774 419.512C422.634 422.824 427.446 424.45 432.71 425.276C437.958 426.1 443.803 426.149 449.785 426.201L449.811 423.201C443.773 423.149 438.163 423.095 433.175 422.312C428.204 421.532 424.003 420.046 420.727 417.235L418.774 419.512ZM478.362 431.668C479.794 439.058 484.458 445.275 488.967 449.789L491.089 447.669C486.764 443.339 482.575 437.639 481.307 431.097L478.362 431.668ZM488.967 449.789C493.53 454.357 501.763 460.317 513.105 459.235L512.82 456.249C502.757 457.208 495.36 451.943 491.089 447.669L488.967 449.789ZM513.105 459.235C518.582 458.713 522.774 457.623 525.615 456.653C527.036 456.168 528.119 455.713 528.856 455.374C529.224 455.204 529.506 455.064 529.7 454.963C529.798 454.912 529.873 454.872 529.927 454.843C529.953 454.828 529.974 454.816 529.99 454.807C529.998 454.803 530.004 454.799 530.01 454.796C530.012 454.795 530.014 454.794 530.016 454.793C530.017 454.792 530.018 454.792 530.019 454.791C530.019 454.791 530.02 454.791 530.02 454.791C530.02 454.79 530.021 454.79 529.272 453.49C528.523 452.191 528.523 452.191 528.523 452.19C528.524 452.19 528.524 452.19 528.524 452.19C528.525 452.19 528.525 452.189 528.525 452.189C528.526 452.189 528.526 452.189 528.526 452.189C528.525 452.189 528.523 452.19 528.52 452.192C528.514 452.195 528.503 452.202 528.486 452.211C528.452 452.23 528.396 452.26 528.319 452.3C528.165 452.379 527.926 452.499 527.601 452.649C526.953 452.947 525.965 453.364 524.646 453.814C522.009 454.714 518.047 455.75 512.82 456.249L513.105 459.235ZM530.128 454.722C533.162 452.614 535.29 450.877 536.669 449.655C537.359 449.045 537.861 448.563 538.196 448.228C538.363 448.061 538.489 447.93 538.575 447.838C538.619 447.793 538.652 447.756 538.676 447.73C538.688 447.717 538.697 447.707 538.704 447.699C538.708 447.695 538.711 447.692 538.713 447.689C538.714 447.688 538.716 447.686 538.716 447.685C538.717 447.685 538.717 447.684 538.718 447.684C538.718 447.684 538.718 447.683 538.718 447.683C538.719 447.683 538.719 447.683 537.596 446.688C536.473 445.693 536.474 445.693 536.474 445.693C536.474 445.692 536.474 445.692 536.474 445.692C536.475 445.692 536.475 445.692 536.475 445.691C536.475 445.691 536.475 445.691 536.476 445.691C536.476 445.691 536.475 445.691 536.474 445.692C536.472 445.695 536.468 445.7 536.461 445.707C536.447 445.722 536.424 445.747 536.392 445.782C536.326 445.851 536.221 445.96 536.075 446.106C535.783 446.398 535.325 446.839 534.68 447.41C533.391 448.552 531.356 450.216 528.416 452.258L530.128 454.722ZM527.787 453.701C528.771 460.631 531.159 482.088 529.139 501.806L532.123 502.111C534.18 482.034 531.753 460.295 530.757 453.279L527.787 453.701ZM466.461 635.857C431.627 642.797 384.362 643.651 361.095 643.481L361.073 646.481C384.356 646.651 431.888 645.804 467.047 638.799L466.461 635.857ZM583.355 584.727C584.055 577.932 582.678 572.636 580.096 568.487C577.529 564.362 573.841 561.483 570.094 559.38C566.355 557.28 562.475 555.909 559.49 554.853C557.971 554.315 556.731 553.876 555.8 553.46C555.337 553.254 555 553.075 554.768 552.92C554.52 552.754 554.495 552.684 554.526 552.737L551.929 554.239C552.23 554.759 552.686 555.137 553.101 555.414C553.533 555.702 554.041 555.961 554.577 556.2C555.643 556.676 557.014 557.159 558.49 557.681C561.495 558.744 565.142 560.039 568.625 561.995C572.102 563.948 575.336 566.516 577.549 570.072C579.747 573.604 581.009 578.222 580.371 584.42L583.355 584.727ZM554.526 552.737C554.879 553.347 554.432 553.762 554.677 553.414C554.842 553.179 555.192 552.809 555.8 552.282C556.996 551.245 558.845 549.89 561.206 548.181C565.884 544.796 572.369 540.163 578.834 534.384C591.711 522.876 604.887 506.49 603.383 485.798L600.39 486.015C601.788 505.243 589.554 520.78 576.835 532.148C570.503 537.807 564.144 542.352 559.448 545.751C557.122 547.434 555.151 548.873 553.834 550.015C553.185 550.578 552.606 551.144 552.222 551.69C551.919 552.121 551.306 553.161 551.929 554.239L554.526 552.737ZM603.383 485.798C601.901 465.413 592.899 451.853 583.184 443.86C578.339 439.873 573.312 437.267 568.949 435.89C566.768 435.202 564.726 434.813 562.936 434.724C561.17 434.636 559.539 434.835 558.257 435.429L559.52 438.151C560.193 437.839 561.281 437.645 562.787 437.72C564.271 437.794 566.056 438.123 568.046 438.751C572.024 440.006 576.714 442.42 581.278 446.176C590.382 453.667 598.97 466.479 600.39 486.015L603.383 485.798ZM558.257 435.429C557.798 435.642 557.501 435.752 557.323 435.8C557.068 435.869 557.278 435.752 557.628 435.894C557.865 435.989 558.09 436.174 558.232 436.434C558.357 436.663 558.367 436.857 558.367 436.924C558.367 437.023 558.347 436.991 558.444 436.726C558.627 436.232 558.988 435.512 559.507 434.476C560.005 433.479 560.608 432.269 561.193 430.908C563.515 425.506 565.728 417.33 560.107 409.508L557.67 411.259C562.337 417.754 560.641 424.595 558.436 429.724C557.89 430.996 557.322 432.138 556.824 433.133C556.346 434.087 555.884 434.997 555.629 435.689C555.508 436.018 555.366 436.469 555.367 436.93C555.367 437.178 555.408 437.523 555.599 437.871C555.806 438.251 556.13 438.524 556.503 438.675C557.127 438.927 557.759 438.79 558.103 438.697C558.524 438.584 559.001 438.391 559.52 438.151L558.257 435.429ZM560.107 409.508C554.553 401.779 546.833 400.669 541.568 400.469C540.287 400.42 539.05 400.424 538.151 400.404C537.156 400.381 536.584 400.328 536.284 400.238C536.146 400.197 536.242 400.196 536.373 400.34C536.554 400.541 536.595 400.783 536.584 400.915C536.578 400.984 536.568 400.921 536.704 400.672C536.832 400.438 537.046 400.118 537.381 399.693L535.024 397.836C534.634 398.332 534.31 398.797 534.072 399.232C533.842 399.652 533.638 400.142 533.594 400.669C533.546 401.258 533.706 401.863 534.146 402.351C534.536 402.783 535.033 402.995 535.42 403.111C536.172 403.337 537.151 403.382 538.084 403.403C539.113 403.426 540.181 403.418 541.454 403.467C546.412 403.655 552.937 404.671 557.67 411.259L560.107 409.508ZM537.381 399.693C540.444 395.805 547.162 383.189 551.08 368.091C554.996 353.003 556.227 335.014 547.784 320.634L545.197 322.153C553.034 335.5 552.023 352.514 548.176 367.337C544.331 382.152 537.765 394.358 535.024 397.836L537.381 399.693ZM547.784 320.634C531.1 292.22 499.742 283.956 472.13 288.553L472.623 291.513C499.396 287.055 529.32 295.113 545.197 322.153L547.784 320.634ZM472.13 288.553C458.353 290.847 448.459 295.088 441.89 299.151C438.609 301.181 436.148 303.171 434.445 304.861C433.595 305.705 432.92 306.487 432.425 307.173C431.955 307.825 431.563 308.504 431.407 309.132L434.319 309.854C434.319 309.854 434.325 309.83 434.346 309.779C434.367 309.729 434.398 309.662 434.443 309.578C434.534 309.408 434.669 309.19 434.858 308.928C435.237 308.404 435.796 307.746 436.558 306.99C438.08 305.48 440.356 303.627 443.468 301.702C449.687 297.856 459.209 293.746 472.623 291.513L472.13 288.553ZM431.407 309.132C431.404 309.146 431.409 309.121 431.426 309.074C431.432 309.058 431.493 308.884 431.649 308.696C431.812 308.501 432.396 307.965 433.243 308.245C433.814 308.433 434.042 308.886 434.054 308.909C434.147 309.075 434.165 309.199 434.141 309.099C434.129 309.051 434.112 308.966 434.088 308.832C434.005 308.368 433.837 307.239 433.607 306.012C433.121 303.427 432.231 299.632 430.443 295.572C426.85 287.417 419.601 278.173 404.833 275.554L404.309 278.507C417.833 280.906 424.389 289.271 427.698 296.782C429.36 300.555 430.196 304.107 430.658 306.566C430.902 307.861 431.013 308.679 431.135 309.358C431.162 309.51 431.191 309.661 431.223 309.795C431.242 309.877 431.3 310.129 431.432 310.366C431.464 310.424 431.712 310.899 432.303 311.094C433.168 311.379 433.772 310.835 433.954 310.616C434.131 310.405 434.211 310.192 434.237 310.121C434.275 310.021 434.301 309.926 434.319 309.854L431.407 309.132ZM404.833 275.554C390.27 272.971 380.383 276.754 373.779 281.817C367.262 286.815 363.994 293.063 362.712 294.929L365.184 296.629C366.679 294.453 369.578 288.819 375.605 284.198C381.545 279.643 390.581 276.073 404.309 278.507L404.833 275.554ZM362.712 294.929C362.896 294.662 363.221 294.482 363.553 294.473C363.777 294.467 363.867 294.543 363.749 294.482C363.525 294.365 363.11 294.054 362.451 293.441C361.166 292.245 359.404 290.338 357.073 287.892C352.462 283.055 345.871 276.38 337.376 270.203C320.359 257.831 295.631 247.42 263.776 257.646L264.693 260.502C295.357 250.659 319.096 260.621 335.611 272.629C343.882 278.643 350.324 285.16 354.901 289.962C357.163 292.335 359.035 294.36 360.408 295.637C361.078 296.261 361.749 296.823 362.364 297.143C362.667 297.3 363.115 297.486 363.636 297.472C364.265 297.455 364.826 297.149 365.184 296.629L362.712 294.929ZM263.776 257.646C232.039 267.833 216.21 288.248 208.713 306.476C204.972 315.571 203.307 324.116 202.757 330.573C202.483 333.8 202.485 336.529 202.654 338.563C202.739 339.576 202.867 340.449 203.035 341.14C203.119 341.484 203.221 341.814 203.346 342.106C203.46 342.37 203.647 342.735 203.966 343.028L205.997 340.82C206.138 340.95 206.153 341.039 206.103 340.922C206.064 340.832 206.01 340.673 205.95 340.429C205.831 339.941 205.721 339.235 205.644 338.314C205.491 336.48 205.483 333.923 205.747 330.828C206.273 324.642 207.875 316.4 211.488 307.617C218.697 290.089 233.912 270.383 264.693 260.502L263.776 257.646ZM203.966 343.028C204.044 343.1 204.031 343.096 203.989 343.042C203.979 343.029 203.875 342.902 203.799 342.696C203.737 342.532 203.511 341.774 204.141 341.143C204.616 340.668 205.19 340.713 205.223 340.714C205.362 340.72 205.457 340.746 205.467 340.748C205.5 340.757 205.487 340.756 205.393 340.718C205.01 340.565 204.299 340.223 203.177 339.707C201.013 338.712 197.66 337.234 193.704 336.007C185.89 333.584 175.248 331.993 166.796 337.679L168.47 340.168C175.723 335.289 185.173 336.502 192.815 338.873C196.588 340.042 199.804 341.458 201.924 342.433C202.943 342.901 203.802 343.312 204.276 343.503C204.397 343.551 204.553 343.61 204.71 343.651C204.781 343.67 204.926 343.705 205.103 343.712C205.173 343.715 205.774 343.753 206.263 343.264C206.906 342.62 206.681 341.841 206.609 341.647C206.521 341.412 206.394 341.247 206.347 341.187C206.232 341.041 206.096 340.911 205.997 340.82L203.966 343.028ZM166.796 337.679C158.446 343.296 155.763 351.451 155.371 358.319C155.176 361.745 155.546 364.879 156.072 367.28C156.336 368.481 156.642 369.516 156.946 370.326C157.098 370.731 157.255 371.095 157.414 371.403C157.56 371.687 157.751 372.013 157.995 372.273L160.184 370.222C160.226 370.267 160.186 370.235 160.082 370.032C159.99 369.853 159.878 369.601 159.755 369.272C159.509 368.617 159.241 367.722 159.003 366.637C158.527 364.467 158.188 361.609 158.366 358.489C158.722 352.265 161.114 345.116 168.47 340.168L166.796 337.679ZM157.995 372.273C157.963 372.239 157.828 372.094 157.735 371.847C157.623 371.55 157.564 371.055 157.865 370.575C158.113 370.178 158.463 370.036 158.573 369.996C158.708 369.947 158.808 369.937 158.825 369.935C158.845 369.933 158.716 369.937 158.272 369.89C157.561 369.816 156.158 369.625 154.582 369.477C151.315 369.171 146.622 368.967 141.448 369.85C136.268 370.734 130.582 372.711 125.362 376.781C120.134 380.857 115.45 386.973 112.199 396.011L115.022 397.027C118.101 388.468 122.469 382.841 127.206 379.147C131.952 375.447 137.145 373.628 141.953 372.807C146.767 371.986 151.171 372.17 154.302 372.464C155.925 372.616 157.046 372.778 157.959 372.874C158.328 372.913 158.786 372.956 159.14 372.919C159.24 372.908 159.408 372.884 159.595 372.817C159.756 372.758 160.141 372.593 160.407 372.167C160.726 371.657 160.669 371.127 160.542 370.789C160.433 370.501 160.266 370.309 160.184 370.222L157.995 372.273ZM112.199 396.011C105.692 414.097 109.695 428.69 115.818 438.69C118.869 443.672 122.444 447.515 125.505 450.098C127.034 451.388 128.455 452.382 129.64 453.05C130.231 453.382 130.79 453.649 131.292 453.828C131.748 453.99 132.333 454.147 132.906 454.08L132.559 451.1C132.69 451.085 132.64 451.123 132.3 451.002C132.006 450.897 131.607 450.714 131.112 450.435C130.126 449.88 128.859 449.003 127.44 447.805C124.605 445.413 121.247 441.811 118.377 437.123C112.657 427.782 108.867 414.134 115.022 397.027L112.199 396.011ZM97.4162 495.692C93.9452 515.111 100.92 531.186 108.465 542.307C112.24 547.871 116.174 552.222 119.054 555.165C120.491 556.634 121.677 557.762 122.422 558.489C122.813 558.87 123.041 559.101 123.149 559.226C123.25 559.343 123.119 559.223 123.028 558.984C123.011 558.939 122.715 558.206 123.28 557.532C123.8 556.912 124.511 557.012 124.529 557.014L124.23 559.999C124.299 560.006 125.043 560.099 125.579 559.459C126.16 558.766 125.864 558.002 125.83 557.913C125.706 557.587 125.477 557.332 125.42 557.266C125.212 557.025 124.884 556.7 124.517 556.342C123.745 555.589 122.603 554.502 121.198 553.067C118.395 550.203 114.59 545.992 110.948 540.623C103.658 529.877 97.0848 514.596 100.369 496.219L97.4162 495.692ZM124.529 557.014C124.204 556.982 123.92 557.049 123.778 557.087C123.602 557.134 123.425 557.199 123.258 557.268C122.923 557.407 122.532 557.605 122.105 557.846C121.248 558.333 120.161 559.05 118.947 559.983C116.519 561.848 113.525 564.623 110.801 568.248C105.341 575.516 100.938 586.262 104.494 599.854L107.397 599.095C104.129 586.605 108.139 576.786 113.2 570.05C115.737 566.673 118.53 564.087 120.775 562.361C121.898 561.498 122.87 560.862 123.587 560.455C123.948 560.25 124.223 560.116 124.407 560.039C124.451 560.021 124.486 560.008 124.513 559.998C124.526 559.994 124.536 559.991 124.543 559.988C124.546 559.987 124.549 559.986 124.551 559.986C124.553 559.985 124.554 559.985 124.554 559.985C124.554 559.985 124.553 559.985 124.55 559.986C124.548 559.986 124.545 559.987 124.54 559.988C124.531 559.99 124.514 559.993 124.492 559.996C124.456 560.001 124.361 560.012 124.23 559.999L124.529 557.014ZM228.574 629.171C219.682 626.406 211.15 622.502 204.174 617.412L202.406 619.835C209.715 625.169 218.567 629.201 227.683 632.036L228.574 629.171ZM204.174 617.412C193.803 609.844 186.971 599.745 187.261 586.853L184.262 586.786C183.943 600.953 191.513 611.886 202.406 619.835L204.174 617.412ZM104.494 599.854C106.332 606.881 111.54 612.498 118.599 616.74C125.661 620.985 134.7 623.935 144.491 625.601C164.052 628.93 186.983 627.194 203.877 620.004L202.703 617.243C186.439 624.165 164.11 625.897 144.994 622.644C135.447 621.019 126.793 618.165 120.144 614.169C113.492 610.171 108.97 605.109 107.397 599.095L104.494 599.854ZM537.796 594.745C537.4 603.573 533.926 610.116 528.324 615.201L530.34 617.422C536.508 611.823 540.36 604.54 540.793 594.88L537.796 594.745ZM528.324 615.201C523.396 619.674 516.778 623.056 509.037 625.796L510.038 628.624C517.968 625.817 525 622.27 530.34 617.422L528.324 615.201ZM580.371 584.42C579.754 590.407 576.421 595.31 571.567 599.34C566.701 603.381 560.395 606.464 554.077 608.778C547.773 611.086 541.537 612.6 536.869 613.536C534.537 614.003 532.603 614.325 531.254 614.53C530.58 614.633 530.053 614.706 529.696 614.753C529.517 614.777 529.381 614.794 529.291 614.805C529.246 614.811 529.212 614.815 529.19 614.818C529.18 614.819 529.171 614.82 529.166 614.82C529.164 614.821 529.162 614.821 529.161 614.821C529.161 614.821 529.16 614.821 529.16 614.821C529.16 614.821 529.16 614.821 529.332 616.311C529.504 617.801 529.505 617.801 529.506 617.801C529.506 617.801 529.507 617.801 529.508 617.801C529.51 617.801 529.513 617.8 529.516 617.8C529.523 617.799 529.533 617.798 529.546 617.796C529.572 617.793 529.61 617.789 529.66 617.783C529.758 617.77 529.903 617.752 530.09 617.727C530.465 617.678 531.011 617.602 531.705 617.496C533.093 617.285 535.075 616.955 537.458 616.477C542.221 615.522 548.616 613.973 555.109 611.595C561.589 609.222 568.249 605.995 573.483 601.648C578.73 597.292 582.633 591.732 583.355 584.727L580.371 584.42ZM233.632 570.973C230.32 570.798 225.243 571.828 220.793 574.257C216.325 576.696 212.225 580.702 211.416 586.616L214.388 587.023C215.021 582.397 218.237 579.07 222.23 576.89C226.24 574.701 230.769 573.826 233.474 573.968L233.632 570.973ZM211.416 586.616C210.988 589.743 212.023 592.288 213.838 594.259C215.606 596.18 218.087 597.537 220.607 598.5C225.646 600.427 231.359 600.975 233.553 600.975L233.553 597.975C231.63 597.975 226.296 597.464 221.679 595.698C219.371 594.816 217.371 593.668 216.045 592.227C214.766 590.838 214.095 589.166 214.388 587.023L211.416 586.616ZM233.553 600.975C235.854 600.975 240.746 600.078 245.164 597.992C249.528 595.93 253.999 592.422 254.364 586.919L251.371 586.72C251.119 590.519 247.991 593.338 243.882 595.279C239.827 597.195 235.37 597.975 233.553 597.975L233.553 600.975ZM254.364 586.919C254.732 581.387 250.755 577.449 246.446 574.975C242.09 572.473 236.878 571.144 233.632 570.973L233.474 573.968C236.247 574.114 241.002 575.308 244.952 577.576C248.951 579.872 251.622 582.949 251.371 586.72L254.364 586.919ZM265.536 636.563C253.169 635.261 245.599 634.466 228.574 629.171L227.683 632.036C244.969 637.412 252.755 638.234 265.222 639.546L265.536 636.563ZM187.261 586.853C187.414 580.064 188.599 575.404 190.211 571.845C191.83 568.272 193.911 565.727 196.04 563.134L193.722 561.23C191.6 563.815 189.279 566.633 187.478 570.607C185.672 574.594 184.422 579.664 184.262 586.786L187.261 586.853ZM196.04 563.134C198.698 559.898 201.44 556.579 202.84 551.323L199.942 550.55C198.726 555.113 196.386 557.986 193.722 561.23L196.04 563.134ZM202.84 551.323C204.703 544.332 203.688 539.918 202.214 533.42L199.289 534.083C200.755 540.547 201.599 544.327 199.942 550.55L202.84 551.323ZM202.214 533.42C200.856 527.432 199.041 519.438 198.473 505.469L195.476 505.591C196.054 519.819 197.911 528.012 199.289 534.083L202.214 533.42ZM244.594 440.49C250.56 435.52 251.714 427.728 252.437 423.073L249.472 422.613C248.723 427.441 247.643 434.045 242.674 438.185L244.594 440.49ZM252.437 423.073C252.623 421.87 252.773 420.918 252.95 420.2C253.038 419.845 253.119 419.605 253.189 419.451C253.266 419.283 253.282 419.325 253.175 419.407L251.34 417.033C250.901 417.373 250.633 417.826 250.46 418.205C250.281 418.598 250.147 419.039 250.038 419.48C249.821 420.356 249.651 421.458 249.472 422.613L252.437 423.073ZM253.175 419.407C252.816 419.685 252.515 419.567 252.742 419.607C252.907 419.636 253.2 419.724 253.663 419.919C254.58 420.305 255.819 420.955 257.427 421.8L258.823 419.144C257.265 418.325 255.891 417.602 254.826 417.154C254.298 416.931 253.757 416.738 253.257 416.651C252.819 416.575 252.02 416.508 251.34 417.033L253.175 419.407ZM257.427 421.8C264.146 425.331 276.238 431.714 290.424 430.874L290.246 427.879C276.99 428.664 265.583 422.697 258.823 419.144L257.427 421.8ZM336.011 378.453C337.33 380.41 338.844 382.657 340.27 384.601C341.656 386.491 343.084 388.276 344.229 389.167L346.072 386.8C345.309 386.206 344.113 384.769 342.689 382.827C341.305 380.939 339.825 378.744 338.498 376.776L336.011 378.453ZM449.785 426.201C454.12 426.238 458.615 424.696 462.642 422.77C466.687 420.835 470.408 418.44 473.188 416.651L471.565 414.128C468.769 415.927 465.199 418.222 461.348 420.063C457.48 421.913 453.474 423.232 449.811 423.201L449.785 426.201ZM473.188 416.651C474.609 415.738 475.743 415.009 476.586 414.544C477.013 414.309 477.293 414.182 477.455 414.129C477.537 414.102 477.524 414.116 477.447 414.12C477.377 414.123 477.102 414.127 476.8 413.928L478.452 411.423C478.023 411.14 477.577 411.109 477.293 411.124C477.001 411.139 476.732 411.209 476.516 411.28C476.084 411.422 475.609 411.657 475.138 411.917C474.184 412.443 472.948 413.239 471.565 414.128L473.188 416.651ZM476.8 413.928C476.622 413.81 476.571 413.693 476.593 413.733C476.608 413.762 476.649 413.849 476.7 414.023C476.802 414.374 476.898 414.895 476.982 415.597C477.149 416.995 477.245 418.851 477.352 420.96L480.349 420.807C480.243 418.737 480.143 416.763 479.96 415.24C479.869 414.481 479.751 413.768 479.579 413.181C479.493 412.886 479.381 412.579 479.226 412.296C479.078 412.024 478.838 411.678 478.452 411.423L476.8 413.928ZM477.352 420.96C477.526 424.37 477.729 428.398 478.362 431.668L481.307 431.097C480.722 428.076 480.525 424.277 480.349 420.807L477.352 420.96ZM529.139 501.806C528.408 508.938 526.88 516.618 525.42 523.949L528.362 524.535C529.816 517.234 531.375 509.41 532.123 502.111L529.139 501.806ZM525.42 523.949C524.144 530.357 522.915 536.523 522.366 541.699C522.09 544.291 521.979 546.686 522.129 548.776C522.278 550.848 522.691 552.739 523.555 554.238L526.154 552.738C525.611 551.798 525.255 550.42 525.121 548.561C524.989 546.719 525.083 544.518 525.349 542.016C525.881 537.004 527.078 530.985 528.362 524.535L525.42 523.949ZM523.555 554.238C524.647 556.129 526.116 557.76 527.58 559.394L529.814 557.392C528.307 555.71 527.062 554.311 526.154 552.738L523.555 554.238ZM527.58 559.394C530.103 562.209 532.856 565.291 534.897 570.494C536.946 575.713 538.316 583.179 537.796 594.745L540.793 594.88C541.326 583.029 539.934 575.117 537.69 569.398C535.439 563.661 532.367 560.241 529.814 557.392L527.58 559.394ZM509.037 625.796C498.251 629.614 485.5 632.118 472.483 634.67L473.061 637.614C486.02 635.073 499.004 632.53 510.038 628.624L509.037 625.796ZM472.483 634.67C470.478 635.063 468.468 635.457 466.461 635.857L467.047 638.799C469.049 638.4 471.055 638.007 473.061 637.614L472.483 634.67ZM493.727 573.57C490.414 573.396 485.338 574.425 480.888 576.855C476.42 579.294 472.32 583.3 471.511 589.214L474.483 589.621C475.116 584.995 478.332 581.668 482.325 579.488C486.335 577.299 490.863 576.424 493.569 576.566L493.727 573.57ZM471.511 589.214C471.083 592.341 472.118 594.886 473.933 596.857C475.701 598.778 478.182 600.135 480.702 601.098C485.741 603.025 491.454 603.572 493.648 603.572L493.648 600.572C491.725 600.572 486.391 600.062 481.773 598.296C479.465 597.414 477.466 596.266 476.14 594.825C474.861 593.436 474.19 591.764 474.483 589.621L471.511 589.214ZM493.648 603.572C495.949 603.572 500.841 602.676 505.258 600.59C509.623 598.528 514.094 595.02 514.459 589.517L511.466 589.318C511.214 593.117 508.086 595.936 503.977 597.877C499.921 599.792 495.465 600.572 493.648 600.572L493.648 603.572ZM514.459 589.517C514.827 583.985 510.85 580.047 506.541 577.573C502.184 575.071 496.973 573.741 493.727 573.57L493.569 576.566C496.342 576.712 501.096 577.906 505.047 580.174C509.046 582.47 511.716 585.547 511.466 589.318L514.459 589.517ZM338.498 376.776C338.34 376.542 338.184 376.31 338.031 376.083L335.544 377.762C335.697 377.987 335.852 378.218 336.011 378.453L338.498 376.776ZM334.881 372.712C334.815 372.486 334.822 372.452 334.825 372.522C334.826 372.534 334.845 372.773 334.717 373.068C334.643 373.238 334.5 373.468 334.242 373.654C333.972 373.848 333.677 373.922 333.423 373.926C332.998 373.932 332.721 373.746 332.695 373.729C332.624 373.683 332.594 373.652 332.614 373.671C332.65 373.704 332.734 373.794 332.876 373.969C333.446 374.672 334.383 376.041 335.544 377.762L338.031 376.083C336.902 374.41 335.879 372.909 335.206 372.079C335.036 371.87 334.855 371.66 334.675 371.491C334.587 371.408 334.463 371.298 334.31 371.201C334.202 371.132 333.858 370.919 333.379 370.926C333.098 370.93 332.779 371.011 332.49 371.219C332.211 371.419 332.053 371.671 331.966 371.87C331.813 372.221 331.823 372.546 331.829 372.674C331.845 372.977 331.926 373.296 332.003 373.558L334.881 372.712ZM335.544 377.761L336.011 378.453L338.498 376.776L338.031 376.084L335.544 377.761ZM265.204 639.544L265.208 639.545L265.558 636.565L265.554 636.565L265.204 639.544ZM265.226 639.547C269.025 639.947 273.256 640.392 278.334 641.027L278.706 638.051C273.596 637.411 269.34 636.963 265.54 636.563L265.226 639.547ZM132.906 454.08C133.044 454.064 132.932 454.086 132.772 454.072C132.744 454.069 132.524 454.053 132.273 453.933C132.14 453.869 131.87 453.715 131.664 453.394C131.422 453.018 131.379 452.587 131.472 452.219C131.551 451.908 131.708 451.704 131.785 451.614C131.872 451.513 131.954 451.446 131.999 451.41C132.089 451.341 132.165 451.299 132.187 451.287C132.259 451.248 132.296 451.239 132.189 451.28C132.114 451.308 132.011 451.345 131.868 451.398C131.302 451.604 130.307 451.967 129.008 452.535C126.414 453.669 122.615 455.615 118.508 458.786C110.273 465.146 100.867 476.387 97.4162 495.692L100.369 496.219C103.674 477.728 112.628 467.118 120.342 461.161C124.211 458.173 127.785 456.344 130.21 455.284C131.421 454.754 132.347 454.416 132.896 454.216C133.031 454.167 133.156 454.121 133.255 454.083C133.322 454.058 133.479 453.999 133.614 453.926C133.652 453.906 133.74 453.857 133.839 453.78C133.889 453.742 133.974 453.671 134.063 453.567C134.142 453.474 134.301 453.268 134.381 452.954C134.474 452.584 134.431 452.151 134.188 451.773C133.98 451.45 133.709 451.295 133.572 451.229C133.315 451.105 133.085 451.088 133.043 451.084C132.828 451.064 132.6 451.095 132.559 451.1L132.906 454.08Z" fill="black"/>
</svg>
