<svg width="700" height="900" viewBox="0 0 700 900" fill="none" xmlns="http://www.w3.org/2000/svg">
<path d="M396.95 262.705C392.949 282.701 381.13 321.699 381.13 321.699C395.045 323.93 408.32 326.881 420.333 330.316C420.333 330.316 428.226 298.065 433.087 295.698C437.949 293.331 461.427 299.372 464.848 296.948C468.269 294.524 472.302 264.346 469.975 261.705C467.647 259.065 447.276 255.971 442.966 256.207C438.655 256.443 441.775 217.94 439.089 213.591C436.404 209.242 407.659 205.592 403.953 214.365C400.246 223.138 400.952 242.709 396.95 262.705Z" fill="#FBF5B9"/>
<path d="M316.28 321.699C316.28 321.699 306.971 284.151 303.169 268.579C299.368 253.006 294.003 212.799 290.29 210.216C286.577 207.634 263.528 210.424 257.904 212.215C252.28 214.007 259.032 253.486 255.528 255.206C252.025 256.925 231.806 257.22 227.769 260.955C223.732 264.689 226.769 297.822 234.271 298.696C241.774 299.571 255.406 293.697 261.469 293.822C267.532 293.947 269.908 304.07 272.784 312.443C275.66 320.817 277.942 329.473 277.942 329.473C288.781 326.264 302.035 323.552 316.28 321.699Z" fill="#FBF5B9"/>
<path d="M244.405 682.262C276.171 689.361 304.787 691.446 343.904 691.971C383.021 692.495 444.978 685.936 475.956 678.064C506.935 670.193 529.25 663.108 545.79 647.365C562.329 631.622 569.155 602.235 567.842 575.734C566.529 549.233 547.85 525.881 543.387 518.271C538.924 510.662 545.79 469.831 539.589 440.08C533.388 410.329 515.599 393.901 498.009 374.484C480.419 355.067 462.305 347.196 450.3 340.989C445.645 338.582 433.919 334.2 420.333 330.316C408.32 326.881 395.045 323.93 381.13 321.699C370.199 319.947 359.418 318.909 349.942 319.121C338.566 319.375 327.136 320.288 316.28 321.699C302.035 323.552 288.781 326.264 277.942 329.473C271.498 331.382 265.907 333.466 261.469 335.651C243.88 344.309 208.456 361.102 196.642 374.484C184.828 387.866 164.858 410.168 157.769 440.08C150.681 469.992 158.133 509.911 154.982 518.569C151.832 527.228 134.142 546.609 131.516 572.322C128.891 598.036 136.401 617.453 151.155 636.344C165.908 655.236 212.638 675.163 244.405 682.262Z" fill="#83D6A7"/>
<path d="M261.469 335.651L260.807 334.305L261.469 335.651ZM349.942 319.121L349.975 320.62L349.942 319.121ZM450.3 340.989L449.611 342.321L450.3 340.989ZM381.13 321.699L380.893 323.181L381.13 321.699ZM343.924 690.471C304.854 689.947 276.354 687.865 244.732 680.798L244.077 683.726C275.987 690.857 304.719 692.945 343.883 693.47L343.924 690.471ZM244.732 680.798C228.966 677.275 209.446 670.556 192.038 662.368C174.566 654.149 159.48 644.568 152.337 635.421L149.972 637.268C157.583 647.013 173.239 656.84 190.761 665.083C208.348 673.355 228.077 680.15 244.077 683.726L244.732 680.798ZM152.337 635.421C137.775 616.774 130.43 597.734 133.009 572.475L130.024 572.17C127.353 598.339 135.028 618.131 149.972 637.268L152.337 635.421ZM133.009 572.475C134.291 559.912 139.26 548.847 144.36 539.786C146.911 535.253 149.474 531.254 151.629 527.799C153.748 524.4 155.54 521.424 156.392 519.082L153.573 518.057C152.85 520.044 151.249 522.737 149.083 526.212C146.952 529.629 144.339 533.706 141.745 538.315C136.555 547.537 131.367 559.019 130.024 572.17L133.009 572.475ZM156.392 519.082C156.864 517.785 157.1 516.032 157.214 514.022C157.329 511.982 157.322 509.547 157.25 506.819C157.105 501.391 156.687 494.577 156.398 487.236C155.815 472.441 155.736 455.165 159.229 440.426L156.31 439.734C152.714 454.908 152.817 472.546 153.4 487.354C153.694 494.814 154.106 501.472 154.251 506.899C154.323 509.598 154.326 511.936 154.218 513.853C154.108 515.8 153.888 517.189 153.573 518.057L156.392 519.082ZM159.229 440.426C166.219 410.928 185.929 388.885 197.767 375.477L195.518 373.491C183.727 386.846 163.496 409.408 156.31 439.734L159.229 440.426ZM197.767 375.477C203.48 369.005 215.067 361.572 227.618 354.608C240.108 347.677 253.318 341.335 262.132 336.996L260.807 334.305C252.03 338.625 238.734 345.009 226.162 351.985C213.65 358.927 201.619 366.581 195.518 373.491L197.767 375.477ZM449.611 342.321C461.673 348.558 479.523 356.313 496.897 375.491L499.121 373.477C481.315 353.822 462.937 345.834 450.989 339.656L449.611 342.321ZM496.897 375.491C514.585 395.016 532.02 411.121 538.12 440.386L541.057 439.774C534.755 409.538 516.612 392.785 499.121 373.477L496.897 375.491ZM538.12 440.386C541.18 455.067 541.024 472.547 540.64 487.44C540.449 494.849 540.202 501.647 540.283 507.05C540.324 509.755 540.447 512.157 540.71 514.144C540.967 516.089 541.377 517.809 542.094 519.03L544.681 517.512C544.282 516.831 543.93 515.611 543.684 513.751C543.444 511.932 543.323 509.663 543.283 507.005C543.203 501.683 543.447 494.986 543.639 487.517C544.022 472.656 544.198 454.844 541.057 439.774L538.12 440.386ZM542.094 519.03C543.233 520.972 545.294 523.945 547.651 527.554C550.038 531.209 552.806 535.628 555.473 540.624C560.815 550.634 565.703 562.871 566.344 575.808L569.34 575.659C568.668 562.096 563.561 549.406 558.119 539.212C555.394 534.106 552.574 529.605 550.163 525.913C547.721 522.175 545.774 519.375 544.681 517.512L542.094 519.03ZM566.344 575.808C567.647 602.121 560.835 630.973 544.755 646.279L546.824 648.451C563.823 632.27 570.662 602.348 569.34 575.659L566.344 575.808ZM544.755 646.279C528.537 661.716 506.599 668.73 475.587 676.61L476.326 679.518C507.271 671.655 529.963 664.5 546.824 648.451L544.755 646.279ZM475.587 676.61C444.759 684.444 382.936 690.994 343.924 690.471L343.883 693.47C383.105 693.997 445.197 687.428 476.326 679.518L475.587 676.61ZM316.474 323.187C327.279 321.782 338.656 320.873 349.975 320.62L349.908 317.621C338.476 317.876 326.992 318.794 316.087 320.212L316.474 323.187ZM316.28 321.699C317.736 321.338 317.736 321.338 317.736 321.338C317.736 321.338 317.736 321.337 317.736 321.337C317.736 321.336 317.735 321.334 317.735 321.332C317.734 321.327 317.732 321.32 317.73 321.311C317.725 321.293 317.718 321.266 317.71 321.23C317.692 321.159 317.665 321.052 317.631 320.913C317.562 320.634 317.46 320.223 317.329 319.695C317.067 318.638 316.689 317.11 316.222 315.229C315.29 311.465 314.008 306.285 312.607 300.619C309.804 289.285 306.527 276.007 304.626 268.223L301.712 268.934C303.613 276.723 306.892 290.005 309.694 301.339C311.096 307.006 312.378 312.186 313.31 315.95C313.777 317.832 314.155 319.359 314.417 320.416C314.548 320.945 314.65 321.356 314.719 321.635C314.754 321.774 314.78 321.881 314.798 321.952C314.807 321.988 314.813 322.015 314.818 322.033C314.82 322.042 314.822 322.049 314.823 322.054C314.823 322.056 314.824 322.058 314.824 322.059C314.824 322.059 314.824 322.06 314.824 322.06C314.825 322.06 314.825 322.06 316.28 321.699ZM304.626 268.223C302.739 260.491 300.464 246.64 298.171 234.253C297.031 228.091 295.886 222.298 294.79 217.874C294.243 215.667 293.698 213.761 293.16 212.306C292.892 211.581 292.612 210.931 292.316 210.399C292.042 209.904 291.668 209.348 291.146 208.985L289.433 211.448C289.376 211.408 289.479 211.468 289.693 211.854C289.886 212.202 290.106 212.696 290.347 213.347C290.827 214.647 291.341 216.428 291.878 218.596C292.951 222.925 294.082 228.641 295.221 234.799C297.49 247.055 299.798 261.094 301.712 268.934L304.626 268.223ZM291.146 208.985C290.396 208.463 289.352 208.183 288.311 208.008C287.22 207.825 285.916 207.726 284.494 207.688C281.645 207.612 278.178 207.779 274.685 208.081C267.743 208.681 260.432 209.836 257.449 210.786L258.359 213.644C261.001 212.803 268.026 211.667 274.943 211.07C278.379 210.773 281.722 210.615 284.414 210.687C285.762 210.723 286.913 210.815 287.814 210.967C288.767 211.127 289.255 211.324 289.433 211.448L291.146 208.985ZM257.449 210.786C256.677 211.032 256.126 211.568 255.743 212.139C255.364 212.704 255.093 213.382 254.889 214.092C254.482 215.51 254.263 217.34 254.155 219.366C253.937 223.437 254.15 228.67 254.423 233.817C254.698 239.006 255.035 244.104 255.087 248.035C255.113 250.004 255.065 251.608 254.918 252.746C254.844 253.32 254.752 253.703 254.666 253.931C254.559 254.217 254.557 254.012 254.867 253.859L256.189 256.552C256.938 256.185 257.293 255.469 257.475 254.987C257.678 254.447 257.806 253.805 257.893 253.131C258.069 251.774 258.113 249.997 258.087 247.995C258.034 243.985 257.69 238.778 257.419 233.658C257.145 228.496 256.943 223.416 257.151 219.527C257.255 217.573 257.459 216.011 257.772 214.921C257.929 214.376 258.093 214.021 258.235 213.81C258.372 213.605 258.428 213.622 258.359 213.644L257.449 210.786ZM254.867 253.859C254.617 253.982 254.084 254.145 253.2 254.323C252.352 254.493 251.296 254.655 250.082 254.818C247.617 255.147 244.723 255.451 241.661 255.836C238.654 256.215 235.576 256.663 232.98 257.261C231.682 257.56 230.471 257.904 229.432 258.308C228.415 258.705 227.456 259.201 226.75 259.853L228.788 262.056C229.091 261.775 229.648 261.444 230.522 261.104C231.376 260.771 232.434 260.465 233.653 260.185C236.093 259.623 239.046 259.19 242.036 258.813C244.971 258.443 248.041 258.117 250.479 257.791C251.716 257.626 252.847 257.453 253.79 257.264C254.698 257.082 255.563 256.86 256.189 256.552L254.867 253.859ZM226.75 259.853C225.886 260.653 225.416 261.98 225.119 263.279C224.803 264.663 224.614 266.364 224.528 268.236C224.358 271.987 224.601 276.597 225.206 281.098C225.811 285.589 226.788 290.058 228.124 293.498C228.79 295.214 229.574 296.749 230.498 297.91C231.412 299.059 232.602 300.012 234.097 300.186L234.445 297.206C234.064 297.162 233.518 296.888 232.846 296.043C232.184 295.211 231.531 293.984 230.921 292.412C229.703 289.277 228.767 285.065 228.179 280.698C227.593 276.339 227.364 271.911 227.525 268.372C227.606 266.599 227.783 265.092 228.044 263.946C228.325 262.715 228.642 262.19 228.788 262.056L226.75 259.853ZM234.097 300.186C236.187 300.43 238.614 300.198 241.092 299.764C243.587 299.326 246.235 298.664 248.792 297.991C251.372 297.312 253.836 296.628 256.054 296.116C258.292 295.599 260.124 295.295 261.438 295.322L261.5 292.323C259.783 292.287 257.637 292.671 255.379 293.193C253.101 293.719 250.551 294.426 248.028 295.09C245.481 295.76 242.936 296.395 240.574 296.809C238.197 297.226 236.106 297.4 234.445 297.206L234.097 300.186ZM262.132 336.996C266.469 334.861 271.975 332.805 278.368 330.912L277.516 328.035C271.02 329.959 265.344 332.071 260.807 334.305L262.132 336.996ZM278.368 330.912C289.116 327.729 302.291 325.031 316.474 323.187L316.087 320.212C301.78 322.073 288.446 324.798 277.516 328.035L278.368 330.912ZM349.975 320.62C359.328 320.411 370.013 321.437 380.893 323.181L381.368 320.218C370.386 318.458 359.507 317.406 349.908 317.621L349.975 320.62ZM381.13 321.699C382.566 322.134 382.566 322.134 382.566 322.134C382.566 322.134 382.566 322.133 382.566 322.133C382.567 322.131 382.567 322.13 382.568 322.127C382.569 322.122 382.572 322.115 382.574 322.106C382.58 322.087 382.589 322.058 382.6 322.021C382.623 321.946 382.656 321.835 382.7 321.689C382.788 321.398 382.917 320.969 383.083 320.415C383.414 319.308 383.892 317.704 384.478 315.718C385.65 311.745 387.254 306.239 388.983 300.108C392.438 287.86 396.408 273.061 398.421 262.999L395.48 262.411C393.492 272.345 389.551 287.043 386.096 299.293C384.371 305.411 382.77 310.905 381.601 314.869C381.016 316.851 380.539 318.451 380.209 319.554C380.044 320.106 379.915 320.534 379.828 320.824C379.784 320.969 379.751 321.079 379.728 321.153C379.717 321.19 379.709 321.218 379.703 321.237C379.7 321.246 379.698 321.253 379.697 321.258C379.696 321.26 379.695 321.262 379.695 321.263C379.695 321.263 379.695 321.264 379.695 321.264C379.695 321.264 379.695 321.264 381.13 321.699ZM398.421 262.999C400.441 252.908 401.271 242.931 402.056 234.465C402.45 230.217 402.83 226.365 403.34 223.034C403.852 219.69 404.481 216.969 405.334 214.949L402.571 213.781C401.571 216.148 400.898 219.163 400.375 222.58C399.85 226.011 399.462 229.947 399.068 234.188C398.279 242.7 397.462 252.506 395.48 262.411L398.421 262.999ZM405.334 214.949C405.973 213.437 407.846 212.182 410.997 211.386C414.061 210.611 417.926 210.38 421.837 210.556C425.738 210.731 429.593 211.308 432.609 212.095C434.12 212.489 435.381 212.926 436.317 213.371C437.319 213.847 437.718 214.225 437.813 214.379L440.366 212.803C439.789 211.869 438.703 211.182 437.604 210.661C436.44 210.108 434.986 209.614 433.366 209.192C430.122 208.346 426.056 207.743 421.972 207.559C417.898 207.375 413.713 207.605 410.261 208.477C406.896 209.328 403.786 210.907 402.571 213.781L405.334 214.949ZM437.813 214.379C437.856 214.448 437.957 214.671 438.07 215.141C438.177 215.586 438.275 216.16 438.361 216.863C438.534 218.268 438.647 220.078 438.723 222.172C438.874 226.363 438.871 231.537 438.918 236.632C438.965 241.694 439.063 246.685 439.426 250.405C439.606 252.25 439.86 253.882 440.243 255.079C440.432 255.668 440.688 256.27 441.067 256.748C441.465 257.249 442.129 257.755 443.048 257.704L442.884 254.709C443.263 254.688 443.446 254.92 443.416 254.882C443.366 254.819 443.244 254.614 443.1 254.164C442.818 253.284 442.588 251.913 442.412 250.113C442.064 246.545 441.965 241.682 441.918 236.604C441.871 231.559 441.874 226.308 441.721 222.064C441.644 219.94 441.527 218.03 441.339 216.498C441.245 215.732 441.13 215.034 440.986 214.437C440.848 213.865 440.659 213.277 440.366 212.803L437.813 214.379ZM443.048 257.704C443.981 257.653 445.943 257.786 448.503 258.085C451.023 258.379 454.015 258.822 456.946 259.353C459.883 259.886 462.729 260.503 464.967 261.142C466.089 261.462 467.026 261.778 467.733 262.081C468.087 262.232 468.36 262.37 468.561 262.491C468.66 262.55 468.732 262.601 468.783 262.64C468.835 262.68 468.852 262.7 468.849 262.697L471.1 260.714C470.569 260.111 469.719 259.667 468.912 259.322C468.043 258.951 466.973 258.594 465.791 258.257C463.42 257.58 460.468 256.943 457.482 256.401C454.491 255.859 451.436 255.407 448.851 255.105C446.307 254.808 444.106 254.642 442.884 254.709L443.048 257.704ZM468.849 262.697C468.762 262.598 468.809 262.597 468.889 262.895C468.958 263.154 469.022 263.527 469.07 264.024C469.167 265.015 469.189 266.348 469.137 267.937C469.035 271.107 468.649 275.146 468.082 279.2C467.514 283.254 466.771 287.277 465.967 290.418C465.563 291.992 465.154 293.306 464.757 294.279C464.558 294.767 464.376 295.137 464.215 295.399C464.042 295.683 463.953 295.744 463.981 295.724L465.715 298.172C466.171 297.849 466.514 297.39 466.775 296.964C467.048 296.517 467.3 295.987 467.535 295.412C468.004 294.261 468.453 292.8 468.873 291.162C469.714 287.88 470.475 283.739 471.053 279.616C471.63 275.492 472.029 271.341 472.136 268.033C472.189 266.385 472.171 264.907 472.056 263.733C471.999 263.147 471.914 262.599 471.788 262.124C471.672 261.689 471.479 261.143 471.1 260.714L468.849 262.697ZM463.981 295.724C463.984 295.721 463.962 295.738 463.898 295.764C463.835 295.79 463.744 295.821 463.62 295.851C463.368 295.914 463.028 295.965 462.591 295.997C461.715 296.061 460.579 296.038 459.228 295.946C456.528 295.761 453.174 295.315 449.704 294.857C446.264 294.403 442.716 293.938 439.72 293.739C438.221 293.639 436.822 293.603 435.619 293.674C434.454 293.743 433.312 293.92 432.431 294.349L433.744 297.047C434.078 296.884 434.733 296.732 435.797 296.669C436.822 296.608 438.081 296.636 439.52 296.732C442.401 296.924 445.847 297.374 449.312 297.831C452.747 298.285 456.208 298.746 459.024 298.939C460.431 299.035 461.728 299.068 462.81 298.989C463.813 298.916 464.924 298.732 465.715 298.172L463.981 295.724ZM380.893 323.181C394.752 325.402 407.968 328.34 419.921 331.758L420.746 328.873C408.671 325.421 395.338 322.458 381.368 320.218L380.893 323.181ZM419.921 331.758C433.481 335.635 445.092 339.984 449.611 342.321L450.989 339.656C446.198 337.179 434.357 332.765 420.746 328.873L419.921 331.758ZM432.431 294.349C431.401 294.851 430.556 295.957 429.866 297.08C429.129 298.279 428.388 299.81 427.663 301.52C426.209 304.946 424.75 309.256 423.454 313.452C422.156 317.656 421.012 321.781 420.193 324.853C419.783 326.39 419.455 327.664 419.228 328.556C419.115 329.001 419.027 329.351 418.968 329.59C418.938 329.71 418.915 329.801 418.9 329.863C418.892 329.895 418.886 329.918 418.882 329.934C418.88 329.942 418.879 329.948 418.878 329.952C418.877 329.954 418.877 329.956 418.877 329.957C418.877 329.958 418.876 329.958 418.876 329.958C418.876 329.959 418.876 329.959 420.333 330.316C421.79 330.672 421.79 330.672 421.79 330.672C421.79 330.672 421.79 330.671 421.79 330.671C421.791 330.67 421.791 330.669 421.791 330.667C421.792 330.663 421.794 330.658 421.796 330.65C421.799 330.635 421.805 330.613 421.812 330.582C421.827 330.522 421.849 330.433 421.879 330.315C421.937 330.081 422.024 329.735 422.136 329.295C422.36 328.413 422.686 327.15 423.092 325.626C423.905 322.577 425.038 318.492 426.32 314.337C427.606 310.175 429.03 305.978 430.424 302.692C431.123 301.045 431.796 299.668 432.422 298.651C433.094 297.557 433.558 297.137 433.744 297.047L432.431 294.349ZM261.438 295.322C263.509 295.365 265.265 297.11 266.968 300.685C268.63 304.175 269.885 308.622 271.365 312.931L274.203 311.956C272.807 307.892 271.436 303.09 269.676 299.395C267.956 295.784 265.492 292.405 261.5 292.323L261.438 295.322ZM271.365 312.931C272.792 317.086 274.074 321.318 275.001 324.516C275.464 326.113 275.837 327.45 276.094 328.387C276.223 328.856 276.322 329.224 276.39 329.474C276.423 329.6 276.449 329.695 276.466 329.76C276.475 329.792 276.481 329.816 276.485 329.832C276.488 329.84 276.489 329.846 276.49 329.85C276.491 329.852 276.491 329.854 276.491 329.854C276.491 329.855 276.491 329.855 276.492 329.855C276.492 329.856 276.492 329.856 276.492 329.856C276.492 329.856 276.492 329.856 277.942 329.473C279.392 329.091 279.392 329.091 279.392 329.091C279.392 329.091 279.392 329.091 279.392 329.09C279.392 329.09 279.392 329.09 279.392 329.089C279.392 329.088 279.391 329.086 279.391 329.084C279.389 329.079 279.388 329.073 279.385 329.064C279.381 329.047 279.374 329.022 279.365 328.988C279.348 328.922 279.321 328.823 279.287 328.696C279.218 328.44 279.117 328.067 278.987 327.593C278.727 326.645 278.35 325.294 277.882 323.681C276.949 320.457 275.651 316.174 274.203 311.956L271.365 312.931Z" fill="black"/>
</svg>
