<svg width="200" height="50" viewBox="0 0 200 50" fill="none" xmlns="http://www.w3.org/2000/svg">
<rect width="200" height="50" fill="#FFC42E"/>
<path d="M29.874 26.5581V31.8131C29.874 31.9465 29.9491 32.0299 30.0992 32.0633C30.6831 32.1467 31.2336 32.1884 31.7508 32.1884C33.1354 32.1884 34.1447 31.9382 34.7786 31.4377C35.4293 30.9206 35.7546 30.1365 35.7546 29.0855C35.7546 28.1513 35.3792 27.4673 34.6285 27.0335C33.8945 26.5831 32.6683 26.3579 30.95 26.3579H30.0742C29.9407 26.3579 29.874 26.4246 29.874 26.5581ZM29.874 19.2512V23.5302C29.874 23.6804 29.9407 23.7554 30.0742 23.7554H30.7999C32.3513 23.7554 33.4691 23.5469 34.153 23.1298C34.8537 22.6961 35.204 22.0622 35.204 21.228C35.204 20.4273 34.9204 19.8351 34.3532 19.4514C33.786 19.0677 32.8602 18.8758 31.5756 18.8758C30.9917 18.8758 30.4912 18.9092 30.0742 18.9759C29.9407 19.0093 29.874 19.101 29.874 19.2512ZM27.822 34.7158C27.4217 34.6825 27.088 34.5156 26.8211 34.2153C26.5542 33.8984 26.4207 33.5314 26.4207 33.1143V17.9499C26.4207 17.5329 26.5542 17.1742 26.8211 16.8739C27.088 16.5569 27.43 16.3818 27.8471 16.3484C29.0816 16.215 30.2744 16.1482 31.4255 16.1482C36.0966 16.1482 38.4321 17.6747 38.4321 20.7276C38.4321 21.7452 38.0901 22.6294 37.4061 23.3801C36.7221 24.1308 35.8213 24.6146 34.7036 24.8315C34.6869 24.8315 34.6785 24.8398 34.6785 24.8565C34.6785 24.8898 34.6869 24.9065 34.7036 24.9065C36.0715 25.1067 37.1392 25.6155 37.9066 26.433C38.6907 27.2337 39.0827 28.2263 39.0827 29.4108C39.0827 31.2459 38.4821 32.6222 37.281 33.5397C36.0799 34.4572 34.2114 34.916 31.6757 34.916C30.4078 34.916 29.1233 34.8493 27.822 34.7158ZM43.3403 34.6658C42.9566 34.6658 42.6229 34.524 42.3393 34.2404C42.0557 33.9568 41.9139 33.6231 41.9139 33.2394V17.8248C41.9139 17.4411 42.0557 17.1075 42.3393 16.8239C42.6229 16.5403 42.9566 16.3985 43.3403 16.3985H51.8483C52.232 16.3985 52.5657 16.5403 52.8493 16.8239C53.1329 17.1075 53.2747 17.4411 53.2747 17.8248C53.2747 18.2085 53.1329 18.5422 52.8493 18.8258C52.5657 19.0927 52.232 19.2261 51.8483 19.2261H45.6424C45.4923 19.2261 45.4172 19.3012 45.4172 19.4514V23.4802C45.4172 23.6303 45.4923 23.7054 45.6424 23.7054H51.4229C51.8066 23.7054 52.1236 23.8388 52.3738 24.1058C52.6407 24.3727 52.7742 24.6897 52.7742 25.0567C52.7742 25.4237 52.6407 25.7406 52.3738 26.0076C52.1236 26.2578 51.8066 26.3829 51.4229 26.3829H45.6424C45.4923 26.3829 45.4172 26.458 45.4172 26.6081V31.6129C45.4172 31.763 45.4923 31.8381 45.6424 31.8381H51.8483C52.232 31.8381 52.5657 31.9799 52.8493 32.2635C53.1329 32.5304 53.2747 32.8557 53.2747 33.2394C53.2747 33.6231 53.1329 33.9568 52.8493 34.2404C52.5657 34.524 52.232 34.6658 51.8483 34.6658H43.3403ZM63.2482 19.5014L61.0461 27.3588C61.0294 27.4089 61.0378 27.4589 61.0711 27.509C61.1045 27.559 61.1462 27.5841 61.1962 27.5841H65.3502C65.4002 27.5841 65.4419 27.559 65.4753 27.509C65.5087 27.4589 65.517 27.4089 65.5003 27.3588L63.2982 19.5014C63.2982 19.4847 63.2899 19.4764 63.2732 19.4764C63.2565 19.4764 63.2482 19.4847 63.2482 19.5014ZM56.7671 34.6658C56.4167 34.6658 56.1415 34.524 55.9413 34.2404C55.7411 33.9568 55.6994 33.6481 55.8162 33.3145L60.9961 17.7497C61.1462 17.3494 61.3881 17.0241 61.7217 16.7738C62.0721 16.5236 62.4558 16.3985 62.8728 16.3985H63.7737C64.2074 16.3985 64.5911 16.5236 64.9248 16.7738C65.2751 17.0241 65.517 17.3494 65.6505 17.7497L70.8304 33.3145C70.9472 33.6481 70.9054 33.9568 70.7053 34.2404C70.5051 34.524 70.2298 34.6658 69.8795 34.6658H68.9786C68.5782 34.6658 68.2029 34.5407 67.8526 34.2904C67.5189 34.0235 67.2937 33.6898 67.1769 33.2895L66.3762 30.4618C66.3595 30.3283 66.2677 30.2616 66.1009 30.2616H60.4455C60.2954 30.2616 60.2036 30.3283 60.1703 30.4618L59.3695 33.2895C59.2694 33.6898 59.0442 34.0235 58.6939 34.2904C58.3602 34.5407 57.9849 34.6658 57.5678 34.6658H56.7671ZM77.8818 26.9585C75.8799 26.2912 74.4285 25.4821 73.5277 24.5312C72.6435 23.5803 72.2014 22.4292 72.2014 21.0779C72.2014 19.5598 72.7102 18.3587 73.7278 17.4745C74.7455 16.5903 76.1718 16.1482 78.0069 16.1482C79.5584 16.1482 80.9097 16.3234 82.0607 16.6737C82.4611 16.7905 82.7781 17.0324 83.0116 17.3994C83.2619 17.7497 83.387 18.1418 83.387 18.5755V18.8007C83.387 19.1177 83.2452 19.3679 82.9616 19.5515C82.678 19.7183 82.3861 19.7433 82.0858 19.6265C80.8346 19.1427 79.5584 18.9008 78.2571 18.9008C77.423 18.9008 76.7891 19.0927 76.3553 19.4764C75.9216 19.8601 75.7047 20.3939 75.7047 21.0779C75.7047 22.279 76.4888 23.1382 78.0569 23.6553C80.3091 24.3727 81.8689 25.1901 82.7364 26.1077C83.6206 27.0252 84.0626 28.2097 84.0626 29.661C84.0626 33.1643 81.9023 34.916 77.5815 34.916C76.2302 34.916 75.0041 34.7075 73.903 34.2904C73.5026 34.1403 73.1857 33.8817 72.9521 33.5147C72.7352 33.1477 72.6268 32.7389 72.6268 32.2885V31.9882C72.6268 31.6713 72.7603 31.4461 73.0272 31.3126C73.2941 31.1625 73.5694 31.1541 73.853 31.2876C74.954 31.8381 76.1134 32.1134 77.3313 32.1134C79.4499 32.1134 80.5093 31.3126 80.5093 29.7111C80.5093 29.0605 80.3091 28.5266 79.9087 28.1096C79.5083 27.6758 78.8327 27.2921 77.8818 26.9585ZM87.7036 19.3012C87.3199 19.3012 86.9862 19.1678 86.7026 18.9008C86.419 18.6172 86.2772 18.2836 86.2772 17.8999V17.8248C86.2772 17.4411 86.419 17.1075 86.7026 16.8239C86.9862 16.5403 87.3199 16.3985 87.7036 16.3985H98.3637C98.7474 16.3985 99.081 16.5403 99.3646 16.8239C99.6482 17.1075 99.79 17.4411 99.79 17.8248V17.8999C99.79 18.2836 99.6482 18.6172 99.3646 18.9008C99.081 19.1678 98.7474 19.3012 98.3637 19.3012H95.0105C94.8771 19.3012 94.8103 19.3763 94.8103 19.5264V33.2394C94.8103 33.6231 94.6685 33.9568 94.3849 34.2404C94.1013 34.524 93.7677 34.6658 93.384 34.6658H92.6833C92.2996 34.6658 91.966 34.524 91.6824 34.2404C91.3988 33.9568 91.257 33.6231 91.257 33.2394V19.5264C91.257 19.3763 91.1902 19.3012 91.0568 19.3012H87.7036ZM106.649 19.5014L104.447 27.3588C104.43 27.4089 104.438 27.4589 104.472 27.509C104.505 27.559 104.547 27.5841 104.597 27.5841H108.751C108.801 27.5841 108.842 27.559 108.876 27.509C108.909 27.4589 108.918 27.4089 108.901 27.3588L106.699 19.5014C106.699 19.4847 106.69 19.4764 106.674 19.4764C106.657 19.4764 106.649 19.4847 106.649 19.5014ZM100.168 34.6658C99.8172 34.6658 99.542 34.524 99.3418 34.2404C99.1416 33.9568 99.0999 33.6481 99.2166 33.3145L104.397 17.7497C104.547 17.3494 104.789 17.0241 105.122 16.7738C105.473 16.5236 105.856 16.3985 106.273 16.3985H107.174C107.608 16.3985 107.992 16.5236 108.325 16.7738C108.676 17.0241 108.918 17.3494 109.051 17.7497L114.231 33.3145C114.348 33.6481 114.306 33.9568 114.106 34.2404C113.906 34.524 113.63 34.6658 113.28 34.6658H112.379C111.979 34.6658 111.603 34.5407 111.253 34.2904C110.919 34.0235 110.694 33.6898 110.577 33.2895L109.777 30.4618C109.76 30.3283 109.668 30.2616 109.501 30.2616H103.846C103.696 30.2616 103.604 30.3283 103.571 30.4618L102.77 33.2895C102.67 33.6898 102.445 34.0235 102.094 34.2904C101.761 34.5407 101.385 34.6658 100.968 34.6658H100.168Z" fill="white"/>
<path d="M125.198 30.637L132.655 19.3012V19.2762L132.68 19.2512C132.68 19.2345 132.671 19.2261 132.655 19.2261H125.848C125.465 19.2261 125.131 19.0927 124.847 18.8258C124.564 18.5422 124.422 18.2085 124.422 17.8248C124.422 17.4411 124.564 17.1075 124.847 16.8239C125.131 16.5403 125.465 16.3985 125.848 16.3985H135.357C135.741 16.3985 136.075 16.5403 136.358 16.8239C136.642 17.1075 136.784 17.4411 136.784 17.8248C136.784 18.759 136.525 19.6265 136.008 20.4273L128.551 31.763V31.788L128.526 31.8131C128.526 31.8298 128.534 31.8381 128.551 31.8381H135.357C135.741 31.8381 136.075 31.9799 136.358 32.2635C136.642 32.5304 136.784 32.8557 136.784 33.2394C136.784 33.6231 136.642 33.9568 136.358 34.2404C136.075 34.524 135.741 34.6658 135.357 34.6658H125.848C125.465 34.6658 125.131 34.524 124.847 34.2404C124.564 33.9568 124.422 33.6231 124.422 33.2394C124.422 32.3052 124.681 31.4377 125.198 30.637ZM151.956 25.5321C151.956 21.1947 150.371 19.026 147.201 19.026C144.031 19.026 142.447 21.1947 142.447 25.5321C142.447 29.8696 144.031 32.0383 147.201 32.0383C150.371 32.0383 151.956 29.8696 151.956 25.5321ZM153.282 32.4387C151.797 34.0902 149.77 34.916 147.201 34.916C144.632 34.916 142.597 34.0902 141.095 32.4387C139.611 30.7871 138.868 28.4849 138.868 25.5321C138.868 22.5793 139.611 20.2771 141.095 18.6256C142.597 16.974 144.632 16.1482 147.201 16.1482C149.77 16.1482 151.797 16.974 153.282 18.6256C154.783 20.2771 155.534 22.5793 155.534 25.5321C155.534 28.4849 154.783 30.7871 153.282 32.4387ZM170.577 25.5321C170.577 21.1947 168.992 19.026 165.822 19.026C162.653 19.026 161.068 21.1947 161.068 25.5321C161.068 29.8696 162.653 32.0383 165.822 32.0383C168.992 32.0383 170.577 29.8696 170.577 25.5321ZM171.903 32.4387C170.418 34.0902 168.391 34.916 165.822 34.916C163.253 34.916 161.218 34.0902 159.717 32.4387C158.232 30.7871 157.489 28.4849 157.489 25.5321C157.489 22.5793 158.232 20.2771 159.717 18.6256C161.218 16.974 163.253 16.1482 165.822 16.1482C168.391 16.1482 170.418 16.974 171.903 18.6256C173.404 20.2771 174.155 22.5793 174.155 25.5321C174.155 28.4849 173.404 30.7871 171.903 32.4387Z" fill="white"/>
</svg>
