<svg width="79" height="79" viewBox="0 0 79 79" fill="none" xmlns="http://www.w3.org/2000/svg">
<path d="M58.3359 39.4686C58.3359 56.7004 44.3668 70.6696 27.1349 70.6696C21.2767 70.6696 15.7956 69.0551 11.1122 66.2468C18.2297 73.7928 28.3214 78.5029 39.5131 78.5029C55.3169 78.5029 68.927 69.1111 75.0667 55.6043L58.2099 36.6446C58.2933 37.5748 58.3359 38.5167 58.3359 39.4686Z" fill="#36AEEA"/>
<path d="M78.5473 39.4688C78.5473 17.9108 61.0711 0.43457 39.5131 0.43457C38.6368 0.43457 37.7673 0.463447 36.9053 0.5203L29.3194 25.375C34.2233 22.1652 40.086 20.2988 46.3846 20.2988C62.6601 20.2988 76.025 32.7604 77.4584 48.6627C78.1702 45.7144 78.5473 42.6356 78.5473 39.4688Z" fill="#36AEEA"/>
<path d="M15.1836 27.7049C15.1836 16.9907 20.584 7.5378 28.8113 1.91982C12.4563 6.57222 0.478943 21.6218 0.478943 39.4688C0.478943 48.1022 3.28179 56.081 8.02717 62.5449L34.5436 56.5806C23.1837 51.9173 15.1836 40.7454 15.1836 27.7049Z" fill="#36AEEA"/>
</svg>
