<svg width="291" height="268" viewBox="0 0 291 268" fill="none" xmlns="http://www.w3.org/2000/svg">
  <path d="M69.286 59.545c-19.16 0-25.857 14.97-25.857 27.416 0 12.445 9.773 24.527 26.318 24.527 16.544 0 25.163-12.313 25.163-24.527s-6.464-27.416-25.624-27.416Zm75.124-22.247c-19.16 0-25.857 14.97-25.857 27.416 0 12.445 9.773 24.526 26.317 24.526 16.545 0 25.163-12.312 25.163-24.526 0-12.215-6.464-27.416-25.623-27.416Z" fill="#2B2B2B"/>
  <path fill-rule="evenodd" clip-rule="evenodd" d="M144.41 5.993c-29.451 0-48.096 25.224-48.096 25.224s-6.8-13.104-34.29-9.262c-12.864 1.799-26.93 8.703-37.246 21.284C13.045 57.546 5.882 66.835 5.882 86.961c0 20.112 5.107 38.837 8.999 53.108l.008.03s-9.007 9.904-9.007 38.632c0 28.727 11.23 54.429 37.547 69.658 26.318 15.229 70.917 13.697 96.437 13.697 25.521 0 84.346 2.956 104.448-13.697 20.101-16.652 34.093-41.779 34.093-41.779s6.503-13.598 6.715-31.334c.212-17.736-9.474-31.038-11.839-35.177-2.365-4.138 1.182-38.226 1.182-57.052s-12.317-34.98-12.317-34.98-9.302-15.705-31.531-19.214c-22.228-3.51-34.783 3.842-37.443 2.758-2.661-1.083-19.313-25.618-48.764-25.618Zm-25.857 58.72c0-12.444 6.697-27.415 25.857-27.415 19.159 0 25.623 15.201 25.623 27.416 0 12.214-8.618 24.526-25.163 24.526-16.544 0-26.317-12.08-26.317-24.526Zm-22.38 73.811c10.093-9.589 20.555-21.702 48.697-21.197 28.142.504 41.138 10.22 48.33 17.285 7.192 7.066 23.762 18.211 24.624 44.119.863 25.907-22.858 38.525-38.125 38.525s-16.15-4.164-31.922-4.29c-15.771-.126-21.954 5.678-43.97 5.254-22.015-.424-29.84-18.755-29.84-37.428 0-18.674 12.112-32.679 22.206-42.268ZM43.429 86.961c0-12.445 6.698-27.416 25.857-27.416 19.16 0 25.624 15.202 25.624 27.416s-8.619 24.527-25.163 24.527c-16.545 0-26.318-12.082-26.318-24.527Zm151.261 0c0-12.445 6.698-27.416 25.857-27.416 19.16 0 25.624 15.202 25.624 27.416s-8.619 24.527-25.163 24.527c-16.545 0-26.318-12.082-26.318-24.527Z" fill="#B27237"/>
  <path d="M144.87 117.327c-28.142-.505-38.604 11.608-48.697 21.197-10.094 9.589-22.207 23.594-22.207 42.268 0 18.673 7.826 37.004 29.841 37.428 22.016.424 28.199-5.38 43.97-5.254 15.772.126 16.655 4.29 31.922 4.29s38.988-12.618 38.125-38.525c-.862-25.908-17.432-37.053-24.624-44.119-7.192-7.065-20.188-16.781-48.33-17.285Zm75.677-57.782c-19.159 0-25.857 14.97-25.857 27.416 0 12.445 9.773 24.527 26.318 24.527 16.544 0 25.163-12.313 25.163-24.527s-6.464-27.416-25.624-27.416Z" fill="#2B2B2B"/>
  <path d="m96.314 31.217-4.438 2.303 3.692 7.118 4.767-6.449-4.021-2.972Zm-34.29-9.262.692 4.952-.693-4.952ZM5.881 86.961h5-5Zm9.007 53.138 3.699 3.364 1.847-2.031-.722-2.648-4.824 1.315Zm263.518 66.511 4.368 2.433.076-.136.066-.139-4.51-2.158ZM262.148 48.067l-4.301 2.548.148.252.177.232 3.976-3.032ZM24.778 43.24l-3.866-3.17 3.866 3.17Zm-9.897 96.83 4.823-1.315-4.823 1.315ZM144.41.993c-16.187 0-29.251 6.929-38.107 13.623a81.053 81.053 0 0 0-10.27 9.248 66.153 66.153 0 0 0-2.722 3.093 43.325 43.325 0 0 0-.987 1.246l-.019.026-.007.01-.003.003c-.001.002-.002.003 4.019 2.975s4.02 2.974 4.019 2.975l-.002.002-.002.003.001-.002.023-.03.123-.16a34.9 34.9 0 0 1 .558-.695 55.656 55.656 0 0 1 2.308-2.622 71.005 71.005 0 0 1 8.991-8.094c7.829-5.918 18.813-11.601 32.077-11.601v-10ZM96.314 31.217c4.438-2.302 4.436-2.306 4.434-2.31a.677.677 0 0 1-.013-.025l-.021-.039-.049-.09a12.353 12.353 0 0 0-.568-.91 18.067 18.067 0 0 0-1.583-1.985c-1.41-1.544-3.551-3.42-6.646-5.104-6.243-3.399-15.934-5.792-30.537-3.75l1.385 9.903c12.888-1.801 20.342.437 24.371 2.63 2.042 1.111 3.319 2.272 4.042 3.064.364.399.593.71.71.88.058.086.089.137.094.145l-.01-.019a2.205 2.205 0 0 1-.02-.035l-.013-.024-.007-.013-.004-.007c-.002-.004-.004-.008 4.435-2.31ZM14.889 140.1c-3.7-3.364-3.702-3.361-3.704-3.359l-.005.006a.385.385 0 0 1-.011.012l-.024.026-.057.065c-.042.049-.092.107-.15.177-.115.139-.26.32-.43.546-.34.453-.783 1.084-1.29 1.91-1.014 1.655-2.282 4.083-3.52 7.42-2.48 6.682-4.816 16.936-4.816 31.829h10c0-13.835 2.167-22.897 4.19-28.349 1.014-2.73 1.998-4.573 2.672-5.673.338-.551.6-.919.751-1.12.076-.1.125-.16.141-.18l.001-.001-.018.02-.014.016-.008.009-.005.005c-.002.002-.004.005-3.703-3.359ZM.882 178.731c0 30.108 11.86 57.678 40.043 73.986l5.009-8.655c-24.453-14.15-35.052-37.984-35.052-65.331h-10Zm40.043 73.986c14.137 8.18 32.77 11.676 50.592 13.213 17.905 1.544 35.733 1.156 48.349 1.156v-10c-12.904 0-30.136.378-47.49-1.119-17.436-1.504-34.262-4.857-46.442-11.905l-5.009 8.655Zm98.941 14.369c12.517 0 33.957.742 54.584-.615 10.346-.68 20.685-1.897 29.802-4.05 9.019-2.131 17.349-5.291 23.251-10.181l-6.379-7.701c-4.148 3.436-10.71 6.151-19.171 8.149-8.364 1.976-18.095 3.143-28.159 3.805-20.191 1.328-40.924.593-53.928.593v10Zm107.637-14.846c10.512-8.709 19.321-19.532 25.455-28.067a194.725 194.725 0 0 0 7.195-10.737 145.992 145.992 0 0 0 1.927-3.185c.221-.377.39-.671.507-.875l.135-.238.037-.065.01-.02.004-.006.001-.002c.001-.001.001-.002-4.367-2.435-4.369-2.432-4.368-2.433-4.368-2.433v-.001.001l-.005.008a16.057 16.057 0 0 1-.131.233c-.099.172-.249.433-.45.776-.402.685-1.005 1.695-1.793 2.963a184.495 184.495 0 0 1-6.822 10.18c-5.887 8.192-14.125 18.258-23.714 26.202l6.379 7.701Zm30.904-45.63c4.51 2.158 4.511 2.156 4.512 2.155l.001-.002.003-.007a.126.126 0 0 0 .007-.016l.023-.047.071-.155c.059-.128.141-.309.242-.539.201-.459.48-1.117.811-1.954a83.52 83.52 0 0 0 2.405-7.039c1.743-5.925 3.527-14.225 3.64-23.67l-9.999-.12c-.1 8.292-1.673 15.658-3.235 20.967a73.409 73.409 0 0 1-2.112 6.189 48.31 48.31 0 0 1-.668 1.611c-.078.177-.136.306-.173.385l-.037.081a.06.06 0 0 1-.006.012l.001-.002.001-.002.001-.002c.001-.001.001-.002 4.512 2.155Zm11.715-31.274c.232-19.415-10.422-34.084-12.498-37.718l-8.682 4.962c2.653 4.643 11.373 16.578 11.181 32.636l9.999.12Zm-12.498-37.718c.227.397.233.604.17.31a10.582 10.582 0 0 1-.162-1.168c-.107-1.137-.162-2.702-.162-4.674 0-3.929.215-9.051.511-14.746.583-11.244 1.484-24.707 1.484-34.293h-10c0 9.24-.872 22.234-1.471 33.775-.296 5.698-.524 11.05-.524 15.264 0 2.1.056 4.024.207 5.617.075.796.182 1.594.342 2.335.145.67.4 1.627.923 2.542l8.682-4.962Zm1.841-54.57c0-10.449-3.399-19.965-6.654-26.72a78.589 78.589 0 0 0-4.524-8.133 59.778 59.778 0 0 0-1.969-2.9l-.131-.177-.04-.053-.014-.018a.021.021 0 0 0-.005-.006l-.002-.003c-.001-.001-.001-.002-3.978 3.03-3.976 3.03-3.976 3.03-3.977 3.029l-.001-.002-.002-.002c-.001-.001-.001-.001 0 0l.013.017.075.102c.071.097.184.253.333.464a52.25 52.25 0 0 1 1.27 1.9 68.711 68.711 0 0 1 3.943 7.091c2.904 6.028 5.663 14.002 5.663 22.38h10Zm-17.317-34.98c4.302-2.549 4.301-2.551 4.3-2.553l-.003-.005a.413.413 0 0 0-.021-.035l-.04-.066-.124-.199c-.102-.16-.244-.377-.425-.643a36.083 36.083 0 0 0-1.58-2.129 47.98 47.98 0 0 0-6.287-6.462c-5.669-4.848-14.381-10.138-26.571-12.062l-1.56 9.878c10.039 1.584 17.093 5.902 21.632 9.784 2.277 1.947 3.918 3.783 4.971 5.102.526.659.903 1.185 1.136 1.526.116.17.196.295.241.366l.041.065.001.001-.005-.007a.08.08 0 0 1-.003-.006.009.009 0 0 1-.002-.004c-.001-.002-.002-.004 4.299-2.552Zm-30.751-24.154c-11.827-1.867-21.135-.846-27.831.508-3.284.664-6.009 1.428-7.776 1.876-.948.24-1.509.363-1.853.411-.544.077.132-.132 1.123.272l-3.773 9.26c1.657.676 3.307.474 4.046.37.938-.132 1.968-.38 2.918-.62 2.031-.516 4.332-1.168 7.297-1.767 5.805-1.174 13.887-2.074 24.289-.432l1.56-9.878Zm-36.337 3.067c.669.273.989.614.731.39a15.184 15.184 0 0 1-.717-.69c-.798-.806-1.583-1.651-2.923-3.023-2.473-2.532-5.913-5.89-10.271-9.23C173.171 7.75 160.599.993 144.41.993v10c13.262 0 23.741 5.51 31.386 11.37 3.819 2.929 6.882 5.908 9.201 8.282 1.055 1.08 2.237 2.33 2.974 3.074.406.41.841.835 1.261 1.2.292.255 1.054.915 2.055 1.323l3.773-9.261Zm-50.65 5.317c-11.062 0-19.02 4.409-24.079 10.995-4.907 6.39-6.778 14.407-6.778 21.42h10c0-5.43 1.478-11.121 4.709-15.328 3.08-4.01 8.05-7.087 16.148-7.087v-10Zm-30.857 32.416c0 15.14 11.944 29.526 31.317 29.526v-10c-13.716 0-21.317-9.775-21.317-19.526h-10ZM144.87 94.24c19.705 0 30.163-14.967 30.163-29.526h-10c0 9.87-6.779 19.526-20.163 19.526v10Zm30.163-29.526c0-6.877-1.802-14.88-6.632-21.296-4.989-6.625-12.896-11.12-23.991-11.12v10c8.065 0 12.969 3.106 16.002 7.135 3.191 4.238 4.621 9.943 4.621 15.28h10Zm-30.073 47.614c-14.865-.267-25.41 2.81-33.66 7.455-8.072 4.545-13.746 10.532-18.571 15.116l6.887 7.25c5.27-5.006 9.873-9.87 16.591-13.652 6.54-3.683 15.297-6.409 28.574-6.171l.179-9.998Zm-52.231 22.571c-10.219 9.708-23.763 24.991-23.763 45.893h10c0-16.446 10.682-29.173 20.65-38.643l-6.887-7.25Zm-23.763 45.893c0 9.922 2.062 20.274 7.522 28.356 5.629 8.333 14.607 13.828 27.223 14.071l.193-9.998c-9.4-.181-15.343-4.064-19.13-9.671-3.957-5.857-5.808-14.007-5.808-22.758h-10Zm34.745 42.427c11.545.222 19.015-1.202 25.5-2.632 6.394-1.41 11.31-2.679 18.526-2.621l.08-10c-8.555-.068-14.616 1.501-20.76 2.856-6.053 1.334-12.682 2.6-23.153 2.399l-.193 9.998Zm44.026-5.253c7.306.058 11.024 1.024 14.943 2.034 4.281 1.103 8.782 2.256 17.019 2.256v-10c-7.029 0-10.604-.93-14.524-1.94-4.282-1.103-8.891-2.282-17.358-2.35l-.08 10Zm31.962 4.29c8.825 0 19.692-3.578 28.298-10.694 8.757-7.242 15.314-18.291 14.825-32.997l-9.995.332c.373 11.202-4.499 19.415-11.203 24.958-6.856 5.67-15.482 8.401-21.925 8.401v10Zm43.123-43.691c-.944-28.345-19.49-41.008-26.118-47.519l-7.008 7.133c7.755 7.62 22.35 17.248 23.131 40.718l9.995-.332Zm-26.118-47.519c-8.013-7.873-22.2-18.189-51.744-18.718l-.179 9.998c26.739.479 38.544 9.594 44.915 15.853l7.008-7.133Zm-127.418-76.5c-11.061 0-19.02 4.408-24.078 10.995-4.908 6.389-6.779 14.406-6.779 21.42h10c0-5.431 1.478-11.122 4.71-15.33 3.08-4.01 8.05-7.085 16.147-7.085v-10ZM38.43 86.96c0 15.139 11.945 29.527 31.318 29.527v-10c-13.716 0-21.318-9.776-21.318-19.527h-10Zm31.318 29.527c19.705 0 30.163-14.968 30.163-29.527h-10c0 9.87-6.78 19.527-20.163 19.527v10ZM99.91 86.961c0-6.877-1.802-14.88-6.633-21.296-4.988-6.625-12.896-11.12-23.99-11.12v10c8.064 0 12.968 3.106 16.001 7.135 3.192 4.239 4.622 9.944 4.622 15.281h10Zm120.637-32.416c-11.061 0-19.02 4.41-24.078 10.996-4.908 6.389-6.779 14.406-6.779 21.42h10c0-5.431 1.478-11.122 4.709-15.33 3.08-4.01 8.05-7.085 16.148-7.085v-10ZM189.69 86.962c0 15.139 11.945 29.527 31.318 29.527v-10c-13.716 0-21.318-9.776-21.318-19.527h-10Zm31.318 29.527c19.705 0 30.163-14.968 30.163-29.527h-10c0 9.87-6.779 19.527-20.163 19.527v10Zm30.163-29.527c0-6.877-1.802-14.88-6.633-21.296-4.988-6.625-12.896-11.12-23.991-11.12v10c8.065 0 12.969 3.106 16.003 7.135 3.191 4.239 4.621 9.944 4.621 15.281h10ZM61.331 17.004c-14.042 1.962-29.265 9.463-40.42 23.064l7.733 6.342c9.48-11.56 22.388-17.87 34.072-19.503l-1.385-9.904Zm-40.42 23.064C15.1 47.157 9.996 53.486 6.444 60.712 2.807 68.108.882 76.232.882 86.962h10c0-9.398 1.656-15.981 4.535-21.838 2.963-6.026 7.307-11.496 13.227-18.714l-7.732-6.342ZM.882 86.961c0 20.872 5.299 40.207 9.176 54.424l9.647-2.631c-3.907-14.327-8.822-32.441-8.822-51.793h-10Zm9.176 54.424.008.029 9.648-2.63-.009-.03-9.647 2.631Zm0 0c.09.331-.083-.303.008.03l9.647-2.631-.003-.015-.005-.015-9.647 2.631Z" fill="#000"/>
</svg>
