<svg width="701" height="901" viewBox="0 0 701 901" fill="none" xmlns="http://www.w3.org/2000/svg">
<g clip-path="url(#clip0_194_1055)">
<rect width="700" height="900" transform="translate(0.78125 0.695312)" fill="#363636"/>
<path d="M3.67256 687.239C11.3152 685.928 13.4559 696.465 19.3573 695.226C25.2587 693.987 22.8442 684.935 27.8862 683.943C32.9281 682.951 33.7113 692.517 37.6904 691.799C41.6695 691.08 40.6289 681.708 45.8207 680.958C51.0126 680.208 52.1178 688.849 56.6612 687.973C61.2047 687.096 60.0296 679.636 64.951 678.806C69.8724 677.977 68.8227 686.577 74.5161 685.422C80.2095 684.267 75.9574 677.61 81.5599 676.858C87.1623 676.105 86.5521 684.316 92.4535 683.077C98.3548 681.838 95.6907 673.985 100.733 672.993C105.775 672.001 107.211 681.804 111.191 681.085C115.17 680.367 114.589 670.817 119.781 670.067C124.973 669.317 126.754 678.725 131.297 677.848C135.84 676.972 135.526 668.656 140.448 667.826C145.369 666.997 146.27 675.953 151.964 674.798C157.657 673.643 157.981 663.887 163.106 663.095C168.232 662.303 170.464 672.115 176.365 670.876C182.267 669.637 180.826 660.836 185.868 659.844C190.909 658.852 192.244 667.984 196.223 667.266C200.202 666.547 199.995 657.869 205.187 657.119C210.379 656.369 212.035 664.532 216.579 663.655C221.122 662.778 223.547 654.151 228.468 653.322C233.39 652.492 234.54 662.32 240.233 661.165C245.927 660.01 244.832 651.335 250.435 650.583C256.037 649.831 255.372 659.416 261.273 658.177C267.175 656.938 266.005 648.649 271.047 647.657C276.089 646.665 276.529 656.779 280.509 656.061C284.488 655.342 283.098 645.73 288.29 644.98C293.482 644.23 294.578 654.572 299.121 653.695C303.664 652.818 302.666 643.133 307.587 642.304C312.508 641.474 311.169 651.239 316.862 650.085C322.556 648.93 321.153 639.119 325.771 638.584C330.389 638.049 330.942 648.26 336.843 647.021C342.744 645.782 339.397 637.826 344.439 636.834C349.481 635.842 349.356 644.942 353.335 644.223C357.314 643.505 355.435 634.716 360.627 633.966C365.819 633.216 366.341 642.281 370.885 641.404C375.428 640.527 374.86 631.49 379.781 630.66C384.702 629.831 383.908 639.496 389.601 638.341C395.294 637.186 392.603 629.176 398.206 628.424C403.808 627.672 401.833 637.927 407.734 636.688C413.635 635.449 412.609 626.207 417.651 625.215C422.693 624.223 423.395 634.344 427.374 633.626C431.353 632.907 432.075 622.612 437.267 621.862C442.459 621.112 444.239 630.52 448.783 629.643C453.326 628.766 453.012 620.451 457.933 619.621C462.855 618.792 463.756 627.748 469.449 626.593C475.143 625.438 475.467 615.681 480.592 614.89C485.717 614.098 487.95 623.91 493.851 622.671C499.753 621.432 498.311 612.631 503.353 611.639C508.395 610.646 509.73 619.779 513.709 619.06C517.688 618.342 517.481 609.664 522.673 608.914C527.865 608.164 529.521 616.327 534.064 615.45C538.608 614.573 541.032 605.946 545.954 605.116C550.875 604.287 552.026 614.115 557.719 612.96C563.412 611.805 562.318 603.13 567.921 602.377C573.523 601.625 572.858 611.211 578.759 609.972C584.661 608.733 583.49 600.444 588.532 599.452C593.574 598.46 594.015 608.574 597.994 607.855C601.973 607.137 600.583 597.525 605.775 596.775C610.967 596.025 612.063 606.367 616.607 605.49C621.15 604.613 620.151 594.928 625.073 594.098C629.994 593.269 628.654 603.034 634.348 601.879C640.041 600.725 636.267 591.818 640.691 591.477C645.115 591.137 646.974 600.342 650.953 599.623C654.932 598.905 653.543 589.293 658.735 588.543C663.926 587.793 665.022 598.135 669.566 597.258C674.109 596.381 673.11 586.696 678.032 585.866C682.953 585.037 681.614 594.802 687.307 593.647C693 592.493 695.337 582.131 695.337 582.131H717.701L727.378 -39.7102L-29.8164 -49.3867L-17.8088 695.226L3.67256 687.239Z" fill="#559535"/>
<path d="M19.3573 695.226C13.4559 696.465 11.3152 685.928 3.67256 687.239L-17.8088 695.226V916.091H717.701V582.131H695.337C695.337 582.131 693 592.493 687.307 593.647C681.614 594.802 682.953 585.037 678.032 585.866C673.11 586.696 674.109 596.381 669.566 597.258C665.022 598.135 663.926 587.793 658.735 588.543C653.543 589.293 654.932 598.905 650.953 599.623C646.974 600.342 645.115 591.137 640.691 591.477C636.267 591.818 640.041 600.725 634.348 601.879C628.654 603.034 629.994 593.269 625.073 594.098C620.151 594.928 621.15 604.613 616.607 605.49C612.063 606.367 610.967 596.025 605.775 596.775C600.583 597.525 601.973 607.137 597.994 607.855C594.015 608.574 593.574 598.46 588.532 599.452C583.49 600.444 584.661 608.733 578.759 609.972C572.858 611.211 573.523 601.625 567.921 602.377C562.318 603.13 563.412 611.805 557.719 612.96C552.026 614.115 550.875 604.287 545.954 605.116C541.032 605.946 538.608 614.573 534.064 615.45C529.521 616.327 527.865 608.164 522.673 608.914C517.481 609.664 517.688 618.342 513.709 619.06C509.73 619.779 508.395 610.646 503.353 611.639C498.311 612.631 499.753 621.432 493.851 622.671C487.95 623.91 485.717 614.098 480.592 614.89C475.467 615.681 475.143 625.438 469.449 626.593C463.756 627.748 462.855 618.792 457.933 619.621C453.012 620.451 453.326 628.766 448.783 629.643C444.239 630.52 442.459 621.112 437.267 621.862C432.075 622.612 431.353 632.907 427.374 633.626C423.395 634.344 422.693 624.223 417.651 625.215C412.609 626.207 413.635 635.449 407.734 636.688C401.833 637.927 403.808 627.672 398.206 628.424C392.603 629.176 395.294 637.186 389.601 638.341C383.908 639.496 384.702 629.831 379.781 630.66C374.86 631.49 375.428 640.527 370.885 641.404C366.341 642.281 365.819 633.216 360.627 633.966C355.435 634.716 357.314 643.505 353.335 644.223C349.356 644.942 349.481 635.842 344.439 636.834C339.397 637.826 342.744 645.782 336.843 647.021C330.942 648.26 330.389 638.049 325.771 638.584C321.153 639.119 322.556 648.93 316.862 650.085C311.169 651.239 312.508 641.474 307.587 642.304C302.666 643.133 303.664 652.818 299.121 653.695C294.578 654.572 293.482 644.23 288.29 644.98C283.098 645.73 284.488 655.342 280.509 656.061C276.529 656.779 276.089 646.665 271.047 647.657C266.005 648.649 267.175 656.938 261.273 658.177C255.372 659.416 256.037 649.831 250.435 650.583C244.832 651.335 245.927 660.01 240.233 661.165C234.54 662.32 233.39 652.492 228.468 653.322C223.547 654.151 221.122 662.778 216.579 663.655C212.035 664.532 210.379 656.369 205.187 657.119C199.995 657.869 200.202 666.547 196.223 667.266C192.244 667.984 190.909 658.852 185.868 659.844C180.826 660.836 182.267 669.637 176.365 670.876C170.464 672.115 168.232 662.303 163.106 663.095C157.981 663.887 157.657 673.643 151.964 674.798C146.27 675.953 145.369 666.997 140.448 667.826C135.526 668.656 135.84 676.972 131.297 677.848C126.754 678.725 124.973 669.317 119.781 670.067C114.589 670.817 115.17 680.367 111.191 681.085C107.211 681.804 105.775 672.001 100.733 672.993C95.6907 673.985 98.3548 681.838 92.4535 683.077C86.5521 684.316 87.1623 676.105 81.5599 676.858C75.9574 677.61 80.2095 684.267 74.5161 685.422C68.8227 686.577 69.8724 677.977 64.951 678.806C60.0296 679.636 61.2047 687.096 56.6612 687.973C52.1178 688.849 51.0126 680.208 45.8207 680.958C40.6289 681.708 41.6695 691.08 37.6904 691.799C33.7113 692.517 32.9281 682.951 27.8862 683.943C22.8442 684.935 25.2587 693.987 19.3573 695.226Z" fill="#F9F0C9"/>
<path d="M3.67256 687.239L3.42973 685.823L3.2976 685.846L3.17195 685.892L3.67256 687.239ZM695.337 582.131V580.695H694.189L693.936 581.815L695.337 582.131ZM-29.8164 -49.3867L-29.7981 -50.823L-31.2765 -50.8419L-31.2526 -49.3636L-29.8164 -49.3867ZM727.378 -39.7102L728.814 -39.6878L728.836 -41.128L727.396 -41.1464L727.378 -39.7102ZM205.436 556.691C205.34 557.478 205.901 558.194 206.688 558.29C207.476 558.386 208.192 557.825 208.288 557.038L205.436 556.691ZM228.129 557.211C228.159 558.003 228.826 558.622 229.619 558.591C230.412 558.561 231.03 557.894 231 557.101L228.129 557.211ZM93.3322 387.476C93.1075 388.237 93.542 389.036 94.3028 389.26C95.0636 389.485 95.8625 389.051 96.0873 388.29L93.3322 387.476ZM122.366 387.451C122.61 388.205 123.42 388.619 124.175 388.374C124.93 388.13 125.343 387.32 125.099 386.565L122.366 387.451ZM218.713 205.297C218.488 206.057 218.923 206.856 219.684 207.081C220.444 207.306 221.243 206.871 221.468 206.111L218.713 205.297ZM247.747 205.271C247.991 206.026 248.801 206.439 249.556 206.195C250.31 205.95 250.724 205.14 250.479 204.386L247.747 205.271ZM49.9118 2.50454C49.687 3.26533 50.1215 4.06429 50.8823 4.28907C51.6431 4.51384 52.4421 4.07931 52.6668 3.31852L49.9118 2.50454ZM94.0017 2.48254C94.2481 3.23662 95.0591 3.64822 95.8132 3.40186C96.5673 3.15551 96.9789 2.3445 96.7325 1.59042L94.0017 2.48254ZM515.988 41.1042C515.763 41.8649 516.197 42.6639 516.958 42.8887C517.719 43.1135 518.518 42.6789 518.743 41.9181L515.988 41.1042ZM545.021 41.0789C545.266 41.8336 546.076 42.2471 546.831 42.0025C547.585 41.758 547.999 40.9479 547.754 40.1933L545.021 41.0789ZM639.166 512.525C638.941 513.286 639.376 514.085 640.136 514.31C640.897 514.534 641.696 514.1 641.921 513.339L639.166 512.525ZM668.199 512.5C668.444 513.254 669.254 513.668 670.009 513.423C670.763 513.179 671.177 512.369 670.932 511.614L668.199 512.5ZM-17.8088 916.091H-19.2452V917.527H-17.8088V916.091ZM717.701 916.091V917.527H719.138V916.091H717.701ZM3.9154 688.655C6.91931 688.139 8.87304 689.853 11.1328 692.202C12.1919 693.302 13.3755 694.602 14.6761 695.499C16.0449 696.443 17.6826 697.046 19.6524 696.632L19.0621 693.82C18.0813 694.026 17.2383 693.776 16.3072 693.134C15.3078 692.445 14.372 691.425 13.2029 690.21C11.0064 687.927 8.06843 685.027 3.42973 685.823L3.9154 688.655ZM19.6524 696.632C23.5388 695.816 24.5931 692.322 25.3196 689.906C25.7224 688.566 26.0295 687.494 26.5039 686.662C26.9328 685.911 27.419 685.499 28.1635 685.352L27.6089 682.534C25.8323 682.883 24.7297 683.975 24.0088 685.238C23.3334 686.422 22.93 687.876 22.5685 689.078C21.7663 691.746 21.0771 693.397 19.0621 693.82L19.6524 696.632ZM28.1635 685.352C28.8899 685.209 29.4452 685.409 30.0346 685.93C30.6933 686.511 31.2869 687.408 31.9593 688.514C32.5769 689.531 33.296 690.791 34.1276 691.703C34.9988 692.658 36.2562 693.517 37.9457 693.212L37.4351 690.385C37.1351 690.439 36.8024 690.372 36.2501 689.767C35.6581 689.118 35.1202 688.184 34.4144 687.022C33.7634 685.951 32.9671 684.687 31.9366 683.776C30.8367 682.805 29.4034 682.181 27.6089 682.534L28.1635 685.352ZM37.9457 693.212C39.5687 692.919 40.5412 691.743 41.1691 690.597C41.785 689.473 42.2389 688.055 42.6562 686.866C43.1029 685.592 43.5292 684.504 44.0975 683.689C44.6317 682.924 45.2236 682.496 46.0261 682.38L45.6154 679.537C43.822 679.796 42.597 680.82 41.7418 682.045C40.9206 683.222 40.3848 684.662 39.9453 685.915C39.4765 687.251 39.12 688.358 38.6496 689.217C38.1912 690.054 37.8017 690.319 37.4351 690.385L37.9457 693.212ZM46.0261 682.38C46.8627 682.259 47.5262 682.493 48.1941 683.003C48.9212 683.558 49.5777 684.382 50.3422 685.384C51.0503 686.312 51.8875 687.447 52.8702 688.252C53.9205 689.113 55.2627 689.705 56.9334 689.383L56.3891 686.562C55.7881 686.678 55.2883 686.519 54.6913 686.03C54.0267 685.485 53.4112 684.671 52.6261 683.642C51.8975 682.687 51.0202 681.546 49.9378 680.72C48.7964 679.848 47.3747 679.282 45.6154 679.537L46.0261 682.38ZM56.9334 689.383C58.5134 689.078 59.582 688.182 60.3442 687.13C61.0646 686.136 61.5615 684.926 61.985 683.937C62.928 681.733 63.6065 680.489 65.1897 680.222L64.7123 677.39C61.3741 677.952 60.1795 680.854 59.3438 682.807C58.8779 683.895 58.5091 684.767 58.0181 685.444C57.569 686.064 57.0807 686.429 56.3891 686.562L56.9334 689.383ZM65.1897 680.222C65.9215 680.099 66.3261 680.295 66.7138 680.676C67.2146 681.169 67.6128 681.905 68.1906 682.937C68.7069 683.86 69.3829 685.045 70.4078 685.875C71.537 686.789 72.98 687.199 74.8016 686.83L74.2306 684.014C73.2055 684.222 72.6447 683.99 72.2157 683.642C71.6823 683.21 71.2456 682.514 70.6975 681.534C70.2109 680.665 69.5929 679.479 68.7285 678.628C67.7509 677.666 66.4412 677.098 64.7123 677.39L65.1897 680.222ZM74.8016 686.83C76.5718 686.471 77.7352 685.628 78.4553 684.453C79.1096 683.386 79.3206 682.144 79.4849 681.248C79.6719 680.229 79.8086 679.59 80.1066 679.124C80.3228 678.786 80.7015 678.422 81.751 678.281L81.3687 675.434C79.617 675.669 78.4263 676.419 77.6862 677.577C77.0278 678.607 76.8213 679.846 76.6593 680.73C76.4746 681.737 76.331 682.422 76.0063 682.951C75.7473 683.374 75.3071 683.796 74.2306 684.014L74.8016 686.83ZM81.751 678.281C82.7475 678.147 83.3753 678.398 83.9098 678.817C84.5342 679.306 85.0422 680.026 85.7248 680.984C86.3466 681.856 87.1365 682.96 88.2429 683.711C89.4426 684.525 90.9122 684.869 92.7486 684.483L92.1583 681.672C91.0441 681.906 90.3769 681.687 89.8561 681.334C89.2421 680.917 88.728 680.248 88.0643 679.316C87.4615 678.471 86.7027 677.356 85.6815 676.556C84.5703 675.685 83.1734 675.192 81.3687 675.434L81.751 678.281ZM92.7486 684.483C94.596 684.095 95.8411 683.155 96.6981 681.951C97.507 680.814 97.9409 679.474 98.2861 678.372C98.6598 677.178 98.9299 676.272 99.3648 675.566C99.7417 674.955 100.204 674.561 101.01 674.402L100.455 671.584C98.7402 671.921 97.6449 672.881 96.9189 674.059C96.2508 675.144 95.8727 676.465 95.5445 677.513C95.1879 678.653 94.8662 679.57 94.3574 680.286C93.8965 680.933 93.2617 681.44 92.1583 681.672L92.7486 684.483ZM101.01 674.402C101.726 674.261 102.331 674.464 103.005 675.035C103.735 675.654 104.41 676.597 105.164 677.732C105.864 678.784 106.664 680.059 107.552 680.981C108.462 681.926 109.755 682.804 111.446 682.499L110.935 679.672C110.636 679.726 110.257 679.648 109.621 678.988C108.963 678.305 108.344 677.326 107.556 676.141C106.823 675.039 105.945 673.762 104.863 672.844C103.725 671.879 102.26 671.228 100.455 671.584L101.01 674.402ZM111.446 682.499C113.059 682.208 114.058 681.031 114.723 679.888C115.381 678.756 115.896 677.326 116.369 676.109C116.874 674.815 117.354 673.693 117.969 672.85C118.554 672.047 119.182 671.605 119.986 671.489L119.576 668.646C117.784 668.904 116.538 669.937 115.647 671.158C114.786 672.339 114.189 673.79 113.692 675.067C113.165 676.421 112.754 677.56 112.24 678.444C111.732 679.317 111.312 679.604 110.935 679.672L111.446 682.499ZM119.986 671.489C120.783 671.374 121.482 671.619 122.243 672.218C123.049 672.854 123.797 673.787 124.646 674.884C125.441 675.912 126.355 677.128 127.386 677.996C128.463 678.903 129.854 679.59 131.569 679.259L131.025 676.438C130.468 676.545 129.933 676.385 129.236 675.798C128.493 675.173 127.786 674.248 126.918 673.127C126.105 672.076 125.151 670.852 124.021 669.962C122.845 669.035 121.375 668.386 119.576 668.646L119.986 671.489ZM131.569 679.259C133.173 678.949 134.285 677.979 135.101 676.891C135.889 675.838 136.493 674.546 137.025 673.443C137.588 672.274 138.086 671.281 138.699 670.52C139.28 669.799 139.897 669.376 140.686 669.243L140.209 666.41C138.538 666.692 137.348 667.619 136.462 668.717C135.608 669.777 134.978 671.073 134.437 672.196C133.863 673.386 133.386 674.388 132.802 675.168C132.245 675.911 131.693 676.309 131.025 676.438L131.569 679.259ZM140.686 669.243C141.405 669.122 141.978 669.323 142.616 669.842C143.324 670.419 143.962 671.263 144.783 672.317C145.546 673.295 146.469 674.454 147.638 675.261C148.881 676.119 150.397 676.582 152.249 676.206L151.678 673.39C150.684 673.592 149.952 673.368 149.271 672.897C148.516 672.376 147.839 671.564 147.049 670.551C146.318 669.614 145.452 668.447 144.43 667.614C143.336 666.723 141.951 666.116 140.209 666.41L140.686 669.243ZM152.249 676.206C154.092 675.832 155.444 674.763 156.488 673.515C157.51 672.293 158.31 670.808 159.015 669.487C159.753 668.106 160.385 666.912 161.123 665.996C161.838 665.107 162.529 664.637 163.326 664.514L162.887 661.675C161.121 661.948 159.85 662.995 158.885 664.195C157.942 665.366 157.177 666.832 156.481 668.133C155.753 669.496 155.085 670.715 154.284 671.672C153.506 672.603 152.682 673.187 151.678 673.39L152.249 676.206ZM163.326 664.514C164.08 664.398 164.79 664.638 165.633 665.288C166.518 665.972 167.355 666.954 168.367 668.103C169.322 669.187 170.433 670.418 171.738 671.273C173.099 672.165 174.73 672.687 176.661 672.282L176.07 669.47C175.05 669.684 174.189 669.445 173.312 668.87C172.378 668.258 171.504 667.318 170.523 666.204C169.598 665.154 168.547 663.908 167.388 663.014C166.186 662.086 164.696 661.396 162.887 661.675L163.326 664.514ZM176.661 672.282C180.45 671.486 181.801 668.19 182.769 665.808C183.297 664.509 183.714 663.446 184.275 662.617C184.796 661.848 185.359 661.408 186.145 661.253L185.59 658.434C183.855 658.776 182.708 659.808 181.896 661.007C181.125 662.145 180.588 663.546 180.108 664.726C179.061 667.303 178.182 669.027 176.07 669.47L176.661 672.282ZM186.145 661.253C186.902 661.104 187.516 661.304 188.165 661.815C188.875 662.374 189.53 663.232 190.27 664.281C190.954 665.249 191.749 666.443 192.636 667.301C193.56 668.196 194.835 668.976 196.478 668.679L195.968 665.852C195.622 665.915 195.238 665.822 194.635 665.238C193.994 664.617 193.395 663.725 192.617 662.624C191.896 661.603 191.024 660.409 189.941 659.557C188.798 658.657 187.354 658.087 185.59 658.434L186.145 661.253ZM196.478 668.679C198.027 668.399 199.048 667.351 199.765 666.282C200.466 665.237 201.036 663.919 201.553 662.81C202.102 661.628 202.62 660.608 203.26 659.838C203.87 659.104 204.534 658.665 205.392 658.541L204.982 655.697C203.244 655.948 201.987 656.875 201.051 658.002C200.145 659.092 199.493 660.427 198.948 661.598C198.369 662.841 197.921 663.875 197.379 664.682C196.853 665.466 196.409 665.772 195.968 665.852L196.478 668.679ZM205.392 658.541C207.109 658.293 208.314 659.431 210.052 661.388C210.829 662.264 211.739 663.32 212.773 664.064C213.865 664.851 215.217 665.381 216.851 665.066L216.306 662.245C215.668 662.368 215.109 662.206 214.451 661.733C213.734 661.216 213.054 660.443 212.2 659.481C210.676 657.764 208.457 655.195 204.982 655.697L205.392 658.541ZM216.851 665.066C218.395 664.767 219.647 663.834 220.678 662.802C221.706 661.771 222.654 660.493 223.528 659.336C224.433 658.137 225.271 657.049 226.161 656.205C227.046 655.367 227.869 654.879 228.707 654.738L228.229 651.905C226.606 652.179 225.281 653.081 224.185 654.121C223.094 655.155 222.119 656.434 221.235 657.605C220.319 658.818 219.502 659.913 218.644 660.773C217.788 661.63 217.033 662.104 216.306 662.245L216.851 665.066ZM228.707 654.738C229.372 654.626 229.946 654.83 230.63 655.435C231.374 656.094 232.052 657.05 232.901 658.213C233.693 659.297 234.64 660.563 235.818 661.455C237.067 662.401 238.618 662.958 240.519 662.573L239.948 659.757C239.002 659.949 238.274 659.711 237.552 659.165C236.76 658.565 236.043 657.643 235.221 656.518C234.456 655.472 233.568 654.199 232.534 653.284C231.44 652.316 230.024 651.603 228.229 651.905L228.707 654.738ZM240.519 662.573C244.182 661.83 245.597 658.599 246.667 656.337C247.88 653.772 248.717 652.263 250.626 652.006L250.244 649.159C246.55 649.655 245.134 652.859 244.07 655.109C242.862 657.662 241.978 659.346 239.948 659.757L240.519 662.573ZM250.626 652.006C251.538 651.884 252.127 652.151 252.675 652.67C253.314 653.275 253.834 654.16 254.506 655.294C255.119 656.329 255.881 657.613 256.958 658.511C258.142 659.497 259.652 659.985 261.569 659.583L260.978 656.771C259.944 656.989 259.325 656.743 258.798 656.304C258.165 655.777 257.637 654.944 256.978 653.831C256.378 652.818 255.645 651.525 254.649 650.583C253.562 649.554 252.133 648.905 250.244 649.159L250.626 652.006ZM261.569 659.583C265.307 658.798 266.743 655.707 267.789 653.422C268.352 652.19 268.796 651.186 269.378 650.399C269.917 649.668 270.505 649.228 271.324 649.066L270.769 646.248C269.068 646.582 267.911 647.55 267.067 648.691C266.266 649.776 265.688 651.108 265.176 652.227C264.071 654.644 263.142 656.317 260.978 656.771L261.569 659.583ZM271.324 649.066C272.011 648.931 272.525 649.127 273.086 649.678C273.719 650.299 274.279 651.255 274.909 652.434C275.488 653.515 276.156 654.85 276.948 655.82C277.774 656.831 279.022 657.789 280.764 657.474L280.253 654.647C280.006 654.692 279.706 654.655 279.173 654.002C278.606 653.309 278.102 652.312 277.443 651.079C276.835 649.943 276.091 648.601 275.099 647.627C274.035 646.583 272.603 645.887 270.769 646.248L271.324 649.066ZM280.764 657.474C282.416 657.176 283.366 655.95 283.956 654.777C284.536 653.626 284.941 652.174 285.317 650.956C285.72 649.65 286.108 648.539 286.647 647.71C287.151 646.936 287.714 646.515 288.495 646.402L288.084 643.559C286.269 643.821 285.059 644.882 284.239 646.144C283.454 647.351 282.968 648.827 282.572 650.108C282.149 651.477 281.831 652.61 281.39 653.486C280.959 654.341 280.59 654.586 280.253 654.647L280.764 657.474ZM288.495 646.402C289.229 646.296 289.854 646.541 290.549 647.195C291.295 647.897 291.967 648.928 292.731 650.147C293.442 651.284 294.259 652.633 295.219 653.606C296.225 654.627 297.605 655.451 299.393 655.106L298.849 652.285C298.366 652.378 297.904 652.238 297.265 651.589C296.579 650.894 295.946 649.869 295.166 648.623C294.439 647.461 293.58 646.102 292.518 645.103C291.406 644.056 289.946 643.29 288.084 643.559L288.495 646.402ZM299.393 655.106C301.092 654.778 302.173 653.622 302.903 652.397C303.614 651.204 304.117 649.73 304.566 648.461C305.043 647.114 305.471 645.962 306.034 645.088C306.57 644.256 307.127 643.838 307.826 643.72L307.348 640.887C305.587 641.184 304.422 642.287 303.62 643.532C302.844 644.735 302.314 646.215 301.858 647.502C301.374 648.868 300.968 650.032 300.435 650.927C299.92 651.79 299.422 652.174 298.849 652.285L299.393 655.106ZM307.826 643.72C308.206 643.656 308.446 643.704 308.613 643.773C308.792 643.847 308.988 643.989 309.212 644.255C309.708 644.847 310.092 645.726 310.626 646.908C311.105 647.967 311.722 649.305 312.695 650.263C313.785 651.335 315.252 651.877 317.148 651.492L316.577 648.677C315.625 648.87 315.125 648.624 314.711 648.216C314.18 647.693 313.757 646.859 313.244 645.724C312.786 644.713 312.226 643.378 311.412 642.408C310.98 641.893 310.429 641.417 309.717 641.121C308.993 640.82 308.198 640.744 307.348 640.887L307.826 643.72ZM317.148 651.492C319.03 651.111 320.301 649.997 321.195 648.683C322.055 647.417 322.611 645.894 323.075 644.579C323.568 643.18 323.95 642.04 324.464 641.183C324.944 640.38 325.392 640.074 325.936 640.011L325.606 637.157C323.841 637.362 322.732 638.483 321.999 639.706C321.299 640.875 320.81 642.36 320.365 643.625C319.89 644.974 319.44 646.154 318.819 647.068C318.229 647.936 317.541 648.481 316.577 648.677L317.148 651.492ZM325.936 640.011C326.454 639.951 326.933 640.139 327.562 640.823C328.239 641.559 328.831 642.582 329.607 643.827C330.326 644.98 331.204 646.321 332.367 647.265C333.611 648.276 335.185 648.837 337.138 648.427L336.548 645.615C335.551 645.825 334.842 645.574 334.178 645.035C333.434 644.431 332.779 643.484 332.045 642.307C331.368 641.221 330.587 639.869 329.677 638.879C328.719 637.837 327.397 636.95 325.606 637.157L325.936 640.011ZM337.138 648.427C339.002 648.035 340.226 647.07 341.023 645.817C341.766 644.647 342.102 643.273 342.362 642.162C342.646 640.948 342.844 640.048 343.219 639.351C343.533 638.77 343.934 638.397 344.716 638.243L344.162 635.425C342.422 635.767 341.352 636.761 340.69 637.989C340.091 639.102 339.811 640.455 339.565 641.507C339.294 642.664 339.044 643.574 338.598 644.275C338.206 644.893 337.635 645.387 336.548 645.615L337.138 648.427ZM344.716 638.243C345.47 638.095 345.954 638.294 346.421 638.726C346.977 639.24 347.458 640.049 348.017 641.101C348.521 642.048 349.126 643.275 349.881 644.163C350.705 645.131 351.916 645.939 353.59 645.637L353.08 642.81C352.764 642.867 352.499 642.807 352.07 642.302C351.572 641.716 351.147 640.866 350.554 639.752C350.017 638.742 349.334 637.507 348.372 636.617C347.32 635.644 345.929 635.077 344.162 635.425L344.716 638.243ZM353.59 645.637C355.216 645.343 356.144 644.203 356.71 643.061C357.25 641.972 357.593 640.606 357.908 639.499C358.25 638.297 358.578 637.305 359.059 636.571C359.495 635.905 360.018 635.505 360.833 635.388L360.422 632.544C358.641 632.801 357.452 633.781 356.655 634.997C355.904 636.144 355.48 637.535 355.145 638.714C354.783 639.987 354.525 641 354.136 641.785C353.773 642.517 353.444 642.744 353.08 642.81L353.59 645.637ZM360.833 635.388C361.64 635.271 362.243 635.506 362.845 636.024C363.515 636.6 364.105 637.459 364.797 638.518C365.432 639.491 366.19 640.696 367.117 641.558C368.121 642.491 369.45 643.143 371.157 642.814L370.613 639.993C370.047 640.102 369.608 639.951 369.073 639.454C368.463 638.886 367.913 638.036 367.202 636.947C366.546 635.943 365.748 634.731 364.718 633.846C363.62 632.902 362.211 632.286 360.422 632.544L360.833 635.388ZM371.157 642.814C372.807 642.496 373.91 641.433 374.691 640.274C375.449 639.149 376.014 637.762 376.515 636.572C377.047 635.309 377.52 634.231 378.116 633.409C378.684 632.628 379.274 632.202 380.02 632.077L379.542 629.244C377.827 629.533 376.643 630.548 375.791 631.722C374.968 632.856 374.377 634.247 373.867 635.457C373.327 636.739 372.875 637.828 372.308 638.669C371.764 639.477 371.234 639.873 370.613 639.993L371.157 642.814ZM380.02 632.077C380.4 632.012 380.658 632.057 380.853 632.135C381.06 632.217 381.282 632.371 381.532 632.643C382.079 633.24 382.522 634.123 383.127 635.286C383.674 636.337 384.368 637.644 385.39 638.574C386.517 639.599 387.996 640.132 389.887 639.749L389.316 636.933C388.36 637.127 387.803 636.885 387.324 636.449C386.739 635.917 386.257 635.076 385.676 633.96C385.153 632.954 384.516 631.648 383.65 630.703C383.193 630.203 382.626 629.747 381.912 629.464C381.186 629.176 380.393 629.1 379.542 629.244L380.02 632.077ZM389.887 639.749C391.709 639.379 392.917 638.426 393.743 637.224C394.517 636.099 394.947 634.758 395.302 633.682C395.687 632.513 395.993 631.627 396.467 630.963C396.876 630.39 397.415 629.979 398.397 629.848L398.015 627C396.196 627.244 394.969 628.117 394.129 629.294C393.355 630.379 392.927 631.71 392.573 632.782C392.189 633.946 391.874 634.871 391.376 635.597C390.93 636.245 390.34 636.726 389.316 636.933L389.887 639.749ZM398.397 629.848C398.881 629.783 399.201 629.845 399.428 629.939C399.661 630.036 399.888 630.206 400.123 630.49C400.645 631.118 401.025 632.048 401.528 633.281C401.977 634.382 402.549 635.794 403.499 636.8C404.004 637.335 404.638 637.785 405.438 638.031C406.235 638.276 407.101 638.289 408.029 638.094L407.439 635.282C406.891 635.397 406.529 635.361 406.282 635.285C406.039 635.21 405.815 635.069 405.588 634.828C405.074 634.283 404.683 633.41 404.188 632.196C403.746 631.114 403.201 629.699 402.333 628.654C401.874 628.101 401.29 627.603 400.535 627.288C399.775 626.971 398.931 626.877 398.015 627L398.397 629.848ZM408.029 638.094C411.811 637.3 413.275 633.895 414.335 631.426C414.915 630.075 415.383 628.947 415.988 628.066C416.56 627.235 417.154 626.777 417.929 626.625L417.374 623.806C415.627 624.15 414.459 625.219 413.621 626.438C412.816 627.609 412.227 629.054 411.695 630.293C410.532 633.002 409.558 634.837 407.439 635.282L408.029 638.094ZM417.929 626.625C418.618 626.489 419.154 626.687 419.747 627.252C420.406 627.88 420.996 628.844 421.659 630.022C422.27 631.107 422.972 632.437 423.789 633.403C424.634 634.402 425.895 635.352 427.629 635.039L427.119 632.212C426.864 632.258 426.545 632.213 425.982 631.547C425.39 630.848 424.856 629.845 424.163 628.614C423.523 627.476 422.744 626.14 421.729 625.172C420.648 624.141 419.205 623.446 417.374 623.806L417.929 626.625ZM427.629 635.039C429.229 634.75 430.307 633.538 431.069 632.379C431.845 631.198 432.524 629.699 433.16 628.378C433.827 626.992 434.467 625.749 435.215 624.809C435.949 623.885 436.672 623.399 437.472 623.284L437.061 620.44C435.265 620.7 433.951 621.782 432.966 623.022C431.993 624.245 431.231 625.762 430.571 627.133C429.88 628.569 429.309 629.826 428.668 630.801C428.013 631.797 427.509 632.142 427.119 632.212L427.629 635.039ZM437.472 623.284C438.269 623.169 438.968 623.414 439.728 624.013C440.535 624.648 441.283 625.581 442.132 626.679C442.927 627.707 443.84 628.922 444.871 629.791C445.949 630.698 447.34 631.385 449.055 631.054L448.511 628.233C447.954 628.34 447.419 628.18 446.722 627.593C445.979 626.967 445.271 626.042 444.404 624.921C443.591 623.87 442.636 622.647 441.506 621.757C440.331 620.83 438.861 620.181 437.061 620.44L437.472 623.284ZM449.055 631.054C450.659 630.744 451.771 629.774 452.587 628.685C453.375 627.633 453.979 626.34 454.51 625.238C455.074 624.068 455.572 623.075 456.185 622.315C456.766 621.594 457.382 621.171 458.172 621.038L457.695 618.205C456.024 618.486 454.834 619.414 453.948 620.512C453.094 621.572 452.463 622.868 451.922 623.991C451.349 625.181 450.872 626.183 450.288 626.963C449.731 627.706 449.179 628.104 448.511 628.233L449.055 631.054ZM458.172 621.038C458.891 620.916 459.464 621.118 460.101 621.637C460.81 622.214 461.447 623.058 462.269 624.112C463.031 625.09 463.955 626.249 465.124 627.056C466.366 627.914 467.883 628.376 469.735 628.001L469.164 625.185C468.169 625.387 467.438 625.163 466.756 624.692C466.001 624.171 465.325 623.359 464.535 622.346C463.804 621.409 462.938 620.242 461.915 619.409C460.821 618.518 459.437 617.911 457.695 618.205L458.172 621.038ZM469.735 628.001C471.578 627.627 472.93 626.558 473.974 625.31C474.995 624.088 475.795 622.602 476.501 621.282C477.239 619.901 477.871 618.707 478.609 617.79C479.323 616.902 480.015 616.432 480.811 616.309L480.373 613.47C478.607 613.743 477.336 614.79 476.37 615.989C475.428 617.161 474.662 618.627 473.967 619.928C473.239 621.291 472.57 622.51 471.77 623.467C470.991 624.398 470.168 624.982 469.164 625.185L469.735 628.001ZM480.811 616.309C481.565 616.193 482.276 616.432 483.118 617.083C484.004 617.767 484.841 618.748 485.853 619.897C486.808 620.982 487.919 622.213 489.223 623.068C490.585 623.96 492.216 624.482 494.146 624.077L493.556 621.265C492.536 621.479 491.675 621.24 490.798 620.665C489.864 620.053 488.99 619.113 488.009 617.999C487.084 616.949 486.033 615.703 484.874 614.809C483.672 613.881 482.181 613.191 480.373 613.47L480.811 616.309ZM494.146 624.077C497.936 623.281 499.287 619.985 500.255 617.603C500.783 616.304 501.199 615.241 501.761 614.412C502.282 613.642 502.845 613.202 503.631 613.048L503.076 610.229C501.341 610.571 500.193 611.603 499.382 612.801C498.611 613.94 498.074 615.341 497.594 616.521C496.547 619.098 495.668 620.822 493.556 621.265L494.146 624.077ZM503.631 613.048C504.388 612.899 505.001 613.099 505.65 613.609C506.361 614.168 507.016 615.027 507.756 616.075C508.44 617.044 509.235 618.237 510.122 619.096C511.045 619.991 512.321 620.771 513.964 620.474L513.453 617.647C513.107 617.709 512.724 617.617 512.121 617.033C511.48 616.412 510.88 615.519 510.103 614.418C509.382 613.397 508.51 612.204 507.427 611.352C506.284 610.452 504.84 609.882 503.076 610.229L503.631 613.048ZM513.964 620.474C515.513 620.194 516.534 619.146 517.251 618.077C517.952 617.032 518.522 615.714 519.038 614.605C519.588 613.423 520.106 612.403 520.746 611.632C521.356 610.898 522.02 610.459 522.878 610.335L522.467 607.492C520.73 607.743 519.472 608.67 518.536 609.796C517.631 610.886 516.978 612.221 516.433 613.393C515.855 614.636 515.406 615.67 514.865 616.477C514.339 617.261 513.894 617.567 513.453 617.647L513.964 620.474ZM522.878 610.335C524.595 610.087 525.8 611.226 527.537 613.183C528.315 614.058 529.225 615.115 530.258 615.859C531.351 616.646 532.703 617.176 534.336 616.86L533.792 614.039C533.154 614.163 532.595 614.001 531.937 613.527C531.22 613.011 530.54 612.238 529.686 611.276C528.161 609.558 525.942 606.99 522.467 607.492L522.878 610.335ZM534.336 616.86C535.881 616.562 537.133 615.629 538.163 614.597C539.192 613.566 540.14 612.288 541.014 611.131C541.919 609.932 542.757 608.844 543.647 608C544.531 607.162 545.355 606.674 546.193 606.533L545.715 603.7C544.092 603.974 542.767 604.875 541.67 605.915C540.58 606.949 539.605 608.229 538.721 609.4C537.805 610.613 536.988 611.708 536.13 612.567C535.274 613.425 534.519 613.899 533.792 614.039L534.336 616.86ZM546.193 606.533C546.858 606.421 547.432 606.625 548.116 607.23C548.86 607.888 549.537 608.845 550.387 610.008C551.179 611.091 552.125 612.358 553.304 613.25C554.553 614.196 556.104 614.753 558.004 614.368L557.433 611.552C556.488 611.744 555.759 611.506 555.038 610.96C554.246 610.36 553.529 609.438 552.707 608.313C551.942 607.266 551.053 605.994 550.02 605.079C548.926 604.111 547.51 603.397 545.715 603.7L546.193 606.533ZM558.004 614.368C561.668 613.625 563.083 610.394 564.152 608.132C565.365 605.567 566.203 604.057 568.112 603.801L567.729 600.954C564.036 601.45 562.619 604.654 561.555 606.904C560.348 609.456 559.463 611.14 557.433 611.552L558.004 614.368ZM568.112 603.801C569.024 603.679 569.613 603.946 570.161 604.465C570.8 605.069 571.32 605.954 571.992 607.089C572.605 608.124 573.367 609.408 574.444 610.306C575.628 611.292 577.138 611.78 579.054 611.378L578.464 608.566C577.43 608.783 576.81 608.538 576.284 608.099C575.651 607.571 575.123 606.738 574.464 605.625C573.864 604.613 573.131 603.32 572.135 602.378C571.047 601.349 569.618 600.7 567.729 600.954L568.112 603.801ZM579.054 611.378C582.793 610.593 584.229 607.502 585.274 605.217C585.838 603.985 586.282 602.981 586.863 602.193C587.403 601.463 587.99 601.022 588.81 600.861L588.255 598.042C586.554 598.377 585.396 599.345 584.553 600.486C583.752 601.571 583.174 602.903 582.662 604.022C581.556 606.439 580.627 608.112 578.464 608.566L579.054 611.378ZM588.81 600.861C589.497 600.726 590.011 600.922 590.572 601.473C591.205 602.094 591.765 603.05 592.395 604.228C592.974 605.31 593.641 606.645 594.434 607.615C595.26 608.626 596.508 609.584 598.25 609.269L597.739 606.442C597.491 606.487 597.192 606.45 596.658 605.797C596.092 605.104 595.588 604.107 594.929 602.874C594.321 601.738 593.576 600.396 592.584 599.422C591.521 598.378 590.088 597.682 588.255 598.042L588.81 600.861ZM598.25 609.269C599.902 608.971 600.851 607.745 601.442 606.572C602.021 605.421 602.426 603.968 602.802 602.751C603.206 601.445 603.594 600.333 604.133 599.505C604.637 598.73 605.2 598.309 605.981 598.197L605.57 595.353C603.755 595.616 602.545 596.677 601.725 597.938C600.94 599.146 600.453 600.622 600.058 601.903C599.635 603.272 599.317 604.404 598.876 605.281C598.445 606.136 598.076 606.381 597.739 606.442L598.25 609.269ZM605.981 598.197C606.715 598.091 607.339 598.335 608.035 598.99C608.781 599.692 609.453 600.722 610.217 601.942C610.928 603.078 611.745 604.428 612.705 605.401C613.711 606.422 615.09 607.245 616.879 606.9L616.335 604.08C615.851 604.173 615.39 604.033 614.751 603.384C614.065 602.689 613.432 601.664 612.652 600.418C611.924 599.256 611.065 597.897 610.003 596.898C608.891 595.851 607.432 595.085 605.57 595.353L605.981 598.197ZM616.879 606.9C618.578 606.572 619.658 605.417 620.388 604.192C621.099 602.999 621.603 601.525 622.052 600.256C622.529 598.909 622.957 597.757 623.52 596.883C624.056 596.051 624.612 595.633 625.311 595.515L624.834 592.682C623.072 592.979 621.908 594.082 621.105 595.327C620.329 596.53 619.8 598.009 619.344 599.297C618.86 600.663 618.454 601.826 617.92 602.722C617.406 603.585 616.907 603.969 616.335 604.08L616.879 606.9ZM625.311 595.515C625.692 595.451 625.932 595.498 626.099 595.568C626.277 595.642 626.474 595.784 626.697 596.05C627.194 596.642 627.577 597.521 628.112 598.703C628.591 599.761 629.208 601.1 630.181 602.058C631.27 603.13 632.738 603.672 634.633 603.287L634.062 600.472C633.111 600.665 632.611 600.419 632.196 600.01C631.666 599.488 631.243 598.654 630.729 597.519C630.272 596.508 629.712 595.173 628.898 594.203C628.465 593.688 627.915 593.212 627.203 592.916C626.479 592.615 625.684 592.539 624.834 592.682L625.311 595.515ZM634.633 603.287C636.524 602.904 637.7 601.825 638.396 600.472C639.041 599.219 639.261 597.751 639.419 596.562C639.594 595.249 639.696 594.304 639.97 593.613C640.092 593.304 640.213 593.153 640.306 593.074C640.382 593.011 640.512 592.932 640.801 592.91L640.581 590.045C639.764 590.108 639.045 590.382 638.458 590.875C637.888 591.354 637.534 591.963 637.299 592.554C636.859 593.665 636.718 595.084 636.572 596.184C636.409 597.409 636.229 598.405 635.842 599.158C635.506 599.81 635.019 600.278 634.062 600.472L634.633 603.287ZM640.801 592.91C641.343 592.868 641.91 593.092 642.62 593.756C643.348 594.438 644.034 595.402 644.812 596.515C645.541 597.559 646.374 598.771 647.308 599.651C648.264 600.552 649.569 601.333 651.209 601.037L650.698 598.21C650.348 598.273 649.928 598.173 649.278 597.56C648.606 596.927 647.953 595.995 647.167 594.87C646.429 593.814 645.572 592.585 644.583 591.659C643.575 590.715 642.251 589.917 640.581 590.045L640.801 592.91ZM651.209 601.037C652.861 600.738 653.81 599.513 654.401 598.34C654.98 597.189 655.386 595.736 655.762 594.519C656.165 593.213 656.553 592.101 657.092 591.273C657.596 590.498 658.159 590.077 658.94 589.965L658.529 587.121C656.714 587.384 655.504 588.445 654.684 589.706C653.899 590.914 653.412 592.39 653.017 593.671C652.594 595.04 652.276 596.172 651.835 597.049C651.404 597.904 651.035 598.149 650.698 598.21L651.209 601.037ZM658.94 589.965C659.674 589.859 660.298 590.103 660.994 590.758C661.74 591.46 662.412 592.49 663.176 593.71C663.887 594.846 664.704 596.196 665.664 597.169C666.67 598.19 668.05 599.013 669.838 598.668L669.294 595.848C668.81 595.941 668.349 595.801 667.71 595.152C667.024 594.457 666.391 593.432 665.611 592.186C664.884 591.024 664.024 589.665 662.963 588.666C661.85 587.619 660.391 586.853 658.529 587.121L658.94 589.965ZM669.838 598.668C671.537 598.34 672.617 597.185 673.347 595.96C674.058 594.767 674.562 593.293 675.011 592.024C675.488 590.677 675.916 589.525 676.479 588.651C677.015 587.819 677.571 587.401 678.271 587.283L677.793 584.45C676.031 584.747 674.867 585.85 674.064 587.095C673.289 588.298 672.759 589.777 672.303 591.065C671.819 592.431 671.413 593.594 670.879 594.49C670.365 595.353 669.866 595.737 669.294 595.848L669.838 598.668ZM678.271 587.283C678.651 587.219 678.891 587.266 679.058 587.336C679.236 587.41 679.433 587.552 679.656 587.818C680.153 588.41 680.536 589.289 681.071 590.471C681.55 591.529 682.167 592.868 683.14 593.826C684.23 594.898 685.697 595.44 687.592 595.055L687.021 592.24C686.07 592.433 685.57 592.187 685.155 591.778C684.625 591.256 684.202 590.422 683.689 589.287C683.231 588.276 682.671 586.941 681.857 585.971C681.425 585.456 680.874 584.98 680.162 584.684C679.438 584.383 678.643 584.307 677.793 584.45L678.271 587.283ZM687.592 595.055C689.417 594.685 690.886 593.595 692.032 592.321C693.178 591.047 694.074 589.509 694.755 588.071C695.44 586.626 695.933 585.227 696.255 584.195C696.416 583.677 696.535 583.247 696.615 582.944C696.655 582.792 696.685 582.671 696.705 582.587C696.716 582.545 696.723 582.512 696.729 582.488C696.732 582.476 696.734 582.467 696.735 582.46C696.736 582.457 696.737 582.454 696.737 582.452C696.738 582.451 696.738 582.45 696.738 582.449C696.738 582.449 696.738 582.448 696.738 582.448C696.738 582.448 696.738 582.447 695.337 582.131C693.936 581.815 693.936 581.815 693.936 581.815C693.936 581.815 693.936 581.814 693.936 581.814C693.936 581.814 693.936 581.814 693.936 581.814C693.936 581.815 693.936 581.816 693.935 581.817C693.935 581.82 693.933 581.826 693.932 581.834C693.928 581.85 693.922 581.875 693.914 581.909C693.897 581.977 693.871 582.08 693.836 582.214C693.766 582.481 693.658 582.87 693.512 583.341C693.217 584.288 692.77 585.552 692.159 586.841C691.545 588.138 690.789 589.407 689.896 590.4C689.002 591.394 688.043 592.033 687.021 592.24L687.592 595.055ZM3.17195 685.892L-18.3094 693.88L-17.3082 696.573L4.17317 688.585L3.17195 685.892ZM-16.3726 695.203L-28.3802 -49.4099L-31.2526 -49.3636L-19.245 695.249L-16.3726 695.203ZM-29.8348 -47.9504L727.359 -38.2739L727.396 -41.1464L-29.7981 -50.823L-29.8348 -47.9504ZM725.942 -39.7325L716.265 582.109L719.137 582.154L728.814 -39.6878L725.942 -39.7325ZM717.701 580.695H695.337V583.568H717.701V580.695ZM206.862 556.864C208.288 557.038 208.288 557.038 208.288 557.039C208.288 557.039 208.287 557.039 208.287 557.039C208.287 557.039 208.287 557.039 208.287 557.039C208.287 557.04 208.287 557.039 208.288 557.038C208.288 557.037 208.288 557.034 208.289 557.029C208.29 557.019 208.292 557.003 208.295 556.981C208.301 556.937 208.311 556.869 208.325 556.78C208.353 556.603 208.398 556.344 208.462 556.03C208.591 555.399 208.797 554.567 209.102 553.738C209.411 552.897 209.794 552.133 210.246 551.583C210.691 551.041 211.116 550.802 211.535 550.757L211.23 547.901C209.824 548.051 208.772 548.852 208.026 549.76C207.288 550.658 206.77 551.754 206.405 552.748C206.035 553.754 205.795 554.733 205.648 555.453C205.573 555.816 205.521 556.118 205.487 556.333C205.47 556.44 205.458 556.526 205.45 556.587C205.445 556.617 205.442 556.641 205.44 556.659C205.439 556.667 205.438 556.675 205.437 556.68C205.437 556.683 205.437 556.685 205.436 556.687C205.436 556.687 205.436 556.688 205.436 556.689C205.436 556.689 205.436 556.69 205.436 556.69C205.436 556.69 205.436 556.691 206.862 556.864ZM211.535 550.757C211.874 550.721 212.092 550.809 212.38 551.147C212.743 551.571 213.055 552.219 213.459 553.124C213.82 553.931 214.272 554.984 214.899 555.806C215.573 556.69 216.577 557.474 218.043 557.474V554.601C217.76 554.601 217.515 554.499 217.183 554.064C216.803 553.567 216.493 552.87 216.082 551.951C215.715 551.129 215.245 550.076 214.564 549.279C213.808 548.396 212.717 547.742 211.23 547.901L211.535 550.757ZM218.043 557.474C219.5 557.474 220.485 556.716 221.142 555.829C221.736 555.029 222.16 553.986 222.498 553.221C222.879 552.358 223.196 551.729 223.589 551.304C223.913 550.955 224.279 550.748 224.908 550.765L224.984 547.893C223.451 547.852 222.311 548.456 221.48 549.354C220.72 550.176 220.237 551.231 219.87 552.059C219.46 552.986 219.188 553.642 218.835 554.118C218.546 554.507 218.334 554.601 218.043 554.601V557.474ZM224.908 550.765C225.503 550.781 225.974 551.038 226.403 551.537C226.861 552.07 227.229 552.839 227.507 553.719C227.781 554.583 227.938 555.462 228.027 556.136C228.071 556.47 228.096 556.746 228.111 556.936C228.119 557.031 228.123 557.104 228.126 557.151C228.127 557.174 228.128 557.191 228.129 557.201C228.129 557.207 228.129 557.21 228.129 557.211C228.129 557.212 228.129 557.213 228.129 557.212C228.129 557.212 228.129 557.212 228.129 557.212C228.129 557.212 228.129 557.211 228.129 557.211C228.129 557.211 228.129 557.211 229.564 557.156C231 557.101 231 557.101 231 557.1C231 557.1 231 557.1 231 557.099C231 557.099 231 557.098 231 557.097C230.999 557.095 230.999 557.092 230.999 557.089C230.999 557.083 230.999 557.076 230.998 557.066C230.997 557.047 230.996 557.021 230.994 556.988C230.99 556.922 230.984 556.829 230.975 556.713C230.957 556.48 230.926 556.153 230.875 555.762C230.773 554.987 230.587 553.931 230.246 552.853C229.911 551.79 229.395 550.61 228.581 549.664C227.739 548.685 226.552 547.935 224.984 547.893L224.908 550.765ZM94.7098 387.883C96.0873 388.29 96.0873 388.29 96.0872 388.29C96.0872 388.29 96.0872 388.29 96.0872 388.29C96.0872 388.29 96.0872 388.29 96.0873 388.29C96.0874 388.289 96.0878 388.288 96.0883 388.287C96.0893 388.283 96.0909 388.278 96.0932 388.27C96.0979 388.255 96.1052 388.231 96.1151 388.198C96.1349 388.134 96.1651 388.037 96.2052 387.913C96.2853 387.664 96.4047 387.305 96.5595 386.871C96.8701 386.001 97.3177 384.846 97.8698 383.689C98.4277 382.52 99.0637 381.41 99.7357 380.59C100.445 379.726 100.992 379.43 101.328 379.394L101.023 376.537C99.5329 376.697 98.3596 377.738 97.5142 378.769C96.6316 379.845 95.8794 381.19 95.2772 382.452C94.6693 383.725 94.185 384.977 93.8538 385.905C93.6876 386.371 93.5586 386.759 93.4705 387.033C93.4265 387.169 93.3926 387.278 93.3694 387.353C93.3578 387.391 93.3489 387.42 93.3427 387.441C93.3396 387.451 93.3371 387.459 93.3354 387.465C93.3345 387.468 93.3338 387.471 93.3333 387.472C93.333 387.473 93.3328 387.474 93.3326 387.475C93.3326 387.475 93.3325 387.475 93.3324 387.475C93.3323 387.476 93.3322 387.476 94.7098 387.883ZM101.328 379.394C101.5 379.376 101.797 379.414 102.315 380.088C102.837 380.769 103.315 381.758 103.869 382.947C104.385 384.056 104.976 385.36 105.683 386.366C106.374 387.35 107.45 388.444 109.051 388.444V385.571C108.903 385.571 108.577 385.487 108.034 384.714C107.507 383.964 107.032 382.934 106.473 381.734C105.951 380.614 105.344 379.318 104.594 378.34C103.839 377.355 102.676 376.361 101.023 376.537L101.328 379.394ZM109.051 388.444C110.745 388.444 111.736 387.208 112.309 386.163C112.89 385.104 113.329 383.72 113.722 382.567C114.147 381.319 114.536 380.28 115.022 379.557C115.476 378.88 115.849 378.71 116.256 378.721L116.333 375.849C114.577 375.802 113.401 376.819 112.637 377.955C111.906 379.043 111.411 380.443 111.003 381.64C110.562 382.931 110.219 384 109.79 384.781C109.353 385.578 109.105 385.571 109.051 385.571V388.444ZM116.256 378.721C116.798 378.735 117.47 379.059 118.256 379.859C119.024 380.642 119.745 381.725 120.374 382.878C120.997 384.019 121.498 385.168 121.844 386.036C122.016 386.469 122.148 386.828 122.237 387.076C122.281 387.201 122.314 387.297 122.336 387.361C122.347 387.393 122.355 387.417 122.36 387.432C122.362 387.44 122.364 387.445 122.365 387.448C122.365 387.45 122.366 387.451 122.366 387.451C122.366 387.451 122.366 387.451 122.366 387.451C122.366 387.451 122.366 387.451 122.366 387.451C122.366 387.451 122.366 387.451 123.732 387.008C125.099 386.565 125.099 386.565 125.098 386.564C125.098 386.564 125.098 386.564 125.098 386.563C125.098 386.563 125.098 386.562 125.097 386.561C125.097 386.559 125.096 386.557 125.095 386.554C125.093 386.548 125.09 386.539 125.087 386.529C125.08 386.507 125.07 386.477 125.057 386.439C125.031 386.362 124.993 386.252 124.943 386.113C124.845 385.836 124.7 385.443 124.513 384.973C124.14 384.037 123.591 382.776 122.896 381.501C122.206 380.238 121.338 378.898 120.306 377.847C119.292 376.813 117.952 375.892 116.333 375.849L116.256 378.721ZM220.091 205.704C221.468 206.111 221.468 206.111 221.468 206.111C221.468 206.111 221.468 206.111 221.468 206.111C221.468 206.111 221.468 206.111 221.468 206.111C221.468 206.11 221.469 206.109 221.469 206.107C221.47 206.104 221.472 206.098 221.474 206.091C221.479 206.075 221.486 206.051 221.496 206.019C221.516 205.955 221.546 205.858 221.586 205.734C221.666 205.484 221.786 205.125 221.94 204.692C222.251 203.821 222.698 202.667 223.251 201.51C223.808 200.341 224.444 199.231 225.117 198.411C225.826 197.546 226.373 197.25 226.709 197.215L226.404 194.358C224.914 194.517 223.74 195.559 222.895 196.59C222.012 197.666 221.26 199.011 220.658 200.272C220.05 201.546 219.566 202.798 219.235 203.726C219.068 204.192 218.939 204.58 218.851 204.853C218.807 204.99 218.773 205.099 218.75 205.174C218.739 205.212 218.73 205.241 218.724 205.262C218.72 205.272 218.718 205.28 218.716 205.286C218.715 205.289 218.715 205.291 218.714 205.293C218.714 205.294 218.714 205.295 218.713 205.295C218.713 205.295 218.713 205.296 218.713 205.296C218.713 205.296 218.713 205.297 220.091 205.704ZM226.709 197.215C226.881 197.196 227.178 197.234 227.696 197.909C228.218 198.59 228.696 199.579 229.25 200.768C229.766 201.877 230.357 203.18 231.064 204.187C231.755 205.17 232.831 206.265 234.432 206.265V203.392C234.284 203.392 233.958 203.308 233.415 202.535C232.888 201.785 232.413 200.755 231.854 199.555C231.332 198.434 230.725 197.138 229.975 196.16C229.22 195.176 228.057 194.181 226.404 194.358L226.709 197.215ZM234.432 206.265C236.126 206.265 237.117 205.028 237.69 203.984C238.271 202.924 238.709 201.541 239.103 200.387C239.528 199.139 239.917 198.101 240.403 197.377C240.857 196.701 241.23 196.531 241.637 196.542L241.713 193.67C239.958 193.623 238.781 194.639 238.018 195.775C237.287 196.864 236.791 198.263 236.383 199.461C235.943 200.752 235.6 201.821 235.171 202.602C234.734 203.399 234.486 203.392 234.432 203.392V206.265ZM241.637 196.542C242.179 196.556 242.851 196.879 243.637 197.68C244.405 198.463 245.125 199.545 245.755 200.699C246.378 201.84 246.878 202.988 247.225 203.857C247.397 204.29 247.529 204.648 247.618 204.897C247.662 205.021 247.695 205.118 247.717 205.182C247.727 205.214 247.735 205.237 247.74 205.253C247.743 205.26 247.745 205.266 247.746 205.269C247.746 205.27 247.747 205.271 247.747 205.272C247.747 205.272 247.747 205.272 247.747 205.272C247.747 205.272 247.747 205.272 247.747 205.272C247.747 205.272 247.747 205.271 249.113 204.828C250.479 204.386 250.479 204.385 250.479 204.385C250.479 204.385 250.479 204.384 250.479 204.384C250.479 204.383 250.478 204.383 250.478 204.382C250.478 204.38 250.477 204.377 250.476 204.374C250.474 204.368 250.471 204.36 250.467 204.349C250.46 204.328 250.45 204.298 250.437 204.259C250.411 204.183 250.373 204.073 250.324 203.934C250.225 203.657 250.081 203.264 249.893 202.794C249.521 201.858 248.972 200.597 248.277 199.322C247.587 198.059 246.718 196.718 245.687 195.667C244.672 194.634 243.333 193.713 241.713 193.67L241.637 196.542ZM51.2893 2.91153C52.6668 3.31852 52.6668 3.31871 52.6667 3.31887C52.6667 3.31888 52.6667 3.319 52.6667 3.31901C52.6667 3.31903 52.6667 3.3189 52.6668 3.31864C52.667 3.3181 52.6673 3.317 52.6678 3.31534C52.6688 3.31202 52.6704 3.30646 52.6728 3.29874C52.6774 3.28329 52.6847 3.25919 52.6946 3.227C52.7145 3.16261 52.7446 3.06594 52.7847 2.94151C52.8648 2.69248 52.9842 2.33319 53.139 1.89961C53.4496 1.02918 53.8972 -0.125167 54.4494 -1.28211C55.0072 -2.45089 55.6432 -3.56118 56.3152 -4.38085C57.0244 -5.24575 57.572 -5.54157 57.9075 -5.57742L57.6024 -8.43396C56.1124 -8.27479 54.9391 -7.23345 54.0937 -6.20231C53.2112 -5.12593 52.4589 -3.7813 51.8567 -2.51952C51.2489 -1.24592 50.7645 0.00591614 50.4333 0.934017C50.2671 1.39971 50.1381 1.78778 50.0501 2.06129C50.006 2.19813 49.9722 2.30652 49.949 2.38188C49.9374 2.41957 49.9284 2.44901 49.9222 2.46964C49.9191 2.47996 49.9167 2.48807 49.9149 2.49391C49.9141 2.49683 49.9134 2.49918 49.9128 2.50096C49.9126 2.50185 49.9123 2.50259 49.9122 2.50319C49.9121 2.50349 49.912 2.50383 49.9119 2.50397C49.9118 2.50428 49.9118 2.50454 51.2893 2.91153ZM57.9075 -5.57742C58.0798 -5.59582 58.3769 -5.55759 58.8943 -4.88311C59.4166 -4.20226 59.8948 -3.21322 60.4483 -2.02448C60.965 -0.915031 61.5558 0.388309 62.2628 1.39456C62.9539 2.37828 64.0295 3.47288 65.6304 3.47288V0.600082C65.4828 0.600082 65.1562 0.515653 64.6134 -0.256974C64.0864 -1.00707 63.6114 -2.0374 63.0526 -3.23725C62.5308 -4.35781 61.9239 -5.65369 61.1736 -6.63168C60.4185 -7.61603 59.2555 -8.61057 57.6024 -8.43396L57.9075 -5.57742ZM65.6304 3.47288C67.3243 3.47288 68.3155 2.2362 68.8884 1.19212C69.4699 0.132467 69.9081 -1.25101 70.3013 -2.40478C70.7265 -3.65257 71.1156 -4.69095 71.6018 -5.41481C72.0558 -6.09085 72.4284 -6.26123 72.8356 -6.25038L72.9121 -9.12216C71.157 -9.16893 69.9801 -8.15278 69.217 -7.0166C68.486 -5.92825 67.9901 -4.52874 67.582 -3.33144C67.142 -2.04012 66.7987 -0.971296 66.3699 -0.189928C65.9326 0.607009 65.6848 0.600082 65.6304 0.600082V3.47288ZM72.8356 -6.25038C73.3729 -6.23606 73.9004 -5.96659 74.4972 -5.29297C75.1105 -4.60072 75.6574 -3.63687 76.2278 -2.53018C76.7599 -1.49787 77.3451 -0.268116 77.9651 0.650806C78.5387 1.50083 79.5077 2.65974 81.0113 2.65974V-0.213058C81.102 -0.213058 80.888 -0.153446 80.3466 -0.955969C79.8516 -1.68959 79.3899 -2.66564 78.7814 -3.84633C78.2112 -4.95264 77.5238 -6.20899 76.6474 -7.19809C75.7546 -8.20583 74.5369 -9.07886 72.9121 -9.12216L72.8356 -6.25038ZM95.3671 2.03648C96.7325 1.59042 96.7324 1.59019 96.7323 1.58992C96.7323 1.58978 96.7322 1.58947 96.7321 1.58919C96.7319 1.58863 96.7317 1.58791 96.7314 1.58703C96.7308 1.58529 96.73 1.58292 96.7291 1.57996C96.7271 1.57402 96.7244 1.56566 96.7208 1.55496C96.7137 1.53357 96.7034 1.50279 96.6901 1.46325C96.6634 1.3842 96.6245 1.27006 96.5741 1.12584C96.4734 0.837543 96.3267 0.428214 96.1407 -0.06196C95.7699 -1.03917 95.2375 -2.35219 94.5967 -3.67339C93.9625 -4.98076 93.191 -6.36194 92.3286 -7.43638C91.897 -7.97421 91.4053 -8.48259 90.8541 -8.86508C90.3028 -9.24762 89.6142 -9.55686 88.8241 -9.55245L88.8401 -6.6797C88.8531 -6.67977 88.971 -6.6751 89.2163 -6.50487C89.4617 -6.3346 89.7566 -6.05135 90.0882 -5.63821C90.7523 -4.81073 91.4138 -3.65265 92.0119 -2.41965C92.6032 -1.20047 93.1022 0.0280128 93.4548 0.957207C93.6305 1.42024 93.7685 1.80533 93.862 2.07317C93.9088 2.20701 93.9444 2.31136 93.9679 2.38128C93.9797 2.41623 93.9885 2.44256 93.9942 2.45965C93.997 2.46819 93.9991 2.47442 94.0003 2.47826C94.001 2.48018 94.0014 2.48151 94.0016 2.48222C94.0017 2.48258 94.0018 2.48279 94.0018 2.48284C94.0018 2.48287 94.0018 2.48279 94.0018 2.4828C94.0018 2.48269 94.0017 2.48254 95.3671 2.03648ZM88.8241 -9.55245C87.2992 -9.54394 86.2132 -8.44973 85.5067 -7.51585C84.7555 -6.52289 84.0882 -5.24088 83.4994 -4.09693C82.879 -2.89132 82.3425 -1.83313 81.7986 -1.05963C81.5305 -0.678334 81.3103 -0.440531 81.1411 -0.308018C80.98 -0.181856 80.9467 -0.213058 81.0113 -0.213058V2.65974C81.7823 2.65974 82.4228 2.33724 82.9126 1.95356C83.3943 1.57624 83.802 1.08566 84.1486 0.592786C84.8341 -0.382052 85.4738 -1.65536 86.0538 -2.78236C86.6655 -3.97102 87.2228 -5.02275 87.7977 -5.78261C88.4173 -6.60155 88.7587 -6.67924 88.8401 -6.6797L88.8241 -9.55245ZM517.365 41.5111C518.743 41.9181 518.743 41.9183 518.743 41.9185C518.743 41.9185 518.743 41.9186 518.743 41.9186C518.743 41.9186 518.743 41.9185 518.743 41.9183C518.743 41.9177 518.743 41.9166 518.744 41.915C518.745 41.9116 518.746 41.9061 518.749 41.8984C518.753 41.8829 518.761 41.8588 518.771 41.8266C518.79 41.7622 518.821 41.6656 518.861 41.5411C518.941 41.2921 519.06 40.9328 519.215 40.4992C519.526 39.6288 519.973 38.4745 520.525 37.3175C521.083 36.1487 521.719 35.0384 522.391 34.2188C523.1 33.3539 523.648 33.058 523.983 33.0222L523.678 30.1657C522.188 30.3248 521.015 31.3662 520.17 32.3973C519.287 33.4737 518.535 34.8183 517.933 36.0801C517.325 37.3537 516.84 38.6055 516.509 39.5336C516.343 39.9993 516.214 40.3874 516.126 40.6609C516.082 40.7977 516.048 40.9061 516.025 40.9815C516.013 41.0192 516.004 41.0486 515.998 41.0693C515.995 41.0796 515.993 41.0877 515.991 41.0935C515.99 41.0964 515.989 41.0988 515.989 41.1006C515.989 41.1015 515.988 41.1022 515.988 41.1028C515.988 41.1031 515.988 41.1034 515.988 41.1036C515.988 41.1039 515.988 41.1042 517.365 41.5111ZM523.983 33.0222C524.156 33.0038 524.453 33.042 524.97 33.7165C525.493 34.3974 525.971 35.3864 526.524 36.5751C527.041 37.6846 527.632 38.9879 528.339 39.9942C529.03 40.9779 530.105 42.0725 531.706 42.0725V39.1997C531.559 39.1997 531.232 39.1153 530.689 38.3426C530.162 37.5925 529.687 36.5622 529.129 35.3624C528.607 34.2418 528 32.9459 527.25 31.9679C526.494 30.9836 525.331 29.989 523.678 30.1657L523.983 33.0222ZM531.706 42.0725C533.4 42.0725 534.391 40.8358 534.964 39.7917C535.546 38.7321 535.984 37.3486 536.377 36.1948C536.802 34.9471 537.192 33.9087 537.678 33.1848C538.132 32.5088 538.504 32.3384 538.912 32.3492L538.988 29.4775C537.233 29.4307 536.056 30.4468 535.293 31.583C534.562 32.6714 534.066 34.0709 533.658 35.2682C533.218 36.5595 532.875 37.6283 532.446 38.4097C532.009 39.2066 531.761 39.1997 531.706 39.1997V42.0725ZM538.912 32.3492C539.454 32.3637 540.126 32.6869 540.911 33.4873C541.68 34.2702 542.4 35.353 543.03 36.5061C543.653 37.6477 544.153 38.7958 544.499 39.6646C544.671 40.0972 544.804 40.4561 544.892 40.7047C544.936 40.8289 544.97 40.9253 544.991 40.9893C545.002 41.0212 545.01 41.0451 545.015 41.0602C545.018 41.0678 545.019 41.0732 545.02 41.0763C545.021 41.0779 545.021 41.0789 545.021 41.0793C545.021 41.0796 545.021 41.0796 545.021 41.0796C545.021 41.0795 545.021 41.0794 545.021 41.0793C545.021 41.0791 545.021 41.0789 546.388 40.6361C547.754 40.1933 547.754 40.193 547.754 40.1926C547.754 40.1925 547.754 40.1921 547.754 40.1918C547.753 40.1911 547.753 40.1903 547.753 40.1894C547.752 40.1875 547.751 40.185 547.75 40.1819C547.748 40.1758 547.746 40.1675 547.742 40.1568C547.735 40.1356 547.725 40.1055 547.712 40.0671C547.686 39.9903 547.648 39.8801 547.599 39.7414C547.5 39.4641 547.355 39.0716 547.168 38.6016C546.795 37.6654 546.247 36.4044 545.551 35.1297C544.862 33.8666 543.993 32.5259 542.961 31.4749C541.947 30.4415 540.608 29.5206 538.988 29.4775L538.912 32.3492ZM640.543 512.932C641.921 513.339 641.921 513.339 641.921 513.339C641.921 513.339 641.921 513.34 641.921 513.34C641.921 513.34 641.921 513.339 641.921 513.339C641.921 513.339 641.921 513.338 641.922 513.336C641.923 513.333 641.925 513.327 641.927 513.319C641.932 513.304 641.939 513.28 641.949 513.248C641.969 513.183 641.999 513.087 642.039 512.962C642.119 512.713 642.238 512.354 642.393 511.92C642.704 511.05 643.151 509.895 643.704 508.738C644.261 507.57 644.897 506.459 645.569 505.64C646.279 504.775 646.826 504.479 647.162 504.443L646.857 501.587C645.367 501.746 644.193 502.787 643.348 503.818C642.465 504.895 641.713 506.239 641.111 507.501C640.503 508.775 640.019 510.026 639.687 510.955C639.521 511.42 639.392 511.808 639.304 512.082C639.26 512.219 639.226 512.327 639.203 512.402C639.192 512.44 639.183 512.47 639.176 512.49C639.173 512.501 639.171 512.509 639.169 512.514C639.168 512.517 639.168 512.52 639.167 512.522C639.167 512.522 639.166 512.523 639.166 512.524C639.166 512.524 639.166 512.524 639.166 512.525C639.166 512.525 639.166 512.525 640.543 512.932ZM647.162 504.443C647.334 504.425 647.631 504.463 648.148 505.137C648.671 505.818 649.149 506.807 649.703 507.996C650.219 509.106 650.81 510.409 651.517 511.415C652.208 512.399 653.284 513.493 654.885 513.493V510.621C654.737 510.621 654.41 510.536 653.868 509.764C653.341 509.013 652.866 507.983 652.307 506.783C651.785 505.663 651.178 504.367 650.428 503.389C649.673 502.405 648.51 501.41 646.857 501.587L647.162 504.443ZM654.885 513.493C656.578 513.493 657.57 512.257 658.143 511.213C658.724 510.153 659.162 508.77 659.555 507.616C659.981 506.368 660.37 505.33 660.856 504.606C661.31 503.93 661.683 503.759 662.09 503.77L662.166 500.898C660.411 500.852 659.234 501.868 658.471 503.004C657.74 504.092 657.244 505.492 656.836 506.689C656.396 507.98 656.053 509.049 655.624 509.831C655.187 510.628 654.939 510.621 654.885 510.621V513.493ZM662.09 503.77C662.632 503.785 663.304 504.108 664.089 504.908C664.858 505.691 665.578 506.774 666.208 507.927C666.831 509.069 667.331 510.217 667.677 511.086C667.85 511.518 667.982 511.877 668.07 512.126C668.115 512.25 668.148 512.346 668.169 512.41C668.18 512.442 668.188 512.466 668.193 512.481C668.196 512.489 668.198 512.494 668.199 512.497C668.199 512.499 668.199 512.5 668.2 512.5C668.2 512.5 668.2 512.501 668.2 512.5C668.2 512.5 668.2 512.5 668.2 512.5C668.2 512.5 668.199 512.5 669.566 512.057C670.932 511.614 670.932 511.614 670.932 511.614C670.932 511.613 670.932 511.613 670.932 511.613C670.932 511.612 670.931 511.611 670.931 511.61C670.93 511.608 670.93 511.606 670.929 511.603C670.927 511.597 670.924 511.588 670.92 511.578C670.913 511.557 670.903 511.526 670.89 511.488C670.864 511.411 670.826 511.301 670.777 511.162C670.678 510.885 670.533 510.493 670.346 510.023C669.973 509.086 669.425 507.825 668.729 506.551C668.04 505.287 667.171 503.947 666.14 502.896C665.125 501.862 663.786 500.942 662.166 500.898L662.09 503.77ZM-19.2452 695.226V916.091H-16.3724V695.226H-19.2452ZM-17.8088 917.527H717.701V914.654H-17.8088V917.527ZM719.138 916.091V582.131H716.265V916.091H719.138Z" fill="black"/>
<path d="M525.107 792.111C513.04 794.737 502.291 800.99 503.64 806.948C504.988 812.905 514.879 811.443 530.614 808.634C546.349 805.824 554.442 802.227 553.318 795.371C552.194 788.515 537.173 789.485 525.107 792.111Z" fill="#E4DCB4"/>
<path d="M359.134 684.059C347.067 686.685 336.318 692.938 337.667 698.896C339.015 704.853 348.906 703.391 364.641 700.581C380.376 697.772 388.468 694.175 387.344 687.319C386.221 680.463 371.2 681.433 359.134 684.059Z" fill="#E4DCB4"/>
<path d="M675.226 667.538C663.159 670.164 652.41 676.417 653.759 682.374C655.107 688.331 664.998 686.87 680.733 684.06C696.468 681.25 704.56 677.653 703.436 670.797C702.312 663.941 687.292 664.912 675.226 667.538Z" fill="#E4DCB4"/>
<path d="M222.917 787.166C210.85 789.792 200.102 796.045 201.45 802.002C202.799 807.959 212.689 806.498 228.425 803.688C244.16 800.878 252.252 797.281 251.128 790.425C250.004 783.569 234.984 784.54 222.917 787.166Z" fill="#E4DCB4"/>
<path d="M193.656 758.377C181.589 761.003 170.841 767.256 172.189 773.213C173.538 779.17 183.428 777.709 199.164 774.899C214.899 772.089 222.991 768.492 221.867 761.636C220.743 754.78 205.723 755.751 193.656 758.377Z" fill="#E4DCB4"/>
<path d="M1.33546 803.688C-10.7314 806.314 -21.48 812.567 -20.1314 818.524C-18.7828 824.481 -8.89207 823.02 6.84314 820.21C22.5784 817.4 30.6703 813.804 29.5464 806.948C28.4224 800.092 13.4023 801.062 1.33546 803.688Z" fill="#E4DCB4"/>
<path d="M19.5056 828.466C7.43881 831.092 -3.30981 837.345 -1.96124 843.302C-0.612668 849.259 9.27809 847.798 25.0133 844.988C40.7485 842.178 48.8405 838.581 47.7165 831.725C46.5926 824.869 31.5724 825.84 19.5056 828.466Z" fill="#E4DCB4"/>
<path d="M695.043 844.988C682.976 847.614 672.228 853.867 673.576 859.824C674.925 865.781 684.816 864.32 700.551 861.51C716.286 858.7 724.378 855.103 723.254 848.247C722.13 841.391 707.11 842.362 695.043 844.988Z" fill="#E4DCB4"/>
<path d="M680.733 876.696C668.666 879.322 657.918 885.575 659.266 891.532C660.615 897.489 670.506 896.028 686.241 893.218C701.976 890.408 710.068 886.812 708.944 879.956C707.82 873.1 692.8 874.07 680.733 876.696Z" fill="#E4DCB4"/>
<path d="M525.107 792.111C513.04 794.737 502.291 800.99 503.64 806.948C504.988 812.905 514.879 811.443 530.614 808.634C546.349 805.824 554.442 802.227 553.318 795.371C552.194 788.515 537.173 789.485 525.107 792.111Z" stroke="black"/>
<path d="M359.134 684.059C347.067 686.685 336.318 692.938 337.667 698.896C339.015 704.853 348.906 703.391 364.641 700.581C380.376 697.772 388.468 694.175 387.344 687.319C386.221 680.463 371.2 681.433 359.134 684.059Z" stroke="black"/>
<path d="M675.226 667.538C663.159 670.164 652.41 676.417 653.759 682.374C655.107 688.331 664.998 686.87 680.733 684.06C696.468 681.25 704.56 677.653 703.436 670.797C702.312 663.941 687.292 664.912 675.226 667.538Z" stroke="black"/>
<path d="M222.917 787.166C210.85 789.792 200.102 796.045 201.45 802.002C202.799 807.959 212.689 806.498 228.425 803.688C244.16 800.878 252.252 797.281 251.128 790.425C250.004 783.569 234.984 784.54 222.917 787.166Z" stroke="black"/>
<path d="M193.656 758.377C181.589 761.003 170.841 767.256 172.189 773.213C173.538 779.17 183.428 777.709 199.164 774.899C214.899 772.089 222.991 768.492 221.867 761.636C220.743 754.78 205.723 755.751 193.656 758.377Z" stroke="black"/>
<path d="M1.33546 803.688C-10.7314 806.314 -21.48 812.567 -20.1314 818.524C-18.7828 824.481 -8.89207 823.02 6.84314 820.21C22.5784 817.4 30.6703 813.804 29.5464 806.948C28.4224 800.092 13.4023 801.062 1.33546 803.688Z" stroke="black"/>
<path d="M19.5056 828.466C7.43881 831.092 -3.30981 837.345 -1.96124 843.302C-0.612668 849.259 9.27809 847.798 25.0133 844.988C40.7485 842.178 48.8405 838.581 47.7165 831.725C46.5926 824.869 31.5724 825.84 19.5056 828.466Z" stroke="black"/>
<path d="M695.043 844.988C682.976 847.614 672.228 853.867 673.576 859.824C674.925 865.781 684.816 864.32 700.551 861.51C716.286 858.7 724.378 855.103 723.254 848.247C722.13 841.391 707.11 842.362 695.043 844.988Z" stroke="black"/>
<path d="M680.733 876.696C668.666 879.322 657.918 885.575 659.266 891.532C660.615 897.489 670.506 896.028 686.241 893.218C701.976 890.408 710.068 886.812 708.944 879.956C707.82 873.1 692.8 874.07 680.733 876.696Z" stroke="black"/>
</g>
<defs>
<clipPath id="clip0_194_1055">
<rect width="700" height="900" fill="white" transform="translate(0.78125 0.695312)"/>
</clipPath>
</defs>
</svg>
