<svg width="701" height="901" viewBox="0 0 701 901" fill="none" xmlns="http://www.w3.org/2000/svg">
<path d="M250.275 321.368C249.838 319.648 237.443 324.011 228.135 326.324C218.828 328.638 205.279 329.794 197.899 329.904C190.519 330.014 172.992 327.199 166.451 325.113C159.911 323.027 151.912 317.898 145.798 316.907C139.685 315.915 135.335 327.591 135.334 332.823C135.333 338.055 134.397 346.262 139.684 353.421L139.753 353.515C145.014 360.639 149.903 367.259 156.483 370.439C163.092 373.634 189.307 375.616 197.899 374.515C206.491 373.413 222.848 370.935 228.334 368.98C233.82 367.026 247.163 360.191 248.348 358.929C249.533 357.666 250.713 323.087 250.275 321.368Z" fill="#D6722E"/>
<path d="M428.737 316.385C428.626 314.373 444.403 321.233 454.332 322.781C464.261 324.329 476.007 326.796 488.693 324.916C501.379 323.037 516.942 318.514 525.869 313.64C534.796 308.766 538.085 304.772 540.082 304.067C542.079 303.362 549.42 317.752 549.361 327.442C549.303 337.132 546.601 345.472 543.841 350.64C541.08 355.809 529.217 364.794 521.464 365.793C513.712 366.791 505.96 367.671 495.095 367.789C484.229 367.906 470.839 366.894 462.558 365.793C454.277 364.691 439.929 360.617 438.596 359.156C437.263 357.695 428.847 318.397 428.737 316.385Z" fill="#D6722E"/>
<path d="M139.684 353.421C134.397 346.262 135.333 338.055 135.334 332.823C135.335 327.591 139.685 315.915 145.798 316.907C151.912 317.898 159.911 323.027 166.451 325.113C172.992 327.199 190.519 330.014 197.899 329.904C205.279 329.794 218.828 328.638 228.135 326.324C237.443 324.011 249.838 319.648 250.275 321.368C250.713 323.087 249.533 357.666 248.348 358.929C247.163 360.191 233.82 367.026 228.334 368.98C222.848 370.935 206.491 373.413 197.899 374.515C189.307 375.616 163.092 373.634 156.483 370.439C149.903 367.259 145.014 360.639 139.753 353.515M139.684 353.421L139.753 353.515M139.684 353.421C139.707 353.452 139.73 353.484 139.753 353.515M428.737 316.385C428.626 314.373 444.403 321.233 454.332 322.781C464.261 324.329 476.007 326.796 488.693 324.916C501.379 323.037 516.942 318.514 525.869 313.64C534.796 308.766 538.085 304.772 540.082 304.067C542.079 303.362 549.42 317.752 549.361 327.442C549.303 337.132 546.601 345.472 543.841 350.64C541.08 355.809 529.217 364.794 521.464 365.793C513.712 366.791 505.96 367.671 495.095 367.789C484.229 367.906 470.839 366.894 462.558 365.793C454.277 364.691 439.929 360.617 438.596 359.156C437.263 357.695 428.847 318.397 428.737 316.385Z" stroke="black" stroke-width="3" stroke-linecap="round"/>
</svg>
