<svg width="700" height="901" viewBox="0 0 700 901" fill="none" xmlns="http://www.w3.org/2000/svg">
<path d="M419.687 224.444C417.525 221.941 407.621 231.505 407.621 231.505L357.786 323.041C368.842 325.925 396.014 323.041 396.014 323.041C396.014 323.041 401.905 312.022 406.257 292.741C410.609 273.459 414.707 268.303 415.487 266.99C417.185 264.13 419.687 260.197 421.207 254.655C422.726 249.113 423.29 241.894 423.084 236.779C422.878 231.664 421.85 226.947 419.687 224.444Z" fill="#272727"/>
<path d="M306.619 270.297C297.344 280.264 293.343 287.738 292.141 295.378C289.6 311.539 299.518 323.102 306.619 323.041C317.076 322.952 348.132 321.522 357.786 323.041L407.621 231.505C407.621 231.505 400.649 205.763 398.541 199.457C396.432 193.15 391.532 180.826 389.029 175.999C386.527 171.172 383.156 167.608 380.449 167.239C377.742 166.871 375.98 168.312 374.271 171.823C372.562 175.333 367.935 196.557 360.606 210.59C353.277 224.623 345.412 232.758 338.26 241.337C331.109 249.917 306.619 270.297 306.619 270.297Z" fill="#3D3D3D"/>
<path d="M306.619 323.041L306.632 324.541L306.619 323.041ZM306.619 270.297L305.66 269.144L305.586 269.205L305.521 269.275L306.619 270.297ZM415.487 266.99L414.197 266.224L415.487 266.99ZM396.014 323.041L396.172 324.533L396.962 324.449L397.337 323.749L396.014 323.041ZM292.141 295.378L293.623 295.611L292.141 295.378ZM306.619 270.297C307.579 271.45 307.579 271.45 307.579 271.45C307.579 271.45 307.58 271.449 307.58 271.449C307.581 271.448 307.582 271.447 307.583 271.446C307.586 271.443 307.591 271.44 307.597 271.435C307.609 271.425 307.627 271.41 307.65 271.39C307.697 271.351 307.767 271.293 307.858 271.217C308.04 271.065 308.307 270.841 308.65 270.553C309.336 269.978 310.322 269.146 311.528 268.122C313.941 266.073 317.232 263.252 320.748 260.161C327.743 254.013 335.748 246.694 339.413 242.298L337.108 240.377C333.621 244.56 325.806 251.721 318.768 257.908C315.268 260.984 311.99 263.794 309.587 265.835C308.385 266.856 307.403 267.683 306.721 268.256C306.38 268.542 306.114 268.764 305.934 268.915C305.844 268.99 305.775 269.048 305.729 269.086C305.706 269.106 305.688 269.12 305.677 269.13C305.671 269.135 305.667 269.138 305.664 269.141C305.662 269.142 305.661 269.143 305.661 269.143C305.66 269.144 305.66 269.144 305.66 269.144C305.66 269.144 305.66 269.144 306.619 270.297ZM339.413 242.298C346.508 233.786 354.512 225.497 361.935 211.284L359.276 209.895C352.041 223.748 344.316 231.73 337.108 240.377L339.413 242.298ZM361.935 211.284C365.668 204.137 368.69 195.21 370.981 187.698C372.127 183.937 373.101 180.496 373.885 177.808C374.692 175.041 375.262 173.213 375.619 172.479L372.922 171.166C372.425 172.188 371.775 174.328 371.005 176.967C370.212 179.685 369.251 183.085 368.111 186.823C365.829 194.308 362.873 203.01 359.276 209.895L361.935 211.284ZM375.619 172.479C376.436 170.801 377.178 169.813 377.892 169.272C378.534 168.784 379.242 168.589 380.247 168.726L380.651 165.753C378.948 165.522 377.422 165.863 376.079 166.882C374.808 167.846 373.814 169.334 372.922 171.166L375.619 172.479ZM380.247 168.726C381.1 168.842 382.325 169.534 383.739 170.992C385.111 172.406 386.499 174.377 387.698 176.69L390.361 175.309C389.057 172.795 387.509 170.57 385.893 168.903C384.318 167.28 382.504 166.005 380.651 165.753L380.247 168.726ZM387.698 176.69C390.15 181.419 395.022 193.663 397.118 199.932L399.963 198.981C397.843 192.638 392.914 180.232 390.361 175.309L387.698 176.69ZM397.118 199.932C398.157 203.04 400.415 211.007 402.426 218.247C403.429 221.857 404.365 225.269 405.052 227.78C405.395 229.035 405.675 230.065 405.87 230.78C405.967 231.138 406.043 231.418 406.094 231.607C406.12 231.702 406.14 231.775 406.153 231.824C406.16 231.848 406.165 231.866 406.168 231.879C406.17 231.885 406.171 231.89 406.172 231.893C406.172 231.894 406.173 231.895 406.173 231.896C406.173 231.897 406.173 231.897 406.173 231.897C406.173 231.897 406.173 231.897 407.621 231.505C409.069 231.113 409.069 231.113 409.069 231.113C409.069 231.113 409.069 231.112 409.068 231.112C409.068 231.111 409.068 231.11 409.067 231.108C409.067 231.105 409.065 231.1 409.064 231.094C409.06 231.082 409.055 231.063 409.049 231.039C409.035 230.99 409.016 230.917 408.99 230.822C408.938 230.631 408.862 230.352 408.765 229.993C408.57 229.276 408.289 228.246 407.946 226.989C407.259 224.476 406.321 221.059 405.317 217.444C403.315 210.238 401.033 202.18 399.963 198.981L397.118 199.932ZM407.621 231.505C408.663 232.584 408.663 232.584 408.663 232.584C408.663 232.584 408.663 232.584 408.663 232.584C408.663 232.584 408.663 232.584 408.664 232.583C408.664 232.583 408.666 232.581 408.668 232.579C408.672 232.575 408.678 232.569 408.687 232.561C408.705 232.544 408.731 232.519 408.766 232.486C408.836 232.419 408.94 232.321 409.074 232.196C409.342 231.946 409.729 231.59 410.2 231.17C411.146 230.327 412.419 229.238 413.748 228.232C415.097 227.212 416.426 226.336 417.496 225.864C418.038 225.624 418.406 225.537 418.617 225.527C418.795 225.519 418.674 225.565 418.552 225.425L420.823 223.463C420.161 222.697 419.257 222.495 418.479 222.53C417.735 222.565 416.975 222.814 416.284 223.119C414.888 223.736 413.336 224.782 411.938 225.84C410.522 226.912 409.183 228.058 408.204 228.93C407.713 229.368 407.309 229.739 407.027 230.002C406.886 230.134 406.776 230.239 406.699 230.311C406.661 230.347 406.632 230.375 406.612 230.395C406.601 230.404 406.594 230.412 406.588 230.417C406.585 230.42 406.583 230.422 406.582 230.423C406.581 230.424 406.58 230.425 406.58 230.425C406.58 230.425 406.579 230.426 406.579 230.426C406.579 230.426 406.579 230.426 407.621 231.505ZM418.552 225.425C419.422 226.432 420.143 227.989 420.668 230.009C421.187 232.009 421.485 234.356 421.585 236.839L424.583 236.718C424.477 234.087 424.158 231.518 423.571 229.255C422.989 227.012 422.115 224.959 420.823 223.463L418.552 225.425ZM421.585 236.839C421.786 241.836 421.231 248.897 419.76 254.259L422.654 255.052C424.222 249.33 424.793 241.952 424.583 236.718L421.585 236.839ZM419.76 254.259C418.303 259.573 415.912 263.336 414.197 266.224L416.776 267.756C418.458 264.923 421.072 260.82 422.654 255.052L419.76 254.259ZM359.103 323.759L408.938 232.222L406.303 230.788L356.468 322.324L359.103 323.759ZM306.632 324.541C311.848 324.497 322.321 324.115 332.53 323.938C342.856 323.758 352.883 323.788 357.552 324.523L358.019 321.56C353.034 320.775 342.708 320.76 332.478 320.938C322.131 321.118 311.847 321.497 306.606 321.542L306.632 324.541ZM357.407 324.493C363.188 326.001 372.969 325.981 381.112 325.621C385.224 325.44 388.986 325.168 391.719 324.942C393.086 324.829 394.197 324.727 394.968 324.653C395.353 324.616 395.653 324.586 395.857 324.566C395.959 324.555 396.037 324.547 396.09 324.542C396.117 324.539 396.137 324.537 396.151 324.535C396.157 324.535 396.163 324.534 396.166 324.534C396.168 324.534 396.169 324.533 396.17 324.533C396.171 324.533 396.171 324.533 396.172 324.533C396.172 324.533 396.172 324.533 396.014 323.041C395.855 321.55 395.856 321.55 395.855 321.55C395.855 321.55 395.855 321.55 395.855 321.55C395.854 321.55 395.853 321.55 395.851 321.55C395.848 321.551 395.844 321.551 395.838 321.552C395.825 321.553 395.806 321.555 395.781 321.558C395.73 321.563 395.654 321.571 395.555 321.581C395.356 321.601 395.061 321.63 394.682 321.667C393.923 321.739 392.825 321.84 391.472 321.952C388.765 322.176 385.043 322.445 380.98 322.624C372.772 322.986 363.439 322.966 358.164 321.59L357.407 324.493ZM414.197 266.224C413.852 266.805 412.55 268.553 410.834 272.533C409.123 276.5 406.985 282.702 404.793 292.41L407.72 293.071C409.88 283.499 411.967 277.481 413.589 273.721C415.204 269.975 416.341 268.488 416.776 267.756L414.197 266.224ZM404.793 292.41C402.636 301.969 400.099 309.473 398.106 314.576C397.11 317.127 396.25 319.079 395.642 320.386C395.338 321.04 395.097 321.533 394.934 321.859C394.852 322.022 394.79 322.144 394.749 322.224C394.728 322.263 394.713 322.292 394.703 322.311C394.698 322.32 394.695 322.327 394.693 322.331C394.692 322.333 394.691 322.334 394.691 322.335C394.691 322.335 394.691 322.335 394.691 322.335C394.691 322.335 394.691 322.335 394.691 322.335C394.691 322.335 394.691 322.334 396.014 323.041C397.337 323.749 397.337 323.748 397.337 323.748C397.337 323.748 397.337 323.747 397.338 323.747C397.338 323.746 397.338 323.745 397.339 323.744C397.34 323.742 397.341 323.74 397.343 323.736C397.347 323.729 397.352 323.72 397.358 323.708C397.371 323.683 397.39 323.648 397.413 323.602C397.461 323.511 397.529 323.377 397.617 323.201C397.793 322.85 398.046 322.331 398.362 321.651C398.995 320.29 399.88 318.281 400.9 315.667C402.941 310.44 405.525 302.793 407.72 293.071L404.793 292.41ZM305.521 269.275C296.142 279.354 291.926 287.092 290.659 295.145L293.623 295.611C294.759 288.384 298.546 281.175 307.717 271.319L305.521 269.275ZM290.659 295.145C289.333 303.583 291.252 310.877 294.49 316.085C297.67 321.198 302.331 324.578 306.632 324.541L306.606 321.542C303.805 321.565 299.957 319.195 297.038 314.501C294.178 309.902 292.408 303.334 293.623 295.611L290.659 295.145Z" fill="black"/>
</svg>
