<svg width="701" height="901" viewBox="0 0 701 901" fill="none" xmlns="http://www.w3.org/2000/svg">
<path d="M232.087 304.266C240.033 320.17 248.623 318.698 252.304 320.415C255.986 322.133 274.582 320.257 282.246 317.47C286.77 315.826 305.079 312.562 309.733 304.266C314.387 295.969 318.323 291.612 313.264 272.814C313.264 272.814 309.493 264.457 307.025 261.41C304.557 258.363 298.557 252.413 293.225 249.911C287.893 247.41 279.769 245.93 269.052 246.724C258.335 247.518 247.221 254.265 241.355 260.347C235.489 266.43 230.172 272.225 229.369 284.216C228.566 296.207 232.087 304.266 232.087 304.266Z" fill="white"/>
<path d="M394.915 273.475C388.514 291.612 391.949 297.837 398.576 306.917C405.202 315.998 413.198 318.327 420.173 320.415C435.357 324.962 449.133 325.324 455.023 322.624C460.913 319.925 467.785 320.415 479.009 302.19C479.009 302.19 481.208 296.882 480.763 291.612C480.318 286.341 477.517 278.722 474.563 273.475C471.609 268.227 466.05 261.104 460.391 257.265C454.731 253.426 441.099 248.111 433.646 248.155C426.193 248.198 416.973 249.911 408.538 254.974C400.102 260.037 394.915 273.475 394.915 273.475Z" fill="white"/>
<path d="M232.087 304.266C240.033 320.17 248.623 318.698 252.304 320.415C255.986 322.133 274.582 320.257 282.246 317.47C286.77 315.826 305.079 312.562 309.733 304.266C314.387 295.969 318.323 291.612 313.264 272.814C313.264 272.814 309.493 264.457 307.025 261.41C304.557 258.363 298.557 252.413 293.225 249.911C287.893 247.41 279.769 245.93 269.052 246.724C258.335 247.518 247.221 254.265 241.355 260.347C235.489 266.43 230.172 272.225 229.369 284.216C228.566 296.207 232.087 304.266 232.087 304.266Z" stroke="black" stroke-width="3" stroke-linecap="round"/>
<path d="M394.915 273.475C388.514 291.612 391.949 297.837 398.576 306.917C405.202 315.998 413.198 318.327 420.173 320.415C435.357 324.962 449.133 325.324 455.023 322.624C460.913 319.925 467.785 320.415 479.009 302.19C479.009 302.19 481.208 296.882 480.763 291.612C480.318 286.341 477.517 278.722 474.563 273.475C471.609 268.227 466.05 261.104 460.391 257.265C454.731 253.426 441.099 248.111 433.646 248.155C426.193 248.198 416.973 249.911 408.538 254.974C400.102 260.037 394.915 273.475 394.915 273.475Z" stroke="black" stroke-width="3" stroke-linecap="round"/>
</svg>
