<svg width="701" height="901" viewBox="0 0 701 901" fill="none" xmlns="http://www.w3.org/2000/svg">
<path d="M246.243 345.962C246.243 345.962 267.523 324.946 273.703 319.253C279.884 313.561 295.433 299.696 295.433 299.696L262.305 269.169C262.305 269.169 242.291 255.205 236.933 252.954C231.576 250.702 212.652 240.012 209.589 243.01C206.526 246.009 210.053 265.071 211.859 274.231C212.788 278.946 224.601 306.213 229.55 316.072C234.499 325.931 246.243 345.962 246.243 345.962Z" fill="#AB829A"/>
<path d="M289.326 255.426C289.326 255.426 267.35 241.465 257.881 236.444C248.412 231.424 216.263 218.872 205.297 218.079C194.331 217.287 186.976 219.269 185.259 230.102C183.541 240.936 182.396 257.187 183.233 266.392C184.07 275.596 188.738 299.818 190.632 305.852C192.525 311.885 203.374 348.162 203.374 348.162C203.374 348.162 213.577 378.821 216.073 374.383C217.52 371.811 246.243 345.962 246.243 345.962C246.243 345.962 234.499 325.931 229.55 316.072C224.601 306.213 212.788 278.946 211.859 274.231C210.053 265.071 206.526 246.009 209.589 243.01C212.652 240.012 231.576 250.702 236.933 252.954C242.291 255.205 262.305 269.169 262.305 269.169L295.433 299.696C295.433 299.696 311.435 283.636 314.672 279.261C317.908 274.885 289.326 255.426 289.326 255.426Z" fill="#1B171E"/>
<path d="M455.743 247.705C450.038 251.748 434.878 263.67 433.213 264.891C431.548 266.111 417.953 277.494 411.185 283.95C404.417 290.406 390.568 305.505 390.568 305.505C390.568 305.505 414.873 323.319 419.183 326.653C423.493 329.988 448.214 346.007 448.214 346.007C448.214 346.007 458.361 333.586 462.282 327.629C466.204 321.673 475.817 299.696 475.817 299.696C475.817 299.696 482.244 281.138 483.761 269.368C485.277 257.597 488.454 237.162 484.338 233.985C480.222 230.807 461.447 243.661 455.743 247.705Z" fill="#AB829A"/>
<path d="M498.564 340.206C501.701 330.762 507.229 307.639 509.323 293.558C511.417 279.477 513.295 246.983 511.85 236.801C510.406 226.619 506.29 208.856 502.246 206.617C498.203 204.378 473.073 214.199 473.073 214.199C473.073 214.199 447.728 224.236 437.401 231.096C427.075 237.956 411.641 248.283 405.53 253.413C399.419 258.543 367.139 288.22 370.679 292.177C374.22 296.133 390.568 305.505 390.568 305.505C390.568 305.505 404.417 290.406 411.185 283.95C417.953 277.494 431.548 266.111 433.213 264.891C434.878 263.67 450.038 251.748 455.743 247.705C461.447 243.661 480.222 230.807 484.338 233.985C488.454 237.162 485.277 257.597 483.761 269.368C482.244 281.138 475.817 299.696 475.817 299.696C475.817 299.696 466.204 321.673 462.282 327.629C458.361 333.586 448.214 346.007 448.214 346.007C448.214 346.007 480.271 371.007 482.305 371.939C484.338 372.87 495.426 349.65 498.564 340.206Z" fill="#1B171E"/>
<path d="M203.374 348.162L201.937 348.592L201.944 348.614L201.951 348.635L203.374 348.162ZM289.326 255.426L290.17 254.186L290.15 254.172L290.13 254.16L289.326 255.426ZM473.073 214.199L472.527 212.802L472.521 212.804L473.073 214.199ZM246.243 345.962L247.246 347.077L247.272 347.054L247.297 347.029L246.243 345.962ZM211.859 274.231L213.331 273.941L211.859 274.231ZM262.305 269.169L263.322 268.066L263.247 267.997L263.163 267.939L262.305 269.169ZM475.817 299.696L477.192 300.297L477.215 300.243L477.235 300.187L475.817 299.696ZM216.073 374.383L214.766 373.648L216.073 374.383ZM295.433 299.696L296.431 300.816L296.464 300.786L296.495 300.755L295.433 299.696ZM499.987 340.679C503.155 331.144 508.701 307.936 510.807 293.779L507.839 293.338C505.757 307.343 500.247 330.38 497.14 339.733L499.987 340.679ZM510.807 293.779C511.864 286.668 512.86 274.969 513.412 263.791C513.961 252.657 514.081 241.846 513.336 236.59L510.365 237.012C511.064 241.938 510.967 252.465 510.415 263.643C509.866 274.778 508.876 286.367 507.839 293.338L510.807 293.779ZM513.336 236.59C512.605 231.441 511.202 224.386 509.465 218.318C508.598 215.287 507.636 212.458 506.614 210.223C506.104 209.105 505.563 208.1 504.991 207.281C504.434 206.482 503.769 205.745 502.973 205.305L501.52 207.929C501.735 208.048 502.083 208.356 502.531 208.997C502.963 209.617 503.419 210.447 503.886 211.469C504.819 213.512 505.733 216.18 506.581 219.143C508.275 225.062 509.652 231.98 510.365 237.012L513.336 236.59ZM502.973 205.305C502.07 204.805 500.859 204.746 499.756 204.802C498.573 204.862 497.175 205.078 495.678 205.388C492.676 206.01 489.097 207.047 485.686 208.14C482.266 209.236 478.978 210.401 476.547 211.291C475.331 211.736 474.328 212.113 473.628 212.379C473.278 212.512 473.004 212.617 472.817 212.69C472.723 212.726 472.651 212.754 472.603 212.773C472.578 212.782 472.56 212.789 472.547 212.794C472.541 212.797 472.536 212.798 472.533 212.8C472.531 212.8 472.53 212.801 472.529 212.801C472.528 212.801 472.528 212.802 472.528 212.802C472.528 212.802 472.527 212.802 473.073 214.199C473.619 215.596 473.619 215.596 473.619 215.596C473.62 215.596 473.62 215.596 473.62 215.596C473.621 215.595 473.622 215.595 473.623 215.594C473.626 215.593 473.63 215.592 473.636 215.589C473.648 215.585 473.665 215.578 473.689 215.569C473.735 215.551 473.805 215.524 473.896 215.489C474.079 215.418 474.349 215.315 474.694 215.183C475.384 214.921 476.376 214.548 477.579 214.108C479.986 213.227 483.233 212.076 486.601 210.997C489.977 209.915 493.439 208.916 496.286 208.326C497.713 208.03 498.943 207.847 499.908 207.798C500.953 207.745 501.412 207.87 501.52 207.929L502.973 205.305ZM473.073 214.199C472.521 212.804 472.521 212.804 472.521 212.804C472.52 212.805 472.52 212.805 472.52 212.805C472.519 212.805 472.518 212.806 472.516 212.806C472.513 212.808 472.508 212.809 472.502 212.812C472.489 212.817 472.47 212.824 472.446 212.834C472.397 212.854 472.324 212.882 472.23 212.92C472.04 212.996 471.761 213.108 471.403 213.253C470.686 213.542 469.652 213.962 468.379 214.488C465.834 215.539 462.331 217.013 458.504 218.703C450.887 222.065 441.856 226.336 436.571 229.847L438.231 232.346C443.273 228.996 452.078 224.819 459.715 221.447C463.515 219.77 466.995 218.306 469.524 217.261C470.789 216.738 471.816 216.321 472.526 216.035C472.88 215.891 473.156 215.781 473.343 215.706C473.436 215.669 473.507 215.641 473.555 215.622C473.579 215.612 473.596 215.605 473.608 215.6C473.614 215.598 473.619 215.596 473.622 215.595C473.623 215.595 473.624 215.594 473.625 215.594C473.625 215.594 473.625 215.594 473.626 215.594C473.626 215.594 473.626 215.594 473.073 214.199ZM436.571 229.847C426.284 236.681 410.758 247.066 404.565 252.264L406.494 254.562C412.524 249.501 427.866 239.232 438.231 232.346L436.571 229.847ZM289.326 255.426C290.13 254.16 290.13 254.16 290.13 254.159C290.13 254.159 290.13 254.159 290.129 254.159C290.129 254.158 290.127 254.158 290.126 254.157C290.123 254.155 290.119 254.153 290.114 254.149C290.103 254.142 290.087 254.132 290.066 254.119C290.024 254.092 289.962 254.053 289.88 254.001C289.716 253.897 289.475 253.744 289.165 253.548C288.544 253.156 287.648 252.59 286.542 251.896C284.332 250.507 281.285 248.603 277.942 246.541C271.27 242.427 263.368 237.656 258.584 235.119L257.178 237.77C261.863 240.253 269.683 244.973 276.367 249.094C279.701 251.151 282.741 253.05 284.946 254.436C286.049 255.129 286.943 255.693 287.562 256.084C287.871 256.279 288.111 256.431 288.274 256.535C288.355 256.586 288.417 256.626 288.459 256.652C288.48 256.665 288.496 256.675 288.506 256.682C288.511 256.685 288.515 256.688 288.518 256.689C288.519 256.69 288.52 256.691 288.521 256.691C288.521 256.691 288.521 256.692 288.521 256.692C288.522 256.692 288.522 256.692 289.326 255.426ZM258.584 235.119C253.757 232.559 243.274 228.138 232.665 224.267C227.349 222.328 221.973 220.516 217.227 219.137C212.511 217.767 208.316 216.794 205.405 216.583L205.189 219.576C207.761 219.762 211.697 220.654 216.39 222.018C221.051 223.372 226.361 225.161 231.636 227.086C242.21 230.944 252.537 235.308 257.178 237.77L258.584 235.119ZM205.405 216.583C199.873 216.183 194.938 216.447 191.127 218.395C187.178 220.414 184.692 224.097 183.777 229.868L186.74 230.337C187.543 225.274 189.593 222.549 192.492 221.067C195.53 219.514 199.755 219.183 205.189 219.576L205.405 216.583ZM183.777 229.868C182.05 240.765 180.887 257.151 181.739 266.528L184.727 266.256C183.906 257.223 185.033 241.108 186.74 230.337L183.777 229.868ZM181.739 266.528C182.165 271.209 183.554 279.629 185.062 287.59C186.568 295.535 188.223 303.186 189.201 306.301L192.063 305.403C191.147 302.484 189.521 295.007 188.01 287.032C186.502 279.073 185.138 270.779 184.727 266.256L181.739 266.528ZM189.201 306.301C190.144 309.306 193.326 319.871 196.277 329.701C197.751 334.612 199.166 339.335 200.213 342.83C200.736 344.577 201.167 346.018 201.467 347.021C201.618 347.523 201.735 347.916 201.815 348.183C201.855 348.316 201.886 348.419 201.906 348.487C201.916 348.522 201.924 348.548 201.929 348.565C201.932 348.574 201.934 348.581 201.935 348.585C201.936 348.587 201.936 348.589 201.937 348.59C201.937 348.59 201.937 348.591 201.937 348.591C201.937 348.591 201.937 348.592 203.374 348.162C204.811 347.732 204.811 347.732 204.811 347.732C204.811 347.731 204.811 347.731 204.811 347.73C204.811 347.729 204.81 347.728 204.809 347.725C204.808 347.721 204.806 347.714 204.804 347.706C204.798 347.688 204.791 347.662 204.78 347.628C204.76 347.559 204.729 347.457 204.689 347.323C204.609 347.056 204.492 346.663 204.342 346.161C204.041 345.157 203.61 343.717 203.087 341.969C202.04 338.474 200.624 333.75 199.15 328.838C196.203 319.021 193.013 308.431 192.063 305.403L189.201 306.301ZM246.243 345.962C247.297 347.029 247.297 347.029 247.297 347.029C247.297 347.029 247.298 347.029 247.298 347.029C247.299 347.028 247.3 347.027 247.301 347.026C247.303 347.023 247.307 347.019 247.312 347.014C247.323 347.004 247.338 346.989 247.358 346.969C247.399 346.929 247.459 346.87 247.537 346.792C247.694 346.637 247.926 346.409 248.223 346.116C248.816 345.531 249.672 344.688 250.717 343.658C252.808 341.6 255.66 338.796 258.705 335.814C264.804 329.842 271.65 323.184 274.72 320.357L272.687 318.15C269.576 321.015 262.692 327.711 256.606 333.671C253.559 336.655 250.704 339.461 248.612 341.521C247.566 342.551 246.71 343.394 246.116 343.98C245.819 344.273 245.587 344.502 245.43 344.657C245.351 344.735 245.291 344.794 245.25 344.834C245.23 344.854 245.215 344.87 245.205 344.88C245.199 344.885 245.196 344.889 245.193 344.891C245.192 344.892 245.191 344.893 245.19 344.894C245.19 344.894 245.189 344.895 245.189 344.895C245.189 344.895 245.189 344.895 246.243 345.962ZM213.331 273.941C212.428 269.363 211.106 262.359 210.389 256.138C210.029 253.022 209.829 250.155 209.897 247.911C209.931 246.787 210.032 245.87 210.194 245.178C210.365 244.448 210.561 244.158 210.638 244.082L208.54 241.938C207.852 242.612 207.488 243.574 207.273 244.495C207.048 245.456 206.936 246.592 206.898 247.819C206.823 250.279 207.043 253.313 207.408 256.482C208.14 262.832 209.484 269.938 210.387 274.521L213.331 273.941ZM210.638 244.082C210.59 244.13 210.715 243.976 211.406 243.984C212.046 243.992 212.92 244.137 214.011 244.431C216.182 245.015 218.915 246.101 221.79 247.383C224.652 248.659 227.591 250.101 230.167 251.373C232.714 252.631 234.958 253.75 236.352 254.336L237.515 251.571C236.23 251.031 234.1 249.97 231.496 248.683C228.921 247.412 225.933 245.946 223.012 244.643C220.103 243.346 217.196 242.181 214.79 241.534C213.593 241.211 212.443 240.996 211.441 240.984C210.49 240.973 209.354 241.141 208.54 241.938L210.638 244.082ZM236.352 254.336C237.567 254.847 239.727 256.08 242.369 257.713C244.979 259.326 247.967 261.273 250.798 263.155C253.627 265.036 256.29 266.847 258.246 268.189C259.224 268.86 260.025 269.413 260.581 269.798C260.859 269.99 261.076 270.141 261.223 270.243C261.296 270.294 261.353 270.333 261.39 270.36C261.409 270.373 261.423 270.383 261.433 270.389C261.437 270.393 261.441 270.395 261.443 270.397C261.445 270.398 261.445 270.398 261.446 270.399C261.446 270.399 261.446 270.399 261.447 270.399C261.447 270.399 261.447 270.399 262.305 269.169C263.163 267.939 263.163 267.939 263.163 267.939C263.163 267.938 263.163 267.938 263.162 267.938C263.162 267.938 263.161 267.937 263.159 267.936C263.157 267.934 263.153 267.932 263.148 267.928C263.139 267.921 263.124 267.911 263.105 267.898C263.066 267.871 263.01 267.832 262.935 267.78C262.787 267.677 262.568 267.525 262.289 267.331C261.729 266.944 260.925 266.389 259.943 265.715C257.979 264.368 255.303 262.548 252.459 260.657C249.616 258.766 246.597 256.8 243.947 255.161C241.33 253.543 238.978 252.186 237.515 251.571L236.352 254.336ZM434.1 266.101C434.952 265.476 439.195 262.162 443.88 258.544C448.599 254.9 453.788 250.929 456.61 248.928L454.875 246.481C451.993 248.524 446.75 252.536 442.046 256.169C437.309 259.828 433.139 263.085 432.327 263.681L434.1 266.101ZM456.61 248.928C459.452 246.914 465.52 242.727 471.37 239.445C474.304 237.799 477.12 236.417 479.417 235.64C480.568 235.251 481.52 235.037 482.252 234.993C483.008 234.948 483.321 235.094 483.422 235.172L485.255 232.797C484.327 232.081 483.152 231.934 482.072 231.999C480.966 232.065 479.732 232.367 478.455 232.798C475.896 233.664 472.89 235.152 469.902 236.828C463.91 240.19 457.739 244.451 454.875 246.481L456.61 248.928ZM483.422 235.172C483.605 235.313 483.879 235.664 484.139 236.421C484.391 237.157 484.583 238.137 484.705 239.349C484.95 241.771 484.898 244.892 484.665 248.353C484.2 255.271 483.036 263.251 482.273 269.176L485.248 269.559C486.001 263.714 487.185 255.592 487.658 248.554C487.895 245.038 487.96 241.719 487.69 239.048C487.555 237.713 487.332 236.483 486.976 235.447C486.628 234.433 486.101 233.45 485.255 232.797L483.422 235.172ZM482.273 269.176C481.531 274.936 479.574 282.422 477.781 288.523C476.888 291.561 476.042 294.235 475.419 296.148C475.108 297.105 474.852 297.871 474.675 298.397C474.586 298.66 474.517 298.863 474.471 299C474.447 299.068 474.429 299.12 474.418 299.154C474.412 299.172 474.407 299.185 474.404 299.193C474.403 299.197 474.402 299.201 474.401 299.203C474.401 299.204 474.4 299.204 474.4 299.205C474.4 299.205 474.4 299.205 474.4 299.205C474.4 299.205 474.4 299.205 475.817 299.696C477.235 300.187 477.235 300.187 477.235 300.187C477.235 300.186 477.235 300.186 477.235 300.186C477.235 300.185 477.236 300.184 477.236 300.183C477.237 300.18 477.238 300.177 477.24 300.172C477.243 300.163 477.248 300.149 477.254 300.131C477.267 300.094 477.285 300.04 477.309 299.97C477.357 299.829 477.428 299.622 477.518 299.355C477.698 298.82 477.957 298.044 478.272 297.077C478.901 295.143 479.756 292.441 480.659 289.369C482.459 283.248 484.474 275.57 485.248 269.559L482.273 269.176ZM203.374 348.162C201.951 348.635 201.951 348.636 201.951 348.636C201.951 348.636 201.951 348.637 201.952 348.637C201.952 348.638 201.953 348.64 201.953 348.642C201.954 348.646 201.956 348.651 201.959 348.659C201.964 348.674 201.971 348.697 201.981 348.726C202.001 348.785 202.03 348.872 202.068 348.984C202.144 349.21 202.256 349.539 202.398 349.956C202.684 350.79 203.094 351.976 203.594 353.385C204.593 356.2 205.954 359.915 207.396 363.497C208.83 367.059 210.373 370.562 211.739 372.912C212.396 374.043 213.118 375.098 213.875 375.703C214.246 375.999 214.869 376.385 215.655 376.314C216.539 376.233 217.088 375.639 217.381 375.118L214.766 373.648C214.747 373.682 214.923 373.368 215.384 373.326C215.745 373.293 215.893 373.476 215.747 373.358C215.468 373.136 214.983 372.523 214.333 371.405C213.084 369.255 211.608 365.925 210.179 362.377C208.759 358.848 207.413 355.176 206.421 352.381C205.926 350.985 205.519 349.81 205.237 348.985C205.096 348.572 204.986 348.247 204.911 348.026C204.874 347.915 204.845 347.83 204.826 347.773C204.817 347.745 204.809 347.723 204.805 347.709C204.802 347.702 204.8 347.697 204.799 347.693C204.799 347.691 204.798 347.69 204.798 347.689C204.798 347.689 204.798 347.689 204.798 347.688C204.798 347.688 204.798 347.688 203.374 348.162ZM315.877 280.153C316.82 278.878 316.376 277.363 315.855 276.313C315.29 275.175 314.328 273.934 313.185 272.68C310.88 270.152 307.536 267.25 304.151 264.533C300.753 261.805 297.259 259.219 294.618 257.317C293.296 256.366 292.186 255.584 291.406 255.04C291.016 254.768 290.708 254.555 290.497 254.41C290.391 254.337 290.31 254.282 290.255 254.244C290.228 254.225 290.207 254.211 290.192 254.201C290.185 254.196 290.18 254.192 290.176 254.19C290.174 254.189 290.173 254.188 290.172 254.187C290.171 254.187 290.171 254.186 290.171 254.186C290.17 254.186 290.17 254.186 289.326 255.426C288.482 256.666 288.482 256.666 288.482 256.666C288.482 256.666 288.482 256.666 288.483 256.666C288.483 256.667 288.485 256.668 288.486 256.669C288.489 256.671 288.494 256.674 288.501 256.679C288.514 256.688 288.534 256.701 288.561 256.719C288.613 256.756 288.692 256.81 288.795 256.881C289.002 257.023 289.305 257.232 289.69 257.501C290.46 258.038 291.557 258.811 292.865 259.752C295.482 261.636 298.931 264.189 302.273 266.872C305.629 269.566 308.824 272.35 310.968 274.701C312.049 275.887 312.789 276.884 313.168 277.647C313.591 278.499 313.332 278.549 313.466 278.369L315.877 280.153ZM448.214 346.007C447.292 347.19 447.292 347.19 447.292 347.191C447.292 347.191 447.293 347.191 447.293 347.191C447.294 347.192 447.296 347.193 447.298 347.195C447.302 347.198 447.307 347.202 447.315 347.208C447.331 347.221 447.354 347.239 447.384 347.262C447.445 347.31 447.535 347.38 447.653 347.472C447.888 347.655 448.234 347.924 448.674 348.267C449.555 348.953 450.816 349.933 452.335 351.113C455.373 353.472 459.445 356.627 463.582 359.812C467.717 362.996 471.92 366.213 475.219 368.693C476.867 369.932 478.295 370.992 479.378 371.773C479.919 372.164 480.382 372.49 480.746 372.736C481.071 372.956 481.42 373.183 481.68 373.302L482.929 370.575C482.935 370.578 482.795 370.5 482.427 370.251C482.099 370.029 481.664 369.723 481.133 369.34C480.074 368.576 478.664 367.53 477.021 366.295C473.737 363.825 469.545 360.617 465.412 357.435C461.28 354.254 457.211 351.101 454.175 348.743C452.657 347.565 451.397 346.585 450.517 345.9C450.077 345.557 449.732 345.288 449.497 345.105C449.379 345.014 449.289 344.943 449.228 344.896C449.198 344.873 449.175 344.855 449.16 344.843C449.152 344.837 449.146 344.832 449.142 344.829C449.141 344.828 449.139 344.826 449.138 344.826C449.138 344.825 449.137 344.825 449.137 344.825C449.137 344.825 449.137 344.825 448.214 346.007ZM481.68 373.302C482.519 373.687 483.27 373.307 483.584 373.111C483.954 372.879 484.29 372.551 484.577 372.229C485.167 371.569 485.833 370.615 486.533 369.498C487.946 367.243 489.646 364.083 491.363 360.632C494.795 353.735 498.387 345.498 499.987 340.679L497.14 339.733C495.604 344.359 492.082 352.453 488.677 359.295C486.976 362.713 485.327 365.773 483.991 367.905C483.316 368.981 482.758 369.763 482.34 370.231C482.239 370.343 482.156 370.427 482.091 370.486C482.024 370.548 481.991 370.569 481.992 370.568C481.994 370.567 482.012 370.555 482.045 370.541C482.078 370.526 482.135 370.505 482.214 370.488C482.379 370.453 482.644 370.444 482.929 370.575L481.68 373.302ZM404.565 252.264C401.468 254.864 391.835 263.599 383.414 272.184C379.208 276.473 375.262 280.766 372.582 284.259C371.25 285.994 370.175 287.603 369.549 288.955C369.238 289.627 368.995 290.324 368.928 290.997C368.86 291.679 368.962 292.507 369.561 293.177L371.797 291.176C371.954 291.352 371.894 291.484 371.913 291.294C371.933 291.095 372.026 290.744 372.271 290.216C372.756 289.168 373.67 287.768 374.962 286.085C377.529 282.74 381.372 278.551 385.556 274.285C393.918 265.76 403.48 257.092 406.494 254.562L404.565 252.264ZM217.381 375.118C217.372 375.134 217.391 375.099 217.471 374.996C217.544 374.903 217.645 374.781 217.778 374.629C218.045 374.325 218.408 373.935 218.862 373.467C219.768 372.533 220.994 371.326 222.437 369.938C225.322 367.164 229.039 363.701 232.717 360.311C236.394 356.923 240.027 353.614 242.74 351.152C244.097 349.921 245.224 348.902 246.011 348.191C246.405 347.836 246.714 347.557 246.924 347.367C247.03 347.273 247.11 347.2 247.164 347.151C247.192 347.127 247.212 347.108 247.226 347.096C247.233 347.09 247.238 347.085 247.241 347.082C247.243 347.08 247.244 347.079 247.245 347.078C247.246 347.078 247.246 347.078 247.246 347.077C247.246 347.077 247.246 347.077 246.243 345.962C245.24 344.847 245.24 344.847 245.239 344.848C245.239 344.848 245.239 344.848 245.238 344.848C245.237 344.849 245.236 344.85 245.234 344.852C245.231 344.855 245.226 344.86 245.219 344.866C245.205 344.879 245.184 344.897 245.157 344.922C245.102 344.971 245.021 345.044 244.916 345.139C244.705 345.329 244.395 345.608 244.001 345.965C243.212 346.677 242.083 347.698 240.725 348.93C238.008 351.395 234.369 354.71 230.684 358.105C227.001 361.499 223.266 364.98 220.358 367.776C218.905 369.173 217.65 370.408 216.708 371.379C216.238 371.864 215.836 372.294 215.523 372.651C215.237 372.976 214.942 373.334 214.766 373.648L217.381 375.118ZM274.72 320.357C277.801 317.519 283.226 312.636 287.887 308.457C290.216 306.369 292.352 304.458 293.906 303.07C294.683 302.376 295.314 301.812 295.751 301.422C295.97 301.227 296.14 301.075 296.255 300.973C296.313 300.921 296.357 300.882 296.386 300.856C296.401 300.842 296.412 300.832 296.42 300.826C296.424 300.822 296.426 300.82 296.428 300.818C296.429 300.817 296.43 300.817 296.43 300.816C296.431 300.816 296.431 300.816 296.431 300.816C296.431 300.816 296.431 300.816 295.433 299.696C294.435 298.577 294.434 298.577 294.434 298.577C294.434 298.577 294.434 298.577 294.434 298.577C294.433 298.578 294.433 298.578 294.432 298.579C294.43 298.581 294.427 298.583 294.423 298.587C294.416 298.593 294.404 298.603 294.39 298.617C294.36 298.643 294.316 298.682 294.258 298.734C294.143 298.837 293.973 298.989 293.754 299.184C293.316 299.574 292.685 300.138 291.907 300.833C290.353 302.222 288.215 304.134 285.884 306.223C281.226 310.4 275.786 315.296 272.687 318.15L274.72 320.357ZM296.449 298.593L263.322 268.066L261.289 270.272L294.416 300.799L296.449 298.593ZM313.466 278.369C311.921 280.457 307.197 285.481 302.76 290.077C300.562 292.353 298.464 294.494 296.915 296.066C296.141 296.851 295.505 297.495 295.062 297.941C294.84 298.165 294.667 298.339 294.55 298.457C294.491 298.516 294.446 298.561 294.416 298.592C294.401 298.607 294.389 298.618 294.382 298.626C294.378 298.63 294.375 298.633 294.373 298.635C294.372 298.636 294.371 298.636 294.371 298.637C294.371 298.637 294.371 298.637 294.37 298.637C294.37 298.637 294.37 298.637 295.433 299.696C296.495 300.755 296.495 300.755 296.496 300.755C296.496 300.755 296.496 300.754 296.496 300.754C296.497 300.754 296.497 300.753 296.498 300.752C296.5 300.75 296.503 300.747 296.507 300.743C296.515 300.735 296.527 300.723 296.542 300.708C296.573 300.677 296.618 300.632 296.677 300.572C296.796 300.453 296.97 300.278 297.192 300.054C297.637 299.605 298.276 298.959 299.052 298.171C300.605 296.595 302.711 294.447 304.918 292.161C309.29 287.633 314.186 282.439 315.877 280.153L313.466 278.369ZM246.243 345.962C247.537 345.204 247.537 345.204 247.537 345.203C247.537 345.203 247.537 345.203 247.537 345.203C247.536 345.202 247.536 345.201 247.535 345.2C247.534 345.198 247.532 345.194 247.529 345.189C247.523 345.18 247.515 345.165 247.504 345.146C247.481 345.108 247.448 345.052 247.405 344.978C247.318 344.829 247.189 344.609 247.024 344.326C246.694 343.76 246.217 342.941 245.628 341.926C244.451 339.896 242.831 337.088 241.056 333.972C237.5 327.73 233.345 320.289 230.89 315.399L228.209 316.745C230.704 321.714 234.895 329.218 238.449 335.457C240.229 338.581 241.853 341.396 243.033 343.431C243.623 344.448 244.102 345.27 244.433 345.838C244.599 346.122 244.728 346.343 244.815 346.492C244.859 346.567 244.892 346.624 244.915 346.663C244.926 346.682 244.935 346.696 244.94 346.706C244.943 346.711 244.945 346.715 244.947 346.717C244.948 346.718 244.948 346.719 244.948 346.72C244.949 346.72 244.949 346.72 244.949 346.721C244.949 346.721 244.949 346.721 246.243 345.962ZM230.89 315.399C228.437 310.511 224.261 301.263 220.577 292.634C218.736 288.322 217.024 284.18 215.717 280.826C214.386 277.414 213.532 274.961 213.331 273.941L210.387 274.521C210.651 275.858 211.621 278.582 212.922 281.916C214.245 285.31 215.97 289.484 217.818 293.811C221.509 302.459 225.714 311.774 228.209 316.745L230.89 315.399ZM418.265 327.84C420.478 329.552 427.801 334.431 434.49 338.834C437.852 341.046 441.079 343.154 443.465 344.709C444.658 345.486 445.642 346.126 446.326 346.57C446.669 346.793 446.937 346.967 447.119 347.085C447.21 347.144 447.28 347.189 447.327 347.22C447.351 347.235 447.368 347.247 447.38 347.255C447.386 347.258 447.391 347.261 447.394 347.263C447.395 347.264 447.397 347.265 447.397 347.265C447.398 347.266 447.398 347.266 447.398 347.266C447.398 347.266 447.398 347.266 448.214 346.007C449.03 344.749 449.03 344.749 449.03 344.748C449.03 344.748 449.029 344.748 449.029 344.748C449.028 344.747 449.027 344.747 449.026 344.746C449.023 344.744 449.018 344.741 449.012 344.737C449 344.729 448.983 344.718 448.959 344.703C448.912 344.672 448.843 344.627 448.752 344.568C448.57 344.45 448.303 344.277 447.961 344.055C447.277 343.61 446.295 342.972 445.103 342.195C442.719 340.642 439.497 338.537 436.14 336.328C429.391 331.887 422.198 327.089 420.101 325.467L418.265 327.84ZM390.568 305.505C389.681 306.715 389.681 306.715 389.681 306.715C389.682 306.715 389.682 306.715 389.682 306.716C389.683 306.716 389.684 306.717 389.685 306.718C389.688 306.72 389.693 306.723 389.699 306.728C389.71 306.736 389.728 306.749 389.751 306.766C389.797 306.8 389.865 306.85 389.955 306.915C390.134 307.047 390.397 307.24 390.733 307.486C391.406 307.98 392.372 308.689 393.545 309.55C395.891 311.272 399.063 313.602 402.37 316.037C408.994 320.914 416.129 326.187 418.265 327.84L420.101 325.467C417.928 323.786 410.755 318.485 404.149 313.621C400.84 311.185 397.667 308.854 395.321 307.131C394.147 306.27 393.181 305.561 392.508 305.067C392.171 304.82 391.908 304.627 391.729 304.496C391.639 304.43 391.571 304.38 391.524 304.346C391.501 304.329 391.484 304.317 391.472 304.308C391.466 304.304 391.462 304.3 391.459 304.298C391.458 304.297 391.456 304.296 391.456 304.296C391.455 304.296 391.455 304.295 391.455 304.295C391.455 304.295 391.455 304.295 390.568 305.505ZM369.561 293.177C370.573 294.307 372.389 295.721 374.415 297.153C376.477 298.611 378.879 300.17 381.155 301.596C383.433 303.023 385.599 304.325 387.194 305.269C387.992 305.742 388.647 306.125 389.104 306.391C389.333 306.524 389.512 306.627 389.634 306.698C389.695 306.733 389.741 306.76 389.773 306.778C389.789 306.787 389.801 306.794 389.809 306.799C389.813 306.801 389.816 306.803 389.818 306.804C389.819 306.805 389.82 306.805 389.821 306.806C389.821 306.806 389.821 306.806 389.822 306.806C389.822 306.806 389.822 306.806 390.568 305.505C391.314 304.204 391.314 304.204 391.314 304.204C391.314 304.203 391.313 304.203 391.313 304.203C391.313 304.203 391.312 304.203 391.311 304.202C391.309 304.201 391.307 304.199 391.303 304.197C391.295 304.193 391.284 304.186 391.269 304.178C391.238 304.16 391.193 304.134 391.133 304.1C391.014 304.031 390.838 303.929 390.613 303.798C390.162 303.536 389.513 303.156 388.722 302.688C387.142 301.752 384.999 300.464 382.748 299.053C380.494 297.642 378.145 296.116 376.146 294.703C374.111 293.265 372.556 292.024 371.797 291.176L369.561 293.177ZM390.568 305.505C391.673 306.519 391.673 306.519 391.673 306.519C391.673 306.519 391.674 306.518 391.674 306.518C391.674 306.518 391.675 306.517 391.676 306.516C391.677 306.514 391.68 306.512 391.683 306.508C391.69 306.501 391.7 306.49 391.713 306.476C391.739 306.447 391.778 306.405 391.829 306.349C391.932 306.237 392.084 306.072 392.279 305.86C392.671 305.435 393.237 304.821 393.938 304.064C395.34 302.55 397.28 300.463 399.431 298.176C403.742 293.592 408.87 288.232 412.22 285.036L410.15 282.865C406.732 286.125 401.552 291.542 397.246 296.121C395.088 298.415 393.143 300.507 391.737 302.026C391.034 302.785 390.466 303.401 390.073 303.827C389.876 304.04 389.724 304.206 389.621 304.319C389.569 304.375 389.529 304.418 389.503 304.447C389.49 304.461 389.479 304.472 389.473 304.48C389.469 304.483 389.467 304.486 389.465 304.488C389.464 304.489 389.464 304.49 389.463 304.49C389.463 304.49 389.463 304.491 389.463 304.491C389.462 304.491 389.462 304.491 390.568 305.505ZM412.22 285.036C418.958 278.61 432.502 267.272 434.1 266.101L432.327 263.681C430.594 264.95 416.949 276.379 410.15 282.865L412.22 285.036ZM448.214 346.007C449.376 346.956 449.376 346.956 449.376 346.956C449.376 346.956 449.376 346.956 449.376 346.956C449.377 346.955 449.377 346.955 449.378 346.954C449.379 346.952 449.381 346.95 449.384 346.947C449.389 346.941 449.396 346.932 449.406 346.92C449.425 346.896 449.454 346.86 449.492 346.814C449.568 346.721 449.679 346.584 449.823 346.407C450.109 346.055 450.522 345.545 451.029 344.914C452.044 343.653 453.439 341.91 454.957 339.979C457.98 336.134 461.535 331.493 463.535 328.454L461.03 326.805C459.109 329.723 455.629 334.27 452.599 338.125C451.09 340.044 449.703 341.778 448.693 343.033C448.188 343.66 447.777 344.167 447.493 344.517C447.351 344.692 447.241 344.827 447.166 344.919C447.129 344.965 447.1 345 447.081 345.024C447.072 345.035 447.064 345.044 447.06 345.05C447.057 345.053 447.055 345.055 447.054 345.056C447.054 345.057 447.053 345.058 447.053 345.058C447.053 345.058 447.053 345.058 447.053 345.058C447.053 345.058 447.053 345.058 448.214 346.007ZM463.535 328.454C465.571 325.362 469.004 318.263 471.881 312.06C473.332 308.933 474.659 305.993 475.623 303.835C476.106 302.756 476.497 301.872 476.769 301.258C476.904 300.951 477.01 300.711 477.082 300.548C477.118 300.466 477.145 300.404 477.163 300.362C477.173 300.341 477.18 300.325 477.184 300.314C477.187 300.308 477.189 300.304 477.19 300.302C477.19 300.3 477.191 300.299 477.191 300.298C477.191 300.298 477.191 300.298 477.192 300.298C477.192 300.297 477.192 300.297 475.817 299.696C474.443 299.095 474.443 299.095 474.443 299.095C474.443 299.095 474.443 299.096 474.443 299.096C474.442 299.096 474.442 299.097 474.441 299.099C474.44 299.101 474.439 299.105 474.436 299.11C474.432 299.121 474.425 299.136 474.416 299.157C474.398 299.198 474.371 299.26 474.335 299.341C474.264 299.503 474.159 299.741 474.025 300.046C473.755 300.657 473.365 301.537 472.885 302.611C471.924 304.76 470.603 307.687 469.16 310.798C466.25 317.072 462.916 323.939 461.03 326.805L463.535 328.454Z" fill="black"/>
</svg>
