<svg width="701" height="901" viewBox="0 0 701 901" fill="none" xmlns="http://www.w3.org/2000/svg">
<path d="M326.632 326.57C326.632 326.57 340.042 322.969 349.865 320.036C359.688 317.104 336.379 216.541 336.379 216.541C336.379 216.541 333.185 192.376 329.933 180.444C326.682 168.511 321.638 148.927 321.638 148.927C321.638 148.927 314.346 127.353 304.97 116.219C295.594 105.085 283.829 101.101 270.983 98.1707C258.136 95.2408 252.231 95.555 234.768 99.8114C217.306 104.068 206.758 116.571 202.422 127.353C198.085 138.135 199.257 166.849 199.492 181.382C199.726 195.914 201.718 216.21 209.219 235.889C216.72 255.568 271.959 359.254 279.622 357.608C287.286 355.962 303.218 336.19 303.218 336.19C303.218 336.19 278.476 290.162 275.417 284.274C272.357 278.386 261.172 254.166 259.568 249.474C256.122 239.395 252.7 231.542 249.653 222.129C246.605 212.715 243.089 201.071 242.738 191.226C242.386 181.381 243.465 168.961 259.568 167.201C275.671 165.442 280.593 177.983 284.343 185.249C288.094 192.515 291.057 202.806 293.911 212.888C296.766 222.971 298.44 229.257 299.66 235.234C300.208 237.922 304.973 256.378 308.294 268.776C311.615 281.174 326.632 326.57 326.632 326.57Z" fill="#FEF0FE"/>
<path d="M377.813 318.59C380.222 318.59 387.001 319.365 387.001 319.365C387.001 319.365 392.806 232.363 393.263 227.411C393.721 222.459 394.545 209.838 396.65 201.509C398.755 193.18 402.141 181.19 404.796 176.614C407.45 172.038 413.124 161.878 424.565 162.61C436.006 163.343 439.484 168.208 442.047 174.692C444.609 181.176 444.152 192.69 443.603 199.953C443.054 207.217 439.209 219.357 436.83 226.862C434.45 234.367 405.376 324.457 405.376 324.457C405.376 324.457 421.34 334.321 427.715 334.037C434.089 333.754 459.975 279.708 464.777 270.854C469.579 262 474.381 252.395 478.733 241.44C483.086 230.485 489.088 213.077 492.84 196.569C496.592 180.061 494.641 165.955 492.84 155.45C491.039 144.945 485.337 133.839 478.733 123.335C472.13 112.83 458.924 104.816 447.819 101.724C436.714 98.6331 424.708 98.2727 414.653 100.674C404.599 103.075 395.144 107.427 386.44 116.431C377.736 125.436 373.984 132.939 369.182 145.395C364.38 157.851 359.956 178.281 358.866 187.865C357.776 197.449 363.865 317.372 363.865 317.372L377.813 318.59Z" fill="#FEF0FE"/>
<path d="M387.001 319.365C404.577 323.625 405.376 324.457 405.376 324.457C405.376 324.457 434.45 234.367 436.83 226.862C439.209 219.357 443.054 207.217 443.603 199.953C444.152 192.69 444.609 181.176 442.047 174.692C439.484 168.208 436.006 163.343 424.565 162.61C413.124 161.878 407.45 172.038 404.796 176.614C402.141 181.19 398.755 193.18 396.65 201.509C394.545 209.838 393.721 222.459 393.263 227.411C392.806 232.363 387.001 319.365 387.001 319.365Z" fill="#BC6A89"/>
<path d="M313.019 331.108C317.779 329.005 326.632 326.57 326.632 326.57C326.632 326.57 311.615 281.174 308.294 268.776C304.973 256.378 300.208 237.922 299.66 235.234C298.44 229.257 296.766 222.971 293.911 212.888C291.057 202.806 288.094 192.515 284.343 185.249C280.593 177.983 275.671 165.442 259.568 167.201C243.465 168.961 242.386 181.381 242.738 191.226C243.089 201.071 246.605 212.715 249.653 222.129C252.7 231.542 256.122 239.395 259.568 249.474C261.172 254.166 272.357 278.386 275.417 284.274C278.476 290.162 303.218 336.19 303.218 336.19C303.218 336.19 308.259 333.211 313.019 331.108Z" fill="#BC6A89"/>
<path d="M377.813 318.59L377.682 320.084L377.747 320.09H377.813V318.59ZM405.376 324.457L404.295 325.496L404.426 325.633L404.588 325.733L405.376 324.457ZM321.638 148.927L323.091 148.553L323.077 148.499L323.059 148.447L321.638 148.927ZM336.379 216.541L334.892 216.737L334.902 216.809L334.918 216.88L336.379 216.541ZM363.865 317.372L362.367 317.449L362.433 318.753L363.734 318.867L363.865 317.372ZM259.568 249.474L258.148 249.959L259.568 249.474ZM299.66 235.234L298.19 235.534L299.66 235.234ZM313.626 332.48C315.92 331.466 319.251 330.353 322.055 329.483C323.448 329.051 324.693 328.684 325.591 328.425C326.039 328.295 326.4 328.193 326.649 328.123C326.773 328.088 326.869 328.061 326.933 328.043C326.966 328.034 326.99 328.028 327.006 328.023C327.015 328.021 327.021 328.019 327.025 328.018C327.027 328.018 327.028 328.017 327.029 328.017C327.029 328.017 327.03 328.017 327.03 328.017C327.03 328.017 327.03 328.017 327.03 328.017C327.03 328.017 327.03 328.017 326.632 326.57C326.235 325.124 326.234 325.124 326.234 325.124C326.234 325.124 326.234 325.124 326.234 325.124C326.234 325.124 326.233 325.124 326.233 325.125C326.231 325.125 326.229 325.125 326.227 325.126C326.223 325.127 326.216 325.129 326.207 325.132C326.19 325.136 326.164 325.144 326.13 325.153C326.063 325.172 325.964 325.199 325.837 325.235C325.582 325.307 325.214 325.411 324.759 325.542C323.847 325.806 322.582 326.178 321.166 326.618C318.354 327.491 314.879 328.647 312.413 329.736L313.626 332.48ZM326.632 326.57C327.021 328.019 327.021 328.019 327.022 328.019C327.022 328.019 327.022 328.019 327.022 328.019C327.022 328.019 327.023 328.019 327.024 328.018C327.026 328.018 327.028 328.017 327.031 328.016C327.038 328.015 327.048 328.012 327.061 328.008C327.086 328.002 327.125 327.991 327.175 327.978C327.276 327.95 327.425 327.91 327.619 327.858C328.005 327.754 328.568 327.601 329.275 327.409C330.687 327.025 332.672 326.483 334.965 325.849C339.548 324.581 345.368 322.944 350.294 321.473L349.436 318.599C344.539 320.061 338.742 321.691 334.165 322.957C331.877 323.59 329.896 324.131 328.488 324.514C327.783 324.706 327.222 324.858 326.837 324.962C326.644 325.014 326.496 325.054 326.395 325.081C326.345 325.094 326.307 325.105 326.282 325.111C326.269 325.115 326.259 325.117 326.253 325.119C326.25 325.12 326.247 325.121 326.246 325.121C326.245 325.121 326.244 325.121 326.244 325.122C326.244 325.122 326.243 325.122 326.243 325.122C326.243 325.122 326.243 325.122 326.632 326.57ZM386.647 320.823C395.425 322.95 399.984 324.215 402.337 324.942C403.516 325.306 404.115 325.528 404.404 325.647C404.548 325.706 404.592 325.732 404.582 325.726C404.576 325.722 404.545 325.705 404.5 325.674C404.478 325.658 404.448 325.636 404.414 325.608C404.397 325.594 404.379 325.578 404.359 325.559C404.349 325.55 404.339 325.54 404.328 325.53C404.323 325.525 404.317 325.519 404.312 325.514C404.309 325.511 404.305 325.507 404.303 325.505C404.299 325.501 404.295 325.496 405.376 324.457C406.458 323.418 406.454 323.414 406.45 323.409C406.448 323.408 406.444 323.403 406.441 323.401C406.436 323.395 406.43 323.389 406.425 323.384C406.414 323.374 406.403 323.363 406.393 323.354C406.372 323.335 406.352 323.317 406.333 323.301C406.295 323.27 406.259 323.243 406.226 323.22C406.161 323.174 406.096 323.135 406.034 323.1C405.911 323.033 405.755 322.959 405.55 322.874C405.139 322.705 404.44 322.452 403.222 322.076C400.782 321.321 396.153 320.04 387.354 317.907L386.647 320.823ZM279.937 359.074C282.233 358.581 284.907 356.824 287.487 354.732C290.127 352.591 292.886 349.916 295.376 347.32C297.872 344.72 300.122 342.175 301.747 340.282C302.56 339.335 303.218 338.55 303.674 338C303.901 337.725 304.078 337.509 304.199 337.361C304.26 337.287 304.306 337.23 304.337 337.192C304.353 337.172 304.365 337.158 304.373 337.147C304.377 337.142 304.38 337.139 304.382 337.136C304.384 337.134 304.384 337.133 304.385 337.133C304.385 337.132 304.386 337.132 304.386 337.132C304.386 337.132 304.386 337.131 303.218 336.19C302.05 335.249 302.05 335.249 302.05 335.249C302.05 335.249 302.05 335.249 302.05 335.249C302.049 335.25 302.049 335.251 302.048 335.252C302.046 335.254 302.044 335.257 302.04 335.262C302.033 335.27 302.022 335.284 302.007 335.302C301.978 335.338 301.934 335.393 301.875 335.464C301.759 335.607 301.586 335.817 301.363 336.086C300.918 336.624 300.271 337.396 299.471 338.328C297.869 340.194 295.657 342.695 293.212 345.243C290.762 347.796 288.1 350.373 285.598 352.402C283.035 354.48 280.844 355.811 279.307 356.141L279.937 359.074ZM279.307 356.141C279.506 356.099 279.564 356.173 279.384 356.092C279.217 356.017 278.958 355.858 278.598 355.565C277.882 354.982 276.964 354.029 275.858 352.698C273.656 350.05 270.878 346.117 267.701 341.233C261.355 331.479 253.516 318.092 245.67 304.015C229.957 275.826 214.326 245.077 210.621 235.355L207.817 236.423C211.613 246.38 227.352 277.313 243.049 305.476C250.908 319.574 258.785 333.03 265.186 342.869C268.382 347.782 271.236 351.832 273.551 354.616C274.703 356.002 275.766 357.127 276.704 357.891C277.172 358.273 277.658 358.605 278.151 358.827C278.63 359.043 279.26 359.22 279.937 359.074L279.307 356.141ZM210.621 235.355C203.205 215.898 201.224 195.793 200.991 181.357L197.992 181.406C198.228 196.035 200.232 216.522 207.817 236.423L210.621 235.355ZM200.991 181.357C200.874 174.057 200.523 163.298 200.742 152.993C200.852 147.844 201.103 142.84 201.592 138.467C202.084 134.068 202.807 130.415 203.813 127.913L201.03 126.793C199.868 129.682 199.111 133.662 198.611 138.133C198.108 142.631 197.853 147.735 197.743 152.929C197.522 163.309 197.875 174.174 197.992 181.406L200.991 181.357ZM203.813 127.913C208.002 117.499 218.21 105.391 235.124 101.269L234.413 98.354C216.402 102.744 205.514 115.643 201.03 126.793L203.813 127.913ZM235.124 101.269C243.846 99.1426 249.567 98.0317 254.676 97.7946C259.751 97.559 264.291 98.1831 270.649 99.6332L271.316 96.7083C264.828 95.2284 259.992 94.5446 254.537 94.7978C249.116 95.0494 243.153 96.2238 234.413 98.354L235.124 101.269ZM270.649 99.6332C283.41 102.544 294.771 106.436 303.823 117.185L306.118 115.253C296.417 103.734 284.248 99.6577 271.316 96.7083L270.649 99.6332ZM303.823 117.185C308.366 122.581 312.464 130.593 315.448 137.354C316.932 140.716 318.126 143.735 318.949 145.912C319.361 147.001 319.679 147.878 319.894 148.481C320.001 148.783 320.083 149.016 320.137 149.173C320.164 149.251 320.185 149.311 320.198 149.35C320.205 149.37 320.21 149.385 320.213 149.394C320.215 149.399 320.216 149.402 320.217 149.405C320.217 149.406 320.217 149.406 320.217 149.407C320.217 149.407 320.217 149.407 320.217 149.407C320.217 149.407 320.217 149.407 321.638 148.927C323.059 148.447 323.059 148.446 323.059 148.446C323.059 148.446 323.059 148.445 323.059 148.445C323.059 148.444 323.058 148.443 323.058 148.441C323.057 148.438 323.055 148.434 323.053 148.428C323.049 148.417 323.044 148.4 323.036 148.379C323.022 148.336 323 148.273 322.972 148.191C322.915 148.026 322.83 147.785 322.72 147.475C322.499 146.855 322.174 145.96 321.756 144.852C320.918 142.636 319.703 139.565 318.193 136.142C315.187 129.333 310.95 120.991 306.118 115.253L303.823 117.185ZM321.638 148.927C320.186 149.301 320.186 149.301 320.186 149.301C320.186 149.301 320.186 149.302 320.186 149.302C320.186 149.302 320.186 149.303 320.187 149.305C320.187 149.307 320.188 149.31 320.19 149.315C320.192 149.325 320.196 149.339 320.2 149.358C320.21 149.395 320.225 149.451 320.243 149.524C320.281 149.671 320.337 149.887 320.409 150.167C320.553 150.726 320.763 151.538 321.025 152.549C321.549 154.572 322.281 157.394 323.115 160.589C324.783 166.978 326.858 174.864 328.486 180.838L331.381 180.049C329.757 174.091 327.685 166.219 326.018 159.832C325.185 156.639 324.453 153.819 323.929 151.797C323.668 150.787 323.458 149.975 323.314 149.417C323.242 149.138 323.186 148.921 323.148 148.775C323.13 148.702 323.115 148.646 323.106 148.609C323.101 148.59 323.097 148.576 323.095 148.567C323.094 148.562 323.093 148.559 323.092 148.556C323.092 148.555 323.091 148.554 323.091 148.554C323.091 148.553 323.091 148.553 323.091 148.553C323.091 148.553 323.091 148.553 321.638 148.927ZM350.294 321.473C351.551 321.098 352.284 320.022 352.72 318.961C353.169 317.868 353.441 316.472 353.599 314.896C353.915 311.728 353.801 307.451 353.397 302.506C352.587 292.591 350.584 279.688 348.282 266.923C345.978 254.147 343.368 241.468 341.335 231.985C340.318 227.243 339.444 223.299 338.825 220.539C338.516 219.16 338.27 218.076 338.101 217.337C338.017 216.968 337.952 216.684 337.908 216.493C337.886 216.397 337.869 216.325 337.858 216.276C337.852 216.252 337.848 216.233 337.845 216.221C337.844 216.215 337.842 216.21 337.842 216.207C337.841 216.205 337.841 216.204 337.841 216.203C337.841 216.203 337.841 216.202 336.379 216.541C334.918 216.88 334.918 216.88 334.918 216.881C334.918 216.881 334.919 216.882 334.919 216.884C334.92 216.887 334.921 216.891 334.922 216.897C334.925 216.909 334.929 216.927 334.935 216.951C334.946 216.999 334.962 217.071 334.984 217.166C335.028 217.355 335.092 217.637 335.176 218.005C335.344 218.74 335.589 219.82 335.898 221.196C336.515 223.948 337.386 227.883 338.401 232.614C340.431 242.079 343.034 254.723 345.33 267.455C347.627 280.197 349.609 292.984 350.407 302.75C350.807 307.644 350.902 311.705 350.613 314.598C350.468 316.053 350.234 317.118 349.945 317.82C349.803 318.166 349.668 318.373 349.566 318.488C349.518 318.543 349.482 318.571 349.463 318.584C349.445 318.597 349.437 318.599 349.436 318.599L350.294 321.473ZM328.486 180.838C330.089 186.718 331.689 195.67 332.895 203.204C333.495 206.96 333.995 210.345 334.344 212.791C334.519 214.014 334.656 215.001 334.75 215.683C334.796 216.024 334.832 216.288 334.856 216.466C334.868 216.556 334.877 216.624 334.883 216.669C334.886 216.692 334.889 216.709 334.89 216.721C334.891 216.726 334.891 216.731 334.892 216.733C334.892 216.735 334.892 216.736 334.892 216.737C334.892 216.737 334.892 216.737 334.892 216.737C334.892 216.737 334.892 216.737 336.379 216.541C337.866 216.344 337.866 216.344 337.866 216.344C337.866 216.344 337.866 216.343 337.866 216.343C337.866 216.342 337.866 216.341 337.866 216.339C337.865 216.336 337.865 216.332 337.864 216.326C337.862 216.314 337.86 216.296 337.857 216.273C337.851 216.226 337.841 216.157 337.829 216.067C337.805 215.886 337.769 215.619 337.722 215.276C337.628 214.589 337.49 213.596 337.314 212.367C336.963 209.909 336.461 206.507 335.857 202.73C334.652 195.199 333.03 186.102 331.381 180.049L328.486 180.838ZM363.734 318.867L377.682 320.084L377.943 317.096L363.995 315.878L363.734 318.867ZM363.865 317.372C365.363 317.296 365.363 317.296 365.363 317.295C365.363 317.294 365.362 317.293 365.362 317.291C365.362 317.287 365.362 317.282 365.362 317.275C365.361 317.26 365.36 317.238 365.358 317.21C365.355 317.152 365.351 317.066 365.345 316.952C365.334 316.725 365.317 316.388 365.295 315.948C365.25 315.067 365.185 313.775 365.103 312.126C364.939 308.829 364.705 304.107 364.429 298.412C363.875 287.021 363.148 271.733 362.455 256.146C361.762 240.559 361.104 224.676 360.687 212.094C360.478 205.802 360.33 200.342 360.268 196.159C360.205 191.927 360.234 189.115 360.357 188.035L357.376 187.696C357.226 189.011 357.207 192.043 357.268 196.204C357.331 200.414 357.479 205.895 357.688 212.194C358.106 224.793 358.765 240.688 359.458 256.279C360.151 271.872 360.878 287.164 361.432 298.558C361.709 304.254 361.943 308.977 362.107 312.275C362.189 313.925 362.254 315.218 362.298 316.099C362.321 316.539 362.338 316.877 362.349 317.104C362.355 317.218 362.359 317.304 362.362 317.361C362.364 317.39 362.365 317.412 362.365 317.427C362.366 317.434 362.366 317.439 362.366 317.443C362.366 317.445 362.366 317.446 362.366 317.447C362.366 317.448 362.367 317.449 363.865 317.372ZM360.357 188.035C361.434 178.555 365.832 158.253 370.581 145.935L367.782 144.855C362.927 157.449 358.478 178.007 357.376 187.696L360.357 188.035ZM370.581 145.935C375.349 133.57 379.011 126.274 387.518 117.474L385.361 115.389C376.46 124.597 372.62 132.309 367.782 144.855L370.581 145.935ZM387.518 117.474C395.985 108.715 405.166 104.482 415.002 102.133L414.305 99.2149C404.032 101.668 394.303 106.139 385.361 115.389L387.518 117.474ZM415.002 102.133C424.784 99.7967 436.531 100.139 447.417 103.169L448.221 100.279C436.897 97.127 424.632 96.7487 414.305 99.2149L415.002 102.133ZM447.417 103.169C458.27 106.191 471.112 114.028 477.464 124.133L480.003 122.536C473.149 111.632 459.578 103.441 448.221 100.279L447.417 103.169ZM477.464 124.133C484.043 134.6 489.613 145.5 491.362 155.703L494.319 155.196C492.466 144.39 486.63 133.079 480.003 122.536L477.464 124.133ZM491.362 155.703C493.154 166.158 495.062 180.025 491.377 196.237L494.303 196.902C498.122 180.097 496.128 165.751 494.319 155.196L491.362 155.703ZM491.377 196.237C487.648 212.648 481.672 229.98 477.339 240.886L480.128 241.994C484.499 230.99 490.529 213.506 494.303 196.902L491.377 196.237ZM477.339 240.886C473.016 251.768 468.243 261.317 463.458 270.139L466.095 271.569C470.915 262.683 475.746 253.022 480.128 241.994L477.339 240.886ZM405.376 324.457C404.588 325.733 404.588 325.733 404.588 325.733C404.589 325.734 404.589 325.734 404.589 325.734C404.59 325.734 404.591 325.735 404.592 325.736C404.594 325.737 404.597 325.739 404.602 325.742C404.61 325.747 404.622 325.754 404.638 325.764C404.67 325.783 404.716 325.812 404.777 325.849C404.898 325.923 405.076 326.03 405.304 326.167C405.759 326.44 406.415 326.828 407.221 327.293C408.833 328.222 411.052 329.46 413.476 330.691C415.896 331.919 418.546 333.154 421.015 334.067C423.431 334.96 425.866 335.621 427.781 335.536L427.648 332.539C426.376 332.595 424.425 332.129 422.055 331.253C419.738 330.396 417.202 329.218 414.834 328.016C412.471 326.816 410.301 325.606 408.72 324.694C407.93 324.239 407.289 323.859 406.846 323.594C406.625 323.461 406.453 323.357 406.338 323.287C406.28 323.252 406.236 323.225 406.207 323.207C406.192 323.198 406.182 323.191 406.175 323.187C406.171 323.185 406.168 323.183 406.167 323.182C406.166 323.182 406.165 323.181 406.165 323.181C406.165 323.181 406.165 323.181 406.165 323.181C406.165 323.181 406.165 323.181 405.376 324.457ZM463.458 270.139C462.244 272.377 459.708 277.451 456.518 283.744C453.318 290.057 449.439 297.639 445.514 304.95C441.584 312.268 437.624 319.283 434.261 324.475C432.575 327.076 431.068 329.176 429.81 330.618C429.179 331.342 428.646 331.859 428.218 332.186C427.748 332.545 427.578 332.542 427.648 332.539L427.781 335.536C428.648 335.497 429.427 335.038 430.04 334.57C430.693 334.07 431.375 333.388 432.071 332.59C433.468 330.988 435.066 328.75 436.778 326.106C440.211 320.808 444.218 313.705 448.157 306.369C452.1 299.026 455.991 291.419 459.194 285.1C462.408 278.76 464.908 273.758 466.095 271.569L463.458 270.139ZM405.376 324.457C406.804 324.918 406.804 324.917 406.804 324.917C406.804 324.916 406.805 324.915 406.805 324.914C406.806 324.911 406.807 324.907 406.809 324.901C406.813 324.89 406.818 324.874 406.825 324.852C406.839 324.809 406.86 324.744 406.887 324.659C406.942 324.488 407.024 324.235 407.131 323.904C407.345 323.243 407.658 322.271 408.058 321.032C408.857 318.554 410.002 315.006 411.384 310.724C414.147 302.161 417.855 290.665 421.638 278.934C429.203 255.477 437.068 231.072 438.26 227.315L435.4 226.409C434.212 230.156 426.35 254.55 418.783 278.014C415 289.744 411.292 301.24 408.529 309.803C407.147 314.084 406.002 317.633 405.203 320.111C404.803 321.35 404.49 322.321 404.276 322.983C404.169 323.314 404.087 323.567 404.032 323.738C404.005 323.823 403.984 323.888 403.97 323.931C403.963 323.953 403.958 323.969 403.954 323.98C403.952 323.986 403.951 323.99 403.95 323.992C403.95 323.994 403.949 323.995 403.949 323.995C403.949 323.996 403.949 323.996 405.376 324.457ZM438.26 227.315C440.615 219.887 444.533 207.547 445.098 200.066L442.107 199.84C441.574 206.887 437.804 218.826 435.4 226.409L438.26 227.315ZM445.098 200.066C445.375 196.412 445.631 191.659 445.491 186.985C445.353 182.35 444.823 177.635 443.442 174.14L440.652 175.243C441.833 178.233 442.356 182.516 442.492 187.075C442.627 191.596 442.38 196.23 442.107 199.84L445.098 200.066ZM443.442 174.14C442.129 170.819 440.501 167.691 437.578 165.328C434.643 162.954 430.58 161.492 424.661 161.113L424.469 164.107C429.991 164.461 433.388 165.797 435.692 167.661C438.009 169.534 439.402 172.081 440.652 175.243L443.442 174.14ZM424.661 161.113C418.418 160.714 413.75 163.308 410.352 166.534C406.992 169.725 404.811 173.597 403.498 175.861L406.093 177.366C407.434 175.054 409.418 171.558 412.418 168.709C415.382 165.894 419.271 163.775 424.469 164.107L424.661 161.113ZM403.498 175.861C402.076 178.313 400.523 182.607 399.085 187.207C397.632 191.853 396.252 196.961 395.195 201.142L398.104 201.877C399.153 197.728 400.518 192.677 401.948 188.102C403.393 183.48 404.861 179.491 406.093 177.366L403.498 175.861ZM395.195 201.142C393.053 209.618 392.219 222.414 391.77 227.273L394.757 227.549C395.223 222.505 396.036 210.058 398.104 201.877L395.195 201.142ZM377.813 320.09C378.931 320.09 381.152 320.275 383.165 320.471C384.156 320.567 385.073 320.663 385.743 320.735C386.077 320.771 386.35 320.801 386.538 320.822C386.633 320.833 386.706 320.841 386.755 320.847C386.78 320.85 386.799 320.852 386.812 320.853C386.818 320.854 386.823 320.854 386.826 320.855C386.827 320.855 386.828 320.855 386.829 320.855C386.829 320.855 386.83 320.855 386.83 320.855C386.83 320.855 386.83 320.855 386.83 320.855C386.83 320.855 386.83 320.855 387.001 319.365C387.171 317.875 387.171 317.875 387.171 317.875C387.171 317.875 387.171 317.875 387.17 317.875C387.17 317.875 387.17 317.875 387.169 317.875C387.169 317.874 387.167 317.874 387.165 317.874C387.162 317.874 387.157 317.873 387.15 317.872C387.137 317.871 387.118 317.869 387.092 317.866C387.041 317.86 386.967 317.852 386.871 317.841C386.679 317.82 386.403 317.789 386.065 317.753C385.388 317.68 384.46 317.582 383.455 317.485C381.477 317.293 379.104 317.09 377.813 317.09V320.09ZM391.77 227.273C391.538 229.773 389.971 252.794 388.464 275.144C387.709 286.329 386.969 297.359 386.418 305.593C386.142 309.71 385.914 313.128 385.754 315.517C385.674 316.711 385.612 317.648 385.569 318.287C385.548 318.606 385.531 318.851 385.521 319.015C385.515 319.098 385.511 319.16 385.508 319.202C385.507 319.223 385.506 319.239 385.505 319.249C385.505 319.255 385.504 319.259 385.504 319.261C385.504 319.263 385.504 319.264 385.504 319.264C385.504 319.265 385.504 319.265 387.001 319.365C388.497 319.465 388.497 319.465 388.497 319.464C388.497 319.463 388.497 319.462 388.497 319.461C388.498 319.458 388.498 319.454 388.498 319.449C388.499 319.439 388.5 319.423 388.501 319.402C388.504 319.36 388.508 319.298 388.514 319.215C388.525 319.05 388.541 318.806 388.562 318.487C388.605 317.848 388.668 316.911 388.747 315.717C388.907 313.328 389.136 309.911 389.411 305.794C389.963 297.56 390.703 286.53 391.457 275.346C392.967 252.957 394.53 230 394.757 227.549L391.77 227.273ZM303.218 336.19C303.981 337.482 303.981 337.482 303.981 337.482C303.981 337.482 303.981 337.482 303.981 337.482C303.981 337.482 303.981 337.481 303.982 337.481C303.982 337.481 303.983 337.481 303.984 337.48C303.986 337.479 303.989 337.477 303.994 337.474C304.003 337.469 304.016 337.461 304.035 337.45C304.071 337.429 304.126 337.397 304.198 337.355C304.342 337.271 304.554 337.149 304.824 336.995C305.363 336.687 306.133 336.254 307.05 335.756C308.888 334.757 311.298 333.508 313.626 332.48L312.413 329.736C309.98 330.811 307.49 332.103 305.618 333.12C304.679 333.629 303.891 334.073 303.337 334.389C303.059 334.547 302.84 334.674 302.69 334.761C302.615 334.805 302.557 334.839 302.517 334.862C302.497 334.874 302.482 334.883 302.472 334.889C302.467 334.892 302.463 334.894 302.46 334.896C302.458 334.897 302.457 334.897 302.456 334.898C302.456 334.898 302.456 334.898 302.455 334.898C302.455 334.899 302.455 334.899 302.455 334.899C302.455 334.899 302.455 334.899 303.218 336.19ZM260.987 248.988C259.255 243.921 257.528 239.413 255.863 235.02C254.197 230.621 252.591 226.335 251.08 221.667L248.225 222.591C249.761 227.336 251.391 231.683 253.058 236.083C254.728 240.49 256.435 244.947 258.148 249.959L260.987 248.988ZM251.08 221.667C248.025 212.229 244.58 200.777 244.237 191.172L241.239 191.28C241.599 201.365 245.186 213.202 248.225 222.591L251.08 221.667ZM244.237 191.172C244.062 186.27 244.268 181.036 246.329 176.843C248.315 172.8 252.13 169.523 259.731 168.693L259.405 165.71C250.903 166.639 246.126 170.452 243.636 175.52C241.219 180.438 241.062 186.338 241.239 191.28L244.237 191.172ZM259.731 168.693C267.295 167.866 272.102 170.374 275.511 173.886C279.026 177.506 281.072 182.182 283.01 185.937L285.676 184.561C283.864 181.05 281.574 175.823 277.664 171.796C273.649 167.66 267.943 164.778 259.405 165.71L259.731 168.693ZM283.01 185.937C286.677 193.041 289.601 203.169 292.468 213.297L295.355 212.479C292.513 202.442 289.51 191.989 285.676 184.561L283.01 185.937ZM292.468 213.297C295.323 223.378 296.982 229.617 298.19 235.534L301.129 234.934C299.897 228.897 298.21 222.563 295.355 212.479L292.468 213.297ZM298.19 235.534C298.75 238.279 303.531 256.79 306.845 269.164L309.743 268.388C306.415 255.965 301.666 237.566 301.129 234.934L298.19 235.534ZM306.845 269.164C308.518 275.409 313.117 289.9 317.281 302.784C319.367 309.236 321.348 315.3 322.809 319.751C323.539 321.977 324.139 323.799 324.556 325.065C324.765 325.698 324.928 326.192 325.038 326.528C325.094 326.696 325.136 326.824 325.165 326.91C325.179 326.954 325.19 326.986 325.197 327.008C325.201 327.019 325.204 327.028 325.205 327.033C325.206 327.036 325.207 327.038 325.207 327.039C325.208 327.04 325.208 327.041 325.208 327.041C325.208 327.041 325.208 327.041 326.632 326.57C328.056 326.099 328.056 326.099 328.056 326.099C328.056 326.098 328.056 326.098 328.056 326.097C328.055 326.096 328.055 326.094 328.054 326.091C328.052 326.086 328.049 326.077 328.046 326.066C328.038 326.045 328.028 326.012 328.013 325.969C327.985 325.883 327.943 325.755 327.887 325.587C327.776 325.252 327.614 324.758 327.405 324.126C326.988 322.861 326.389 321.04 325.659 318.816C324.2 314.368 322.22 308.308 320.136 301.861C315.962 288.947 311.391 274.541 309.743 268.388L306.845 269.164ZM303.218 336.19C304.539 335.48 304.539 335.48 304.539 335.479C304.539 335.479 304.539 335.479 304.538 335.478C304.537 335.476 304.536 335.474 304.535 335.472C304.532 335.466 304.527 335.458 304.521 335.447C304.509 335.424 304.492 335.391 304.468 335.348C304.421 335.261 304.352 335.131 304.261 334.962C304.079 334.623 303.812 334.126 303.47 333.491C302.788 332.221 301.809 330.4 300.626 328.196C298.259 323.789 295.07 317.852 291.787 311.731C285.215 299.481 278.272 286.515 276.748 283.582L274.086 284.965C275.621 287.921 282.579 300.913 289.143 313.149C292.427 319.271 295.616 325.209 297.983 329.616C299.167 331.82 300.145 333.641 300.828 334.911C301.169 335.546 301.436 336.043 301.618 336.382C301.709 336.551 301.779 336.681 301.826 336.768C301.849 336.812 301.867 336.845 301.879 336.867C301.885 336.878 301.889 336.886 301.892 336.892C301.894 336.895 301.895 336.897 301.896 336.898C301.896 336.899 301.896 336.899 301.897 336.9C301.897 336.9 301.897 336.9 303.218 336.19ZM276.748 283.582C275.238 280.676 271.691 273.182 268.31 265.801C264.915 258.389 261.759 251.245 260.987 248.988L258.148 249.959C258.981 252.394 262.219 259.706 265.583 267.05C268.96 274.424 272.536 281.984 274.086 284.965L276.748 283.582Z" fill="black"/>
</svg>
