<svg width="701" height="901" viewBox="0 0 701 901" fill="none" xmlns="http://www.w3.org/2000/svg">
<path d="M249.619 323.59C248.072 304.753 235.985 293.253 223.591 288.258C211.197 283.264 182.655 278.639 165.821 288.258C148.987 297.877 142.811 316.746 140.663 335.799C138.515 354.853 142.883 363.546 153.057 372.426C163.231 381.306 180.805 388.15 195.788 386.855C210.772 385.56 225.201 383.526 234.265 373.721C243.33 363.917 242.404 362.992 246.902 348.732C246.902 348.732 251.166 342.427 249.619 323.59Z" fill="#E8BE7C"/>
<path d="M451.512 308.687C460.409 285.994 483.723 277.145 502.382 279.144C521.041 281.143 541.074 292.302 545.027 310.686C548.981 329.07 545.888 347.302 534.604 361.176C523.32 375.049 506.856 377.454 496.497 376.714C486.138 375.974 482.623 374.7 474.114 370.61C465.605 366.519 459.13 359.696 453.581 349.152C448.031 338.608 446.976 320.257 451.512 308.687Z" fill="#E8BE7C"/>
<path d="M474.114 370.61C482.623 374.7 486.138 375.974 496.497 376.714C506.856 377.454 523.32 375.049 534.604 361.176C545.888 347.302 548.981 329.07 545.027 310.686C541.074 292.302 521.041 281.143 502.382 279.144C483.723 277.145 460.409 285.994 451.512 308.687C446.976 320.257 448.031 338.608 453.581 349.152C459.13 359.696 465.605 366.519 474.114 370.61ZM474.114 370.61C474.114 370.61 460.61 340.548 472.264 326.214C483.918 311.879 488.913 314.005 497.792 314.005C506.671 314.005 512.776 323.994 512.591 332.133C512.406 340.272 511.296 342.122 507.781 345.637C504.267 349.152 499.272 349.707 490.578 347.487M246.902 348.732C242.404 362.992 243.33 363.917 234.265 373.721C225.201 383.526 210.772 385.56 195.788 386.855C180.805 388.15 163.231 381.306 153.057 372.426C142.883 363.546 138.515 354.853 140.663 335.799C142.811 316.746 148.987 297.877 165.821 288.258C182.655 278.639 211.197 283.264 223.591 288.258C235.985 293.253 248.072 304.753 249.619 323.59C251.166 342.427 246.902 348.732 246.902 348.732ZM246.902 348.732C239.075 322.665 225.201 315.42 221.131 313.2C217.062 310.981 207.997 306.941 191.904 309.346C175.81 311.751 169.336 322.11 168.226 332.099C167.116 342.088 174.33 352.447 185.799 353.742C197.268 355.037 205.038 347.253 209.662 338.204" stroke="black" stroke-width="3" stroke-linecap="round"/>
</svg>
