<svg width="701" height="900" viewBox="0 0 701 900" fill="none" xmlns="http://www.w3.org/2000/svg">
<path fill-rule="evenodd" clip-rule="evenodd" d="M290.359 270.407C300.405 279.13 315.984 300.494 311.383 304.369C309.132 306.265 293.33 317.682 277.266 329.289C274.424 331.343 271.573 333.403 268.787 335.417C268.787 335.417 257.949 333.977 252.08 325.644C248.519 320.588 246.971 317.586 245.136 314.027C243.946 311.72 242.636 309.178 240.578 305.691C237.762 300.919 236.171 296.675 234.573 292.411C233.201 288.751 231.824 285.077 229.662 281.043C229.449 280.645 229.235 280.244 229.02 279.839C224.503 271.354 219.292 261.565 206.11 261.695C207.303 254.934 209.035 250.104 211.136 249.654C215.669 248.684 236.642 248.09 253.003 251.94C269.365 255.79 280.313 261.685 290.359 270.407Z" fill="#ECAE5A"/>
<path fill-rule="evenodd" clip-rule="evenodd" d="M410.7 274.746C402.547 281.716 397.504 286.027 406.798 297.9C412.263 304.882 422.215 318.475 431.456 331.117C431.456 331.117 445.625 326.583 453.724 320.597C461.822 314.611 470.86 304.165 475.79 297.24C478.473 293.471 480.461 290.536 482.832 287.035L482.834 287.032C484.819 284.102 487.072 280.775 490.226 276.231C497.151 266.254 507.39 265.198 507.39 265.198C507.037 255.98 506.032 253.051 503.847 249.061C500.582 243.1 476.463 246.834 461.759 249.111C460.506 249.305 459.322 249.489 458.224 249.655C444.246 251.768 425.081 261.78 414.804 271.155C413.387 272.448 412.004 273.631 410.7 274.746ZM434.333 335.053C433.811 334.339 433.285 333.619 432.756 332.895L432.754 332.892C433.284 333.617 433.811 334.338 434.333 335.053Z" fill="#ECAE5A"/>
<path d="M204.399 289.115C205.008 306.258 215.518 332.33 221.242 339.404C226.966 346.478 236.882 359.375 241.213 355.646C243.051 354.063 255.133 345.29 268.787 335.417C268.787 335.417 257.949 333.977 252.08 325.644C248.519 320.588 246.971 317.586 245.136 314.027C243.946 311.72 242.636 309.178 240.578 305.691C237.762 300.919 236.171 296.675 234.573 292.411C233.201 288.751 231.824 285.077 229.662 281.043C229.449 280.645 229.235 280.244 229.02 279.839C224.503 271.354 219.292 261.565 206.11 261.695C204.73 269.516 204.072 279.92 204.399 289.115Z" fill="#FFDFB3"/>
<path d="M495.744 324.098C501.506 314.034 506.823 303.303 507.39 288.101C507.607 282.276 507.609 270.924 507.39 265.198C507.39 265.198 497.151 266.254 490.226 276.231C487.072 280.775 484.819 284.102 482.834 287.032L482.832 287.035C480.461 290.536 478.473 293.471 475.79 297.24C470.86 304.165 461.822 314.611 453.724 320.597C445.625 326.583 431.456 331.117 431.456 331.117L432.754 332.892L432.756 332.895L434.333 335.053C442.172 345.775 449.066 355.186 451.623 358.349C457.436 365.539 465.95 356.346 477.308 346.416C488.639 336.509 489.976 334.174 495.703 324.17L495.744 324.098Z" fill="#FFDFB3"/>
<path d="M311.383 304.369L310.416 303.222L311.383 304.369ZM211.136 249.654L210.822 248.187L211.136 249.654ZM204.399 289.115L205.898 289.062L205.898 289.062L204.399 289.115ZM241.213 355.646L242.192 356.782L241.213 355.646ZM406.798 297.9L407.979 296.975L407.979 296.975L406.798 297.9ZM414.804 271.155L415.815 272.263L415.815 272.263L414.804 271.155ZM458.224 249.655L458 248.171L458 248.171L458.224 249.655ZM503.847 249.061L505.162 248.34L505.162 248.34L503.847 249.061ZM507.39 288.101L505.891 288.045L507.39 288.101ZM477.308 346.416L476.32 345.287L476.32 345.287L477.308 346.416ZM451.623 358.349L452.789 357.406L451.623 358.349ZM495.703 324.17L497.004 324.916L497.004 324.916L495.703 324.17ZM490.226 276.231L488.994 275.375L488.994 275.375L490.226 276.231ZM475.79 297.24L477.012 298.11L477.012 298.11L475.79 297.24ZM229.662 281.043L228.34 281.751L228.34 281.751L229.662 281.043ZM240.578 305.691L239.286 306.453L239.286 306.453L240.578 305.691ZM252.08 325.644L250.854 326.508L250.854 326.508L252.08 325.644ZM268.787 335.417L269.666 336.632L269.666 336.632L268.787 335.417ZM277.266 329.289L276.388 328.073L276.388 328.073L277.266 329.289ZM245.136 314.027L243.803 314.714L243.803 314.714L245.136 314.027ZM234.573 292.411L233.168 292.938L233.168 292.938L234.573 292.411ZM229.02 279.839L230.344 279.134L230.344 279.134L229.02 279.839ZM410.7 274.746L409.725 273.605L409.725 273.605L410.7 274.746ZM482.832 287.035L484.074 287.876L484.074 287.875L482.832 287.035ZM461.759 249.111L461.989 250.594L461.989 250.594L461.759 249.111ZM434.333 335.053L433.122 335.938L433.122 335.938L434.333 335.053ZM432.756 332.895L433.967 332.01L433.966 332.008L432.756 332.895ZM482.834 287.032L481.592 286.19L481.592 286.191L482.834 287.032ZM312.349 305.516C313.39 304.64 313.719 303.369 313.712 302.147C313.706 300.931 313.375 299.561 312.862 298.144C311.833 295.297 309.929 291.876 307.615 288.378C302.982 281.375 296.489 273.743 291.343 269.274L289.376 271.54C294.275 275.793 300.595 283.205 305.113 290.033C307.374 293.452 309.13 296.643 310.041 299.164C310.499 300.431 310.709 301.434 310.712 302.163C310.716 302.885 310.526 303.13 310.416 303.222L312.349 305.516ZM291.343 269.274C281.104 260.385 269.934 254.383 253.347 250.48L252.66 253.4C268.797 257.197 279.523 262.984 289.376 271.54L291.343 269.274ZM253.347 250.48C245.03 248.523 235.585 247.703 227.674 247.49C219.81 247.279 213.278 247.662 210.822 248.187L211.45 251.121C213.527 250.677 219.747 250.278 227.593 250.489C235.393 250.699 244.615 251.507 252.66 253.4L253.347 250.48ZM202.9 289.169C203.213 297.965 206.05 308.936 209.49 318.541C212.918 328.11 217.045 336.602 220.076 340.348L222.408 338.46C219.715 335.133 215.725 327.051 212.315 317.53C208.917 308.044 206.195 297.409 205.898 289.062L202.9 289.169ZM220.076 340.348C222.906 343.845 226.887 348.929 230.703 352.65C232.601 354.501 234.564 356.121 236.412 357.024C238.241 357.917 240.425 358.303 242.192 356.782L240.234 354.509C239.835 354.853 239.155 355.025 237.729 354.328C236.32 353.64 234.634 352.293 232.797 350.502C229.142 346.938 225.302 342.036 222.408 338.46L220.076 340.348ZM415.815 272.263C420.827 267.691 428.065 262.917 435.801 259.022C443.543 255.123 451.672 252.162 458.449 251.138L458 248.171C450.799 249.26 442.356 252.362 434.452 256.342C426.542 260.325 419.058 265.244 413.793 270.047L415.815 272.263ZM505.891 288.045C505.337 302.882 500.165 313.358 494.442 323.353L497.046 324.844C502.847 314.711 508.308 303.724 508.889 288.157L505.891 288.045ZM476.32 345.287C470.536 350.344 465.732 354.972 461.598 357.526C459.546 358.794 457.868 359.41 456.486 359.414C455.215 359.418 454.002 358.905 452.789 357.406L450.456 359.292C452.15 361.387 454.181 362.422 456.496 362.414C458.701 362.407 460.951 361.452 463.174 360.079C467.589 357.351 472.722 352.418 478.295 347.545L476.32 345.287ZM494.442 323.353L494.401 323.425L497.004 324.915L497.046 324.844L494.442 323.353ZM494.401 323.425C491.524 328.451 489.816 331.427 487.437 334.39C485.058 337.353 481.977 340.341 476.32 345.287L478.295 347.545C483.969 342.584 487.222 339.451 489.776 336.268C492.33 333.087 494.154 329.894 497.004 324.916L494.401 323.425ZM494.442 323.353C494.435 323.365 494.428 323.377 494.421 323.389C494.414 323.401 494.408 323.413 494.401 323.425L497.004 324.916C497.034 324.865 497.017 324.894 497.046 324.844L494.442 323.353ZM502.531 249.781C503.587 251.71 504.32 253.31 504.846 255.517C505.381 257.758 505.716 260.681 505.891 265.255L508.889 265.14C508.711 260.497 508.367 257.346 507.764 254.821C507.154 252.261 506.291 250.402 505.162 248.34L502.531 249.781ZM505.891 265.255C506.109 270.942 506.107 282.257 505.891 288.045L508.889 288.157C509.108 282.296 509.11 270.905 508.889 265.14L505.891 265.255ZM507.39 265.198C507.236 263.706 507.235 263.706 507.234 263.706C507.234 263.706 507.233 263.706 507.233 263.706C507.232 263.706 507.23 263.706 507.229 263.706C507.226 263.707 507.222 263.707 507.218 263.708C507.209 263.709 507.198 263.71 507.185 263.711C507.158 263.715 507.122 263.719 507.076 263.725C506.984 263.737 506.855 263.756 506.692 263.783C506.367 263.836 505.905 263.923 505.334 264.06C504.192 264.332 502.608 264.803 500.799 265.601C497.18 267.197 492.647 270.113 488.994 275.375L491.458 277.086C494.731 272.372 498.779 269.771 502.01 268.345C503.627 267.632 505.035 267.215 506.03 266.978C506.527 266.859 506.919 266.786 507.18 266.743C507.311 266.721 507.409 266.707 507.47 266.699C507.501 266.695 507.523 266.692 507.535 266.691C507.542 266.69 507.545 266.69 507.547 266.69C507.548 266.689 507.548 266.689 507.547 266.69C507.547 266.69 507.547 266.69 507.546 266.69C507.546 266.69 507.545 266.69 507.545 266.69C507.544 266.69 507.544 266.69 507.39 265.198ZM474.568 296.37C469.687 303.226 460.756 313.534 452.832 319.391L454.615 321.803C462.889 315.688 472.032 305.104 477.012 298.11L474.568 296.37ZM432.667 330.232C423.433 317.6 413.463 303.982 407.979 296.975L405.616 298.824C411.063 305.782 420.996 319.349 430.245 332.002L432.667 330.232ZM452.832 319.391C448.935 322.271 443.508 324.845 438.98 326.715C436.731 327.645 434.73 328.39 433.293 328.902C432.575 329.158 431.998 329.356 431.603 329.489C431.405 329.555 431.252 329.606 431.15 329.639C431.099 329.656 431.06 329.668 431.035 329.677C431.022 329.681 431.013 329.684 431.007 329.686C431.004 329.687 431.002 329.687 431.001 329.688C431 329.688 430.999 329.688 430.999 329.688C430.999 329.688 430.999 329.688 430.999 329.688C430.999 329.688 430.999 329.688 431.456 331.117C431.913 332.546 431.914 332.546 431.914 332.545C431.914 332.545 431.914 332.545 431.915 332.545C431.915 332.545 431.916 332.545 431.917 332.544C431.919 332.544 431.922 332.543 431.926 332.541C431.934 332.539 431.945 332.535 431.959 332.531C431.988 332.521 432.03 332.508 432.085 332.49C432.194 332.454 432.354 332.401 432.559 332.332C432.97 332.194 433.564 331.99 434.3 331.728C435.773 331.203 437.821 330.44 440.126 329.488C444.708 327.595 450.413 324.909 454.615 321.803L452.832 319.391ZM210.822 248.187C209.799 248.406 209.02 249.108 208.442 249.862C207.85 250.634 207.339 251.63 206.89 252.75C205.99 254.997 205.237 258.01 204.633 261.434L207.587 261.955C208.176 258.619 208.885 255.836 209.675 253.866C210.071 252.877 210.461 252.158 210.823 251.687C211.197 251.198 211.422 251.127 211.45 251.121L210.822 248.187ZM204.633 261.434C203.232 269.372 202.57 279.883 202.9 289.169L205.898 289.062C205.574 279.958 206.228 269.659 207.587 261.955L204.633 261.434ZM242.192 356.782C243.966 355.255 255.96 346.543 269.666 336.632L267.908 334.201C254.306 344.037 242.136 352.872 240.234 354.509L242.192 356.782ZM250.854 326.508C254.013 330.994 258.475 333.582 262.069 335.045C263.874 335.78 265.487 336.242 266.653 336.521C267.236 336.66 267.71 336.755 268.043 336.815C268.21 336.845 268.341 336.866 268.433 336.881C268.479 336.888 268.516 336.893 268.542 336.897C268.555 336.899 268.566 336.901 268.574 336.902C268.578 336.902 268.581 336.903 268.584 336.903C268.585 336.903 268.586 336.903 268.587 336.904C268.588 336.904 268.588 336.904 268.588 336.904C268.589 336.904 268.59 336.904 268.787 335.417C268.985 333.93 268.985 333.93 268.985 333.93C268.985 333.93 268.986 333.93 268.986 333.93C268.986 333.93 268.987 333.93 268.987 333.93C268.987 333.93 268.986 333.93 268.985 333.93C268.982 333.93 268.977 333.929 268.97 333.928C268.954 333.926 268.929 333.922 268.895 333.917C268.825 333.906 268.718 333.888 268.577 333.863C268.294 333.812 267.875 333.728 267.351 333.603C266.301 333.352 264.837 332.933 263.2 332.266C259.907 330.926 256.016 328.628 253.306 324.78L250.854 326.508ZM310.416 303.222C308.222 305.07 292.501 316.43 276.388 328.073L278.145 330.504C294.16 318.933 310.041 307.459 312.349 305.516L310.416 303.222ZM276.388 328.073C273.545 330.127 270.694 332.187 267.908 334.201L269.666 336.632C272.451 334.618 275.302 332.559 278.145 330.504L276.388 328.073ZM253.306 324.78C249.804 319.807 248.293 316.875 246.469 313.339L243.803 314.714C245.65 318.297 247.235 321.369 250.854 326.508L253.306 324.78ZM246.469 313.339C245.277 311.027 243.95 308.455 241.869 304.929L239.286 306.453C241.321 309.902 242.615 312.412 243.803 314.714L246.469 313.339ZM241.869 304.929C239.128 300.282 237.576 296.15 235.978 291.885L233.168 292.938C234.766 297.199 236.396 301.556 239.286 306.453L241.869 304.929ZM235.978 291.885C234.608 288.229 233.199 284.467 230.984 280.334L228.34 281.751C230.449 285.686 231.795 289.273 233.168 292.938L235.978 291.885ZM230.984 280.334C230.772 279.939 230.559 279.539 230.344 279.134L227.696 280.544C227.911 280.948 228.126 281.352 228.34 281.751L230.984 280.334ZM230.344 279.134C228.106 274.93 225.575 270.151 221.871 266.472C218.1 262.726 213.126 260.126 206.095 260.195L206.125 263.194C212.276 263.134 216.498 265.364 219.757 268.601C223.084 271.906 225.417 276.263 227.696 280.544L230.344 279.134ZM409.725 273.605C407.704 275.333 405.792 276.966 404.25 278.608C402.703 280.255 401.436 282.007 400.78 284.02C399.423 288.187 400.88 292.773 405.616 298.824L407.979 296.975C403.422 291.154 402.754 287.648 403.633 284.949C404.096 283.528 405.036 282.153 406.437 280.661C407.844 279.163 409.619 277.643 411.674 275.886L409.725 273.605ZM477.012 298.11C479.706 294.325 481.703 291.377 484.074 287.876L481.59 286.193C479.219 289.695 477.24 292.616 474.568 296.37L477.012 298.11ZM505.162 248.34C504.547 247.217 503.507 246.441 502.335 245.897C501.159 245.352 499.74 244.989 498.188 244.751C495.084 244.275 491.181 244.261 487.007 244.499C478.645 244.977 468.865 246.493 461.529 247.629L461.989 250.594C469.357 249.453 478.988 247.963 487.178 247.494C491.28 247.26 494.938 247.288 497.733 247.716C499.131 247.931 500.247 248.236 501.073 248.619C501.902 249.003 502.33 249.414 502.531 249.781L505.162 248.34ZM461.529 247.629C460.276 247.823 459.094 248.006 458 248.171L458.449 251.138C459.549 250.971 460.736 250.787 461.989 250.594L461.529 247.629ZM413.793 270.047C412.397 271.321 411.031 272.489 409.725 273.605L411.674 275.886C412.976 274.772 414.378 273.575 415.815 272.263L413.793 270.047ZM435.544 334.167C435.022 333.454 434.496 332.734 433.967 332.01L431.545 333.78C432.074 334.504 432.6 335.224 433.122 335.938L435.544 334.167ZM433.966 332.008L433.964 332.005L431.544 333.779L431.546 333.782L433.966 332.008ZM431.543 333.777C432.073 334.502 432.6 335.223 433.122 335.938L435.544 334.167C435.022 333.453 434.495 332.732 433.965 332.007L431.543 333.777ZM452.789 357.406C450.262 354.28 443.399 344.913 435.544 334.167L433.122 335.938C440.944 346.638 447.87 356.092 450.456 359.292L452.789 357.406ZM433.965 332.007C433.534 331.418 433.102 330.826 432.667 330.232L430.245 332.002C430.68 332.596 431.112 333.188 431.543 333.777L433.965 332.007ZM488.994 275.375C485.835 279.927 483.577 283.26 481.592 286.19L484.076 287.873C486.06 284.944 488.309 281.623 491.458 277.086L488.994 275.375ZM481.592 286.191L481.59 286.194L484.074 287.875L484.077 287.872L481.592 286.191ZM430.245 332.002L431.543 333.777L433.965 332.007L432.667 330.232L430.245 332.002ZM431.545 333.78L433.122 335.938L435.544 334.168L433.967 332.01L431.545 333.78Z" fill="black"/>
</svg>
