<svg width="701" height="901" viewBox="0 0 701 901" fill="none" xmlns="http://www.w3.org/2000/svg">
<path d="M311.383 305.03C315.984 301.155 300.405 279.791 290.359 271.068C280.313 262.346 269.365 256.451 253.003 252.601C236.642 248.751 215.669 249.345 211.136 250.315C206.604 251.285 203.79 272.634 204.399 289.776C205.008 306.919 215.518 332.991 221.242 340.065C226.966 347.139 236.882 360.036 241.213 356.307C245.544 352.577 306.781 308.905 311.383 305.03Z" fill="#83D6A7"/>
<path d="M406.798 298.561C396.018 284.79 404.527 281.191 414.804 271.816C425.081 262.441 444.246 252.429 458.224 250.316C472.202 248.202 500.303 243.253 503.847 249.722C507.39 256.191 507.957 273.561 507.39 288.762C506.823 303.964 501.506 314.695 495.744 324.76L495.703 324.832C489.976 334.835 488.639 337.17 477.308 347.077C465.95 357.007 457.436 366.2 451.623 359.01C445.81 351.82 417.577 312.332 406.798 298.561Z" fill="#83D6A7"/>
<path d="M495.744 324.76C501.506 314.695 506.823 303.964 507.39 288.762C507.957 273.561 507.39 256.191 503.847 249.722C500.303 243.253 472.202 248.202 458.224 250.316C444.246 252.429 425.081 262.441 414.804 271.816C404.527 281.191 396.018 284.79 406.798 298.561C417.577 312.332 445.81 351.82 451.623 359.01C457.436 366.2 465.95 357.007 477.308 347.077C488.639 337.17 489.976 334.835 495.703 324.832M495.744 324.76L495.703 324.832M495.744 324.76C495.73 324.784 495.716 324.808 495.703 324.832M311.383 305.03C315.984 301.155 300.405 279.791 290.359 271.068C280.313 262.346 269.365 256.451 253.003 252.601C236.642 248.751 215.669 249.345 211.136 250.315C206.604 251.285 203.79 272.634 204.399 289.776C205.008 306.919 215.518 332.991 221.242 340.065C226.966 347.139 236.882 360.036 241.213 356.307C245.544 352.577 306.781 308.905 311.383 305.03Z" stroke="black" stroke-width="3" stroke-linecap="round"/>
</svg>
