<svg width="701" height="901" viewBox="0 0 701 901" fill="none" xmlns="http://www.w3.org/2000/svg">
<path d="M433.972 283.188C433.972 283.188 426.825 290.671 422.786 294.872C418.746 299.073 411.948 305.239 411.948 305.239C411.948 305.239 414.532 307.167 418.075 310.321C421.618 313.476 425.731 316.767 425.731 316.767C425.731 316.767 431.082 312.797 434.722 309.593C438.362 306.39 443.361 300.421 447.535 295.422L447.917 294.964C451.84 290.267 453.907 287.791 457.387 282.9C460.979 277.852 463.794 271.98 465.395 266.544C466.997 261.108 467.34 253.247 471.851 252.034C476.361 250.821 481.326 258.857 485.912 268.181C490.499 277.505 493.493 287.246 494.099 291.946C494.706 296.645 494.478 308.168 493.076 314.611C491.674 321.055 488.414 326.854 485.078 331.933C481.743 337.012 477.612 341.674 475.338 345.236C473.063 348.799 470.031 353.044 470.031 353.044C473.947 355.689 481.261 361.829 486.113 364.165C486.113 364.165 493.384 352.856 497.796 346.143C502.209 339.429 507.056 333.838 510.909 326.538C514.762 319.238 515.943 312.086 517 301.149C518.056 290.211 516.502 277.409 513.644 268.482C510.785 259.556 502.519 242.917 499.101 237.324C495.683 231.731 475.859 211.595 465.729 216.008C455.599 220.42 450.588 239.451 449.384 244.098C448.18 248.745 447.009 260.873 444.102 268.482C441.194 276.092 433.972 283.188 433.972 283.188Z" fill="#FFE3E2"/>
<path d="M285.317 280.951C282.894 271.753 280.649 259.717 274.442 251.68C268.235 243.642 250.334 239.002 241.262 238.684C232.19 238.365 220.095 242.424 208.795 247.517C197.494 252.61 192.514 259.2 189.093 262.94C185.671 266.68 182.475 266.83 178.743 269.614C178.743 269.614 172.611 273.292 171.306 277.835C170.002 282.377 171.437 287.571 175.873 290.622C180.309 293.672 184.354 293.753 187.877 294.666C191.4 295.58 191.979 296.449 194.413 298.89C196.848 301.331 200.842 308.941 202.989 314.445C205.136 319.949 205.851 327.498 206.989 332.463C208.126 337.428 209.923 344.578 210.787 350.517C211.65 356.455 211.956 365.721 211.956 365.721L229.5 357.534L224.073 327.794C224.073 327.794 221.407 313.322 219.697 305.052C217.986 296.781 216.434 290.409 213.251 285.555C210.068 280.701 205.995 282.121 201.096 281.013C196.198 279.905 212.01 272.468 222.004 270.992C231.999 269.516 242.615 270.01 249.141 273.061C255.666 276.112 260.6 282.961 264.579 289.032C266.151 291.432 269.41 296.956 272.059 302.823C276.115 311.806 279.539 321.524 279.539 321.524L294.994 315.096C294.994 315.096 287.741 290.148 285.317 280.951Z" fill="#FFE3E2"/>
<path d="M243.013 327.794C246.514 335.052 249.857 341.498 249.857 341.498C249.857 341.498 260.855 333.613 267.443 329.004C267.443 329.004 265.693 326.219 263.305 321.922C260.918 317.625 258.936 314.273 256.541 308.871C256.541 308.871 250.414 297.412 246.992 293.672C243.57 289.932 238.955 285.873 235.135 287.362C231.315 288.85 232.27 294.627 233.384 300.356C234.498 306.086 236.488 311.179 236.488 311.179C236.488 311.179 239.512 320.536 243.013 327.794Z" fill="#FFE3E2"/>
<path d="M451.346 338.169C451.346 338.169 454.524 334.491 457.242 330.803C459.96 327.114 462.435 323.571 464.667 319.543C466.9 315.514 469.521 310.515 471.025 305.239C472.53 299.963 473.792 292.449 471.025 291.946C468.259 291.442 465.056 294.742 461.658 298.819C458.261 302.896 454.381 308.38 451.346 311.923C448.312 315.466 443.024 321.278 443.024 321.278L438.235 326.538C442.079 329.921 446.822 334.119 451.346 338.169Z" fill="#FFE3E2"/>
<path d="M224.073 327.794L229.5 357.534L249.857 341.498C249.857 341.498 246.514 335.052 243.013 327.794C239.512 320.536 236.488 311.179 236.488 311.179C236.488 311.179 234.498 306.086 233.384 300.356C232.27 294.627 231.315 288.85 235.135 287.362C238.955 285.873 243.57 289.932 246.992 293.672C250.414 297.412 256.541 308.871 256.541 308.871C258.936 314.273 260.918 317.625 263.305 321.922C265.693 326.219 267.443 329.004 267.443 329.004L279.539 321.524C279.539 321.524 276.115 311.806 272.059 302.823C269.41 296.956 266.151 291.432 264.579 289.032C260.6 282.961 255.666 276.112 249.141 273.061C242.615 270.01 231.999 269.516 222.004 270.992C212.01 272.468 196.198 279.905 201.096 281.013C205.995 282.121 210.068 280.701 213.251 285.555C216.434 290.409 217.986 296.781 219.697 305.052C221.407 313.322 224.073 327.794 224.073 327.794Z" fill="#F5BBA6"/>
<path d="M425.731 316.767C425.731 316.767 429.335 319.446 432.296 322.018C435.256 324.59 437.326 325.737 438.235 326.538L443.024 321.278C443.024 321.278 448.312 315.466 451.346 311.923C454.381 308.38 458.261 302.896 461.658 298.819C465.056 294.742 468.259 291.442 471.025 291.946C473.792 292.449 472.53 299.963 471.025 305.239C469.521 310.515 466.9 315.514 464.667 319.543C462.435 323.571 459.96 327.114 457.242 330.803C454.524 334.491 451.346 338.169 451.346 338.169C459.192 345.191 470.031 353.044 470.031 353.044C470.031 353.044 473.063 348.799 475.338 345.236C477.612 341.674 481.743 337.012 485.078 331.933C488.414 326.854 491.674 321.055 493.076 314.611C494.478 308.168 494.706 296.645 494.099 291.946C493.493 287.246 490.499 277.505 485.912 268.181C481.326 258.857 476.361 250.821 471.851 252.034C467.34 253.247 466.997 261.108 465.395 266.544C463.794 271.98 460.979 277.852 457.387 282.9C453.907 287.791 451.84 290.267 447.917 294.964L447.535 295.422C443.361 300.421 438.362 306.39 434.722 309.593C431.082 312.797 425.731 316.767 425.731 316.767Z" fill="#F5BBA6"/>
<path d="M178.743 269.614L179.515 270.901L179.58 270.862L179.641 270.817L178.743 269.614ZM211.956 365.721L210.457 365.77L210.532 368.041L212.591 367.08L211.956 365.721ZM229.5 357.534L230.134 358.893L230.291 358.82L230.428 358.712L229.5 357.534ZM224.073 327.794L225.549 327.525L225.549 327.522L224.073 327.794ZM264.579 289.032L265.833 288.21L264.579 289.032ZM294.994 315.096L295.57 316.481L296.809 315.966L296.434 314.678L294.994 315.096ZM236.488 311.179L237.915 310.718L237.901 310.675L237.885 310.633L236.488 311.179ZM256.541 308.871L257.913 308.263L257.89 308.213L257.864 308.164L256.541 308.871ZM272.059 302.823L270.692 303.441L272.059 302.823ZM433.972 283.188L432.921 282.118L432.904 282.135L432.887 282.152L433.972 283.188ZM486.113 364.165L485.462 365.517L486.657 366.092L487.374 364.976L486.113 364.165ZM470.031 353.044L469.151 354.259L469.171 354.273L469.192 354.287L470.031 353.044ZM411.948 305.239L410.94 304.128L409.59 305.352L411.051 306.442L411.948 305.239ZM425.731 316.767L424.794 317.939L424.815 317.955L424.837 317.971L425.731 316.767ZM457.387 282.9L458.61 283.77L457.387 282.9ZM443.024 321.278L444.133 322.288L444.133 322.288L443.024 321.278ZM447.917 294.964L446.766 294.002L447.917 294.964ZM286.768 280.569C285.578 276.053 284.382 270.634 282.728 265.426C281.067 260.196 278.889 254.985 275.629 250.763L273.255 252.597C276.201 256.412 278.25 261.238 279.869 266.334C281.495 271.453 282.633 276.65 283.867 281.333L286.768 280.569ZM275.629 250.763C272.245 246.381 265.861 243.094 259.416 240.869C252.914 238.624 246.023 237.35 241.315 237.185L241.21 240.183C245.573 240.336 252.169 241.541 258.437 243.705C264.762 245.889 270.432 248.941 273.255 252.597L275.629 250.763ZM241.315 237.185C231.867 236.853 219.494 241.049 208.178 246.15L209.411 248.885C220.695 243.799 232.514 239.878 241.21 240.183L241.315 237.185ZM208.178 246.15C196.55 251.39 191.371 258.227 187.986 261.927L190.199 263.952C193.658 260.172 198.439 253.83 209.411 248.885L208.178 246.15ZM187.986 261.927C186.447 263.609 184.972 264.483 183.359 265.296C181.756 266.104 179.849 266.918 177.846 268.412L179.641 270.817C181.37 269.526 182.926 268.873 184.709 267.975C186.483 267.081 188.316 266.011 190.199 263.952L187.986 261.927ZM178.743 269.614C177.972 268.328 177.972 268.328 177.971 268.328C177.971 268.329 177.971 268.329 177.971 268.329C177.97 268.329 177.969 268.33 177.969 268.33C177.967 268.331 177.965 268.332 177.963 268.333C177.958 268.336 177.952 268.34 177.945 268.344C177.93 268.353 177.91 268.366 177.884 268.382C177.832 268.414 177.759 268.46 177.666 268.52C177.482 268.638 177.221 268.81 176.906 269.03C176.278 269.469 175.425 270.105 174.525 270.893C172.778 272.425 170.641 274.718 169.865 277.421L172.748 278.249C173.276 276.409 174.857 274.592 176.503 273.149C177.3 272.45 178.062 271.883 178.624 271.49C178.904 271.294 179.133 271.143 179.289 271.043C179.366 270.993 179.426 270.956 179.465 270.932C179.484 270.92 179.498 270.911 179.507 270.906C179.511 270.903 179.514 270.902 179.515 270.901C179.516 270.9 179.516 270.9 179.516 270.9C179.516 270.9 179.516 270.9 179.516 270.9C179.516 270.9 179.516 270.9 179.515 270.901C179.515 270.901 179.515 270.901 178.743 269.614ZM169.865 277.421C168.397 282.529 170.011 288.411 175.023 291.858L176.723 289.386C172.863 286.731 171.606 282.224 172.748 278.249L169.865 277.421ZM175.023 291.858C179.75 295.107 184.327 295.296 187.501 296.118L188.254 293.214C184.382 292.211 180.869 292.236 176.723 289.386L175.023 291.858ZM187.501 296.118C189.167 296.55 189.997 296.936 190.68 297.425C191.437 297.967 192.059 298.653 193.351 299.949L195.475 297.831C194.334 296.686 193.448 295.717 192.427 294.986C191.331 294.201 190.111 293.696 188.254 293.214L187.501 296.118ZM193.351 299.949C194.4 301 195.919 303.337 197.491 306.234C199.035 309.081 200.543 312.303 201.592 314.99L204.386 313.9C203.288 311.083 201.725 307.748 200.127 304.803C198.557 301.909 196.862 299.221 195.475 297.831L193.351 299.949ZM201.592 314.99C202.61 317.602 203.306 320.747 203.892 323.928C204.466 327.041 204.949 330.278 205.526 332.798L208.451 332.128C207.891 329.683 207.447 326.663 206.843 323.384C206.251 320.174 205.515 316.793 204.386 313.9L201.592 314.99ZM205.526 332.798C206.676 337.817 208.45 344.873 209.303 350.733L212.271 350.301C211.396 344.283 209.575 337.039 208.451 332.128L205.526 332.798ZM209.303 350.733C209.725 353.636 210.014 357.385 210.198 360.436C210.29 361.955 210.355 363.291 210.397 364.246C210.418 364.723 210.433 365.105 210.443 365.368C210.448 365.499 210.451 365.6 210.454 365.668C210.455 365.702 210.456 365.728 210.456 365.745C210.457 365.754 210.457 365.76 210.457 365.764C210.457 365.766 210.457 365.768 210.457 365.769C210.457 365.769 210.457 365.77 210.457 365.77C210.457 365.77 210.457 365.77 210.457 365.77C210.457 365.77 210.457 365.77 211.956 365.721C213.456 365.671 213.456 365.671 213.456 365.671C213.456 365.671 213.456 365.671 213.456 365.67C213.456 365.67 213.456 365.67 213.456 365.669C213.456 365.668 213.455 365.666 213.455 365.664C213.455 365.659 213.455 365.652 213.455 365.643C213.454 365.624 213.453 365.597 213.452 365.562C213.449 365.492 213.446 365.388 213.441 365.254C213.43 364.986 213.415 364.598 213.394 364.114C213.351 363.147 213.286 361.795 213.193 360.255C213.008 357.188 212.713 353.335 212.271 350.301L209.303 350.733ZM212.591 367.08L230.134 358.893L228.865 356.175L211.322 364.361L212.591 367.08ZM230.975 357.265L225.549 327.525L222.598 328.063L228.024 357.803L230.975 357.265ZM224.073 327.794C225.549 327.522 225.549 327.522 225.549 327.522C225.549 327.522 225.549 327.522 225.548 327.522C225.548 327.521 225.548 327.521 225.548 327.52C225.548 327.518 225.547 327.515 225.547 327.512C225.545 327.505 225.543 327.494 225.541 327.48C225.536 327.453 225.528 327.411 225.518 327.357C225.498 327.249 225.469 327.089 225.43 326.883C225.354 326.471 225.243 325.873 225.105 325.129C224.828 323.642 224.441 321.573 224 319.245C223.12 314.593 222.023 308.897 221.166 304.748L218.228 305.355C219.08 309.477 220.172 315.152 221.053 319.803C221.492 322.127 221.879 324.193 222.155 325.678C222.294 326.421 222.404 327.018 222.481 327.429C222.519 327.635 222.548 327.794 222.568 327.902C222.578 327.956 222.586 327.997 222.591 328.025C222.593 328.038 222.595 328.049 222.596 328.056C222.597 328.059 222.597 328.062 222.598 328.063C222.598 328.064 222.598 328.065 222.598 328.065C222.598 328.066 222.598 328.066 222.598 328.066C222.598 328.066 222.598 328.066 224.073 327.794ZM221.166 304.748C219.464 296.52 217.87 289.863 214.505 284.732L211.996 286.378C214.998 290.955 216.509 297.041 218.228 305.355L221.166 304.748ZM214.505 284.732C212.656 281.912 210.458 280.86 208.1 280.406C206.991 280.193 205.827 280.108 204.746 280.013C203.633 279.915 202.546 279.803 201.427 279.55L200.766 282.476C202.096 282.777 203.355 282.902 204.483 283.002C205.643 283.103 206.614 283.175 207.533 283.352C209.233 283.679 210.663 284.344 211.996 286.378L214.505 284.732ZM201.427 279.55C201.225 279.504 201.236 279.474 201.327 279.544C201.463 279.648 201.657 279.892 201.676 280.244C201.691 280.522 201.583 280.661 201.617 280.607C201.643 280.566 201.725 280.459 201.908 280.29C202.68 279.579 204.331 278.579 206.61 277.495C211.108 275.357 217.414 273.187 222.224 272.476L221.785 269.508C216.601 270.274 210.004 272.56 205.322 274.786C203.011 275.885 201.003 277.044 199.874 278.085C199.583 278.353 199.3 278.659 199.084 278.999C198.877 279.326 198.649 279.815 198.681 280.406C198.717 281.07 199.064 281.588 199.501 281.924C199.894 282.226 200.356 282.383 200.766 282.476L201.427 279.55ZM222.224 272.476C232.108 271.016 242.374 271.554 248.505 274.42L249.776 271.702C242.856 268.467 231.89 268.016 221.785 269.508L222.224 272.476ZM248.505 274.42C254.592 277.266 259.319 283.744 263.324 289.855L265.833 288.21C261.88 282.178 256.74 274.958 249.776 271.702L248.505 274.42ZM280.115 322.909L295.57 316.481L294.418 313.711L278.963 320.139L280.115 322.909ZM294.994 315.096C296.434 314.678 296.434 314.678 296.434 314.677C296.434 314.677 296.434 314.677 296.434 314.677C296.433 314.676 296.433 314.675 296.433 314.673C296.432 314.67 296.43 314.666 296.429 314.66C296.425 314.648 296.42 314.63 296.413 314.606C296.399 314.559 296.379 314.488 296.352 314.396C296.298 314.211 296.219 313.939 296.118 313.589C295.915 312.889 295.622 311.879 295.264 310.638C294.546 308.156 293.564 304.751 292.506 301.06C290.389 293.67 287.975 285.149 286.768 280.569L283.867 281.333C285.084 285.95 287.507 294.503 289.622 301.886C290.681 305.581 291.664 308.988 292.382 311.471C292.741 312.713 293.033 313.724 293.237 314.424C293.338 314.774 293.417 315.047 293.471 315.232C293.498 315.325 293.518 315.396 293.532 315.443C293.539 315.467 293.544 315.485 293.548 315.497C293.55 315.503 293.551 315.507 293.552 315.511C293.552 315.512 293.553 315.513 293.553 315.514C293.553 315.514 293.553 315.515 293.553 315.515C293.553 315.515 293.553 315.515 294.994 315.096ZM230.428 358.712L250.785 342.676L248.929 340.32L228.571 356.356L230.428 358.712ZM249.857 341.498C251.188 340.808 251.188 340.808 251.188 340.808C251.188 340.808 251.188 340.807 251.188 340.807C251.188 340.807 251.188 340.807 251.188 340.807C251.187 340.806 251.187 340.805 251.186 340.803C251.185 340.8 251.182 340.796 251.179 340.79C251.173 340.777 251.163 340.759 251.151 340.735C251.126 340.686 251.088 340.614 251.039 340.519C250.942 340.33 250.798 340.051 250.615 339.693C250.248 338.978 249.722 337.948 249.087 336.691C247.816 334.178 246.109 330.761 244.364 327.142L241.662 328.446C243.418 332.086 245.133 335.521 246.409 338.045C247.047 339.307 247.576 340.342 247.945 341.062C248.13 341.422 248.274 341.703 248.373 341.895C248.423 341.99 248.46 342.064 248.486 342.113C248.499 342.138 248.508 342.157 248.515 342.169C248.518 342.175 248.521 342.18 248.522 342.184C248.523 342.185 248.524 342.186 248.524 342.187C248.525 342.188 248.525 342.188 248.525 342.188C248.525 342.188 248.525 342.188 248.525 342.188C248.525 342.189 248.525 342.189 249.857 341.498ZM244.364 327.142C242.644 323.577 241.032 319.475 239.845 316.247C239.253 314.637 238.77 313.252 238.434 312.27C238.267 311.779 238.136 311.389 238.048 311.123C238.004 310.99 237.971 310.888 237.948 310.819C237.937 310.785 237.928 310.759 237.923 310.742C237.92 310.734 237.918 310.727 237.917 310.723C237.916 310.721 237.916 310.72 237.915 310.719C237.915 310.718 237.915 310.718 237.915 310.718C237.915 310.718 237.915 310.718 237.915 310.718C237.915 310.718 237.915 310.718 236.488 311.179C235.06 311.64 235.06 311.64 235.06 311.641C235.06 311.641 235.061 311.641 235.061 311.641C235.061 311.641 235.061 311.642 235.061 311.643C235.062 311.644 235.062 311.646 235.063 311.648C235.065 311.653 235.067 311.66 235.07 311.67C235.076 311.689 235.085 311.716 235.097 311.752C235.12 311.824 235.155 311.93 235.201 312.067C235.291 312.341 235.425 312.739 235.595 313.239C235.937 314.239 236.428 315.646 237.029 317.282C238.23 320.547 239.881 324.753 241.662 328.446L244.364 327.142ZM236.488 311.179C237.885 310.633 237.885 310.633 237.885 310.633C237.885 310.633 237.885 310.634 237.885 310.634C237.885 310.634 237.885 310.633 237.885 310.633C237.885 310.633 237.885 310.633 237.884 310.632C237.884 310.63 237.882 310.627 237.881 310.623C237.878 310.614 237.872 310.601 237.866 310.583C237.852 310.548 237.831 310.493 237.804 310.421C237.75 310.277 237.67 310.062 237.571 309.786C237.372 309.233 237.094 308.435 236.782 307.459C236.157 305.504 235.399 302.858 234.857 300.07L231.912 300.643C232.484 303.584 233.277 306.35 233.925 308.373C234.25 309.387 234.539 310.22 234.748 310.801C234.852 311.092 234.937 311.32 234.996 311.477C235.025 311.555 235.049 311.616 235.065 311.658C235.073 311.678 235.079 311.695 235.083 311.706C235.085 311.711 235.087 311.716 235.088 311.719C235.089 311.721 235.089 311.722 235.09 311.723C235.09 311.723 235.09 311.724 235.09 311.724C235.09 311.724 235.09 311.724 235.09 311.724C235.09 311.725 235.09 311.725 236.488 311.179ZM234.857 300.07C234.293 297.171 233.817 294.471 233.908 292.332C233.999 290.189 234.614 289.174 235.679 288.759L234.59 285.964C231.835 287.037 231.019 289.655 230.911 292.205C230.802 294.759 231.361 297.813 231.912 300.643L234.857 300.07ZM235.679 288.759C236.918 288.277 238.49 288.615 240.414 289.826C242.3 291.013 244.201 292.843 245.885 294.684L248.099 292.659C246.361 290.76 244.244 288.692 242.012 287.287C239.817 285.905 237.172 284.958 234.59 285.964L235.679 288.759ZM245.885 294.684C247.472 296.418 249.782 300.077 251.757 303.434C252.728 305.087 253.595 306.624 254.218 307.75C254.53 308.312 254.781 308.77 254.953 309.088C255.04 309.246 255.106 309.37 255.151 309.453C255.174 309.495 255.191 309.527 255.202 309.548C255.208 309.558 255.212 309.566 255.215 309.571C255.216 309.574 255.217 309.576 255.218 309.577C255.218 309.578 255.218 309.578 255.218 309.578C255.218 309.578 255.218 309.578 255.218 309.579C255.218 309.579 255.218 309.579 256.541 308.871C257.864 308.164 257.864 308.164 257.864 308.164C257.864 308.164 257.864 308.163 257.864 308.163C257.863 308.163 257.863 308.162 257.863 308.161C257.862 308.16 257.861 308.158 257.859 308.155C257.856 308.149 257.851 308.14 257.845 308.129C257.833 308.106 257.815 308.073 257.792 308.03C257.746 307.944 257.677 307.817 257.589 307.655C257.413 307.331 257.159 306.866 256.842 306.295C256.21 305.155 255.331 303.594 254.343 301.914C252.398 298.606 249.934 294.666 248.099 292.659L245.885 294.684ZM255.17 309.479C257.598 314.957 259.62 318.377 261.994 322.65L264.617 321.194C262.216 316.872 260.274 313.589 257.913 308.263L255.17 309.479ZM261.994 322.65C263.196 324.815 264.239 326.599 264.982 327.843C265.353 328.466 265.65 328.953 265.854 329.287C265.956 329.453 266.035 329.581 266.089 329.668C266.116 329.711 266.137 329.745 266.151 329.767C266.158 329.778 266.164 329.787 266.167 329.793C266.169 329.796 266.171 329.798 266.172 329.8C266.172 329.801 266.173 329.801 266.173 329.802C266.173 329.802 266.173 329.802 266.173 329.802C266.173 329.802 266.173 329.803 266.173 329.803C266.173 329.803 266.173 329.803 267.443 329.004C268.713 328.206 268.713 328.206 268.713 328.206C268.713 328.206 268.713 328.206 268.713 328.206C268.713 328.206 268.713 328.206 268.713 328.206C268.713 328.206 268.713 328.205 268.713 328.205C268.712 328.204 268.711 328.202 268.709 328.2C268.706 328.195 268.702 328.187 268.695 328.177C268.682 328.157 268.663 328.126 268.638 328.085C268.586 328.002 268.51 327.879 268.411 327.718C268.213 327.394 267.922 326.917 267.558 326.306C266.828 325.084 265.802 323.327 264.617 321.194L261.994 322.65ZM268.232 330.28L280.328 322.8L278.75 320.248L266.654 327.729L268.232 330.28ZM249.857 341.498C250.731 342.717 250.731 342.717 250.731 342.717C250.731 342.717 250.731 342.717 250.731 342.717C250.732 342.717 250.732 342.716 250.733 342.716C250.734 342.715 250.736 342.713 250.739 342.711C250.744 342.708 250.752 342.702 250.762 342.694C250.783 342.679 250.815 342.657 250.856 342.628C250.938 342.569 251.059 342.482 251.216 342.37C251.529 342.145 251.984 341.819 252.551 341.414C253.684 340.603 255.264 339.474 257.05 338.201C260.623 335.654 265.015 332.534 268.303 330.234L266.584 327.775C263.284 330.084 258.882 333.21 255.309 335.758C253.521 337.032 251.94 338.162 250.805 338.974C250.238 339.38 249.783 339.706 249.469 339.931C249.312 340.043 249.19 340.13 249.108 340.189C249.067 340.219 249.036 340.241 249.015 340.256C249.004 340.264 248.996 340.269 248.991 340.273C248.988 340.275 248.986 340.277 248.985 340.278C248.984 340.278 248.984 340.278 248.983 340.279C248.983 340.279 248.983 340.279 248.983 340.279C248.983 340.279 248.983 340.279 249.857 341.498ZM263.324 289.855C264.859 292.198 268.079 297.653 270.692 303.441L273.426 302.206C270.74 296.258 267.442 290.665 265.833 288.21L263.324 289.855ZM270.692 303.441C272.703 307.895 274.562 312.541 275.919 316.08C276.598 317.847 277.15 319.335 277.532 320.38C277.723 320.903 277.872 321.315 277.972 321.595C278.022 321.735 278.061 321.843 278.086 321.915C278.099 321.951 278.109 321.978 278.115 321.996C278.118 322.005 278.121 322.012 278.122 322.016C278.123 322.019 278.124 322.02 278.124 322.021C278.124 322.022 278.124 322.022 278.124 322.022C278.124 322.023 278.124 322.023 278.124 322.023C278.124 322.023 278.124 322.023 279.539 321.524C280.954 321.026 280.954 321.025 280.954 321.025C280.954 321.025 280.954 321.025 280.954 321.025C280.954 321.025 280.953 321.024 280.953 321.023C280.953 321.022 280.952 321.02 280.951 321.018C280.949 321.013 280.947 321.005 280.943 320.996C280.937 320.976 280.926 320.948 280.913 320.911C280.887 320.836 280.847 320.726 280.796 320.583C280.694 320.297 280.543 319.879 280.35 319.35C279.963 318.293 279.405 316.79 278.72 315.005C277.352 311.438 275.47 306.734 273.426 302.206L270.692 303.441ZM423.867 295.912C425.888 293.81 428.686 290.887 430.977 288.492C432.124 287.293 433.143 286.227 433.876 285.459C434.243 285.076 434.538 284.767 434.741 284.554C434.843 284.448 434.922 284.365 434.975 284.309C435.002 284.281 435.022 284.26 435.036 284.246C435.043 284.239 435.048 284.233 435.051 284.23C435.053 284.228 435.054 284.227 435.055 284.226C435.056 284.225 435.056 284.225 435.056 284.225C435.056 284.225 435.056 284.224 435.057 284.224C435.057 284.224 435.057 284.224 433.972 283.188C432.887 282.152 432.887 282.152 432.887 282.152C432.887 282.152 432.887 282.152 432.887 282.153C432.887 282.153 432.886 282.153 432.886 282.154C432.885 282.154 432.884 282.156 432.882 282.158C432.879 282.161 432.873 282.167 432.867 282.174C432.853 282.188 432.833 282.209 432.806 282.237C432.753 282.293 432.674 282.375 432.572 282.482C432.369 282.695 432.074 283.003 431.708 283.387C430.975 284.154 429.955 285.22 428.81 286.418C426.518 288.814 423.723 291.733 421.704 293.832L423.867 295.912ZM433.972 283.188C435.023 284.258 435.023 284.258 435.024 284.258C435.024 284.258 435.024 284.257 435.024 284.257C435.025 284.257 435.025 284.256 435.026 284.255C435.027 284.254 435.029 284.252 435.031 284.25C435.036 284.246 435.042 284.24 435.05 284.232C435.065 284.216 435.088 284.194 435.117 284.165C435.174 284.107 435.257 284.023 435.363 283.914C435.575 283.697 435.878 283.38 436.249 282.977C436.991 282.172 438.009 281.019 439.12 279.623C441.327 276.85 443.969 273.033 445.503 269.018L442.701 267.947C441.327 271.541 438.904 275.077 436.773 277.755C435.715 279.084 434.746 280.181 434.043 280.944C433.691 281.325 433.407 281.623 433.213 281.823C433.115 281.923 433.04 281.998 432.991 282.048C432.966 282.073 432.947 282.092 432.936 282.103C432.93 282.109 432.926 282.113 432.923 282.116C432.922 282.117 432.921 282.118 432.92 282.118C432.92 282.119 432.92 282.119 432.92 282.119C432.92 282.119 432.92 282.119 432.92 282.119C432.92 282.118 432.921 282.118 433.972 283.188ZM445.503 269.018C447.013 265.066 448.052 260.007 448.859 255.44C449.684 250.772 450.254 246.723 450.836 244.474L447.932 243.722C447.311 246.12 446.693 250.459 445.905 254.918C445.098 259.48 444.098 264.288 442.701 267.947L445.503 269.018ZM450.836 244.474C451.435 242.162 452.963 236.349 455.576 230.584C456.881 227.703 458.439 224.876 460.258 222.522C462.082 220.16 464.108 218.35 466.328 217.383L465.13 214.632C462.284 215.872 459.886 218.095 457.883 220.688C455.876 223.288 454.207 226.337 452.843 229.346C450.117 235.361 448.537 241.388 447.932 243.722L450.836 244.474ZM466.328 217.383C468.309 216.52 470.975 216.782 474.172 218.08C477.329 219.362 480.74 221.549 484.01 224.097C490.58 229.216 496.241 235.52 497.821 238.106L500.381 236.542C498.544 233.536 492.584 226.974 485.854 221.731C482.474 219.097 478.816 216.728 475.3 215.3C471.824 213.889 468.213 213.289 465.13 214.632L466.328 217.383ZM497.821 238.106C501.195 243.627 509.402 260.156 512.215 268.94L515.072 268.025C512.168 258.956 503.844 242.208 500.381 236.542L497.821 238.106ZM512.215 268.94C515.012 277.673 516.543 290.271 515.507 301.004L518.493 301.293C519.569 290.151 517.993 277.144 515.072 268.025L512.215 268.94ZM515.507 301.004C514.452 311.918 513.289 318.815 509.583 325.838L512.236 327.238C516.235 319.66 517.434 312.255 518.493 301.293L515.507 301.004ZM509.583 325.838C507.703 329.399 505.573 332.558 503.341 335.69C501.125 338.798 498.77 341.931 496.543 345.319L499.05 346.967C501.236 343.641 503.51 340.622 505.784 337.431C508.042 334.263 510.263 330.976 512.236 327.238L509.583 325.838ZM496.543 345.319C494.333 348.681 491.41 353.19 489.04 356.857C487.855 358.691 486.808 360.315 486.057 361.481C485.681 362.064 485.38 362.532 485.172 362.854C485.069 363.016 484.988 363.14 484.934 363.225C484.907 363.267 484.886 363.3 484.872 363.321C484.865 363.332 484.86 363.34 484.856 363.346C484.855 363.348 484.853 363.35 484.852 363.352C484.852 363.353 484.852 363.353 484.851 363.353C484.851 363.354 484.851 363.354 484.851 363.354C484.851 363.354 484.851 363.354 486.113 364.165C487.374 364.976 487.375 364.976 487.375 364.976C487.375 364.976 487.375 364.976 487.375 364.976C487.375 364.976 487.375 364.975 487.376 364.974C487.377 364.973 487.378 364.971 487.38 364.968C487.383 364.963 487.388 364.955 487.395 364.944C487.409 364.922 487.43 364.89 487.457 364.848C487.511 364.764 487.592 364.639 487.695 364.478C487.903 364.156 488.204 363.688 488.579 363.106C489.329 361.941 490.376 360.318 491.56 358.486C493.929 354.819 496.847 350.318 499.05 346.967L496.543 345.319ZM419.073 309.201C417.28 307.605 415.728 306.318 414.623 305.429C414.07 304.984 413.629 304.638 413.324 304.403C413.172 304.285 413.053 304.194 412.972 304.133C412.932 304.102 412.901 304.079 412.879 304.063C412.868 304.055 412.86 304.048 412.854 304.044C412.851 304.042 412.849 304.04 412.847 304.039C412.847 304.038 412.846 304.038 412.845 304.037C412.845 304.037 412.845 304.037 412.845 304.037C412.845 304.037 412.845 304.037 412.845 304.037C412.844 304.037 412.844 304.037 411.948 305.239C411.051 306.442 411.051 306.441 411.051 306.441C411.051 306.441 411.051 306.441 411.051 306.441C411.051 306.441 411.051 306.441 411.051 306.441C411.051 306.441 411.051 306.442 411.052 306.442C411.052 306.443 411.054 306.444 411.056 306.445C411.06 306.448 411.067 306.453 411.076 306.46C411.094 306.474 411.122 306.495 411.159 306.523C411.233 306.579 411.345 306.664 411.49 306.777C411.78 307.001 412.206 307.334 412.743 307.766C413.815 308.629 415.328 309.884 417.078 311.442L419.073 309.201ZM411.948 305.239C412.955 306.35 412.955 306.35 412.956 306.35C412.956 306.35 412.956 306.35 412.956 306.35C412.956 306.35 412.956 306.349 412.957 306.349C412.958 306.348 412.959 306.347 412.961 306.345C412.964 306.342 412.969 306.338 412.976 306.332C412.989 306.32 413.009 306.302 413.034 306.278C413.086 306.232 413.161 306.163 413.259 306.074C413.454 305.896 413.736 305.638 414.088 305.314C414.791 304.668 415.771 303.763 416.878 302.725C419.086 300.655 421.819 298.041 423.867 295.912L421.704 293.832C419.713 295.903 417.027 298.473 414.826 300.536C413.728 301.566 412.756 302.464 412.058 303.105C411.709 303.426 411.429 303.682 411.237 303.858C411.14 303.946 411.066 304.013 411.016 304.059C410.991 304.082 410.971 304.099 410.959 304.111C410.952 304.117 410.948 304.121 410.944 304.124C410.943 304.125 410.942 304.126 410.941 304.127C410.941 304.127 410.94 304.128 410.94 304.128C410.94 304.128 410.94 304.128 410.94 304.128C410.94 304.128 410.94 304.128 411.948 305.239ZM433.279 320.886C431.771 319.575 430.106 318.244 428.826 317.245C428.184 316.745 427.636 316.325 427.247 316.031C427.053 315.884 426.898 315.767 426.792 315.688C426.739 315.648 426.698 315.617 426.67 315.596C426.656 315.586 426.645 315.578 426.638 315.572C426.634 315.569 426.631 315.567 426.629 315.566C426.629 315.565 426.628 315.565 426.627 315.564C426.627 315.564 426.627 315.564 426.627 315.564C426.626 315.564 426.626 315.564 426.626 315.564C426.626 315.563 426.626 315.563 425.731 316.767C424.837 317.971 424.837 317.971 424.837 317.971C424.837 317.971 424.837 317.971 424.837 317.971C424.837 317.971 424.837 317.971 424.837 317.972C424.837 317.972 424.838 317.972 424.839 317.973C424.84 317.974 424.843 317.976 424.846 317.978C424.852 317.983 424.862 317.99 424.875 318C424.902 318.02 424.941 318.049 424.992 318.087C425.094 318.164 425.245 318.277 425.434 318.421C425.814 318.709 426.352 319.12 426.981 319.611C428.242 320.595 429.86 321.889 431.312 323.15L433.279 320.886ZM425.731 316.767C426.669 315.596 426.669 315.596 426.669 315.596C426.669 315.596 426.669 315.596 426.669 315.596C426.668 315.596 426.668 315.596 426.668 315.596C426.668 315.595 426.667 315.595 426.666 315.594C426.664 315.593 426.661 315.59 426.658 315.587C426.65 315.581 426.639 315.572 426.623 315.56C426.593 315.535 426.548 315.499 426.489 315.452C426.371 315.356 426.198 315.217 425.979 315.039C425.541 314.684 424.919 314.177 424.188 313.572C422.724 312.36 420.825 310.761 419.073 309.201L417.078 311.442C418.868 313.036 420.798 314.66 422.276 315.883C423.016 316.495 423.644 317.008 424.088 317.369C424.31 317.549 424.486 317.691 424.607 317.788C424.667 317.837 424.714 317.874 424.745 317.899C424.761 317.912 424.773 317.922 424.781 317.928C424.786 317.932 424.789 317.934 424.791 317.936C424.792 317.937 424.793 317.937 424.793 317.938C424.794 317.938 424.794 317.938 424.794 317.938C424.794 317.938 424.794 317.938 424.794 317.938C424.794 317.939 424.794 317.939 425.731 316.767ZM425.731 316.767C426.625 317.972 426.625 317.972 426.625 317.972C426.626 317.972 426.626 317.972 426.626 317.972C426.626 317.971 426.626 317.971 426.627 317.971C426.627 317.97 426.628 317.97 426.63 317.969C426.633 317.967 426.637 317.964 426.642 317.96C426.653 317.952 426.668 317.94 426.689 317.925C426.73 317.894 426.79 317.849 426.867 317.791C427.023 317.675 427.248 317.506 427.529 317.293C428.092 316.868 428.88 316.267 429.782 315.566C431.582 314.167 433.858 312.352 435.713 310.719L433.731 308.467C431.946 310.038 429.727 311.81 427.941 313.197C427.051 313.889 426.274 314.481 425.72 314.9C425.443 315.11 425.221 315.276 425.07 315.39C424.994 315.446 424.935 315.49 424.896 315.519C424.877 315.534 424.862 315.545 424.852 315.552C424.847 315.556 424.843 315.559 424.841 315.56C424.84 315.561 424.839 315.562 424.838 315.562C424.838 315.562 424.838 315.563 424.838 315.563C424.838 315.563 424.838 315.563 424.838 315.563C424.838 315.563 424.838 315.563 425.731 316.767ZM435.713 310.719C439.461 307.422 444.545 301.343 448.687 296.383L446.384 294.46C442.177 299.498 437.264 305.359 433.731 308.467L435.713 310.719ZM458.61 283.77C462.297 278.588 465.185 272.565 466.834 266.968L463.957 266.12C462.402 271.395 459.661 277.117 456.165 282.03L458.61 283.77ZM466.834 266.968C467.254 265.545 467.587 263.974 467.912 262.471C468.242 260.941 468.564 259.471 468.967 258.142C469.817 255.348 470.835 253.861 472.24 253.483L471.461 250.586C468.356 251.421 466.947 254.471 466.097 257.27C465.651 258.737 465.305 260.327 464.979 261.838C464.648 263.375 464.338 264.826 463.957 266.12L466.834 266.968ZM472.24 253.483C472.846 253.32 473.573 253.423 474.513 254.008C475.474 254.606 476.535 255.636 477.674 257.084C479.949 259.975 482.279 264.193 484.566 268.843L487.258 267.519C484.959 262.844 482.514 258.383 480.032 255.229C478.793 253.654 477.48 252.32 476.098 251.461C474.695 250.589 473.11 250.142 471.461 250.586L472.24 253.483ZM484.566 268.843C489.108 278.077 492.033 287.655 492.612 292.138L495.587 291.754C494.952 286.837 491.889 276.932 487.258 267.519L484.566 268.843ZM492.612 292.138C492.899 294.366 492.997 298.326 492.842 302.57C492.687 306.81 492.284 311.199 491.61 314.292L494.542 314.93C495.271 311.58 495.682 306.986 495.84 302.679C495.997 298.376 495.906 294.225 495.587 291.754L492.612 292.138ZM491.61 314.292C490.267 320.462 487.13 326.076 483.825 331.109L486.332 332.756C489.698 327.632 493.08 321.647 494.542 314.93L491.61 314.292ZM483.825 331.109C482.193 333.595 480.359 335.988 478.623 338.236C476.907 340.458 475.255 342.578 474.073 344.429L476.602 346.043C477.694 344.332 479.245 342.339 480.997 340.07C482.729 337.827 484.629 335.35 486.332 332.756L483.825 331.109ZM486.763 362.814C484.481 361.715 481.545 359.677 478.612 357.514C475.748 355.401 472.861 353.145 470.871 351.801L469.192 354.287C471.118 355.588 473.845 357.725 476.831 359.928C479.747 362.079 482.893 364.28 485.462 365.517L486.763 362.814ZM474.073 344.429C472.951 346.188 471.636 348.122 470.598 349.623C470.08 350.372 469.632 351.01 469.315 351.461C469.156 351.686 469.029 351.865 468.943 351.987C468.9 352.047 468.866 352.094 468.844 352.126C468.833 352.141 468.824 352.153 468.819 352.161C468.816 352.165 468.814 352.168 468.813 352.17C468.812 352.171 468.811 352.171 468.811 352.172C468.811 352.172 468.811 352.172 468.811 352.172C468.811 352.172 468.811 352.172 468.811 352.172C468.811 352.172 468.811 352.172 470.031 353.044C471.252 353.916 471.252 353.916 471.252 353.916C471.252 353.916 471.252 353.916 471.252 353.916C471.252 353.916 471.252 353.915 471.253 353.915C471.253 353.915 471.254 353.914 471.254 353.913C471.256 353.91 471.258 353.907 471.261 353.903C471.267 353.895 471.276 353.882 471.288 353.866C471.311 353.833 471.345 353.785 471.389 353.723C471.477 353.599 471.606 353.418 471.767 353.19C472.088 352.733 472.541 352.087 473.065 351.33C474.112 349.817 475.45 347.848 476.602 346.043L474.073 344.429ZM470.031 353.044C470.911 351.83 470.911 351.83 470.911 351.83C470.911 351.83 470.911 351.829 470.911 351.829C470.911 351.829 470.91 351.829 470.91 351.828C470.909 351.828 470.907 351.826 470.904 351.824C470.899 351.821 470.892 351.815 470.882 351.808C470.861 351.793 470.831 351.771 470.791 351.742C470.711 351.684 470.592 351.597 470.437 351.483C470.128 351.257 469.676 350.924 469.11 350.503C467.976 349.661 466.383 348.466 464.546 347.051C460.866 344.218 456.229 340.525 452.347 337.051L450.346 339.286C454.31 342.834 459.015 346.579 462.716 349.428C464.569 350.855 466.176 352.061 467.32 352.912C467.893 353.337 468.349 353.673 468.663 353.903C468.82 354.018 468.942 354.107 469.024 354.167C469.065 354.197 469.097 354.22 469.118 354.235C469.129 354.243 469.137 354.249 469.142 354.253C469.145 354.255 469.147 354.256 469.149 354.257C469.149 354.258 469.15 354.258 469.15 354.258C469.151 354.259 469.151 354.259 469.151 354.259C469.151 354.259 469.151 354.259 470.031 353.044ZM451.346 338.169C452.481 339.149 452.481 339.149 452.481 339.149C452.481 339.149 452.482 339.149 452.482 339.149C452.482 339.149 452.482 339.149 452.482 339.148C452.483 339.148 452.483 339.147 452.484 339.146C452.486 339.144 452.488 339.141 452.492 339.137C452.498 339.13 452.508 339.119 452.52 339.104C452.545 339.076 452.581 339.033 452.628 338.979C452.722 338.869 452.858 338.709 453.031 338.505C453.375 338.098 453.862 337.518 454.434 336.821C455.577 335.43 457.069 333.566 458.449 331.692L456.034 329.913C454.697 331.727 453.241 333.547 452.116 334.917C451.554 335.6 451.077 336.17 450.74 336.568C450.572 336.767 450.439 336.923 450.348 337.028C450.303 337.081 450.268 337.122 450.245 337.148C450.234 337.162 450.225 337.172 450.219 337.179C450.217 337.182 450.214 337.184 450.213 337.186C450.212 337.187 450.212 337.187 450.212 337.188C450.211 337.188 450.211 337.188 450.211 337.188C450.211 337.188 450.211 337.188 450.211 337.188C450.211 337.188 450.211 337.188 451.346 338.169ZM458.449 331.692C461.18 327.987 463.7 324.383 465.979 320.27L463.355 318.816C461.17 322.759 458.74 326.241 456.034 329.913L458.449 331.692ZM465.979 320.27C468.217 316.233 470.913 311.105 472.468 305.65L469.583 304.828C468.129 309.926 465.583 314.796 463.355 318.816L465.979 320.27ZM472.468 305.65C473.234 302.963 473.957 299.648 474.124 296.893C474.207 295.533 474.163 294.18 473.845 293.078C473.53 291.982 472.805 290.745 471.294 290.47L470.757 293.421C470.759 293.422 470.749 293.42 470.736 293.412C470.724 293.405 470.727 293.404 470.745 293.424C470.787 293.472 470.877 293.61 470.963 293.909C471.139 294.522 471.205 295.472 471.13 296.712C470.981 299.159 470.321 302.239 469.583 304.828L472.468 305.65ZM471.294 290.47C469.23 290.094 467.278 291.168 465.635 292.499C463.939 293.871 462.208 295.817 460.506 297.859L462.811 299.779C464.506 297.744 466.076 296.001 467.522 294.831C469.021 293.617 470.054 293.293 470.757 293.421L471.294 290.47ZM460.506 297.859C458.783 299.927 456.942 302.346 455.174 304.661C453.394 306.993 451.692 309.214 450.207 310.947L452.486 312.899C454.036 311.089 455.791 308.796 457.559 306.481C459.339 304.15 461.137 301.788 462.811 299.779L460.506 297.859ZM450.207 310.947C448.702 312.705 446.631 315.033 444.931 316.928C444.082 317.874 443.327 318.709 442.785 319.308C442.514 319.608 442.296 319.848 442.146 320.014C442.071 320.096 442.013 320.16 441.974 320.204C441.954 320.225 441.939 320.242 441.929 320.253C441.924 320.258 441.921 320.262 441.918 320.265C441.917 320.266 441.916 320.267 441.915 320.268C441.915 320.268 441.915 320.269 441.915 320.269C441.914 320.269 441.914 320.269 441.914 320.269C441.914 320.269 441.914 320.269 443.024 321.278C444.133 322.288 444.134 322.288 444.134 322.288C444.134 322.288 444.134 322.288 444.134 322.288C444.134 322.287 444.134 322.287 444.135 322.287C444.135 322.286 444.136 322.285 444.137 322.283C444.14 322.281 444.144 322.276 444.149 322.271C444.159 322.26 444.174 322.243 444.194 322.221C444.234 322.177 444.292 322.113 444.368 322.03C444.519 321.863 444.738 321.622 445.01 321.321C445.554 320.72 446.311 319.881 447.164 318.931C448.866 317.034 450.956 314.684 452.486 312.899L450.207 310.947ZM452.347 337.051C447.819 332.998 443.072 328.797 439.226 325.412L437.244 327.664C441.086 331.045 445.826 335.241 450.346 339.286L452.347 337.051ZM439.226 325.412C438.692 324.941 437.814 324.364 436.901 323.718C435.925 323.027 434.71 322.129 433.279 320.886L431.312 323.15C432.841 324.479 434.142 325.44 435.168 326.167C436.257 326.937 436.869 327.334 437.244 327.664L439.226 325.412ZM441.915 320.269L437.126 325.528L439.344 327.548L444.133 322.288L441.915 320.269ZM448.686 296.383L449.069 295.925L446.766 294.002L446.384 294.46L448.686 296.383ZM449.069 295.925C452.995 291.223 455.094 288.71 458.61 283.77L456.165 282.03C452.721 286.871 450.684 289.31 446.766 294.002L449.069 295.925ZM448.687 296.383C448.816 296.228 448.943 296.076 449.069 295.925L446.766 294.002C446.641 294.153 446.513 294.305 446.384 294.46L448.687 296.383Z" fill="black"/>
</svg>
