<svg width="701" height="900" viewBox="0 0 701 900" fill="none" xmlns="http://www.w3.org/2000/svg">
<path d="M227.041 437.055C233.61 436.632 239.673 431.139 239.926 421.674C240.179 412.209 233.947 405.618 225.273 405.28C216.599 404.942 212.473 412.155 212.473 423.28C212.473 434.405 220.473 437.478 227.041 437.055Z" fill="white"/>
<path d="M473.702 443.478C480.692 443.055 488.776 439.675 489.282 427.928C489.787 416.181 480.945 410.434 473.702 410.603C466.46 410.772 459.217 416.181 458.796 427.928C458.375 439.675 466.712 443.9 473.702 443.478Z" fill="white"/>
<path fill-rule="evenodd" clip-rule="evenodd" d="M473.281 401.561C460.06 403.251 450.628 418.125 447.091 430.801C443.554 443.478 442.543 462.492 447.091 475.591C451.638 488.69 456.017 496.127 467.134 501.197C478.25 506.268 495.682 507.958 506.966 503.141C518.251 498.324 522.377 482.267 522.209 474.07C522.041 465.873 518.414 450.279 521.198 451.591C523.983 452.902 529.632 460.405 534.42 459.45C539.208 458.495 538.412 453.302 536.525 449.14C534.639 444.977 530.367 437.832 525.247 431.85L510.87 415.803C506.943 412.214 502.735 407.991 495.862 404.543C488.989 401.094 486.503 399.871 473.281 401.561ZM489.282 427.928C488.776 439.675 480.692 443.055 473.702 443.478C466.712 443.9 458.375 439.675 458.796 427.928C459.217 416.181 466.46 410.772 473.702 410.603C480.945 410.434 489.787 416.181 489.282 427.928Z" fill="black"/>
<path fill-rule="evenodd" clip-rule="evenodd" d="M221.493 500.32C227.747 498.48 241.442 494.151 248.236 479.651C255.029 465.15 257.617 435.331 251.687 420.459C245.756 405.586 234.972 393.079 219.229 394.053C203.485 395.027 193.672 406.393 184.075 415.48C174.477 424.567 163.763 444.564 162.381 448.527C160.998 452.489 163.48 459.847 168.223 457.142C172.967 454.437 182.068 443.719 180.839 445.996C179.611 448.273 178.333 459.83 177.497 469.154C176.661 478.479 177.82 488.957 188.388 496.099C198.956 503.241 215.239 502.159 221.493 500.32ZM239.926 421.674C239.673 431.139 233.61 436.632 227.041 437.055C220.473 437.478 212.473 434.405 212.473 423.28C212.473 412.155 216.599 404.942 225.273 405.28C233.947 405.618 240.179 412.209 239.926 421.674Z" fill="black"/>
<path d="M221.916 501.759C228.2 499.91 242.499 495.432 249.594 480.287L246.878 479.015C240.386 492.871 227.295 497.05 221.07 498.881L221.916 501.759ZM249.594 480.287C253.099 472.806 255.468 461.522 256.229 450.296C256.99 439.087 256.169 427.649 253.08 419.903L250.293 421.014C253.135 428.141 253.986 439.048 253.236 450.093C252.488 461.119 250.166 471.996 246.878 479.015L249.594 480.287ZM253.08 419.903C247.08 404.856 235.89 391.52 219.136 392.556L219.321 395.55C234.054 394.639 244.432 406.315 250.293 421.014L253.08 419.903ZM219.136 392.556C202.719 393.572 192.456 405.479 183.043 414.391L185.106 416.569C194.888 407.307 204.251 396.483 219.321 395.55L219.136 392.556ZM183.043 414.391C178.095 419.076 172.933 426.488 168.867 433.143C164.811 439.781 161.713 445.888 160.964 448.032L163.797 449.021C164.431 447.203 167.381 441.33 171.427 434.707C175.463 428.101 180.457 420.971 185.106 416.569L183.043 414.391ZM160.964 448.032C160.122 450.446 160.464 453.705 161.674 456.028C162.289 457.208 163.22 458.322 164.53 458.876C165.912 459.46 167.448 459.311 168.966 458.445L167.48 455.839C166.626 456.326 166.074 456.271 165.699 456.113C165.253 455.924 164.761 455.458 164.335 454.641C163.464 452.971 163.257 450.57 163.797 449.021L160.964 448.032ZM168.966 458.445C170.3 457.684 171.858 456.415 173.371 455.054C174.905 453.676 176.473 452.13 177.835 450.758C179.219 449.365 180.354 448.189 181.094 447.477C181.275 447.302 181.418 447.17 181.524 447.078C181.656 446.962 181.661 446.971 181.589 447.012C181.563 447.027 181.5 447.062 181.408 447.096C181.334 447.123 181.132 447.191 180.86 447.18C180.543 447.166 180.095 447.034 179.768 446.62C179.483 446.259 179.453 445.885 179.452 445.727C179.451 445.554 179.482 445.426 179.495 445.376C179.511 445.315 179.527 445.274 179.533 445.26C179.544 445.234 179.544 445.237 179.519 445.284L182.159 446.708C182.211 446.613 182.268 446.499 182.316 446.38C182.344 446.311 182.454 446.043 182.452 445.705C182.451 445.525 182.416 445.134 182.122 444.761C181.786 444.335 181.324 444.197 180.989 444.182C180.699 444.17 180.475 444.243 180.373 444.28C180.255 444.323 180.16 444.373 180.099 444.408C179.887 444.53 179.685 444.7 179.551 444.817C179.391 444.957 179.209 445.127 179.013 445.316C178.243 446.058 177.038 447.304 175.707 448.644C174.354 450.005 172.834 451.503 171.366 452.824C169.877 454.162 168.518 455.247 167.48 455.839L168.966 458.445ZM179.519 445.284C179.088 446.083 178.744 447.455 178.445 448.974C178.13 450.567 177.824 452.551 177.534 454.734C176.952 459.105 176.421 464.35 176.003 469.02L178.991 469.288C179.408 464.634 179.934 459.439 180.508 455.13C180.795 452.974 181.091 451.059 181.388 449.554C181.7 447.974 181.976 447.047 182.159 446.708L179.519 445.284ZM176.003 469.02C175.149 478.55 176.303 489.742 187.548 497.342L189.228 494.856C179.337 488.172 178.174 478.408 178.991 469.288L176.003 469.02ZM187.548 497.342C193.138 501.12 200.148 502.673 206.463 503.075C212.78 503.476 218.593 502.736 221.916 501.759L221.07 498.881C218.139 499.743 212.683 500.464 206.653 500.081C200.621 499.697 194.206 498.221 189.228 494.856L187.548 497.342ZM227.138 438.552C234.559 438.075 241.154 431.874 241.426 421.714L238.427 421.634C238.193 430.405 232.661 435.19 226.945 435.558L227.138 438.552ZM241.426 421.714C241.699 411.471 234.868 404.152 225.331 403.781L225.215 406.778C233.026 407.083 238.658 412.948 238.427 421.634L241.426 421.714ZM225.331 403.781C220.49 403.592 216.79 405.548 214.375 409.145C212.024 412.646 210.973 417.573 210.973 423.28H213.973C213.973 417.863 214.984 413.62 216.865 410.817C218.682 408.111 221.382 406.629 225.215 406.778L225.331 403.781ZM210.973 423.28C210.973 429.242 213.14 433.269 216.396 435.7C219.587 438.081 223.617 438.778 227.138 438.552L226.945 435.558C223.897 435.754 220.643 435.126 218.191 433.296C215.805 431.514 213.973 428.443 213.973 423.28H210.973ZM473.793 444.975C477.465 444.753 481.575 443.749 484.861 441.121C488.2 438.449 490.512 434.24 490.78 427.993L487.783 427.864C487.546 433.363 485.563 436.717 482.987 438.778C480.356 440.882 476.929 441.78 473.612 441.98L473.793 444.975ZM490.78 427.993C491.328 415.269 481.663 408.917 473.667 409.103L473.737 412.102C480.226 411.951 488.246 417.093 487.783 427.864L490.78 427.993ZM473.667 409.103C469.684 409.196 465.68 410.733 462.617 413.877C459.547 417.028 457.519 421.693 457.297 427.874L460.295 427.982C460.495 422.416 462.299 418.503 464.766 415.97C467.24 413.431 470.478 412.178 473.737 412.102L473.667 409.103ZM457.297 427.874C457.073 434.142 459.197 438.6 462.498 441.409C465.753 444.178 469.989 445.205 473.793 444.975L473.612 441.98C470.426 442.173 466.998 441.299 464.442 439.124C461.932 436.989 460.099 433.461 460.295 427.982L457.297 427.874ZM448.536 431.204C450.258 425.032 453.416 418.335 457.721 413.004C462.034 407.664 467.38 403.828 473.471 403.049L473.091 400.073C465.96 400.985 459.98 405.431 455.387 411.119C450.787 416.816 447.461 423.895 445.646 430.398L448.536 431.204ZM473.471 403.049C480.056 402.207 483.8 402.117 486.704 402.604C489.581 403.087 491.727 404.146 495.19 405.884L496.535 403.202C493.124 401.491 490.59 400.214 487.201 399.646C483.838 399.082 479.728 399.225 473.091 400.073L473.471 403.049ZM524.108 432.825C529.136 438.7 533.331 445.725 535.159 449.759L537.892 448.521C535.947 444.229 531.599 436.964 526.387 430.874L524.108 432.825ZM535.159 449.759C536.063 451.753 536.612 453.811 536.481 455.371C536.417 456.124 536.203 456.674 535.879 457.064C535.567 457.44 535.048 457.795 534.126 457.979L534.713 460.921C536.186 460.627 537.362 459.975 538.188 458.979C539.003 457.997 539.37 456.809 539.47 455.624C539.666 453.308 538.874 450.689 537.892 448.521L535.159 449.759ZM534.126 457.979C533.364 458.131 532.455 457.968 531.367 457.453C530.282 456.94 529.15 456.139 528.005 455.207C526.853 454.269 525.79 453.286 524.754 452.378C523.792 451.534 522.759 450.667 521.838 450.234L520.559 452.948C521.031 453.17 521.748 453.732 522.777 454.634C523.733 455.472 524.904 456.551 526.111 457.534C527.325 458.522 528.677 459.499 530.084 460.165C531.49 460.83 533.082 461.246 534.713 460.921L534.126 457.979ZM521.838 450.234C521.443 450.048 520.872 449.905 520.254 450.121C519.646 450.334 519.296 450.788 519.108 451.144C518.769 451.789 518.684 452.629 518.659 453.345C518.605 454.884 518.819 457.079 519.107 459.446C519.7 464.311 520.627 470.103 520.709 474.101L523.709 474.039C523.622 469.84 522.652 463.736 522.085 459.083C521.794 456.691 521.613 454.72 521.657 453.449C521.681 452.759 521.768 452.532 521.762 452.543C521.742 452.582 521.6 452.828 521.244 452.953C520.879 453.08 520.606 452.97 520.559 452.948L521.838 450.234ZM520.709 474.101C520.789 477.981 519.843 483.832 517.504 489.282C515.16 494.743 511.522 499.565 506.378 501.762L507.555 504.521C513.695 501.9 517.763 496.286 520.261 490.465C522.764 484.632 523.797 478.357 523.709 474.039L520.709 474.101ZM506.378 501.762C501.022 504.048 494.098 504.825 487.082 504.38C480.077 503.936 473.123 502.281 467.756 499.833L466.511 502.562C472.26 505.185 479.581 506.91 486.892 507.374C494.192 507.837 501.626 507.052 507.555 504.521L506.378 501.762ZM467.756 499.833C462.405 497.392 458.741 494.419 455.855 490.513C452.941 486.571 450.769 481.612 448.508 475.099L445.674 476.083C447.96 482.669 450.251 487.978 453.443 492.296C456.662 496.652 460.746 499.932 466.511 502.562L467.756 499.833ZM448.508 475.099C444.09 462.375 445.052 443.688 448.536 431.204L445.646 430.398C442.055 443.267 440.996 462.61 445.674 476.083L448.508 475.099ZM495.19 405.884C501.84 409.221 505.89 413.284 509.859 416.911L511.882 414.696C507.996 411.145 503.63 406.762 496.535 403.202L495.19 405.884ZM509.859 416.911C513.697 420.419 518.936 426.782 524.108 432.825L526.387 430.874C521.32 424.953 515.899 418.367 511.882 414.696L509.859 416.911ZM526.365 430.849L511.988 414.802L509.753 416.804L524.13 432.851L526.365 430.849Z" fill="black"/>
</svg>
