<svg width="701" height="900" viewBox="0 0 701 900" fill="none" xmlns="http://www.w3.org/2000/svg">
<path d="M197.874 413.034C184.823 413.837 169.463 428.26 170.014 456.458C170.565 484.655 185.41 495.247 199.829 495.979C213.933 496.695 228.605 478.874 228.456 453.761C228.172 463.679 222.079 470.095 215.018 470.857C207.956 471.619 198.238 466.495 197.874 455.424C197.511 444.354 207.618 438.178 213.109 438.087C218.414 437.999 227.814 443.793 228.393 451.27C227.245 425.782 210.791 412.238 197.874 413.034Z" fill="black"/>
<path d="M500.411 405.033C487.36 405.837 472 420.26 472.551 448.457C473.102 476.655 487.947 487.247 502.366 487.979C516.47 488.695 531.142 470.874 530.993 445.761C530.709 455.678 524.616 462.094 517.554 462.856C510.493 463.618 500.775 458.495 500.411 447.424C500.047 436.353 510.155 430.177 515.646 430.087C520.951 429.999 530.35 435.792 530.93 443.269C529.781 417.781 513.328 404.238 500.411 405.033Z" fill="black"/>
<path d="M213.109 438.087C207.618 438.178 197.511 444.354 197.874 455.424C198.238 466.495 207.956 471.619 215.018 470.857C222.079 470.095 228.172 463.679 228.456 453.761C228.453 453.2 228.442 452.635 228.424 452.066C228.415 451.799 228.405 451.534 228.393 451.27C227.814 443.793 218.414 437.999 213.109 438.087Z" fill="white"/>
<path d="M515.646 430.087C510.155 430.177 500.047 436.353 500.411 447.424C500.775 458.495 510.493 463.618 517.554 462.856C524.616 462.094 530.709 455.678 530.993 445.761C530.99 445.199 530.979 444.634 530.961 444.066C530.952 443.799 530.942 443.533 530.93 443.269C530.35 435.792 520.951 429.999 515.646 430.087Z" fill="white"/>
<path d="M199.829 495.979L199.905 494.481L199.905 494.481L199.829 495.979ZM228.424 452.066L226.925 452.114L228.424 452.066ZM197.874 413.034L197.782 411.536L197.874 413.034ZM213.109 438.087L213.134 439.587L213.134 439.587L213.109 438.087ZM502.366 487.979L502.442 486.481L502.442 486.481L502.366 487.979ZM530.961 444.066L529.461 444.114L530.961 444.066ZM500.411 405.033L500.319 403.536L500.411 405.033ZM515.646 430.087L515.671 431.586L515.671 431.586L515.646 430.087ZM197.782 411.536C183.659 412.406 167.954 427.786 168.514 456.487L171.514 456.428C170.973 428.734 185.987 415.268 197.966 414.531L197.782 411.536ZM168.514 456.487C168.795 470.842 172.721 480.917 178.601 487.516C184.487 494.12 192.2 497.094 199.753 497.477L199.905 494.481C193.04 494.133 186.121 491.445 180.841 485.52C175.557 479.591 171.784 470.271 171.514 456.428L168.514 456.487ZM199.373 455.375C199.208 450.35 201.407 446.437 204.316 443.738C207.275 440.993 210.834 439.625 213.134 439.587L213.084 436.587C209.893 436.64 205.653 438.405 202.276 441.539C198.85 444.718 196.177 449.429 196.375 455.474L199.373 455.375ZM214.857 469.365C208.476 470.054 199.703 465.397 199.373 455.375L196.375 455.474C196.773 467.593 207.436 473.184 215.179 472.348L214.857 469.365ZM199.753 497.477C207.485 497.87 215.11 493.19 220.704 485.433C226.32 477.646 230.032 466.595 229.956 453.752L226.956 453.77C227.029 466.041 223.479 476.457 218.271 483.679C213.04 490.932 206.278 494.805 199.905 494.481L199.753 497.477ZM226.957 453.718C226.69 463.03 221.038 468.698 214.857 469.365L215.179 472.348C223.121 471.491 229.655 464.327 229.956 453.804L226.957 453.718ZM213.134 439.587C215.336 439.55 218.688 440.785 221.609 443.031C224.518 445.267 226.654 448.238 226.898 451.386L229.889 451.154C229.553 446.825 226.7 443.161 223.438 440.653C220.188 438.154 216.188 436.536 213.084 436.587L213.134 439.587ZM229.892 451.202C228.719 425.181 211.811 410.673 197.782 411.536L197.966 414.531C209.772 413.804 225.77 426.382 226.895 451.337L229.892 451.202ZM229.923 452.018C229.914 451.745 229.904 451.473 229.892 451.202L226.895 451.337C226.906 451.595 226.916 451.854 226.925 452.114L229.923 452.018ZM229.956 453.804C229.973 453.207 229.962 452.595 229.921 451.968L226.927 452.164C226.962 452.698 226.971 453.216 226.957 453.718L229.956 453.804ZM226.898 451.386C226.915 451.61 226.924 451.837 226.924 452.066H229.924C229.924 451.759 229.912 451.455 229.889 451.154L226.898 451.386ZM229.956 453.752C229.953 453.178 229.942 452.6 229.923 452.018L226.925 452.114C226.942 452.67 226.953 453.222 226.956 453.77L229.956 453.752ZM500.319 403.536C486.196 404.406 470.49 419.786 471.051 448.487L474.051 448.428C473.51 420.733 488.524 407.268 500.503 406.53L500.319 403.536ZM471.051 448.487C471.332 462.841 475.257 472.917 481.138 479.516C487.023 486.119 494.736 489.093 502.29 489.477L502.442 486.481C495.577 486.132 488.658 483.444 483.378 477.52C478.093 471.59 474.321 462.271 474.051 448.428L471.051 448.487ZM501.91 447.375C501.745 442.349 503.944 438.437 506.853 435.737C509.811 432.993 513.371 431.624 515.671 431.586L515.621 428.587C512.429 428.639 508.19 430.405 504.813 433.538C501.386 436.717 498.713 441.428 498.912 447.473L501.91 447.375ZM517.394 461.365C511.013 462.053 502.239 457.396 501.91 447.375L498.912 447.473C499.31 459.593 509.973 465.183 517.715 464.347L517.394 461.365ZM502.29 489.477C510.021 489.869 517.647 485.189 523.241 477.433C528.857 469.645 532.569 458.594 532.493 445.752L529.493 445.77C529.566 458.04 526.016 468.456 520.808 475.678C515.576 482.932 508.815 486.804 502.442 486.481L502.29 489.477ZM529.493 445.718C529.227 455.03 523.575 460.698 517.394 461.365L517.715 464.347C525.657 463.49 532.191 456.326 532.492 445.804L529.493 445.718ZM515.671 431.586C517.872 431.55 521.225 432.785 524.146 435.03C527.054 437.266 529.19 440.237 529.434 443.385L532.425 443.153C532.09 438.824 529.237 435.16 525.974 432.652C522.724 430.153 518.724 428.535 515.621 428.587L515.671 431.586ZM532.428 443.202C531.256 417.181 514.347 402.672 500.319 403.536L500.503 406.53C512.309 405.803 528.307 418.382 529.431 443.337L532.428 443.202ZM532.46 444.017C532.451 443.744 532.44 443.472 532.428 443.202L529.431 443.337C529.443 443.594 529.453 443.854 529.461 444.114L532.46 444.017ZM532.492 445.804C532.509 445.206 532.498 444.594 532.457 443.968L529.464 444.164C529.499 444.698 529.508 445.216 529.493 445.718L532.492 445.804ZM529.434 443.385C529.452 443.609 529.461 443.836 529.461 444.066H532.461C532.461 443.758 532.449 443.454 532.425 443.153L529.434 443.385ZM532.493 445.752C532.489 445.177 532.478 444.599 532.46 444.017L529.461 444.114C529.479 444.669 529.49 445.221 529.493 445.77L532.493 445.752Z" fill="black"/>
</svg>
