<svg width="700" height="901" viewBox="0 0 700 901" fill="none" xmlns="http://www.w3.org/2000/svg">
<path d="M358.831 479.233C352.424 478.92 321.817 512.833 321.817 512.833C337.512 512.019 353.091 511.961 358.555 511.67C364.02 511.379 376.127 510.02 381.961 510.02C387.796 510.02 399.675 507.717 399.675 507.717C399.675 507.717 386.022 493.566 380.762 490.336C375.501 487.106 365.239 479.545 358.831 479.233Z" fill="#FEE581"/>
<path d="M321.817 512.833C321.177 516.495 340.181 526.947 345.767 529.516C351.352 532.085 356.754 533.527 360.416 533.469C364.078 533.411 377.718 528.993 381.961 525.738C386.205 522.482 401.056 509.673 399.675 507.717C399.675 507.717 387.796 510.02 381.961 510.02C376.127 510.02 364.02 511.379 358.555 511.67C353.091 511.961 337.512 512.019 321.817 512.833Z" fill="#BCA95B"/>
<path d="M321.817 512.833L320.703 511.828L320.413 512.149L320.339 512.575L321.817 512.833ZM399.675 507.717L400.9 506.852L400.834 506.758L400.754 506.675L399.675 507.717ZM358.905 477.734C358.192 477.7 357.463 477.901 356.801 478.166C356.117 478.441 355.38 478.836 354.612 479.311C353.076 480.262 351.294 481.611 349.386 483.198C345.563 486.377 341.098 490.624 336.861 494.854C332.619 499.09 328.58 503.333 325.604 506.515C324.115 508.106 322.891 509.433 322.038 510.363C321.612 510.828 321.279 511.194 321.052 511.444C320.938 511.568 320.851 511.664 320.793 511.729C320.763 511.762 320.741 511.786 320.726 511.803C320.719 511.811 320.713 511.817 320.709 511.822C320.707 511.824 320.706 511.825 320.705 511.827C320.704 511.827 320.704 511.828 320.703 511.828C320.703 511.828 320.703 511.828 321.817 512.833C322.93 513.838 322.93 513.838 322.93 513.838C322.931 513.838 322.931 513.837 322.931 513.837C322.932 513.836 322.933 513.835 322.935 513.833C322.939 513.829 322.944 513.823 322.951 513.815C322.966 513.799 322.988 513.775 323.016 513.743C323.074 513.68 323.16 513.585 323.272 513.462C323.496 513.215 323.827 512.852 324.25 512.39C325.096 511.467 326.314 510.147 327.794 508.564C330.757 505.397 334.771 501.181 338.981 496.977C343.197 492.768 347.586 488.596 351.304 485.504C353.166 483.956 354.826 482.707 356.191 481.862C356.873 481.44 357.45 481.138 357.918 480.951C358.409 480.754 358.67 480.727 358.758 480.731L358.905 477.734ZM320.339 512.575C320.147 513.674 320.709 514.68 321.223 515.382C321.789 516.156 322.597 516.96 323.524 517.759C325.386 519.366 327.95 521.143 330.656 522.853C336.076 526.276 342.281 529.564 345.14 530.879L346.393 528.154C343.666 526.899 337.577 523.676 332.258 520.316C329.595 518.634 327.179 516.95 325.483 515.488C324.631 514.752 324.016 514.119 323.643 513.61C323.219 513.03 323.326 512.908 323.294 513.091L320.339 512.575ZM345.14 530.879C350.814 533.489 356.454 535.032 360.44 534.969L360.392 531.969C357.054 532.022 351.89 530.682 346.393 528.154L345.14 530.879ZM360.44 534.969C361.547 534.951 363.237 534.622 365.1 534.148C367.007 533.663 369.228 532.991 371.46 532.22C375.85 530.704 380.537 528.721 382.874 526.928L381.048 524.548C379.142 526.01 374.887 527.863 370.481 529.385C368.315 530.133 366.174 530.779 364.361 531.241C362.504 531.713 361.115 531.958 360.392 531.969L360.44 534.969ZM382.874 526.928C385.042 525.265 389.855 521.214 393.959 517.329C396.007 515.391 397.919 513.455 399.242 511.857C399.896 511.067 400.46 510.296 400.816 509.61C400.992 509.27 401.159 508.874 401.23 508.454C401.3 508.036 401.3 507.417 400.9 506.852L398.45 508.582C398.223 508.261 398.269 507.971 398.271 507.957C398.274 507.942 398.259 508.024 398.153 508.228C397.945 508.63 397.542 509.206 396.931 509.943C395.726 511.399 393.919 513.236 391.896 515.151C387.858 518.974 383.124 522.955 381.048 524.548L382.874 526.928ZM399.675 507.717C400.754 506.675 400.754 506.675 400.754 506.675C400.754 506.675 400.754 506.675 400.754 506.674C400.753 506.674 400.752 506.673 400.752 506.672C400.75 506.671 400.747 506.668 400.744 506.664C400.737 506.657 400.727 506.647 400.714 506.633C400.687 506.606 400.648 506.566 400.597 506.513C400.495 506.407 400.345 506.253 400.152 506.055C399.766 505.66 399.21 505.092 398.526 504.4C397.159 503.018 395.28 501.14 393.234 499.16C389.201 495.255 384.347 490.777 381.546 489.058L379.977 491.614C382.437 493.125 387.039 497.337 391.148 501.315C393.173 503.276 395.036 505.138 396.393 506.51C397.071 507.196 397.623 507.759 398.004 508.15C398.195 508.345 398.343 508.498 398.443 508.601C398.494 508.653 398.532 508.693 398.557 508.719C398.57 508.732 398.58 508.742 398.586 508.749C398.589 508.752 398.592 508.754 398.593 508.756C398.594 508.757 398.595 508.757 398.595 508.758C398.595 508.758 398.595 508.758 398.595 508.758C398.595 508.758 398.595 508.758 399.675 507.717ZM381.546 489.058C379.061 487.531 374.984 484.714 370.979 482.392C368.937 481.208 366.825 480.097 364.794 479.259C362.779 478.427 360.753 477.825 358.905 477.734L358.758 480.731C360.113 480.797 361.773 481.257 363.649 482.032C365.509 482.799 367.492 483.839 369.474 484.988C373.517 487.332 377.201 489.91 379.977 491.614L381.546 489.058ZM321.894 514.331C329.72 513.925 337.522 513.707 344.058 513.555C350.57 513.403 355.873 513.315 358.635 513.168L358.476 510.172C355.773 510.316 350.555 510.402 343.988 510.556C337.444 510.708 329.608 510.927 321.739 511.335L321.894 514.331ZM358.635 513.168C361.399 513.021 365.837 512.604 370.246 512.231C374.699 511.853 379.119 511.52 381.961 511.52L381.961 508.52C378.969 508.52 374.418 508.867 369.993 509.241C365.524 509.62 361.177 510.028 358.476 510.172L358.635 513.168ZM381.961 511.52C385.009 511.52 389.543 510.926 393.237 510.351C395.1 510.061 396.779 509.771 397.992 509.553C398.599 509.444 399.09 509.354 399.429 509.29C399.599 509.258 399.731 509.233 399.821 509.216C399.866 509.208 399.901 509.201 399.924 509.196C399.936 509.194 399.945 509.192 399.951 509.191C399.954 509.191 399.956 509.19 399.958 509.19C399.959 509.19 399.959 509.19 399.96 509.19C399.96 509.189 399.96 509.189 399.96 509.189C399.96 509.189 399.96 509.189 399.675 507.717C399.389 506.244 399.389 506.244 399.389 506.244C399.389 506.244 399.389 506.244 399.389 506.244C399.389 506.244 399.388 506.244 399.388 506.245C399.386 506.245 399.384 506.245 399.382 506.246C399.376 506.247 399.368 506.248 399.357 506.25C399.335 506.255 399.302 506.261 399.259 506.269C399.172 506.286 399.043 506.31 398.877 506.341C398.544 506.404 398.061 506.493 397.463 506.6C396.266 506.815 394.611 507.101 392.775 507.386C389.07 507.963 384.748 508.52 381.961 508.52L381.961 511.52Z" fill="black"/>
</svg>
