<svg width="701" height="901" viewBox="0 0 701 901" fill="none" xmlns="http://www.w3.org/2000/svg">
<path d="M360.898 484.388C356.825 484.606 350.128 487.081 350.56 491.529C350.992 495.977 358.633 497.608 361.235 497.473C364.929 497.438 372.14 495.757 372.389 490.456C372.637 485.156 364.971 484.17 360.898 484.388Z" fill="black"/>
<path d="M360.751 503.666C360.075 507.671 353.76 510.638 349.006 512.175C348.646 512.292 348.261 512.399 347.857 512.497C347.857 512.497 347.421 520.435 344.418 520.671C341.414 520.906 340.195 513.461 340.195 513.461C337.391 513.613 335.188 513.581 335.188 513.581C335.188 513.581 340.33 522.574 343.388 525.304C346.447 528.033 351.324 530.035 355.589 530.072C359.853 530.109 367.395 530.467 370.782 529.48C374.169 528.494 377.688 527.441 382.621 523.627C387.553 519.812 390.776 513.491 390.776 513.491C390.776 513.491 388.252 513.568 385.481 513.539C385.481 513.539 383.058 520.397 380.678 520.302C378.298 520.206 376.898 512.795 376.898 512.795C373.749 512.235 370.341 511.366 368.506 510.424C365.769 509.019 362.414 507.362 360.751 503.666Z" fill="#8F2F34"/>
<path d="M381.661 513.141C380.455 513.042 378.445 513.071 376.898 512.795C376.898 512.795 378.298 520.206 380.678 520.302C383.058 520.397 385.481 513.539 385.481 513.539C383.985 513.524 382.943 513.247 381.661 513.141Z" fill="white"/>
<path d="M340.195 513.461C340.195 513.461 341.414 520.906 344.418 520.671C347.421 520.435 347.857 512.497 347.857 512.497C345.558 513.055 342.647 513.328 340.195 513.461Z" fill="white"/>
<path d="M361.235 497.473L361.22 495.974L361.188 495.974L361.157 495.975L361.235 497.473ZM349.006 512.175L348.545 510.748L349.006 512.175ZM322.645 504.203C322.547 503.381 321.801 502.793 320.979 502.89C320.156 502.988 319.568 503.733 319.665 504.556L322.645 504.203ZM368.506 510.424L369.191 509.09L368.506 510.424ZM381.661 513.141L381.784 511.646L381.661 513.141ZM404.478 503.059C404.541 502.233 403.923 501.512 403.097 501.449C402.271 501.385 401.55 502.004 401.486 502.83L404.478 503.059ZM340.195 513.461L340.113 511.963L340.195 513.461ZM376.898 512.795L377.161 511.319L376.898 512.795ZM360.818 482.89C358.576 483.01 355.654 483.738 353.302 485.066C351.008 486.361 348.763 488.541 349.067 491.674L352.053 491.384C351.925 490.068 352.812 488.787 354.777 487.678C356.683 486.602 359.146 485.984 360.978 485.886L360.818 482.89ZM349.067 491.674C349.37 494.793 352.135 496.623 354.511 497.606C356.978 498.626 359.76 499.052 361.312 498.971L361.157 495.975C360.108 496.03 357.769 495.707 355.657 494.834C353.454 493.922 352.182 492.713 352.053 491.384L349.067 491.674ZM361.249 498.973C363.261 498.954 366.212 498.495 368.746 497.295C371.272 496.098 373.725 493.977 373.887 490.527L370.89 490.386C370.803 492.236 369.527 493.605 367.462 494.584C365.405 495.558 362.902 495.957 361.22 495.974L361.249 498.973ZM373.887 490.527C373.968 488.794 373.389 487.358 372.388 486.241C371.42 485.161 370.114 484.436 368.782 483.945C366.13 482.969 362.973 482.775 360.818 482.89L360.978 485.886C362.895 485.784 365.608 485.974 367.745 486.761C368.808 487.152 369.626 487.654 370.153 488.242C370.648 488.794 370.933 489.468 370.89 490.386L373.887 490.527ZM359.739 497.357L359.255 503.549L362.246 503.783L362.73 497.59L359.739 497.357ZM359.272 503.416C359.046 504.752 357.79 506.19 355.603 507.58C353.493 508.921 350.857 510 348.545 510.748L349.468 513.602C351.909 512.813 354.807 511.64 357.212 510.112C359.54 508.632 361.779 506.584 362.23 503.915L359.272 503.416ZM335.188 513.581C335.32 512.087 335.321 512.087 335.321 512.087C335.321 512.087 335.321 512.087 335.321 512.087C335.32 512.087 335.32 512.087 335.32 512.087C335.32 512.087 335.319 512.087 335.318 512.087C335.316 512.086 335.312 512.086 335.307 512.086C335.298 512.085 335.284 512.084 335.265 512.082C335.227 512.078 335.171 512.073 335.098 512.066C334.953 512.053 334.743 512.032 334.484 512.005C333.966 511.952 333.257 511.874 332.493 511.777C330.901 511.574 329.276 511.31 328.527 511.049L327.539 513.881C328.639 514.265 330.592 514.559 332.115 514.753C332.909 514.854 333.642 514.935 334.176 514.99C334.444 515.017 334.662 515.038 334.815 515.053C334.891 515.06 334.95 515.066 334.991 515.069C335.011 515.071 335.027 515.073 335.038 515.074C335.043 515.074 335.048 515.075 335.051 515.075C335.052 515.075 335.053 515.075 335.054 515.075C335.054 515.075 335.055 515.075 335.055 515.075C335.055 515.075 335.055 515.075 335.055 515.075C335.055 515.075 335.055 515.075 335.188 513.581ZM328.527 511.049C327.48 510.683 326.271 510.375 325.133 509.453C324.072 508.593 322.988 507.102 322.645 504.203L319.665 504.556C320.092 508.159 321.522 510.388 323.245 511.784C324.891 513.118 326.736 513.601 327.539 513.881L328.527 511.049ZM359.383 504.281C361.294 508.528 365.158 510.392 367.821 511.759L369.191 509.09C366.38 507.647 363.534 506.196 362.119 503.05L359.383 504.281ZM399.826 511.965C402.017 510.516 403.157 508.201 403.751 506.419C404.055 505.508 404.235 504.683 404.339 504.084C404.391 503.783 404.425 503.536 404.446 503.36C404.457 503.272 404.464 503.202 404.469 503.151C404.472 503.125 404.474 503.105 404.475 503.09C404.476 503.082 404.476 503.075 404.477 503.07C404.477 503.068 404.477 503.066 404.477 503.064C404.477 503.063 404.477 503.062 404.477 503.061C404.477 503.061 404.477 503.06 404.477 503.06C404.477 503.059 404.478 503.059 402.982 502.944C401.486 502.83 401.486 502.829 401.486 502.829C401.486 502.829 401.486 502.828 401.486 502.828C401.486 502.828 401.486 502.827 401.487 502.827C401.487 502.826 401.487 502.826 401.487 502.826C401.487 502.826 401.486 502.828 401.486 502.83C401.486 502.836 401.485 502.846 401.483 502.861C401.481 502.89 401.476 502.938 401.468 503.003C401.452 503.132 401.426 503.326 401.384 503.569C401.299 504.058 401.151 504.733 400.906 505.469C400.401 506.982 399.549 508.552 398.171 509.463L399.826 511.965ZM390.776 513.491C390.909 514.985 390.91 514.985 390.91 514.985C390.91 514.985 390.91 514.985 390.911 514.985C390.911 514.985 390.912 514.985 390.913 514.985C390.914 514.984 390.916 514.984 390.918 514.984C390.922 514.984 390.927 514.983 390.933 514.983C390.945 514.981 390.962 514.98 390.983 514.978C391.026 514.973 391.085 514.967 391.16 514.958C391.31 514.94 391.523 514.912 391.787 514.872C392.315 514.79 393.053 514.656 393.909 514.444C395.604 514.024 397.842 513.278 399.826 511.965L398.171 509.463C396.585 510.512 394.712 511.154 393.188 511.532C392.434 511.719 391.786 511.836 391.33 511.907C391.103 511.942 390.924 511.965 390.805 511.979C390.746 511.986 390.702 511.991 390.674 511.994C390.661 511.995 390.651 511.996 390.646 511.996C390.643 511.997 390.641 511.997 390.641 511.997C390.64 511.997 390.64 511.997 390.641 511.997C390.641 511.997 390.641 511.997 390.641 511.997C390.642 511.997 390.642 511.997 390.642 511.997C390.642 511.997 390.642 511.997 390.776 513.491ZM390.776 513.491C389.439 512.81 389.44 512.809 389.44 512.809C389.44 512.809 389.44 512.809 389.44 512.809C389.44 512.809 389.44 512.809 389.44 512.809C389.44 512.809 389.44 512.809 389.439 512.81C389.438 512.812 389.437 512.815 389.434 512.82C389.429 512.829 389.421 512.844 389.41 512.865C389.389 512.907 389.355 512.971 389.309 513.055C389.218 513.223 389.08 513.472 388.898 513.784C388.535 514.409 387.999 515.285 387.314 516.275C385.933 518.272 383.996 520.666 381.703 522.44L383.538 524.813C386.177 522.772 388.318 520.098 389.782 517.981C390.519 516.915 391.097 515.971 391.492 515.292C391.69 514.952 391.842 514.677 391.946 514.485C391.999 514.389 392.039 514.313 392.066 514.26C392.08 514.234 392.091 514.213 392.099 514.198C392.103 514.191 392.106 514.185 392.108 514.181C392.109 514.179 392.11 514.177 392.111 514.175C392.111 514.175 392.111 514.174 392.112 514.173C392.112 514.173 392.112 514.173 392.112 514.173C392.112 514.172 392.112 514.172 390.776 513.491ZM381.703 522.44C376.987 526.087 373.675 527.075 370.362 528.04L371.201 530.92C374.663 529.912 378.389 528.795 383.538 524.813L381.703 522.44ZM370.362 528.04C368.894 528.467 366.361 528.631 363.499 528.66C360.669 528.689 357.794 528.591 355.602 528.572L355.576 531.572C357.648 531.59 360.677 531.689 363.53 531.66C366.351 531.631 369.282 531.479 371.201 530.92L370.362 528.04ZM355.602 528.572C351.72 528.538 347.188 526.684 344.387 524.185L342.39 526.423C345.705 529.382 350.929 531.531 355.576 531.572L355.602 528.572ZM344.387 524.185C343.035 522.978 341.09 520.226 339.402 517.607C338.58 516.33 337.85 515.135 337.326 514.259C337.065 513.821 336.855 513.464 336.711 513.217C336.638 513.093 336.583 512.997 336.546 512.933C336.527 512.9 336.513 512.876 336.503 512.86C336.499 512.852 336.495 512.846 336.493 512.842C336.492 512.84 336.491 512.838 336.491 512.838C336.49 512.837 336.49 512.837 336.49 512.837C336.49 512.837 336.49 512.837 336.49 512.836C336.49 512.836 336.49 512.837 335.188 513.581C333.886 514.326 333.886 514.326 333.886 514.326C333.886 514.326 333.886 514.326 333.886 514.326C333.886 514.327 333.887 514.327 333.887 514.328C333.888 514.329 333.889 514.331 333.89 514.333C333.893 514.338 333.897 514.345 333.902 514.354C333.912 514.372 333.928 514.398 333.947 514.433C333.987 514.501 334.045 514.601 334.119 514.729C334.268 514.984 334.484 515.351 334.752 515.799C335.288 516.694 336.035 517.919 336.88 519.231C338.529 521.79 340.683 524.9 342.39 526.423L344.387 524.185ZM340.113 511.963C338.737 512.038 337.507 512.067 336.622 512.078C336.179 512.084 335.824 512.084 335.58 512.084C335.458 512.083 335.364 512.083 335.301 512.082C335.27 512.082 335.246 512.082 335.231 512.081C335.223 512.081 335.218 512.081 335.214 512.081C335.212 512.081 335.211 512.081 335.21 512.081C335.21 512.081 335.21 512.081 335.21 512.081C335.21 512.081 335.21 512.081 335.21 512.081C335.21 512.081 335.21 512.081 335.21 512.081C335.21 512.081 335.21 512.081 335.188 513.581C335.166 515.081 335.166 515.081 335.166 515.081C335.166 515.081 335.167 515.081 335.167 515.081C335.167 515.081 335.167 515.081 335.167 515.081C335.168 515.081 335.168 515.081 335.169 515.081C335.17 515.081 335.172 515.081 335.175 515.081C335.18 515.081 335.187 515.081 335.196 515.081C335.214 515.082 335.241 515.082 335.275 515.082C335.344 515.083 335.444 515.083 335.572 515.084C335.829 515.084 336.2 515.084 336.658 515.078C337.575 515.067 338.848 515.036 340.276 514.959L340.113 511.963ZM340.195 513.461C338.714 513.704 338.714 513.704 338.714 513.704C338.714 513.704 338.714 513.705 338.715 513.705C338.715 513.706 338.715 513.706 338.715 513.707C338.715 513.709 338.716 513.711 338.716 513.714C338.717 513.719 338.718 513.726 338.719 513.734C338.722 513.752 338.727 513.776 338.732 513.807C338.743 513.868 338.759 513.955 338.78 514.065C338.822 514.284 338.885 514.592 338.971 514.96C339.141 515.691 339.404 516.68 339.774 517.676C340.136 518.652 340.638 519.736 341.324 520.586C342.004 521.428 343.074 522.28 344.535 522.166L344.3 519.175C344.259 519.178 344.051 519.188 343.658 518.701C343.271 518.221 342.904 517.488 342.586 516.632C342.276 515.796 342.046 514.939 341.893 514.281C341.817 513.955 341.762 513.684 341.726 513.496C341.708 513.403 341.694 513.33 341.686 513.283C341.682 513.259 341.679 513.241 341.677 513.23C341.676 513.225 341.675 513.221 341.675 513.219C341.675 513.218 341.675 513.218 341.675 513.218C341.675 513.218 341.675 513.218 341.675 513.218C341.675 513.218 341.675 513.218 341.675 513.218C341.675 513.218 341.675 513.219 340.195 513.461ZM348.545 510.748C348.226 510.851 347.877 510.948 347.503 511.039L348.211 513.954C348.645 513.849 349.066 513.732 349.468 513.602L348.545 510.748ZM347.503 511.039C345.342 511.564 342.543 511.832 340.113 511.963L340.276 514.959C342.751 514.825 345.774 514.546 348.211 513.954L347.503 511.039ZM344.535 522.166C346.007 522.051 346.951 521.001 347.511 520.062C348.087 519.095 348.466 517.911 348.722 516.846C348.983 515.762 349.14 514.699 349.232 513.916C349.278 513.522 349.308 513.193 349.327 512.96C349.337 512.844 349.343 512.752 349.348 512.687C349.35 512.654 349.352 512.629 349.353 512.611C349.353 512.602 349.354 512.594 349.354 512.589C349.354 512.586 349.354 512.584 349.354 512.583C349.354 512.582 349.354 512.581 349.355 512.58C349.355 512.58 349.355 512.58 349.355 512.58C349.355 512.579 349.355 512.579 347.857 512.497C346.359 512.414 346.359 512.414 346.359 512.414C346.359 512.414 346.359 512.414 346.359 512.414C346.359 512.414 346.359 512.414 346.359 512.414C346.359 512.414 346.359 512.415 346.359 512.416C346.359 512.418 346.359 512.422 346.358 512.428C346.358 512.44 346.356 512.459 346.355 512.485C346.351 512.537 346.346 512.615 346.337 512.716C346.321 512.919 346.294 513.212 346.252 513.566C346.168 514.279 346.029 515.215 345.805 516.145C345.577 517.094 345.283 517.939 344.933 518.526C344.567 519.142 344.33 519.173 344.3 519.175L344.535 522.166ZM367.821 511.759C369.872 512.812 373.474 513.709 376.634 514.272L377.161 511.319C374.023 510.76 370.81 509.921 369.191 509.09L367.821 511.759ZM376.634 514.272C377.509 514.428 378.481 514.493 379.337 514.533C380.246 514.575 380.968 514.589 381.537 514.636L381.784 511.646C381.148 511.594 380.262 511.573 379.477 511.536C378.64 511.497 377.833 511.438 377.161 511.319L376.634 514.272ZM376.898 512.795C375.424 513.074 375.424 513.074 375.424 513.074C375.424 513.074 375.424 513.075 375.424 513.075C375.424 513.076 375.424 513.076 375.424 513.077C375.424 513.078 375.425 513.08 375.425 513.083C375.426 513.088 375.427 513.094 375.429 513.102C375.432 513.119 375.437 513.142 375.443 513.172C375.455 513.232 375.472 513.317 375.495 513.425C375.54 513.639 375.607 513.943 375.696 514.308C375.871 515.032 376.133 516.011 376.478 517.005C376.817 517.981 377.263 519.052 377.83 519.913C378.337 520.685 379.241 521.745 380.617 521.801L380.738 518.803C380.925 518.811 380.76 518.909 380.336 518.264C379.971 517.709 379.621 516.909 379.312 516.021C379.01 515.149 378.773 514.27 378.611 513.602C378.531 513.27 378.47 512.994 378.43 512.803C378.41 512.708 378.395 512.634 378.385 512.585C378.38 512.561 378.376 512.542 378.374 512.531C378.373 512.525 378.372 512.521 378.372 512.519C378.372 512.517 378.371 512.517 378.371 512.516C378.371 512.516 378.371 512.516 378.371 512.516C378.371 512.516 378.371 512.517 378.371 512.517C378.371 512.517 378.371 512.517 376.898 512.795ZM381.537 514.636C382.123 514.685 382.631 514.769 383.285 514.86C383.919 514.948 384.625 515.03 385.465 515.039L385.496 512.039C384.841 512.032 384.278 511.969 383.697 511.888C383.134 511.81 382.48 511.704 381.784 511.646L381.537 514.636ZM385.465 515.039C386.868 515.054 388.206 515.041 389.192 515.026C389.685 515.018 390.091 515.009 390.374 515.002C390.516 514.999 390.627 514.996 390.703 514.994C390.741 514.992 390.77 514.992 390.79 514.991C390.8 514.991 390.808 514.991 390.813 514.99C390.816 514.99 390.818 514.99 390.819 514.99C390.82 514.99 390.82 514.99 390.821 514.99C390.821 514.99 390.821 514.99 390.821 514.99C390.821 514.99 390.821 514.99 390.821 514.99C390.822 514.99 390.822 514.99 390.776 513.491C390.73 511.992 390.73 511.992 390.73 511.992C390.73 511.992 390.73 511.992 390.73 511.992C390.73 511.992 390.73 511.992 390.73 511.992C390.73 511.992 390.729 511.992 390.729 511.992C390.728 511.992 390.726 511.992 390.724 511.992C390.719 511.992 390.712 511.992 390.703 511.992C390.685 511.993 390.657 511.994 390.621 511.995C390.548 511.997 390.44 512 390.302 512.003C390.026 512.01 389.628 512.018 389.144 512.026C388.175 512.041 386.865 512.053 385.496 512.039L385.465 515.039ZM380.617 521.801C381.93 521.853 382.935 520.975 383.551 520.284C384.231 519.523 384.823 518.553 385.297 517.659C385.779 516.751 386.176 515.849 386.452 515.181C386.59 514.845 386.7 514.564 386.775 514.365C386.813 514.265 386.842 514.186 386.862 514.131C386.872 514.103 386.88 514.081 386.886 514.066C386.888 514.058 386.891 514.052 386.892 514.047C386.893 514.045 386.894 514.043 386.894 514.042C386.894 514.041 386.895 514.041 386.895 514.04C386.895 514.04 386.895 514.039 386.895 514.039C386.895 514.039 386.895 514.039 385.481 513.539C384.066 513.039 384.067 513.039 384.067 513.039C384.067 513.039 384.067 513.039 384.067 513.039C384.067 513.039 384.067 513.039 384.067 513.039C384.067 513.039 384.066 513.04 384.066 513.041C384.065 513.043 384.064 513.047 384.062 513.052C384.058 513.063 384.052 513.079 384.044 513.102C384.028 513.147 384.002 513.215 383.969 513.303C383.903 513.478 383.804 513.732 383.678 514.038C383.425 514.652 383.068 515.459 382.647 516.253C382.218 517.062 381.758 517.789 381.313 518.287C380.806 518.855 380.616 518.798 380.738 518.803L380.617 521.801Z" fill="black"/>
</svg>
