<svg width="701" height="901" viewBox="0 0 701 901" fill="none" xmlns="http://www.w3.org/2000/svg">
<path d="M363.606 477.206C356.758 477.051 352.799 480.684 353.295 482.669C353.524 483.588 355.044 486.398 357.206 488.72C359.368 491.043 364.39 494.489 364.39 494.489C364.39 494.489 368.02 491.941 370.697 489.054C372.554 487.051 373.583 485.596 373.81 483.231C374.038 480.866 370.453 477.361 363.606 477.206Z" fill="black"/>
<path d="M364.39 494.489C364.39 494.489 355.322 501.927 350.485 503.662C345.648 505.398 339.163 504.736 339.163 504.736C340.454 512.042 341.429 515.734 343.829 521.492C343.829 521.492 357.442 515.428 365.249 515.794C373.057 516.16 387.386 520.551 387.386 520.551C387.386 520.551 388.646 516.721 389.882 511.451C391.119 506.181 391.052 501.888 391.052 501.888H388.163C388.163 501.888 384.205 515.276 378.982 514.038C373.759 512.8 374.038 500.108 374.038 500.108C368.005 498.171 364.39 494.489 364.39 494.489Z" fill="#D42232"/>
<path d="M388.163 501.888C388.163 501.888 383.175 501.83 381.076 501.521C378.976 501.213 374.038 500.108 374.038 500.108C374.038 500.108 373.759 512.8 378.982 514.038C384.205 515.276 388.163 501.888 388.163 501.888Z" fill="white"/>
<path d="M343.829 521.492C347.982 532.363 355.753 534.808 364.101 535.898C372.449 536.988 381.233 530.27 387.386 520.551C387.386 520.551 373.057 516.16 365.249 515.794C357.442 515.428 343.829 521.492 343.829 521.492Z" fill="#B65156"/>
<path d="M353.295 482.669L354.75 482.306L353.295 482.669ZM330.156 497.96C329.766 497.229 328.857 496.953 328.126 497.343C327.395 497.733 327.119 498.642 327.509 499.373L330.156 497.96ZM387.386 520.551L388.653 521.354L388.752 521.197L388.811 521.02L387.386 520.551ZM402.541 497.598C403.122 497.007 403.115 496.058 402.524 495.477C401.934 494.896 400.984 494.903 400.403 495.494L402.541 497.598ZM462.451 491.415C461.671 491.694 461.264 492.553 461.543 493.333C461.822 494.113 462.681 494.519 463.461 494.24L462.451 491.415ZM498.926 488.183C499.754 488.156 500.404 487.463 500.377 486.635C500.35 485.807 499.657 485.157 498.829 485.184L498.926 488.183ZM464.902 502.642C464.083 502.768 463.521 503.534 463.647 504.353C463.773 505.171 464.539 505.733 465.358 505.607L464.902 502.642ZM494.466 504.82C495.294 504.854 495.993 504.212 496.028 503.384C496.063 502.556 495.42 501.857 494.593 501.822L494.466 504.82ZM268.495 499.201C269.307 499.366 270.099 498.841 270.264 498.029C270.429 497.217 269.904 496.426 269.092 496.261L268.495 499.201ZM231.75 492.6C230.923 492.632 230.278 493.329 230.31 494.157C230.342 494.984 231.039 495.63 231.866 495.598L231.75 492.6ZM266.479 510.823C267.303 510.907 268.04 510.308 268.124 509.483C268.208 508.659 267.608 507.923 266.784 507.839L266.479 510.823ZM237.558 509.039C236.734 509.127 236.138 509.866 236.227 510.69C236.315 511.514 237.054 512.11 237.878 512.021L237.558 509.039ZM370.697 489.054L371.797 490.074L370.697 489.054ZM354.75 482.306C354.767 482.374 354.701 482.213 354.985 481.784C355.251 481.382 355.743 480.884 356.503 480.4C358.011 479.439 360.414 478.634 363.572 478.706L363.64 475.706C359.95 475.623 356.95 476.557 354.89 477.87C353.866 478.523 353.033 479.297 352.483 480.129C351.949 480.935 351.574 481.972 351.839 483.033L354.75 482.306ZM363.572 478.706C366.752 478.778 369.064 479.626 370.508 480.624C372.035 481.679 372.355 482.693 372.317 483.087L375.303 483.375C375.493 481.403 374.134 479.483 372.214 478.156C370.211 476.772 367.306 475.79 363.64 475.706L363.572 478.706ZM364.39 494.489C363.439 493.329 363.439 493.329 363.439 493.329C363.439 493.329 363.439 493.329 363.438 493.329C363.438 493.329 363.438 493.329 363.438 493.33C363.437 493.33 363.435 493.332 363.433 493.333C363.429 493.336 363.423 493.341 363.415 493.348C363.399 493.361 363.374 493.382 363.341 493.408C363.276 493.462 363.178 493.541 363.051 493.642C362.798 493.846 362.43 494.139 361.973 494.497C361.058 495.213 359.789 496.185 358.372 497.209C355.481 499.299 352.168 501.465 349.978 502.25L350.991 505.074C353.639 504.124 357.278 501.703 360.13 499.64C361.585 498.588 362.886 497.592 363.822 496.859C364.29 496.493 364.668 496.191 364.93 495.981C365.061 495.876 365.163 495.794 365.232 495.737C365.267 495.709 365.294 495.687 365.312 495.672C365.321 495.665 365.328 495.659 365.333 495.655C365.336 495.653 365.337 495.651 365.339 495.65C365.339 495.65 365.34 495.649 365.34 495.649C365.341 495.649 365.341 495.649 365.341 495.649C365.341 495.649 365.341 495.648 364.39 494.489ZM349.978 502.25C347.783 503.038 345.14 503.3 342.975 503.351C341.906 503.375 340.982 503.348 340.328 503.315C340.001 503.298 339.743 503.28 339.568 503.266C339.481 503.259 339.415 503.254 339.372 503.25C339.351 503.248 339.335 503.246 339.325 503.245C339.321 503.245 339.317 503.244 339.315 503.244C339.315 503.244 339.314 503.244 339.314 503.244C339.314 503.244 339.314 503.244 339.314 503.244C339.314 503.244 339.314 503.244 339.314 503.244C339.315 503.244 339.315 503.244 339.163 504.736C339.01 506.229 339.011 506.229 339.011 506.229C339.011 506.229 339.012 506.229 339.012 506.229C339.012 506.229 339.013 506.229 339.014 506.229C339.015 506.229 339.017 506.229 339.019 506.23C339.024 506.23 339.03 506.231 339.037 506.231C339.053 506.233 339.074 506.235 339.101 506.237C339.155 506.242 339.233 506.249 339.333 506.257C339.532 506.273 339.818 506.293 340.175 506.311C340.888 506.347 341.887 506.377 343.045 506.35C345.332 506.297 348.349 506.022 350.991 505.074L349.978 502.25ZM339.718 503.343C335.295 501.579 332.833 500.118 331.507 499.145C330.845 498.66 330.474 498.302 330.285 498.095C330.19 497.992 330.141 497.928 330.125 497.904C330.116 497.893 330.116 497.891 330.121 497.9C330.124 497.905 330.129 497.912 330.135 497.922C330.137 497.927 330.141 497.933 330.144 497.939C330.146 497.942 330.148 497.946 330.15 497.949C330.151 497.951 330.152 497.953 330.153 497.955C330.153 497.955 330.154 497.957 330.154 497.957C330.155 497.959 330.156 497.96 328.832 498.666C327.509 499.373 327.51 499.374 327.51 499.375C327.511 499.376 327.511 499.377 327.512 499.378C327.513 499.38 327.514 499.382 327.515 499.384C327.518 499.389 327.52 499.393 327.522 499.397C327.527 499.406 327.532 499.415 327.538 499.425C327.549 499.445 327.562 499.466 327.577 499.49C327.607 499.537 327.643 499.592 327.689 499.655C327.779 499.782 327.904 499.938 328.074 500.124C328.414 500.494 328.937 500.98 329.732 501.564C331.319 502.728 334.022 504.302 338.607 506.13L339.718 503.343ZM342.428 522.027C344.613 527.747 347.801 531.354 351.62 533.649C355.394 535.916 359.672 536.832 363.907 537.385L364.296 534.411C360.183 533.873 356.401 533.022 353.165 531.077C349.973 529.159 347.199 526.109 345.231 520.956L342.428 522.027ZM363.907 537.385C368.557 537.993 373.208 536.41 377.417 533.514C381.629 530.616 385.495 526.342 388.653 521.354L386.118 519.749C383.124 524.479 379.522 528.424 375.717 531.042C371.909 533.662 367.994 534.894 364.296 534.411L363.907 537.385ZM391.343 511.793C391.982 509.067 392.284 506.599 392.426 504.812C392.497 503.917 392.529 503.189 392.542 502.681C392.549 502.427 392.551 502.228 392.552 502.09C392.552 502.02 392.552 501.967 392.552 501.929C392.552 501.91 392.552 501.895 392.552 501.884C392.552 501.879 392.552 501.875 392.552 501.871C392.552 501.87 392.552 501.868 392.552 501.867C392.552 501.867 392.552 501.866 392.552 501.866C392.552 501.865 392.552 501.865 392.552 501.865C392.552 501.865 392.551 501.865 391.052 501.888C389.552 501.911 389.552 501.911 389.552 501.911C389.552 501.911 389.552 501.911 389.552 501.911C389.552 501.911 389.552 501.91 389.552 501.91C389.552 501.91 389.552 501.91 389.552 501.911C389.552 501.912 389.552 501.914 389.552 501.917C389.552 501.922 389.552 501.932 389.552 501.946C389.552 501.974 389.552 502.017 389.552 502.076C389.552 502.193 389.55 502.37 389.543 502.601C389.531 503.062 389.502 503.737 389.435 504.574C389.302 506.251 389.019 508.564 388.422 511.108L391.343 511.793ZM391.322 503.363C394.726 502.74 397.518 501.303 399.447 500.039C400.415 499.404 401.176 498.807 401.7 498.363C401.962 498.141 402.165 497.956 402.307 497.824C402.378 497.758 402.433 497.705 402.472 497.667C402.492 497.648 402.507 497.632 402.519 497.621C402.525 497.615 402.529 497.61 402.533 497.606C402.535 497.604 402.537 497.603 402.538 497.601C402.539 497.601 402.539 497.6 402.54 497.6C402.54 497.599 402.541 497.599 402.541 497.599C402.541 497.598 402.541 497.598 401.472 496.546C400.403 495.494 400.403 495.494 400.403 495.493C400.404 495.493 400.404 495.493 400.404 495.493C400.404 495.493 400.404 495.492 400.405 495.492C400.405 495.492 400.405 495.492 400.405 495.492C400.405 495.492 400.404 495.493 400.401 495.495C400.397 495.5 400.389 495.508 400.377 495.52C400.352 495.543 400.313 495.581 400.259 495.632C400.15 495.734 399.983 495.885 399.76 496.074C399.315 496.451 398.652 496.973 397.802 497.529C396.096 498.648 393.678 499.882 390.781 500.413L391.322 503.363ZM391.052 500.388H388.163V503.388H391.052V500.388ZM388.163 501.888C388.181 500.388 388.181 500.388 388.181 500.388C388.181 500.388 388.181 500.388 388.181 500.388C388.181 500.388 388.181 500.388 388.18 500.388C388.18 500.388 388.179 500.388 388.178 500.388C388.176 500.388 388.172 500.388 388.168 500.388C388.159 500.388 388.145 500.388 388.127 500.387C388.091 500.387 388.038 500.386 387.968 500.385C387.83 500.383 387.629 500.379 387.382 500.374C386.887 500.364 386.205 500.347 385.46 500.321C383.94 500.268 382.249 500.177 381.294 500.037L380.858 503.005C382.002 503.173 383.855 503.267 385.354 503.319C386.118 503.346 386.815 503.363 387.32 503.374C387.573 503.379 387.779 503.382 387.921 503.385C387.993 503.386 388.048 503.387 388.086 503.387C388.105 503.387 388.12 503.388 388.13 503.388C388.135 503.388 388.139 503.388 388.141 503.388C388.143 503.388 388.144 503.388 388.145 503.388C388.145 503.388 388.145 503.388 388.145 503.388C388.145 503.388 388.146 503.388 388.146 503.388C388.146 503.388 388.146 503.388 388.163 501.888ZM388.163 501.888C386.725 501.463 386.725 501.463 386.725 501.462C386.725 501.462 386.725 501.462 386.725 501.462C386.725 501.462 386.725 501.463 386.725 501.463C386.725 501.464 386.724 501.466 386.723 501.468C386.722 501.473 386.719 501.481 386.716 501.492C386.709 501.514 386.699 501.549 386.685 501.594C386.656 501.686 386.614 501.822 386.557 501.996C386.443 502.345 386.274 502.846 386.055 503.445C385.615 504.646 384.981 506.219 384.197 507.741C383.404 509.284 382.507 510.675 381.571 511.59C380.625 512.515 379.903 512.715 379.328 512.579L378.636 515.498C380.672 515.981 382.404 514.971 383.669 513.735C384.944 512.487 386.016 510.764 386.865 509.114C387.724 507.443 388.407 505.746 388.872 504.477C389.105 503.839 389.286 503.304 389.409 502.925C389.471 502.736 389.518 502.586 389.55 502.482C389.567 502.43 389.579 502.389 389.588 502.361C389.592 502.346 389.595 502.335 389.598 502.327C389.599 502.323 389.6 502.32 389.6 502.318C389.601 502.317 389.601 502.316 389.601 502.315C389.601 502.315 389.602 502.314 389.602 502.314C389.602 502.314 389.602 502.313 388.163 501.888ZM381.294 500.037C380.297 499.891 378.581 499.547 377.078 499.231C376.335 499.075 375.656 498.928 375.163 498.82C374.916 498.767 374.717 498.723 374.579 498.692C374.51 498.677 374.456 498.665 374.42 498.657C374.402 498.653 374.388 498.65 374.379 498.648C374.374 498.647 374.371 498.646 374.369 498.645C374.368 498.645 374.367 498.645 374.366 498.645C374.366 498.645 374.366 498.645 374.366 498.645C374.366 498.645 374.366 498.645 374.366 498.645C374.366 498.645 374.366 498.645 374.038 500.108C373.711 501.572 373.711 501.572 373.711 501.572C373.711 501.572 373.711 501.572 373.711 501.572C373.711 501.572 373.711 501.572 373.712 501.573C373.712 501.573 373.713 501.573 373.715 501.573C373.717 501.574 373.721 501.575 373.726 501.576C373.735 501.578 373.75 501.581 373.768 501.585C373.805 501.593 373.86 501.606 373.93 501.621C374.07 501.652 374.273 501.697 374.522 501.751C375.021 501.86 375.708 502.009 376.461 502.167C377.952 502.481 379.755 502.844 380.858 503.005L381.294 500.037ZM374.497 498.68C371.657 497.768 369.38 496.443 367.813 495.344C367.031 494.795 366.431 494.307 366.031 493.961C365.832 493.788 365.683 493.651 365.587 493.56C365.539 493.515 365.504 493.481 365.483 493.46C365.472 493.45 365.465 493.443 365.461 493.439C365.459 493.437 365.458 493.436 365.458 493.436C365.458 493.436 365.458 493.436 365.458 493.436C365.459 493.436 365.459 493.436 365.459 493.437C365.459 493.437 365.46 493.437 365.46 493.437C365.46 493.437 365.46 493.438 364.39 494.489C363.32 495.54 363.32 495.54 363.32 495.54C363.32 495.54 363.321 495.541 363.321 495.541C363.321 495.542 363.322 495.542 363.323 495.543C363.324 495.544 363.325 495.545 363.327 495.547C363.33 495.551 363.335 495.555 363.34 495.56C363.35 495.57 363.364 495.584 363.381 495.601C363.416 495.635 363.465 495.682 363.527 495.741C363.652 495.86 363.833 496.025 364.067 496.228C364.534 496.633 365.214 497.186 366.09 497.8C367.839 499.026 370.386 500.511 373.579 501.537L374.497 498.68ZM379.328 512.579C378.629 512.413 377.951 511.83 377.337 510.648C376.73 509.479 376.309 507.947 376.029 506.35C375.752 504.77 375.628 503.212 375.575 502.042C375.548 501.459 375.539 500.978 375.536 500.645C375.535 500.479 375.535 500.35 375.536 500.264C375.537 500.221 375.537 500.188 375.537 500.168C375.537 500.158 375.538 500.15 375.538 500.146C375.538 500.143 375.538 500.142 375.538 500.141C375.538 500.141 375.538 500.141 375.538 500.141C375.538 500.141 375.538 500.141 375.538 500.141C375.538 500.141 375.538 500.141 374.038 500.108C372.538 500.075 372.538 500.076 372.538 500.076C372.538 500.076 372.538 500.077 372.538 500.077C372.538 500.078 372.538 500.079 372.538 500.08C372.538 500.083 372.538 500.086 372.538 500.09C372.538 500.097 372.538 500.108 372.538 500.122C372.537 500.149 372.537 500.189 372.536 500.239C372.535 500.339 372.535 500.484 372.536 500.667C372.539 501.033 372.549 501.553 372.578 502.18C372.635 503.428 372.768 505.121 373.074 506.868C373.377 508.598 373.865 510.472 374.675 512.031C375.478 513.577 376.723 515.044 378.636 515.498L379.328 512.579ZM337.686 504.998C338.99 512.378 339.991 516.182 342.445 522.069L345.214 520.915C342.867 515.285 341.918 511.706 340.64 504.475L337.686 504.998ZM343.829 521.492C344.44 522.862 344.44 522.862 344.44 522.862C344.44 522.862 344.44 522.862 344.44 522.862C344.44 522.862 344.44 522.862 344.441 522.861C344.442 522.861 344.444 522.86 344.447 522.859C344.453 522.856 344.462 522.852 344.474 522.847C344.498 522.836 344.535 522.82 344.584 522.799C344.682 522.756 344.828 522.693 345.017 522.612C345.397 522.45 345.95 522.219 346.638 521.942C348.017 521.387 349.934 520.651 352.089 519.928C356.468 518.458 361.584 517.124 365.179 517.293L365.32 514.296C361.107 514.099 355.514 515.614 351.134 517.084C348.91 517.831 346.936 518.588 345.518 519.159C344.809 519.444 344.237 519.683 343.842 519.852C343.644 519.936 343.49 520.003 343.384 520.049C343.332 520.072 343.291 520.09 343.263 520.102C343.25 520.108 343.239 520.113 343.231 520.116C343.228 520.118 343.225 520.119 343.223 520.12C343.222 520.12 343.221 520.121 343.22 520.121C343.22 520.121 343.22 520.121 343.22 520.121C343.219 520.121 343.219 520.122 343.829 521.492ZM387.386 520.551C388.811 521.02 388.811 521.02 388.811 521.02C388.811 521.02 388.811 521.02 388.811 521.02C388.811 521.019 388.811 521.019 388.811 521.019C388.811 521.018 388.811 521.017 388.812 521.016C388.813 521.014 388.814 521.011 388.815 521.006C388.818 520.998 388.822 520.986 388.827 520.971C388.837 520.939 388.852 520.894 388.871 520.834C388.909 520.716 388.964 520.541 389.034 520.316C389.174 519.867 389.373 519.214 389.611 518.396C390.086 516.76 390.717 514.459 391.343 511.793L388.422 511.108C387.811 513.713 387.194 515.962 386.73 517.559C386.498 518.357 386.305 518.991 386.17 519.424C386.102 519.641 386.05 519.807 386.014 519.918C385.996 519.974 385.983 520.016 385.974 520.043C385.969 520.057 385.966 520.067 385.964 520.074C385.963 520.077 385.962 520.079 385.961 520.081C385.961 520.082 385.961 520.082 385.961 520.082C385.961 520.082 385.961 520.083 385.961 520.083C385.961 520.083 385.961 520.082 385.961 520.082C385.961 520.082 385.961 520.082 387.386 520.551ZM365.179 517.293C368.918 517.468 374.322 518.621 378.88 519.765C381.14 520.332 383.16 520.888 384.614 521.302C385.341 521.509 385.926 521.68 386.328 521.8C386.529 521.86 386.685 521.906 386.789 521.938C386.842 521.954 386.881 521.966 386.908 521.974C386.921 521.978 386.931 521.981 386.937 521.983C386.94 521.984 386.943 521.984 386.944 521.985C386.945 521.985 386.946 521.985 386.946 521.985C386.946 521.985 386.946 521.985 386.946 521.985C386.946 521.985 386.946 521.985 387.386 520.551C387.825 519.117 387.825 519.117 387.825 519.117C387.825 519.117 387.824 519.117 387.824 519.117C387.824 519.117 387.823 519.116 387.822 519.116C387.82 519.115 387.817 519.115 387.813 519.113C387.806 519.111 387.795 519.108 387.781 519.104C387.753 519.095 387.711 519.082 387.656 519.066C387.547 519.033 387.387 518.985 387.181 518.924C386.77 518.802 386.174 518.627 385.436 518.417C383.959 517.996 381.909 517.432 379.61 516.855C375.053 515.712 369.389 514.487 365.32 514.296L365.179 517.293ZM266.631 509.331C266.784 507.839 266.783 507.839 266.783 507.839C266.783 507.839 266.783 507.839 266.783 507.839C266.782 507.839 266.782 507.839 266.781 507.839C266.78 507.838 266.778 507.838 266.777 507.838C266.773 507.838 266.768 507.837 266.761 507.837C266.749 507.835 266.73 507.834 266.707 507.831C266.66 507.827 266.592 507.821 266.504 507.813C266.327 507.798 266.068 507.778 265.731 507.755C265.057 507.71 264.073 507.656 262.815 507.62C260.299 507.548 256.685 507.549 252.265 507.834L252.459 510.828C256.774 510.549 260.295 510.549 262.729 510.619C263.947 510.653 264.892 510.705 265.529 510.748C265.848 510.77 266.089 510.789 266.249 510.803C266.329 510.809 266.389 510.815 266.427 510.818C266.446 510.82 266.46 510.822 266.469 510.822C266.473 510.823 266.476 510.823 266.478 510.823C266.479 510.823 266.48 510.823 266.48 510.823C266.48 510.823 266.48 510.823 266.48 510.823C266.48 510.823 266.48 510.823 266.479 510.823C266.479 510.823 266.479 510.823 266.631 509.331ZM252.265 507.834C247.884 508.118 244.211 508.418 241.631 508.648C240.342 508.763 239.325 508.861 238.63 508.929C238.283 508.964 238.016 508.991 237.835 509.01C237.745 509.019 237.676 509.026 237.629 509.031C237.606 509.033 237.589 509.035 237.577 509.037C237.571 509.037 237.566 509.038 237.563 509.038C237.561 509.038 237.56 509.038 237.559 509.038C237.559 509.039 237.559 509.039 237.558 509.039C237.558 509.039 237.558 509.039 237.558 509.039C237.558 509.039 237.558 509.039 237.718 510.53C237.878 512.021 237.878 512.021 237.878 512.021C237.878 512.021 237.878 512.021 237.878 512.021C237.878 512.021 237.878 512.021 237.879 512.021C237.879 512.021 237.88 512.021 237.882 512.021C237.884 512.021 237.888 512.02 237.894 512.02C237.905 512.019 237.921 512.017 237.944 512.015C237.988 512.01 238.055 512.003 238.143 511.994C238.32 511.976 238.582 511.949 238.925 511.915C239.612 511.847 240.618 511.751 241.898 511.636C244.457 511.408 248.106 511.109 252.459 510.828L252.265 507.834ZM268.794 497.731C269.092 496.261 269.092 496.261 269.092 496.261C269.092 496.261 269.092 496.261 269.091 496.261C269.091 496.261 269.09 496.261 269.09 496.26C269.088 496.26 269.086 496.26 269.083 496.259C269.077 496.258 269.069 496.256 269.057 496.254C269.035 496.249 269.002 496.243 268.958 496.234C268.871 496.216 268.742 496.191 268.576 496.158C268.244 496.092 267.761 495.997 267.158 495.88C265.95 495.647 264.259 495.328 262.319 494.982C258.448 494.292 253.555 493.492 249.551 493.068L249.235 496.052C253.13 496.464 257.938 497.249 261.792 497.936C263.715 498.278 265.393 498.595 266.589 498.826C267.187 498.941 267.665 499.035 267.992 499.1C268.156 499.133 268.282 499.158 268.367 499.175C268.41 499.184 268.442 499.19 268.464 499.194C268.474 499.197 268.482 499.198 268.488 499.199C268.49 499.2 268.492 499.2 268.494 499.201C268.494 499.201 268.495 499.201 268.495 499.201C268.495 499.201 268.495 499.201 268.495 499.201C268.495 499.201 268.495 499.201 268.794 497.731ZM249.551 493.068C245.527 492.642 241.073 492.527 237.644 492.516C235.925 492.51 234.455 492.531 233.413 492.554C232.892 492.565 232.479 492.576 232.194 492.585C232.052 492.589 231.942 492.593 231.867 492.596C231.829 492.597 231.801 492.598 231.781 492.599C231.772 492.599 231.764 492.599 231.759 492.599C231.756 492.6 231.754 492.6 231.753 492.6C231.752 492.6 231.752 492.6 231.751 492.6C231.751 492.6 231.751 492.6 231.751 492.6C231.751 492.6 231.75 492.6 231.808 494.099C231.866 495.598 231.866 495.598 231.866 495.598C231.866 495.598 231.866 495.598 231.867 495.598C231.867 495.598 231.867 495.598 231.868 495.598C231.868 495.597 231.87 495.597 231.872 495.597C231.876 495.597 231.883 495.597 231.892 495.597C231.909 495.596 231.936 495.595 231.971 495.594C232.042 495.591 232.148 495.588 232.286 495.584C232.562 495.575 232.967 495.564 233.477 495.553C234.499 495.531 235.944 495.51 237.634 495.516C241.022 495.527 245.36 495.641 249.235 496.052L249.551 493.068ZM462.956 492.828C463.461 494.24 463.461 494.24 463.461 494.24C463.461 494.24 463.461 494.24 463.461 494.24C463.461 494.24 463.461 494.24 463.461 494.24C463.462 494.24 463.464 494.239 463.465 494.239C463.469 494.237 463.475 494.235 463.483 494.232C463.5 494.226 463.524 494.218 463.558 494.206C463.624 494.183 463.723 494.148 463.853 494.103C464.113 494.013 464.496 493.883 464.981 493.722C465.953 493.401 467.336 492.959 468.974 492.477C472.26 491.51 476.537 490.396 480.578 489.773L480.121 486.808C475.891 487.46 471.471 488.615 468.128 489.599C466.451 490.092 465.036 490.544 464.039 490.874C463.54 491.039 463.146 491.174 462.874 491.267C462.739 491.314 462.634 491.351 462.563 491.376C462.527 491.388 462.5 491.398 462.481 491.405C462.471 491.408 462.464 491.411 462.459 491.412C462.457 491.413 462.455 491.414 462.453 491.414C462.453 491.415 462.452 491.415 462.452 491.415C462.451 491.415 462.451 491.415 462.451 491.415C462.451 491.415 462.451 491.415 462.956 492.828ZM480.578 489.773C484.652 489.144 489.235 488.746 492.816 488.505C494.603 488.385 496.133 488.304 497.216 488.253C497.757 488.228 498.186 488.21 498.479 488.199C498.626 488.193 498.738 488.189 498.814 488.186C498.851 488.185 498.88 488.184 498.899 488.183C498.908 488.183 498.915 488.183 498.92 488.183C498.922 488.183 498.924 488.183 498.925 488.183C498.925 488.183 498.926 488.183 498.926 488.183C498.926 488.183 498.926 488.183 498.926 488.183C498.926 488.183 498.926 488.183 498.878 486.683C498.829 485.184 498.829 485.184 498.829 485.184C498.829 485.184 498.829 485.184 498.829 485.184C498.828 485.184 498.828 485.184 498.827 485.184C498.826 485.184 498.824 485.184 498.821 485.184C498.815 485.185 498.808 485.185 498.797 485.185C498.777 485.186 498.747 485.187 498.707 485.188C498.629 485.191 498.513 485.195 498.363 485.201C498.062 485.213 497.626 485.231 497.076 485.257C495.977 485.308 494.426 485.39 492.615 485.512C489 485.755 484.319 486.16 480.121 486.808L480.578 489.773ZM465.13 504.124C465.358 505.607 465.358 505.607 465.358 505.607C465.358 505.607 465.358 505.607 465.358 505.607C465.358 505.607 465.358 505.607 465.358 505.607C465.359 505.607 465.36 505.607 465.362 505.606C465.365 505.606 465.369 505.605 465.376 505.604C465.389 505.602 465.409 505.599 465.436 505.595C465.489 505.587 465.569 505.576 465.674 505.56C465.885 505.53 466.195 505.487 466.59 505.434C467.38 505.329 468.509 505.189 469.858 505.049C472.561 504.768 476.12 504.49 479.593 504.49L479.593 501.49C475.977 501.49 472.304 501.779 469.548 502.065C468.167 502.209 467.009 502.352 466.196 502.46C465.789 502.514 465.467 502.559 465.247 502.591C465.137 502.607 465.051 502.619 464.993 502.628C464.964 502.632 464.942 502.636 464.927 502.638C464.919 502.639 464.913 502.64 464.909 502.641C464.907 502.641 464.905 502.641 464.904 502.642C464.903 502.642 464.903 502.642 464.903 502.642C464.902 502.642 464.902 502.642 464.902 502.642C464.902 502.642 464.902 502.642 465.13 504.124ZM479.593 504.49C483.118 504.49 486.836 504.572 489.676 504.655C491.096 504.696 492.294 504.737 493.138 504.768C493.559 504.784 493.892 504.797 494.119 504.806C494.233 504.81 494.32 504.814 494.378 504.816C494.407 504.817 494.43 504.818 494.444 504.819C494.452 504.819 494.457 504.819 494.461 504.819C494.463 504.819 494.464 504.82 494.465 504.82C494.465 504.82 494.466 504.82 494.466 504.82C494.466 504.82 494.466 504.82 494.466 504.82C494.466 504.82 494.466 504.82 494.529 503.321C494.593 501.822 494.592 501.822 494.592 501.822C494.592 501.822 494.592 501.822 494.592 501.822C494.592 501.822 494.591 501.822 494.591 501.822C494.59 501.822 494.588 501.822 494.586 501.822C494.582 501.822 494.577 501.822 494.569 501.821C494.554 501.821 494.531 501.82 494.501 501.818C494.441 501.816 494.353 501.812 494.238 501.808C494.008 501.799 493.672 501.786 493.248 501.77C492.398 501.739 491.192 501.698 489.764 501.656C486.909 501.573 483.159 501.49 479.593 501.49L479.593 504.49ZM364.39 494.489C365.238 493.252 365.239 493.252 365.239 493.252C365.239 493.252 365.239 493.252 365.239 493.252C365.238 493.252 365.238 493.252 365.238 493.252C365.238 493.251 365.237 493.251 365.236 493.25C365.234 493.249 365.231 493.246 365.226 493.243C365.217 493.237 365.204 493.228 365.186 493.216C365.15 493.191 365.097 493.154 365.028 493.106C364.89 493.01 364.689 492.869 364.442 492.692C363.945 492.339 363.262 491.844 362.512 491.278C360.987 490.126 359.286 488.754 358.304 487.698L356.108 489.742C357.288 491.01 359.179 492.521 360.705 493.673C361.482 494.259 362.189 494.771 362.701 495.136C362.958 495.319 363.166 495.465 363.312 495.566C363.384 495.617 363.441 495.656 363.48 495.683C363.499 495.697 363.514 495.707 363.524 495.714C363.53 495.718 363.534 495.72 363.536 495.722C363.538 495.723 363.539 495.724 363.54 495.725C363.54 495.725 363.54 495.725 363.541 495.725C363.541 495.725 363.541 495.725 363.541 495.725C363.541 495.725 363.541 495.726 364.39 494.489ZM358.304 487.698C357.304 486.624 356.442 485.424 355.805 484.385C355.137 483.295 354.805 482.528 354.75 482.306L351.839 483.033C352.013 483.73 352.557 484.827 353.247 485.952C353.967 487.128 354.946 488.494 356.108 489.742L358.304 487.698ZM372.317 483.087C372.138 484.953 371.387 486.104 369.597 488.034L371.797 490.074C373.722 487.998 375.028 486.239 375.303 483.375L372.317 483.087ZM369.597 488.034C368.329 489.402 366.815 490.708 365.6 491.685C364.996 492.17 364.474 492.567 364.104 492.842C363.919 492.979 363.773 493.085 363.674 493.157C363.625 493.192 363.587 493.219 363.562 493.237C363.55 493.246 363.541 493.252 363.535 493.256C363.532 493.258 363.53 493.259 363.529 493.26C363.528 493.261 363.528 493.261 363.528 493.261C363.528 493.261 363.528 493.261 363.528 493.261C363.528 493.261 363.528 493.261 363.528 493.261C363.528 493.261 363.528 493.261 364.39 494.489C365.252 495.717 365.252 495.716 365.252 495.716C365.252 495.716 365.252 495.716 365.252 495.716C365.252 495.716 365.253 495.716 365.253 495.715C365.254 495.715 365.255 495.714 365.256 495.713C365.258 495.712 365.262 495.709 365.266 495.707C365.274 495.701 365.285 495.693 365.3 495.682C365.33 495.661 365.373 495.63 365.428 495.591C365.538 495.511 365.696 495.396 365.893 495.25C366.288 494.957 366.841 494.536 367.479 494.024C368.748 493.004 370.388 491.594 371.797 490.074L369.597 488.034Z" fill="black"/>
</svg>
