<svg width="701" height="901" viewBox="0 0 701 901" fill="none" xmlns="http://www.w3.org/2000/svg">
<path d="M411.512 521.871C415.984 522.598 419.363 522.693 423.448 522.386L424.054 522.341C429.702 521.918 433.501 521.633 436.989 520.368C436.989 520.368 427.203 538.751 423.883 538.786C420.563 538.821 411.512 521.871 411.512 521.871Z" fill="white"/>
<path d="M348.754 483.113C346.029 483.301 343.586 486.777 345.09 489.126C346.593 491.475 351.197 492.227 352.606 489.126C354.015 486.026 351.478 482.925 348.754 483.113Z" fill="black"/>
<path d="M374.497 482.925C371.773 483.113 369.33 486.589 370.833 488.938C372.336 491.287 376.94 492.039 378.35 488.938C379.759 485.838 377.222 482.737 374.497 482.925Z" fill="black"/>
<path d="M277.25 508.937C276.464 508.161 275.198 508.169 274.422 508.955C273.646 509.74 273.653 511.007 274.439 511.783L277.25 508.937ZM362.847 514.024L362.84 516.024L362.847 514.024ZM423.448 522.386L423.298 520.392L423.448 522.386ZM455.241 509.607C456.057 508.863 456.115 507.598 455.371 506.782C454.626 505.966 453.361 505.908 452.545 506.652L455.241 509.607ZM474.654 473.925C473.679 474.443 473.308 475.654 473.827 476.629C474.345 477.605 475.556 477.975 476.532 477.457L474.654 473.925ZM575.801 461.993C575.807 460.888 574.916 459.988 573.811 459.982C572.707 459.977 571.807 460.867 571.801 461.972L575.801 461.993ZM252.801 481.293C253.519 482.132 254.782 482.23 255.621 481.511C256.46 480.793 256.557 479.53 255.839 478.691L252.801 481.293ZM164.243 469.596C164.354 468.497 163.553 467.516 162.454 467.406C161.355 467.295 160.374 468.096 160.263 469.195L164.243 469.596ZM274.439 511.783C278.304 515.6 282.211 518.909 286.916 521.239C291.648 523.582 297.081 524.884 303.945 524.856L303.929 520.856C297.616 520.882 292.808 519.693 288.691 517.654C284.547 515.602 280.996 512.636 277.25 508.937L274.439 511.783ZM303.945 524.856C310.818 524.828 319.481 522.509 329.187 520.337C339.032 518.133 350.29 515.978 362.84 516.024L362.854 512.024C349.848 511.976 338.24 514.211 328.313 516.433C318.248 518.686 310.234 520.83 303.929 520.856L303.945 524.856ZM476.532 477.457C481.167 474.993 486.038 471.069 496.696 470.262L496.394 466.274C484.69 467.159 478.922 471.656 474.654 473.925L476.532 477.457ZM496.696 470.262C501.438 469.904 506.308 472.784 511.563 476.894C514.214 478.968 516.598 481.047 519.24 483.165C521.774 485.196 524.369 487.113 526.969 488.422L528.768 484.85C526.562 483.738 524.236 482.043 521.742 480.044C519.357 478.132 516.608 475.762 514.027 473.744C508.818 469.669 502.832 465.787 496.394 466.274L496.696 470.262ZM526.969 488.422C537.037 493.495 546.943 494.341 557.453 490.573L556.103 486.808C546.694 490.181 537.925 489.463 528.768 484.85L526.969 488.422ZM557.453 490.573C562.98 488.592 567.543 484.183 570.709 479.009C573.88 473.828 575.771 467.69 575.801 461.993L571.801 461.972C571.775 466.855 570.134 472.286 567.297 476.921C564.456 481.564 560.535 485.219 556.103 486.808L557.453 490.573ZM254.32 479.992C255.839 478.691 255.838 478.691 255.838 478.69C255.837 478.69 255.837 478.689 255.836 478.689C255.835 478.687 255.834 478.686 255.833 478.685C255.831 478.682 255.828 478.679 255.825 478.676C255.819 478.669 255.811 478.659 255.801 478.648C255.782 478.626 255.755 478.596 255.721 478.558C255.654 478.484 255.558 478.38 255.435 478.25C255.189 477.992 254.833 477.633 254.373 477.207C253.453 476.357 252.109 475.232 250.39 474.111C246.961 471.874 241.953 469.599 235.803 469.65L235.837 473.65C240.961 473.608 245.203 475.503 248.205 477.461C249.702 478.437 250.869 479.415 251.657 480.144C252.05 480.507 252.346 480.807 252.539 481.009C252.636 481.111 252.706 481.188 252.75 481.237C252.772 481.261 252.787 481.278 252.796 481.288C252.8 481.293 252.803 481.295 252.803 481.296C252.804 481.297 252.804 481.297 252.803 481.296C252.803 481.296 252.803 481.296 252.802 481.295C252.802 481.295 252.802 481.294 252.802 481.294C252.801 481.294 252.801 481.293 254.32 479.992ZM235.803 469.65C223.655 469.752 213.76 477.718 207.068 485.366L210.078 488C216.539 480.616 225.435 473.737 235.837 473.65L235.803 469.65ZM207.068 485.366C203.957 488.921 201.172 490.789 198.233 491.863C195.229 492.96 191.928 493.283 187.606 493.518L187.824 497.512C192.145 497.277 195.985 496.942 199.605 495.62C203.29 494.274 206.612 491.962 210.078 488L207.068 485.366ZM187.606 493.518C179.681 493.949 171.943 489.502 168.46 484.83L165.253 487.221C169.475 492.884 178.461 498.021 187.824 497.512L187.606 493.518ZM168.46 484.83C164.907 480.063 163.647 475.512 164.243 469.596L160.263 469.195C159.567 476.105 161.103 481.653 165.253 487.221L168.46 484.83ZM362.84 516.024C372.215 516.059 380.903 517.451 388.952 519.12C396.898 520.769 404.489 522.756 411.191 523.845L411.833 519.897C405.21 518.821 398.036 516.92 389.764 515.204C381.595 513.509 372.612 512.06 362.854 512.024L362.84 516.024ZM411.191 523.845C415.827 524.599 419.365 524.699 423.598 524.381L423.298 520.392C419.362 520.688 416.141 520.597 411.833 519.897L411.191 523.845ZM411.512 521.871C409.748 522.813 409.748 522.813 409.748 522.814C409.748 522.814 409.748 522.814 409.748 522.815C409.749 522.815 409.749 522.816 409.75 522.817C409.751 522.82 409.753 522.823 409.755 522.828C409.76 522.837 409.767 522.849 409.776 522.866C409.794 522.9 409.82 522.949 409.855 523.013C409.924 523.14 410.024 523.325 410.153 523.561C410.411 524.031 410.782 524.702 411.238 525.505C412.148 527.11 413.4 529.258 414.762 531.411C416.116 533.551 417.613 535.752 419.011 537.435C419.706 538.272 420.426 539.043 421.136 539.62C421.755 540.124 422.738 540.798 423.904 540.786L423.862 536.786C424.198 536.782 424.172 536.934 423.661 536.518C423.24 536.175 422.709 535.627 422.088 534.88C420.855 533.395 419.466 531.365 418.143 529.272C416.827 527.192 415.609 525.105 414.718 523.533C414.273 522.748 413.911 522.094 413.661 521.638C413.536 521.41 413.439 521.231 413.374 521.11C413.341 521.05 413.316 521.004 413.3 520.973C413.291 520.958 413.285 520.947 413.281 520.939C413.279 520.935 413.278 520.933 413.277 520.931C413.277 520.93 413.276 520.93 413.276 520.929C413.276 520.929 413.276 520.929 413.276 520.929C413.276 520.929 413.276 520.929 411.512 521.871ZM437.67 522.249C444.32 519.837 449.049 515.256 455.241 509.607L452.545 506.652C446.148 512.488 442.048 516.406 436.307 518.488L437.67 522.249ZM423.904 540.786C424.554 540.779 425.112 540.556 425.524 540.335C425.95 540.106 426.348 539.808 426.708 539.497C427.426 538.877 428.168 538.049 428.893 537.144C430.351 535.322 431.935 532.942 433.379 530.62C434.831 528.287 436.173 525.96 437.151 524.221C437.641 523.351 438.04 522.625 438.318 522.116C438.457 521.861 438.565 521.66 438.639 521.523C438.676 521.454 438.704 521.401 438.724 521.365C438.734 521.347 438.741 521.333 438.746 521.323C438.749 521.319 438.75 521.315 438.752 521.312C438.753 521.311 438.753 521.31 438.753 521.309C438.754 521.309 438.754 521.309 438.754 521.309C438.754 521.308 438.754 521.308 436.989 520.368C435.223 519.429 435.223 519.429 435.223 519.429C435.223 519.429 435.223 519.429 435.223 519.429C435.223 519.429 435.222 519.43 435.222 519.431C435.221 519.433 435.219 519.436 435.217 519.44C435.213 519.448 435.206 519.461 435.197 519.477C435.179 519.511 435.152 519.561 435.117 519.627C435.046 519.759 434.941 519.953 434.806 520.201C434.535 520.697 434.144 521.408 433.664 522.261C432.704 523.97 431.393 526.241 429.983 528.508C428.566 530.786 427.08 533.008 425.771 534.643C425.111 535.466 424.544 536.08 424.092 536.471C423.866 536.666 423.713 536.767 423.631 536.812C423.535 536.863 423.628 536.788 423.862 536.786L423.904 540.786ZM423.597 524.381L424.204 524.335L423.905 520.346L423.298 520.392L423.597 524.381ZM424.204 524.335C429.768 523.918 433.871 523.626 437.67 522.249L436.307 518.488C433.131 519.64 429.636 519.917 423.905 520.346L424.204 524.335ZM423.598 524.381C423.802 524.365 424.004 524.35 424.204 524.335L423.905 520.346C423.705 520.361 423.503 520.376 423.298 520.392L423.598 524.381ZM348.616 481.118C346.482 481.265 344.675 482.641 343.654 484.227C342.632 485.815 342.089 488.148 343.405 490.204L346.774 488.048C346.586 487.755 346.513 487.176 347.018 486.392C347.524 485.605 348.301 485.149 348.891 485.108L348.616 481.118ZM343.405 490.204C344.569 492.023 346.746 493.041 348.759 493.166C350.847 493.295 353.284 492.467 354.427 489.954L350.785 488.298C350.518 488.885 349.949 489.232 349.007 489.173C347.99 489.11 347.113 488.578 346.774 488.048L343.405 490.204ZM354.427 489.954C356.473 485.451 352.826 480.827 348.616 481.118L348.891 485.108C350.13 485.023 351.557 486.6 350.785 488.298L354.427 489.954ZM374.36 480.93C372.226 481.077 370.418 482.453 369.398 484.039C368.376 485.627 367.833 487.961 369.149 490.016L372.518 487.86C372.33 487.567 372.257 486.988 372.762 486.204C373.268 485.417 374.044 484.961 374.635 484.92L374.36 480.93ZM369.149 490.016C370.313 491.835 372.49 492.853 374.503 492.978C376.591 493.107 379.028 492.279 380.17 489.766L376.529 488.111C376.262 488.698 375.692 489.044 374.75 488.986C373.734 488.922 372.857 488.39 372.518 487.86L369.149 490.016ZM380.17 489.766C382.217 485.263 378.57 480.639 374.36 480.93L374.635 484.92C375.874 484.835 377.301 486.412 376.529 488.111L380.17 489.766Z" fill="black"/>
</svg>
