<svg width="701" height="901" viewBox="0 0 701 901" fill="none" xmlns="http://www.w3.org/2000/svg">
<path d="M349.946 506.125C347.816 506.317 347.234 509.383 347.34 510.804C347.447 512.226 348.176 515.097 350.739 514.998C353.301 514.899 353.861 511.98 353.608 510.014C353.356 508.048 352.075 505.933 349.946 506.125Z" fill="black"/>
<path d="M376.07 506.063C373.941 506.256 373.359 509.321 373.465 510.742C373.571 512.164 374.301 515.035 376.863 514.936C379.425 514.837 379.985 511.918 379.733 509.952C379.48 507.986 378.2 505.871 376.07 506.063Z" fill="black"/>
<path fill-rule="evenodd" clip-rule="evenodd" d="M331.138 496.602C319.955 509.827 321.691 520.039 327.308 526.473C332.925 532.907 337.476 533.468 344.107 533.468C350.739 533.468 356.005 526.167 364.021 526.473C372.038 526.779 374.744 533.417 382.199 533.468C389.654 533.52 391.887 532.136 395.22 530.66C404.318 526.631 404.22 504.022 392.332 492.887C380.443 481.752 368.534 477.968 363.326 477.713C358.117 477.458 342.32 483.377 331.138 496.602ZM347.34 510.804C347.234 509.383 347.816 506.317 349.946 506.125C352.075 505.933 353.356 508.048 353.608 510.014C353.861 511.98 353.301 514.899 350.739 514.998C348.176 515.097 347.447 512.226 347.34 510.804ZM373.465 510.742C373.359 509.321 373.941 506.256 376.07 506.063C378.2 505.871 379.48 507.986 379.733 509.952C379.985 511.918 379.425 514.837 376.863 514.936C374.301 515.035 373.571 512.164 373.465 510.742Z" fill="#FEC8C8"/>
<path d="M395.22 530.66L394.612 529.289L394.612 529.289L395.22 530.66ZM329.992 495.634C324.26 502.413 321.709 508.574 321.425 514.006C321.14 519.462 323.153 523.994 326.178 527.46L328.438 525.487C325.847 522.518 324.183 518.728 324.421 514.163C324.661 509.574 326.833 504.016 332.283 497.571L329.992 495.634ZM395.827 532.032C398.594 530.806 400.512 528.24 401.681 525.156C402.855 522.06 403.338 518.294 403.144 514.364C402.756 506.528 399.651 497.688 393.357 491.792L391.306 493.982C396.901 499.222 399.789 507.253 400.148 514.513C400.326 518.131 399.871 521.468 398.876 524.092C397.876 526.729 396.395 528.499 394.612 529.289L395.827 532.032ZM393.357 491.792C381.263 480.465 369.03 476.491 363.399 476.215L363.252 479.211C368.038 479.446 379.623 483.04 391.306 493.982L393.357 491.792ZM363.399 476.215C361.843 476.138 359.685 476.517 357.235 477.262C354.752 478.017 351.855 479.182 348.783 480.77C342.643 483.944 335.732 488.845 329.992 495.634L332.283 497.571C337.725 491.134 344.304 486.463 350.161 483.435C353.087 481.922 355.815 480.829 358.108 480.132C360.434 479.425 362.204 479.16 363.252 479.211L363.399 476.215ZM349.811 504.631C347.924 504.802 346.904 506.251 346.417 507.433C345.922 508.636 345.776 509.994 345.845 510.916L348.836 510.692C348.799 510.193 348.89 509.307 349.192 508.575C349.502 507.82 349.837 507.641 350.081 507.619L349.811 504.631ZM345.845 510.916C345.907 511.756 346.151 513.078 346.823 514.228C347.53 515.438 348.806 516.574 350.797 516.497L350.68 513.499C350.108 513.521 349.738 513.271 349.414 512.715C349.054 512.098 348.88 511.273 348.836 510.692L345.845 510.916ZM350.797 516.497C352.792 516.419 354.007 515.18 354.605 513.803C355.17 512.5 355.246 510.991 355.096 509.823L352.12 510.205C352.223 511.003 352.145 511.936 351.853 512.609C351.593 513.207 351.248 513.477 350.68 513.499L350.797 516.497ZM355.096 509.823C354.941 508.619 354.471 507.317 353.639 506.307C352.78 505.263 351.475 504.481 349.811 504.631L350.081 507.619C350.546 507.577 350.946 507.756 351.323 508.213C351.726 508.704 352.022 509.442 352.12 510.205L355.096 509.823ZM375.935 504.569C374.049 504.74 373.028 506.189 372.542 507.371C372.047 508.574 371.9 509.932 371.969 510.854L374.961 510.63C374.924 510.131 375.015 509.246 375.316 508.513C375.627 507.758 375.962 507.579 376.205 507.557L375.935 504.569ZM371.969 510.854C372.032 511.694 372.276 513.016 372.948 514.166C373.655 515.376 374.931 516.512 376.921 516.435L376.805 513.437C376.233 513.459 375.863 513.209 375.538 512.653C375.178 512.036 375.004 511.212 374.961 510.63L371.969 510.854ZM376.921 516.435C378.916 516.357 380.132 515.118 380.729 513.741C381.295 512.438 381.37 510.929 381.22 509.761L378.245 510.143C378.347 510.941 378.269 511.874 377.977 512.547C377.718 513.145 377.372 513.415 376.805 513.437L376.921 516.435ZM381.22 509.761C381.066 508.557 380.595 507.256 379.763 506.245C378.904 505.201 377.599 504.419 375.935 504.569L376.205 507.557C376.671 507.515 377.071 507.694 377.447 508.152C377.851 508.642 378.147 509.381 378.245 510.143L381.22 509.761ZM326.178 527.46C329.112 530.82 331.858 532.747 334.827 533.797C337.757 534.834 340.777 534.968 344.107 534.968V531.968C340.806 531.968 338.236 531.822 335.828 530.969C333.459 530.131 331.121 528.56 328.438 525.487L326.178 527.46ZM344.107 534.968C347.908 534.968 351.271 532.872 354.285 531.16C357.445 529.366 360.427 527.837 363.964 527.972L364.079 524.974C359.599 524.803 355.94 526.771 352.804 528.551C349.524 530.414 346.938 531.968 344.107 531.968V534.968ZM363.964 527.972C367.518 528.108 369.888 529.617 372.501 531.323C375.087 533.011 377.968 534.94 382.189 534.968L382.209 531.969C378.975 531.946 376.776 530.531 374.141 528.81C371.532 527.108 368.541 525.145 364.079 524.974L363.964 527.972ZM382.189 534.968C386.011 534.995 388.577 534.654 390.653 534.083C392.699 533.521 394.24 532.734 395.827 532.032L394.612 529.289C392.866 530.062 391.624 530.705 389.858 531.191C388.12 531.668 385.842 531.993 382.209 531.969L382.189 534.968Z" fill="black"/>
</svg>
