<svg width="700" height="901" viewBox="0 0 700 901" fill="none" xmlns="http://www.w3.org/2000/svg">
<path d="M437.71 429.58L420.018 436.091L405.448 440.973C405.448 440.973 405.839 446.002 406.893 447.673C407.947 449.344 410.758 454.053 415.388 455.506C420.018 456.96 427.072 457.25 429.863 455.506C432.653 453.762 437.537 452.032 438.931 444.345C440.325 436.658 437.71 429.58 437.71 429.58Z" fill="black"/>
<path d="M312.089 461.552C317.437 457.192 317.813 447.673 317.813 447.673L281.919 440.799C281.919 440.799 280.322 454.409 283.314 458.645C286.305 462.882 290.657 465.775 297.265 465.679C303.874 465.583 306.741 465.912 312.089 461.552Z" fill="black"/>
<path d="M265.177 437.544C265.177 437.544 263.648 452.67 266.204 460.363C268.76 468.055 274.176 473.177 279.884 475.736C285.592 478.294 301.974 479.979 308.427 478.061C314.879 476.143 321.041 472.655 325.401 467.656C329.761 462.656 332.921 450.548 332.921 450.548L317.813 447.673C317.813 447.673 317.437 457.192 312.089 461.552C306.741 465.912 303.874 465.583 297.265 465.679C290.657 465.775 286.305 462.882 283.314 458.645C280.322 454.409 281.919 440.799 281.919 440.799L265.177 437.544Z" fill="white"/>
<path d="M391.031 446.438C391.031 446.438 394.409 458.603 400.971 463.005C407.534 467.407 411.472 469.555 421.55 470.155C431.627 470.755 439.395 466.625 445.384 461.843C451.373 457.06 452.766 452.367 453.486 445.406C454.206 438.444 451.662 424.173 451.662 424.173L437.71 429.58C437.71 429.58 440.325 436.658 438.931 444.345C437.537 452.032 432.653 453.762 429.863 455.506C427.072 457.25 420.018 456.96 415.388 455.506C410.758 454.053 407.947 449.344 406.893 447.673C405.839 446.002 405.448 440.973 405.448 440.973L391.031 446.438Z" fill="white"/>
<path d="M257.733 434.56C256.92 434.401 256.132 434.931 255.973 435.744C255.814 436.558 256.344 437.345 257.158 437.504L257.733 434.56ZM340.443 443.623C340.398 442.796 339.69 442.162 338.863 442.208C338.036 442.253 337.402 442.961 337.448 443.788L340.443 443.623ZM332.921 450.548L333.251 449.085L333.226 449.079L333.201 449.075L332.921 450.548ZM386.081 439.718C386.094 438.89 385.433 438.208 384.605 438.195C383.776 438.182 383.094 438.842 383.081 439.671L386.081 439.718ZM420.018 436.091L420.494 437.513L420.515 437.506L420.536 437.498L420.018 436.091ZM457.991 423.176C458.756 422.859 459.12 421.982 458.803 421.216C458.486 420.451 457.608 420.087 456.843 420.404L457.991 423.176ZM405.448 440.973L404.971 439.551L404.943 439.56L404.916 439.571L405.448 440.973ZM339.272 452.362C339.632 452.139 339.833 451.833 339.938 451.642C340.052 451.436 340.128 451.225 340.181 451.046C340.286 450.688 340.353 450.28 340.398 449.887C340.491 449.088 340.523 448.117 340.529 447.21C340.534 446.293 340.513 445.398 340.49 444.735C340.479 444.402 340.467 444.126 340.458 443.933C340.454 443.836 340.45 443.759 340.448 443.707C340.446 443.681 340.445 443.66 340.444 443.646C340.444 443.639 340.444 443.634 340.444 443.63C340.443 443.628 340.443 443.626 340.443 443.625C340.443 443.625 340.443 443.624 340.443 443.624C340.443 443.624 340.443 443.624 340.443 443.624C340.443 443.623 340.443 443.623 338.945 443.706C337.448 443.788 337.448 443.788 337.448 443.788C337.448 443.788 337.448 443.788 337.448 443.788C337.448 443.788 337.448 443.788 337.448 443.788C337.448 443.789 337.448 443.79 337.448 443.791C337.448 443.794 337.448 443.798 337.449 443.804C337.449 443.816 337.45 443.835 337.451 443.859C337.454 443.907 337.457 443.978 337.462 444.07C337.47 444.254 337.481 444.518 337.492 444.837C337.514 445.476 337.534 446.328 337.529 447.191C337.523 448.064 337.492 448.906 337.418 449.541C337.381 449.864 337.338 450.078 337.304 450.196C337.286 450.255 337.284 450.244 337.31 450.196C337.328 450.163 337.434 449.972 337.689 449.814L339.272 452.362ZM257.158 437.504L264.889 439.016L265.465 436.072L257.733 434.56L257.158 437.504ZM265.177 437.544C263.684 437.393 263.684 437.393 263.684 437.393C263.684 437.393 263.684 437.394 263.684 437.394C263.684 437.395 263.684 437.396 263.684 437.397C263.684 437.399 263.683 437.402 263.683 437.406C263.682 437.415 263.681 437.426 263.68 437.442C263.677 437.472 263.672 437.517 263.667 437.575C263.656 437.692 263.64 437.862 263.622 438.08C263.584 438.517 263.534 439.147 263.481 439.927C263.377 441.484 263.264 443.644 263.232 446.049C263.169 450.795 263.415 456.727 264.781 460.836L267.628 459.89C266.437 456.306 266.169 450.828 266.232 446.088C266.263 443.75 266.372 441.647 266.474 440.128C266.525 439.369 266.575 438.757 266.611 438.337C266.629 438.127 266.643 437.965 266.654 437.856C266.659 437.801 266.663 437.76 266.665 437.733C266.667 437.719 266.668 437.709 266.668 437.703C266.669 437.7 266.669 437.697 266.669 437.696C266.669 437.695 266.669 437.695 266.669 437.695C266.669 437.694 266.669 437.694 266.669 437.694C266.669 437.694 266.669 437.695 265.177 437.544ZM264.781 460.836C267.48 468.957 273.209 474.388 279.27 477.105L280.497 474.367C275.143 471.967 270.041 467.153 267.628 459.89L264.781 460.836ZM279.27 477.105C282.365 478.492 288.098 479.568 293.743 480.071C299.375 480.574 305.332 480.546 308.854 479.499L307.999 476.623C305.068 477.495 299.609 477.583 294.009 477.083C288.423 476.585 283.111 475.539 280.497 474.367L279.27 477.105ZM308.854 479.499C315.515 477.519 321.945 473.9 326.531 468.642L324.27 466.67C320.137 471.41 314.243 474.767 307.999 476.623L308.854 479.499ZM332.921 450.548C332.591 452.012 332.591 452.012 332.592 452.012C332.592 452.012 332.592 452.012 332.592 452.012C332.592 452.012 332.593 452.012 332.593 452.012C332.594 452.012 332.595 452.012 332.596 452.013C332.599 452.013 332.603 452.014 332.608 452.015C332.618 452.018 332.633 452.021 332.651 452.025C332.689 452.033 332.742 452.045 332.811 452.06C332.947 452.089 333.141 452.13 333.376 452.177C333.844 452.271 334.483 452.392 335.154 452.497C335.817 452.6 336.547 452.693 337.187 452.723C337.505 452.738 337.839 452.739 338.149 452.708C338.411 452.682 338.864 452.616 339.272 452.362L337.689 449.814C337.887 449.691 338.008 449.707 337.85 449.723C337.742 449.734 337.569 449.738 337.326 449.726C336.845 449.704 336.238 449.629 335.616 449.532C335.002 449.437 334.409 449.324 333.967 449.236C333.746 449.191 333.565 449.153 333.44 449.126C333.378 449.113 333.329 449.102 333.297 449.095C333.281 449.092 333.269 449.089 333.261 449.087C333.257 449.086 333.254 449.086 333.253 449.085C333.252 449.085 333.251 449.085 333.251 449.085C333.251 449.085 333.251 449.085 333.251 449.085L333.251 449.085C333.251 449.085 333.251 449.085 332.921 450.548ZM326.531 468.642C328.912 465.912 330.869 461.396 332.205 457.742C332.885 455.882 333.425 454.183 333.796 452.95C333.981 452.332 334.124 451.83 334.222 451.481C334.27 451.306 334.308 451.169 334.333 451.076C334.346 451.029 334.355 450.992 334.362 450.967C334.365 450.955 334.368 450.945 334.369 450.939C334.37 450.935 334.371 450.933 334.371 450.931C334.372 450.93 334.372 450.929 334.372 450.928C334.372 450.928 334.372 450.928 334.372 450.928C334.372 450.927 334.372 450.927 332.921 450.548C331.47 450.169 331.47 450.169 331.47 450.169C331.47 450.169 331.47 450.169 331.47 450.169C331.47 450.169 331.47 450.17 331.469 450.17C331.469 450.171 331.469 450.173 331.468 450.176C331.467 450.18 331.465 450.188 331.462 450.199C331.456 450.22 331.448 450.252 331.436 450.295C331.413 450.381 331.378 450.51 331.332 450.676C331.239 451.008 331.102 451.491 330.923 452.087C330.564 453.28 330.042 454.921 329.387 456.712C328.053 460.362 326.25 464.4 324.27 466.67L326.531 468.642ZM317.532 449.147L332.641 452.022L333.201 449.075L318.093 446.2L317.532 449.147ZM317.813 447.673C316.314 447.614 316.314 447.614 316.314 447.614C316.314 447.613 316.314 447.613 316.314 447.613C316.314 447.613 316.314 447.613 316.314 447.613C316.314 447.613 316.314 447.614 316.314 447.615C316.314 447.617 316.313 447.622 316.313 447.629C316.312 447.642 316.311 447.665 316.31 447.696C316.306 447.757 316.3 447.852 316.29 447.976C316.271 448.224 316.238 448.59 316.182 449.045C316.069 449.957 315.865 451.216 315.505 452.599C314.769 455.422 313.443 458.513 311.141 460.389L313.037 462.715C316.083 460.231 317.619 456.383 318.408 453.356C318.809 451.815 319.034 450.422 319.159 449.413C319.222 448.907 319.259 448.495 319.282 448.206C319.293 448.062 319.3 447.947 319.305 447.867C319.307 447.827 319.309 447.796 319.31 447.773C319.31 447.762 319.311 447.753 319.311 447.746C319.311 447.743 319.311 447.74 319.311 447.737C319.311 447.736 319.311 447.735 319.311 447.735C319.311 447.734 319.311 447.734 319.311 447.733C319.311 447.733 319.311 447.733 317.813 447.673ZM311.141 460.389C308.598 462.463 306.755 463.335 304.835 463.748C302.81 464.183 300.651 464.13 297.244 464.179L297.287 467.179C300.488 467.133 303.066 467.196 305.465 466.681C307.967 466.144 310.232 465.001 313.037 462.715L311.141 460.389ZM297.244 464.179C291.188 464.267 287.28 461.662 284.539 457.78L282.089 459.511C285.331 464.102 290.126 467.283 297.287 467.179L297.244 464.179ZM264.891 439.016L281.632 442.271L282.205 439.327L265.463 436.071L264.891 439.016ZM281.637 442.272L317.53 449.147L318.095 446.2L282.201 439.326L281.637 442.272ZM284.539 457.78C284.004 457.023 283.582 455.673 283.318 453.855C283.062 452.086 282.982 450.07 282.994 448.143C283.007 446.222 283.11 444.425 283.212 443.106C283.262 442.448 283.312 441.911 283.349 441.54C283.367 441.355 283.382 441.212 283.393 441.115C283.398 441.067 283.402 441.031 283.405 441.007C283.406 440.995 283.407 440.986 283.408 440.981C283.408 440.978 283.408 440.976 283.408 440.975C283.408 440.974 283.408 440.974 283.408 440.974C283.409 440.974 283.409 440.974 283.409 440.974C283.409 440.974 283.408 440.974 281.919 440.799C280.429 440.624 280.429 440.625 280.429 440.625C280.429 440.625 280.429 440.625 280.429 440.626C280.429 440.626 280.429 440.627 280.428 440.628C280.428 440.63 280.428 440.633 280.427 440.637C280.427 440.645 280.425 440.656 280.424 440.669C280.421 440.697 280.416 440.738 280.41 440.791C280.399 440.896 280.383 441.049 280.363 441.244C280.325 441.634 280.273 442.193 280.22 442.877C280.116 444.242 280.007 446.113 279.994 448.124C279.982 450.128 280.063 452.309 280.349 454.284C280.628 456.209 281.128 458.15 282.089 459.511L284.539 457.78ZM384.581 439.695C383.081 439.671 383.081 439.671 383.081 439.671C383.081 439.671 383.081 439.671 383.081 439.671C383.081 439.672 383.081 439.672 383.081 439.673C383.081 439.674 383.081 439.675 383.081 439.677C383.081 439.681 383.081 439.687 383.081 439.694C383.08 439.709 383.08 439.73 383.08 439.758C383.079 439.813 383.078 439.893 383.077 439.996C383.075 440.2 383.073 440.493 383.073 440.845C383.073 441.549 383.081 442.498 383.11 443.473C383.14 444.441 383.192 445.465 383.285 446.305C383.332 446.721 383.392 447.132 383.476 447.484C383.518 447.659 383.574 447.853 383.651 448.041C383.718 448.204 383.852 448.491 384.109 448.744L386.211 446.603C386.305 446.696 386.36 446.78 386.385 446.822C386.412 446.867 386.424 446.897 386.426 446.901C386.429 446.907 386.415 446.875 386.394 446.785C386.352 446.608 386.307 446.336 386.267 445.973C386.187 445.253 386.137 444.324 386.109 443.383C386.08 442.448 386.073 441.531 386.073 440.845C386.073 440.503 386.075 440.22 386.077 440.023C386.078 439.924 386.079 439.848 386.079 439.796C386.08 439.77 386.08 439.75 386.08 439.737C386.08 439.731 386.08 439.726 386.08 439.723C386.08 439.721 386.08 439.72 386.081 439.719C386.081 439.719 386.081 439.719 386.081 439.718C386.081 439.718 386.081 439.718 386.081 439.718C386.081 439.718 386.081 439.718 384.581 439.695ZM384.109 448.744C384.607 449.232 385.247 449.297 385.519 449.313C385.874 449.335 386.247 449.301 386.584 449.253C387.268 449.155 388.056 448.957 388.768 448.754C389.491 448.548 390.185 448.321 390.696 448.147C390.952 448.059 391.164 447.984 391.313 447.931C391.387 447.905 391.446 447.883 391.487 447.868C391.507 447.861 391.523 447.855 391.534 447.851C391.539 447.849 391.544 447.847 391.547 447.846C391.548 447.846 391.55 447.845 391.551 447.845C391.551 447.845 391.551 447.845 391.552 447.845C391.552 447.844 391.552 447.844 391.552 447.844C391.552 447.844 391.552 447.844 391.031 446.438C390.51 445.031 390.51 445.031 390.51 445.031C390.51 445.031 390.51 445.031 390.51 445.031C390.51 445.031 390.51 445.031 390.51 445.031C390.509 445.031 390.509 445.032 390.508 445.032C390.506 445.033 390.503 445.034 390.499 445.035C390.49 445.039 390.477 445.043 390.459 445.05C390.424 445.063 390.37 445.082 390.302 445.107C390.165 445.156 389.967 445.225 389.727 445.307C389.245 445.471 388.602 445.681 387.944 445.869C387.275 446.06 386.639 446.214 386.157 446.284C385.911 446.319 385.766 446.323 385.704 446.319C385.56 446.31 385.887 446.285 386.211 446.603L384.109 448.744ZM391.031 446.438C389.586 446.839 389.586 446.839 389.586 446.84C389.586 446.84 389.586 446.84 389.586 446.841C389.586 446.842 389.587 446.842 389.587 446.844C389.588 446.846 389.588 446.849 389.59 446.853C389.592 446.86 389.595 446.87 389.598 446.884C389.606 446.91 389.617 446.948 389.631 446.996C389.659 447.093 389.701 447.233 389.756 447.411C389.865 447.767 390.028 448.276 390.244 448.899C390.675 450.142 391.321 451.849 392.179 453.702C393.865 457.338 396.493 461.807 400.136 464.251L401.807 461.759C398.888 459.801 396.546 455.987 394.901 452.44C394.095 450.701 393.486 449.091 393.079 447.916C392.875 447.33 392.723 446.854 392.622 446.527C392.572 446.364 392.535 446.238 392.51 446.155C392.498 446.113 392.489 446.082 392.484 446.062C392.481 446.052 392.479 446.045 392.478 446.041C392.477 446.038 392.477 446.037 392.476 446.036C392.476 446.036 392.476 446.036 392.476 446.036C392.476 446.036 392.476 446.036 392.476 446.036C392.476 446.036 392.476 446.036 391.031 446.438ZM400.136 464.251C403.426 466.458 406.173 468.181 409.411 469.408C412.661 470.641 416.326 471.347 421.461 471.653L421.639 468.658C416.696 468.364 413.353 467.695 410.474 466.603C407.583 465.507 405.079 463.954 401.807 461.759L400.136 464.251ZM421.461 471.653C432.041 472.283 440.165 467.93 446.32 463.015L444.448 460.67C438.625 465.32 431.214 469.228 421.639 468.658L421.461 471.653ZM446.32 463.015C449.469 460.499 451.479 457.948 452.779 455.056C454.066 452.193 454.613 449.088 454.978 445.56L451.994 445.251C451.639 448.684 451.13 451.407 450.043 453.826C448.968 456.216 447.287 458.403 444.448 460.67L446.32 463.015ZM452.236 425.559L457.991 423.176L456.843 420.404L451.088 422.788L452.236 425.559ZM454.978 445.56C455.358 441.889 454.878 436.425 454.333 431.996C454.057 429.756 453.759 427.738 453.53 426.279C453.415 425.55 453.318 424.959 453.249 424.551C453.214 424.346 453.187 424.187 453.168 424.079C453.159 424.024 453.151 423.983 453.146 423.955C453.144 423.94 453.142 423.93 453.141 423.922C453.14 423.918 453.14 423.916 453.139 423.914C453.139 423.913 453.139 423.912 453.139 423.911C453.139 423.911 453.139 423.911 453.139 423.911C453.139 423.91 453.139 423.91 451.662 424.173C450.185 424.437 450.185 424.437 450.185 424.437C450.185 424.437 450.185 424.437 450.185 424.437C450.185 424.437 450.185 424.438 450.186 424.439C450.186 424.44 450.186 424.442 450.187 424.446C450.188 424.452 450.19 424.462 450.192 424.475C450.197 424.501 450.203 424.54 450.212 424.592C450.231 424.696 450.257 424.85 450.291 425.05C450.358 425.449 450.454 426.028 450.566 426.745C450.792 428.18 451.085 430.164 451.355 432.362C451.902 436.808 452.334 441.96 451.994 445.251L454.978 445.56ZM420.536 437.498L438.228 430.987L437.192 428.172L419.5 434.683L420.536 437.498ZM438.252 430.978L452.204 425.572L451.12 422.775L437.168 428.181L438.252 430.978ZM437.71 429.58C436.303 430.099 436.303 430.099 436.303 430.099C436.303 430.099 436.303 430.098 436.303 430.098C436.303 430.098 436.303 430.098 436.303 430.098C436.303 430.098 436.303 430.098 436.303 430.099C436.304 430.1 436.305 430.103 436.307 430.108C436.31 430.118 436.316 430.134 436.324 430.157C436.34 430.202 436.364 430.273 436.396 430.369C436.458 430.559 436.549 430.846 436.655 431.217C436.866 431.959 437.137 433.033 437.366 434.339C437.827 436.962 438.11 440.464 437.455 444.077L440.407 444.613C441.146 440.538 440.819 436.658 440.321 433.82C440.071 432.396 439.775 431.22 439.54 430.395C439.422 429.982 439.319 429.656 439.245 429.429C439.207 429.316 439.177 429.227 439.155 429.165C439.144 429.134 439.136 429.11 439.129 429.092C439.126 429.083 439.124 429.076 439.122 429.071C439.121 429.068 439.12 429.066 439.119 429.064C439.119 429.063 439.118 429.062 439.118 429.062C439.118 429.061 439.118 429.061 439.118 429.061C439.118 429.06 439.118 429.06 437.71 429.58ZM437.455 444.077C436.816 447.601 435.408 449.662 433.903 451.053C432.295 452.538 430.673 453.231 429.068 454.234L430.658 456.778C431.842 456.038 434.058 454.993 435.939 453.256C437.922 451.424 439.652 448.777 440.407 444.613L437.455 444.077ZM429.068 454.234C428.602 454.525 427.851 454.789 426.819 454.968C425.806 455.144 424.613 455.223 423.335 455.205C420.771 455.171 417.996 454.753 415.837 454.075L414.939 456.937C417.41 457.713 420.477 458.167 423.295 458.205C424.708 458.224 426.092 458.139 427.331 457.924C428.551 457.713 429.728 457.359 430.658 456.778L429.068 454.234ZM415.837 454.075C413.875 453.459 412.231 452.128 410.914 450.667C409.601 449.21 408.7 447.726 408.161 446.873L405.624 448.474C406.14 449.291 407.172 450.997 408.686 452.676C410.195 454.35 412.271 456.1 414.939 456.937L415.837 454.075ZM391.563 447.84L405.979 442.376L404.916 439.571L390.499 445.035L391.563 447.84ZM405.924 442.396L420.494 437.513L419.541 434.668L404.971 439.551L405.924 442.396ZM408.161 446.873C408.026 446.658 407.849 446.214 407.673 445.542C407.506 444.902 407.367 444.171 407.257 443.465C407.147 442.763 407.068 442.107 407.017 441.626C406.991 441.386 406.972 441.191 406.96 441.057C406.954 440.991 406.95 440.939 406.947 440.905C406.946 440.888 406.945 440.875 406.944 440.867C406.944 440.863 406.943 440.86 406.943 440.859C406.943 440.858 406.943 440.857 406.943 440.857C406.943 440.857 406.943 440.857 406.943 440.857C406.943 440.857 406.943 440.857 406.943 440.857C406.943 440.857 406.943 440.857 405.448 440.973C403.952 441.09 403.952 441.09 403.952 441.09C403.952 441.09 403.952 441.09 403.952 441.09C403.952 441.091 403.952 441.091 403.952 441.092C403.952 441.093 403.952 441.094 403.953 441.095C403.953 441.099 403.953 441.103 403.954 441.109C403.955 441.12 403.956 441.135 403.957 441.156C403.961 441.196 403.966 441.254 403.973 441.328C403.986 441.476 404.006 441.687 404.034 441.945C404.089 442.459 404.173 443.165 404.293 443.929C404.412 444.689 404.569 445.528 404.771 446.301C404.965 447.042 405.233 447.854 405.624 448.474L408.161 446.873Z" fill="black"/>
</svg>
