<svg width="701" height="901" viewBox="0 0 701 901" fill="none" xmlns="http://www.w3.org/2000/svg">
<path d="M421.357 440.431C423.405 438.079 436.423 434.395 441.284 440.431C446.145 446.467 442.981 450.399 440.452 452.966C437.924 455.533 433.265 455.788 433.265 455.788M433.265 455.788H421.357M433.265 455.788C433.265 455.788 439.519 457.539 441.284 462.192C443.049 466.845 441.897 470.455 440.452 472.22C439.008 473.985 437.805 474.226 434.114 474.948C430.424 475.67 423.591 474.948 419.114 470.913M286.622 440.431C290.6 437.57 301.688 434.395 306.549 440.431C311.41 446.467 308.246 450.399 305.717 452.966C303.189 455.533 298.53 455.787 298.53 455.787M298.53 455.787H286.622M298.53 455.787C298.53 455.787 304.784 457.539 306.549 462.192C308.314 466.845 307.162 470.455 305.717 472.22C304.273 473.985 303.069 474.226 299.379 474.948C295.689 475.67 289.279 474.948 283.996 471.03" stroke="black" stroke-width="7" stroke-linecap="round"/>
</svg>
