<svg width="701" height="901" viewBox="0 0 701 901" fill="none" xmlns="http://www.w3.org/2000/svg">
<path d="M311.269 449.146C311.854 444.942 313.081 429.579 313.081 429.579L281.411 428.472C281.411 428.472 281.183 437.304 281.303 440.633C281.423 443.961 282.02 449.826 283.948 454.506C285.875 459.186 290.336 461.752 294.161 462.246C297.985 462.741 302.792 461.712 305.483 460.002C308.173 458.293 310.683 453.35 311.269 449.146Z" fill="black"/>
<path d="M415.372 428.152C415.372 428.152 413.627 442.089 414.216 446.401C414.805 450.714 415.878 454.895 418.543 457.458C421.209 460.022 426.756 460.721 430.043 460.186C433.329 459.652 435.167 457.654 436.896 453.887C438.624 450.121 438.966 444.904 439.468 440.974C439.971 437.044 440.202 428.314 440.202 428.314L415.372 428.152Z" fill="black"/>
<path d="M399.557 428.817C397.973 429.909 396.771 451.318 400.663 458.281C404.556 465.245 409.765 472.973 418.924 474.157C428.084 475.341 437.328 472.87 442.642 468.814C447.956 464.757 450.324 460.607 452.05 455.846C453.776 451.086 455.483 429.433 455.029 428.876C454.575 428.319 440.202 428.314 440.202 428.314C440.202 428.314 439.971 437.044 439.468 440.974C438.966 444.904 438.624 450.121 436.896 453.887C435.167 457.654 433.329 459.652 430.043 460.186C426.756 460.721 421.209 460.022 418.543 457.458C415.878 454.895 414.805 450.714 414.216 446.401C413.627 442.089 415.372 428.152 415.372 428.152C415.372 428.152 401.142 427.724 399.557 428.817Z" fill="white"/>
<path d="M326.955 454.2C328.746 446.757 329.49 431.85 328.728 430.757C327.979 429.685 317.703 429.612 313.328 429.58L313.081 429.579C313.081 429.579 311.854 444.942 311.269 449.146C310.683 453.35 308.173 458.293 305.483 460.002C302.792 461.712 297.985 462.741 294.161 462.246C290.336 461.752 285.875 459.186 283.948 454.506C282.02 449.826 281.423 443.961 281.303 440.633C281.183 437.304 281.411 428.472 281.411 428.472C281.411 428.472 269.067 428.233 266.416 428.548C263.765 428.864 264.785 447.915 267.045 455.735C269.305 463.555 276.011 471.126 281.476 473.628C286.94 476.13 303.665 479.12 313.614 472.738C323.563 466.356 325.164 461.642 326.955 454.2Z" fill="white"/>
<path d="M328.728 430.757L327.497 431.616L327.497 431.616L328.728 430.757ZM281.411 428.472L281.463 426.973L281.452 426.972L281.44 426.972L281.411 428.472ZM327.497 431.616C327.358 431.416 327.353 431.275 327.385 431.428C327.405 431.521 327.429 431.678 327.45 431.912C327.494 432.377 327.52 433.029 327.524 433.843C327.534 435.464 327.458 437.625 327.302 439.999C326.989 444.767 326.362 450.253 325.497 453.849L328.414 454.551C329.339 450.704 329.98 445.016 330.296 440.196C330.455 437.776 330.534 435.54 330.524 433.826C330.519 432.973 330.492 432.223 330.437 431.634C330.41 431.341 330.373 431.059 330.321 430.81C330.281 430.62 330.193 430.235 329.958 429.899L327.497 431.616ZM325.497 453.849C324.603 457.563 323.801 460.381 322.082 463.056C320.37 465.719 317.671 468.353 312.804 471.475L314.424 474C319.505 470.741 322.581 467.827 324.606 464.678C326.622 461.539 327.516 458.28 328.414 454.551L325.497 453.849ZM312.804 471.475C308.208 474.423 301.906 475.273 295.928 475.016C289.958 474.759 284.612 473.414 282.1 472.264L280.851 474.992C283.804 476.344 289.553 477.744 295.799 478.013C302.036 478.281 309.071 477.435 314.424 474L312.804 471.475ZM282.1 472.264C279.636 471.136 276.764 468.79 274.213 465.718C271.673 462.657 269.547 458.989 268.486 455.318L265.604 456.151C266.803 460.301 269.161 464.328 271.905 467.634C274.638 470.927 277.851 473.618 280.851 474.992L282.1 472.264ZM268.486 455.318C267.406 451.578 266.592 445 266.388 439.274C266.286 436.418 266.339 433.852 266.566 432.014C266.682 431.082 266.832 430.426 266.986 430.032C267.063 429.834 267.111 429.782 267.095 429.802C267.068 429.832 266.904 430.001 266.593 430.038L266.238 427.059C265.596 427.135 265.129 427.489 264.827 427.837C264.535 428.174 264.336 428.572 264.192 428.94C263.903 429.679 263.716 430.625 263.589 431.645C263.333 433.712 263.286 436.457 263.39 439.381C263.598 445.215 264.425 452.072 265.604 456.151L268.486 455.318ZM398.706 427.582C398.236 427.906 398 428.4 397.89 428.654C397.75 428.977 397.634 429.353 397.536 429.745C397.337 430.535 397.166 431.557 397.025 432.722C396.742 435.061 396.563 438.118 396.557 441.345C396.551 444.571 396.718 448.006 397.139 451.096C397.555 454.144 398.239 457.019 399.354 459.013L401.973 457.55C401.142 456.063 400.516 453.65 400.112 450.691C399.714 447.774 399.551 444.483 399.557 441.35C399.562 438.218 399.737 435.282 400.004 433.082C400.137 431.977 400.29 431.094 400.445 430.476C400.523 430.165 400.592 429.962 400.642 429.848C400.721 429.665 400.681 429.864 400.409 430.051L398.706 427.582ZM399.354 459.013C403.228 465.943 408.757 474.355 418.732 475.645L419.117 472.669C410.773 471.591 405.884 464.546 401.973 457.55L399.354 459.013ZM418.732 475.645C428.219 476.871 437.876 474.339 443.552 470.006L441.732 467.621C436.78 471.401 427.948 473.811 419.117 472.669L418.732 475.645ZM443.552 470.006C449.143 465.738 451.66 461.325 453.461 456.358L450.64 455.335C448.989 459.889 446.769 463.776 441.732 467.621L443.552 470.006ZM453.461 456.358C453.952 455.003 454.399 452.61 454.792 449.919C455.192 447.179 455.556 443.983 455.85 440.929C456.145 437.874 456.371 434.947 456.495 432.74C456.557 431.64 456.595 430.703 456.602 430.015C456.605 429.674 456.602 429.368 456.586 429.124C456.579 429.005 456.566 428.866 456.543 428.731C456.531 428.664 456.511 428.567 456.477 428.459C456.451 428.38 456.376 428.154 456.192 427.928L453.866 429.824C453.696 429.615 453.634 429.417 453.62 429.376C453.598 429.306 453.589 429.257 453.588 429.247C453.584 429.226 453.588 429.241 453.592 429.313C453.601 429.449 453.605 429.67 453.602 429.985C453.596 430.605 453.561 431.489 453.5 432.571C453.378 434.73 453.155 437.618 452.864 440.641C452.573 443.665 452.214 446.81 451.823 449.485C451.425 452.211 451.012 454.31 450.64 455.335L453.461 456.358ZM415.372 428.152C415.417 426.652 415.417 426.652 415.417 426.652C415.416 426.652 415.416 426.652 415.416 426.652C415.415 426.652 415.415 426.652 415.414 426.652C415.412 426.652 415.409 426.652 415.406 426.652C415.398 426.652 415.388 426.652 415.374 426.651C415.346 426.65 415.306 426.649 415.253 426.648C415.147 426.645 414.992 426.641 414.794 426.636C414.398 426.626 413.833 426.614 413.149 426.602C411.783 426.579 409.941 426.56 408.047 426.574C406.158 426.589 404.193 426.639 402.588 426.756C401.788 426.814 401.047 426.891 400.438 426.996C400.133 427.048 399.837 427.111 399.568 427.191C399.323 427.264 398.998 427.38 398.706 427.582L400.409 430.051C400.315 430.116 400.286 430.108 400.424 430.067C400.538 430.033 400.709 429.993 400.946 429.953C401.418 429.872 402.049 429.803 402.806 429.748C404.314 429.638 406.204 429.589 408.071 429.574C409.932 429.56 411.747 429.579 413.098 429.602C413.773 429.613 414.332 429.626 414.721 429.635C414.915 429.64 415.067 429.644 415.17 429.647C415.222 429.648 415.261 429.649 415.288 429.65C415.301 429.65 415.311 429.651 415.317 429.651C415.321 429.651 415.323 429.651 415.325 429.651C415.325 429.651 415.326 429.651 415.326 429.651C415.326 429.651 415.327 429.651 415.327 429.651C415.327 429.651 415.327 429.651 415.372 428.152ZM415.372 428.152C413.883 427.965 413.883 427.966 413.883 427.966C413.883 427.966 413.883 427.966 413.883 427.966C413.883 427.967 413.883 427.967 413.883 427.968C413.883 427.97 413.882 427.973 413.882 427.976C413.881 427.984 413.88 427.994 413.878 428.007C413.875 428.035 413.87 428.075 413.863 428.127C413.851 428.231 413.832 428.385 413.809 428.581C413.762 428.974 413.695 429.538 413.618 430.229C413.462 431.611 413.261 433.499 413.079 435.525C412.896 437.548 412.731 439.721 412.649 441.667C412.568 443.583 412.562 445.381 412.73 446.604L415.702 446.198C415.575 445.265 415.566 443.704 415.646 441.794C415.726 439.914 415.887 437.794 416.067 435.794C416.247 433.796 416.445 431.931 416.599 430.564C416.676 429.881 416.741 429.324 416.787 428.937C416.81 428.744 416.829 428.594 416.841 428.492C416.847 428.441 416.852 428.402 416.855 428.376C416.857 428.363 416.858 428.354 416.859 428.347C416.859 428.344 416.86 428.342 416.86 428.34C416.86 428.339 416.86 428.339 416.86 428.339C416.86 428.338 416.86 428.338 416.86 428.338C416.86 428.338 416.86 428.338 415.372 428.152ZM412.73 446.604C413.32 450.929 414.434 455.587 417.503 458.539L419.583 456.377C417.321 454.202 416.289 450.498 415.702 446.198L412.73 446.604ZM417.503 458.539C419.13 460.104 421.505 461 423.765 461.455C426.049 461.914 428.441 461.967 430.283 461.667L429.802 458.706C428.358 458.941 426.333 458.911 424.356 458.514C422.354 458.111 420.621 457.376 419.583 456.377L417.503 458.539ZM430.283 461.667C432.205 461.354 433.769 460.594 435.089 459.334C436.374 458.107 437.361 456.47 438.259 454.513L435.533 453.262C434.702 455.072 433.905 456.316 433.018 457.164C432.164 457.978 431.166 458.484 429.802 458.706L430.283 461.667ZM438.259 454.513C439.208 452.446 439.751 450.042 440.123 447.73C440.491 445.438 440.715 443.052 440.956 441.164L437.98 440.784C437.719 442.826 437.521 445.014 437.161 447.254C436.804 449.474 436.312 451.563 435.533 453.262L438.259 454.513ZM456.192 427.928C455.924 427.6 455.591 427.468 455.508 427.434C455.368 427.378 455.233 427.342 455.131 427.318C454.922 427.269 454.682 427.232 454.444 427.203C453.957 427.143 453.32 427.095 452.604 427.055C451.165 426.975 449.304 426.922 447.474 426.886C445.641 426.851 443.823 426.833 442.465 426.823C441.785 426.819 441.22 426.816 440.825 426.815C440.627 426.815 440.472 426.814 440.366 426.814C440.313 426.814 440.272 426.814 440.244 426.814C440.231 426.814 440.22 426.814 440.213 426.814C440.21 426.814 440.207 426.814 440.205 426.814C440.204 426.814 440.203 426.814 440.203 426.814C440.203 426.814 440.203 426.814 440.202 426.814C440.202 426.814 440.202 426.814 440.202 428.314C440.201 429.814 440.201 429.814 440.201 429.814C440.201 429.814 440.202 429.814 440.202 429.814C440.202 429.814 440.203 429.814 440.204 429.814C440.205 429.814 440.208 429.814 440.211 429.814C440.218 429.814 440.228 429.814 440.242 429.814C440.268 429.814 440.308 429.814 440.361 429.814C440.465 429.814 440.619 429.815 440.816 429.815C441.208 429.816 441.769 429.819 442.444 429.823C443.795 429.832 445.599 429.85 447.416 429.886C449.236 429.921 451.053 429.973 452.437 430.051C453.133 430.09 453.692 430.133 454.079 430.181C454.277 430.205 454.392 430.226 454.444 430.238C454.472 430.245 454.444 430.24 454.385 430.216C454.383 430.215 454.105 430.117 453.866 429.824L456.192 427.928ZM440.211 426.814L415.382 426.652L415.362 429.652L440.192 429.814L440.211 426.814ZM440.956 441.164C441.216 439.13 441.401 435.906 441.522 433.238C441.582 431.894 441.627 430.674 441.657 429.79C441.672 429.348 441.683 428.989 441.69 428.741C441.694 428.617 441.697 428.52 441.698 428.455C441.699 428.422 441.7 428.397 441.7 428.38C441.701 428.371 441.701 428.365 441.701 428.36C441.701 428.358 441.701 428.357 441.701 428.355C441.701 428.355 441.701 428.354 441.701 428.354C441.701 428.354 441.701 428.354 441.701 428.354C441.701 428.354 441.701 428.354 440.202 428.314C438.702 428.274 438.702 428.274 438.702 428.274C438.702 428.274 438.702 428.274 438.702 428.274C438.702 428.275 438.702 428.275 438.702 428.275C438.702 428.276 438.702 428.278 438.702 428.28C438.702 428.284 438.702 428.29 438.702 428.298C438.701 428.314 438.7 428.339 438.7 428.371C438.698 428.435 438.695 428.53 438.691 428.652C438.684 428.897 438.673 429.251 438.659 429.689C438.629 430.565 438.585 431.773 438.525 433.103C438.404 435.782 438.223 438.889 437.98 440.784L440.956 441.164ZM313.081 429.579C311.586 429.459 311.586 429.459 311.586 429.459C311.586 429.46 311.586 429.46 311.586 429.46C311.586 429.46 311.586 429.461 311.586 429.462C311.586 429.464 311.586 429.467 311.585 429.47C311.585 429.478 311.584 429.489 311.583 429.503C311.58 429.532 311.577 429.575 311.572 429.632C311.563 429.745 311.55 429.912 311.532 430.126C311.498 430.554 311.448 431.169 311.386 431.922C311.262 433.426 311.09 435.476 310.9 437.656C310.519 442.037 310.069 446.884 309.783 448.939L312.754 449.353C313.054 447.204 313.51 442.267 313.889 437.916C314.079 435.73 314.251 433.676 314.375 432.168C314.438 431.414 314.488 430.797 314.523 430.368C314.54 430.154 314.554 429.986 314.563 429.872C314.567 429.816 314.571 429.772 314.573 429.743C314.574 429.728 314.575 429.717 314.576 429.709C314.576 429.706 314.576 429.703 314.576 429.701C314.576 429.7 314.577 429.699 314.577 429.699C314.577 429.699 314.577 429.698 314.577 429.698C314.577 429.698 314.577 429.698 313.081 429.579ZM309.783 448.939C309.517 450.85 308.803 452.972 307.837 454.812C306.853 456.686 305.704 458.084 304.678 458.737L306.287 461.268C307.951 460.211 309.402 458.283 310.493 456.207C311.6 454.098 312.435 451.646 312.754 449.353L309.783 448.939ZM304.678 458.737C302.317 460.237 297.87 461.213 294.353 460.759L293.968 463.734C298.1 464.268 303.268 463.187 306.287 461.268L304.678 458.737ZM294.353 460.759C290.962 460.32 287.022 458.03 285.335 453.935L282.561 455.077C284.729 460.341 289.71 463.183 293.968 463.734L294.353 460.759ZM285.335 453.935C283.508 449.501 282.92 443.847 282.802 440.579L279.804 440.687C279.926 444.076 280.532 450.151 282.561 455.077L285.335 453.935ZM266.593 430.038C267.801 429.894 271.431 429.871 274.898 429.892C276.602 429.902 278.223 429.922 279.419 429.939C280.017 429.948 280.508 429.956 280.849 429.962C281.02 429.965 281.154 429.967 281.244 429.969C281.289 429.97 281.324 429.97 281.347 429.971C281.359 429.971 281.367 429.971 281.373 429.971C281.376 429.971 281.378 429.971 281.38 429.972C281.381 429.972 281.381 429.972 281.381 429.972C281.382 429.972 281.382 429.972 281.382 429.972C281.382 429.972 281.382 429.972 281.411 428.472C281.44 426.972 281.44 426.972 281.44 426.972C281.44 426.972 281.44 426.972 281.439 426.972C281.439 426.972 281.438 426.972 281.438 426.972C281.436 426.972 281.434 426.972 281.431 426.972C281.425 426.972 281.416 426.972 281.404 426.971C281.38 426.971 281.345 426.97 281.299 426.969C281.208 426.968 281.073 426.965 280.901 426.962C280.557 426.956 280.063 426.948 279.463 426.94C278.261 426.922 276.631 426.902 274.916 426.892C271.549 426.872 267.681 426.887 266.238 427.059L266.593 430.038ZM281.359 429.971L313.029 431.078L313.134 428.08L281.463 426.973L281.359 429.971ZM282.802 440.579C282.744 438.96 282.77 435.96 282.812 433.328C282.833 432.02 282.857 430.815 282.877 429.937C282.887 429.498 282.895 429.141 282.901 428.894C282.904 428.771 282.906 428.675 282.908 428.609C282.909 428.577 282.909 428.552 282.91 428.535C282.91 428.527 282.91 428.521 282.91 428.517C282.91 428.515 282.91 428.513 282.91 428.512C282.91 428.512 282.91 428.511 282.91 428.511C282.91 428.511 282.91 428.511 282.91 428.511C282.91 428.511 282.91 428.511 281.411 428.472C279.911 428.433 279.911 428.433 279.911 428.433C279.911 428.433 279.911 428.433 279.911 428.434C279.911 428.434 279.911 428.434 279.911 428.435C279.911 428.436 279.911 428.438 279.911 428.44C279.911 428.444 279.911 428.451 279.911 428.459C279.91 428.476 279.91 428.501 279.909 428.534C279.907 428.6 279.905 428.697 279.902 428.822C279.896 429.07 279.887 429.429 279.878 429.871C279.858 430.753 279.833 431.964 279.812 433.28C279.77 435.896 279.742 438.977 279.804 440.687L282.802 440.579ZM329.958 429.899C329.703 429.533 329.361 429.333 329.157 429.229C328.926 429.112 328.678 429.026 328.448 428.959C327.986 428.825 327.425 428.723 326.828 428.639C325.623 428.472 324.079 428.359 322.461 428.28C319.215 428.122 315.522 428.096 313.339 428.08L313.318 431.08C315.51 431.096 319.142 431.122 322.315 431.276C323.906 431.354 325.345 431.462 326.414 431.611C326.954 431.686 327.353 431.765 327.613 431.841C327.674 431.858 327.721 431.874 327.755 431.887C327.79 431.9 327.804 431.907 327.802 431.906C327.802 431.906 327.77 431.89 327.722 431.853C327.675 431.818 327.586 431.742 327.497 431.616L329.958 429.899ZM313.339 428.08L313.092 428.079L313.071 431.079L313.318 431.08L313.339 428.08ZM313.071 431.079C313.151 431.079 313.233 431.08 313.318 431.08L313.339 428.08C313.254 428.08 313.172 428.079 313.092 428.079L313.071 431.079Z" fill="black"/>
</svg>
