<svg width="701" height="901" viewBox="0 0 701 901" fill="none" xmlns="http://www.w3.org/2000/svg">
<path fill-rule="evenodd" clip-rule="evenodd" d="M293.549 406.466C285.865 407.621 276.338 414.06 271.605 422.02C266.872 429.98 265.94 443.176 266.442 452.642C266.944 462.108 267.876 470.355 274.402 478.746C280.928 487.136 290.681 490.507 299.43 489.718C308.179 488.929 316.713 485.487 322.307 476.164C327.9 466.841 328.691 457.139 328.617 447.119C328.544 437.099 323.526 425.641 321.374 420.944C319.223 416.248 313.487 409.685 309.327 408.036C305.166 406.387 301.234 405.311 293.549 406.466ZM284.012 427.829C286.665 424.092 290.575 419.327 300.434 418.865C310.293 418.403 314.633 424.092 316.426 427.829C318.219 431.566 320.657 438.371 320.729 443.749C320.801 449.128 321.231 459.885 319.438 464.833C317.645 469.782 315.494 472.98 310.187 476.164C304.88 479.348 299.358 479.033 294.482 477.885C289.605 476.738 285.661 472.541 283.51 468.597C281.358 464.653 279.063 455.654 279.278 448.196C279.494 440.737 281.358 431.566 284.012 427.829Z" fill="white"/>
<path d="M299.215 456.658C294.984 456.658 292.689 461.463 293.047 465.335C293.406 469.208 296.776 470.786 299.43 470.57C302.083 470.355 304.665 468.277 305.167 464.833C305.669 461.39 303.446 456.658 299.215 456.658Z" fill="white"/>
<path fill-rule="evenodd" clip-rule="evenodd" d="M300.434 418.865C290.575 419.327 286.665 424.092 284.012 427.829C281.358 431.566 279.494 440.737 279.278 448.196C279.063 455.654 281.358 464.653 283.51 468.597C285.661 472.541 289.605 476.738 294.482 477.885C299.358 479.033 304.88 479.348 310.187 476.164C315.494 472.98 317.645 469.782 319.438 464.833C321.231 459.885 320.801 449.128 320.729 443.749C320.657 438.371 318.219 431.566 316.426 427.829C314.633 424.092 310.293 418.403 300.434 418.865ZM290.69 431.867C292.46 428.323 296.131 426.18 299.215 425.032C302.299 423.885 306.817 424.1 309.327 425.964C311.836 427.829 313.916 432.344 312.769 436.722C311.621 441.099 307.59 444.036 304.412 446.116C301.234 448.196 299.215 448.841 295.567 448.196C291.918 447.55 289.964 444.18 289.247 441.67C288.529 439.16 288.92 435.412 290.69 431.867ZM293.047 465.335C292.689 461.463 294.984 456.658 299.215 456.658C303.446 456.658 305.669 461.39 305.167 464.833C304.665 468.277 302.083 470.355 299.43 470.57C296.776 470.786 293.406 469.208 293.047 465.335Z" fill="black"/>
<path d="M457.501 438.633C457.749 437.635 441.371 436.718 431.544 439.143C421.716 441.569 417.673 445.809 412.417 450.134C407.161 454.459 398.235 464.885 402.504 463.332C406.773 461.778 416.953 455.939 423.506 453.923C430.058 451.906 437.003 450.829 441.371 450.506C445.74 450.183 457.141 451.626 457.501 450.183C457.861 448.74 448.466 445.899 448.484 444.626C448.503 443.353 457.253 439.632 457.501 438.633Z" fill="black"/>
<path d="M299.215 425.032C296.131 426.18 292.46 428.323 290.69 431.867C288.92 435.412 288.529 439.16 289.247 441.67C289.964 444.18 291.918 447.55 295.567 448.196C299.215 448.841 301.234 448.196 304.412 446.116C307.59 444.036 311.621 441.099 312.769 436.722C313.916 432.344 311.836 427.829 309.327 425.964C306.817 424.1 302.299 423.885 299.215 425.032Z" fill="white"/>
<path d="M293.326 404.983C289.197 405.603 284.68 407.618 280.611 410.462C276.535 413.31 272.81 417.059 270.316 421.254L272.894 422.787C275.133 419.021 278.538 415.57 282.33 412.921C286.129 410.266 290.217 408.484 293.772 407.949L293.326 404.983ZM270.316 421.254C267.803 425.48 266.349 430.993 265.574 436.56C264.797 442.148 264.689 447.911 264.944 452.721L267.939 452.563C267.693 447.906 267.799 442.338 268.546 436.973C269.295 431.585 270.674 426.521 272.894 422.787L270.316 421.254ZM264.944 452.721C265.448 462.241 266.393 470.891 273.218 479.667L275.586 477.825C269.359 469.819 268.439 461.975 267.939 452.563L264.944 452.721ZM273.218 479.667C280.083 488.493 290.35 492.043 299.565 491.212L299.295 488.224C291.011 488.971 281.773 485.779 275.586 477.825L273.218 479.667ZM299.565 491.212C308.639 490.394 317.683 486.785 323.593 476.936L321.02 475.392C315.743 484.189 307.719 487.465 299.295 488.224L299.565 491.212ZM323.593 476.936C329.406 467.248 330.191 457.2 330.117 447.108L327.118 447.13C327.19 457.078 326.395 466.435 321.02 475.392L323.593 476.936ZM330.117 447.108C330.041 436.723 324.877 424.989 322.738 420.32L320.011 421.569C322.174 426.292 327.047 437.474 327.118 447.13L330.117 447.108ZM322.738 420.32C321.58 417.791 319.506 414.848 317.211 412.336C314.943 409.853 312.282 407.594 309.879 406.642L308.774 409.43C310.531 410.127 312.818 411.975 314.996 414.359C317.148 416.715 319.018 419.402 320.011 421.569L322.738 420.32ZM309.879 406.642C307.748 405.797 305.596 405.067 302.959 404.713C300.325 404.359 297.275 404.389 293.326 404.983L293.772 407.949C297.508 407.388 300.266 407.378 302.56 407.686C304.851 407.993 306.745 408.626 308.774 409.43L309.879 406.642ZM458.957 438.995C459.102 438.41 458.891 437.917 458.661 437.62C458.461 437.363 458.226 437.214 458.092 437.139C457.813 436.983 457.496 436.885 457.239 436.818C456.692 436.675 455.951 436.557 455.102 436.46C453.381 436.264 450.995 436.13 448.315 436.104C442.976 436.053 436.278 436.43 431.184 437.687L431.903 440.6C436.637 439.431 443.042 439.054 448.286 439.104C450.898 439.129 453.174 439.26 454.762 439.441C455.567 439.533 456.141 439.631 456.481 439.72C456.667 439.769 456.686 439.791 456.625 439.756C456.6 439.742 456.443 439.655 456.291 439.46C456.109 439.225 455.915 438.794 456.045 438.272L458.957 438.995ZM431.184 437.687C420.967 440.208 416.662 444.698 411.464 448.976L413.37 451.292C418.683 446.92 422.465 442.929 431.903 440.6L431.184 437.687ZM411.464 448.976C408.741 451.216 405.124 454.983 402.716 458.002C401.546 459.469 400.525 460.926 400.113 461.994C400.006 462.271 399.898 462.625 399.884 463.005C399.87 463.388 399.95 464.001 400.462 464.481C400.956 464.946 401.555 465.003 401.925 464.985C402.307 464.967 402.683 464.863 403.017 464.741L401.991 461.922C401.791 461.995 401.737 461.991 401.783 461.989C401.817 461.987 402.175 461.975 402.516 462.295C402.873 462.63 402.886 463.022 402.882 463.117C402.879 463.209 402.86 463.208 402.912 463.073C403.138 462.488 403.877 461.359 405.061 459.873C407.363 456.986 410.837 453.377 413.37 451.292L411.464 448.976ZM403.017 464.741C405.25 463.928 408.983 462.018 412.807 460.148C416.72 458.235 420.801 456.324 423.947 455.356L423.065 452.489C419.658 453.537 415.372 455.554 411.489 457.453C407.519 459.395 404.026 461.181 401.991 461.922L403.017 464.741ZM423.947 455.356C430.379 453.377 437.211 452.318 441.482 452.002L441.261 449.01C436.795 449.341 429.738 450.436 423.065 452.489L423.947 455.356ZM441.482 452.002C443.552 451.849 447.326 452.119 450.878 452.264C452.598 452.334 454.263 452.372 455.535 452.294C456.16 452.256 456.778 452.185 457.288 452.043C457.54 451.972 457.848 451.862 458.134 451.673C458.421 451.484 458.811 451.129 458.956 450.546L456.046 449.82C456.146 449.417 456.404 449.221 456.483 449.169C456.56 449.118 456.582 449.125 456.479 449.154C456.28 449.21 455.914 449.265 455.351 449.3C454.248 449.367 452.722 449.336 451 449.266C447.67 449.131 443.559 448.84 441.261 449.01L441.482 452.002ZM458.956 450.546C459.214 449.514 458.53 448.77 458.267 448.512C457.912 448.164 457.449 447.856 457.003 447.593C456.093 447.057 454.879 446.494 453.743 445.976C452.566 445.439 451.463 444.945 450.645 444.506C450.231 444.284 449.962 444.114 449.815 443.997C449.74 443.937 449.75 443.933 449.79 443.987C449.821 444.029 449.99 444.264 449.984 444.648L446.984 444.604C446.976 445.147 447.216 445.553 447.382 445.777C447.558 446.013 447.768 446.202 447.947 446.345C448.309 446.632 448.768 446.904 449.227 447.15C450.154 447.647 451.374 448.193 452.498 448.705C453.664 449.237 454.73 449.735 455.48 450.177C455.863 450.403 456.075 450.564 456.165 450.653C456.347 450.831 455.878 450.491 456.046 449.82L458.956 450.546ZM449.984 444.648C449.979 444.979 449.844 445.177 449.832 445.194C449.81 445.228 449.815 445.21 449.89 445.14C450.039 445.001 450.301 444.802 450.69 444.546C451.458 444.041 452.509 443.453 453.626 442.843C454.715 442.248 455.871 441.628 456.757 441.101C457.199 440.838 457.619 440.571 457.95 440.32C458.114 440.195 458.293 440.047 458.45 439.88C458.573 439.75 458.845 439.444 458.957 438.995L456.045 438.272C456.091 438.088 456.164 437.965 456.199 437.912C456.237 437.855 456.266 437.824 456.268 437.822C456.269 437.82 456.235 437.856 456.136 437.931C455.941 438.079 455.637 438.277 455.223 438.523C454.398 439.014 453.319 439.591 452.187 440.21C451.083 440.814 449.927 441.457 449.042 442.039C448.604 442.327 448.177 442.635 447.843 442.947C447.677 443.103 447.492 443.297 447.339 443.526C447.197 443.737 446.991 444.113 446.984 444.604L449.984 444.648ZM300.364 417.366C295.186 417.609 291.472 418.991 288.681 420.876C285.909 422.748 284.141 425.056 282.788 426.961L285.235 428.697C286.535 426.866 288.049 424.922 290.36 423.362C292.652 421.814 295.823 420.583 300.504 420.363L300.364 417.366ZM282.788 426.961C281.28 429.084 280.1 432.558 279.267 436.29C278.421 440.075 277.889 444.327 277.779 448.152L280.778 448.239C280.883 444.606 281.39 440.544 282.195 436.944C283.01 433.291 284.089 430.311 285.235 428.697L282.788 426.961ZM277.779 448.152C277.667 452.036 278.207 456.278 279.042 460.039C279.873 463.782 281.022 467.17 282.193 469.315L284.826 467.879C283.845 466.08 282.771 462.996 281.971 459.389C281.174 455.8 280.675 451.813 280.778 448.239L277.779 448.152ZM282.193 469.315C284.452 473.458 288.685 478.062 294.138 479.345L294.825 476.425C290.526 475.413 286.87 471.625 284.826 467.879L282.193 469.315ZM294.138 479.345C299.189 480.534 305.171 480.922 310.959 477.45L309.415 474.878C304.589 477.773 299.528 477.532 294.825 476.425L294.138 479.345ZM310.959 477.45C313.73 475.788 315.747 474.079 317.31 472.086C318.87 470.099 319.922 467.901 320.848 465.344L318.028 464.322C317.161 466.714 316.241 468.59 314.95 470.234C313.663 471.875 311.951 473.357 309.415 474.878L310.959 477.45ZM320.848 465.344C321.837 462.615 322.175 458.461 322.282 454.493C322.391 450.473 322.264 446.383 322.229 443.729L319.229 443.769C319.265 446.494 319.39 450.472 319.283 454.412C319.175 458.404 318.832 462.104 318.028 464.322L320.848 465.344ZM322.229 443.729C322.153 438.03 319.608 430.992 317.779 427.18L315.074 428.478C316.831 432.139 319.162 438.712 319.229 443.769L322.229 443.729ZM317.779 427.18C316.811 425.163 315.137 422.577 312.332 420.555C309.503 418.517 305.616 417.12 300.364 417.366L300.504 420.363C305.111 420.147 308.324 421.365 310.578 422.989C312.856 424.631 314.249 426.758 315.074 428.478L317.779 427.18ZM298.692 423.626C295.472 424.824 291.369 427.148 289.348 431.197L292.032 432.537C293.55 429.497 296.79 427.535 299.738 426.438L298.692 423.626ZM289.348 431.197C287.453 434.992 286.961 439.129 287.804 442.082L290.689 441.258C290.098 439.19 290.387 435.832 292.032 432.537L289.348 431.197ZM287.804 442.082C288.578 444.79 290.803 448.876 295.305 449.673L295.828 446.719C293.033 446.224 291.349 443.57 290.689 441.258L287.804 442.082ZM295.305 449.673C297.267 450.02 298.908 450.04 300.53 449.633C302.13 449.232 303.594 448.444 305.233 447.371L303.59 444.861C302.051 445.868 300.917 446.443 299.801 446.723C298.707 446.997 297.514 447.017 295.828 446.719L295.305 449.673ZM305.233 447.371C308.367 445.32 312.908 442.105 314.22 437.102L311.318 436.341C310.334 440.093 306.812 442.753 303.59 444.861L305.233 447.371ZM314.22 437.102C314.882 434.575 314.607 432.039 313.83 429.891C313.059 427.759 311.755 425.9 310.221 424.76L308.432 427.169C309.408 427.893 310.399 429.224 311.009 430.911C311.612 432.581 311.803 434.491 311.318 436.341L314.22 437.102ZM310.221 424.76C308.666 423.605 306.605 423.03 304.603 422.873C302.588 422.715 300.465 422.966 298.692 423.626L299.738 426.438C301.048 425.95 302.726 425.735 304.369 425.864C306.025 425.994 307.477 426.459 308.432 427.169L310.221 424.76ZM299.215 455.158C296.452 455.158 294.394 456.748 293.14 458.747C291.9 460.722 291.345 463.222 291.554 465.474L294.541 465.197C294.391 463.576 294.805 461.737 295.68 460.342C296.542 458.97 297.746 458.158 299.215 458.158L299.215 455.158ZM291.554 465.474C292.01 470.402 296.339 472.326 299.551 472.066L299.309 469.075C297.214 469.245 294.802 468.014 294.541 465.197L291.554 465.474ZM299.551 472.066C302.903 471.794 306.049 469.183 306.651 465.05L303.683 464.617C303.281 467.371 301.263 468.917 299.309 469.075L299.551 472.066ZM306.651 465.05C306.956 462.96 306.439 460.556 305.233 458.652C304.008 456.717 301.965 455.158 299.215 455.158L299.215 458.158C300.696 458.158 301.88 458.965 302.699 460.257C303.536 461.579 303.88 463.263 303.683 464.617L306.651 465.05Z" fill="black"/>
</svg>
