<svg width="701" height="901" viewBox="0 0 701 901" fill="none" xmlns="http://www.w3.org/2000/svg">
<path d="M306.532 430.077C296.506 429.896 295.534 439.993 295.053 444.621C294.572 449.248 294.693 460.427 295.714 464.574C296.736 468.721 298.239 475.812 306.532 475.692C314.826 475.572 317.35 466.076 317.71 462.831C318.071 459.586 317.71 449.128 317.35 445.102C316.99 441.075 316.559 430.257 306.532 430.077Z" fill="black"/>
<path d="M418.931 430.154C409.395 429.772 408.124 439.054 407.276 442.741C406.428 446.429 406.259 456.177 407.276 462.238C408.293 468.298 411.302 475.97 418.889 475.715C426.476 475.461 428.764 467.535 429.697 462.831C430.629 458.126 430.029 450.159 429.902 445.667C429.775 441.174 428.468 430.535 418.931 430.154Z" fill="black"/>
<path d="M306.559 428.577C303.787 428.527 301.542 429.19 299.751 430.37C297.972 431.541 296.739 433.158 295.874 434.869C294.173 438.236 293.796 442.198 293.561 444.466L296.545 444.776C296.79 442.416 297.14 439.016 298.552 436.222C299.244 434.853 300.163 433.69 301.401 432.875C302.628 432.067 304.264 431.536 306.505 431.576L306.559 428.577ZM293.561 444.466C293.311 446.872 293.222 450.896 293.321 454.815C293.418 458.7 293.703 462.682 294.258 464.933L297.171 464.215C296.703 462.319 296.418 458.638 296.32 454.74C296.223 450.876 296.314 446.997 296.545 444.776L293.561 444.466ZM294.258 464.933C294.751 466.934 295.434 470.032 297.154 472.574C298.96 475.243 301.872 477.26 306.554 477.192L306.511 474.192C302.899 474.245 300.913 472.776 299.639 470.893C298.278 468.882 297.699 466.361 297.171 464.215L294.258 464.933ZM306.554 477.192C311.383 477.122 314.495 474.285 316.375 471.217C318.234 468.185 319.004 464.772 319.201 462.996L316.22 462.665C316.056 464.135 315.385 467.093 313.817 469.65C312.272 472.172 309.975 474.142 306.511 474.192L306.554 477.192ZM319.201 462.996C319.395 461.254 319.39 457.724 319.3 454.221C319.21 450.684 319.028 447.027 318.844 444.968L315.856 445.235C316.032 447.203 316.211 450.788 316.301 454.298C316.392 457.841 316.386 461.162 316.22 462.665L319.201 462.996ZM318.844 444.968C318.672 443.041 318.466 439.05 316.941 435.548C316.167 433.769 315.024 432.038 313.307 430.738C311.575 429.426 309.353 428.627 306.559 428.577L306.505 431.576C308.725 431.616 310.317 432.237 311.496 433.13C312.692 434.035 313.559 435.294 314.191 436.745C315.478 439.704 315.668 443.136 315.856 445.235L318.844 444.968ZM418.991 428.655C416.351 428.549 414.191 429.113 412.441 430.151C410.701 431.183 409.457 432.63 408.554 434.158C406.788 437.146 406.208 440.694 405.814 442.405L408.738 443.077C409.192 441.101 409.671 438.164 411.137 435.685C411.849 434.479 412.765 433.447 413.972 432.731C415.169 432.021 416.744 431.567 418.871 431.652L418.991 428.655ZM405.814 442.405C405.351 444.418 405.098 447.914 405.077 451.591C405.055 455.293 405.268 459.339 405.797 462.486L408.755 461.989C408.266 459.075 408.056 455.217 408.077 451.608C408.098 447.973 408.353 444.752 408.738 443.077L405.814 442.405ZM405.797 462.486C406.322 465.617 407.379 469.296 409.385 472.198C411.433 475.159 414.523 477.363 418.939 477.215L418.839 474.216C415.668 474.323 413.461 472.817 411.853 470.492C410.203 468.106 409.247 464.919 408.755 461.989L405.797 462.486ZM431.402 445.624C431.336 443.308 430.969 439.279 429.303 435.731C427.601 432.105 424.467 428.874 418.991 428.655L418.871 431.652C422.932 431.815 425.22 434.094 426.587 437.006C427.991 439.996 428.341 443.533 428.403 445.709L431.402 445.624ZM418.939 477.215C423.359 477.066 426.233 474.641 428.058 471.741C429.847 468.897 430.694 465.515 431.168 463.123L428.225 462.539C427.767 464.851 427.003 467.784 425.519 470.143C424.07 472.445 422.006 474.11 418.839 474.216L418.939 477.215ZM431.168 463.123C431.668 460.602 431.746 457.295 431.697 454.146C431.648 451.017 431.463 447.782 431.402 445.624L428.403 445.709C428.469 448.044 428.648 451.039 428.697 454.193C428.746 457.326 428.658 460.356 428.225 462.539L431.168 463.123Z" fill="black"/>
</svg>
