<svg width="701" height="901" viewBox="0 0 701 901" fill="none" xmlns="http://www.w3.org/2000/svg">
<path d="M308.093 445.746C304.307 445.746 297.501 448.857 297.446 456.393C297.39 463.93 303.824 467.214 308.093 466.924C312.362 466.634 319.414 464.992 319.519 456.393C319.625 447.795 311.879 445.746 308.093 445.746Z" fill="black"/>
<path d="M417.292 446.382C413.505 446.382 406.7 449.493 406.644 457.03C406.589 464.566 413.022 467.85 417.292 467.56C421.561 467.27 428.612 465.628 428.718 457.03C428.823 448.431 421.078 446.382 417.292 446.382Z" fill="black"/>
<path d="M308.093 445.746C304.307 445.746 297.501 448.857 297.446 456.393C297.39 463.93 303.824 467.214 308.093 466.924C312.362 466.634 319.414 464.992 319.519 456.393C319.625 447.795 311.879 445.746 308.093 445.746Z" stroke="black" stroke-width="3" stroke-linecap="round"/>
<path d="M417.292 446.382C413.505 446.382 406.7 449.493 406.644 457.03C406.589 464.566 413.022 467.85 417.292 467.56C421.561 467.27 428.612 465.628 428.718 457.03C428.823 448.431 421.078 446.382 417.292 446.382Z" stroke="black" stroke-width="3" stroke-linecap="round"/>
</svg>
