<svg width="701" height="901" viewBox="0 0 701 901" fill="none" xmlns="http://www.w3.org/2000/svg">
<path d="M314.989 436.263C313.387 434.616 311.827 431.454 305.372 431.237C298.918 431.021 291.749 438.996 291.446 444.671C291.143 450.346 296.648 457.749 303.51 459.439C310.371 461.128 319.495 456.45 319.538 449.519C319.581 442.587 316.592 437.909 314.989 436.263Z" fill="white"/>
<path d="M276.175 480.189C281.65 482.985 290.255 485.237 296.779 486.328C288.429 480.574 285.547 474.674 284.172 469.182C282.798 463.69 282.366 452.267 284.791 445.041C287.217 437.816 290.424 431.939 297.213 427.792C304.001 423.645 286.049 424.307 279.984 425.564C273.919 426.82 266.313 434.154 264.592 437.16C262.87 440.165 260.692 444.918 260.321 451.149C259.949 457.38 261.684 467.567 261.684 467.567C265.576 472.676 270.679 477.383 276.175 480.189Z" fill="white"/>
<path d="M406.624 429.666C401.622 433.031 399.135 439.165 399.226 444.349C399.317 449.533 402.809 456.982 409.504 457.539C416.199 458.096 424.767 452.494 426.281 444.672C427.795 436.85 423.639 432.096 419.464 429.877C415.29 427.658 411.627 426.3 406.624 429.666Z" fill="white"/>
<path d="M417.589 462.823C411.723 463.081 409.512 466.284 409.217 470.274C408.923 474.263 412.331 476.724 417.113 476.42C421.895 476.117 425.673 471.912 425.118 468.583C424.564 465.254 423.454 462.565 417.589 462.823Z" fill="white"/>
<path d="M441.008 476.42C447.064 473.392 452.823 470.274 457.799 460.564C457.799 460.564 458.485 451.705 458.001 448.629C457.516 445.553 456.578 441.869 454.845 437.754C453.112 433.639 450.4 429.5 446.675 426.597C442.949 423.695 440.232 420.983 432.738 420.246C425.244 419.51 418.888 422.231 418.585 423.357C418.282 424.483 429.713 429.557 432.052 436.618C434.391 443.679 435.325 455.367 434.723 462.645C434.12 469.922 430.568 475.944 429.051 477.677C427.535 479.409 426.625 480.622 422.643 482.715C427.283 481.93 436.288 478.78 441.008 476.42Z" fill="white"/>
<path d="M301.799 465.857C297.916 465.857 294.307 469.241 294.307 473.06C294.307 476.879 298.722 479.522 302.283 479.409C305.844 479.296 309.502 476.218 309.582 472.577C309.663 468.935 305.683 465.857 301.799 465.857Z" fill="white"/>
<path fill-rule="evenodd" clip-rule="evenodd" d="M312 485.344C318.988 482.2 325.346 475.07 324.996 458.183C324.647 441.295 318.3 428.438 305.372 421.101C292.445 413.763 273.38 419.775 269.07 422.92C264.761 426.065 253.077 436.147 254.125 448.609C254.647 454.814 257.822 462.5 261.684 467.567C261.684 467.567 259.949 457.38 260.321 451.149C260.692 444.918 262.87 440.165 264.592 437.16C266.313 434.154 273.919 426.82 279.984 425.564C286.049 424.307 304.001 423.645 297.213 427.792C290.424 431.939 287.217 437.816 284.791 445.041C282.366 452.267 282.798 463.69 284.172 469.182C285.547 474.674 288.429 480.574 296.779 486.328C303.299 487.419 308.508 486.916 312 485.344ZM305.372 431.237C311.827 431.454 313.387 434.616 314.989 436.263C316.592 437.909 319.581 442.587 319.538 449.519C319.495 456.45 310.371 461.128 303.51 459.439C296.648 457.749 291.143 450.346 291.446 444.671C291.749 438.996 298.918 431.021 305.372 431.237ZM294.307 473.06C294.307 469.241 297.916 465.857 301.799 465.857C305.683 465.857 309.663 468.935 309.582 472.577C309.502 476.218 305.844 479.296 302.283 479.409C298.722 479.522 294.307 476.879 294.307 473.06Z" fill="black"/>
<path fill-rule="evenodd" clip-rule="evenodd" d="M395.401 440.88C393.627 454.477 395.686 470.76 401.509 476.117C407.333 481.474 409.557 481.749 412.806 482.442C416.055 483.135 421.329 482.937 422.643 482.715C426.625 480.622 427.535 479.409 429.051 477.677C430.568 475.944 434.12 469.922 434.723 462.645C435.325 455.367 434.391 443.679 432.052 436.618C429.713 429.557 418.282 424.483 418.585 423.357C418.888 422.231 425.244 419.51 432.738 420.246C440.232 420.983 442.949 423.695 446.675 426.597C450.4 429.5 453.112 433.639 454.845 437.754C456.578 441.869 457.516 445.553 458.001 448.629C458.485 451.705 457.799 460.564 457.799 460.564C462.774 450.854 462.081 432.489 456.213 425.324C450.345 418.16 442.422 412.184 426.221 413.107C410.019 414.031 397.175 427.282 395.401 440.88ZM399.226 444.349C399.135 439.165 401.622 433.031 406.624 429.666C411.627 426.3 415.29 427.658 419.464 429.877C423.639 432.096 427.795 436.85 426.281 444.672C424.767 452.494 416.199 458.096 409.504 457.539C402.809 456.982 399.317 449.533 399.226 444.349ZM409.217 470.274C409.512 466.284 411.723 463.081 417.589 462.823C423.454 462.565 424.564 465.254 425.118 468.583C425.673 471.912 421.895 476.117 417.113 476.42C412.331 476.724 408.923 474.263 409.217 470.274Z" fill="black"/>
<path d="M412.977 389.14C411.8 389.469 407.159 389.522 407.175 388.221C407.19 386.92 409.394 384.916 411.109 383.95C412.824 382.984 415.597 381.28 418.805 380.601C422.013 379.922 424.4 379.525 426.707 379.572C429.014 379.619 433.796 380.266 435.679 380.807C437.562 381.348 442.41 384.816 441.029 384.84C439.648 384.864 432.437 383.576 428.271 383.647C424.105 383.717 420.362 384.339 418.27 385.457C416.178 386.575 414.153 388.81 412.977 389.14Z" fill="black"/>
<path d="M304.523 392.433C302.741 392.433 299.829 389.898 299.377 389.772C298.925 389.647 297.203 388.136 294.294 387.83C291.386 387.524 285.851 387.524 282.832 387.83C279.812 388.136 279.77 388.166 276.687 388.919C273.604 389.672 271.967 388.999 273.123 388.141C274.278 387.283 280.094 384.644 282.832 384.15C285.569 383.656 291.068 383.546 293.705 383.874C296.341 384.201 301.109 385.405 302.138 385.781C303.167 386.158 308.815 388.718 308.79 390.4C308.764 392.081 306.305 392.433 304.523 392.433Z" fill="black"/>
</svg>
