<svg width="701" height="901" viewBox="0 0 701 901" fill="none" xmlns="http://www.w3.org/2000/svg">
<path d="M290.557 459.484C290.557 454.15 289.522 436.079 289.522 436.079L275.417 432.049C273.377 441.569 276.192 460.026 276.192 460.026C276.192 460.026 279.215 475.759 284.329 475.371C289.444 474.984 290.557 464.818 290.557 459.484Z" fill="black"/>
<path d="M442.447 427.128L427.889 432.516C427.889 432.516 427.275 447.5 427.275 452.51C427.275 457.52 429.354 471.038 434.884 471.416C440.415 471.794 442.447 458.077 442.447 453.03V427.128Z" fill="black"/>
<path d="M459.037 421.976C451.806 423.914 442.447 427.128 442.447 427.128V453.03C442.447 458.077 440.415 471.794 434.884 471.416C429.354 471.038 427.275 457.52 427.275 452.51C427.275 447.5 427.889 432.516 427.889 432.516C427.889 432.516 412.48 438.614 407.423 441.166C402.365 443.718 388.8 450.43 388.8 450.43C388.8 450.43 394.945 467.162 402.555 472.031C410.164 476.899 420.374 479.026 427.747 479.735C435.121 480.444 454.5 477.608 463.339 468.864C472.177 460.12 473.406 454.401 474.73 446.838C476.053 439.275 475.202 418.148 475.202 418.148C475.202 418.148 466.269 420.038 459.037 421.976Z" fill="#FBCC70"/>
<path d="M257.98 427.632C252.09 426.624 245.967 425.617 240.93 425.074C240.93 425.074 240.93 443.131 242.402 449.021C243.875 454.911 246.355 462.894 251.16 468.164C255.965 473.434 266.117 480.641 274.952 481.881C283.787 483.121 295.799 483.52 303.394 481.184C310.989 478.847 316.182 475.836 321.789 469.933C327.397 464.029 328.349 450.959 328.349 450.959C328.349 450.959 312.694 443.364 304.944 440.884C297.194 438.404 289.522 436.079 289.522 436.079C289.522 436.079 290.557 454.15 290.557 459.484C290.557 464.818 289.444 474.984 284.329 475.371C279.215 475.759 276.192 460.026 276.192 460.026C276.192 460.026 273.377 441.569 275.417 432.049C275.417 432.049 263.87 428.639 257.98 427.632Z" fill="#FBCC70"/>
<path d="M331.754 453.905C332.525 454.208 333.396 453.828 333.698 453.057C334.001 452.285 333.621 451.415 332.849 451.112L331.754 453.905ZM236.776 423.043C235.954 422.94 235.204 423.524 235.101 424.346C234.999 425.168 235.582 425.917 236.404 426.02L236.776 423.043ZM386.02 450.201C385.288 450.588 385.007 451.495 385.394 452.228C385.781 452.961 386.688 453.241 387.421 452.854L386.02 450.201ZM442.447 427.128L441.96 425.709L441.943 425.715L441.926 425.721L442.447 427.128ZM480.046 418.671C480.857 418.502 481.377 417.707 481.208 416.896C481.039 416.085 480.245 415.565 479.434 415.734L480.046 418.671ZM475.202 418.148L474.896 416.679L474.892 416.68L475.202 418.148ZM388.8 450.43L388.135 449.086L388.117 449.094L388.1 449.104L388.8 450.43ZM427.889 432.516L427.368 431.11L427.353 431.115L427.337 431.122L427.889 432.516ZM289.522 436.079L289.957 434.644L289.946 434.64L289.934 434.637L289.522 436.079ZM276.192 460.026L274.709 460.253L274.714 460.281L274.719 460.309L276.192 460.026ZM258.233 426.153C252.347 425.146 246.18 424.131 241.09 423.583L240.769 426.566C245.754 427.102 251.833 428.102 257.727 429.11L258.233 426.153ZM241.116 423.586L236.776 423.043L236.404 426.02L240.744 426.563L241.116 423.586ZM240.93 425.074C239.43 425.074 239.43 425.074 239.43 425.074C239.43 425.075 239.43 425.075 239.43 425.075C239.43 425.076 239.43 425.077 239.43 425.078C239.43 425.08 239.43 425.084 239.43 425.088C239.43 425.097 239.43 425.111 239.43 425.128C239.43 425.163 239.43 425.215 239.43 425.282C239.43 425.418 239.431 425.616 239.433 425.87C239.435 426.378 239.441 427.11 239.453 428.007C239.476 429.799 239.522 432.252 239.615 434.892C239.797 440.098 240.165 446.256 240.947 449.385L243.858 448.658C243.167 445.897 242.799 440.081 242.613 434.786C242.521 432.175 242.475 429.746 242.453 427.968C242.441 427.08 242.435 426.355 242.432 425.853C242.431 425.602 242.43 425.407 242.43 425.274C242.43 425.208 242.43 425.158 242.43 425.124C242.43 425.107 242.43 425.095 242.43 425.086C242.43 425.082 242.43 425.079 242.43 425.077C242.43 425.076 242.43 425.075 242.43 425.075C242.43 425.074 242.43 425.074 242.43 425.074C242.43 425.074 242.43 425.074 240.93 425.074ZM240.947 449.385C242.42 455.279 244.968 463.599 250.051 469.174L252.268 467.153C247.741 462.188 245.329 454.544 243.858 448.658L240.947 449.385ZM250.051 469.174C252.56 471.926 256.412 475.132 260.758 477.811C265.093 480.483 270.041 482.707 274.744 483.367L275.161 480.396C271.028 479.816 266.483 477.816 262.332 475.257C258.192 472.705 254.565 469.672 252.268 467.153L250.051 469.174ZM274.744 483.367C283.626 484.613 295.912 485.055 303.835 482.617L302.953 479.75C295.687 481.986 283.948 481.629 275.161 480.396L274.744 483.367ZM303.835 482.617C311.655 480.212 317.077 477.072 322.877 470.966L320.702 468.9C315.287 474.6 310.324 477.482 302.953 479.75L303.835 482.617ZM332.849 451.112L328.897 449.562L327.802 452.355L331.754 453.905L332.849 451.112ZM328.349 450.959C329.004 449.609 329.004 449.609 329.004 449.609C329.003 449.609 329.003 449.609 329.003 449.609C329.002 449.609 329.002 449.608 329.001 449.608C328.999 449.607 328.996 449.605 328.992 449.604C328.984 449.6 328.972 449.594 328.957 449.587C328.927 449.572 328.882 449.55 328.823 449.522C328.706 449.465 328.533 449.382 328.31 449.275C327.864 449.062 327.22 448.754 326.423 448.377C324.829 447.624 322.622 446.593 320.171 445.485C315.294 443.279 309.37 440.725 305.401 439.455L304.487 442.313C308.269 443.523 314.047 446.007 318.935 448.218C321.366 449.318 323.558 450.341 325.141 451.09C325.933 451.464 326.572 451.769 327.013 451.98C327.233 452.086 327.404 452.168 327.52 452.224C327.577 452.252 327.621 452.273 327.651 452.287C327.665 452.294 327.676 452.3 327.684 452.303C327.687 452.305 327.69 452.306 327.692 452.307C327.693 452.308 327.693 452.308 327.694 452.308C327.694 452.308 327.694 452.308 327.694 452.308C327.694 452.308 327.694 452.308 328.349 450.959ZM322.877 470.966C325.972 467.707 327.683 462.624 328.632 458.574C329.116 456.513 329.418 454.646 329.599 453.293C329.69 452.616 329.751 452.065 329.79 451.682C329.809 451.49 329.823 451.339 329.832 451.235C329.836 451.184 329.839 451.143 329.842 451.115C329.843 451.101 329.844 451.09 329.844 451.082C329.844 451.078 329.845 451.075 329.845 451.073C329.845 451.071 329.845 451.07 329.845 451.07C329.845 451.069 329.845 451.069 329.845 451.069C329.845 451.068 329.845 451.068 328.349 450.959C326.853 450.85 326.853 450.85 326.853 450.849C326.853 450.849 326.853 450.849 326.853 450.849C326.853 450.849 326.853 450.85 326.853 450.85C326.853 450.851 326.853 450.852 326.853 450.855C326.852 450.859 326.852 450.867 326.851 450.878C326.849 450.9 326.846 450.934 326.843 450.979C326.835 451.069 326.823 451.205 326.805 451.382C326.769 451.737 326.712 452.253 326.626 452.894C326.454 454.176 326.167 455.945 325.712 457.89C324.783 461.851 323.214 466.255 320.702 468.9L322.877 470.966ZM442.447 427.128C442.934 428.547 442.934 428.547 442.934 428.547C442.934 428.547 442.934 428.547 442.935 428.547C442.935 428.547 442.935 428.546 442.936 428.546C442.937 428.546 442.938 428.545 442.94 428.545C442.945 428.543 442.951 428.541 442.96 428.538C442.978 428.532 443.004 428.523 443.039 428.511C443.108 428.487 443.211 428.452 443.345 428.407C443.614 428.315 444.006 428.183 444.499 428.018C445.485 427.688 446.875 427.227 448.491 426.706C451.726 425.663 455.846 424.384 459.426 423.425L458.649 420.527C454.997 421.506 450.822 422.803 447.57 423.851C445.942 424.376 444.541 424.84 443.546 425.173C443.049 425.34 442.653 425.473 442.381 425.566C442.245 425.612 442.14 425.648 442.069 425.672C442.034 425.684 442.006 425.693 441.988 425.7C441.979 425.703 441.972 425.705 441.967 425.707C441.965 425.708 441.963 425.708 441.962 425.709C441.961 425.709 441.961 425.709 441.96 425.709C441.96 425.709 441.96 425.709 441.96 425.709C441.96 425.709 441.96 425.709 442.447 427.128ZM459.426 423.425C463.015 422.463 467.035 421.511 470.165 420.798C471.728 420.441 473.067 420.146 474.013 419.939C474.487 419.835 474.862 419.754 475.119 419.699C475.248 419.672 475.346 419.651 475.413 419.636C475.446 419.629 475.471 419.624 475.488 419.62C475.496 419.619 475.503 419.617 475.507 419.616C475.509 419.616 475.511 419.616 475.512 419.615C475.512 419.615 475.512 419.615 475.513 419.615C475.513 419.615 475.513 419.615 475.513 419.615C475.513 419.615 475.513 419.615 475.202 418.148C474.892 416.68 474.892 416.68 474.892 416.68C474.892 416.68 474.891 416.68 474.891 416.68C474.891 416.68 474.89 416.68 474.89 416.681C474.889 416.681 474.887 416.681 474.885 416.682C474.88 416.683 474.874 416.684 474.865 416.686C474.847 416.69 474.822 416.695 474.788 416.702C474.72 416.717 474.619 416.738 474.489 416.766C474.23 416.822 473.851 416.904 473.374 417.008C472.42 417.216 471.072 417.514 469.498 417.873C466.354 418.589 462.292 419.551 458.649 420.527L459.426 423.425ZM475.508 419.616L480.046 418.671L479.434 415.734L474.896 416.679L475.508 419.616ZM475.202 418.148C473.704 418.208 473.704 418.208 473.704 418.208C473.704 418.208 473.704 418.209 473.704 418.209C473.704 418.209 473.704 418.21 473.704 418.211C473.704 418.214 473.704 418.218 473.704 418.222C473.705 418.232 473.705 418.247 473.706 418.267C473.707 418.307 473.71 418.366 473.713 418.443C473.718 418.599 473.727 418.828 473.737 419.123C473.758 419.712 473.786 420.564 473.815 421.609C473.874 423.701 473.939 426.568 473.962 429.668C474.01 435.927 473.886 442.957 473.252 446.579L476.207 447.097C476.897 443.156 477.009 435.842 476.962 429.645C476.939 426.519 476.873 423.631 476.814 421.525C476.784 420.472 476.756 419.613 476.735 419.018C476.725 418.72 476.716 418.488 476.71 418.33C476.708 418.251 476.705 418.191 476.704 418.15C476.703 418.13 476.702 418.114 476.702 418.104C476.702 418.098 476.701 418.094 476.701 418.092C476.701 418.09 476.701 418.089 476.701 418.089C476.701 418.088 476.701 418.088 476.701 418.088C476.701 418.087 476.701 418.087 475.202 418.148ZM473.252 446.579C472.591 450.36 471.977 453.51 470.487 456.787C469.003 460.049 466.609 463.519 462.284 467.798L464.394 469.93C468.907 465.465 471.547 461.703 473.218 458.029C474.883 454.369 475.546 450.878 476.207 447.097L473.252 446.579ZM462.284 467.798C458.151 471.886 451.411 474.698 444.631 476.389C437.868 478.075 431.358 478.575 427.891 478.242L427.604 481.228C431.51 481.604 438.376 481.04 445.356 479.3C452.318 477.564 459.687 474.586 464.394 469.93L462.284 467.798ZM427.891 478.242C420.612 477.542 410.679 475.448 403.363 470.767L401.746 473.294C409.649 478.35 420.136 480.51 427.604 481.228L427.891 478.242ZM387.421 452.854L389.5 451.757L388.1 449.104L386.02 450.201L387.421 452.854ZM388.8 450.43C389.465 451.775 389.465 451.775 389.466 451.775C389.466 451.774 389.466 451.774 389.466 451.774C389.466 451.774 389.467 451.774 389.468 451.773C389.47 451.773 389.472 451.771 389.475 451.77C389.482 451.766 389.492 451.762 389.505 451.755C389.53 451.742 389.569 451.723 389.619 451.699C389.72 451.649 389.868 451.575 390.058 451.481C390.439 451.293 390.989 451.02 391.665 450.686C393.016 450.016 394.87 449.098 396.882 448.099C400.904 446.102 405.565 443.784 408.099 442.505L406.747 439.827C404.224 441.1 399.573 443.414 395.548 445.412C393.537 446.41 391.684 447.328 390.333 447.997C389.658 448.332 389.108 448.604 388.727 448.792C388.537 448.887 388.389 448.96 388.288 449.01C388.238 449.035 388.2 449.054 388.174 449.066C388.161 449.073 388.151 449.078 388.145 449.081C388.142 449.082 388.139 449.084 388.137 449.085C388.137 449.085 388.136 449.085 388.136 449.085C388.135 449.086 388.135 449.086 388.135 449.086C388.135 449.086 388.135 449.086 388.8 450.43ZM403.363 470.767C401.686 469.694 400.005 467.905 398.406 465.717C396.82 463.546 395.378 461.069 394.155 458.714C392.934 456.362 391.945 454.156 391.261 452.537C390.919 451.728 390.654 451.068 390.476 450.612C390.387 450.384 390.319 450.207 390.274 450.088C390.251 450.029 390.235 449.984 390.224 449.954C390.218 449.94 390.214 449.929 390.211 449.922C390.21 449.918 390.209 449.916 390.209 449.914C390.208 449.914 390.208 449.913 390.208 449.913C390.208 449.913 390.208 449.913 390.208 449.913C390.208 449.913 390.208 449.913 388.8 450.43C387.392 450.947 387.392 450.948 387.392 450.948C387.392 450.948 387.393 450.948 387.393 450.949C387.393 450.95 387.393 450.951 387.394 450.952C387.395 450.955 387.396 450.958 387.398 450.963C387.401 450.972 387.406 450.985 387.413 451.002C387.425 451.036 387.444 451.086 387.468 451.151C387.517 451.279 387.589 451.467 387.682 451.706C387.869 452.183 388.144 452.868 388.497 453.704C389.203 455.375 390.226 457.656 391.492 460.096C392.757 462.532 394.278 465.151 395.984 467.487C397.678 469.806 399.618 471.933 401.746 473.294L403.363 470.767ZM408.099 442.505C410.565 441.26 415.624 439.121 420.123 437.271C422.36 436.352 424.44 435.511 425.961 434.901C426.722 434.596 427.342 434.348 427.772 434.177C427.987 434.091 428.155 434.025 428.268 433.98C428.325 433.957 428.368 433.94 428.397 433.928C428.412 433.923 428.423 433.918 428.43 433.915C428.434 433.914 428.437 433.913 428.438 433.912C428.439 433.912 428.44 433.912 428.44 433.911C428.441 433.911 428.441 433.911 428.441 433.911C428.441 433.911 428.441 433.911 427.889 432.516C427.337 431.122 427.337 431.122 427.337 431.122C427.337 431.122 427.337 431.122 427.336 431.122C427.336 431.122 427.335 431.122 427.334 431.123C427.332 431.124 427.329 431.125 427.326 431.126C427.318 431.129 427.307 431.134 427.292 431.139C427.263 431.151 427.219 431.169 427.161 431.191C427.047 431.237 426.878 431.304 426.662 431.39C426.23 431.562 425.607 431.811 424.844 432.117C423.318 432.729 421.229 433.573 418.982 434.497C414.512 436.334 409.338 438.519 406.747 439.827L408.099 442.505ZM428.41 433.923L442.968 428.535L441.926 425.721L427.368 431.11L428.41 433.923ZM427.889 432.516C426.39 432.455 426.39 432.455 426.39 432.455C426.39 432.455 426.39 432.455 426.39 432.456C426.39 432.456 426.39 432.457 426.39 432.458C426.39 432.46 426.39 432.462 426.39 432.466C426.39 432.473 426.389 432.484 426.389 432.498C426.387 432.527 426.386 432.569 426.383 432.625C426.379 432.736 426.372 432.9 426.364 433.11C426.347 433.53 426.323 434.135 426.294 434.878C426.237 436.362 426.16 438.393 426.083 440.582C425.929 444.946 425.775 449.973 425.775 452.51H428.775C428.775 450.036 428.927 445.066 429.081 440.687C429.158 438.503 429.234 436.476 429.292 434.994C429.321 434.253 429.345 433.649 429.361 433.23C429.37 433.021 429.376 432.857 429.381 432.747C429.383 432.691 429.385 432.649 429.386 432.621C429.387 432.606 429.387 432.596 429.387 432.589C429.388 432.585 429.388 432.582 429.388 432.58C429.388 432.58 429.388 432.579 429.388 432.578C429.388 432.578 429.388 432.578 429.388 432.578C429.388 432.578 429.388 432.578 427.889 432.516ZM425.775 452.51C425.775 455.152 426.314 459.93 427.569 464.13C428.195 466.226 429.029 468.279 430.131 469.864C431.222 471.433 432.746 472.774 434.782 472.913L434.987 469.92C434.258 469.87 433.448 469.379 432.594 468.151C431.751 466.938 431.028 465.227 430.443 463.271C429.276 459.364 428.775 454.877 428.775 452.51H425.775ZM434.782 472.913C436.89 473.057 438.488 471.818 439.606 470.303C440.724 468.789 441.556 466.762 442.177 464.687C443.422 460.522 443.947 455.684 443.947 453.03H440.947C440.947 455.422 440.456 459.967 439.302 463.828C438.723 465.766 438.011 467.413 437.192 468.522C436.374 469.631 435.644 469.965 434.987 469.92L434.782 472.913ZM443.947 453.03C443.947 453.02 443.947 453.01 443.947 453C443.947 452.99 443.947 452.98 443.947 452.97C443.947 452.96 443.947 452.95 443.947 452.939C443.947 452.929 443.947 452.919 443.947 452.909C443.947 452.898 443.947 452.888 443.947 452.877C443.947 452.867 443.947 452.856 443.947 452.846C443.947 452.835 443.947 452.825 443.947 452.814C443.947 452.803 443.947 452.793 443.947 452.782C443.947 452.771 443.947 452.76 443.947 452.749C443.947 452.738 443.947 452.727 443.947 452.716C443.947 452.705 443.947 452.694 443.947 452.683C443.947 452.672 443.947 452.661 443.947 452.649C443.947 452.638 443.947 452.627 443.947 452.615C443.947 452.604 443.947 452.593 443.947 452.581C443.947 452.57 443.947 452.558 443.947 452.546C443.947 452.535 443.947 452.523 443.947 452.511C443.947 452.5 443.947 452.488 443.947 452.476C443.947 452.464 443.947 452.452 443.947 452.44C443.947 452.429 443.947 452.417 443.947 452.404C443.947 452.392 443.947 452.38 443.947 452.368C443.947 452.356 443.947 452.344 443.947 452.332C443.947 452.319 443.947 452.307 443.947 452.295C443.947 452.282 443.947 452.27 443.947 452.257C443.947 452.245 443.947 452.232 443.947 452.22C443.947 452.207 443.947 452.194 443.947 452.182C443.947 452.169 443.947 452.156 443.947 452.143C443.947 452.131 443.947 452.118 443.947 452.105C443.947 452.092 443.947 452.079 443.947 452.066C443.947 452.053 443.947 452.04 443.947 452.027C443.947 452.014 443.947 452 443.947 451.987C443.947 451.974 443.947 451.961 443.947 451.947C443.947 451.934 443.947 451.921 443.947 451.907C443.947 451.894 443.947 451.88 443.947 451.867C443.947 451.853 443.947 451.84 443.947 451.826C443.947 451.812 443.947 451.799 443.947 451.785C443.947 451.771 443.947 451.757 443.947 451.743C443.947 451.73 443.947 451.716 443.947 451.702C443.947 451.688 443.947 451.674 443.947 451.66C443.947 451.646 443.947 451.632 443.947 451.618C443.947 451.603 443.947 451.589 443.947 451.575C443.947 451.561 443.947 451.546 443.947 451.532C443.947 451.518 443.947 451.503 443.947 451.489C443.947 451.474 443.947 451.46 443.947 451.445C443.947 451.431 443.947 451.416 443.947 451.402C443.947 451.387 443.947 451.372 443.947 451.358C443.947 451.343 443.947 451.328 443.947 451.313C443.947 451.298 443.947 451.284 443.947 451.269C443.947 451.254 443.947 451.239 443.947 451.224C443.947 451.209 443.947 451.194 443.947 451.179C443.947 451.163 443.947 451.148 443.947 451.133C443.947 451.118 443.947 451.103 443.947 451.087C443.947 451.072 443.947 451.057 443.947 451.041C443.947 451.026 443.947 451.01 443.947 450.995C443.947 450.979 443.947 450.964 443.947 450.948C443.947 450.933 443.947 450.917 443.947 450.902C443.947 450.886 443.947 450.87 443.947 450.854C443.947 450.839 443.947 450.823 443.947 450.807C443.947 450.791 443.947 450.775 443.947 450.759C443.947 450.743 443.947 450.727 443.947 450.711C443.947 450.695 443.947 450.679 443.947 450.663C443.947 450.647 443.947 450.631 443.947 450.615C443.947 450.599 443.947 450.582 443.947 450.566C443.947 450.55 443.947 450.533 443.947 450.517C443.947 450.501 443.947 450.484 443.947 450.468C443.947 450.451 443.947 450.435 443.947 450.418C443.947 450.402 443.947 450.385 443.947 450.369C443.947 450.352 443.947 450.335 443.947 450.319C443.947 450.302 443.947 450.285 443.947 450.268C443.947 450.251 443.947 450.235 443.947 450.218C443.947 450.201 443.947 450.184 443.947 450.167C443.947 450.15 443.947 450.133 443.947 450.116C443.947 450.099 443.947 450.082 443.947 450.065C443.947 450.048 443.947 450.03 443.947 450.013C443.947 449.996 443.947 449.979 443.947 449.961C443.947 449.944 443.947 449.927 443.947 449.91C443.947 449.892 443.947 449.875 443.947 449.857C443.947 449.84 443.947 449.822 443.947 449.805C443.947 449.787 443.947 449.77 443.947 449.752C443.947 449.735 443.947 449.717 443.947 449.699C443.947 449.682 443.947 449.664 443.947 449.646C443.947 449.628 443.947 449.611 443.947 449.593C443.947 449.575 443.947 449.557 443.947 449.539C443.947 449.521 443.947 449.503 443.947 449.485C443.947 449.467 443.947 449.449 443.947 449.431C443.947 449.413 443.947 449.395 443.947 449.377C443.947 449.359 443.947 449.341 443.947 449.322C443.947 449.304 443.947 449.286 443.947 449.268C443.947 449.249 443.947 449.231 443.947 449.213C443.947 449.194 443.947 449.176 443.947 449.157C443.947 449.139 443.947 449.121 443.947 449.102C443.947 449.084 443.947 449.065 443.947 449.046C443.947 449.028 443.947 449.009 443.947 448.991C443.947 448.972 443.947 448.953 443.947 448.935C443.947 448.916 443.947 448.897 443.947 448.878C443.947 448.86 443.947 448.841 443.947 448.822C443.947 448.803 443.947 448.784 443.947 448.765C443.947 448.746 443.947 448.727 443.947 448.708C443.947 448.689 443.947 448.67 443.947 448.651C443.947 448.632 443.947 448.613 443.947 448.594C443.947 448.575 443.947 448.556 443.947 448.537C443.947 448.517 443.947 448.498 443.947 448.479C443.947 448.46 443.947 448.44 443.947 448.421C443.947 448.402 443.947 448.382 443.947 448.363C443.947 448.344 443.947 448.324 443.947 448.305C443.947 448.285 443.947 448.266 443.947 448.246C443.947 448.227 443.947 448.207 443.947 448.188C443.947 448.168 443.947 448.149 443.947 448.129C443.947 448.109 443.947 448.09 443.947 448.07C443.947 448.05 443.947 448.031 443.947 448.011C443.947 447.991 443.947 447.971 443.947 447.951C443.947 447.932 443.947 447.912 443.947 447.892C443.947 447.872 443.947 447.852 443.947 447.832C443.947 447.812 443.947 447.792 443.947 447.772C443.947 447.752 443.947 447.732 443.947 447.712C443.947 447.692 443.947 447.672 443.947 447.652C443.947 447.632 443.947 447.612 443.947 447.592C443.947 447.571 443.947 447.551 443.947 447.531C443.947 447.511 443.947 447.49 443.947 447.47C443.947 447.45 443.947 447.43 443.947 447.409C443.947 447.389 443.947 447.368 443.947 447.348C443.947 447.328 443.947 447.307 443.947 447.287C443.947 447.266 443.947 447.246 443.947 447.225C443.947 447.205 443.947 447.184 443.947 447.164C443.947 447.143 443.947 447.123 443.947 447.102C443.947 447.081 443.947 447.061 443.947 447.04C443.947 447.019 443.947 446.999 443.947 446.978C443.947 446.957 443.947 446.937 443.947 446.916C443.947 446.895 443.947 446.874 443.947 446.853C443.947 446.833 443.947 446.812 443.947 446.791C443.947 446.77 443.947 446.749 443.947 446.728C443.947 446.707 443.947 446.686 443.947 446.665C443.947 446.644 443.947 446.623 443.947 446.602C443.947 446.581 443.947 446.56 443.947 446.539C443.947 446.518 443.947 446.497 443.947 446.476C443.947 446.455 443.947 446.434 443.947 446.413C443.947 446.391 443.947 446.37 443.947 446.349C443.947 446.328 443.947 446.307 443.947 446.285C443.947 446.264 443.947 446.243 443.947 446.222C443.947 446.2 443.947 446.179 443.947 446.158C443.947 446.136 443.947 446.115 443.947 446.093C443.947 446.072 443.947 446.051 443.947 446.029C443.947 446.008 443.947 445.986 443.947 445.965C443.947 445.943 443.947 445.922 443.947 445.9C443.947 445.879 443.947 445.857 443.947 445.836C443.947 445.814 443.947 445.793 443.947 445.771C443.947 445.749 443.947 445.728 443.947 445.706C443.947 445.685 443.947 445.663 443.947 445.641C443.947 445.619 443.947 445.598 443.947 445.576C443.947 445.554 443.947 445.533 443.947 445.511C443.947 445.489 443.947 445.467 443.947 445.445C443.947 445.424 443.947 445.402 443.947 445.38C443.947 445.358 443.947 445.336 443.947 445.314C443.947 445.293 443.947 445.271 443.947 445.249C443.947 445.227 443.947 445.205 443.947 445.183C443.947 445.161 443.947 445.139 443.947 445.117C443.947 445.095 443.947 445.073 443.947 445.051C443.947 445.029 443.947 445.007 443.947 444.985C443.947 444.963 443.947 444.941 443.947 444.919C443.947 444.897 443.947 444.874 443.947 444.852C443.947 444.83 443.947 444.808 443.947 444.786C443.947 444.764 443.947 444.742 443.947 444.719C443.947 444.697 443.947 444.675 443.947 444.653C443.947 444.631 443.947 444.608 443.947 444.586C443.947 444.564 443.947 444.541 443.947 444.519C443.947 444.497 443.947 444.475 443.947 444.452C443.947 444.43 443.947 444.408 443.947 444.385C443.947 444.363 443.947 444.341 443.947 444.318C443.947 444.296 443.947 444.273 443.947 444.251C443.947 444.229 443.947 444.206 443.947 444.184C443.947 444.161 443.947 444.139 443.947 444.116C443.947 444.094 443.947 444.071 443.947 444.049C443.947 444.026 443.947 444.004 443.947 443.981C443.947 443.959 443.947 443.936 443.947 443.914C443.947 443.891 443.947 443.869 443.947 443.846C443.947 443.824 443.947 443.801 443.947 443.778C443.947 443.756 443.947 443.733 443.947 443.711C443.947 443.688 443.947 443.665 443.947 443.643C443.947 443.62 443.947 443.597 443.947 443.575C443.947 443.552 443.947 443.529 443.947 443.507C443.947 443.484 443.947 443.461 443.947 443.438C443.947 443.416 443.947 443.393 443.947 443.37C443.947 443.348 443.947 443.325 443.947 443.302C443.947 443.279 443.947 443.257 443.947 443.234C443.947 443.211 443.947 443.188 443.947 443.165C443.947 443.143 443.947 443.12 443.947 443.097C443.947 443.074 443.947 443.051 443.947 443.028C443.947 443.006 443.947 442.983 443.947 442.96C443.947 442.937 443.947 442.914 443.947 442.891C443.947 442.868 443.947 442.846 443.947 442.823C443.947 442.8 443.947 442.777 443.947 442.754C443.947 442.731 443.947 442.708 443.947 442.685C443.947 442.662 443.947 442.639 443.947 442.616C443.947 442.593 443.947 442.57 443.947 442.548C443.947 442.525 443.947 442.502 443.947 442.479C443.947 442.456 443.947 442.433 443.947 442.41C443.947 442.387 443.947 442.364 443.947 442.341C443.947 442.318 443.947 442.295 443.947 442.272C443.947 442.249 443.947 442.226 443.947 442.203C443.947 442.18 443.947 442.157 443.947 442.134C443.947 442.11 443.947 442.087 443.947 442.064C443.947 442.041 443.947 442.018 443.947 441.995C443.947 441.972 443.947 441.949 443.947 441.926C443.947 441.903 443.947 441.88 443.947 441.857C443.947 441.834 443.947 441.811 443.947 441.787C443.947 441.764 443.947 441.741 443.947 441.718C443.947 441.695 443.947 441.672 443.947 441.649C443.947 441.626 443.947 441.603 443.947 441.58C443.947 441.556 443.947 441.533 443.947 441.51C443.947 441.487 443.947 441.464 443.947 441.441C443.947 441.418 443.947 441.395 443.947 441.371C443.947 441.348 443.947 441.325 443.947 441.302C443.947 441.279 443.947 441.256 443.947 441.233C443.947 441.209 443.947 441.186 443.947 441.163C443.947 441.14 443.947 441.117 443.947 441.094C443.947 441.07 443.947 441.047 443.947 441.024C443.947 441.001 443.947 440.978 443.947 440.955C443.947 440.931 443.947 440.908 443.947 440.885C443.947 440.862 443.947 440.839 443.947 440.816C443.947 440.792 443.947 440.769 443.947 440.746C443.947 440.723 443.947 440.7 443.947 440.677C443.947 440.653 443.947 440.63 443.947 440.607C443.947 440.584 443.947 440.561 443.947 440.538C443.947 440.514 443.947 440.491 443.947 440.468C443.947 440.445 443.947 440.422 443.947 440.399C443.947 440.375 443.947 440.352 443.947 440.329C443.947 440.306 443.947 440.283 443.947 440.26C443.947 440.236 443.947 440.213 443.947 440.19C443.947 440.167 443.947 440.144 443.947 440.121C443.947 440.098 443.947 440.074 443.947 440.051C443.947 440.028 443.947 440.005 443.947 439.982C443.947 439.959 443.947 439.935 443.947 439.912C443.947 439.889 443.947 439.866 443.947 439.843C443.947 439.82 443.947 439.797 443.947 439.774C443.947 439.75 443.947 439.727 443.947 439.704C443.947 439.681 443.947 439.658 443.947 439.635C443.947 439.612 443.947 439.589 443.947 439.565C443.947 439.542 443.947 439.519 443.947 439.496C443.947 439.473 443.947 439.45 443.947 439.427C443.947 439.404 443.947 439.381 443.947 439.358C443.947 439.335 443.947 439.311 443.947 439.288C443.947 439.265 443.947 439.242 443.947 439.219C443.947 439.196 443.947 439.173 443.947 439.15C443.947 439.127 443.947 439.104 443.947 439.081C443.947 439.058 443.947 439.035 443.947 439.012C443.947 438.989 443.947 438.966 443.947 438.943C443.947 438.92 443.947 438.897 443.947 438.874C443.947 438.851 443.947 438.828 443.947 438.805C443.947 438.782 443.947 438.759 443.947 438.736C443.947 438.713 443.947 438.69 443.947 438.667C443.947 438.644 443.947 438.621 443.947 438.598C443.947 438.575 443.947 438.552 443.947 438.529C443.947 438.507 443.947 438.484 443.947 438.461C443.947 438.438 443.947 438.415 443.947 438.392C443.947 438.369 443.947 438.346 443.947 438.323C443.947 438.301 443.947 438.278 443.947 438.255C443.947 438.232 443.947 438.209 443.947 438.186C443.947 438.163 443.947 438.141 443.947 438.118C443.947 438.095 443.947 438.072 443.947 438.049C443.947 438.027 443.947 438.004 443.947 437.981C443.947 437.958 443.947 437.936 443.947 437.913C443.947 437.89 443.947 437.867 443.947 437.845C443.947 437.822 443.947 437.799 443.947 437.776C443.947 437.754 443.947 437.731 443.947 437.708C443.947 437.686 443.947 437.663 443.947 437.64C443.947 437.618 443.947 437.595 443.947 437.572C443.947 437.55 443.947 437.527 443.947 437.505C443.947 437.482 443.947 437.459 443.947 437.437C443.947 437.414 443.947 437.392 443.947 437.369C443.947 437.346 443.947 437.324 443.947 437.301C443.947 437.279 443.947 437.256 443.947 437.234C443.947 437.211 443.947 437.189 443.947 437.166C443.947 437.144 443.947 437.121 443.947 437.099C443.947 437.076 443.947 437.054 443.947 437.032C443.947 437.009 443.947 436.987 443.947 436.964C443.947 436.942 443.947 436.92 443.947 436.897C443.947 436.875 443.947 436.853 443.947 436.83C443.947 436.808 443.947 436.786 443.947 436.763C443.947 436.741 443.947 436.719 443.947 436.696C443.947 436.674 443.947 436.652 443.947 436.63C443.947 436.607 443.947 436.585 443.947 436.563C443.947 436.541 443.947 436.519 443.947 436.496C443.947 436.474 443.947 436.452 443.947 436.43C443.947 436.408 443.947 436.386 443.947 436.363C443.947 436.341 443.947 436.319 443.947 436.297C443.947 436.275 443.947 436.253 443.947 436.231C443.947 436.209 443.947 436.187 443.947 436.165C443.947 436.143 443.947 436.121 443.947 436.099C443.947 436.077 443.947 436.055 443.947 436.033C443.947 436.011 443.947 435.989 443.947 435.967C443.947 435.945 443.947 435.924 443.947 435.902C443.947 435.88 443.947 435.858 443.947 435.836C443.947 435.814 443.947 435.793 443.947 435.771C443.947 435.749 443.947 435.727 443.947 435.705C443.947 435.684 443.947 435.662 443.947 435.64C443.947 435.619 443.947 435.597 443.947 435.575C443.947 435.554 443.947 435.532 443.947 435.51C443.947 435.489 443.947 435.467 443.947 435.446C443.947 435.424 443.947 435.402 443.947 435.381C443.947 435.359 443.947 435.338 443.947 435.316C443.947 435.295 443.947 435.273 443.947 435.252C443.947 435.23 443.947 435.209 443.947 435.188C443.947 435.166 443.947 435.145 443.947 435.123C443.947 435.102 443.947 435.081 443.947 435.059C443.947 435.038 443.947 435.017 443.947 434.995C443.947 434.974 443.947 434.953 443.947 434.932C443.947 434.91 443.947 434.889 443.947 434.868C443.947 434.847 443.947 434.826 443.947 434.805C443.947 434.783 443.947 434.762 443.947 434.741C443.947 434.72 443.947 434.699 443.947 434.678C443.947 434.657 443.947 434.636 443.947 434.615C443.947 434.594 443.947 434.573 443.947 434.552C443.947 434.531 443.947 434.51 443.947 434.489C443.947 434.468 443.947 434.448 443.947 434.427C443.947 434.406 443.947 434.385 443.947 434.364C443.947 434.343 443.947 434.323 443.947 434.302C443.947 434.281 443.947 434.26 443.947 434.24C443.947 434.219 443.947 434.198 443.947 434.178C443.947 434.157 443.947 434.137 443.947 434.116C443.947 434.095 443.947 434.075 443.947 434.054C443.947 434.034 443.947 434.013 443.947 433.993C443.947 433.972 443.947 433.952 443.947 433.931C443.947 433.911 443.947 433.891 443.947 433.87C443.947 433.85 443.947 433.83 443.947 433.809C443.947 433.789 443.947 433.769 443.947 433.748C443.947 433.728 443.947 433.708 443.947 433.688C443.947 433.667 443.947 433.647 443.947 433.627C443.947 433.607 443.947 433.587 443.947 433.567C443.947 433.547 443.947 433.527 443.947 433.507C443.947 433.487 443.947 433.467 443.947 433.447C443.947 433.427 443.947 433.407 443.947 433.387C443.947 433.367 443.947 433.347 443.947 433.327C443.947 433.307 443.947 433.287 443.947 433.268C443.947 433.248 443.947 433.228 443.947 433.208C443.947 433.189 443.947 433.169 443.947 433.149C443.947 433.13 443.947 433.11 443.947 433.09C443.947 433.071 443.947 433.051 443.947 433.032C443.947 433.012 443.947 432.993 443.947 432.973C443.947 432.954 443.947 432.934 443.947 432.915C443.947 432.895 443.947 432.876 443.947 432.857C443.947 432.837 443.947 432.818 443.947 432.799C443.947 432.779 443.947 432.76 443.947 432.741C443.947 432.722 443.947 432.703 443.947 432.683C443.947 432.664 443.947 432.645 443.947 432.626C443.947 432.607 443.947 432.588 443.947 432.569C443.947 432.55 443.947 432.531 443.947 432.512C443.947 432.493 443.947 432.474 443.947 432.455C443.947 432.436 443.947 432.417 443.947 432.399C443.947 432.38 443.947 432.361 443.947 432.342C443.947 432.324 443.947 432.305 443.947 432.286C443.947 432.267 443.947 432.249 443.947 432.23C443.947 432.212 443.947 432.193 443.947 432.174C443.947 432.156 443.947 432.137 443.947 432.119C443.947 432.101 443.947 432.082 443.947 432.064C443.947 432.045 443.947 432.027 443.947 432.009C443.947 431.99 443.947 431.972 443.947 431.954C443.947 431.936 443.947 431.917 443.947 431.899C443.947 431.881 443.947 431.863 443.947 431.845C443.947 431.827 443.947 431.809 443.947 431.791C443.947 431.773 443.947 431.755 443.947 431.737C443.947 431.719 443.947 431.701 443.947 431.683C443.947 431.665 443.947 431.647 443.947 431.629C443.947 431.612 443.947 431.594 443.947 431.576C443.947 431.558 443.947 431.541 443.947 431.523C443.947 431.505 443.947 431.488 443.947 431.47C443.947 431.453 443.947 431.435 443.947 431.418C443.947 431.4 443.947 431.383 443.947 431.365C443.947 431.348 443.947 431.331 443.947 431.313C443.947 431.296 443.947 431.279 443.947 431.261C443.947 431.244 443.947 431.227 443.947 431.21C443.947 431.193 443.947 431.175 443.947 431.158C443.947 431.141 443.947 431.124 443.947 431.107C443.947 431.09 443.947 431.073 443.947 431.056C443.947 431.039 443.947 431.023 443.947 431.006C443.947 430.989 443.947 430.972 443.947 430.955C443.947 430.939 443.947 430.922 443.947 430.905C443.947 430.888 443.947 430.872 443.947 430.855C443.947 430.839 443.947 430.822 443.947 430.806C443.947 430.789 443.947 430.773 443.947 430.756C443.947 430.74 443.947 430.723 443.947 430.707C443.947 430.691 443.947 430.675 443.947 430.658C443.947 430.642 443.947 430.626 443.947 430.61C443.947 430.594 443.947 430.577 443.947 430.561C443.947 430.545 443.947 430.529 443.947 430.513C443.947 430.497 443.947 430.481 443.947 430.465C443.947 430.45 443.947 430.434 443.947 430.418C443.947 430.402 443.947 430.386 443.947 430.371C443.947 430.355 443.947 430.339 443.947 430.324C443.947 430.308 443.947 430.292 443.947 430.277C443.947 430.261 443.947 430.246 443.947 430.23C443.947 430.215 443.947 430.2 443.947 430.184C443.947 430.169 443.947 430.154 443.947 430.138C443.947 430.123 443.947 430.108 443.947 430.093C443.947 430.078 443.947 430.063 443.947 430.047C443.947 430.032 443.947 430.017 443.947 430.002C443.947 429.987 443.947 429.972 443.947 429.958C443.947 429.943 443.947 429.928 443.947 429.913C443.947 429.898 443.947 429.884 443.947 429.869C443.947 429.854 443.947 429.84 443.947 429.825C443.947 429.81 443.947 429.796 443.947 429.781C443.947 429.767 443.947 429.752 443.947 429.738C443.947 429.724 443.947 429.709 443.947 429.695C443.947 429.681 443.947 429.666 443.947 429.652C443.947 429.638 443.947 429.624 443.947 429.61C443.947 429.596 443.947 429.582 443.947 429.568C443.947 429.554 443.947 429.54 443.947 429.526C443.947 429.512 443.947 429.498 443.947 429.484C443.947 429.471 443.947 429.457 443.947 429.443C443.947 429.429 443.947 429.416 443.947 429.402C443.947 429.389 443.947 429.375 443.947 429.362C443.947 429.348 443.947 429.335 443.947 429.321C443.947 429.308 443.947 429.294 443.947 429.281C443.947 429.268 443.947 429.255 443.947 429.242C443.947 429.228 443.947 429.215 443.947 429.202C443.947 429.189 443.947 429.176 443.947 429.163C443.947 429.15 443.947 429.137 443.947 429.124C443.947 429.111 443.947 429.099 443.947 429.086C443.947 429.073 443.947 429.06 443.947 429.048C443.947 429.035 443.947 429.023 443.947 429.01C443.947 428.997 443.947 428.985 443.947 428.973C443.947 428.96 443.947 428.948 443.947 428.935C443.947 428.923 443.947 428.911 443.947 428.899C443.947 428.886 443.947 428.874 443.947 428.862C443.947 428.85 443.947 428.838 443.947 428.826C443.947 428.814 443.947 428.802 443.947 428.79C443.947 428.778 443.947 428.766 443.947 428.755C443.947 428.743 443.947 428.731 443.947 428.719C443.947 428.708 443.947 428.696 443.947 428.685C443.947 428.673 443.947 428.662 443.947 428.65C443.947 428.639 443.947 428.627 443.947 428.616C443.947 428.605 443.947 428.593 443.947 428.582C443.947 428.571 443.947 428.56 443.947 428.549C443.947 428.538 443.947 428.527 443.947 428.516C443.947 428.505 443.947 428.494 443.947 428.483C443.947 428.472 443.947 428.461 443.947 428.45C443.947 428.44 443.947 428.429 443.947 428.418C443.947 428.408 443.947 428.397 443.947 428.387C443.947 428.376 443.947 428.366 443.947 428.355C443.947 428.345 443.947 428.335 443.947 428.324C443.947 428.314 443.947 428.304 443.947 428.294C443.947 428.283 443.947 428.273 443.947 428.263C443.947 428.253 443.947 428.243 443.947 428.233C443.947 428.223 443.947 428.214 443.947 428.204C443.947 428.194 443.947 428.184 443.947 428.175C443.947 428.165 443.947 428.155 443.947 428.146C443.947 428.136 443.947 428.127 443.947 428.117C443.947 428.108 443.947 428.098 443.947 428.089C443.947 428.08 443.947 428.071 443.947 428.061C443.947 428.052 443.947 428.043 443.947 428.034C443.947 428.025 443.947 428.016 443.947 428.007C443.947 427.998 443.947 427.989 443.947 427.98C443.947 427.972 443.947 427.963 443.947 427.954C443.947 427.945 443.947 427.937 443.947 427.928C443.947 427.92 443.947 427.911 443.947 427.903C443.947 427.894 443.947 427.886 443.947 427.878C443.947 427.869 443.947 427.861 443.947 427.853C443.947 427.845 443.947 427.837 443.947 427.829C443.947 427.82 443.947 427.812 443.947 427.805C443.947 427.797 443.947 427.789 443.947 427.781C443.947 427.773 443.947 427.765 443.947 427.758C443.947 427.75 443.947 427.743 443.947 427.735C443.947 427.727 443.947 427.72 443.947 427.713C443.947 427.705 443.947 427.698 443.947 427.691C443.947 427.683 443.947 427.676 443.947 427.669C443.947 427.662 443.947 427.655 443.947 427.648C443.947 427.641 443.947 427.634 443.947 427.627C443.947 427.62 443.947 427.613 443.947 427.606C443.947 427.6 443.947 427.593 443.947 427.586C443.947 427.58 443.947 427.573 443.947 427.567C443.947 427.56 443.947 427.554 443.947 427.548C443.947 427.541 443.947 427.535 443.947 427.529C443.947 427.523 443.947 427.516 443.947 427.51C443.947 427.504 443.947 427.498 443.947 427.492C443.947 427.486 443.947 427.481 443.947 427.475C443.947 427.469 443.947 427.463 443.947 427.458C443.947 427.452 443.947 427.446 443.947 427.441C443.947 427.435 443.947 427.43 443.947 427.425C443.947 427.419 443.947 427.414 443.947 427.409C443.947 427.403 443.947 427.398 443.947 427.393C443.947 427.388 443.947 427.383 443.947 427.378C443.947 427.373 443.947 427.368 443.947 427.363C443.947 427.359 443.947 427.354 443.947 427.349C443.947 427.345 443.947 427.34 443.947 427.335C443.947 427.331 443.947 427.326 443.947 427.322C443.947 427.318 443.947 427.313 443.947 427.309C443.947 427.305 443.947 427.301 443.947 427.297C443.947 427.293 443.947 427.289 443.947 427.285C443.947 427.281 443.947 427.277 443.947 427.273C443.947 427.269 443.947 427.265 443.947 427.262C443.947 427.258 443.947 427.254 443.947 427.251C443.947 427.247 443.947 427.244 443.947 427.241C443.947 427.237 443.947 427.234 443.947 427.231C443.947 427.228 443.947 427.224 443.947 427.221C443.947 427.218 443.947 427.215 443.947 427.212C443.947 427.209 443.947 427.207 443.947 427.204C443.947 427.201 443.947 427.198 443.947 427.196C443.947 427.193 443.947 427.19 443.947 427.188C443.947 427.186 443.947 427.183 443.947 427.181C443.947 427.178 443.947 427.176 443.947 427.174C443.947 427.172 443.947 427.17 443.947 427.168C443.947 427.166 443.947 427.164 443.947 427.162C443.947 427.16 443.947 427.158 443.947 427.157C443.947 427.155 443.947 427.153 443.947 427.152C443.947 427.15 443.947 427.149 443.947 427.147C443.947 427.146 443.947 427.144 443.947 427.143C443.947 427.142 443.947 427.141 443.947 427.14C443.947 427.139 443.947 427.138 443.947 427.137C443.947 427.136 443.947 427.135 443.947 427.134C443.947 427.133 443.947 427.132 443.947 427.132C443.947 427.131 443.947 427.131 443.947 427.13C443.947 427.13 443.947 427.129 443.947 427.129C443.947 427.129 443.947 427.128 443.947 427.128C443.947 427.128 443.947 427.128 442.447 427.128C440.947 427.128 440.947 427.128 440.947 427.128C440.947 427.128 440.947 427.129 440.947 427.129C440.947 427.129 440.947 427.13 440.947 427.13C440.947 427.131 440.947 427.131 440.947 427.132C440.947 427.132 440.947 427.133 440.947 427.134C440.947 427.135 440.947 427.136 440.947 427.137C440.947 427.138 440.947 427.139 440.947 427.14C440.947 427.141 440.947 427.142 440.947 427.143C440.947 427.144 440.947 427.146 440.947 427.147C440.947 427.149 440.947 427.15 440.947 427.152C440.947 427.153 440.947 427.155 440.947 427.157C440.947 427.158 440.947 427.16 440.947 427.162C440.947 427.164 440.947 427.166 440.947 427.168C440.947 427.17 440.947 427.172 440.947 427.174C440.947 427.176 440.947 427.178 440.947 427.181C440.947 427.183 440.947 427.186 440.947 427.188C440.947 427.19 440.947 427.193 440.947 427.196C440.947 427.198 440.947 427.201 440.947 427.204C440.947 427.207 440.947 427.209 440.947 427.212C440.947 427.215 440.947 427.218 440.947 427.221C440.947 427.224 440.947 427.228 440.947 427.231C440.947 427.234 440.947 427.237 440.947 427.241C440.947 427.244 440.947 427.247 440.947 427.251C440.947 427.254 440.947 427.258 440.947 427.262C440.947 427.265 440.947 427.269 440.947 427.273C440.947 427.277 440.947 427.281 440.947 427.285C440.947 427.289 440.947 427.293 440.947 427.297C440.947 427.301 440.947 427.305 440.947 427.309C440.947 427.313 440.947 427.318 440.947 427.322C440.947 427.326 440.947 427.331 440.947 427.335C440.947 427.34 440.947 427.345 440.947 427.349C440.947 427.354 440.947 427.359 440.947 427.363C440.947 427.368 440.947 427.373 440.947 427.378C440.947 427.383 440.947 427.388 440.947 427.393C440.947 427.398 440.947 427.403 440.947 427.409C440.947 427.414 440.947 427.419 440.947 427.425C440.947 427.43 440.947 427.435 440.947 427.441C440.947 427.446 440.947 427.452 440.947 427.458C440.947 427.463 440.947 427.469 440.947 427.475C440.947 427.481 440.947 427.486 440.947 427.492C440.947 427.498 440.947 427.504 440.947 427.51C440.947 427.516 440.947 427.523 440.947 427.529C440.947 427.535 440.947 427.541 440.947 427.548C440.947 427.554 440.947 427.56 440.947 427.567C440.947 427.573 440.947 427.58 440.947 427.586C440.947 427.593 440.947 427.6 440.947 427.606C440.947 427.613 440.947 427.62 440.947 427.627C440.947 427.634 440.947 427.641 440.947 427.648C440.947 427.655 440.947 427.662 440.947 427.669C440.947 427.676 440.947 427.683 440.947 427.691C440.947 427.698 440.947 427.705 440.947 427.713C440.947 427.72 440.947 427.727 440.947 427.735C440.947 427.743 440.947 427.75 440.947 427.758C440.947 427.765 440.947 427.773 440.947 427.781C440.947 427.789 440.947 427.797 440.947 427.805C440.947 427.812 440.947 427.82 440.947 427.829C440.947 427.837 440.947 427.845 440.947 427.853C440.947 427.861 440.947 427.869 440.947 427.878C440.947 427.886 440.947 427.894 440.947 427.903C440.947 427.911 440.947 427.92 440.947 427.928C440.947 427.937 440.947 427.945 440.947 427.954C440.947 427.963 440.947 427.972 440.947 427.98C440.947 427.989 440.947 427.998 440.947 428.007C440.947 428.016 440.947 428.025 440.947 428.034C440.947 428.043 440.947 428.052 440.947 428.061C440.947 428.071 440.947 428.08 440.947 428.089C440.947 428.098 440.947 428.108 440.947 428.117C440.947 428.127 440.947 428.136 440.947 428.146C440.947 428.155 440.947 428.165 440.947 428.175C440.947 428.184 440.947 428.194 440.947 428.204C440.947 428.214 440.947 428.223 440.947 428.233C440.947 428.243 440.947 428.253 440.947 428.263C440.947 428.273 440.947 428.283 440.947 428.294C440.947 428.304 440.947 428.314 440.947 428.324C440.947 428.335 440.947 428.345 440.947 428.355C440.947 428.366 440.947 428.376 440.947 428.387C440.947 428.397 440.947 428.408 440.947 428.418C440.947 428.429 440.947 428.44 440.947 428.45C440.947 428.461 440.947 428.472 440.947 428.483C440.947 428.494 440.947 428.505 440.947 428.516C440.947 428.527 440.947 428.538 440.947 428.549C440.947 428.56 440.947 428.571 440.947 428.582C440.947 428.593 440.947 428.605 440.947 428.616C440.947 428.627 440.947 428.639 440.947 428.65C440.947 428.662 440.947 428.673 440.947 428.685C440.947 428.696 440.947 428.708 440.947 428.719C440.947 428.731 440.947 428.743 440.947 428.755C440.947 428.766 440.947 428.778 440.947 428.79C440.947 428.802 440.947 428.814 440.947 428.826C440.947 428.838 440.947 428.85 440.947 428.862C440.947 428.874 440.947 428.886 440.947 428.899C440.947 428.911 440.947 428.923 440.947 428.935C440.947 428.948 440.947 428.96 440.947 428.973C440.947 428.985 440.947 428.997 440.947 429.01C440.947 429.023 440.947 429.035 440.947 429.048C440.947 429.06 440.947 429.073 440.947 429.086C440.947 429.099 440.947 429.111 440.947 429.124C440.947 429.137 440.947 429.15 440.947 429.163C440.947 429.176 440.947 429.189 440.947 429.202C440.947 429.215 440.947 429.228 440.947 429.242C440.947 429.255 440.947 429.268 440.947 429.281C440.947 429.294 440.947 429.308 440.947 429.321C440.947 429.335 440.947 429.348 440.947 429.362C440.947 429.375 440.947 429.389 440.947 429.402C440.947 429.416 440.947 429.429 440.947 429.443C440.947 429.457 440.947 429.471 440.947 429.484C440.947 429.498 440.947 429.512 440.947 429.526C440.947 429.54 440.947 429.554 440.947 429.568C440.947 429.582 440.947 429.596 440.947 429.61C440.947 429.624 440.947 429.638 440.947 429.652C440.947 429.666 440.947 429.681 440.947 429.695C440.947 429.709 440.947 429.724 440.947 429.738C440.947 429.752 440.947 429.767 440.947 429.781C440.947 429.796 440.947 429.81 440.947 429.825C440.947 429.84 440.947 429.854 440.947 429.869C440.947 429.884 440.947 429.898 440.947 429.913C440.947 429.928 440.947 429.943 440.947 429.958C440.947 429.972 440.947 429.987 440.947 430.002C440.947 430.017 440.947 430.032 440.947 430.047C440.947 430.063 440.947 430.078 440.947 430.093C440.947 430.108 440.947 430.123 440.947 430.138C440.947 430.154 440.947 430.169 440.947 430.184C440.947 430.2 440.947 430.215 440.947 430.23C440.947 430.246 440.947 430.261 440.947 430.277C440.947 430.292 440.947 430.308 440.947 430.324C440.947 430.339 440.947 430.355 440.947 430.371C440.947 430.386 440.947 430.402 440.947 430.418C440.947 430.434 440.947 430.45 440.947 430.465C440.947 430.481 440.947 430.497 440.947 430.513C440.947 430.529 440.947 430.545 440.947 430.561C440.947 430.577 440.947 430.594 440.947 430.61C440.947 430.626 440.947 430.642 440.947 430.658C440.947 430.675 440.947 430.691 440.947 430.707C440.947 430.723 440.947 430.74 440.947 430.756C440.947 430.773 440.947 430.789 440.947 430.806C440.947 430.822 440.947 430.839 440.947 430.855C440.947 430.872 440.947 430.888 440.947 430.905C440.947 430.922 440.947 430.939 440.947 430.955C440.947 430.972 440.947 430.989 440.947 431.006C440.947 431.023 440.947 431.039 440.947 431.056C440.947 431.073 440.947 431.09 440.947 431.107C440.947 431.124 440.947 431.141 440.947 431.158C440.947 431.175 440.947 431.193 440.947 431.21C440.947 431.227 440.947 431.244 440.947 431.261C440.947 431.279 440.947 431.296 440.947 431.313C440.947 431.331 440.947 431.348 440.947 431.365C440.947 431.383 440.947 431.4 440.947 431.418C440.947 431.435 440.947 431.453 440.947 431.47C440.947 431.488 440.947 431.505 440.947 431.523C440.947 431.541 440.947 431.558 440.947 431.576C440.947 431.594 440.947 431.612 440.947 431.629C440.947 431.647 440.947 431.665 440.947 431.683C440.947 431.701 440.947 431.719 440.947 431.737C440.947 431.755 440.947 431.773 440.947 431.791C440.947 431.809 440.947 431.827 440.947 431.845C440.947 431.863 440.947 431.881 440.947 431.899C440.947 431.917 440.947 431.936 440.947 431.954C440.947 431.972 440.947 431.99 440.947 432.009C440.947 432.027 440.947 432.045 440.947 432.064C440.947 432.082 440.947 432.101 440.947 432.119C440.947 432.137 440.947 432.156 440.947 432.174C440.947 432.193 440.947 432.212 440.947 432.23C440.947 432.249 440.947 432.267 440.947 432.286C440.947 432.305 440.947 432.324 440.947 432.342C440.947 432.361 440.947 432.38 440.947 432.399C440.947 432.417 440.947 432.436 440.947 432.455C440.947 432.474 440.947 432.493 440.947 432.512C440.947 432.531 440.947 432.55 440.947 432.569C440.947 432.588 440.947 432.607 440.947 432.626C440.947 432.645 440.947 432.664 440.947 432.683C440.947 432.703 440.947 432.722 440.947 432.741C440.947 432.76 440.947 432.779 440.947 432.799C440.947 432.818 440.947 432.837 440.947 432.857C440.947 432.876 440.947 432.895 440.947 432.915C440.947 432.934 440.947 432.954 440.947 432.973C440.947 432.993 440.947 433.012 440.947 433.032C440.947 433.051 440.947 433.071 440.947 433.09C440.947 433.11 440.947 433.13 440.947 433.149C440.947 433.169 440.947 433.189 440.947 433.208C440.947 433.228 440.947 433.248 440.947 433.268C440.947 433.287 440.947 433.307 440.947 433.327C440.947 433.347 440.947 433.367 440.947 433.387C440.947 433.407 440.947 433.427 440.947 433.447C440.947 433.467 440.947 433.487 440.947 433.507C440.947 433.527 440.947 433.547 440.947 433.567C440.947 433.587 440.947 433.607 440.947 433.627C440.947 433.647 440.947 433.667 440.947 433.688C440.947 433.708 440.947 433.728 440.947 433.748C440.947 433.769 440.947 433.789 440.947 433.809C440.947 433.83 440.947 433.85 440.947 433.87C440.947 433.891 440.947 433.911 440.947 433.931C440.947 433.952 440.947 433.972 440.947 433.993C440.947 434.013 440.947 434.034 440.947 434.054C440.947 434.075 440.947 434.095 440.947 434.116C440.947 434.137 440.947 434.157 440.947 434.178C440.947 434.198 440.947 434.219 440.947 434.24C440.947 434.26 440.947 434.281 440.947 434.302C440.947 434.323 440.947 434.343 440.947 434.364C440.947 434.385 440.947 434.406 440.947 434.427C440.947 434.448 440.947 434.468 440.947 434.489C440.947 434.51 440.947 434.531 440.947 434.552C440.947 434.573 440.947 434.594 440.947 434.615C440.947 434.636 440.947 434.657 440.947 434.678C440.947 434.699 440.947 434.72 440.947 434.741C440.947 434.762 440.947 434.783 440.947 434.805C440.947 434.826 440.947 434.847 440.947 434.868C440.947 434.889 440.947 434.91 440.947 434.932C440.947 434.953 440.947 434.974 440.947 434.995C440.947 435.017 440.947 435.038 440.947 435.059C440.947 435.081 440.947 435.102 440.947 435.123C440.947 435.145 440.947 435.166 440.947 435.188C440.947 435.209 440.947 435.23 440.947 435.252C440.947 435.273 440.947 435.295 440.947 435.316C440.947 435.338 440.947 435.359 440.947 435.381C440.947 435.402 440.947 435.424 440.947 435.446C440.947 435.467 440.947 435.489 440.947 435.51C440.947 435.532 440.947 435.554 440.947 435.575C440.947 435.597 440.947 435.619 440.947 435.64C440.947 435.662 440.947 435.684 440.947 435.705C440.947 435.727 440.947 435.749 440.947 435.771C440.947 435.793 440.947 435.814 440.947 435.836C440.947 435.858 440.947 435.88 440.947 435.902C440.947 435.924 440.947 435.945 440.947 435.967C440.947 435.989 440.947 436.011 440.947 436.033C440.947 436.055 440.947 436.077 440.947 436.099C440.947 436.121 440.947 436.143 440.947 436.165C440.947 436.187 440.947 436.209 440.947 436.231C440.947 436.253 440.947 436.275 440.947 436.297C440.947 436.319 440.947 436.341 440.947 436.363C440.947 436.386 440.947 436.408 440.947 436.43C440.947 436.452 440.947 436.474 440.947 436.496C440.947 436.519 440.947 436.541 440.947 436.563C440.947 436.585 440.947 436.607 440.947 436.63C440.947 436.652 440.947 436.674 440.947 436.696C440.947 436.719 440.947 436.741 440.947 436.763C440.947 436.786 440.947 436.808 440.947 436.83C440.947 436.853 440.947 436.875 440.947 436.897C440.947 436.92 440.947 436.942 440.947 436.964C440.947 436.987 440.947 437.009 440.947 437.032C440.947 437.054 440.947 437.076 440.947 437.099C440.947 437.121 440.947 437.144 440.947 437.166C440.947 437.189 440.947 437.211 440.947 437.234C440.947 437.256 440.947 437.279 440.947 437.301C440.947 437.324 440.947 437.346 440.947 437.369C440.947 437.392 440.947 437.414 440.947 437.437C440.947 437.459 440.947 437.482 440.947 437.505C440.947 437.527 440.947 437.55 440.947 437.572C440.947 437.595 440.947 437.618 440.947 437.64C440.947 437.663 440.947 437.686 440.947 437.708C440.947 437.731 440.947 437.754 440.947 437.776C440.947 437.799 440.947 437.822 440.947 437.845C440.947 437.867 440.947 437.89 440.947 437.913C440.947 437.936 440.947 437.958 440.947 437.981C440.947 438.004 440.947 438.027 440.947 438.049C440.947 438.072 440.947 438.095 440.947 438.118C440.947 438.141 440.947 438.163 440.947 438.186C440.947 438.209 440.947 438.232 440.947 438.255C440.947 438.278 440.947 438.301 440.947 438.323C440.947 438.346 440.947 438.369 440.947 438.392C440.947 438.415 440.947 438.438 440.947 438.461C440.947 438.484 440.947 438.507 440.947 438.529C440.947 438.552 440.947 438.575 440.947 438.598C440.947 438.621 440.947 438.644 440.947 438.667C440.947 438.69 440.947 438.713 440.947 438.736C440.947 438.759 440.947 438.782 440.947 438.805C440.947 438.828 440.947 438.851 440.947 438.874C440.947 438.897 440.947 438.92 440.947 438.943C440.947 438.966 440.947 438.989 440.947 439.012C440.947 439.035 440.947 439.058 440.947 439.081C440.947 439.104 440.947 439.127 440.947 439.15C440.947 439.173 440.947 439.196 440.947 439.219C440.947 439.242 440.947 439.265 440.947 439.288C440.947 439.311 440.947 439.335 440.947 439.358C440.947 439.381 440.947 439.404 440.947 439.427C440.947 439.45 440.947 439.473 440.947 439.496C440.947 439.519 440.947 439.542 440.947 439.565C440.947 439.589 440.947 439.612 440.947 439.635C440.947 439.658 440.947 439.681 440.947 439.704C440.947 439.727 440.947 439.75 440.947 439.774C440.947 439.797 440.947 439.82 440.947 439.843C440.947 439.866 440.947 439.889 440.947 439.912C440.947 439.935 440.947 439.959 440.947 439.982C440.947 440.005 440.947 440.028 440.947 440.051C440.947 440.074 440.947 440.098 440.947 440.121C440.947 440.144 440.947 440.167 440.947 440.19C440.947 440.213 440.947 440.236 440.947 440.26C440.947 440.283 440.947 440.306 440.947 440.329C440.947 440.352 440.947 440.375 440.947 440.399C440.947 440.422 440.947 440.445 440.947 440.468C440.947 440.491 440.947 440.514 440.947 440.538C440.947 440.561 440.947 440.584 440.947 440.607C440.947 440.63 440.947 440.653 440.947 440.677C440.947 440.7 440.947 440.723 440.947 440.746C440.947 440.769 440.947 440.792 440.947 440.816C440.947 440.839 440.947 440.862 440.947 440.885C440.947 440.908 440.947 440.931 440.947 440.955C440.947 440.978 440.947 441.001 440.947 441.024C440.947 441.047 440.947 441.07 440.947 441.094C440.947 441.117 440.947 441.14 440.947 441.163C440.947 441.186 440.947 441.209 440.947 441.233C440.947 441.256 440.947 441.279 440.947 441.302C440.947 441.325 440.947 441.348 440.947 441.371C440.947 441.395 440.947 441.418 440.947 441.441C440.947 441.464 440.947 441.487 440.947 441.51C440.947 441.533 440.947 441.556 440.947 441.58C440.947 441.603 440.947 441.626 440.947 441.649C440.947 441.672 440.947 441.695 440.947 441.718C440.947 441.741 440.947 441.764 440.947 441.787C440.947 441.811 440.947 441.834 440.947 441.857C440.947 441.88 440.947 441.903 440.947 441.926C440.947 441.949 440.947 441.972 440.947 441.995C440.947 442.018 440.947 442.041 440.947 442.064C440.947 442.087 440.947 442.11 440.947 442.134C440.947 442.157 440.947 442.18 440.947 442.203C440.947 442.226 440.947 442.249 440.947 442.272C440.947 442.295 440.947 442.318 440.947 442.341C440.947 442.364 440.947 442.387 440.947 442.41C440.947 442.433 440.947 442.456 440.947 442.479C440.947 442.502 440.947 442.525 440.947 442.548C440.947 442.57 440.947 442.593 440.947 442.616C440.947 442.639 440.947 442.662 440.947 442.685C440.947 442.708 440.947 442.731 440.947 442.754C440.947 442.777 440.947 442.8 440.947 442.823C440.947 442.846 440.947 442.868 440.947 442.891C440.947 442.914 440.947 442.937 440.947 442.96C440.947 442.983 440.947 443.006 440.947 443.028C440.947 443.051 440.947 443.074 440.947 443.097C440.947 443.12 440.947 443.143 440.947 443.165C440.947 443.188 440.947 443.211 440.947 443.234C440.947 443.257 440.947 443.279 440.947 443.302C440.947 443.325 440.947 443.348 440.947 443.37C440.947 443.393 440.947 443.416 440.947 443.438C440.947 443.461 440.947 443.484 440.947 443.507C440.947 443.529 440.947 443.552 440.947 443.575C440.947 443.597 440.947 443.62 440.947 443.643C440.947 443.665 440.947 443.688 440.947 443.711C440.947 443.733 440.947 443.756 440.947 443.778C440.947 443.801 440.947 443.824 440.947 443.846C440.947 443.869 440.947 443.891 440.947 443.914C440.947 443.936 440.947 443.959 440.947 443.981C440.947 444.004 440.947 444.026 440.947 444.049C440.947 444.071 440.947 444.094 440.947 444.116C440.947 444.139 440.947 444.161 440.947 444.184C440.947 444.206 440.947 444.229 440.947 444.251C440.947 444.273 440.947 444.296 440.947 444.318C440.947 444.341 440.947 444.363 440.947 444.385C440.947 444.408 440.947 444.43 440.947 444.452C440.947 444.475 440.947 444.497 440.947 444.519C440.947 444.541 440.947 444.564 440.947 444.586C440.947 444.608 440.947 444.631 440.947 444.653C440.947 444.675 440.947 444.697 440.947 444.719C440.947 444.742 440.947 444.764 440.947 444.786C440.947 444.808 440.947 444.83 440.947 444.852C440.947 444.874 440.947 444.897 440.947 444.919C440.947 444.941 440.947 444.963 440.947 444.985C440.947 445.007 440.947 445.029 440.947 445.051C440.947 445.073 440.947 445.095 440.947 445.117C440.947 445.139 440.947 445.161 440.947 445.183C440.947 445.205 440.947 445.227 440.947 445.249C440.947 445.271 440.947 445.293 440.947 445.314C440.947 445.336 440.947 445.358 440.947 445.38C440.947 445.402 440.947 445.424 440.947 445.445C440.947 445.467 440.947 445.489 440.947 445.511C440.947 445.533 440.947 445.554 440.947 445.576C440.947 445.598 440.947 445.619 440.947 445.641C440.947 445.663 440.947 445.685 440.947 445.706C440.947 445.728 440.947 445.749 440.947 445.771C440.947 445.793 440.947 445.814 440.947 445.836C440.947 445.857 440.947 445.879 440.947 445.9C440.947 445.922 440.947 445.943 440.947 445.965C440.947 445.986 440.947 446.008 440.947 446.029C440.947 446.051 440.947 446.072 440.947 446.093C440.947 446.115 440.947 446.136 440.947 446.158C440.947 446.179 440.947 446.2 440.947 446.222C440.947 446.243 440.947 446.264 440.947 446.285C440.947 446.307 440.947 446.328 440.947 446.349C440.947 446.37 440.947 446.391 440.947 446.413C440.947 446.434 440.947 446.455 440.947 446.476C440.947 446.497 440.947 446.518 440.947 446.539C440.947 446.56 440.947 446.581 440.947 446.602C440.947 446.623 440.947 446.644 440.947 446.665C440.947 446.686 440.947 446.707 440.947 446.728C440.947 446.749 440.947 446.77 440.947 446.791C440.947 446.812 440.947 446.833 440.947 446.853C440.947 446.874 440.947 446.895 440.947 446.916C440.947 446.937 440.947 446.957 440.947 446.978C440.947 446.999 440.947 447.019 440.947 447.04C440.947 447.061 440.947 447.081 440.947 447.102C440.947 447.123 440.947 447.143 440.947 447.164C440.947 447.184 440.947 447.205 440.947 447.225C440.947 447.246 440.947 447.266 440.947 447.287C440.947 447.307 440.947 447.328 440.947 447.348C440.947 447.368 440.947 447.389 440.947 447.409C440.947 447.43 440.947 447.45 440.947 447.47C440.947 447.49 440.947 447.511 440.947 447.531C440.947 447.551 440.947 447.571 440.947 447.592C440.947 447.612 440.947 447.632 440.947 447.652C440.947 447.672 440.947 447.692 440.947 447.712C440.947 447.732 440.947 447.752 440.947 447.772C440.947 447.792 440.947 447.812 440.947 447.832C440.947 447.852 440.947 447.872 440.947 447.892C440.947 447.912 440.947 447.932 440.947 447.951C440.947 447.971 440.947 447.991 440.947 448.011C440.947 448.031 440.947 448.05 440.947 448.07C440.947 448.09 440.947 448.109 440.947 448.129C440.947 448.149 440.947 448.168 440.947 448.188C440.947 448.207 440.947 448.227 440.947 448.246C440.947 448.266 440.947 448.285 440.947 448.305C440.947 448.324 440.947 448.344 440.947 448.363C440.947 448.382 440.947 448.402 440.947 448.421C440.947 448.44 440.947 448.46 440.947 448.479C440.947 448.498 440.947 448.517 440.947 448.537C440.947 448.556 440.947 448.575 440.947 448.594C440.947 448.613 440.947 448.632 440.947 448.651C440.947 448.67 440.947 448.689 440.947 448.708C440.947 448.727 440.947 448.746 440.947 448.765C440.947 448.784 440.947 448.803 440.947 448.822C440.947 448.841 440.947 448.86 440.947 448.878C440.947 448.897 440.947 448.916 440.947 448.935C440.947 448.953 440.947 448.972 440.947 448.991C440.947 449.009 440.947 449.028 440.947 449.046C440.947 449.065 440.947 449.084 440.947 449.102C440.947 449.121 440.947 449.139 440.947 449.157C440.947 449.176 440.947 449.194 440.947 449.213C440.947 449.231 440.947 449.249 440.947 449.268C440.947 449.286 440.947 449.304 440.947 449.322C440.947 449.341 440.947 449.359 440.947 449.377C440.947 449.395 440.947 449.413 440.947 449.431C440.947 449.449 440.947 449.467 440.947 449.485C440.947 449.503 440.947 449.521 440.947 449.539C440.947 449.557 440.947 449.575 440.947 449.593C440.947 449.611 440.947 449.628 440.947 449.646C440.947 449.664 440.947 449.682 440.947 449.699C440.947 449.717 440.947 449.735 440.947 449.752C440.947 449.77 440.947 449.787 440.947 449.805C440.947 449.822 440.947 449.84 440.947 449.857C440.947 449.875 440.947 449.892 440.947 449.91C440.947 449.927 440.947 449.944 440.947 449.961C440.947 449.979 440.947 449.996 440.947 450.013C440.947 450.03 440.947 450.048 440.947 450.065C440.947 450.082 440.947 450.099 440.947 450.116C440.947 450.133 440.947 450.15 440.947 450.167C440.947 450.184 440.947 450.201 440.947 450.218C440.947 450.235 440.947 450.251 440.947 450.268C440.947 450.285 440.947 450.302 440.947 450.319C440.947 450.335 440.947 450.352 440.947 450.369C440.947 450.385 440.947 450.402 440.947 450.418C440.947 450.435 440.947 450.451 440.947 450.468C440.947 450.484 440.947 450.501 440.947 450.517C440.947 450.533 440.947 450.55 440.947 450.566C440.947 450.582 440.947 450.599 440.947 450.615C440.947 450.631 440.947 450.647 440.947 450.663C440.947 450.679 440.947 450.695 440.947 450.711C440.947 450.727 440.947 450.743 440.947 450.759C440.947 450.775 440.947 450.791 440.947 450.807C440.947 450.823 440.947 450.839 440.947 450.854C440.947 450.87 440.947 450.886 440.947 450.902C440.947 450.917 440.947 450.933 440.947 450.948C440.947 450.964 440.947 450.979 440.947 450.995C440.947 451.01 440.947 451.026 440.947 451.041C440.947 451.057 440.947 451.072 440.947 451.087C440.947 451.103 440.947 451.118 440.947 451.133C440.947 451.148 440.947 451.163 440.947 451.179C440.947 451.194 440.947 451.209 440.947 451.224C440.947 451.239 440.947 451.254 440.947 451.269C440.947 451.284 440.947 451.298 440.947 451.313C440.947 451.328 440.947 451.343 440.947 451.358C440.947 451.372 440.947 451.387 440.947 451.402C440.947 451.416 440.947 451.431 440.947 451.445C440.947 451.46 440.947 451.474 440.947 451.489C440.947 451.503 440.947 451.518 440.947 451.532C440.947 451.546 440.947 451.561 440.947 451.575C440.947 451.589 440.947 451.603 440.947 451.618C440.947 451.632 440.947 451.646 440.947 451.66C440.947 451.674 440.947 451.688 440.947 451.702C440.947 451.716 440.947 451.73 440.947 451.743C440.947 451.757 440.947 451.771 440.947 451.785C440.947 451.799 440.947 451.812 440.947 451.826C440.947 451.84 440.947 451.853 440.947 451.867C440.947 451.88 440.947 451.894 440.947 451.907C440.947 451.921 440.947 451.934 440.947 451.947C440.947 451.961 440.947 451.974 440.947 451.987C440.947 452 440.947 452.014 440.947 452.027C440.947 452.04 440.947 452.053 440.947 452.066C440.947 452.079 440.947 452.092 440.947 452.105C440.947 452.118 440.947 452.131 440.947 452.143C440.947 452.156 440.947 452.169 440.947 452.182C440.947 452.194 440.947 452.207 440.947 452.22C440.947 452.232 440.947 452.245 440.947 452.257C440.947 452.27 440.947 452.282 440.947 452.295C440.947 452.307 440.947 452.319 440.947 452.332C440.947 452.344 440.947 452.356 440.947 452.368C440.947 452.38 440.947 452.392 440.947 452.404C440.947 452.417 440.947 452.429 440.947 452.44C440.947 452.452 440.947 452.464 440.947 452.476C440.947 452.488 440.947 452.5 440.947 452.511C440.947 452.523 440.947 452.535 440.947 452.546C440.947 452.558 440.947 452.57 440.947 452.581C440.947 452.593 440.947 452.604 440.947 452.615C440.947 452.627 440.947 452.638 440.947 452.649C440.947 452.661 440.947 452.672 440.947 452.683C440.947 452.694 440.947 452.705 440.947 452.716C440.947 452.727 440.947 452.738 440.947 452.749C440.947 452.76 440.947 452.771 440.947 452.782C440.947 452.793 440.947 452.803 440.947 452.814C440.947 452.825 440.947 452.835 440.947 452.846C440.947 452.856 440.947 452.867 440.947 452.877C440.947 452.888 440.947 452.898 440.947 452.909C440.947 452.919 440.947 452.929 440.947 452.939C440.947 452.95 440.947 452.96 440.947 452.97C440.947 452.98 440.947 452.99 440.947 453C440.947 453.01 440.947 453.02 440.947 453.03H443.947ZM305.401 439.455C301.52 438.213 297.659 437.01 294.769 436.118C293.324 435.672 292.122 435.304 291.28 435.047C290.859 434.918 290.529 434.817 290.303 434.749C290.191 434.714 290.104 434.688 290.046 434.67C290.017 434.662 289.994 434.655 289.98 434.65C289.972 434.648 289.967 434.646 289.963 434.645C289.961 434.645 289.959 434.644 289.958 434.644C289.958 434.644 289.958 434.644 289.957 434.644C289.957 434.644 289.957 434.644 289.957 434.644C289.957 434.644 289.957 434.644 289.522 436.079C289.087 437.515 289.087 437.515 289.087 437.515C289.087 437.515 289.087 437.515 289.087 437.515C289.087 437.515 289.088 437.515 289.088 437.515C289.089 437.515 289.091 437.516 289.092 437.516C289.096 437.517 289.102 437.519 289.109 437.521C289.123 437.526 289.145 437.532 289.174 437.541C289.232 437.559 289.318 437.585 289.43 437.619C289.655 437.687 289.984 437.787 290.404 437.916C291.243 438.172 292.443 438.54 293.884 438.985C296.768 439.875 300.619 441.075 304.487 442.313L305.401 439.455ZM289.522 436.079C288.024 436.165 288.024 436.165 288.024 436.165C288.024 436.165 288.024 436.165 288.024 436.166C288.024 436.166 288.025 436.167 288.025 436.168C288.025 436.17 288.025 436.173 288.025 436.178C288.026 436.186 288.026 436.199 288.027 436.216C288.029 436.251 288.032 436.302 288.036 436.368C288.044 436.502 288.055 436.698 288.069 436.95C288.097 437.454 288.137 438.18 288.186 439.068C288.283 440.844 288.412 443.267 288.541 445.856C288.8 451.054 289.057 456.863 289.057 459.484L292.057 459.484C292.057 456.771 291.795 450.878 291.537 445.707C291.408 443.111 291.278 440.683 291.181 438.904C291.133 438.015 291.092 437.287 291.064 436.782C291.05 436.529 291.039 436.332 291.031 436.198C291.027 436.131 291.024 436.08 291.022 436.046C291.022 436.028 291.021 436.015 291.02 436.007C291.02 436.002 291.02 435.999 291.02 435.997C291.02 435.996 291.02 435.995 291.02 435.994C291.02 435.994 291.02 435.994 291.02 435.994C291.02 435.993 291.02 435.993 289.522 436.079ZM289.057 459.484C289.057 462.08 288.783 465.803 287.917 468.876C287.483 470.417 286.928 471.691 286.263 472.572C285.615 473.43 284.944 473.82 284.216 473.876L284.443 476.867C286.273 476.728 287.658 475.703 288.658 474.379C289.639 473.078 290.322 471.405 290.805 469.689C291.774 466.248 292.057 462.221 292.057 459.484L289.057 459.484ZM284.216 473.876C283.78 473.909 283.068 473.607 282.126 472.272C281.239 471.016 280.436 469.235 279.754 467.337C279.08 465.459 278.556 463.558 278.2 462.118C278.023 461.401 277.888 460.802 277.798 460.385C277.753 460.177 277.719 460.014 277.697 459.904C277.686 459.85 277.678 459.808 277.672 459.781C277.67 459.767 277.668 459.757 277.667 459.751C277.666 459.748 277.666 459.746 277.665 459.744C277.665 459.744 277.665 459.743 277.665 459.743C277.665 459.743 277.665 459.743 277.665 459.743C277.665 459.743 277.665 459.743 276.192 460.026C274.719 460.309 274.719 460.31 274.719 460.31C274.719 460.31 274.719 460.311 274.719 460.311C274.719 460.312 274.72 460.313 274.72 460.314C274.72 460.317 274.721 460.32 274.722 460.324C274.724 460.333 274.726 460.346 274.729 460.362C274.736 460.394 274.745 460.441 274.757 460.502C274.782 460.622 274.818 460.797 274.866 461.018C274.961 461.46 275.102 462.088 275.288 462.839C275.659 464.337 276.21 466.344 276.931 468.351C277.644 470.338 278.556 472.417 279.675 474.002C280.738 475.508 282.322 477.028 284.443 476.867L284.216 473.876ZM289.934 434.637L275.829 430.607L275.005 433.491L289.11 437.521L289.934 434.637ZM275.417 432.049C275.842 430.61 275.842 430.61 275.842 430.61C275.842 430.61 275.841 430.61 275.841 430.61C275.841 430.61 275.84 430.61 275.839 430.61C275.838 430.609 275.836 430.609 275.833 430.608C275.827 430.606 275.818 430.604 275.807 430.6C275.785 430.594 275.751 430.584 275.708 430.571C275.621 430.546 275.493 430.508 275.328 430.46C274.999 430.364 274.523 430.227 273.933 430.058C272.753 429.721 271.118 429.262 269.298 428.77C265.677 427.792 261.256 426.67 258.233 426.153L257.727 429.11C260.594 429.601 264.891 430.687 268.516 431.666C270.319 432.153 271.939 432.609 273.109 432.943C273.694 433.11 274.165 433.246 274.49 433.341C274.653 433.388 274.779 433.425 274.864 433.45C274.906 433.462 274.939 433.472 274.96 433.478C274.971 433.481 274.979 433.484 274.985 433.485C274.987 433.486 274.989 433.487 274.99 433.487C274.991 433.487 274.992 433.487 274.992 433.488C274.992 433.488 274.992 433.488 274.992 433.488C274.992 433.488 274.992 433.488 275.417 432.049ZM276.192 460.026C277.675 459.8 277.675 459.8 277.675 459.8C277.675 459.8 277.675 459.8 277.675 459.8C277.675 459.799 277.675 459.799 277.675 459.798C277.674 459.796 277.674 459.793 277.673 459.789C277.672 459.781 277.67 459.768 277.668 459.751C277.663 459.718 277.655 459.667 277.645 459.6C277.625 459.465 277.597 459.266 277.561 459.007C277.489 458.491 277.388 457.741 277.273 456.81C277.043 454.947 276.757 452.366 276.535 449.492C276.086 443.687 275.914 436.889 276.884 432.363L273.95 431.735C272.88 436.729 273.095 443.919 273.544 449.723C273.77 452.654 274.061 455.282 274.295 457.177C274.412 458.126 274.515 458.892 274.589 459.422C274.626 459.687 274.656 459.893 274.677 460.034C274.687 460.104 274.695 460.158 274.701 460.195C274.703 460.213 274.705 460.227 274.707 460.237C274.708 460.242 274.708 460.246 274.709 460.248C274.709 460.249 274.709 460.25 274.709 460.251C274.709 460.252 274.709 460.252 274.709 460.252C274.709 460.252 274.709 460.253 276.192 460.026ZM443.947 453.03V427.128H440.947V453.03H443.947Z" fill="black"/>
</svg>
