<svg width="701" height="901" viewBox="0 0 701 901" fill="none" xmlns="http://www.w3.org/2000/svg">
<path d="M429.597 436.501C425.657 439.136 422.981 441.499 423.458 444.542C423.934 447.585 430.93 444.029 434.186 441.779C437.442 439.529 439.125 437.684 438.885 435.676C438.646 433.668 433.537 433.866 429.597 436.501Z" fill="white"/>
<path d="M413.531 406.423C411.28 407.781 408.509 408.14 408.523 406.927C408.537 405.714 410.591 403.846 412.19 402.946C413.789 402.046 416.374 400.456 419.364 399.824C422.354 399.191 424.58 398.821 426.73 398.865C428.88 398.909 433.338 399.511 435.093 400.016C436.848 400.52 441.038 401.628 440.08 403.775C439.123 405.922 432.071 402.597 428.188 402.663C424.304 402.729 423.36 402.946 420.394 403.456C417.427 403.966 415.783 405.064 413.531 406.423Z" fill="black"/>
<path d="M315.069 407.115C313.787 406.749 313.234 405.971 311.453 405.331C309.673 404.69 308.535 404.105 305.824 403.82C303.112 403.535 297.036 403.317 294.702 403.82C292.368 404.324 290.666 406.016 287.791 406.718C284.917 407.42 284.835 405.412 285.912 404.612C286.989 403.812 292.41 401.353 294.962 400.892C297.514 400.431 302.64 400.329 305.097 400.635C307.555 400.94 312 402.062 312.959 402.413C313.918 402.764 319.183 405.15 319.159 406.718C319.136 408.286 316.35 407.482 315.069 407.115Z" fill="black"/>
<path d="M467.12 445.83C467.714 447.376 467.852 451.235 467.852 451.235C467.852 451.235 474.57 449.8 474.663 447.808C474.757 445.816 467.12 445.83 467.12 445.83Z" fill="black"/>
<path d="M260.694 445.397C260.53 447.657 267.119 448.594 267.119 448.594C267.524 447.084 268.097 445.635 268.784 444.259C268.784 444.259 260.859 443.137 260.694 445.397Z" fill="black"/>
<path fill-rule="evenodd" clip-rule="evenodd" d="M405.915 450.176C404.261 462.851 406.181 478.029 411.609 483.023C417.038 488.017 419.111 488.273 422.14 488.919C425.169 489.565 430.085 489.381 431.31 489.174C435.022 487.223 435.87 486.092 437.283 484.477C438.696 482.862 442.008 477.249 442.57 470.464C443.132 463.68 442.136 453.294 439.344 444.419C436.551 435.544 427.771 430.892 428.053 429.842C428.336 428.792 435.584 427.31 442.57 427.997C449.556 428.683 451.536 429.937 455.009 432.642C458.482 435.348 460.752 438.523 462.367 442.359C463.369 444.738 464.094 447.866 464.602 449.896C464.65 450.088 464.975 450.887 464.975 450.887C465.526 451.559 466.871 451.425 466.871 451.425L467.852 451.235C467.852 451.235 467.714 447.376 467.12 445.83C466.819 445.047 466.13 442.6 465.337 440.552C464.386 438.092 463.128 436.318 462.602 435.676C457.132 428.997 449.747 423.427 434.645 424.288C419.542 425.148 407.569 437.501 405.915 450.176ZM423.458 444.542C422.981 441.499 425.657 439.136 429.597 436.501C433.537 433.866 438.646 433.668 438.885 435.676C439.125 437.684 437.442 439.529 434.186 441.779C430.93 444.029 423.934 447.585 423.458 444.542Z" fill="black"/>
<path d="M448.428 483.306C454.074 480.483 459.442 477.576 464.08 468.525C466.462 463.877 467.852 451.235 467.852 451.235L466.871 451.425C466.871 451.425 465.526 451.559 464.975 450.887L464.602 449.896C464.094 447.866 463.369 444.738 462.367 442.359C460.752 438.523 458.482 435.348 455.009 432.642C451.536 429.937 449.556 428.683 442.57 427.997C435.584 427.31 428.336 428.792 428.053 429.842C427.771 430.892 436.551 435.544 439.344 444.419C442.136 453.294 443.132 463.68 442.57 470.464C442.008 477.249 438.696 482.862 437.283 484.477C435.87 486.092 435.022 487.223 431.31 489.174C435.635 488.442 444.029 485.505 448.428 483.306Z" fill="white"/>
<path d="M287.077 484.37C292.181 486.976 300.108 488.316 306.284 490.093C298.5 484.729 295.814 479.229 294.532 474.11C293.251 468.99 292.848 458.342 295.109 451.606L295.152 451.478C295.398 450.746 295.642 449.995 295.889 449.234C296.978 445.879 297.825 442.785 299.535 439.675C300.375 438.149 302.257 435.71 303.42 434.481C304.289 433.563 304.665 433.301 305.77 432.625C312.098 428.759 296.611 428.66 290.957 429.831C285.304 431.002 280.632 434.883 278.435 436.81C276.237 438.737 274.463 441.346 273.74 442.671C273.27 443.534 271.488 447.147 271.09 447.764C270.691 448.381 269.794 448.715 268.966 448.74C268.137 448.765 267.119 448.594 267.119 448.594C266.579 450.608 266.338 452.73 266.523 454.932C267.009 460.716 269.97 467.881 273.569 472.604C277.198 477.366 281.954 481.754 287.077 484.37Z" fill="white"/>
<path fill-rule="evenodd" clip-rule="evenodd" d="M332.587 463.856C332.585 463.773 332.583 463.689 332.581 463.606C332.587 463.687 332.589 463.771 332.587 463.856Z" fill="white"/>
<path d="M308.875 436.81C307.086 435.893 305.089 434.912 303.42 434.481C301.036 433.866 298.13 434.264 297.33 435.72C296.646 436.965 297.695 438.633 299.535 439.675C301.353 440.703 303.476 441.507 304.729 442.13C307.25 443.382 312.41 444.344 313.457 442.671C314.505 440.997 310.664 437.726 308.875 436.81Z" fill="white"/>
<path d="M320.473 489.175C326.986 486.244 332.913 479.598 332.587 463.856C332.585 463.773 332.583 463.689 332.581 463.606C332.198 447.987 326.281 436.093 314.294 429.289C302.244 422.45 284.471 428.054 280.455 430.986C277.77 432.944 272.015 437.792 268.784 444.259C268.097 445.635 267.524 447.084 267.119 448.594C267.119 448.594 268.137 448.765 268.966 448.74C269.794 448.715 270.691 448.381 271.09 447.764C271.488 447.147 273.27 443.534 273.74 442.671C274.463 441.346 276.237 438.737 278.435 436.81C280.632 434.883 285.304 431.002 290.957 429.831C296.611 428.66 312.098 428.759 305.77 432.625C304.665 433.301 304.289 433.563 303.42 434.481C305.089 434.912 307.086 435.893 308.875 436.81C310.664 437.726 314.505 440.997 313.457 442.671C312.41 444.344 307.25 443.382 304.729 442.13C303.476 441.507 301.353 440.703 299.535 439.675C297.825 442.785 296.978 445.879 295.889 449.234C295.642 449.995 295.398 450.746 295.152 451.478L295.109 451.606C292.848 458.342 293.251 468.99 294.532 474.11C295.814 479.229 298.5 484.729 306.284 490.093C312.46 491.869 317.217 490.64 320.473 489.175Z" fill="black"/>
</svg>
