<svg width="701" height="901" viewBox="0 0 701 901" fill="none" xmlns="http://www.w3.org/2000/svg">
<path d="M302.775 448.64C306.048 448.43 309.069 445.702 309.195 441.002C309.321 436.302 306.216 433.029 301.893 432.861C297.571 432.693 295.515 436.275 295.515 441.799C295.515 447.324 299.501 448.85 302.775 448.64Z" fill="white"/>
<path d="M425.69 451.829C429.173 451.619 433.201 449.941 433.453 444.107C433.705 438.274 429.299 435.42 425.69 435.504C422.081 435.588 418.472 438.274 418.262 444.107C418.052 449.941 422.207 452.039 425.69 451.829Z" fill="white"/>
<path fill-rule="evenodd" clip-rule="evenodd" d="M425.48 431.014C418.891 431.854 414.191 439.24 412.429 445.534C410.666 451.829 410.163 461.271 412.429 467.776C414.695 474.28 416.877 477.973 422.416 480.491C427.956 483.009 436.642 483.848 442.266 481.456C447.889 479.064 449.945 471.091 449.861 467.02C449.777 462.95 447.97 455.206 449.358 455.858C450.745 456.509 453.561 460.235 455.946 459.76C458.332 459.286 457.935 456.708 456.995 454.641C456.055 452.574 453.927 449.025 451.376 446.055L444.211 438.087C442.254 436.304 440.157 434.208 436.732 432.495C433.307 430.783 432.068 430.175 425.48 431.014ZM433.453 444.107C433.201 449.941 429.173 451.619 425.69 451.829C422.207 452.039 418.052 449.941 418.262 444.107C418.472 438.274 422.081 435.588 425.69 435.504C429.299 435.42 433.705 438.274 433.453 444.107Z" fill="black"/>
<path fill-rule="evenodd" clip-rule="evenodd" d="M300.01 480.055C303.126 479.142 309.951 476.992 313.336 469.792C316.721 462.591 318.011 447.784 315.056 440.398C312.1 433.013 306.727 426.803 298.881 427.286C291.036 427.77 286.146 433.414 281.363 437.926C276.581 442.439 271.242 452.369 270.553 454.336C269.864 456.304 271.101 459.958 273.464 458.614C275.828 457.271 280.363 451.949 279.751 453.08C279.139 454.21 278.502 459.949 278.086 464.579C277.669 469.21 278.247 474.413 283.513 477.959C288.779 481.506 296.893 480.969 300.01 480.055ZM309.195 441.002C309.069 445.702 306.048 448.43 302.775 448.64C299.501 448.85 295.515 447.324 295.515 441.799C295.515 436.275 297.571 432.693 301.893 432.861C306.216 433.029 309.321 436.302 309.195 441.002Z" fill="black"/>
<path d="M300.432 481.495C303.576 480.573 311.006 478.274 314.694 470.43L311.979 469.153C308.896 475.71 302.676 477.71 299.588 478.616L300.432 481.495ZM314.694 470.43C316.495 466.598 317.687 460.892 318.07 455.266C318.452 449.659 318.05 443.844 316.448 439.841L313.663 440.956C315.017 444.338 315.448 449.62 315.077 455.062C314.708 460.487 313.562 465.785 311.979 469.153L314.694 470.43ZM316.448 439.841C313.422 432.279 307.642 425.243 298.789 425.789L298.974 428.783C305.812 428.362 310.778 433.747 313.663 440.956L316.448 439.841ZM298.789 425.789C290.272 426.314 284.932 432.497 280.334 436.835L282.393 439.017C287.359 434.331 291.8 429.226 298.974 428.783L298.789 425.789ZM280.334 436.835C277.793 439.233 275.178 442.984 273.144 446.301C271.121 449.602 269.539 452.693 269.137 453.84L271.969 454.832C272.256 454.011 273.688 451.154 275.702 447.87C277.706 444.601 280.152 441.132 282.393 439.017L280.334 436.835ZM269.137 453.84C268.641 455.258 268.845 457.094 269.535 458.412C269.889 459.09 270.463 459.805 271.333 460.172C272.272 460.567 273.283 460.443 274.206 459.918L272.723 457.31C272.579 457.392 272.503 457.402 272.489 457.404C272.481 457.404 272.482 457.404 272.488 457.405C272.491 457.405 272.493 457.406 272.495 457.406C272.497 457.407 272.498 457.407 272.498 457.407C272.492 457.405 272.357 457.335 272.193 457.022C272.037 456.723 271.919 456.318 271.878 455.884C271.837 455.445 271.884 455.073 271.969 454.832L269.137 453.84ZM274.206 459.918C274.944 459.499 275.771 458.822 276.531 458.141C277.311 457.442 278.105 456.662 278.786 455.978C279.489 455.273 280.037 454.707 280.398 454.361C280.485 454.278 280.546 454.222 280.585 454.187C280.651 454.13 280.604 454.18 280.497 454.241C280.462 454.261 280.391 454.299 280.293 454.335C280.211 454.365 280.005 454.434 279.729 454.422C279.409 454.408 278.958 454.276 278.628 453.859C278.34 453.495 278.309 453.116 278.307 452.952C278.306 452.772 278.339 452.636 278.354 452.577C278.373 452.508 278.392 452.457 278.403 452.431C278.423 452.381 278.438 452.354 278.432 452.365L281.07 453.794C281.103 453.734 281.146 453.65 281.185 453.553C281.203 453.508 281.31 453.256 281.307 452.93C281.306 452.754 281.273 452.366 280.98 451.996C280.645 451.574 280.187 451.439 279.858 451.425C279.574 451.412 279.356 451.483 279.261 451.518C279.15 451.559 279.063 451.605 279.011 451.635C278.834 451.736 278.684 451.865 278.617 451.923C278.523 452.004 278.422 452.099 278.321 452.196C277.93 452.572 277.312 453.208 276.661 453.86C275.99 454.534 275.245 455.265 274.529 455.907C273.794 456.566 273.166 457.058 272.723 457.31L274.206 459.918ZM278.432 452.365C278.154 452.879 277.966 453.672 277.82 454.411C277.659 455.224 277.504 456.227 277.358 457.318C277.066 459.504 276.801 462.121 276.592 464.445L279.58 464.714C279.787 462.407 280.048 459.839 280.332 457.716C280.474 456.652 280.619 455.719 280.763 454.994C280.835 454.63 280.903 454.336 280.965 454.113C281.034 453.868 281.075 453.785 281.07 453.794L278.432 452.365ZM276.592 464.445C276.157 469.282 276.73 475.2 282.675 479.204L284.351 476.715C279.763 473.626 279.182 469.137 279.58 464.714L276.592 464.445ZM282.675 479.204C285.614 481.183 289.255 481.973 292.473 482.177C295.692 482.381 298.678 482.009 300.432 481.495L299.588 478.616C298.225 479.015 295.596 479.369 292.662 479.183C289.727 478.997 286.678 478.283 284.351 476.715L282.675 479.204ZM302.87 450.137C306.992 449.872 310.55 446.441 310.695 441.042L307.696 440.962C307.588 444.963 305.103 446.987 302.679 447.143L302.87 450.137ZM310.695 441.042C310.841 435.559 307.132 431.563 301.951 431.362L301.835 434.36C305.299 434.494 307.801 437.045 307.696 440.962L310.695 441.042ZM301.951 431.362C299.289 431.259 297.193 432.347 295.839 434.358C294.549 436.272 294.015 438.892 294.015 441.799H297.015C297.015 439.183 297.508 437.249 298.327 436.034C299.081 434.914 300.175 434.295 301.835 434.36L301.951 431.362ZM294.015 441.799C294.015 444.963 295.181 447.204 297.022 448.573C298.796 449.893 300.999 450.257 302.87 450.137L302.679 447.143C301.277 447.233 299.85 446.938 298.812 446.166C297.842 445.444 297.015 444.16 297.015 441.799H294.015ZM425.78 453.326C427.698 453.211 429.917 452.686 431.718 451.25C433.574 449.77 434.81 447.464 434.952 444.172L431.955 444.043C431.845 446.584 430.94 448.034 429.848 448.904C428.702 449.818 427.165 450.237 425.599 450.332L425.78 453.326ZM434.952 444.172C435.246 437.357 430.012 433.903 425.655 434.005L425.725 437.004C428.586 436.937 432.164 439.191 431.955 444.043L434.952 444.172ZM425.655 434.005C423.49 434.055 421.303 434.889 419.628 436.601C417.947 438.322 416.879 440.828 416.763 444.054L419.761 444.161C419.855 441.554 420.696 439.8 421.774 438.699C422.858 437.589 424.28 437.037 425.725 437.004L425.655 434.005ZM416.763 444.054C416.644 447.366 417.777 449.815 419.621 451.378C421.418 452.902 423.731 453.45 425.78 453.326L425.599 450.332C424.166 450.418 422.659 450.021 421.561 449.09C420.509 448.199 419.67 446.682 419.761 444.161L416.763 444.054ZM413.873 445.939C414.708 442.957 416.239 439.729 418.31 437.173C420.388 434.609 422.893 432.856 425.669 432.502L425.29 429.526C421.478 430.012 418.339 432.372 415.979 435.284C413.612 438.205 411.912 441.817 410.984 445.13L413.873 445.939ZM425.669 432.502C428.938 432.086 430.712 432.054 432.045 432.277C433.351 432.496 434.323 432.968 436.062 433.837L437.403 431.153C435.716 430.31 434.357 429.622 432.54 429.318C430.75 429.019 428.61 429.104 425.29 429.526L425.669 432.502ZM450.238 447.032C452.697 449.895 454.749 453.324 455.63 455.262L458.361 454.02C457.362 451.824 455.157 448.155 452.513 445.078L450.238 447.032ZM455.63 455.262C456.06 456.208 456.273 457.088 456.223 457.671C456.201 457.935 456.133 458.047 456.096 458.091C456.07 458.123 455.976 458.225 455.654 458.289L456.239 461.232C457.11 461.058 457.861 460.661 458.402 460.011C458.932 459.374 459.153 458.623 459.213 457.924C459.326 456.583 458.871 455.141 458.361 454.02L455.63 455.262ZM455.654 458.289C455.49 458.322 455.208 458.304 454.745 458.085C454.285 457.869 453.776 457.515 453.223 457.066C452.663 456.612 452.16 456.147 451.624 455.679C451.161 455.275 450.567 454.768 449.995 454.5L448.72 457.216C448.843 457.273 449.121 457.476 449.65 457.939C450.107 458.337 450.717 458.897 451.333 459.396C451.955 459.901 452.684 460.43 453.466 460.799C454.246 461.167 455.209 461.436 456.239 461.232L455.654 458.289ZM449.995 454.5C449.688 454.356 449.193 454.222 448.64 454.414C448.096 454.604 447.798 455.005 447.652 455.282C447.395 455.768 447.353 456.34 447.34 456.702C447.311 457.535 447.426 458.681 447.569 459.85C447.871 462.32 448.322 465.117 448.362 467.051L451.361 466.989C451.317 464.853 450.823 461.743 450.547 459.486C450.401 458.292 450.319 457.37 450.338 456.807C450.35 456.471 450.394 456.513 450.304 456.685C450.24 456.804 450.046 457.102 449.627 457.248C449.2 457.396 448.854 457.278 448.72 457.216L449.995 454.5ZM448.362 467.051C448.399 468.867 447.95 471.665 446.826 474.274C445.698 476.895 443.993 479.091 441.679 480.076L442.853 482.837C446.162 481.429 448.297 478.443 449.581 475.461C450.871 472.468 451.408 469.244 451.361 466.989L448.362 467.051ZM441.679 480.076C439.153 481.15 435.83 481.534 432.404 481.318C428.99 481.102 425.616 480.298 423.037 479.125L421.796 481.857C424.756 483.202 428.495 484.077 432.215 484.312C435.923 484.546 439.755 484.154 442.853 482.837L441.679 480.076ZM423.037 479.125C420.474 477.961 418.754 476.561 417.4 474.735C416.018 472.872 414.965 470.498 413.845 467.282L411.012 468.269C412.158 471.558 413.33 474.283 414.99 476.522C416.678 478.798 418.819 480.504 421.796 481.857L423.037 479.125ZM413.845 467.282C411.71 461.153 412.165 452.04 413.873 445.939L410.984 445.13C409.168 451.618 408.615 461.389 411.012 468.269L413.845 467.282ZM436.062 433.837C439.264 435.438 441.203 437.376 443.201 439.196L445.221 436.978C443.305 435.233 441.05 432.977 437.403 431.153L436.062 433.837ZM443.201 439.196C445.069 440.897 447.634 444 450.238 447.032L452.513 445.078C450.015 442.168 447.267 438.841 445.221 436.978L443.201 439.196ZM452.491 445.052L445.327 437.084L443.096 439.09L450.26 447.058L452.491 445.052Z" fill="black"/>
</svg>
