<svg width="701" height="901" viewBox="0 0 701 901" fill="none" xmlns="http://www.w3.org/2000/svg">
<path d="M289.491 436.592C283.067 436.988 275.505 444.101 275.777 458.006C276.048 471.912 283.356 477.135 290.454 477.496C297.397 477.849 304.62 469.061 304.546 456.676C304.407 461.567 301.407 464.731 297.931 465.107C294.455 465.483 289.67 462.956 289.491 457.497C289.312 452.037 294.288 448.991 296.991 448.947C299.603 448.903 304.23 451.761 304.515 455.448C303.95 442.878 295.85 436.199 289.491 436.592Z" fill="black"/>
<path d="M438.424 432.646C432 433.042 424.438 440.155 424.709 454.061C424.981 467.966 432.289 473.19 439.387 473.551C446.33 473.904 453.552 465.115 453.479 452.731C453.34 457.622 450.34 460.786 446.864 461.161C443.387 461.537 438.603 459.011 438.424 453.551C438.245 448.092 443.221 445.046 445.924 445.001C448.536 444.958 453.163 447.815 453.448 451.502C452.883 438.933 444.783 432.254 438.424 432.646Z" fill="black"/>
<path d="M296.991 448.947C294.288 448.991 289.312 452.037 289.491 457.497C289.67 462.956 294.455 465.483 297.931 465.107C301.407 464.731 304.407 461.567 304.546 456.676C304.545 456.4 304.539 456.121 304.53 455.84C304.526 455.709 304.521 455.578 304.515 455.448C304.23 451.761 299.603 448.903 296.991 448.947Z" fill="white"/>
<path d="M445.924 445.001C443.221 445.046 438.245 448.092 438.424 453.551C438.603 459.011 443.387 461.537 446.864 461.161C450.34 460.786 453.34 457.622 453.479 452.731C453.478 452.454 453.472 452.175 453.463 451.895C453.459 451.763 453.454 451.633 453.448 451.502C453.163 447.815 448.536 444.958 445.924 445.001Z" fill="white"/>
<path d="M290.454 477.496L290.53 475.998L290.53 475.998L290.454 477.496ZM304.53 455.84L303.031 455.889L304.53 455.84ZM289.491 436.592L289.399 435.095L289.491 436.592ZM296.991 448.947L297.016 450.446L297.016 450.446L296.991 448.947ZM439.387 473.551L439.463 472.053L439.463 472.053L439.387 473.551ZM453.463 451.895L451.964 451.943L453.463 451.895ZM438.424 432.646L438.332 431.149L438.424 432.646ZM445.924 445.001L445.949 446.501L445.949 446.501L445.924 445.001ZM289.399 435.095C281.9 435.557 273.996 443.629 274.277 458.035L277.276 457.977C277.015 444.572 284.233 438.419 289.584 438.089L289.399 435.095ZM274.277 458.035C274.417 465.243 276.388 470.404 279.434 473.827C282.485 477.256 286.484 478.796 290.378 478.994L290.53 475.998C287.326 475.835 284.122 474.583 281.676 471.833C279.225 469.079 277.407 464.674 277.276 457.977L274.277 458.035ZM290.991 457.447C290.918 455.226 291.881 453.499 293.182 452.29C294.532 451.035 296.111 450.461 297.016 450.446L296.967 447.447C295.168 447.477 292.908 448.448 291.139 450.092C289.321 451.782 287.886 454.307 287.992 457.546L290.991 457.447ZM297.77 463.616C294.977 463.918 291.135 461.86 290.991 457.447L287.992 457.546C288.206 464.052 293.932 467.048 298.092 466.598L297.77 463.616ZM290.378 478.994C294.53 479.205 298.503 476.691 301.349 472.739C304.216 468.756 306.085 463.145 306.046 456.668L303.046 456.685C303.081 462.592 301.375 467.568 298.914 470.986C296.43 474.436 293.321 476.14 290.53 475.998L290.378 478.994ZM303.047 456.634C302.925 460.921 300.364 463.335 297.77 463.616L298.092 466.598C302.451 466.127 305.889 462.213 306.046 456.719L303.047 456.634ZM297.016 450.446C297.87 450.432 299.356 450.944 300.71 451.987C302.052 453.02 302.923 454.309 303.02 455.563L306.011 455.332C305.823 452.899 304.237 450.916 302.541 449.61C300.858 448.313 298.724 447.418 296.967 447.447L297.016 450.446ZM306.014 455.38C305.425 442.281 296.872 434.634 289.399 435.095L289.584 438.089C294.829 437.765 302.475 443.476 303.017 455.515L306.014 455.38ZM306.03 455.792C306.025 455.654 306.02 455.517 306.014 455.38L303.017 455.515C303.022 455.639 303.027 455.763 303.031 455.889L306.03 455.792ZM306.046 456.719C306.055 456.4 306.049 456.075 306.027 455.743L303.034 455.938C303.049 456.178 303.053 456.41 303.047 456.634L306.046 456.719ZM303.02 455.563C303.027 455.654 303.03 455.747 303.03 455.84H306.03C306.03 455.669 306.024 455.5 306.011 455.332L303.02 455.563ZM306.046 456.668C306.045 456.378 306.039 456.086 306.03 455.792L303.031 455.889C303.04 456.156 303.045 456.422 303.046 456.685L306.046 456.668ZM438.332 431.149C430.833 431.612 422.929 439.684 423.21 454.09L426.209 454.031C425.948 440.626 433.166 434.473 438.517 434.143L438.332 431.149ZM423.21 454.09C423.35 461.298 425.321 466.458 428.367 469.882C431.418 473.311 435.417 474.851 439.311 475.049L439.463 472.053C436.259 471.89 433.055 470.637 430.609 467.888C428.158 465.133 426.34 460.729 426.209 454.031L423.21 454.09ZM439.923 453.502C439.851 451.281 440.814 449.554 442.115 448.344C443.465 447.09 445.044 446.516 445.949 446.501L445.899 443.501C444.101 443.531 441.841 444.503 440.072 446.147C438.254 447.837 436.819 450.362 436.925 453.6L439.923 453.502ZM446.703 459.67C443.91 459.972 440.068 457.915 439.923 453.502L436.925 453.6C437.138 460.106 442.865 463.103 447.025 462.653L446.703 459.67ZM439.311 475.049C443.463 475.26 447.436 472.746 450.281 468.794C453.149 464.81 455.017 459.2 454.979 452.722L451.979 452.74C452.014 458.647 450.308 463.623 447.847 467.041C445.363 470.491 442.254 472.194 439.463 472.053L439.311 475.049ZM451.98 452.688C451.857 456.976 449.297 459.39 446.703 459.67L447.025 462.653C451.383 462.182 454.822 458.268 454.979 452.774L451.98 452.688ZM445.949 446.501C446.803 446.487 448.289 446.998 449.643 448.041C450.985 449.075 451.856 450.364 451.953 451.618L454.944 451.387C454.755 448.953 453.17 446.971 451.474 445.664C449.79 444.368 447.657 443.472 445.899 443.501L445.949 446.501ZM454.947 451.435C454.357 438.335 445.805 430.688 438.332 431.149L438.517 434.143C443.762 433.82 451.408 439.531 451.95 451.57L454.947 451.435ZM454.962 451.847C454.958 451.709 454.953 451.572 454.947 451.435L451.95 451.57C451.955 451.694 451.96 451.818 451.964 451.943L454.962 451.847ZM454.979 452.774C454.988 452.455 454.982 452.129 454.96 451.797L451.966 451.993C451.982 452.233 451.986 452.465 451.98 452.688L454.979 452.774ZM451.953 451.618C451.96 451.709 451.963 451.801 451.963 451.895H454.963C454.963 451.724 454.957 451.554 454.944 451.387L451.953 451.618ZM454.979 452.722C454.977 452.432 454.972 452.14 454.962 451.847L451.964 451.943C451.973 452.211 451.978 452.476 451.979 452.74L454.979 452.722Z" fill="black"/>
</svg>
