<svg width="701" height="900" viewBox="0 0 701 900" fill="none" xmlns="http://www.w3.org/2000/svg">
<path d="M287.625 419.647L309.631 430.909M420.004 433.162L440.624 418.087" stroke="black" stroke-width="4" stroke-linecap="round"/>
<path d="M432.463 433.497C421.638 436.217 423.232 453.72 425.209 460.816C427.185 467.911 435.637 481.22 445.159 477.196C454.681 473.171 453.742 458.776 451.791 452.031C449.839 445.285 443.289 430.776 432.463 433.497Z" fill="black"/>
<path d="M432.22 432.527C426.183 434.044 423.765 439.671 423.043 445.39C422.315 451.154 423.23 457.44 424.245 461.084L426.172 460.547C425.211 457.095 424.34 451.082 425.028 445.641C425.72 440.154 427.919 435.67 432.707 434.467L432.22 432.527ZM424.245 461.084C425.275 464.78 427.96 470.029 431.632 473.867C435.287 477.687 440.209 480.373 445.549 478.117L444.77 476.274C440.587 478.042 436.523 476.086 433.077 472.484C429.648 468.9 427.119 463.947 426.172 460.547L424.245 461.084ZM445.549 478.117C450.776 475.907 453.033 470.879 453.767 465.776C454.503 460.663 453.758 455.233 452.751 451.753L450.83 452.308C451.775 455.573 452.475 460.713 451.788 465.491C451.099 470.278 449.064 474.46 444.77 476.274L445.549 478.117ZM452.751 451.753C451.755 448.309 449.583 442.864 446.242 438.597C442.908 434.34 438.2 431.024 432.22 432.527L432.707 434.467C437.553 433.249 441.533 435.828 444.667 439.831C447.796 443.825 449.875 449.007 450.83 452.308L452.751 451.753Z" fill="black"/>
<path d="M431.862 439.15C428.58 439.169 426.228 442.807 426.109 445.931C425.991 449.054 428.745 451.644 431.862 451.822C434.98 452 437.765 448.422 437.765 445.278C437.765 442.134 435.144 439.13 431.862 439.15Z" fill="white"/>
<path d="M437.872 451.684C435.59 451.526 434.808 453.443 434.808 454.689C434.808 455.934 435.522 457.536 437.765 457.654C440.007 457.773 440.64 455.539 440.62 454.689C440.601 453.839 440.155 451.842 437.872 451.684Z" fill="white"/>
<path d="M294.138 436.905C286.827 436.168 279.056 442.174 276.222 456.457C273.388 470.74 277.757 480.035 285.182 481.735C292.606 483.436 301.811 472.631 303.708 460.368C305.606 448.104 301.45 437.642 294.138 436.905Z" fill="black"/>
<path d="M294.239 435.91C286.175 435.097 278.121 441.751 275.242 456.262L277.203 456.651C279.992 442.597 287.479 437.239 294.038 437.9L294.239 435.91ZM275.242 456.262C273.8 463.527 274.169 469.625 275.922 474.174C277.683 478.742 280.86 481.771 284.958 482.71L285.405 480.76C282.079 479.999 279.36 477.53 277.788 473.455C276.21 469.36 275.811 463.669 277.203 456.651L275.242 456.262ZM284.958 482.71C289.225 483.687 293.731 481.052 297.275 476.941C300.865 472.776 303.719 466.835 304.696 460.52L302.72 460.215C301.799 466.164 299.103 471.757 295.76 475.635C292.371 479.567 288.563 481.484 285.405 480.76L284.958 482.71ZM304.696 460.52C305.666 454.251 305.101 448.381 303.304 443.939C301.512 439.51 298.406 436.33 294.239 435.91L294.038 437.9C297.183 438.217 299.81 440.636 301.45 444.689C303.084 448.728 303.647 454.22 302.72 460.215L304.696 460.52Z" fill="black"/>
<path d="M294.142 442.689C291.509 442.715 288.345 444.939 288.168 449.039C287.99 453.138 291.087 455.545 294.015 455.701C296.943 455.856 299.559 454.166 299.787 449.57C300.015 444.974 296.774 442.662 294.142 442.689Z" fill="white"/>
<path d="M288.168 454.992C286.114 454.992 285.109 456.989 285.183 458.333C285.257 459.678 286.266 461.295 288.168 461.321C290.069 461.346 291.031 459.144 291.031 458.207C291.031 457.27 290.221 454.992 288.168 454.992Z" fill="white"/>
</svg>
