<svg width="701" height="901" viewBox="0 0 701 901" fill="none" xmlns="http://www.w3.org/2000/svg">
<path fill-rule="evenodd" clip-rule="evenodd" d="M289.995 478.756C298.892 480.424 305.121 466.077 305.677 456.512C306.233 446.948 303.119 432.489 294.555 431.933C290.308 431.657 287.019 435.155 284.673 439.837C282.288 444.597 280.879 450.581 280.43 455.066C279.54 463.964 281.098 477.087 289.995 478.756ZM298.872 442.629C298.484 446.99 295.582 450.806 292.173 450.747C288.764 450.688 285.759 448.67 285.533 442.629C285.306 436.587 288.567 433.388 292.173 433.368C295.779 433.348 299.26 438.267 298.872 442.629Z" fill="black"/>
<path fill-rule="evenodd" clip-rule="evenodd" d="M440.983 475.306C450.359 475.412 452.452 463.629 453.008 454.065C453.564 444.5 449.936 430.968 438.917 430.915C427.899 430.862 427.475 446.966 427.475 455.283C427.475 463.599 431.607 475.2 440.983 475.306ZM442.653 442.31C442.265 446.672 439.362 450.488 435.953 450.428C432.545 450.369 429.539 448.352 429.313 442.31C429.087 436.269 432.347 433.069 435.953 433.05C439.559 433.03 443.04 437.949 442.653 442.31Z" fill="black"/>
<path d="M435.953 450.428C439.362 450.488 442.265 446.672 442.653 442.31C443.04 437.949 439.559 433.03 435.953 433.05C432.347 433.069 429.087 436.269 429.313 442.31C429.539 448.352 432.545 450.369 435.953 450.428Z" fill="white"/>
<path d="M292.173 450.747C295.582 450.806 298.484 446.99 298.872 442.629C299.26 438.267 295.779 433.348 292.173 433.368C288.567 433.388 285.306 436.587 285.533 442.629C285.759 448.67 288.764 450.688 292.173 450.747Z" fill="white"/>
<path d="M294.555 431.933L294.652 430.436L294.555 431.933ZM280.43 455.066L281.923 455.216L280.43 455.066ZM284.673 439.837L286.014 440.509L286.014 440.509L284.673 439.837ZM432.776 422.517L432.246 421.114L432.055 421.186L431.891 421.306L432.776 422.517ZM289.719 480.23C295.151 481.249 299.437 477.316 302.251 472.617C305.121 467.824 306.883 461.609 307.174 456.599L304.179 456.425C303.914 460.98 302.284 466.721 299.677 471.076C297.013 475.525 293.736 477.931 290.271 477.281L289.719 480.23ZM307.174 456.599C307.462 451.652 306.807 445.436 304.945 440.331C303.122 435.331 299.884 430.776 294.652 430.436L294.458 433.43C297.79 433.646 300.391 436.598 302.127 441.358C303.824 446.012 304.448 451.808 304.179 456.425L307.174 456.599ZM278.938 454.917C278.48 459.489 278.641 465.206 280.106 470.056C281.563 474.878 284.457 479.243 289.719 480.23L290.271 477.281C286.635 476.6 284.302 473.569 282.978 469.188C281.663 464.835 281.49 459.541 281.923 455.216L278.938 454.917ZM292.147 452.247C294.451 452.287 296.431 451.017 297.824 449.286C299.223 447.547 300.148 445.217 300.366 442.762L297.378 442.496C297.209 444.402 296.488 446.16 295.487 447.405C294.479 448.658 293.303 449.266 292.199 449.247L292.147 452.247ZM300.366 442.762C300.597 440.163 299.683 437.492 298.238 435.481C296.819 433.504 294.648 431.855 292.165 431.868L292.181 434.868C293.303 434.862 294.676 435.662 295.802 437.23C296.903 438.764 297.535 440.734 297.378 442.496L300.366 442.762ZM294.652 430.436C289.412 430.096 285.712 434.415 283.332 439.165L286.014 440.509C288.326 435.895 291.205 433.219 294.458 433.43L294.652 430.436ZM283.332 439.165C280.847 444.126 279.4 450.296 278.938 454.917L281.923 455.216C282.358 450.866 283.73 445.069 286.014 440.509L283.332 439.165ZM284.034 442.685C284.155 445.933 285.034 448.348 286.573 449.965C288.124 451.596 290.154 452.212 292.147 452.247L292.199 449.247C290.783 449.223 289.605 448.801 288.746 447.897C287.873 446.98 287.136 445.366 287.032 442.573L284.034 442.685ZM292.165 431.868C289.899 431.881 287.756 432.9 286.241 434.807C284.734 436.704 283.91 439.39 284.034 442.685L287.032 442.573C286.929 439.826 287.622 437.891 288.59 436.674C289.55 435.465 290.841 434.875 292.181 434.868L292.165 431.868ZM440.966 476.806C443.655 476.837 445.886 476.005 447.686 474.541C449.458 473.099 450.74 471.105 451.682 468.902C453.555 464.52 454.226 458.963 454.505 454.152L451.511 453.977C451.234 458.731 450.58 463.847 448.924 467.722C448.101 469.647 447.068 471.176 445.793 472.213C444.546 473.228 442.999 473.829 441 473.806L440.966 476.806ZM454.505 454.152C454.794 449.183 454.006 443.141 451.654 438.271C449.283 433.364 445.195 429.446 438.925 429.415L438.91 432.415C443.658 432.438 446.893 435.312 448.952 439.576C451.03 443.876 451.778 449.381 451.511 453.977L454.505 454.152ZM425.975 455.283C425.975 459.649 427.052 464.889 429.403 469.104C431.762 473.334 435.551 476.745 440.966 476.806L441 473.806C437.04 473.762 434.074 471.319 432.023 467.643C429.964 463.952 428.975 459.233 428.975 455.283L425.975 455.283ZM435.927 451.928C438.231 451.968 440.212 450.698 441.604 448.967C443.003 447.229 443.928 444.899 444.147 442.443L441.158 442.178C440.989 444.084 440.269 445.842 439.267 447.087C438.259 448.339 437.084 448.948 435.979 448.929L435.927 451.928ZM444.147 442.443C444.378 439.844 443.463 437.174 442.019 435.162C440.6 433.185 438.429 431.536 435.945 431.55L435.961 434.55C437.084 434.544 438.456 435.344 439.582 436.912C440.683 438.446 441.315 440.415 441.158 442.178L444.147 442.443ZM438.925 429.415C435.755 429.4 433.274 430.566 431.406 432.485C429.581 434.359 428.403 436.885 427.625 439.538C426.074 444.83 425.975 451.139 425.975 455.283L428.975 455.283C428.975 451.11 429.089 445.208 430.504 440.382C431.209 437.977 432.203 435.967 433.556 434.577C434.867 433.231 436.571 432.404 438.91 432.415L438.925 429.415ZM427.814 442.367C427.936 445.615 428.814 448.03 430.353 449.647C431.905 451.277 433.934 451.894 435.927 451.928L435.979 448.929C434.564 448.904 433.386 448.482 432.526 447.579C431.654 446.662 430.917 445.048 430.812 442.254L427.814 442.367ZM435.945 431.55C433.679 431.562 431.537 432.582 430.022 434.489C428.514 436.386 427.691 439.072 427.814 442.367L430.812 442.254C430.709 439.508 431.403 437.573 432.371 436.355C433.331 435.147 434.622 434.557 435.961 434.55L435.945 431.55ZM303.956 425.888C304.227 426.043 304.557 426.209 304.898 426.287C305.06 426.324 305.382 426.38 305.754 426.282C306.22 426.159 306.668 425.812 306.857 425.255C307.006 424.815 306.924 424.434 306.877 424.264C306.822 424.065 306.741 423.899 306.675 423.781C306.542 423.541 306.368 423.313 306.197 423.117C305.849 422.717 305.373 422.285 304.839 421.918C304.316 421.559 303.644 421.198 302.908 421.048L302.308 423.987C302.506 424.028 302.8 424.157 303.14 424.391C303.47 424.617 303.755 424.881 303.934 425.087C304.027 425.193 304.057 425.246 304.053 425.238C304.052 425.236 304.016 425.174 303.986 425.065C303.964 424.984 303.885 424.677 304.015 424.294C304.185 423.793 304.591 423.486 304.989 423.381C305.295 423.3 305.524 423.353 305.566 423.362C305.669 423.386 305.651 423.401 305.448 423.285L303.956 425.888ZM302.908 421.048C300.112 420.477 298.671 422.355 298.298 423.018L300.913 424.489C300.942 424.437 301.07 424.249 301.288 424.112C301.465 424.001 301.768 423.877 302.308 423.987L302.908 421.048ZM298.298 423.018C298.285 423.042 298.23 423.138 298.184 423.253C298.17 423.289 298.094 423.473 298.076 423.72C298.067 423.848 298.064 424.117 298.195 424.421C298.35 424.78 298.645 425.079 299.035 425.23C299.368 425.358 299.657 425.336 299.796 425.315C299.947 425.293 300.063 425.252 300.125 425.229C300.246 425.182 300.336 425.129 300.366 425.111C300.435 425.07 300.498 425.026 300.512 425.016C300.606 424.95 300.675 424.9 300.78 424.848C300.965 424.757 301.267 424.654 301.734 424.79L302.574 421.91C301.224 421.516 300.139 421.817 299.446 422.161C299.113 422.327 298.872 422.502 298.794 422.557C298.764 422.577 298.792 422.557 298.835 422.531C298.852 422.521 298.932 422.473 299.045 422.43C299.102 422.408 299.214 422.368 299.363 422.347C299.499 422.327 299.785 422.304 300.116 422.431C300.504 422.581 300.798 422.879 300.951 423.236C301.081 423.538 301.078 423.804 301.069 423.929C301.052 424.169 300.979 424.344 300.969 424.367C300.934 424.457 300.898 424.516 300.913 424.489L298.298 423.018ZM301.734 424.79C302.212 424.93 302.445 424.995 302.598 425.044C302.725 425.084 302.676 425.076 302.611 425.036C302.537 424.99 303.066 425.377 303.956 425.888L305.448 423.285C304.446 422.711 304.61 422.745 304.188 422.484C303.95 422.337 303.732 422.256 303.507 422.185C303.308 422.122 303.004 422.036 302.574 421.91L301.734 424.79ZM434.69 423.938C434.831 423.986 435.074 424.066 435.302 424.092C435.333 424.095 435.569 424.127 435.85 424.058C435.978 424.027 436.385 423.913 436.695 423.504C437.087 422.986 437.031 422.411 436.905 422.071C436.8 421.79 436.638 421.614 436.58 421.553C436.503 421.473 436.433 421.416 436.391 421.385C436.308 421.322 436.232 421.278 436.191 421.255C435.925 421.106 435.515 420.964 435.114 420.863C434.68 420.755 434.109 420.658 433.501 420.674C432.902 420.69 432.152 420.819 431.479 421.276L433.164 423.759C433.197 423.736 433.315 423.68 433.58 423.673C433.836 423.666 434.126 423.709 434.386 423.774C434.678 423.847 434.795 423.911 434.725 423.872C434.708 423.863 434.652 423.831 434.582 423.778C434.548 423.752 434.483 423.701 434.41 423.625C434.356 423.568 434.196 423.395 434.093 423.118C433.968 422.781 433.912 422.209 434.302 421.694C434.611 421.286 435.014 421.174 435.137 421.144C435.409 421.078 435.629 421.11 435.638 421.111C435.778 421.126 435.829 421.156 435.655 421.097L434.69 423.938ZM431.479 421.276C430.771 421.757 429.925 422.338 429.222 422.854C428.873 423.111 428.541 423.365 428.272 423.591C428.139 423.703 428.005 423.822 427.887 423.941C427.791 424.036 427.615 424.22 427.482 424.456L430.097 425.927C430.02 426.063 429.953 426.117 430.01 426.06C430.044 426.026 430.106 425.969 430.204 425.886C430.399 425.722 430.67 425.513 430.999 425.271C431.653 424.791 432.459 424.237 433.164 423.759L431.479 421.276ZM427.482 424.456C427.448 424.517 427.391 424.626 427.347 424.771C427.308 424.898 427.238 425.184 427.315 425.539C427.409 425.969 427.685 426.337 428.074 426.547C428.396 426.72 428.693 426.731 428.827 426.728C429.091 426.723 429.295 426.648 429.345 426.629C429.431 426.599 429.503 426.565 429.552 426.541C429.731 426.454 429.942 426.324 430.123 426.208C430.516 425.958 431.044 425.595 431.559 425.234C432.079 424.869 432.604 424.493 432.998 424.209C433.196 424.066 433.361 423.947 433.477 423.862C433.535 423.82 433.58 423.787 433.612 423.764C433.627 423.753 433.639 423.744 433.648 423.738C433.652 423.735 433.655 423.733 433.657 423.731C433.658 423.73 433.659 423.73 433.66 423.729C433.66 423.729 433.66 423.729 433.66 423.729C433.66 423.729 433.66 423.729 433.66 423.729C433.66 423.729 433.66 423.729 432.776 422.517C431.891 421.306 431.891 421.306 431.891 421.306C431.891 421.306 431.891 421.306 431.891 421.306C431.891 421.306 431.89 421.306 431.89 421.307C431.89 421.307 431.889 421.307 431.888 421.308C431.886 421.309 431.883 421.312 431.879 421.314C431.872 421.32 431.86 421.328 431.845 421.339C431.815 421.362 431.77 421.394 431.713 421.435C431.6 421.518 431.438 421.635 431.244 421.775C430.855 422.056 430.341 422.424 429.836 422.778C429.325 423.136 428.843 423.467 428.509 423.68C428.427 423.732 428.36 423.773 428.309 423.804C428.252 423.838 428.232 423.847 428.238 423.844C428.241 423.843 428.273 423.827 428.325 423.808C428.342 423.802 428.52 423.734 428.766 423.729C428.891 423.726 429.18 423.735 429.497 423.906C429.881 424.112 430.154 424.476 430.246 424.9C430.322 425.249 430.253 425.528 430.217 425.646C430.175 425.781 430.124 425.879 430.097 425.927L427.482 424.456ZM432.776 422.517C433.306 423.921 433.305 423.921 433.305 423.921C433.305 423.921 433.304 423.921 433.304 423.921C433.303 423.921 433.303 423.922 433.302 423.922C433.301 423.922 433.3 423.923 433.299 423.923C433.297 423.924 433.295 423.925 433.293 423.925C433.29 423.926 433.288 423.927 433.287 423.927C433.284 423.928 433.286 423.928 433.291 423.926C433.3 423.923 433.323 423.916 433.358 423.907C433.428 423.888 433.541 423.863 433.682 423.846C433.971 423.81 434.331 423.816 434.69 423.938L435.655 421.097C434.752 420.79 433.914 420.795 433.32 420.867C433.02 420.904 432.77 420.959 432.588 421.007C432.496 421.032 432.421 421.055 432.363 421.073C432.334 421.083 432.31 421.091 432.29 421.098C432.281 421.101 432.272 421.104 432.264 421.107C432.261 421.108 432.257 421.11 432.254 421.111C432.253 421.112 432.251 421.112 432.25 421.113C432.249 421.113 432.248 421.113 432.247 421.113C432.247 421.114 432.247 421.114 432.246 421.114C432.246 421.114 432.246 421.114 432.776 422.517Z" fill="black"/>
</svg>
