<svg width="701" height="901" viewBox="0 0 701 901" fill="none" xmlns="http://www.w3.org/2000/svg">
<path d="M290.218 440.657C285.951 443.193 281.683 447.024 281.684 454.041C281.684 461.057 285.062 465.324 291.462 465.324C297.863 465.324 302.249 461.194 303.553 451.634C304.856 442.075 294.485 438.122 290.218 440.657Z" fill="black"/>
<path d="M433.683 441.773C426.917 446.68 427.382 453.755 429.654 457.887C431.927 462.019 436.265 467.7 444.684 465.324C453.102 462.948 450.83 451.69 449.125 447.713C447.421 443.736 440.449 436.867 433.683 441.773Z" fill="black"/>
<path d="M290.218 440.657C285.951 443.193 281.683 447.024 281.684 454.041C281.684 461.057 285.062 465.324 291.462 465.324C297.863 465.324 302.249 461.194 303.553 451.634C304.856 442.075 294.485 438.122 290.218 440.657Z" stroke="black" stroke-width="3"/>
<path d="M433.683 441.773C426.917 446.68 427.382 453.755 429.654 457.887C431.927 462.019 436.265 467.7 444.684 465.324C453.102 462.948 450.83 451.69 449.125 447.713C447.421 443.736 440.449 436.867 433.683 441.773Z" stroke="black" stroke-width="3"/>
</svg>
