<svg width="701" height="901" viewBox="0 0 701 901" fill="none" xmlns="http://www.w3.org/2000/svg">
<path d="M331.351 386.157C320.696 386.301 317.51 392.148 316.994 394.472C316.477 396.796 316.962 401.59 320.557 404.543C323.84 407.241 328.515 407.922 331.351 407.848C337.29 407.693 344.108 403.717 345.864 397.678C347.62 391.639 342.006 386.013 331.351 386.157Z" fill="#FFEEAB"/>
<path d="M390.661 386.342C380.007 386.486 377.905 392.126 377.388 394.451C376.872 396.775 377.357 401.207 380.952 404.16C384.235 406.858 386.922 408.159 394.307 407.849C401.693 407.539 405.38 403.898 405.949 398.324C406.517 392.75 401.316 386.198 390.661 386.342Z" fill="#FFEEAB"/>
<path d="M269.895 452.428C269.895 452.428 277.116 445.479 286.906 442.292C296.696 439.104 305.638 439.451 305.638 439.451M271.217 453.552C271.217 453.552 278.439 446.603 288.229 443.416C298.019 440.229 306.96 440.575 306.96 440.575M271.151 455.602C271.151 455.602 278.373 448.653 288.163 445.466C297.953 442.279 306.894 442.625 306.894 442.625M272.754 457.37C272.754 457.37 280.738 450.369 290.528 447.182C300.318 443.995 306.96 444.606 306.96 444.606M273.15 459.552C273.15 459.552 281.135 452.552 290.925 449.365C300.715 446.177 307.357 446.788 307.357 446.788M274.936 461.007C274.936 461.007 282.92 454.007 292.71 450.819C302.5 447.632 309.143 448.243 309.143 448.243M274.936 463.123C274.936 463.123 282.92 456.123 292.71 452.936C302.5 449.749 309.143 450.359 309.143 450.359M276.193 463.74C276.193 463.74 284.177 456.74 293.967 453.552C303.757 450.365 310.399 450.976 310.399 450.976M276.193 465.192C276.193 465.192 284.177 458.192 293.967 455.004C303.757 451.817 310.399 452.428 310.399 452.428M276.656 466.316C276.656 466.316 284.64 459.316 294.43 456.129C304.22 452.941 310.862 453.552 310.862 453.552M277.251 467.557C277.251 467.557 285.235 460.557 295.025 457.37C304.815 454.182 311.457 454.793 311.457 454.793M277.912 468.366C277.912 468.366 285.713 462.739 295.503 459.552C305.293 456.365 310.862 456.129 310.862 456.129M421.518 437.124C421.518 437.124 434.305 436.53 443.874 437.885C453.443 439.241 462.758 445.677 462.758 445.677M422.449 438.902C422.449 438.902 435.236 438.309 444.805 439.664C454.374 441.019 463.689 447.455 463.689 447.455M421.518 439.749C421.518 439.749 434.305 439.155 443.874 440.511C453.443 441.866 462.758 448.302 462.758 448.302M422.449 440.68C422.449 440.68 435.236 440.087 444.805 441.442C454.374 442.797 463.689 449.233 463.689 449.233M421.518 441.273C421.518 441.273 434.305 440.68 443.874 442.035C453.443 443.39 462.758 449.826 462.758 449.826M421.927 441.84C421.927 441.84 434.714 441.247 444.283 442.602C453.852 443.957 463.167 450.393 463.167 450.393M421.707 443.289C421.707 443.289 434.494 442.696 444.063 444.051C453.632 445.406 462.947 451.842 462.947 451.842M422.148 444.202C422.148 444.202 434.935 443.609 444.504 444.964C454.073 446.319 463.388 452.755 463.388 452.755M421.707 445.399C421.707 445.399 434.494 444.806 444.063 446.161C453.632 447.516 462.947 453.952 462.947 453.952M422.148 445.872C422.148 445.872 434.935 445.278 444.504 446.634C454.073 447.989 463.388 454.425 463.388 454.425M421.707 446.943C421.707 446.943 434.494 446.349 444.063 447.705C453.632 449.06 462.947 455.496 462.947 455.496M422.148 447.825C422.148 447.825 434.935 447.231 444.504 448.587C454.073 449.942 463.388 456.378 463.388 456.378M421.518 449.064C421.518 449.064 434.305 448.471 443.874 449.826C453.443 451.181 462.758 457.617 462.758 457.617M421.707 450.576C421.707 450.576 434.494 449.983 444.063 451.338C453.632 452.693 462.947 459.129 462.947 459.129M421.14 451.842C421.14 451.842 433.927 451.248 443.496 452.604C453.065 453.959 462.38 460.395 462.38 460.395M420.982 453.191C420.982 453.191 433.769 452.597 443.338 453.952C452.907 455.308 462.222 461.744 462.222 461.744M421.927 453.663C421.927 453.663 434.714 453.07 444.283 454.425C453.852 455.78 463.167 462.216 463.167 462.216M421.707 454.425C421.707 454.425 434.494 453.831 444.063 455.187C453.632 456.542 462.947 462.978 462.947 462.978M421.707 455.187C421.707 455.187 434.305 455.868 443.874 457.223C453.443 458.578 462.947 463.74 462.947 463.74" stroke="black" stroke-width="3" stroke-linecap="round"/>
</svg>
