<svg width="701" height="901" viewBox="0 0 701 901" fill="none" xmlns="http://www.w3.org/2000/svg">
<path d="M48.2493 776.825C48.9876 777.955 44.4291 779.216 42.169 781.82C39.9089 784.423 39.1121 786.425 38.6741 787.474C38.2361 788.523 37.6531 789.985 36.7411 792.938C35.829 795.891 35.815 797.052 37.1641 799.223C38.5132 801.395 34.625 802.189 33.6575 800.842C32.69 799.496 31.9205 796.803 32.3105 793.85C32.7006 790.897 34.2213 785.512 35.3505 783.687C36.4797 781.863 39.0891 777.998 41.6913 776.131C44.2935 774.263 45.0652 773.753 45.9475 774.046C46.8298 774.339 47.511 775.696 48.2493 776.825Z" fill="#183716"/>
<path d="M158.27 781.99C158.27 781.99 163.821 784.44 165.566 787.203C167.311 789.965 167.537 792.695 168.086 795.587C168.635 798.479 170.542 800.175 171.996 799.48C173.449 798.786 172.771 796.75 172.319 794.392L172.285 794.217C171.854 791.969 171.612 790.706 170.525 788.075C169.411 785.377 168.183 782.841 165.695 780.612C163.208 778.383 158.27 776.884 158.27 776.884V781.99Z" fill="#183716"/>
<path d="M118.724 833.846C118.724 836.623 119.039 841.525 119.018 844.835C118.997 848.145 119.37 853.358 120.259 854.785C121.149 856.212 123.003 857.217 124.707 857.536C126.41 857.855 127.977 857.549 128.244 856.254C128.51 854.959 125.355 854.205 124.376 853.358C123.396 852.51 123.576 845.478 123.548 841.96C123.521 838.442 123.521 828.892 123.031 829.011C122.541 829.129 119.767 829.459 119.121 829.631C118.476 829.804 118.724 831.068 118.724 833.846Z" fill="#183716"/>
<path d="M91.8361 832.678C92.9893 832.814 92.4284 835.832 92.234 838.478C92.0396 841.124 92.0396 846.482 92.0396 849.399C92.0396 852.316 91.7592 857.545 92.6501 857.811C93.541 858.076 95.7705 857.811 95.7366 859.642C95.7026 861.474 93.7015 861.508 92.0396 861.236C90.3777 860.965 88.8853 859.642 88.3087 858.353C87.7321 857.065 87.12 851.671 87.1216 848.653C87.1232 845.635 87.151 832.408 87.9017 832.509C88.6524 832.609 90.6829 832.542 91.8361 832.678Z" fill="#183716"/>
<path fill-rule="evenodd" clip-rule="evenodd" d="M106.875 832.134C93.5307 832.737 84.8704 825.867 75.8613 818.675C66.8522 811.483 63.7307 798.023 63.3938 787.556C63.0569 777.09 72.0103 759.357 75.4996 751.525C78.9889 743.693 80.9828 729.805 84.8993 719.745C88.8159 709.686 99.355 704.952 108.968 704.382C118.582 703.813 126.842 709.843 130.474 715.847C134.106 721.851 139.288 738.188 141.227 743.548C143.166 748.908 154.206 769.797 153.973 783.283C153.74 796.77 147.79 807.144 141.013 816.183C134.237 825.221 120.22 831.53 106.875 832.134ZM88.7632 772.928C93.8239 763.808 102.444 763.029 108.895 762.584C115.346 762.139 120.685 764.03 126.635 768.034C132.585 772.038 137.09 783.661 136.145 791.78C135.199 799.9 132.352 804.183 127.97 807.407C123.413 810.759 117.846 813.283 112.343 813.553C107.104 813.81 99.9969 812.468 94.4357 808.186C88.8745 803.904 85.7579 800.406 84.8704 793.449C83.7496 784.663 83.7026 782.048 88.7632 772.928Z" fill="#FFFAD2"/>
<path fill-rule="evenodd" clip-rule="evenodd" d="M106.875 835.761C95.5958 835.044 83.4694 831.857 74.9299 826.295C66.3903 820.732 65.1029 816.966 60.8302 811.056C56.5576 805.145 54.3501 793.04 54.2789 783.497C54.2077 773.955 64.6756 754.23 67.6289 746.356C70.5822 738.482 72.3145 725.156 77.351 715.847C82.3876 706.538 95.7233 700.751 102.346 700.181C108.968 699.612 124.92 699.825 132.895 710.507C140.871 721.188 144.289 732.938 147.422 741.27C150.555 749.601 161.379 771.037 160.83 783.939C160.28 796.841 157.534 805.572 155.502 808.958C153.47 812.345 149.843 818.746 141.939 825.013C134.034 831.279 118.155 836.478 106.875 835.761ZM75.8613 818.675C84.8704 825.867 93.5307 832.737 106.875 832.134C120.22 831.53 134.237 825.221 141.013 816.183C147.79 807.144 153.74 796.77 153.973 783.283C154.206 769.797 143.166 748.908 141.227 743.548C139.288 738.188 134.106 721.851 130.474 715.847C126.842 709.843 118.582 703.813 108.968 704.382C99.355 704.952 88.8159 709.686 84.8993 719.745C80.9828 729.805 78.9889 743.693 75.4996 751.525C72.0103 759.357 63.0569 777.09 63.3938 787.556C63.7307 798.023 66.8522 811.483 75.8613 818.675Z" fill="#A4D277"/>
<path fill-rule="evenodd" clip-rule="evenodd" d="M104.838 840.608C94.5127 840.394 74.7219 839.469 63.0378 830.425C51.3536 821.381 48.3683 816.681 45.4486 811.625C42.529 806.569 39.0397 794.749 38.6844 787.556C38.329 780.364 41.9595 765.339 44.8791 759.286C47.7987 753.233 52.4274 741.91 55.4895 735.502C58.5515 729.093 62.8241 714.138 70.3012 706.163C77.7783 698.187 91.5931 694.413 98.9278 693.844C106.262 693.274 118.938 693.629 131.186 704.382C143.434 715.135 146.354 730.09 149.701 737.852C153.048 745.613 162.809 763.117 164.48 777.449C166.15 791.78 164.657 794.823 160.83 805.077C157.003 815.332 149.986 823.38 141.939 829.57C133.892 835.761 115.164 840.822 104.838 840.608ZM74.9299 826.295C83.4694 831.857 95.5958 835.044 106.875 835.761C118.155 836.478 134.034 831.279 141.939 825.013C149.843 818.746 153.47 812.345 155.502 808.958C157.534 805.572 160.28 796.841 160.83 783.939C161.379 771.037 150.555 749.601 147.422 741.27C144.289 732.938 140.871 721.188 132.895 710.507C124.92 699.825 108.968 699.612 102.346 700.181C95.7233 700.751 82.3876 706.538 77.351 715.847C72.3145 725.156 70.5822 738.482 67.6289 746.356C64.6756 754.23 54.2077 773.955 54.2789 783.497C54.3501 793.04 56.5576 805.145 60.8302 811.056C65.1029 816.966 66.3903 820.732 74.9299 826.295Z" fill="#335127"/>
<path fill-rule="evenodd" clip-rule="evenodd" d="M108.895 762.584C102.444 763.029 93.8239 763.808 88.7632 772.928C83.7026 782.048 83.7496 784.663 84.8704 793.449C85.7579 800.406 88.8745 803.904 94.4357 808.186C99.9969 812.468 107.104 813.81 112.343 813.553C117.846 813.283 123.413 810.759 127.97 807.407C132.352 804.183 135.199 799.9 136.145 791.78C137.09 783.661 132.585 772.038 126.635 768.034C120.685 764.03 115.346 762.139 108.895 762.584ZM115.18 770.048C115.904 771.324 118.459 771.954 120.042 773.456C121.626 774.959 122.631 777.31 125.147 777.802C127.663 778.293 128.406 776.707 128.362 774.894C128.318 773.081 125.289 770.403 123.499 769.014C121.71 767.624 118.082 766.376 116.537 766.623C114.992 766.87 114.456 768.771 115.18 770.048Z" fill="#AC612A"/>
<path d="M120.042 773.456C118.459 771.954 115.904 771.324 115.18 770.048C114.456 768.771 114.992 766.87 116.537 766.623C118.082 766.376 121.71 767.624 123.499 769.014C125.289 770.403 128.318 773.081 128.362 774.894C128.406 776.707 127.663 778.293 125.147 777.802C122.631 777.31 121.626 774.959 120.042 773.456Z" fill="#C16B30"/>
<path d="M48.2493 776.825C48.9876 777.955 44.4291 779.216 42.169 781.82C39.9089 784.423 39.1121 786.425 38.6741 787.474C38.2361 788.523 37.6531 789.985 36.7411 792.938C35.829 795.891 35.815 797.052 37.1641 799.223C38.5132 801.395 34.625 802.189 33.6575 800.842C32.69 799.496 31.9205 796.803 32.3105 793.85C32.7006 790.897 34.2213 785.512 35.3505 783.687C36.4797 781.863 39.0891 777.998 41.6913 776.131C44.2935 774.263 45.0652 773.753 45.9475 774.046C46.8298 774.339 47.511 775.696 48.2493 776.825Z" fill="#183716"/>
<path d="M119.977 727.28C119.163 727.331 118.377 728.042 118.429 728.93C118.48 729.818 119.297 730.356 120.13 730.342C120.964 730.328 121.656 729.664 121.656 728.759C121.656 727.855 120.791 727.229 119.977 727.28Z" fill="#44300F"/>
<path d="M100.132 727.229C99.3186 727.281 98.5332 727.992 98.5844 728.88C98.6356 729.768 99.4528 730.306 100.286 730.291C101.119 730.277 101.811 729.614 101.811 728.709C101.811 727.804 100.946 727.178 100.132 727.229Z" fill="#44300F"/>
<path d="M103.989 733.152C103.989 733.152 107.11 733.794 109.971 733.764C112.833 733.733 116.153 733.259 116.153 733.259M119.977 727.28C119.163 727.331 118.377 728.042 118.429 728.93C118.48 729.818 119.297 730.356 120.13 730.342C120.964 730.328 121.656 729.664 121.656 728.759C121.656 727.855 120.791 727.229 119.977 727.28ZM100.132 727.229C99.3186 727.281 98.5332 727.992 98.5844 728.88C98.6356 729.768 99.4528 730.306 100.286 730.291C101.119 730.277 101.811 729.614 101.811 728.709C101.811 727.804 100.946 727.178 100.132 727.229Z" stroke="#44300F" stroke-linecap="round"/>
</svg>
