<svg width="701" height="901" viewBox="0 0 701 901" fill="none" xmlns="http://www.w3.org/2000/svg">
<path d="M89.2275 769.19C93.4441 769.173 97.4054 769.348 100.411 769.762C102.434 770.041 104.449 770.281 106.441 770.51C106.441 770.51 105.085 761.747 104.013 756.299C102.942 750.852 99.6374 740.761 96.4226 741.029C93.2078 741.297 90.9753 749.155 89.8144 754.066C88.6535 758.978 89.2275 769.19 89.2275 769.19Z" fill="#BAE0E1"/>
<path d="M102.049 842.034C97.4002 842.066 90.8118 841.678 85.5545 841.206C85.5545 841.206 86.7346 851.005 88.203 855.558C89.6714 860.111 90.0952 864.589 93.4143 864.704C96.7334 864.82 98.2206 857.601 99.1846 853.947C100.149 850.293 102.049 842.034 102.049 842.034Z" fill="#BAE0E1"/>
<path d="M49.0119 808.467C49.2909 815.65 50.4076 820.811 53.7551 827.227C56.748 832.963 61.6919 835.578 67.4904 837.712C64.2863 830.597 64.8995 824.971 64.9888 815.952C64.9975 815.068 65.0045 814.188 65.0115 813.313L65.0126 813.183C65.0767 805.173 65.1449 797.523 66.5069 790.233C68.025 782.107 67.4904 777.731 72.6914 770.153C68.9102 770.604 65.8508 771.19 64.2863 771.854C59.1953 774.016 56.0561 778.27 52.9178 785.104C49.7795 791.939 48.733 801.284 49.0119 808.467Z" fill="#B9E1E0"/>
<path d="M119.402 802.025C119.19 800.792 116.723 796.453 114.894 795.688C113.065 794.922 110.725 793.519 109.024 794.795C107.323 796.071 106.812 799.771 106.982 802.408C107.153 805.045 108.173 807.214 109.449 808.49C110.725 809.766 112.172 810.149 113.192 810.064C114.213 809.979 116.935 809.316 117.999 807.214C119.062 805.113 119.615 803.259 119.402 802.025Z" fill="#D3EBED"/>
<path fill-rule="evenodd" clip-rule="evenodd" d="M154.599 806.096C155.157 790.963 136.327 777.573 128.377 774.574C122.017 772.175 114.407 771.427 106.441 770.51C104.449 770.281 102.434 770.041 100.411 769.762C97.4054 769.348 93.4441 769.173 89.2275 769.19C83.6183 769.212 77.5572 769.572 72.6914 770.153C67.4904 777.731 68.025 782.107 66.5069 790.233C65.1449 797.523 65.0767 805.173 65.0126 813.183C65.0126 813.183 74.9011 810.147 85.5545 809.343C96.2079 808.54 117.944 809.879 126.874 810.683C135.804 811.486 153.462 813.183 153.462 813.183C154.103 810.969 154.506 808.606 154.599 806.096ZM114.894 795.688C116.723 796.453 119.19 800.792 119.402 802.025C119.615 803.259 119.062 805.113 117.999 807.214C116.935 809.316 114.213 809.979 113.192 810.064C112.172 810.149 110.725 809.766 109.449 808.49C108.173 807.214 107.153 805.045 106.982 802.408C106.812 799.771 107.323 796.071 109.024 794.795C110.725 793.519 113.065 794.922 114.894 795.688Z" fill="#8DC8CE"/>
<path d="M102.049 842.034C112.3 841.964 128.098 839.362 135.141 835.178C141.017 831.687 150.24 824.315 153.462 813.183C153.462 813.183 135.804 811.486 126.874 810.683C117.944 809.879 96.2079 808.54 85.5545 809.343C74.9011 810.147 65.0126 813.183 65.0126 813.183L65.0115 813.313C65.0045 814.188 64.9975 815.068 64.9888 815.952C64.8995 824.971 64.2863 830.597 67.4904 837.712C68.1775 837.965 68.8767 838.211 69.586 838.455C73.2454 839.713 79.2173 840.638 85.5545 841.206C90.8118 841.678 97.4002 842.066 102.049 842.034Z" fill="white"/>
<path d="M150.675 812.325C150.675 810.651 156.203 809.87 156.412 811.551C156.622 813.232 154.39 813.232 154.39 813.232C154.39 813.232 150.675 813.999 150.675 812.325Z" fill="black"/>
<path d="M153.587 806.624C153.571 807.068 153.917 807.44 154.36 807.457C154.804 807.473 155.176 807.127 155.193 806.684L153.587 806.624ZM135.141 835.178L135.552 835.868L135.141 835.178ZM102.049 842.034L102.043 841.231L102.049 842.034ZM69.586 838.455L69.8472 837.696L69.586 838.455ZM53.7551 827.227L54.4673 826.856L53.7551 827.227ZM49.0119 808.467L49.8146 808.436L49.0119 808.467ZM52.9178 785.104L52.1878 784.769L52.9178 785.104ZM64.2863 771.854L63.9723 771.115L63.9723 771.115L64.2863 771.854ZM100.411 769.762L100.302 770.558L100.302 770.558L100.411 769.762ZM128.377 774.574L128.66 773.822L128.377 774.574ZM106.441 770.51L106.349 771.308L106.441 770.51ZM72.6914 770.153L72.5962 769.355L72.6914 770.153ZM67.4904 837.712L67.2129 838.466L67.2129 838.466L67.4904 837.712ZM152.581 816.99C152.705 816.563 152.459 816.118 152.033 815.995C151.607 815.871 151.161 816.117 151.038 816.543L152.581 816.99ZM118.611 802.162C118.686 802.599 119.102 802.892 119.539 802.817C119.976 802.742 120.269 802.326 120.194 801.889L118.611 802.162ZM113.259 810.865C113.701 810.828 114.03 810.44 113.993 809.997C113.956 809.555 113.568 809.227 113.126 809.264L113.259 810.865ZM154.39 813.232V812.428H154.308L154.228 812.445L154.39 813.232ZM50.6312 819.622L49.86 819.846L50.6312 819.622ZM60.2119 817.922C60.619 817.746 60.8061 817.273 60.6299 816.866C60.4536 816.458 59.9806 816.271 59.5735 816.448L60.2119 817.922ZM59.7513 803.199C60.188 803.277 60.6054 802.986 60.6835 802.55C60.7615 802.113 60.4708 801.696 60.0341 801.617L59.7513 803.199ZM62.8554 787.055C63.2778 787.19 63.7301 786.958 63.8656 786.535C64.0011 786.113 63.7685 785.661 63.3461 785.525L62.8554 787.055ZM141.753 795.808C142.079 795.508 142.101 795 141.801 794.673C141.5 794.346 140.992 794.325 140.666 794.625L141.753 795.808ZM136.342 798.601C136.015 798.901 135.994 799.409 136.294 799.736C136.594 800.062 137.102 800.083 137.429 799.783L136.342 798.601ZM137.001 795.019C136.631 794.773 136.132 794.874 135.887 795.243C135.641 795.613 135.742 796.111 136.111 796.357L137.001 795.019ZM140.765 799.45C141.134 799.696 141.633 799.595 141.878 799.226C142.124 798.856 142.023 798.358 141.654 798.112L140.765 799.45ZM134.731 834.487C131.333 836.505 125.736 838.182 119.645 839.36C113.576 840.534 107.113 841.196 102.043 841.231L102.054 842.837C107.235 842.802 113.797 842.128 119.951 840.937C126.082 839.751 131.906 838.034 135.552 835.868L134.731 834.487ZM128.093 775.325C131.936 776.775 138.482 780.936 143.997 786.623C149.523 792.321 153.854 799.387 153.587 806.624L155.193 806.684C155.484 798.788 150.783 791.313 145.151 785.504C139.507 779.684 132.768 775.371 128.66 773.822L128.093 775.325ZM102.043 841.231C97.4312 841.262 90.8714 840.877 85.6263 840.406L85.4827 842.006C90.7522 842.479 97.3692 842.869 102.054 842.837L102.043 841.231ZM85.6263 840.406C79.2973 839.838 73.4083 838.92 69.8472 837.696L69.3249 839.215C73.0824 840.507 79.1372 841.437 85.4827 842.006L85.6263 840.406ZM85.5545 841.206C84.757 841.302 84.757 841.302 84.757 841.302C84.757 841.302 84.757 841.303 84.7571 841.303C84.7571 841.303 84.7572 841.304 84.7572 841.304C84.7574 841.306 84.7576 841.307 84.7579 841.31C84.7585 841.315 84.7594 841.322 84.7606 841.332C84.7629 841.351 84.7664 841.379 84.7709 841.416C84.78 841.489 84.7935 841.598 84.8112 841.737C84.8466 842.016 84.8987 842.419 84.9658 842.916C85.1 843.91 85.2943 845.283 85.5347 846.801C86.0129 849.817 86.6829 853.462 87.4385 855.805L88.9675 855.311C88.2548 853.102 87.6005 849.571 87.1215 846.549C86.8834 845.047 86.6909 843.686 86.5579 842.701C86.4914 842.208 86.4399 841.81 86.405 841.535C86.3875 841.397 86.3742 841.291 86.3653 841.219C86.3609 841.183 86.3575 841.155 86.3553 841.137C86.3542 841.128 86.3534 841.121 86.3528 841.117C86.3525 841.114 86.3523 841.113 86.3522 841.112C86.3521 841.111 86.3521 841.111 86.3521 841.11C86.352 841.11 86.352 841.11 86.352 841.11C86.352 841.11 86.352 841.11 85.5545 841.206ZM87.4385 855.805C87.7994 856.924 88.0947 858.033 88.3966 859.109C88.6945 860.17 89 861.202 89.3723 862.102C89.7432 862.999 90.2053 863.829 90.8506 864.447C91.5178 865.086 92.3528 865.471 93.3863 865.507L93.4423 863.902C92.8163 863.88 92.3536 863.662 91.962 863.287C91.5484 862.89 91.1904 862.294 90.8569 861.488C90.5249 860.685 90.2416 859.737 89.9434 858.675C89.6491 857.626 89.3408 856.469 88.9675 855.311L87.4385 855.805ZM93.3863 865.507C94.5474 865.548 95.4765 864.934 96.1879 864.112C96.894 863.296 97.4608 862.196 97.9275 861.04C98.8595 858.732 99.4911 855.935 99.9613 854.152L98.4079 853.742C97.9141 855.614 97.32 858.254 96.4377 860.439C95.9972 861.53 95.5096 862.441 94.9733 863.061C94.4422 863.674 93.9408 863.919 93.4423 863.902L93.3863 865.507ZM99.9613 854.152C100.446 852.314 101.165 849.326 101.76 846.805C102.058 845.543 102.326 844.396 102.519 843.564C102.616 843.148 102.694 842.81 102.748 842.577C102.775 842.46 102.796 842.37 102.81 842.308C102.817 842.278 102.822 842.254 102.826 842.238C102.828 842.23 102.829 842.224 102.83 842.22C102.83 842.218 102.831 842.217 102.831 842.216C102.831 842.215 102.831 842.215 102.831 842.215C102.831 842.215 102.831 842.214 102.831 842.214C102.831 842.214 102.831 842.214 102.049 842.034C101.266 841.854 101.266 841.854 101.266 841.854C101.266 841.854 101.266 841.854 101.266 841.854C101.266 841.855 101.266 841.855 101.265 841.856C101.265 841.857 101.265 841.858 101.264 841.86C101.263 841.864 101.262 841.87 101.26 841.878C101.257 841.893 101.251 841.917 101.244 841.947C101.23 842.009 101.209 842.099 101.182 842.215C101.129 842.448 101.051 842.785 100.954 843.2C100.761 844.031 100.494 845.176 100.196 846.436C99.6006 848.958 98.8869 851.927 98.4079 853.742L99.9613 854.152ZM89.2306 769.993C93.4304 769.977 97.3492 770.151 100.302 770.558L100.521 768.966C97.4616 768.544 93.4579 768.37 89.2243 768.387L89.2306 769.993ZM89.2275 769.19C90.0295 769.145 90.0295 769.145 90.0295 769.145C90.0295 769.145 90.0294 769.145 90.0294 769.144C90.0294 769.144 90.0294 769.144 90.0294 769.143C90.0293 769.142 90.0292 769.14 90.0291 769.138C90.0288 769.134 90.0285 769.126 90.0279 769.117C90.0269 769.098 90.0254 769.07 90.0235 769.033C90.0196 768.958 90.0141 768.847 90.0075 768.704C89.9942 768.418 89.9764 768.003 89.9587 767.49C89.9233 766.462 89.888 765.042 89.8888 763.47C89.8905 760.3 90.0397 756.605 90.5961 754.251L89.0326 753.881C88.4282 756.439 88.2839 760.306 88.2823 763.469C88.2815 765.065 88.3172 766.504 88.3531 767.545C88.3711 768.066 88.3891 768.487 88.4026 768.779C88.4094 768.925 88.4151 769.038 88.4191 769.115C88.4211 769.154 88.4227 769.184 88.4237 769.204C88.4243 769.214 88.4247 769.221 88.425 769.227C88.4251 769.229 88.4252 769.231 88.4253 769.233C88.4254 769.233 88.4254 769.234 88.4254 769.234C88.4254 769.234 88.4254 769.235 88.4254 769.235C88.4254 769.235 88.4254 769.235 89.2275 769.19ZM90.5961 754.251C91.1746 751.804 92.0106 748.666 93.0881 746.119C93.628 744.843 94.211 743.758 94.8248 742.989C95.4503 742.206 96.0111 741.869 96.4893 741.829L96.3559 740.228C95.2267 740.322 94.3029 741.068 93.5693 741.987C92.8241 742.92 92.1736 744.157 91.6085 745.493C90.4758 748.17 89.615 751.417 89.0326 753.881L90.5961 754.251ZM96.4893 741.829C96.8538 741.799 97.4266 742.067 98.182 743.031C98.8981 743.945 99.6138 745.279 100.284 746.838C101.619 749.947 102.698 753.776 103.225 756.454L104.801 756.144C104.257 753.375 103.148 749.435 101.76 746.204C101.068 744.593 100.287 743.113 99.4464 742.04C98.6446 741.017 97.5989 740.125 96.3559 740.228L96.4893 741.829ZM100.302 770.558C102.334 770.838 104.355 771.079 106.349 771.308L106.533 769.712C104.542 769.483 102.535 769.244 100.521 768.966L100.302 770.558ZM106.349 771.308C114.357 772.23 121.848 772.97 128.093 775.325L128.66 773.822C122.185 771.38 114.458 770.625 106.533 769.712L106.349 771.308ZM103.225 756.454C103.758 759.165 104.364 762.708 104.836 765.578C105.072 767.012 105.275 768.276 105.419 769.182C105.491 769.635 105.548 769.998 105.587 770.247C105.606 770.372 105.621 770.469 105.632 770.534C105.637 770.567 105.641 770.592 105.643 770.608C105.644 770.617 105.645 770.623 105.646 770.627C105.646 770.629 105.647 770.631 105.647 770.632C105.647 770.632 105.647 770.633 105.647 770.633C105.647 770.633 105.647 770.633 105.647 770.633C105.647 770.633 105.647 770.633 106.441 770.51C107.235 770.388 107.235 770.388 107.235 770.387C107.235 770.387 107.235 770.387 107.235 770.387C107.235 770.387 107.234 770.386 107.234 770.386C107.234 770.385 107.234 770.383 107.234 770.381C107.233 770.377 107.232 770.37 107.231 770.362C107.228 770.345 107.224 770.32 107.219 770.287C107.209 770.221 107.194 770.124 107.174 769.999C107.135 769.748 107.078 769.384 107.006 768.93C106.862 768.022 106.658 766.755 106.421 765.317C105.948 762.444 105.34 758.881 104.801 756.144L103.225 756.454ZM64.6003 772.593C66.0459 771.979 68.9976 771.403 72.7867 770.95L72.5962 769.355C68.8228 769.806 65.6556 770.4 63.9723 771.115L64.6003 772.593ZM72.7867 770.95C77.6188 770.373 83.649 770.015 89.2306 769.993L89.2243 768.387C83.5876 768.409 77.4956 768.77 72.5962 769.355L72.7867 770.95ZM69.8472 837.696C69.1414 837.453 68.448 837.209 67.7678 836.959L67.2129 838.466C67.9071 838.722 68.612 838.97 69.3249 839.215L69.8472 837.696ZM67.7678 836.959C62.022 834.844 57.3179 832.319 54.4673 826.856L53.0429 827.599C56.178 833.608 61.3618 836.312 67.2129 838.466L67.7678 836.959ZM151.038 816.543C147.915 827.332 140.636 830.979 134.731 834.487L135.552 835.868C141.397 832.395 149.26 828.466 152.581 816.99L151.038 816.543ZM120.194 801.889C120.115 801.429 119.827 800.831 119.506 800.258C119.166 799.652 118.724 798.965 118.25 798.294C117.775 797.622 117.259 796.954 116.766 796.387C116.285 795.833 115.787 795.329 115.35 795.027L114.437 796.349C114.701 796.531 115.091 796.908 115.553 797.44C116.004 797.959 116.488 798.584 116.938 799.221C117.389 799.859 117.798 800.498 118.105 801.044C118.43 801.624 118.584 802.005 118.611 802.162L120.194 801.889ZM115.35 795.027C114.588 794.5 113.457 793.909 112.26 793.619C111.08 793.333 109.672 793.305 108.542 794.152L109.506 795.437C110.078 795.009 110.903 794.943 111.882 795.18C112.845 795.413 113.797 795.906 114.437 796.349L115.35 795.027ZM108.542 794.152C107.454 794.968 106.847 796.454 106.518 797.914C106.18 799.414 106.092 801.076 106.181 802.46L107.784 802.356C107.703 801.103 107.785 799.597 108.085 798.268C108.394 796.899 108.893 795.897 109.506 795.437L108.542 794.152ZM106.181 802.46C106.362 805.262 107.448 807.625 108.881 809.058L110.017 807.922C108.899 806.804 107.944 804.828 107.784 802.356L106.181 802.46ZM108.881 809.058C110.317 810.494 111.992 810.97 113.259 810.865L113.126 809.264C112.351 809.328 111.134 809.039 110.017 807.922L108.881 809.058ZM151.478 812.325C151.478 812.38 151.454 812.223 151.924 811.968C152.338 811.744 152.936 811.564 153.575 811.476C154.217 811.387 154.817 811.402 155.233 811.506C155.704 811.624 155.628 811.754 155.615 811.65L157.21 811.451C157.092 810.507 156.247 810.104 155.623 809.948C154.943 809.778 154.122 809.778 153.355 809.884C152.586 809.99 151.789 810.214 151.16 810.555C150.587 810.865 149.872 811.433 149.872 812.325H151.478ZM155.615 811.65C155.644 811.878 155.589 811.979 155.545 812.036C155.485 812.115 155.371 812.201 155.185 812.274C155.002 812.347 154.8 812.387 154.634 812.408C154.553 812.419 154.486 812.424 154.442 812.426C154.42 812.427 154.404 812.428 154.395 812.428C154.39 812.428 154.388 812.428 154.387 812.428C154.386 812.428 154.386 812.428 154.387 812.428C154.387 812.428 154.388 812.428 154.388 812.428C154.388 812.428 154.389 812.428 154.389 812.428C154.389 812.428 154.389 812.428 154.389 812.428C154.39 812.428 154.39 812.428 154.39 813.232C154.39 814.035 154.39 814.035 154.391 814.035C154.391 814.035 154.391 814.035 154.391 814.035C154.392 814.035 154.392 814.035 154.393 814.035C154.394 814.035 154.395 814.035 154.396 814.035C154.399 814.035 154.402 814.035 154.406 814.035C154.414 814.035 154.424 814.034 154.435 814.034C154.459 814.034 154.49 814.032 154.529 814.03C154.606 814.026 154.712 814.018 154.837 814.002C155.082 813.971 155.426 813.906 155.775 813.769C156.12 813.632 156.525 813.403 156.824 813.009C157.14 812.593 157.286 812.064 157.21 811.451L155.615 811.65ZM154.39 813.232C154.228 812.445 154.228 812.445 154.228 812.445C154.228 812.445 154.228 812.445 154.228 812.445C154.228 812.445 154.228 812.445 154.228 812.445C154.228 812.445 154.228 812.445 154.228 812.445C154.227 812.445 154.225 812.445 154.222 812.446C154.217 812.447 154.209 812.449 154.197 812.451C154.174 812.455 154.139 812.462 154.092 812.47C154 812.486 153.866 812.508 153.705 812.529C153.378 812.572 152.957 812.61 152.548 812.603C152.119 812.595 151.791 812.537 151.597 812.446C151.509 812.404 151.485 812.373 151.483 812.371C151.483 812.37 151.483 812.371 151.483 812.369C151.482 812.368 151.478 812.354 151.478 812.325H149.872C149.872 812.693 149.977 813.032 150.186 813.318C150.387 813.594 150.654 813.778 150.914 813.9C151.417 814.136 152.017 814.2 152.517 814.209C153.037 814.219 153.544 814.17 153.914 814.122C154.101 814.097 154.258 814.072 154.368 814.053C154.424 814.043 154.468 814.035 154.499 814.029C154.515 814.026 154.527 814.023 154.536 814.022C154.541 814.021 154.544 814.02 154.547 814.019C154.548 814.019 154.55 814.019 154.55 814.019C154.551 814.019 154.551 814.018 154.552 814.018C154.552 814.018 154.552 814.018 154.552 814.018C154.552 814.018 154.552 814.018 154.39 813.232ZM54.4673 826.856C53.0927 824.221 52.1065 821.814 51.4024 819.397L49.86 819.846C50.598 822.38 51.6271 824.885 53.0429 827.599L54.4673 826.856ZM51.4024 819.397C50.4176 816.016 49.9757 812.584 49.8146 808.436L48.2093 808.498C48.3735 812.729 48.8269 816.3 49.86 819.846L51.4024 819.397ZM50.6312 819.622C50.7303 820.419 50.7303 820.419 50.7304 820.419C50.7304 820.419 50.7305 820.419 50.7306 820.419C50.7307 820.419 50.7309 820.419 50.7311 820.419C50.7316 820.419 50.7321 820.419 50.7329 820.418C50.7343 820.418 50.7364 820.418 50.7391 820.418C50.7444 820.417 50.7522 820.416 50.7622 820.415C50.7822 820.412 50.8115 820.408 50.8493 820.403C50.9248 820.393 51.0345 820.378 51.1729 820.359C51.4496 820.32 51.8418 820.261 52.3062 820.184C53.2322 820.03 54.4574 819.8 55.6304 819.497L55.2284 817.941C54.1193 818.228 52.9453 818.449 52.0428 818.599C51.5929 818.674 51.2135 818.73 50.9471 818.768C50.814 818.787 50.7092 818.801 50.6382 818.811C50.6028 818.815 50.5757 818.819 50.5578 818.821C50.5488 818.822 50.5422 818.823 50.5378 818.824C50.5357 818.824 50.5341 818.824 50.5332 818.824C50.5327 818.824 50.5323 818.824 50.5322 818.824C50.5321 818.824 50.532 818.824 50.532 818.824C50.532 818.824 50.532 818.824 50.532 818.824C50.532 818.824 50.5321 818.824 50.6312 819.622ZM55.6304 819.497C56.8082 819.192 57.9525 818.799 58.7976 818.483C59.2214 818.325 59.5728 818.186 59.8191 818.086C59.9423 818.035 60.0394 817.995 60.1062 817.967C60.1396 817.953 60.1654 817.942 60.1832 817.934C60.1921 817.93 60.199 817.927 60.2038 817.925C60.2062 817.924 60.2081 817.924 60.2094 817.923C60.2101 817.923 60.2107 817.922 60.2111 817.922C60.2113 817.922 60.2115 817.922 60.2116 817.922C60.2117 817.922 60.2117 817.922 60.2118 817.922C60.2119 817.922 60.2119 817.922 59.8927 817.185C59.5735 816.448 59.5736 816.448 59.5736 816.448C59.5736 816.448 59.5736 816.448 59.5736 816.448C59.5737 816.448 59.5736 816.448 59.5736 816.448C59.5735 816.448 59.5732 816.448 59.5728 816.448C59.5721 816.448 59.5708 816.449 59.569 816.45C59.5654 816.451 59.5598 816.454 59.5521 816.457C59.5369 816.463 59.5136 816.473 59.4829 816.486C59.4215 816.512 59.3303 816.55 59.2134 816.598C58.9794 816.693 58.6428 816.826 58.2361 816.978C57.42 817.283 56.3326 817.656 55.2284 817.941L55.6304 819.497ZM49.8146 808.436C49.742 806.566 49.7604 804.543 49.8843 802.456L48.2806 802.361C48.1537 804.499 48.1345 806.574 48.2093 808.498L49.8146 808.436ZM49.8843 802.456C50.2304 796.626 51.3951 790.346 53.6478 785.44L52.1878 784.769C49.822 789.921 48.6333 796.418 48.2806 802.361L49.8843 802.456ZM49.0825 802.408C49.1573 803.208 49.1573 803.208 49.1573 803.208C49.1574 803.208 49.1574 803.208 49.1574 803.208C49.1575 803.208 49.1576 803.208 49.1578 803.208C49.1581 803.208 49.1587 803.208 49.1594 803.208C49.1609 803.208 49.1632 803.207 49.1663 803.207C49.1725 803.207 49.1817 803.206 49.1939 803.205C49.2184 803.202 49.2547 803.199 49.302 803.195C49.3965 803.186 49.5346 803.174 49.7082 803.159C50.0555 803.129 50.5443 803.088 51.1099 803.045C52.2439 802.959 53.6765 802.864 54.895 802.828L54.8479 801.222C53.5918 801.259 52.1299 801.356 50.988 801.443C50.4158 801.487 49.9213 801.528 49.5698 801.558C49.394 801.573 49.2538 801.586 49.1574 801.595C49.1092 801.599 49.072 801.602 49.0467 801.605C49.034 801.606 49.0244 801.607 49.0178 801.607C49.0145 801.608 49.012 801.608 49.0103 801.608C49.0095 801.608 49.0088 801.608 49.0084 801.608C49.0081 801.608 49.008 801.608 49.0078 801.608C49.0078 801.608 49.0077 801.608 49.0077 801.608C49.0076 801.608 49.0076 801.608 49.0825 802.408ZM54.895 802.828C56.0807 802.793 57.2954 802.885 58.2217 802.988C58.6828 803.039 59.0682 803.092 59.3371 803.133C59.4716 803.153 59.5767 803.17 59.6475 803.181C59.6828 803.187 59.7096 803.192 59.7271 803.195C59.7359 803.196 59.7423 803.197 59.7464 803.198C59.7484 803.198 59.7499 803.199 59.7507 803.199C59.7511 803.199 59.7514 803.199 59.7515 803.199C59.7515 803.199 59.7515 803.199 59.7515 803.199C59.7515 803.199 59.7515 803.199 59.7514 803.199C59.7514 803.199 59.7513 803.199 59.8927 802.408C60.0341 801.617 60.034 801.617 60.0339 801.617C60.0339 801.617 60.0338 801.617 60.0337 801.617C60.0335 801.617 60.0333 801.617 60.033 801.617C60.0325 801.617 60.0319 801.617 60.031 801.617C60.0294 801.617 60.0271 801.616 60.0243 801.616C60.0185 801.615 60.0104 801.613 59.9999 801.611C59.9789 801.608 59.9486 801.603 59.9095 801.596C59.8313 801.583 59.7182 801.565 59.5752 801.544C59.2893 801.501 58.8833 801.445 58.3985 801.391C57.4328 801.284 56.1368 801.185 54.8479 801.222L54.895 802.828ZM53.6478 785.44C53.7732 785.167 53.8985 784.898 54.0239 784.633L52.5722 783.945C52.4439 784.216 52.3158 784.491 52.1878 784.769L53.6478 785.44ZM54.0239 784.633C57.0084 778.338 59.9856 774.553 64.6003 772.593L63.9723 771.115C58.8161 773.304 55.6171 777.522 52.5722 783.945L54.0239 784.633ZM53.1752 785.083C54.0721 785.222 55.0559 785.319 56.0007 785.432C56.9615 785.546 57.9081 785.678 58.8034 785.887L59.1688 784.322C58.1831 784.092 57.164 783.952 56.1901 783.836C55.2002 783.719 54.2805 783.628 53.4208 783.495L53.1752 785.083ZM58.8034 785.887C60.6466 786.317 61.6156 786.657 62.8554 787.055L63.3461 785.525C62.1217 785.132 61.0876 784.77 59.1688 784.322L58.8034 785.887ZM140.666 794.625L136.342 798.601L137.429 799.783L141.753 795.808L140.666 794.625ZM136.111 796.357L140.765 799.45L141.654 798.112L137.001 795.019L136.111 796.357Z" fill="black"/>
</svg>
