<svg width="701" height="901" viewBox="0 0 701 901" fill="none" xmlns="http://www.w3.org/2000/svg">
<path d="M613.934 750.189C613.278 750.228 612.665 752.073 612.665 753.406C612.665 754.738 613.489 756.313 614.17 756.316C614.851 756.32 615.018 754.563 615.088 753.406C615.159 752.248 614.589 750.15 613.934 750.189Z" fill="black"/>
<path d="M590.658 751.941C589.987 751.901 589.564 753.825 589.564 755.158C589.564 756.491 590.496 758.289 590.894 758.069C591.292 757.848 591.888 756.315 591.959 755.158C592.029 754.001 591.329 751.982 590.658 751.941Z" fill="black"/>
<path d="M602.88 762.021C602.333 762.044 601.261 763.025 601.762 763.595C602.264 764.165 604.362 764.051 604.499 763.367C604.636 762.682 603.427 761.998 602.88 762.021Z" fill="black"/>
<path fill-rule="evenodd" clip-rule="evenodd" d="M631.809 785.213C629.985 780.689 625.866 776.243 625.777 774.061C625.688 771.878 627.636 769.642 629.144 765.854C629.399 765.214 629.594 764.581 629.74 763.957C630.458 760.892 630.002 758.033 629.74 755.44C629.424 752.318 626.689 748.146 626.654 745.445C626.619 742.744 629.003 738.361 629.74 735.1C630.476 731.839 631.353 727.21 631.213 722.055C631.072 716.899 630.19 711.773 626.824 711.738C623.457 711.703 618.378 716.619 616.204 718.583C614.03 720.547 610.242 725.771 609.12 726.438C607.999 727.105 603.65 726.333 600.529 726.719C597.407 727.104 594.462 728.578 592.323 728.402C590.183 728.226 582.364 725.492 579.558 724.544C576.752 723.597 570.72 721.774 568.371 723.142C566.021 724.509 567.388 728.928 569.493 734.048C571.597 739.168 577.558 745.726 578.295 747.304C579.031 748.882 577.348 752.003 576.331 755.405C576.12 756.109 575.97 756.943 575.872 757.848C575.619 760.201 575.723 763.04 576.06 765.361C576.219 766.461 576.431 767.444 576.681 768.204C577.663 771.185 581.311 773.324 581.907 775.639C582.503 777.953 580.434 786.65 579.557 792.682C578.68 798.714 579.837 813.688 580.855 819.755C581.872 825.822 585.308 830.685 586.255 834.343C587.203 838.001 587.447 840.41 588.78 844.653C590.113 848.897 591.306 849.458 593.269 849.668C595.232 849.879 595.724 847.95 596.073 845.39C596.073 845.39 596.684 851.639 599.816 851.941C602.947 852.243 603.987 850.615 604.478 849.668C604.969 848.721 605.718 846.775 605.718 846.775C605.718 846.775 606.315 844.934 607.261 842.374C608.207 839.814 609.365 838.622 609.47 832.59C608.449 828.721 608.474 819.69 612.065 818.528C615.657 817.365 617.379 821.155 619.219 827.33C621.06 833.505 625.321 835.15 627.986 835.255C630.652 835.36 635.035 834.052 636.052 829.609C637.069 825.166 636.846 817.335 636.648 813.618C636.648 813.618 636.24 808.083 636.052 805.482C635.864 802.882 633.632 789.736 631.809 785.213ZM612.665 753.406C612.665 752.073 613.278 750.228 613.934 750.189C614.589 750.15 615.159 752.248 615.088 753.406C615.018 754.563 614.851 756.32 614.17 756.316C613.489 756.313 612.665 754.738 612.665 753.406ZM589.564 755.158C589.564 753.825 589.987 751.901 590.658 751.941C591.329 751.982 592.029 754.001 591.959 755.158C591.888 756.315 591.292 757.848 590.894 758.069C590.496 758.289 589.564 756.491 589.564 755.158ZM601.762 763.595C601.261 763.025 602.333 762.044 602.88 762.021C603.427 761.998 604.636 762.682 604.499 763.367C604.362 764.051 602.264 764.165 601.762 763.595Z" fill="white"/>
<path d="M644.609 822.666C642.189 815.932 636.648 813.618 636.648 813.618C636.846 817.335 637.069 825.166 636.052 829.609C635.035 834.052 630.652 835.36 627.986 835.255C625.321 835.15 621.06 833.505 619.219 827.33C617.379 821.155 615.657 817.365 612.065 818.528C608.474 819.69 608.449 828.721 609.47 832.59C610.492 836.458 613.417 840.865 618.273 844.303C622.71 847.318 626.479 848.02 631.353 847.599C636.228 847.178 640.366 843.11 642.54 839.042C644.714 834.975 647.029 829.399 644.609 822.666Z" fill="white"/>
<path d="M618.273 844.303C613.417 840.865 610.492 836.458 609.47 832.59C609.365 838.622 608.207 839.814 607.261 842.374C606.315 844.934 605.718 846.775 605.718 846.775H611.224C614.42 846.775 616.223 845.038 618.273 844.303Z" fill="white"/>
<path d="M592.182 812.319C591.775 811.292 590.612 810.79 589.585 811.198C588.559 811.605 588.057 812.768 588.464 813.795L592.182 812.319ZM576.681 768.204L578.581 767.579L576.681 768.204ZM576.331 755.405L578.247 755.977L576.331 755.405ZM629.144 765.854L631.002 766.594L629.144 765.854ZM621.508 757.064C620.603 757.698 620.385 758.946 621.019 759.85C621.654 760.754 622.901 760.973 623.805 760.338L621.508 757.064ZM640.948 756.166C642.053 756.166 642.948 755.27 642.948 754.166C642.948 753.061 642.053 752.166 640.948 752.166V756.166ZM623.719 761.59C622.615 761.59 621.719 762.486 621.719 763.59C621.719 764.695 622.615 765.59 623.719 765.59V761.59ZM640.013 766.725C641.113 766.823 642.085 766.011 642.183 764.91C642.281 763.81 641.469 762.839 640.368 762.741L640.013 766.725ZM584.02 760.202C585.117 760.331 586.111 759.547 586.241 758.45C586.371 757.354 585.587 756.359 584.49 756.229L584.02 760.202ZM566.703 756.223C565.603 756.32 564.789 757.291 564.887 758.391C564.984 759.492 565.955 760.305 567.055 760.208L566.703 756.223ZM584.596 765.119C585.684 764.931 586.414 763.896 586.226 762.808C586.038 761.719 585.003 760.99 583.914 761.178L584.596 765.119ZM567.838 767.692C566.891 768.26 566.583 769.488 567.152 770.436C567.72 771.383 568.948 771.69 569.895 771.122L567.838 767.692ZM623.779 774.143C623.821 775.181 624.299 776.217 624.739 777.035C625.213 777.916 625.84 778.888 626.466 779.85C627.767 781.849 629.13 783.916 629.954 785.96L633.664 784.465C632.664 781.985 631.056 779.568 629.819 777.668C629.176 776.68 628.643 775.849 628.262 775.141C628.074 774.791 627.945 774.511 627.864 774.291C627.78 774.062 627.775 773.969 627.775 773.979L623.779 774.143ZM629.954 785.96C630.783 788.016 631.766 792.246 632.58 796.449C633.39 800.628 633.973 804.458 634.057 805.626L638.047 805.338C637.944 803.905 637.316 799.863 636.507 795.688C635.703 791.538 634.659 786.933 633.664 784.465L629.954 785.96ZM634.057 805.626C634.151 806.928 634.301 808.963 634.426 810.672C634.489 811.526 634.546 812.3 634.587 812.859C634.608 813.139 634.624 813.366 634.636 813.522C634.642 813.6 634.646 813.661 634.649 813.702C634.651 813.723 634.652 813.739 634.653 813.749C634.653 813.754 634.653 813.758 634.653 813.761C634.654 813.762 634.654 813.763 634.654 813.764C634.654 813.764 634.654 813.765 634.654 813.765C634.654 813.765 634.654 813.765 634.654 813.765C634.654 813.765 634.654 813.765 636.648 813.618C638.643 813.471 638.643 813.471 638.643 813.471C638.643 813.471 638.643 813.471 638.643 813.471C638.643 813.47 638.643 813.47 638.643 813.47C638.643 813.469 638.643 813.468 638.643 813.467C638.642 813.464 638.642 813.46 638.642 813.455C638.641 813.444 638.64 813.429 638.638 813.408C638.635 813.367 638.631 813.306 638.625 813.228C638.613 813.072 638.597 812.845 638.576 812.566C638.535 812.006 638.478 811.233 638.415 810.379C638.29 808.67 638.141 806.637 638.047 805.338L634.057 805.626ZM636.648 813.618C635.877 815.463 635.877 815.463 635.876 815.463C635.876 815.463 635.875 815.462 635.875 815.462C635.874 815.462 635.873 815.461 635.872 815.461C635.871 815.461 635.869 815.46 635.869 815.46C635.867 815.459 635.867 815.459 635.868 815.459C635.869 815.46 635.876 815.463 635.888 815.468C635.911 815.479 635.953 815.498 636.012 815.527C636.13 815.585 636.315 815.68 636.551 815.816C637.023 816.089 637.692 816.524 638.433 817.147C639.914 818.393 641.661 820.377 642.727 823.342L646.491 821.989C645.137 818.221 642.904 815.681 641.009 814.087C640.062 813.29 639.195 812.725 638.553 812.353C638.231 812.167 637.964 812.029 637.77 811.934C637.673 811.886 637.594 811.85 637.534 811.823C637.505 811.81 637.48 811.799 637.461 811.79C637.451 811.786 637.443 811.783 637.436 811.78C637.433 811.778 637.429 811.777 637.427 811.776C637.425 811.775 637.424 811.774 637.423 811.774C637.422 811.774 637.421 811.773 637.421 811.773C637.42 811.773 637.419 811.772 636.648 813.618ZM642.727 823.342C644.85 829.25 642.878 834.167 640.776 838.1L644.304 839.985C646.55 835.782 649.207 829.547 646.491 821.989L642.727 823.342ZM640.776 838.1C638.754 841.882 635.093 845.269 631.181 845.607L631.525 849.592C637.362 849.088 641.977 844.339 644.304 839.985L640.776 838.1ZM631.181 845.607C626.7 845.993 623.404 845.371 619.396 842.648L617.149 845.957C622.017 849.265 626.257 850.047 631.525 849.592L631.181 845.607ZM619.428 842.67C614.902 839.466 612.29 835.434 611.404 832.079L607.537 833.101C608.694 837.482 611.933 842.264 617.117 845.935L619.428 842.67ZM611.404 832.079C610.965 830.416 610.722 827.444 611.025 824.77C611.176 823.438 611.449 822.31 611.819 821.506C612.199 820.676 612.543 820.475 612.681 820.43L611.449 816.625C609.792 817.161 608.786 818.525 608.183 819.837C607.57 821.174 607.227 822.763 607.051 824.319C606.699 827.418 606.954 830.895 607.537 833.101L611.404 832.079ZM612.681 820.43C613.208 820.26 613.491 820.315 613.674 820.391C613.901 820.485 614.239 820.726 614.665 821.329C615.559 822.598 616.373 824.781 617.303 827.901L621.136 826.758C620.226 823.704 619.259 820.904 617.934 819.025C617.25 818.054 616.369 817.179 615.206 816.696C613.998 816.196 612.719 816.214 611.449 816.625L612.681 820.43ZM617.303 827.901C619.412 834.978 624.477 837.118 627.908 837.254L628.065 833.257C626.166 833.182 622.707 832.031 621.136 826.758L617.303 827.901ZM627.908 837.254C629.559 837.319 631.695 836.955 633.613 835.884C635.582 834.784 637.348 832.913 638.002 830.055L634.103 829.163C633.74 830.748 632.805 831.753 631.662 832.392C630.468 833.059 629.079 833.297 628.065 833.257L627.908 837.254ZM638.002 830.055C638.559 827.619 638.759 824.375 638.806 821.373C638.853 818.335 638.746 815.399 638.646 813.512L634.651 813.724C634.749 815.554 634.852 818.393 634.806 821.31C634.76 824.263 634.562 827.157 634.103 829.163L638.002 830.055ZM607.471 832.555C607.42 835.442 607.12 837.052 606.769 838.197C606.59 838.78 606.387 839.279 606.153 839.824C605.926 840.353 605.645 840.977 605.385 841.681L609.137 843.067C609.35 842.49 609.569 842.006 609.828 841.403C610.08 840.815 610.351 840.16 610.593 839.37C611.084 837.771 611.415 835.769 611.47 832.625L607.471 832.555ZM602.703 848.747C602.507 849.124 602.311 849.415 602.008 849.622C601.742 849.804 601.185 850.064 600.007 849.95L599.624 853.932C601.578 854.12 603.106 853.717 604.266 852.924C605.389 852.156 605.958 851.159 606.254 850.589L602.703 848.747ZM600.007 849.95C599.938 849.944 599.763 849.908 599.478 849.548C599.18 849.172 598.9 848.603 598.664 847.908C598.434 847.233 598.281 846.546 598.186 846.017C598.139 845.756 598.108 845.541 598.088 845.395C598.078 845.322 598.072 845.267 598.068 845.233C598.066 845.216 598.065 845.204 598.064 845.197C598.064 845.194 598.064 845.192 598.063 845.192C598.063 845.192 598.063 845.192 598.064 845.192C598.064 845.193 598.064 845.193 598.064 845.193C598.064 845.194 598.064 845.194 598.064 845.194C598.064 845.195 598.064 845.195 596.073 845.39C594.083 845.584 594.083 845.585 594.083 845.585C594.083 845.585 594.083 845.586 594.083 845.586C594.083 845.587 594.083 845.588 594.083 845.589C594.083 845.591 594.084 845.594 594.084 845.597C594.085 845.602 594.085 845.609 594.086 845.618C594.088 845.635 594.091 845.658 594.094 845.687C594.1 845.744 594.11 845.824 594.123 845.923C594.149 846.12 594.19 846.396 594.249 846.725C594.366 847.377 594.562 848.271 594.877 849.196C595.185 850.102 595.644 851.151 596.342 852.032C597.052 852.929 598.127 853.788 599.624 853.932L600.007 849.95ZM596.073 845.39C598.071 845.3 598.071 845.3 598.071 845.3C598.071 845.3 598.071 845.3 598.071 845.3C598.071 845.299 598.071 845.298 598.071 845.297C598.071 845.296 598.071 845.293 598.071 845.289C598.07 845.282 598.07 845.272 598.069 845.258C598.068 845.231 598.066 845.191 598.064 845.138C598.059 845.033 598.052 844.878 598.042 844.68C598.023 844.283 597.996 843.711 597.96 843.011C597.888 841.611 597.783 839.694 597.653 837.628C597.397 833.546 597.033 828.731 596.608 826.255L592.665 826.932C593.047 829.154 593.401 833.738 593.661 837.879C593.79 839.925 593.893 841.826 593.965 843.216C594.001 843.911 594.028 844.477 594.047 844.87C594.056 845.066 594.063 845.219 594.068 845.322C594.071 845.374 594.072 845.413 594.074 845.44C594.074 845.453 594.075 845.463 594.075 845.469C594.075 845.473 594.075 845.475 594.075 845.477C594.075 845.478 594.075 845.478 594.075 845.479C594.075 845.479 594.075 845.479 594.075 845.479C594.075 845.479 594.075 845.479 596.073 845.39ZM596.608 826.255C596.173 823.722 595.041 820.196 594.065 817.403C593.57 815.985 593.1 814.717 592.754 813.803C592.581 813.346 592.439 812.977 592.34 812.721C592.29 812.593 592.251 812.494 592.224 812.426C592.211 812.392 592.2 812.366 592.193 812.348C592.19 812.339 592.187 812.332 592.185 812.327C592.184 812.325 592.184 812.323 592.183 812.322C592.183 812.321 592.183 812.32 592.182 812.32C592.182 812.32 592.182 812.32 592.182 812.319C592.182 812.319 592.182 812.319 590.323 813.057C588.464 813.795 588.464 813.794 588.464 813.794C588.464 813.794 588.464 813.794 588.464 813.795C588.464 813.795 588.464 813.795 588.464 813.795C588.465 813.796 588.465 813.798 588.466 813.799C588.468 813.803 588.47 813.809 588.473 813.817C588.479 813.833 588.489 813.857 588.501 813.889C588.526 813.952 588.563 814.047 588.611 814.17C588.707 814.416 588.845 814.774 589.013 815.219C589.35 816.109 589.808 817.344 590.289 818.723C591.268 821.524 592.293 824.765 592.665 826.932L596.608 826.255ZM594.092 845.119C593.912 846.435 593.731 847.212 593.51 847.63C593.421 847.796 593.394 847.77 593.478 847.721C593.581 847.661 593.626 847.695 593.482 847.68L593.056 851.657C593.893 851.747 594.736 851.618 595.494 851.176C596.233 850.744 596.718 850.116 597.042 849.506C597.645 848.371 597.885 846.904 598.055 845.66L594.092 845.119ZM593.482 847.68C592.653 847.591 592.416 847.468 592.189 847.246C591.847 846.91 591.334 846.11 590.688 844.054L586.872 845.253C587.559 847.44 588.309 849.042 589.387 850.101C590.581 851.272 591.922 851.535 593.056 851.657L593.482 847.68ZM590.688 844.054C590.046 842.01 589.666 840.41 589.327 838.853C588.99 837.306 588.678 835.721 588.191 833.842L584.319 834.845C584.78 836.624 585.064 838.072 585.419 839.704C585.773 841.328 586.181 843.054 586.872 845.253L590.688 844.054ZM588.191 833.842C587.66 831.79 586.432 829.393 585.402 827.125C584.316 824.734 583.292 822.194 582.827 819.424L578.882 820.086C579.435 823.383 580.637 826.308 581.76 828.78C582.939 831.375 583.903 833.238 584.319 834.845L588.191 833.842ZM582.827 819.424C582.335 816.488 581.797 811.307 581.492 806.089C581.185 800.827 581.131 795.761 581.536 792.97L577.578 792.394C577.107 795.635 577.193 801.072 577.499 806.322C577.808 811.616 578.357 816.954 578.882 820.086L582.827 819.424ZM581.536 792.97C581.971 789.979 582.687 786.413 583.255 783.105C583.533 781.486 583.773 779.937 583.904 778.63C584.026 777.419 584.093 776.107 583.843 775.14L579.97 776.138C580.019 776.328 580.051 776.971 579.924 778.231C579.808 779.394 579.587 780.83 579.313 782.428C578.776 785.555 578.02 789.354 577.578 792.394L581.536 792.97ZM583.843 775.14C583.596 774.179 583.069 773.358 582.561 772.7C582.052 772.038 581.435 771.384 580.906 770.812C579.742 769.556 578.913 768.586 578.581 767.579L574.782 768.83C575.432 770.804 576.918 772.393 577.972 773.531C578.551 774.156 579.02 774.657 579.392 775.141C579.767 775.627 579.919 775.942 579.97 776.138L583.843 775.14ZM578.247 755.977C578.484 755.186 578.762 754.4 579.05 753.609C579.33 752.839 579.631 752.033 579.872 751.289C580.113 750.548 580.333 749.76 580.426 749.002C580.518 748.26 580.517 747.337 580.107 746.458L576.482 748.15C576.44 748.06 576.505 748.119 576.457 748.512C576.41 748.889 576.283 749.39 576.068 750.052C575.854 750.711 575.589 751.422 575.291 752.242C575 753.043 574.687 753.922 574.415 754.832L578.247 755.977ZM580.107 746.458C579.811 745.824 579.137 744.921 578.498 744.078C577.776 743.127 576.93 742.044 576.01 740.809C574.163 738.331 572.289 735.59 571.342 733.288L567.643 734.808C568.8 737.626 570.959 740.724 572.803 743.199C573.728 744.441 574.642 745.613 575.311 746.495C575.655 746.949 575.937 747.329 576.151 747.636C576.258 747.789 576.34 747.912 576.4 748.008C576.463 748.11 576.484 748.153 576.482 748.15L580.107 746.458ZM571.342 733.288C570.289 730.725 569.506 728.531 569.236 726.867C569.101 726.037 569.123 725.499 569.201 725.182C569.263 724.929 569.334 724.895 569.377 724.87L567.365 721.413C565 722.789 564.961 725.5 565.287 727.508C565.639 729.675 566.592 732.251 567.643 734.808L571.342 733.288ZM569.377 724.87C569.519 724.787 569.922 724.656 570.729 724.651C571.493 724.645 572.416 724.752 573.425 724.941C575.438 725.318 577.542 725.975 578.918 726.439L580.197 722.649C578.767 722.167 576.453 721.439 574.161 721.009C573.017 720.795 571.817 720.643 570.701 720.651C569.629 720.658 568.397 720.812 567.365 721.413L569.377 724.87ZM578.918 726.439C580.3 726.906 582.987 727.837 585.58 728.667C586.878 729.083 588.174 729.48 589.29 729.787C590.355 730.079 591.413 730.334 592.159 730.395L592.486 726.409C592.162 726.382 591.44 726.229 590.349 725.93C589.311 725.644 588.075 725.266 586.8 724.858C584.247 724.04 581.622 723.13 580.197 722.649L578.918 726.439ZM592.159 730.395C593.652 730.518 595.277 730.07 596.602 729.695C598.063 729.282 599.402 728.873 600.774 728.704L600.283 724.734C598.533 724.95 596.839 725.471 595.513 725.846C594.05 726.261 593.133 726.462 592.486 726.409L592.159 730.395ZM600.774 728.704C602.135 728.536 603.807 728.618 605.499 728.682C606.298 728.713 607.124 728.739 607.833 728.707C608.19 728.691 608.566 728.659 608.925 728.592C609.263 728.529 609.714 728.412 610.142 728.157L608.098 724.719C608.247 724.631 608.316 724.636 608.189 724.66C608.083 724.68 607.911 724.7 607.654 724.711C607.135 724.734 606.468 724.716 605.65 724.685C604.107 724.627 602.044 724.516 600.283 724.734L600.774 728.704ZM610.142 728.157C610.499 727.945 610.823 727.647 611.056 727.419C611.318 727.163 611.601 726.858 611.888 726.536C612.462 725.891 613.132 725.085 613.806 724.276C615.21 722.586 616.591 720.929 617.545 720.067L614.863 717.099C613.644 718.201 612.044 720.138 610.73 721.719C610.044 722.544 609.421 723.292 608.901 723.876C608.641 724.167 608.427 724.395 608.259 724.56C608.062 724.753 608.021 724.765 608.098 724.719L610.142 728.157ZM617.545 720.067C618.679 719.042 620.398 717.411 622.266 716.012C623.194 715.316 624.104 714.721 624.937 714.31C625.797 713.884 626.415 713.734 626.803 713.738L626.844 709.739C625.549 709.725 624.27 710.177 623.163 710.724C622.028 711.285 620.901 712.036 619.867 712.81C617.81 714.351 615.902 716.16 614.863 717.099L617.545 720.067ZM626.803 713.738C627.162 713.742 627.755 713.923 628.335 715.622C628.893 717.255 629.145 719.575 629.213 722.109L633.212 722C633.141 719.379 632.881 716.558 632.121 714.33C631.383 712.169 629.852 709.77 626.844 709.739L626.803 713.738ZM629.213 722.109C629.347 727.018 628.512 731.457 627.789 734.659L631.691 735.541C632.44 732.22 633.359 727.402 633.212 722L629.213 722.109ZM627.789 734.659C627.459 736.119 626.758 737.834 626.033 739.786C625.376 741.554 624.631 743.682 624.654 745.471L628.654 745.419C628.642 744.508 629.071 743.094 629.782 741.179C630.425 739.449 631.284 737.343 631.691 735.541L627.789 734.659ZM624.654 745.471C624.667 746.444 624.915 747.435 625.204 748.325C625.498 749.228 625.882 750.17 626.242 751.045C627.012 752.92 627.628 754.436 627.75 755.641L631.73 755.238C631.536 753.322 630.626 751.191 629.942 749.524C629.573 748.629 629.248 747.825 629.009 747.089C628.765 746.34 628.659 745.797 628.654 745.419L624.654 745.471ZM627.286 765.115C626.577 766.895 625.794 768.247 625.079 769.653C624.424 770.939 623.71 772.471 623.779 774.143L627.775 773.979C627.755 773.468 627.97 772.791 628.644 771.467C629.257 770.262 630.203 768.602 631.002 766.594L627.286 765.115ZM605.385 841.681C604.906 842.978 604.515 844.094 604.243 844.886C604.107 845.282 604.001 845.598 603.929 845.816C603.893 845.925 603.865 846.009 603.846 846.067C603.836 846.096 603.829 846.118 603.824 846.133C603.822 846.141 603.82 846.147 603.818 846.151C603.818 846.153 603.817 846.155 603.817 846.156C603.817 846.156 603.816 846.157 603.816 846.157C603.816 846.157 603.816 846.158 603.816 846.158C603.816 846.158 603.816 846.158 603.816 846.158C603.816 846.158 603.816 846.158 605.718 846.775C607.621 847.392 607.621 847.392 607.621 847.392C607.621 847.392 607.621 847.392 607.621 847.392C607.621 847.392 607.621 847.392 607.621 847.392C607.621 847.392 607.621 847.392 607.621 847.391C607.621 847.391 607.622 847.39 607.622 847.388C607.623 847.385 607.625 847.38 607.627 847.374C607.631 847.361 607.637 847.341 607.646 847.315C607.664 847.262 607.69 847.182 607.724 847.079C607.793 846.871 607.895 846.567 608.027 846.183C608.29 845.415 608.671 844.33 609.137 843.067L605.385 841.681ZM605.718 846.775C603.852 846.056 603.852 846.056 603.852 846.056C603.852 846.056 603.852 846.056 603.852 846.056C603.852 846.056 603.852 846.056 603.852 846.056C603.852 846.056 603.852 846.056 603.852 846.057C603.852 846.057 603.851 846.059 603.851 846.06C603.849 846.063 603.847 846.068 603.845 846.075C603.84 846.088 603.832 846.108 603.822 846.134C603.801 846.187 603.771 846.264 603.734 846.359C603.658 846.55 603.553 846.814 603.433 847.106C603.183 847.712 602.903 848.361 602.703 848.747L606.254 850.589C606.544 850.028 606.884 849.231 607.132 848.627C607.261 848.314 607.373 848.032 607.454 847.829C607.494 847.727 607.526 847.644 607.549 847.586C607.56 847.557 607.569 847.535 607.575 847.519C607.578 847.511 607.58 847.505 607.582 847.501C607.583 847.499 607.584 847.497 607.584 847.496C607.584 847.495 607.584 847.495 607.585 847.494C607.585 847.494 607.585 847.494 607.585 847.494C607.585 847.494 607.585 847.494 607.585 847.494C607.585 847.494 607.585 847.494 605.718 846.775ZM605.718 846.775C605.718 848.775 605.718 848.775 605.719 848.775C605.719 848.775 605.719 848.775 605.719 848.775C605.719 848.775 605.719 848.775 605.719 848.775C605.719 848.775 605.719 848.775 605.719 848.775C605.719 848.775 605.719 848.775 605.719 848.775C605.719 848.775 605.719 848.775 605.719 848.775C605.72 848.775 605.72 848.775 605.72 848.775C605.72 848.775 605.72 848.775 605.72 848.775C605.72 848.775 605.72 848.775 605.721 848.775C605.721 848.775 605.721 848.775 605.721 848.775C605.721 848.775 605.721 848.775 605.722 848.775C605.722 848.775 605.722 848.775 605.722 848.775C605.722 848.775 605.723 848.775 605.723 848.775C605.723 848.775 605.723 848.775 605.724 848.775C605.724 848.775 605.724 848.775 605.724 848.775C605.725 848.775 605.725 848.775 605.725 848.775C605.725 848.775 605.726 848.775 605.726 848.775C605.726 848.775 605.727 848.775 605.727 848.775C605.727 848.775 605.728 848.775 605.728 848.775C605.728 848.775 605.729 848.775 605.729 848.775C605.729 848.775 605.73 848.775 605.73 848.775C605.73 848.775 605.731 848.775 605.731 848.775C605.732 848.775 605.732 848.775 605.732 848.775C605.733 848.775 605.733 848.775 605.734 848.775C605.734 848.775 605.734 848.775 605.735 848.775C605.735 848.775 605.736 848.775 605.736 848.775C605.737 848.775 605.737 848.775 605.738 848.775C605.738 848.775 605.738 848.775 605.739 848.775C605.739 848.775 605.74 848.775 605.74 848.775C605.741 848.775 605.741 848.775 605.742 848.775C605.742 848.775 605.743 848.775 605.744 848.775C605.744 848.775 605.745 848.775 605.745 848.775C605.746 848.775 605.746 848.775 605.747 848.775C605.747 848.775 605.748 848.775 605.749 848.775C605.749 848.775 605.75 848.775 605.75 848.775C605.751 848.775 605.752 848.775 605.752 848.775C605.753 848.775 605.753 848.775 605.754 848.775C605.755 848.775 605.755 848.775 605.756 848.775C605.757 848.775 605.757 848.775 605.758 848.775C605.759 848.775 605.759 848.775 605.76 848.775C605.761 848.775 605.761 848.775 605.762 848.775C605.763 848.775 605.764 848.775 605.764 848.775C605.765 848.775 605.766 848.775 605.766 848.775C605.767 848.775 605.768 848.775 605.769 848.775C605.769 848.775 605.77 848.775 605.771 848.775C605.772 848.775 605.773 848.775 605.773 848.775C605.774 848.775 605.775 848.775 605.776 848.775C605.777 848.775 605.777 848.775 605.778 848.775C605.779 848.775 605.78 848.775 605.781 848.775C605.782 848.775 605.782 848.775 605.783 848.775C605.784 848.775 605.785 848.775 605.786 848.775C605.787 848.775 605.788 848.775 605.788 848.775C605.789 848.775 605.79 848.775 605.791 848.775C605.792 848.775 605.793 848.775 605.794 848.775C605.795 848.775 605.796 848.775 605.797 848.775C605.798 848.775 605.799 848.775 605.799 848.775C605.8 848.775 605.801 848.775 605.802 848.775C605.803 848.775 605.804 848.775 605.805 848.775C605.806 848.775 605.807 848.775 605.808 848.775C605.809 848.775 605.81 848.775 605.811 848.775C605.812 848.775 605.813 848.775 605.814 848.775C605.815 848.775 605.816 848.775 605.818 848.775C605.819 848.775 605.82 848.775 605.821 848.775C605.822 848.775 605.823 848.775 605.824 848.775C605.825 848.775 605.826 848.775 605.827 848.775C605.828 848.775 605.829 848.775 605.831 848.775C605.832 848.775 605.833 848.775 605.834 848.775C605.835 848.775 605.836 848.775 605.837 848.775C605.838 848.775 605.84 848.775 605.841 848.775C605.842 848.775 605.843 848.775 605.844 848.775C605.846 848.775 605.847 848.775 605.848 848.775C605.849 848.775 605.85 848.775 605.852 848.775C605.853 848.775 605.854 848.775 605.855 848.775C605.856 848.775 605.858 848.775 605.859 848.775C605.86 848.775 605.861 848.775 605.863 848.775C605.864 848.775 605.865 848.775 605.866 848.775C605.868 848.775 605.869 848.775 605.87 848.775C605.872 848.775 605.873 848.775 605.874 848.775C605.876 848.775 605.877 848.775 605.878 848.775C605.88 848.775 605.881 848.775 605.882 848.775C605.884 848.775 605.885 848.775 605.886 848.775C605.888 848.775 605.889 848.775 605.89 848.775C605.892 848.775 605.893 848.775 605.894 848.775C605.896 848.775 605.897 848.775 605.899 848.775C605.9 848.775 605.901 848.775 605.903 848.775C605.904 848.775 605.906 848.775 605.907 848.775C605.909 848.775 605.91 848.775 605.912 848.775C605.913 848.775 605.914 848.775 605.916 848.775C605.917 848.775 605.919 848.775 605.92 848.775C605.922 848.775 605.923 848.775 605.925 848.775C605.926 848.775 605.928 848.775 605.929 848.775C605.931 848.775 605.932 848.775 605.934 848.775C605.935 848.775 605.937 848.775 605.939 848.775C605.94 848.775 605.942 848.775 605.943 848.775C605.945 848.775 605.946 848.775 605.948 848.775C605.949 848.775 605.951 848.775 605.953 848.775C605.954 848.775 605.956 848.775 605.957 848.775C605.959 848.775 605.961 848.775 605.962 848.775C605.964 848.775 605.966 848.775 605.967 848.775C605.969 848.775 605.971 848.775 605.972 848.775C605.974 848.775 605.975 848.775 605.977 848.775C605.979 848.775 605.981 848.775 605.982 848.775C605.984 848.775 605.986 848.775 605.987 848.775C605.989 848.775 605.991 848.775 605.992 848.775C605.994 848.775 605.996 848.775 605.998 848.775C605.999 848.775 606.001 848.775 606.003 848.775C606.005 848.775 606.006 848.775 606.008 848.775C606.01 848.775 606.012 848.775 606.013 848.775C606.015 848.775 606.017 848.775 606.019 848.775C606.021 848.775 606.022 848.775 606.024 848.775C606.026 848.775 606.028 848.775 606.03 848.775C606.031 848.775 606.033 848.775 606.035 848.775C606.037 848.775 606.039 848.775 606.041 848.775C606.043 848.775 606.044 848.775 606.046 848.775C606.048 848.775 606.05 848.775 606.052 848.775C606.054 848.775 606.056 848.775 606.058 848.775C606.059 848.775 606.061 848.775 606.063 848.775C606.065 848.775 606.067 848.775 606.069 848.775C606.071 848.775 606.073 848.775 606.075 848.775C606.077 848.775 606.079 848.775 606.081 848.775C606.083 848.775 606.085 848.775 606.087 848.775C606.089 848.775 606.091 848.775 606.093 848.775C606.095 848.775 606.097 848.775 606.099 848.775C606.101 848.775 606.103 848.775 606.105 848.775C606.107 848.775 606.109 848.775 606.111 848.775C606.113 848.775 606.115 848.775 606.117 848.775C606.119 848.775 606.121 848.775 606.123 848.775C606.125 848.775 606.127 848.775 606.129 848.775C606.131 848.775 606.133 848.775 606.136 848.775C606.138 848.775 606.14 848.775 606.142 848.775C606.144 848.775 606.146 848.775 606.148 848.775C606.15 848.775 606.152 848.775 606.155 848.775C606.157 848.775 606.159 848.775 606.161 848.775C606.163 848.775 606.165 848.775 606.168 848.775C606.17 848.775 606.172 848.775 606.174 848.775C606.176 848.775 606.178 848.775 606.181 848.775C606.183 848.775 606.185 848.775 606.187 848.775C606.189 848.775 606.192 848.775 606.194 848.775C606.196 848.775 606.198 848.775 606.201 848.775C606.203 848.775 606.205 848.775 606.207 848.775C606.21 848.775 606.212 848.775 606.214 848.775C606.216 848.775 606.219 848.775 606.221 848.775C606.223 848.775 606.226 848.775 606.228 848.775C606.23 848.775 606.233 848.775 606.235 848.775C606.237 848.775 606.239 848.775 606.242 848.775C606.244 848.775 606.246 848.775 606.249 848.775C606.251 848.775 606.254 848.775 606.256 848.775C606.258 848.775 606.261 848.775 606.263 848.775C606.265 848.775 606.268 848.775 606.27 848.775C606.273 848.775 606.275 848.775 606.277 848.775C606.28 848.775 606.282 848.775 606.285 848.775C606.287 848.775 606.289 848.775 606.292 848.775C606.294 848.775 606.297 848.775 606.299 848.775C606.302 848.775 606.304 848.775 606.307 848.775C606.309 848.775 606.311 848.775 606.314 848.775C606.316 848.775 606.319 848.775 606.321 848.775C606.324 848.775 606.326 848.775 606.329 848.775C606.331 848.775 606.334 848.775 606.336 848.775C606.339 848.775 606.341 848.775 606.344 848.775C606.347 848.775 606.349 848.775 606.352 848.775C606.354 848.775 606.357 848.775 606.359 848.775C606.362 848.775 606.364 848.775 606.367 848.775C606.37 848.775 606.372 848.775 606.375 848.775C606.377 848.775 606.38 848.775 606.383 848.775C606.385 848.775 606.388 848.775 606.39 848.775C606.393 848.775 606.396 848.775 606.398 848.775C606.401 848.775 606.404 848.775 606.406 848.775C606.409 848.775 606.411 848.775 606.414 848.775C606.417 848.775 606.419 848.775 606.422 848.775C606.425 848.775 606.427 848.775 606.43 848.775C606.433 848.775 606.436 848.775 606.438 848.775C606.441 848.775 606.444 848.775 606.446 848.775C606.449 848.775 606.452 848.775 606.455 848.775C606.457 848.775 606.46 848.775 606.463 848.775C606.466 848.775 606.468 848.775 606.471 848.775C606.474 848.775 606.477 848.775 606.479 848.775C606.482 848.775 606.485 848.775 606.488 848.775C606.49 848.775 606.493 848.775 606.496 848.775C606.499 848.775 606.502 848.775 606.504 848.775C606.507 848.775 606.51 848.775 606.513 848.775C606.516 848.775 606.519 848.775 606.521 848.775C606.524 848.775 606.527 848.775 606.53 848.775C606.533 848.775 606.536 848.775 606.539 848.775C606.541 848.775 606.544 848.775 606.547 848.775C606.55 848.775 606.553 848.775 606.556 848.775C606.559 848.775 606.562 848.775 606.565 848.775C606.567 848.775 606.57 848.775 606.573 848.775C606.576 848.775 606.579 848.775 606.582 848.775C606.585 848.775 606.588 848.775 606.591 848.775C606.594 848.775 606.597 848.775 606.6 848.775C606.603 848.775 606.606 848.775 606.609 848.775C606.612 848.775 606.615 848.775 606.618 848.775C606.621 848.775 606.624 848.775 606.627 848.775C606.63 848.775 606.633 848.775 606.636 848.775C606.639 848.775 606.642 848.775 606.645 848.775C606.648 848.775 606.651 848.775 606.654 848.775C606.657 848.775 606.66 848.775 606.663 848.775C606.666 848.775 606.669 848.775 606.672 848.775C606.675 848.775 606.678 848.775 606.682 848.775C606.685 848.775 606.688 848.775 606.691 848.775C606.694 848.775 606.697 848.775 606.7 848.775C606.703 848.775 606.706 848.775 606.709 848.775C606.713 848.775 606.716 848.775 606.719 848.775C606.722 848.775 606.725 848.775 606.728 848.775C606.731 848.775 606.735 848.775 606.738 848.775C606.741 848.775 606.744 848.775 606.747 848.775C606.751 848.775 606.754 848.775 606.757 848.775C606.76 848.775 606.763 848.775 606.766 848.775C606.77 848.775 606.773 848.775 606.776 848.775C606.779 848.775 606.783 848.775 606.786 848.775C606.789 848.775 606.792 848.775 606.796 848.775C606.799 848.775 606.802 848.775 606.805 848.775C606.809 848.775 606.812 848.775 606.815 848.775C606.818 848.775 606.822 848.775 606.825 848.775C606.828 848.775 606.831 848.775 606.835 848.775C606.838 848.775 606.841 848.775 606.845 848.775C606.848 848.775 606.851 848.775 606.855 848.775C606.858 848.775 606.861 848.775 606.865 848.775C606.868 848.775 606.871 848.775 606.875 848.775C606.878 848.775 606.881 848.775 606.885 848.775C606.888 848.775 606.891 848.775 606.895 848.775C606.898 848.775 606.902 848.775 606.905 848.775C606.908 848.775 606.912 848.775 606.915 848.775C606.919 848.775 606.922 848.775 606.925 848.775C606.929 848.775 606.932 848.775 606.936 848.775C606.939 848.775 606.943 848.775 606.946 848.775C606.949 848.775 606.953 848.775 606.956 848.775C606.96 848.775 606.963 848.775 606.967 848.775C606.97 848.775 606.974 848.775 606.977 848.775C606.981 848.775 606.984 848.775 606.988 848.775C606.991 848.775 606.995 848.775 606.998 848.775C607.002 848.775 607.005 848.775 607.009 848.775C607.012 848.775 607.016 848.775 607.019 848.775C607.023 848.775 607.026 848.775 607.03 848.775C607.033 848.775 607.037 848.775 607.04 848.775C607.044 848.775 607.048 848.775 607.051 848.775C607.055 848.775 607.058 848.775 607.062 848.775C607.065 848.775 607.069 848.775 607.073 848.775C607.076 848.775 607.08 848.775 607.083 848.775C607.087 848.775 607.091 848.775 607.094 848.775C607.098 848.775 607.101 848.775 607.105 848.775C607.109 848.775 607.112 848.775 607.116 848.775C607.12 848.775 607.123 848.775 607.127 848.775C607.131 848.775 607.134 848.775 607.138 848.775C607.142 848.775 607.145 848.775 607.149 848.775C607.153 848.775 607.156 848.775 607.16 848.775C607.164 848.775 607.167 848.775 607.171 848.775C607.175 848.775 607.179 848.775 607.182 848.775C607.186 848.775 607.19 848.775 607.193 848.775C607.197 848.775 607.201 848.775 607.205 848.775C607.208 848.775 607.212 848.775 607.216 848.775C607.22 848.775 607.223 848.775 607.227 848.775C607.231 848.775 607.235 848.775 607.238 848.775C607.242 848.775 607.246 848.775 607.25 848.775C607.254 848.775 607.257 848.775 607.261 848.775C607.265 848.775 607.269 848.775 607.273 848.775C607.276 848.775 607.28 848.775 607.284 848.775C607.288 848.775 607.292 848.775 607.296 848.775C607.299 848.775 607.303 848.775 607.307 848.775C607.311 848.775 607.315 848.775 607.319 848.775C607.323 848.775 607.326 848.775 607.33 848.775C607.334 848.775 607.338 848.775 607.342 848.775C607.346 848.775 607.35 848.775 607.354 848.775C607.358 848.775 607.361 848.775 607.365 848.775C607.369 848.775 607.373 848.775 607.377 848.775C607.381 848.775 607.385 848.775 607.389 848.775C607.393 848.775 607.397 848.775 607.401 848.775C607.405 848.775 607.409 848.775 607.413 848.775C607.417 848.775 607.421 848.775 607.425 848.775C607.429 848.775 607.432 848.775 607.436 848.775C607.44 848.775 607.444 848.775 607.448 848.775C607.452 848.775 607.456 848.775 607.46 848.775C607.464 848.775 607.468 848.775 607.472 848.775C607.477 848.775 607.481 848.775 607.485 848.775C607.489 848.775 607.493 848.775 607.497 848.775C607.501 848.775 607.505 848.775 607.509 848.775C607.513 848.775 607.517 848.775 607.521 848.775C607.525 848.775 607.529 848.775 607.533 848.775C607.537 848.775 607.541 848.775 607.545 848.775C607.55 848.775 607.554 848.775 607.558 848.775C607.562 848.775 607.566 848.775 607.57 848.775C607.574 848.775 607.578 848.775 607.582 848.775C607.587 848.775 607.591 848.775 607.595 848.775C607.599 848.775 607.603 848.775 607.607 848.775C607.611 848.775 607.616 848.775 607.62 848.775C607.624 848.775 607.628 848.775 607.632 848.775C607.636 848.775 607.641 848.775 607.645 848.775C607.649 848.775 607.653 848.775 607.657 848.775C607.662 848.775 607.666 848.775 607.67 848.775C607.674 848.775 607.678 848.775 607.683 848.775C607.687 848.775 607.691 848.775 607.695 848.775C607.699 848.775 607.704 848.775 607.708 848.775C607.712 848.775 607.716 848.775 607.721 848.775C607.725 848.775 607.729 848.775 607.733 848.775C607.738 848.775 607.742 848.775 607.746 848.775C607.751 848.775 607.755 848.775 607.759 848.775C607.763 848.775 607.768 848.775 607.772 848.775C607.776 848.775 607.781 848.775 607.785 848.775C607.789 848.775 607.794 848.775 607.798 848.775C607.802 848.775 607.807 848.775 607.811 848.775C607.815 848.775 607.82 848.775 607.824 848.775C607.828 848.775 607.833 848.775 607.837 848.775C607.841 848.775 607.846 848.775 607.85 848.775C607.854 848.775 607.859 848.775 607.863 848.775C607.867 848.775 607.872 848.775 607.876 848.775C607.881 848.775 607.885 848.775 607.889 848.775C607.894 848.775 607.898 848.775 607.903 848.775C607.907 848.775 607.911 848.775 607.916 848.775C607.92 848.775 607.925 848.775 607.929 848.775C607.934 848.775 607.938 848.775 607.942 848.775C607.947 848.775 607.951 848.775 607.956 848.775C607.96 848.775 607.965 848.775 607.969 848.775C607.974 848.775 607.978 848.775 607.983 848.775C607.987 848.775 607.992 848.775 607.996 848.775C608.001 848.775 608.005 848.775 608.01 848.775C608.014 848.775 608.019 848.775 608.023 848.775C608.028 848.775 608.032 848.775 608.037 848.775C608.041 848.775 608.046 848.775 608.05 848.775C608.055 848.775 608.059 848.775 608.064 848.775C608.068 848.775 608.073 848.775 608.077 848.775C608.082 848.775 608.087 848.775 608.091 848.775C608.096 848.775 608.1 848.775 608.105 848.775C608.109 848.775 608.114 848.775 608.119 848.775C608.123 848.775 608.128 848.775 608.132 848.775C608.137 848.775 608.141 848.775 608.146 848.775C608.151 848.775 608.155 848.775 608.16 848.775C608.165 848.775 608.169 848.775 608.174 848.775C608.178 848.775 608.183 848.775 608.188 848.775C608.192 848.775 608.197 848.775 608.202 848.775C608.206 848.775 608.211 848.775 608.216 848.775C608.22 848.775 608.225 848.775 608.23 848.775C608.234 848.775 608.239 848.775 608.244 848.775C608.248 848.775 608.253 848.775 608.258 848.775C608.262 848.775 608.267 848.775 608.272 848.775C608.276 848.775 608.281 848.775 608.286 848.775C608.291 848.775 608.295 848.775 608.3 848.775C608.305 848.775 608.31 848.775 608.314 848.775C608.319 848.775 608.324 848.775 608.328 848.775C608.333 848.775 608.338 848.775 608.343 848.775C608.347 848.775 608.352 848.775 608.357 848.775C608.362 848.775 608.367 848.775 608.371 848.775C608.376 848.775 608.381 848.775 608.386 848.775C608.39 848.775 608.395 848.775 608.4 848.775C608.405 848.775 608.41 848.775 608.414 848.775C608.419 848.775 608.424 848.775 608.429 848.775C608.434 848.775 608.438 848.775 608.443 848.775C608.448 848.775 608.453 848.775 608.458 848.775C608.463 848.775 608.467 848.775 608.472 848.775C608.477 848.775 608.482 848.775 608.487 848.775C608.492 848.775 608.497 848.775 608.501 848.775C608.506 848.775 608.511 848.775 608.516 848.775C608.521 848.775 608.526 848.775 608.531 848.775C608.536 848.775 608.541 848.775 608.545 848.775C608.55 848.775 608.555 848.775 608.56 848.775C608.565 848.775 608.57 848.775 608.575 848.775C608.58 848.775 608.585 848.775 608.59 848.775C608.595 848.775 608.6 848.775 608.604 848.775C608.609 848.775 608.614 848.775 608.619 848.775C608.624 848.775 608.629 848.775 608.634 848.775C608.639 848.775 608.644 848.775 608.649 848.775C608.654 848.775 608.659 848.775 608.664 848.775C608.669 848.775 608.674 848.775 608.679 848.775C608.684 848.775 608.689 848.775 608.694 848.775C608.699 848.775 608.704 848.775 608.709 848.775C608.714 848.775 608.719 848.775 608.724 848.775C608.729 848.775 608.734 848.775 608.739 848.775C608.744 848.775 608.749 848.775 608.754 848.775C608.759 848.775 608.764 848.775 608.769 848.775C608.774 848.775 608.779 848.775 608.784 848.775C608.789 848.775 608.795 848.775 608.8 848.775C608.805 848.775 608.81 848.775 608.815 848.775C608.82 848.775 608.825 848.775 608.83 848.775C608.835 848.775 608.84 848.775 608.845 848.775C608.85 848.775 608.856 848.775 608.861 848.775C608.866 848.775 608.871 848.775 608.876 848.775C608.881 848.775 608.886 848.775 608.891 848.775C608.896 848.775 608.902 848.775 608.907 848.775C608.912 848.775 608.917 848.775 608.922 848.775C608.927 848.775 608.932 848.775 608.938 848.775C608.943 848.775 608.948 848.775 608.953 848.775C608.958 848.775 608.963 848.775 608.969 848.775C608.974 848.775 608.979 848.775 608.984 848.775C608.989 848.775 608.995 848.775 609 848.775C609.005 848.775 609.01 848.775 609.015 848.775C609.021 848.775 609.026 848.775 609.031 848.775C609.036 848.775 609.041 848.775 609.047 848.775C609.052 848.775 609.057 848.775 609.062 848.775C609.067 848.775 609.073 848.775 609.078 848.775C609.083 848.775 609.088 848.775 609.094 848.775C609.099 848.775 609.104 848.775 609.109 848.775C609.115 848.775 609.12 848.775 609.125 848.775C609.131 848.775 609.136 848.775 609.141 848.775C609.146 848.775 609.152 848.775 609.157 848.775C609.162 848.775 609.167 848.775 609.173 848.775C609.178 848.775 609.183 848.775 609.189 848.775C609.194 848.775 609.199 848.775 609.205 848.775C609.21 848.775 609.215 848.775 609.221 848.775C609.226 848.775 609.231 848.775 609.237 848.775C609.242 848.775 609.247 848.775 609.253 848.775C609.258 848.775 609.263 848.775 609.269 848.775C609.274 848.775 609.279 848.775 609.285 848.775C609.29 848.775 609.295 848.775 609.301 848.775C609.306 848.775 609.312 848.775 609.317 848.775C609.322 848.775 609.328 848.775 609.333 848.775C609.338 848.775 609.344 848.775 609.349 848.775C609.355 848.775 609.36 848.775 609.365 848.775C609.371 848.775 609.376 848.775 609.382 848.775C609.387 848.775 609.393 848.775 609.398 848.775C609.403 848.775 609.409 848.775 609.414 848.775C609.42 848.775 609.425 848.775 609.431 848.775C609.436 848.775 609.441 848.775 609.447 848.775C609.452 848.775 609.458 848.775 609.463 848.775C609.469 848.775 609.474 848.775 609.48 848.775C609.485 848.775 609.491 848.775 609.496 848.775C609.502 848.775 609.507 848.775 609.512 848.775C609.518 848.775 609.523 848.775 609.529 848.775C609.534 848.775 609.54 848.775 609.545 848.775C609.551 848.775 609.556 848.775 609.562 848.775C609.567 848.775 609.573 848.775 609.579 848.775C609.584 848.775 609.59 848.775 609.595 848.775C609.601 848.775 609.606 848.775 609.612 848.775C609.617 848.775 609.623 848.775 609.628 848.775C609.634 848.775 609.639 848.775 609.645 848.775C609.651 848.775 609.656 848.775 609.662 848.775C609.667 848.775 609.673 848.775 609.678 848.775C609.684 848.775 609.69 848.775 609.695 848.775C609.701 848.775 609.706 848.775 609.712 848.775C609.717 848.775 609.723 848.775 609.729 848.775C609.734 848.775 609.74 848.775 609.745 848.775C609.751 848.775 609.757 848.775 609.762 848.775C609.768 848.775 609.774 848.775 609.779 848.775C609.785 848.775 609.79 848.775 609.796 848.775C609.802 848.775 609.807 848.775 609.813 848.775C609.819 848.775 609.824 848.775 609.83 848.775C609.836 848.775 609.841 848.775 609.847 848.775C609.853 848.775 609.858 848.775 609.864 848.775C609.87 848.775 609.875 848.775 609.881 848.775C609.887 848.775 609.892 848.775 609.898 848.775C609.904 848.775 609.909 848.775 609.915 848.775C609.921 848.775 609.926 848.775 609.932 848.775C609.938 848.775 609.943 848.775 609.949 848.775C609.955 848.775 609.961 848.775 609.966 848.775C609.972 848.775 609.978 848.775 609.983 848.775C609.989 848.775 609.995 848.775 610.001 848.775C610.006 848.775 610.012 848.775 610.018 848.775C610.024 848.775 610.029 848.775 610.035 848.775C610.041 848.775 610.047 848.775 610.052 848.775C610.058 848.775 610.064 848.775 610.07 848.775C610.075 848.775 610.081 848.775 610.087 848.775C610.093 848.775 610.099 848.775 610.104 848.775C610.11 848.775 610.116 848.775 610.122 848.775C610.127 848.775 610.133 848.775 610.139 848.775C610.145 848.775 610.151 848.775 610.156 848.775C610.162 848.775 610.168 848.775 610.174 848.775C610.18 848.775 610.186 848.775 610.191 848.775C610.197 848.775 610.203 848.775 610.209 848.775C610.215 848.775 610.22 848.775 610.226 848.775C610.232 848.775 610.238 848.775 610.244 848.775C610.25 848.775 610.256 848.775 610.261 848.775C610.267 848.775 610.273 848.775 610.279 848.775C610.285 848.775 610.291 848.775 610.297 848.775C610.302 848.775 610.308 848.775 610.314 848.775C610.32 848.775 610.326 848.775 610.332 848.775C610.338 848.775 610.344 848.775 610.349 848.775C610.355 848.775 610.361 848.775 610.367 848.775C610.373 848.775 610.379 848.775 610.385 848.775C610.391 848.775 610.397 848.775 610.403 848.775C610.409 848.775 610.414 848.775 610.42 848.775C610.426 848.775 610.432 848.775 610.438 848.775C610.444 848.775 610.45 848.775 610.456 848.775C610.462 848.775 610.468 848.775 610.474 848.775C610.48 848.775 610.486 848.775 610.492 848.775C610.498 848.775 610.504 848.775 610.51 848.775C610.516 848.775 610.521 848.775 610.527 848.775C610.533 848.775 610.539 848.775 610.545 848.775C610.551 848.775 610.557 848.775 610.563 848.775C610.569 848.775 610.575 848.775 610.581 848.775C610.587 848.775 610.593 848.775 610.599 848.775C610.605 848.775 610.611 848.775 610.617 848.775C610.623 848.775 610.629 848.775 610.635 848.775C610.641 848.775 610.647 848.775 610.653 848.775C610.659 848.775 610.665 848.775 610.671 848.775C610.677 848.775 610.683 848.775 610.69 848.775C610.696 848.775 610.702 848.775 610.708 848.775C610.714 848.775 610.72 848.775 610.726 848.775C610.732 848.775 610.738 848.775 610.744 848.775C610.75 848.775 610.756 848.775 610.762 848.775C610.768 848.775 610.774 848.775 610.78 848.775C610.786 848.775 610.793 848.775 610.799 848.775C610.805 848.775 610.811 848.775 610.817 848.775C610.823 848.775 610.829 848.775 610.835 848.775C610.841 848.775 610.847 848.775 610.853 848.775C610.86 848.775 610.866 848.775 610.872 848.775C610.878 848.775 610.884 848.775 610.89 848.775C610.896 848.775 610.902 848.775 610.908 848.775C610.915 848.775 610.921 848.775 610.927 848.775C610.933 848.775 610.939 848.775 610.945 848.775C610.951 848.775 610.958 848.775 610.964 848.775C610.97 848.775 610.976 848.775 610.982 848.775C610.988 848.775 610.994 848.775 611.001 848.775C611.007 848.775 611.013 848.775 611.019 848.775C611.025 848.775 611.031 848.775 611.038 848.775C611.044 848.775 611.05 848.775 611.056 848.775C611.062 848.775 611.068 848.775 611.075 848.775C611.081 848.775 611.087 848.775 611.093 848.775C611.099 848.775 611.106 848.775 611.112 848.775C611.118 848.775 611.124 848.775 611.13 848.775C611.137 848.775 611.143 848.775 611.149 848.775C611.155 848.775 611.161 848.775 611.168 848.775C611.174 848.775 611.18 848.775 611.186 848.775C611.193 848.775 611.199 848.775 611.205 848.775C611.211 848.775 611.218 848.775 611.224 848.775V844.775C611.218 844.775 611.211 844.775 611.205 844.775C611.199 844.775 611.193 844.775 611.186 844.775C611.18 844.775 611.174 844.775 611.168 844.775C611.161 844.775 611.155 844.775 611.149 844.775C611.143 844.775 611.137 844.775 611.13 844.775C611.124 844.775 611.118 844.775 611.112 844.775C611.106 844.775 611.099 844.775 611.093 844.775C611.087 844.775 611.081 844.775 611.075 844.775C611.068 844.775 611.062 844.775 611.056 844.775C611.05 844.775 611.044 844.775 611.038 844.775C611.031 844.775 611.025 844.775 611.019 844.775C611.013 844.775 611.007 844.775 611.001 844.775C610.994 844.775 610.988 844.775 610.982 844.775C610.976 844.775 610.97 844.775 610.964 844.775C610.958 844.775 610.951 844.775 610.945 844.775C610.939 844.775 610.933 844.775 610.927 844.775C610.921 844.775 610.915 844.775 610.908 844.775C610.902 844.775 610.896 844.775 610.89 844.775C610.884 844.775 610.878 844.775 610.872 844.775C610.866 844.775 610.86 844.775 610.853 844.775C610.847 844.775 610.841 844.775 610.835 844.775C610.829 844.775 610.823 844.775 610.817 844.775C610.811 844.775 610.805 844.775 610.799 844.775C610.793 844.775 610.786 844.775 610.78 844.775C610.774 844.775 610.768 844.775 610.762 844.775C610.756 844.775 610.75 844.775 610.744 844.775C610.738 844.775 610.732 844.775 610.726 844.775C610.72 844.775 610.714 844.775 610.708 844.775C610.702 844.775 610.696 844.775 610.69 844.775C610.683 844.775 610.677 844.775 610.671 844.775C610.665 844.775 610.659 844.775 610.653 844.775C610.647 844.775 610.641 844.775 610.635 844.775C610.629 844.775 610.623 844.775 610.617 844.775C610.611 844.775 610.605 844.775 610.599 844.775C610.593 844.775 610.587 844.775 610.581 844.775C610.575 844.775 610.569 844.775 610.563 844.775C610.557 844.775 610.551 844.775 610.545 844.775C610.539 844.775 610.533 844.775 610.527 844.775C610.521 844.775 610.516 844.775 610.51 844.775C610.504 844.775 610.498 844.775 610.492 844.775C610.486 844.775 610.48 844.775 610.474 844.775C610.468 844.775 610.462 844.775 610.456 844.775C610.45 844.775 610.444 844.775 610.438 844.775C610.432 844.775 610.426 844.775 610.42 844.775C610.414 844.775 610.409 844.775 610.403 844.775C610.397 844.775 610.391 844.775 610.385 844.775C610.379 844.775 610.373 844.775 610.367 844.775C610.361 844.775 610.355 844.775 610.349 844.775C610.344 844.775 610.338 844.775 610.332 844.775C610.326 844.775 610.32 844.775 610.314 844.775C610.308 844.775 610.302 844.775 610.297 844.775C610.291 844.775 610.285 844.775 610.279 844.775C610.273 844.775 610.267 844.775 610.261 844.775C610.256 844.775 610.25 844.775 610.244 844.775C610.238 844.775 610.232 844.775 610.226 844.775C610.22 844.775 610.215 844.775 610.209 844.775C610.203 844.775 610.197 844.775 610.191 844.775C610.186 844.775 610.18 844.775 610.174 844.775C610.168 844.775 610.162 844.775 610.156 844.775C610.151 844.775 610.145 844.775 610.139 844.775C610.133 844.775 610.127 844.775 610.122 844.775C610.116 844.775 610.11 844.775 610.104 844.775C610.099 844.775 610.093 844.775 610.087 844.775C610.081 844.775 610.075 844.775 610.07 844.775C610.064 844.775 610.058 844.775 610.052 844.775C610.047 844.775 610.041 844.775 610.035 844.775C610.029 844.775 610.024 844.775 610.018 844.775C610.012 844.775 610.006 844.775 610.001 844.775C609.995 844.775 609.989 844.775 609.983 844.775C609.978 844.775 609.972 844.775 609.966 844.775C609.961 844.775 609.955 844.775 609.949 844.775C609.943 844.775 609.938 844.775 609.932 844.775C609.926 844.775 609.921 844.775 609.915 844.775C609.909 844.775 609.904 844.775 609.898 844.775C609.892 844.775 609.887 844.775 609.881 844.775C609.875 844.775 609.87 844.775 609.864 844.775C609.858 844.775 609.853 844.775 609.847 844.775C609.841 844.775 609.836 844.775 609.83 844.775C609.824 844.775 609.819 844.775 609.813 844.775C609.807 844.775 609.802 844.775 609.796 844.775C609.79 844.775 609.785 844.775 609.779 844.775C609.774 844.775 609.768 844.775 609.762 844.775C609.757 844.775 609.751 844.775 609.745 844.775C609.74 844.775 609.734 844.775 609.729 844.775C609.723 844.775 609.717 844.775 609.712 844.775C609.706 844.775 609.701 844.775 609.695 844.775C609.69 844.775 609.684 844.775 609.678 844.775C609.673 844.775 609.667 844.775 609.662 844.775C609.656 844.775 609.651 844.775 609.645 844.775C609.639 844.775 609.634 844.775 609.628 844.775C609.623 844.775 609.617 844.775 609.612 844.775C609.606 844.775 609.601 844.775 609.595 844.775C609.59 844.775 609.584 844.775 609.579 844.775C609.573 844.775 609.567 844.775 609.562 844.775C609.556 844.775 609.551 844.775 609.545 844.775C609.54 844.775 609.534 844.775 609.529 844.775C609.523 844.775 609.518 844.775 609.512 844.775C609.507 844.775 609.502 844.775 609.496 844.775C609.491 844.775 609.485 844.775 609.48 844.775C609.474 844.775 609.469 844.775 609.463 844.775C609.458 844.775 609.452 844.775 609.447 844.775C609.441 844.775 609.436 844.775 609.431 844.775C609.425 844.775 609.42 844.775 609.414 844.775C609.409 844.775 609.403 844.775 609.398 844.775C609.393 844.775 609.387 844.775 609.382 844.775C609.376 844.775 609.371 844.775 609.365 844.775C609.36 844.775 609.355 844.775 609.349 844.775C609.344 844.775 609.338 844.775 609.333 844.775C609.328 844.775 609.322 844.775 609.317 844.775C609.312 844.775 609.306 844.775 609.301 844.775C609.295 844.775 609.29 844.775 609.285 844.775C609.279 844.775 609.274 844.775 609.269 844.775C609.263 844.775 609.258 844.775 609.253 844.775C609.247 844.775 609.242 844.775 609.237 844.775C609.231 844.775 609.226 844.775 609.221 844.775C609.215 844.775 609.21 844.775 609.205 844.775C609.199 844.775 609.194 844.775 609.189 844.775C609.183 844.775 609.178 844.775 609.173 844.775C609.167 844.775 609.162 844.775 609.157 844.775C609.152 844.775 609.146 844.775 609.141 844.775C609.136 844.775 609.131 844.775 609.125 844.775C609.12 844.775 609.115 844.775 609.109 844.775C609.104 844.775 609.099 844.775 609.094 844.775C609.088 844.775 609.083 844.775 609.078 844.775C609.073 844.775 609.067 844.775 609.062 844.775C609.057 844.775 609.052 844.775 609.047 844.775C609.041 844.775 609.036 844.775 609.031 844.775C609.026 844.775 609.021 844.775 609.015 844.775C609.01 844.775 609.005 844.775 609 844.775C608.995 844.775 608.989 844.775 608.984 844.775C608.979 844.775 608.974 844.775 608.969 844.775C608.963 844.775 608.958 844.775 608.953 844.775C608.948 844.775 608.943 844.775 608.938 844.775C608.932 844.775 608.927 844.775 608.922 844.775C608.917 844.775 608.912 844.775 608.907 844.775C608.902 844.775 608.896 844.775 608.891 844.775C608.886 844.775 608.881 844.775 608.876 844.775C608.871 844.775 608.866 844.775 608.861 844.775C608.856 844.775 608.85 844.775 608.845 844.775C608.84 844.775 608.835 844.775 608.83 844.775C608.825 844.775 608.82 844.775 608.815 844.775C608.81 844.775 608.805 844.775 608.8 844.775C608.795 844.775 608.789 844.775 608.784 844.775C608.779 844.775 608.774 844.775 608.769 844.775C608.764 844.775 608.759 844.775 608.754 844.775C608.749 844.775 608.744 844.775 608.739 844.775C608.734 844.775 608.729 844.775 608.724 844.775C608.719 844.775 608.714 844.775 608.709 844.775C608.704 844.775 608.699 844.775 608.694 844.775C608.689 844.775 608.684 844.775 608.679 844.775C608.674 844.775 608.669 844.775 608.664 844.775C608.659 844.775 608.654 844.775 608.649 844.775C608.644 844.775 608.639 844.775 608.634 844.775C608.629 844.775 608.624 844.775 608.619 844.775C608.614 844.775 608.609 844.775 608.604 844.775C608.6 844.775 608.595 844.775 608.59 844.775C608.585 844.775 608.58 844.775 608.575 844.775C608.57 844.775 608.565 844.775 608.56 844.775C608.555 844.775 608.55 844.775 608.545 844.775C608.541 844.775 608.536 844.775 608.531 844.775C608.526 844.775 608.521 844.775 608.516 844.775C608.511 844.775 608.506 844.775 608.501 844.775C608.497 844.775 608.492 844.775 608.487 844.775C608.482 844.775 608.477 844.775 608.472 844.775C608.467 844.775 608.463 844.775 608.458 844.775C608.453 844.775 608.448 844.775 608.443 844.775C608.438 844.775 608.434 844.775 608.429 844.775C608.424 844.775 608.419 844.775 608.414 844.775C608.41 844.775 608.405 844.775 608.4 844.775C608.395 844.775 608.39 844.775 608.386 844.775C608.381 844.775 608.376 844.775 608.371 844.775C608.367 844.775 608.362 844.775 608.357 844.775C608.352 844.775 608.347 844.775 608.343 844.775C608.338 844.775 608.333 844.775 608.328 844.775C608.324 844.775 608.319 844.775 608.314 844.775C608.31 844.775 608.305 844.775 608.3 844.775C608.295 844.775 608.291 844.775 608.286 844.775C608.281 844.775 608.276 844.775 608.272 844.775C608.267 844.775 608.262 844.775 608.258 844.775C608.253 844.775 608.248 844.775 608.244 844.775C608.239 844.775 608.234 844.775 608.23 844.775C608.225 844.775 608.22 844.775 608.216 844.775C608.211 844.775 608.206 844.775 608.202 844.775C608.197 844.775 608.192 844.775 608.188 844.775C608.183 844.775 608.178 844.775 608.174 844.775C608.169 844.775 608.165 844.775 608.16 844.775C608.155 844.775 608.151 844.775 608.146 844.775C608.141 844.775 608.137 844.775 608.132 844.775C608.128 844.775 608.123 844.775 608.119 844.775C608.114 844.775 608.109 844.775 608.105 844.775C608.1 844.775 608.096 844.775 608.091 844.775C608.087 844.775 608.082 844.775 608.077 844.775C608.073 844.775 608.068 844.775 608.064 844.775C608.059 844.775 608.055 844.775 608.05 844.775C608.046 844.775 608.041 844.775 608.037 844.775C608.032 844.775 608.028 844.775 608.023 844.775C608.019 844.775 608.014 844.775 608.01 844.775C608.005 844.775 608.001 844.775 607.996 844.775C607.992 844.775 607.987 844.775 607.983 844.775C607.978 844.775 607.974 844.775 607.969 844.775C607.965 844.775 607.96 844.775 607.956 844.775C607.951 844.775 607.947 844.775 607.942 844.775C607.938 844.775 607.934 844.775 607.929 844.775C607.925 844.775 607.92 844.775 607.916 844.775C607.911 844.775 607.907 844.775 607.903 844.775C607.898 844.775 607.894 844.775 607.889 844.775C607.885 844.775 607.881 844.775 607.876 844.775C607.872 844.775 607.867 844.775 607.863 844.775C607.859 844.775 607.854 844.775 607.85 844.775C607.846 844.775 607.841 844.775 607.837 844.775C607.833 844.775 607.828 844.775 607.824 844.775C607.82 844.775 607.815 844.775 607.811 844.775C607.807 844.775 607.802 844.775 607.798 844.775C607.794 844.775 607.789 844.775 607.785 844.775C607.781 844.775 607.776 844.775 607.772 844.775C607.768 844.775 607.763 844.775 607.759 844.775C607.755 844.775 607.751 844.775 607.746 844.775C607.742 844.775 607.738 844.775 607.733 844.775C607.729 844.775 607.725 844.775 607.721 844.775C607.716 844.775 607.712 844.775 607.708 844.775C607.704 844.775 607.699 844.775 607.695 844.775C607.691 844.775 607.687 844.775 607.683 844.775C607.678 844.775 607.674 844.775 607.67 844.775C607.666 844.775 607.662 844.775 607.657 844.775C607.653 844.775 607.649 844.775 607.645 844.775C607.641 844.775 607.636 844.775 607.632 844.775C607.628 844.775 607.624 844.775 607.62 844.775C607.616 844.775 607.611 844.775 607.607 844.775C607.603 844.775 607.599 844.775 607.595 844.775C607.591 844.775 607.587 844.775 607.582 844.775C607.578 844.775 607.574 844.775 607.57 844.775C607.566 844.775 607.562 844.775 607.558 844.775C607.554 844.775 607.55 844.775 607.545 844.775C607.541 844.775 607.537 844.775 607.533 844.775C607.529 844.775 607.525 844.775 607.521 844.775C607.517 844.775 607.513 844.775 607.509 844.775C607.505 844.775 607.501 844.775 607.497 844.775C607.493 844.775 607.489 844.775 607.485 844.775C607.481 844.775 607.477 844.775 607.472 844.775C607.468 844.775 607.464 844.775 607.46 844.775C607.456 844.775 607.452 844.775 607.448 844.775C607.444 844.775 607.44 844.775 607.436 844.775C607.432 844.775 607.429 844.775 607.425 844.775C607.421 844.775 607.417 844.775 607.413 844.775C607.409 844.775 607.405 844.775 607.401 844.775C607.397 844.775 607.393 844.775 607.389 844.775C607.385 844.775 607.381 844.775 607.377 844.775C607.373 844.775 607.369 844.775 607.365 844.775C607.361 844.775 607.358 844.775 607.354 844.775C607.35 844.775 607.346 844.775 607.342 844.775C607.338 844.775 607.334 844.775 607.33 844.775C607.326 844.775 607.323 844.775 607.319 844.775C607.315 844.775 607.311 844.775 607.307 844.775C607.303 844.775 607.299 844.775 607.296 844.775C607.292 844.775 607.288 844.775 607.284 844.775C607.28 844.775 607.276 844.775 607.273 844.775C607.269 844.775 607.265 844.775 607.261 844.775C607.257 844.775 607.254 844.775 607.25 844.775C607.246 844.775 607.242 844.775 607.238 844.775C607.235 844.775 607.231 844.775 607.227 844.775C607.223 844.775 607.22 844.775 607.216 844.775C607.212 844.775 607.208 844.775 607.205 844.775C607.201 844.775 607.197 844.775 607.193 844.775C607.19 844.775 607.186 844.775 607.182 844.775C607.179 844.775 607.175 844.775 607.171 844.775C607.167 844.775 607.164 844.775 607.16 844.775C607.156 844.775 607.153 844.775 607.149 844.775C607.145 844.775 607.142 844.775 607.138 844.775C607.134 844.775 607.131 844.775 607.127 844.775C607.123 844.775 607.12 844.775 607.116 844.775C607.112 844.775 607.109 844.775 607.105 844.775C607.101 844.775 607.098 844.775 607.094 844.775C607.091 844.775 607.087 844.775 607.083 844.775C607.08 844.775 607.076 844.775 607.073 844.775C607.069 844.775 607.065 844.775 607.062 844.775C607.058 844.775 607.055 844.775 607.051 844.775C607.048 844.775 607.044 844.775 607.04 844.775C607.037 844.775 607.033 844.775 607.03 844.775C607.026 844.775 607.023 844.775 607.019 844.775C607.016 844.775 607.012 844.775 607.009 844.775C607.005 844.775 607.002 844.775 606.998 844.775C606.995 844.775 606.991 844.775 606.988 844.775C606.984 844.775 606.981 844.775 606.977 844.775C606.974 844.775 606.97 844.775 606.967 844.775C606.963 844.775 606.96 844.775 606.956 844.775C606.953 844.775 606.949 844.775 606.946 844.775C606.943 844.775 606.939 844.775 606.936 844.775C606.932 844.775 606.929 844.775 606.925 844.775C606.922 844.775 606.919 844.775 606.915 844.775C606.912 844.775 606.908 844.775 606.905 844.775C606.902 844.775 606.898 844.775 606.895 844.775C606.891 844.775 606.888 844.775 606.885 844.775C606.881 844.775 606.878 844.775 606.875 844.775C606.871 844.775 606.868 844.775 606.865 844.775C606.861 844.775 606.858 844.775 606.855 844.775C606.851 844.775 606.848 844.775 606.845 844.775C606.841 844.775 606.838 844.775 606.835 844.775C606.831 844.775 606.828 844.775 606.825 844.775C606.822 844.775 606.818 844.775 606.815 844.775C606.812 844.775 606.809 844.775 606.805 844.775C606.802 844.775 606.799 844.775 606.796 844.775C606.792 844.775 606.789 844.775 606.786 844.775C606.783 844.775 606.779 844.775 606.776 844.775C606.773 844.775 606.77 844.775 606.766 844.775C606.763 844.775 606.76 844.775 606.757 844.775C606.754 844.775 606.751 844.775 606.747 844.775C606.744 844.775 606.741 844.775 606.738 844.775C606.735 844.775 606.731 844.775 606.728 844.775C606.725 844.775 606.722 844.775 606.719 844.775C606.716 844.775 606.713 844.775 606.709 844.775C606.706 844.775 606.703 844.775 606.7 844.775C606.697 844.775 606.694 844.775 606.691 844.775C606.688 844.775 606.685 844.775 606.682 844.775C606.678 844.775 606.675 844.775 606.672 844.775C606.669 844.775 606.666 844.775 606.663 844.775C606.66 844.775 606.657 844.775 606.654 844.775C606.651 844.775 606.648 844.775 606.645 844.775C606.642 844.775 606.639 844.775 606.636 844.775C606.633 844.775 606.63 844.775 606.627 844.775C606.624 844.775 606.621 844.775 606.618 844.775C606.615 844.775 606.612 844.775 606.609 844.775C606.606 844.775 606.603 844.775 606.6 844.775C606.597 844.775 606.594 844.775 606.591 844.775C606.588 844.775 606.585 844.775 606.582 844.775C606.579 844.775 606.576 844.775 606.573 844.775C606.57 844.775 606.567 844.775 606.565 844.775C606.562 844.775 606.559 844.775 606.556 844.775C606.553 844.775 606.55 844.775 606.547 844.775C606.544 844.775 606.541 844.775 606.539 844.775C606.536 844.775 606.533 844.775 606.53 844.775C606.527 844.775 606.524 844.775 606.521 844.775C606.519 844.775 606.516 844.775 606.513 844.775C606.51 844.775 606.507 844.775 606.504 844.775C606.502 844.775 606.499 844.775 606.496 844.775C606.493 844.775 606.49 844.775 606.488 844.775C606.485 844.775 606.482 844.775 606.479 844.775C606.477 844.775 606.474 844.775 606.471 844.775C606.468 844.775 606.466 844.775 606.463 844.775C606.46 844.775 606.457 844.775 606.455 844.775C606.452 844.775 606.449 844.775 606.446 844.775C606.444 844.775 606.441 844.775 606.438 844.775C606.436 844.775 606.433 844.775 606.43 844.775C606.427 844.775 606.425 844.775 606.422 844.775C606.419 844.775 606.417 844.775 606.414 844.775C606.411 844.775 606.409 844.775 606.406 844.775C606.404 844.775 606.401 844.775 606.398 844.775C606.396 844.775 606.393 844.775 606.39 844.775C606.388 844.775 606.385 844.775 606.383 844.775C606.38 844.775 606.377 844.775 606.375 844.775C606.372 844.775 606.37 844.775 606.367 844.775C606.364 844.775 606.362 844.775 606.359 844.775C606.357 844.775 606.354 844.775 606.352 844.775C606.349 844.775 606.347 844.775 606.344 844.775C606.341 844.775 606.339 844.775 606.336 844.775C606.334 844.775 606.331 844.775 606.329 844.775C606.326 844.775 606.324 844.775 606.321 844.775C606.319 844.775 606.316 844.775 606.314 844.775C606.311 844.775 606.309 844.775 606.307 844.775C606.304 844.775 606.302 844.775 606.299 844.775C606.297 844.775 606.294 844.775 606.292 844.775C606.289 844.775 606.287 844.775 606.285 844.775C606.282 844.775 606.28 844.775 606.277 844.775C606.275 844.775 606.273 844.775 606.27 844.775C606.268 844.775 606.265 844.775 606.263 844.775C606.261 844.775 606.258 844.775 606.256 844.775C606.254 844.775 606.251 844.775 606.249 844.775C606.246 844.775 606.244 844.775 606.242 844.775C606.239 844.775 606.237 844.775 606.235 844.775C606.233 844.775 606.23 844.775 606.228 844.775C606.226 844.775 606.223 844.775 606.221 844.775C606.219 844.775 606.216 844.775 606.214 844.775C606.212 844.775 606.21 844.775 606.207 844.775C606.205 844.775 606.203 844.775 606.201 844.775C606.198 844.775 606.196 844.775 606.194 844.775C606.192 844.775 606.189 844.775 606.187 844.775C606.185 844.775 606.183 844.775 606.181 844.775C606.178 844.775 606.176 844.775 606.174 844.775C606.172 844.775 606.17 844.775 606.168 844.775C606.165 844.775 606.163 844.775 606.161 844.775C606.159 844.775 606.157 844.775 606.155 844.775C606.152 844.775 606.15 844.775 606.148 844.775C606.146 844.775 606.144 844.775 606.142 844.775C606.14 844.775 606.138 844.775 606.136 844.775C606.133 844.775 606.131 844.775 606.129 844.775C606.127 844.775 606.125 844.775 606.123 844.775C606.121 844.775 606.119 844.775 606.117 844.775C606.115 844.775 606.113 844.775 606.111 844.775C606.109 844.775 606.107 844.775 606.105 844.775C606.103 844.775 606.101 844.775 606.099 844.775C606.097 844.775 606.095 844.775 606.093 844.775C606.091 844.775 606.089 844.775 606.087 844.775C606.085 844.775 606.083 844.775 606.081 844.775C606.079 844.775 606.077 844.775 606.075 844.775C606.073 844.775 606.071 844.775 606.069 844.775C606.067 844.775 606.065 844.775 606.063 844.775C606.061 844.775 606.059 844.775 606.058 844.775C606.056 844.775 606.054 844.775 606.052 844.775C606.05 844.775 606.048 844.775 606.046 844.775C606.044 844.775 606.043 844.775 606.041 844.775C606.039 844.775 606.037 844.775 606.035 844.775C606.033 844.775 606.031 844.775 606.03 844.775C606.028 844.775 606.026 844.775 606.024 844.775C606.022 844.775 606.021 844.775 606.019 844.775C606.017 844.775 606.015 844.775 606.013 844.775C606.012 844.775 606.01 844.775 606.008 844.775C606.006 844.775 606.005 844.775 606.003 844.775C606.001 844.775 605.999 844.775 605.998 844.775C605.996 844.775 605.994 844.775 605.992 844.775C605.991 844.775 605.989 844.775 605.987 844.775C605.986 844.775 605.984 844.775 605.982 844.775C605.981 844.775 605.979 844.775 605.977 844.775C605.975 844.775 605.974 844.775 605.972 844.775C605.971 844.775 605.969 844.775 605.967 844.775C605.966 844.775 605.964 844.775 605.962 844.775C605.961 844.775 605.959 844.775 605.957 844.775C605.956 844.775 605.954 844.775 605.953 844.775C605.951 844.775 605.949 844.775 605.948 844.775C605.946 844.775 605.945 844.775 605.943 844.775C605.942 844.775 605.94 844.775 605.939 844.775C605.937 844.775 605.935 844.775 605.934 844.775C605.932 844.775 605.931 844.775 605.929 844.775C605.928 844.775 605.926 844.775 605.925 844.775C605.923 844.775 605.922 844.775 605.92 844.775C605.919 844.775 605.917 844.775 605.916 844.775C605.914 844.775 605.913 844.775 605.912 844.775C605.91 844.775 605.909 844.775 605.907 844.775C605.906 844.775 605.904 844.775 605.903 844.775C605.901 844.775 605.9 844.775 605.899 844.775C605.897 844.775 605.896 844.775 605.894 844.775C605.893 844.775 605.892 844.775 605.89 844.775C605.889 844.775 605.888 844.775 605.886 844.775C605.885 844.775 605.884 844.775 605.882 844.775C605.881 844.775 605.88 844.775 605.878 844.775C605.877 844.775 605.876 844.775 605.874 844.775C605.873 844.775 605.872 844.775 605.87 844.775C605.869 844.775 605.868 844.775 605.866 844.775C605.865 844.775 605.864 844.775 605.863 844.775C605.861 844.775 605.86 844.775 605.859 844.775C605.858 844.775 605.856 844.775 605.855 844.775C605.854 844.775 605.853 844.775 605.852 844.775C605.85 844.775 605.849 844.775 605.848 844.775C605.847 844.775 605.846 844.775 605.844 844.775C605.843 844.775 605.842 844.775 605.841 844.775C605.84 844.775 605.838 844.775 605.837 844.775C605.836 844.775 605.835 844.775 605.834 844.775C605.833 844.775 605.832 844.775 605.831 844.775C605.829 844.775 605.828 844.775 605.827 844.775C605.826 844.775 605.825 844.775 605.824 844.775C605.823 844.775 605.822 844.775 605.821 844.775C605.82 844.775 605.819 844.775 605.818 844.775C605.816 844.775 605.815 844.775 605.814 844.775C605.813 844.775 605.812 844.775 605.811 844.775C605.81 844.775 605.809 844.775 605.808 844.775C605.807 844.775 605.806 844.775 605.805 844.775C605.804 844.775 605.803 844.775 605.802 844.775C605.801 844.775 605.8 844.775 605.799 844.775C605.799 844.775 605.798 844.775 605.797 844.775C605.796 844.775 605.795 844.775 605.794 844.775C605.793 844.775 605.792 844.775 605.791 844.775C605.79 844.775 605.789 844.775 605.788 844.775C605.788 844.775 605.787 844.775 605.786 844.775C605.785 844.775 605.784 844.775 605.783 844.775C605.782 844.775 605.782 844.775 605.781 844.775C605.78 844.775 605.779 844.775 605.778 844.775C605.777 844.775 605.777 844.775 605.776 844.775C605.775 844.775 605.774 844.775 605.773 844.775C605.773 844.775 605.772 844.775 605.771 844.775C605.77 844.775 605.769 844.775 605.769 844.775C605.768 844.775 605.767 844.775 605.766 844.775C605.766 844.775 605.765 844.775 605.764 844.775C605.764 844.775 605.763 844.775 605.762 844.775C605.761 844.775 605.761 844.775 605.76 844.775C605.759 844.775 605.759 844.775 605.758 844.775C605.757 844.775 605.757 844.775 605.756 844.775C605.755 844.775 605.755 844.775 605.754 844.775C605.753 844.775 605.753 844.775 605.752 844.775C605.752 844.775 605.751 844.775 605.75 844.775C605.75 844.775 605.749 844.775 605.749 844.775C605.748 844.775 605.747 844.775 605.747 844.775C605.746 844.775 605.746 844.775 605.745 844.775C605.745 844.775 605.744 844.775 605.744 844.775C605.743 844.775 605.742 844.775 605.742 844.775C605.741 844.775 605.741 844.775 605.74 844.775C605.74 844.775 605.739 844.775 605.739 844.775C605.738 844.775 605.738 844.775 605.738 844.775C605.737 844.775 605.737 844.775 605.736 844.775C605.736 844.775 605.735 844.775 605.735 844.775C605.734 844.775 605.734 844.775 605.734 844.775C605.733 844.775 605.733 844.775 605.732 844.775C605.732 844.775 605.732 844.775 605.731 844.775C605.731 844.775 605.73 844.775 605.73 844.775C605.73 844.775 605.729 844.775 605.729 844.775C605.729 844.775 605.728 844.775 605.728 844.775C605.728 844.775 605.727 844.775 605.727 844.775C605.727 844.775 605.726 844.775 605.726 844.775C605.726 844.775 605.725 844.775 605.725 844.775C605.725 844.775 605.725 844.775 605.724 844.775C605.724 844.775 605.724 844.775 605.724 844.775C605.723 844.775 605.723 844.775 605.723 844.775C605.723 844.775 605.722 844.775 605.722 844.775C605.722 844.775 605.722 844.775 605.722 844.775C605.721 844.775 605.721 844.775 605.721 844.775C605.721 844.775 605.721 844.775 605.721 844.775C605.72 844.775 605.72 844.775 605.72 844.775C605.72 844.775 605.72 844.775 605.72 844.775C605.72 844.775 605.72 844.775 605.719 844.775C605.719 844.775 605.719 844.775 605.719 844.775C605.719 844.775 605.719 844.775 605.719 844.775C605.719 844.775 605.719 844.775 605.719 844.775C605.719 844.775 605.719 844.775 605.719 844.775C605.719 844.775 605.719 844.775 605.719 844.775C605.718 844.775 605.718 844.775 605.718 846.775ZM611.224 848.775C613.218 848.775 614.769 848.224 616.037 847.621C616.638 847.335 617.228 847.01 617.685 846.77C618.177 846.512 618.573 846.32 618.948 846.185L617.597 842.42C616.947 842.653 616.349 842.954 615.826 843.228C615.27 843.521 614.825 843.768 614.319 844.008C613.374 844.458 612.425 844.775 611.224 844.775V848.775ZM622.656 758.701C623.805 760.338 623.805 760.338 623.805 760.338C623.805 760.338 623.805 760.338 623.805 760.339C623.804 760.339 623.804 760.339 623.804 760.339C623.804 760.339 623.804 760.339 623.805 760.339C623.805 760.338 623.807 760.337 623.809 760.335C623.815 760.332 623.823 760.326 623.836 760.317C623.86 760.3 623.899 760.274 623.951 760.239C624.054 760.169 624.209 760.067 624.406 759.941C624.8 759.689 625.357 759.348 626.001 758.996C627.347 758.259 628.858 757.592 630.032 757.418L629.448 753.461C627.536 753.744 625.505 754.707 624.08 755.487C623.34 755.893 622.704 756.282 622.253 756.57C622.027 756.714 621.845 756.835 621.718 756.92C621.654 756.963 621.604 756.997 621.569 757.022C621.551 757.034 621.537 757.043 621.527 757.051C621.522 757.054 621.517 757.057 621.514 757.059C621.513 757.06 621.511 757.061 621.51 757.062C621.51 757.062 621.509 757.063 621.509 757.063C621.508 757.063 621.508 757.063 621.508 757.064C621.508 757.064 621.508 757.064 622.656 758.701ZM640.948 754.166C640.948 752.166 640.948 752.166 640.948 752.166C640.948 752.166 640.947 752.166 640.947 752.166C640.947 752.166 640.946 752.166 640.945 752.166C640.944 752.166 640.942 752.166 640.94 752.166C640.936 752.166 640.93 752.166 640.923 752.166C640.909 752.166 640.888 752.166 640.862 752.166C640.809 752.167 640.734 752.167 640.637 752.169C640.442 752.171 640.163 752.176 639.814 752.187C639.116 752.207 638.136 752.248 637.001 752.33C634.755 752.493 631.809 752.822 629.227 753.506L630.252 757.373C632.476 756.783 635.133 756.476 637.29 756.32C638.357 756.243 639.278 756.204 639.931 756.185C640.258 756.175 640.516 756.171 640.691 756.168C640.778 756.167 640.844 756.166 640.888 756.166C640.91 756.166 640.926 756.166 640.936 756.166C640.941 756.166 640.945 756.166 640.947 756.166C640.948 756.166 640.948 756.166 640.948 756.166C640.949 756.166 640.949 756.166 640.949 756.166C640.949 756.166 640.948 756.166 640.948 756.166C640.948 756.166 640.948 756.166 640.948 754.166ZM627.75 755.641C628.027 758.384 628.416 760.84 627.793 763.501L631.687 764.413C632.5 760.944 631.977 757.682 631.73 755.238L627.75 755.641ZM627.793 763.501C627.668 764.032 627.502 764.57 627.286 765.115L631.002 766.594C631.295 765.858 631.519 765.13 631.687 764.413L627.793 763.501ZM623.719 763.59C623.719 765.59 623.719 765.59 623.719 765.59C623.719 765.59 623.719 765.59 623.719 765.59C623.719 765.59 623.719 765.59 623.719 765.59C623.719 765.59 623.719 765.59 623.72 765.59C623.721 765.59 623.723 765.59 623.725 765.59C623.731 765.59 623.739 765.59 623.75 765.59C623.773 765.59 623.808 765.591 623.854 765.591C623.946 765.592 624.081 765.593 624.253 765.596C624.597 765.601 625.084 765.612 625.652 765.635C626.799 765.679 628.23 765.768 629.467 765.938L630.013 761.976C628.585 761.779 627.005 761.684 625.808 761.638C625.204 761.614 624.686 761.602 624.317 761.596C624.133 761.593 623.986 761.592 623.883 761.591C623.832 761.591 623.792 761.59 623.765 761.59C623.751 761.59 623.74 761.59 623.732 761.59C623.729 761.59 623.726 761.59 623.723 761.59C623.722 761.59 623.721 761.59 623.721 761.59C623.72 761.59 623.72 761.59 623.72 761.59C623.72 761.59 623.72 761.59 623.72 761.59C623.719 761.59 623.719 761.59 623.719 763.59ZM640.191 764.733C640.368 762.741 640.368 762.741 640.368 762.741C640.368 762.741 640.368 762.741 640.368 762.741C640.368 762.741 640.367 762.741 640.367 762.74C640.365 762.74 640.364 762.74 640.361 762.74C640.357 762.74 640.35 762.739 640.341 762.738C640.323 762.737 640.296 762.734 640.261 762.731C640.191 762.725 640.089 762.716 639.959 762.704C639.698 762.681 639.324 762.649 638.873 762.61C637.971 762.532 636.756 762.428 635.509 762.327C634.263 762.225 632.978 762.126 631.937 762.055C630.985 761.99 630.033 761.934 629.611 761.961L629.869 765.953C629.865 765.953 630.008 765.951 630.387 765.969C630.722 765.985 631.159 766.011 631.667 766.046C632.681 766.115 633.945 766.213 635.185 766.314C636.423 766.414 637.63 766.517 638.528 766.595C638.977 766.634 639.349 766.666 639.608 766.689C639.737 766.7 639.839 766.709 639.908 766.715C639.942 766.719 639.969 766.721 639.986 766.722C639.995 766.723 640.002 766.724 640.006 766.724C640.009 766.724 640.01 766.725 640.011 766.725C640.012 766.725 640.012 766.725 640.013 766.725C640.013 766.725 640.013 766.725 640.013 766.725C640.013 766.725 640.013 766.725 640.191 764.733ZM577.861 758.062C577.95 757.235 578.082 756.529 578.247 755.977L574.415 754.832C574.158 755.689 573.99 756.651 573.884 757.634L577.861 758.062ZM584.255 758.215C584.49 756.229 584.49 756.229 584.49 756.229C584.49 756.229 584.489 756.229 584.489 756.229C584.489 756.229 584.489 756.229 584.488 756.229C584.487 756.229 584.486 756.229 584.484 756.229C584.481 756.228 584.477 756.228 584.471 756.227C584.46 756.226 584.445 756.224 584.424 756.222C584.383 756.217 584.324 756.21 584.249 756.202C584.097 756.185 583.879 756.162 583.608 756.135C583.066 756.081 582.308 756.011 581.444 755.949C579.743 755.827 577.529 755.726 575.73 755.853L576.014 759.843C577.515 759.737 579.493 759.819 581.157 759.939C581.977 759.998 582.696 760.064 583.21 760.115C583.467 760.141 583.672 760.163 583.812 760.178C583.881 760.186 583.935 760.192 583.97 760.196C583.988 760.198 584.001 760.199 584.009 760.2C584.013 760.201 584.016 760.201 584.018 760.201C584.019 760.201 584.02 760.202 584.02 760.202C584.02 760.202 584.02 760.202 584.02 760.202C584.02 760.202 584.02 760.202 584.02 760.202C584.02 760.202 584.02 760.202 584.255 758.215ZM566.879 758.215C567.055 760.208 567.055 760.208 567.055 760.208C567.055 760.208 567.055 760.208 567.055 760.208C567.055 760.208 567.055 760.208 567.055 760.208C567.056 760.208 567.057 760.207 567.058 760.207C567.061 760.207 567.065 760.207 567.07 760.206C567.081 760.205 567.097 760.204 567.119 760.202C567.162 760.198 567.226 760.193 567.31 760.186C567.476 760.172 567.719 760.152 568.02 760.129C568.622 760.082 569.455 760.022 570.378 759.967C572.259 759.854 574.402 759.77 575.762 759.845L575.983 755.851C574.365 755.762 572.012 755.862 570.139 755.974C569.187 756.031 568.33 756.093 567.711 756.141C567.401 756.165 567.151 756.185 566.977 756.2C566.89 756.207 566.822 756.213 566.776 756.217C566.753 756.219 566.735 756.22 566.723 756.221C566.716 756.222 566.712 756.222 566.708 756.223C566.707 756.223 566.705 756.223 566.705 756.223C566.704 756.223 566.704 756.223 566.703 756.223C566.703 756.223 566.703 756.223 566.703 756.223C566.703 756.223 566.703 756.223 566.879 758.215ZM578.581 767.579C578.379 766.967 578.189 766.107 578.039 765.074L574.08 765.647C574.249 766.814 574.482 767.921 574.782 768.83L578.581 767.579ZM578.039 765.074C577.723 762.892 577.628 760.223 577.861 758.062L573.884 757.634C573.61 760.179 573.724 763.188 574.08 765.647L578.039 765.074ZM583.914 761.178C583.753 761.206 583.556 761.215 582.993 761.268C582.501 761.315 581.876 761.385 581.124 761.528C579.611 761.814 577.66 762.377 575.196 763.557L576.923 767.164C579.079 766.132 580.7 765.679 581.868 765.458C582.456 765.347 582.948 765.29 583.369 765.251C583.72 765.218 584.232 765.182 584.596 765.119L583.914 761.178ZM568.867 769.407C569.895 771.122 569.895 771.122 569.895 771.122C569.895 771.122 569.896 771.122 569.896 771.122C569.896 771.122 569.896 771.122 569.896 771.121C569.897 771.121 569.898 771.121 569.899 771.12C569.902 771.118 569.905 771.116 569.911 771.113C569.921 771.107 569.936 771.098 569.956 771.085C569.997 771.061 570.057 771.025 570.134 770.979C570.288 770.888 570.51 770.755 570.782 770.595C571.325 770.272 572.066 769.836 572.857 769.379C574.492 768.432 576.176 767.491 576.857 767.195L575.263 763.526C574.322 763.935 572.408 765.017 570.853 765.917C570.048 766.383 569.295 766.826 568.743 767.153C568.468 767.316 568.242 767.45 568.085 767.544C568.006 767.591 567.945 767.628 567.903 767.653C567.882 767.665 567.866 767.675 567.855 767.681C567.849 767.685 567.845 767.687 567.842 767.689C567.841 767.69 567.84 767.69 567.839 767.691C567.839 767.691 567.839 767.691 567.838 767.691C567.838 767.691 567.838 767.692 567.838 767.692C567.838 767.692 567.838 767.692 568.867 769.407ZM613.814 748.193C612.743 748.257 612.108 748.99 611.86 749.32C611.552 749.729 611.333 750.199 611.179 750.615C610.868 751.451 610.665 752.481 610.665 753.406L614.665 753.406C614.665 752.997 614.768 752.439 614.928 752.01C615.008 751.793 615.066 751.711 615.058 751.722C615.052 751.73 614.989 751.814 614.854 751.911C614.713 752.011 614.44 752.162 614.054 752.185L613.814 748.193ZM610.665 753.406C610.665 754.438 610.97 755.479 611.387 756.281C611.597 756.686 611.881 757.118 612.25 757.479C612.58 757.8 613.233 758.311 614.159 758.316L614.181 754.316C614.484 754.318 614.711 754.407 614.839 754.474C614.964 754.539 615.03 754.602 615.044 754.616C615.068 754.639 615.018 754.593 614.937 754.437C614.862 754.294 614.79 754.111 614.738 753.914C614.686 753.716 614.665 753.54 614.665 753.406L610.665 753.406ZM614.159 758.316C615.34 758.323 616.016 757.525 616.293 757.077C616.575 756.62 616.721 756.116 616.806 755.75C616.984 754.985 617.05 754.106 617.085 753.527L613.092 753.285C613.057 753.862 613.004 754.44 612.91 754.843C612.86 755.06 612.832 755.067 612.889 754.975C612.924 754.919 613.028 754.763 613.239 754.613C613.475 754.444 613.802 754.314 614.181 754.316L614.159 758.316ZM617.085 753.527C617.138 752.642 616.959 751.573 616.686 750.732C616.549 750.309 616.346 749.81 616.047 749.376C615.837 749.073 615.109 748.115 613.814 748.193L614.054 752.185C613.562 752.215 613.199 752.03 613.011 751.896C612.838 751.771 612.76 751.657 612.755 751.648C612.744 751.633 612.802 751.724 612.881 751.966C612.952 752.185 613.013 752.447 613.052 752.706C613.092 752.973 613.099 753.175 613.092 753.285L617.085 753.527ZM590.779 749.945C589.534 749.869 588.812 750.732 588.554 751.109C588.249 751.553 588.062 752.059 587.941 752.469C587.691 753.315 587.564 754.322 587.564 755.158L591.564 755.158C591.564 754.662 591.648 754.04 591.777 753.6C591.846 753.368 591.89 753.317 591.853 753.37C591.832 753.401 591.737 753.535 591.539 753.669C591.319 753.818 590.97 753.964 590.536 753.938L590.779 749.945ZM587.564 755.158C587.564 756.214 587.91 757.298 588.277 758.062C588.461 758.445 588.713 758.879 589.035 759.236C589.188 759.404 589.459 759.672 589.853 759.862C590.279 760.068 591.058 760.264 591.863 759.818L589.925 756.319C590.63 755.929 591.294 756.116 591.593 756.261C591.859 756.389 591.993 756.542 592.002 756.552C592.038 756.592 591.981 756.535 591.882 756.329C591.684 755.916 591.564 755.434 591.564 755.158L587.564 755.158ZM591.863 759.818C592.476 759.479 592.818 758.91 592.944 758.695C593.131 758.375 593.291 758.016 593.422 757.665C593.68 756.975 593.905 756.104 593.955 755.279L589.962 755.037C589.942 755.369 589.833 755.843 589.676 756.264C589.599 756.469 589.531 756.606 589.493 756.673C589.473 756.706 589.479 756.69 589.516 756.646C589.537 756.62 589.67 756.46 589.925 756.319L591.863 759.818ZM593.955 755.279C594.012 754.332 593.771 753.246 593.454 752.417C593.292 751.991 593.065 751.515 592.757 751.103C592.528 750.796 591.882 750.012 590.779 749.945L590.536 753.938C590.125 753.913 589.846 753.745 589.722 753.654C589.656 753.605 589.613 753.563 589.589 753.538C589.564 753.512 589.552 753.496 589.551 753.494C589.55 753.493 589.57 753.521 589.605 753.589C589.639 753.654 589.678 753.74 589.718 753.845C589.799 754.058 589.869 754.304 589.914 754.542C589.96 754.79 589.967 754.961 589.962 755.037L593.955 755.279ZM602.797 760.023C602.171 760.049 601.658 760.308 601.358 760.492C601.015 760.702 600.685 760.98 600.409 761.301C600.149 761.605 599.831 762.072 599.696 762.676C599.544 763.358 599.641 764.212 600.261 764.916L603.264 762.273C603.421 762.452 603.542 762.682 603.599 762.941C603.653 763.19 603.633 763.402 603.6 763.547C603.569 763.688 603.522 763.783 603.497 763.828C603.47 763.876 603.45 763.9 603.446 763.904C603.444 763.906 603.454 763.899 603.45 763.901C603.445 763.904 603.414 763.923 603.353 763.946C603.301 763.965 603.165 764.011 602.963 764.019L602.797 760.023ZM600.261 764.916C600.811 765.541 601.547 765.761 601.956 765.85C602.44 765.956 602.948 765.979 603.409 765.946C603.858 765.914 604.39 765.821 604.887 765.603C605.286 765.428 606.229 764.918 606.46 763.759L602.538 762.974C602.621 762.562 602.836 762.287 602.99 762.142C603.134 762.006 603.255 761.951 603.282 761.939C603.331 761.918 603.282 761.945 603.127 761.956C602.983 761.966 602.864 761.954 602.809 761.942C602.784 761.936 602.812 761.939 602.876 761.97C602.932 761.996 603.095 762.081 603.264 762.273L600.261 764.916ZM606.46 763.759C606.627 762.927 606.35 762.229 606.064 761.785C605.784 761.348 605.421 761.026 605.112 760.804C604.793 760.575 604.442 760.388 604.095 760.256C603.782 760.137 603.315 760.001 602.797 760.023L602.963 764.019C602.821 764.025 602.728 764.007 602.702 764.002C602.669 763.995 602.659 763.99 602.672 763.995C602.701 764.006 602.746 764.029 602.78 764.054C602.825 764.085 602.773 764.062 602.698 763.944C602.618 763.82 602.44 763.464 602.538 762.974L606.46 763.759ZM605.718 848.775H611.224V844.775H605.718V848.775Z" fill="black"/>
</svg>
