<svg width="701" height="901" viewBox="0 0 701 901" fill="none" xmlns="http://www.w3.org/2000/svg">
<path d="M345.136 434.062C342.859 419.988 331.365 411.852 327.526 407.553C323.687 403.254 313.341 398.108 304.936 396.361C296.53 394.615 285.576 394.538 276.515 394.757C267.455 394.975 254.657 401.382 249.801 405.042C244.946 408.702 227.355 424.484 228.83 451.716C230.305 478.947 246.45 488.537 260.693 497.248C274.937 505.959 301.461 503.965 314.213 498.875C326.965 493.786 336.646 479.661 340.226 473.05C343.353 467.276 346.501 452.582 345.73 439.577C345.618 437.692 345.424 435.843 345.136 434.062Z" fill="white" fill-opacity="0.3"/>
<path d="M395.427 410.828C387.05 415.519 382.916 419.749 380.769 433.18C380.393 435.528 380.06 438.124 379.83 440.897C381.831 443.24 383.349 445.709 383.703 447.57C384.548 452.016 383.811 456.66 380.457 461.096C381.758 469.185 384.55 477.418 389.792 484.68C401.719 501.201 421.027 506.365 439.43 505.744C457.833 505.123 473.956 495.357 483.555 483.65C493.114 471.99 493.088 461.064 493.049 444.658L493.049 444.457C493.01 427.939 480.507 414.638 475.52 412.187C470.532 409.736 459.413 400.716 437.411 400.029C415.408 399.341 403.803 406.138 395.427 410.828Z" fill="white" fill-opacity="0.3"/>
<path d="M345.136 434.062L347.11 433.742L347.11 433.742L345.136 434.062ZM340.226 473.05L338.467 472.098L338.467 472.098L340.226 473.05ZM380.769 433.18L382.743 433.496L382.743 433.496L380.769 433.18ZM389.792 484.68L388.171 485.851L389.792 484.68ZM483.555 483.65L485.101 484.918L485.101 484.918L483.555 483.65ZM341.728 465.118C342.345 466.035 343.588 466.278 344.504 465.662C345.421 465.045 345.664 463.802 345.047 462.886L341.728 465.118ZM340.176 450.609L342.14 450.989L340.176 450.609ZM352.864 433.949L352.044 432.124L352.864 433.949ZM370.541 433.829L369.99 435.752L370.541 433.829ZM383.703 447.57L381.738 447.944L381.738 447.944L383.703 447.57ZM380.457 461.096L378.861 459.89L378.347 460.571L378.482 461.414L380.457 461.096ZM326.035 408.885C327.062 410.036 328.606 411.449 330.192 412.972C331.827 414.542 333.635 416.345 335.385 418.429C338.886 422.596 342.1 427.823 343.162 434.381L347.11 433.742C345.894 426.227 342.223 420.349 338.448 415.856C336.561 413.609 334.633 411.692 332.962 410.087C331.243 408.436 329.91 407.22 329.018 406.221L326.035 408.885ZM338.467 472.098C336.74 475.288 333.51 480.34 329.167 485.201C324.81 490.078 319.446 494.633 313.471 497.018L314.954 500.733C321.731 498.028 327.583 492.977 332.15 487.866C336.73 482.74 340.132 477.424 341.984 474.003L338.467 472.098ZM313.471 497.018C307.384 499.447 297.825 501.192 288.003 501.237C278.149 501.282 268.396 499.614 261.737 495.542L259.65 498.954C267.234 503.592 277.864 505.283 288.021 505.237C298.21 505.19 308.289 503.393 314.954 500.733L313.471 497.018ZM261.737 495.542C254.566 491.157 247.246 486.732 241.482 480.114C235.783 473.571 231.541 464.793 230.827 451.608L226.833 451.824C227.594 465.87 232.162 475.503 238.465 482.741C244.703 489.903 252.577 494.629 259.65 498.954L261.737 495.542ZM230.827 451.608C229.405 425.356 246.367 410.136 251.005 406.639L248.598 403.445C243.526 407.269 225.305 423.612 226.833 451.824L230.827 451.608ZM394.449 409.083C390.173 411.478 386.735 413.884 384.129 417.572C381.53 421.248 379.891 426.004 378.794 432.864L382.743 433.496C383.794 426.925 385.296 422.85 387.395 419.881C389.486 416.923 392.303 414.869 396.404 412.573L394.449 409.083ZM388.171 485.851C400.636 503.118 420.731 508.377 439.497 507.743L439.363 503.746C421.322 504.354 402.802 499.284 391.414 483.509L388.171 485.851ZM439.497 507.743C458.554 507.1 475.191 497.006 485.101 484.918L482.008 482.382C472.722 493.708 457.113 503.147 439.363 503.746L439.497 507.743ZM495.049 444.452C495.028 435.694 491.709 427.863 487.81 421.946C483.955 416.096 479.341 411.836 476.401 410.392L474.638 413.982C476.686 414.989 480.818 418.605 484.47 424.147C488.079 429.624 491.031 436.702 491.049 444.462L495.049 444.452ZM343.388 464.002C345.047 462.886 345.048 462.886 345.048 462.887C345.048 462.887 345.048 462.887 345.049 462.887C345.049 462.888 345.049 462.888 345.049 462.888C345.05 462.889 345.05 462.889 345.049 462.889C345.049 462.888 345.048 462.886 345.045 462.882C345.04 462.875 345.031 462.861 345.019 462.841C344.993 462.802 344.953 462.739 344.9 462.653C344.795 462.482 344.641 462.223 344.457 461.888C344.088 461.216 343.607 460.252 343.163 459.098C342.262 456.751 341.593 453.813 342.14 450.989L338.213 450.229C337.464 454.098 338.401 457.856 339.429 460.532C339.951 461.89 340.515 463.019 340.951 463.813C341.169 464.211 341.357 464.527 341.493 464.749C341.561 464.86 341.617 464.947 341.657 465.009C341.677 465.04 341.693 465.065 341.705 465.083C341.711 465.092 341.716 465.1 341.72 465.106C341.722 465.109 341.724 465.111 341.725 465.113C341.726 465.114 341.726 465.115 341.727 465.116C341.727 465.117 341.728 465.117 341.728 465.117C341.728 465.118 341.728 465.118 343.388 464.002ZM353.683 435.773C358.964 433.4 365.258 434.396 369.99 435.752L371.092 431.906C366.173 430.497 358.686 429.14 352.044 432.124L353.683 435.773ZM381.738 447.944C382.485 451.875 381.85 455.936 378.861 459.89L382.053 462.302C385.771 457.383 386.611 452.157 385.668 447.197L381.738 447.944ZM251.005 406.639C253.266 404.935 257.524 402.494 262.36 400.451C267.214 398.4 272.406 396.857 276.563 396.756L276.467 392.757C271.564 392.876 265.826 394.645 260.803 396.767C255.76 398.897 251.192 401.489 248.598 403.445L251.005 406.639ZM276.563 396.756C285.626 396.538 296.372 396.625 304.529 398.32L305.343 394.403C296.688 392.605 285.526 392.539 276.467 392.757L276.563 396.756ZM304.529 398.32C308.533 399.152 313.059 400.81 317.055 402.792C321.095 404.796 324.37 407.021 326.035 408.885L329.018 406.221C326.844 403.786 323.026 401.289 318.832 399.208C314.594 397.106 309.744 395.318 305.343 394.403L304.529 398.32ZM396.404 412.573C404.677 407.941 415.893 401.357 437.348 402.028L437.473 398.029C414.923 397.325 402.93 404.335 394.449 409.083L396.404 412.573ZM437.348 402.028C458.792 402.698 469.36 411.389 474.638 413.982L476.401 410.392C471.703 408.084 460.035 398.735 437.473 398.029L437.348 402.028ZM378.794 432.864C378.411 435.257 378.072 437.903 377.837 440.732L381.823 441.063C382.049 438.344 382.375 435.799 382.743 433.496L378.794 432.864ZM378.309 442.196C380.262 444.483 381.486 446.619 381.738 447.944L385.668 447.197C385.212 444.8 383.4 441.998 381.351 439.599L378.309 442.196ZM378.482 461.414C379.82 469.73 382.703 478.277 388.171 485.851L391.414 483.509C386.397 476.559 383.696 468.64 382.432 460.779L378.482 461.414ZM485.101 484.918C495.172 472.635 495.088 460.993 495.049 444.653L491.049 444.663C491.089 461.136 491.056 471.346 482.008 482.382L485.101 484.918ZM495.049 444.653L495.049 444.452L491.049 444.462L491.049 444.663L495.049 444.653ZM495.049 444.653C495.049 444.586 495.049 444.52 495.049 444.452L491.049 444.462C491.049 444.528 491.049 444.596 491.049 444.663L495.049 444.653ZM369.99 435.752C371.04 436.052 372.433 436.833 373.97 438.025C375.478 439.194 377.001 440.664 378.309 442.196L381.351 439.599C379.882 437.877 378.163 436.214 376.422 434.864C374.71 433.536 372.847 432.409 371.092 431.906L369.99 435.752ZM377.837 440.732C376.735 454.016 377.919 471.65 388.171 485.851L391.414 483.509C381.982 470.445 380.753 453.966 381.823 441.063L377.837 440.732ZM341.984 474.003C343.698 470.839 345.313 465.477 346.408 459.379C347.511 453.236 348.123 446.149 347.726 439.458L343.733 439.695C344.108 446.009 343.531 452.773 342.471 458.672C341.403 464.615 339.881 469.488 338.467 472.098L341.984 474.003ZM347.726 439.458C347.611 437.515 347.411 435.599 347.11 433.742L343.162 434.381C343.438 436.088 343.625 437.869 343.733 439.695L347.726 439.458ZM342.14 450.989C342.8 447.58 344.691 443.89 347.254 440.871L344.205 438.282C341.278 441.729 339.026 446.031 338.213 450.229L342.14 450.989ZM347.254 440.871C349.199 438.581 351.446 436.779 353.683 435.773L352.044 432.124C349.135 433.432 346.432 435.66 344.205 438.282L347.254 440.871Z" fill="black"/>
</svg>
