<svg width="701" height="901" viewBox="0 0 701 901" fill="none" xmlns="http://www.w3.org/2000/svg">
<path fill-rule="evenodd" clip-rule="evenodd" d="M185.875 437.012H541.844V452.604H537.531V462.888H524.593V476.49H509.996V489.097H495.73V502.035H411.466V489.097H398.527V476.49H384.925V452.604H348.433V476.49H334.499V489.097H320.566V502.035H236.301V489.097H222.699V476.49H208.434V462.888H195.496V452.604H185.875V437.012ZM222.699 462.888V448.955H236.301V462.888H251.23V476.49H265.827V489.097H251.23V476.49H236.301V462.888H222.699ZM398.527 464.547V452.604H411.466V464.547H424.736V476.49H438.006V489.097H424.736V476.49H411.466V464.547H398.527Z" fill="black"/>
<path d="M411.466 464.547V476.49H424.736V464.547H411.466Z" fill="white"/>
<path d="M424.736 476.49V489.097H438.006V476.49H424.736Z" fill="white"/>
<path d="M398.527 452.604V464.547H411.466V452.604H398.527Z" fill="white"/>
<path d="M251.23 476.49V489.097H265.827V476.49H251.23Z" fill="white"/>
<path d="M251.23 462.888H236.301V476.49H251.23V462.888Z" fill="white"/>
<path d="M222.699 448.955V462.888H236.301V448.955H222.699Z" fill="white"/>
<path d="M185.875 437.012V436.512H185.375V437.012H185.875ZM541.844 437.012H542.344V436.512H541.844V437.012ZM541.844 452.604V453.104H542.344V452.604H541.844ZM537.531 452.604V452.104H537.031V452.604H537.531ZM537.531 462.888V463.388H538.031V462.888H537.531ZM524.593 462.888V462.388H524.093V462.888H524.593ZM524.593 476.49V476.99H525.093V476.49H524.593ZM509.996 476.49V475.99H509.496V476.49H509.996ZM509.996 489.097V489.597H510.496V489.097H509.996ZM495.73 489.097V488.597H495.23V489.097H495.73ZM495.73 502.035V502.535H496.23V502.035H495.73ZM411.466 502.035H410.966V502.535H411.466V502.035ZM411.466 489.097H411.966V488.597H411.466V489.097ZM398.527 489.097H398.027V489.597H398.527V489.097ZM398.527 476.49H399.027V475.99H398.527V476.49ZM384.925 476.49H384.425V476.99H384.925V476.49ZM384.925 452.604H385.425V452.104H384.925V452.604ZM348.433 452.604V452.104H347.933V452.604H348.433ZM348.433 476.49V476.99H348.933V476.49H348.433ZM334.499 476.49V475.99H333.999V476.49H334.499ZM334.499 489.097V489.597H334.999V489.097H334.499ZM320.566 489.097V488.597H320.066V489.097H320.566ZM320.566 502.035V502.535H321.066V502.035H320.566ZM236.301 502.035H235.801V502.535H236.301V502.035ZM236.301 489.097H236.801V488.597H236.301V489.097ZM222.699 489.097H222.199V489.597H222.699V489.097ZM222.699 476.49H223.199V475.99H222.699V476.49ZM208.434 476.49H207.934V476.99H208.434V476.49ZM208.434 462.888H208.934V462.388H208.434V462.888ZM195.496 462.888H194.996V463.388H195.496V462.888ZM195.496 452.604H195.996V452.104H195.496V452.604ZM185.875 452.604H185.375V453.104H185.875V452.604ZM222.699 448.955V448.455H222.199V448.955H222.699ZM222.699 462.888H222.199V463.388H222.699V462.888ZM236.301 448.955H236.801V448.455H236.301V448.955ZM251.23 462.888H251.73V462.388H251.23V462.888ZM236.301 476.49H235.801V476.99H236.301V476.49ZM251.23 489.097H250.73V489.597H251.23V489.097ZM265.827 489.097V489.597H266.327V489.097H265.827ZM265.827 476.49H266.327V475.99H265.827V476.49ZM398.527 452.604V452.104H398.027V452.604H398.527ZM398.527 464.547H398.027V465.047H398.527V464.547ZM411.466 452.604H411.966V452.104H411.466V452.604ZM411.466 476.49H410.966V476.99H411.466V476.49ZM424.736 464.547H425.236V464.047H424.736V464.547ZM424.736 489.097H424.236V489.597H424.736V489.097ZM438.006 489.097V489.597H438.506V489.097H438.006ZM438.006 476.49H438.506V475.99H438.006V476.49ZM185.875 437.512H541.844V436.512H185.875V437.512ZM541.344 437.012V452.604H542.344V437.012H541.344ZM541.844 452.104H537.531V453.104H541.844V452.104ZM537.031 452.604V462.888H538.031V452.604H537.031ZM537.531 462.388H524.593V463.388H537.531V462.388ZM524.093 462.888V476.49H525.093V462.888H524.093ZM524.593 475.99H509.996V476.99H524.593V475.99ZM509.496 476.49V489.097H510.496V476.49H509.496ZM509.996 488.597H495.73V489.597H509.996V488.597ZM495.23 489.097V502.035H496.23V489.097H495.23ZM495.73 501.535H411.466V502.535H495.73V501.535ZM411.966 502.035V489.097H410.966V502.035H411.966ZM411.466 488.597H398.527V489.597H411.466V488.597ZM399.027 489.097V476.49H398.027V489.097H399.027ZM398.527 475.99H384.925V476.99H398.527V475.99ZM385.425 476.49V452.604H384.425V476.49H385.425ZM384.925 452.104H348.433V453.104H384.925V452.104ZM347.933 452.604V476.49H348.933V452.604H347.933ZM348.433 475.99H334.499V476.99H348.433V475.99ZM333.999 476.49V489.097H334.999V476.49H333.999ZM334.499 488.597H320.566V489.597H334.499V488.597ZM320.066 489.097V502.035H321.066V489.097H320.066ZM320.566 501.535H236.301V502.535H320.566V501.535ZM236.801 502.035V489.097H235.801V502.035H236.801ZM236.301 488.597H222.699V489.597H236.301V488.597ZM223.199 489.097V476.49H222.199V489.097H223.199ZM222.699 475.99H208.434V476.99H222.699V475.99ZM208.934 476.49V462.888H207.934V476.49H208.934ZM208.434 462.388H195.496V463.388H208.434V462.388ZM195.996 462.888V452.604H194.996V462.888H195.996ZM195.496 452.104H185.875V453.104H195.496V452.104ZM186.375 452.604V437.012H185.375V452.604H186.375ZM222.199 448.955V462.888H223.199V448.955H222.199ZM222.699 463.388H236.301V462.388H222.699V463.388ZM236.801 462.888V448.955H235.801V462.888H236.801ZM236.301 448.455H222.699V449.455H236.301V448.455ZM236.301 463.388H251.23V462.388H236.301V463.388ZM250.73 462.888V476.49H251.73V462.888H250.73ZM251.23 475.99H236.301V476.99H251.23V475.99ZM236.801 476.49V462.888H235.801V476.49H236.801ZM250.73 476.49V489.097H251.73V476.49H250.73ZM251.23 489.597H265.827V488.597H251.23V489.597ZM266.327 489.097V476.49H265.327V489.097H266.327ZM265.827 475.99H251.23V476.99H265.827V475.99ZM398.027 452.604V464.547H399.027V452.604H398.027ZM398.527 465.047H411.466V464.047H398.527V465.047ZM411.966 464.547V452.604H410.966V464.547H411.966ZM411.466 452.104H398.527V453.104H411.466V452.104ZM410.966 464.547V476.49H411.966V464.547H410.966ZM411.466 476.99H424.736V475.99H411.466V476.99ZM425.236 476.49V464.547H424.236V476.49H425.236ZM424.736 464.047H411.466V465.047H424.736V464.047ZM424.236 476.49V489.097H425.236V476.49H424.236ZM424.736 489.597H438.006V488.597H424.736V489.597ZM438.506 489.097V476.49H437.506V489.097H438.506ZM438.006 475.99H424.736V476.99H438.006V475.99Z" fill="black"/>
</svg>
