<svg width="701" height="901" viewBox="0 0 701 901" fill="none" xmlns="http://www.w3.org/2000/svg">
<path d="M103.405 818.634C114.487 818.759 130.164 818.634 130.164 818.634C130.164 818.634 135.382 818.001 135.426 812.561C135.47 807.12 125.713 807.422 125.713 807.422H78.894H75.9377C75.9377 807.422 68.8479 807.256 68.4512 812.561C68.0544 817.865 74.5054 819.137 74.5054 819.137C75.9377 819.2 92.3238 818.508 103.405 818.634Z" fill="#C26329"/>
<path d="M81.3988 852.192C83.1617 852.885 94.0868 854.837 103.405 854.837C112.724 854.837 121.217 853.244 123.994 851.418C126.771 849.592 130.164 818.634 130.164 818.634C130.164 818.634 114.487 818.759 103.405 818.634C92.3238 818.508 75.9377 819.2 74.5054 819.137C74.5054 819.137 79.6358 851.5 81.3988 852.192Z" fill="#C26329"/>
<path d="M75.9377 782.246C74.5054 796.45 75.9377 804.117 78.894 807.422H125.713C127.441 805.227 127.635 794.65 127.562 782.916C127.489 771.183 116.664 756.234 101.959 756.385C87.2546 756.535 77.3701 768.043 75.9377 782.246Z" fill="#1AAE54"/>
<path d="M75.9377 807.422L75.9027 808.922L75.9202 808.922H75.9377V807.422ZM125.713 807.422V808.922H125.737L125.76 808.921L125.713 807.422ZM78.5728 799.403C79.3919 799.527 80.1565 798.963 80.2806 798.144C80.4047 797.325 79.8413 796.561 79.0222 796.436L78.5728 799.403ZM71.6069 795.313C70.7879 795.189 70.0233 795.752 69.8992 796.571C69.7751 797.391 70.3385 798.155 71.1576 798.279L71.6069 795.313ZM74.5054 797.269L74.7301 795.786L74.7301 795.786L74.5054 797.269ZM79.5628 790.073C80.3818 790.197 81.1464 789.634 81.2705 788.815C81.3946 787.996 80.8312 787.231 80.0121 787.107L79.5628 790.073ZM72.5969 785.984C71.7778 785.86 71.0132 786.423 70.8891 787.242C70.765 788.061 71.3284 788.826 72.1475 788.95L72.5969 785.984ZM75.4954 787.94L75.72 786.457L75.72 786.457L75.4954 787.94ZM79.7875 782.332C80.6159 782.332 81.2875 781.661 81.2875 780.832C81.2875 780.004 80.6159 779.332 79.7875 779.332V782.332ZM71.8223 779.332C70.9939 779.332 70.3223 780.004 70.3223 780.832C70.3223 781.661 70.9939 782.332 71.8223 782.332V779.332ZM80.4603 775.669C81.2599 775.886 82.0836 775.413 82.3 774.613C82.5164 773.813 82.0435 772.99 81.2438 772.773L80.4603 775.669ZM74.3909 770.919C73.5912 770.703 72.7676 771.176 72.5512 771.975C72.3348 772.775 72.8077 773.599 73.6073 773.815L74.3909 770.919ZM92.9629 785.063C93.7854 784.964 94.3722 784.217 94.2735 783.395C94.1748 782.572 93.428 781.986 92.6055 782.084L92.9629 785.063ZM88.5743 782.568C87.7518 782.667 87.165 783.413 87.2637 784.236C87.3625 785.059 88.1093 785.645 88.9318 785.547L88.5743 782.568ZM89.5741 792.291C90.3813 792.105 90.8847 791.3 90.6984 790.492C90.5121 789.685 89.7067 789.182 88.8995 789.368L89.5741 792.291ZM83.659 790.577C82.8518 790.764 82.3485 791.569 82.5347 792.376C82.721 793.183 83.5264 793.687 84.3336 793.501L83.659 790.577ZM84.0084 769.32C84.5074 769.981 85.448 770.113 86.1093 769.614C86.7705 769.115 86.902 768.174 86.403 767.513L84.0084 769.32ZM83.178 763.24C82.679 762.579 81.7384 762.447 81.0772 762.946C80.4159 763.445 80.2844 764.386 80.7835 765.047L83.178 763.24ZM90.8609 763.246C91.6119 763.596 92.5042 763.27 92.854 762.519C93.2038 761.768 92.8785 760.876 92.1275 760.526L90.8609 763.246ZM86.2421 757.785C85.4911 757.435 84.5988 757.761 84.249 758.512C83.8993 759.263 84.2245 760.155 84.9755 760.505L86.2421 757.785ZM99.3465 759.871C99.3465 760.699 100.018 761.371 100.846 761.37C101.675 761.37 102.346 760.699 102.346 759.87L99.3465 759.871ZM102.346 753.018C102.346 752.189 101.675 751.518 100.846 751.518C100.018 751.518 99.3465 752.189 99.3465 753.018L102.346 753.018ZM109.648 760.174C109.148 760.835 109.278 761.776 109.938 762.276C110.599 762.776 111.539 762.646 112.04 761.985L109.648 760.174ZM116.313 756.342C116.813 755.681 116.683 754.74 116.022 754.24C115.362 753.74 114.421 753.87 113.921 754.531L116.313 756.342ZM115.98 766.069C115.262 766.483 115.016 767.4 115.43 768.118C115.844 768.836 116.761 769.082 117.479 768.668L115.98 766.069ZM123.767 765.04C124.485 764.626 124.731 763.708 124.317 762.991C123.903 762.273 122.986 762.027 122.268 762.441L123.767 765.04ZM123.905 786.44C123.076 786.44 122.405 787.111 122.405 787.94C122.405 788.768 123.076 789.44 123.905 789.44V786.44ZM131.741 788.964C132.568 788.91 133.195 788.197 133.141 787.37C133.088 786.543 132.374 785.916 131.548 785.97L131.741 788.964ZM123.35 795.807C122.542 795.623 121.738 796.129 121.555 796.937C121.371 797.745 121.878 798.549 122.686 798.732L123.35 795.807ZM129.832 800.355C130.64 800.538 131.444 800.032 131.627 799.224C131.81 798.416 131.304 797.612 130.496 797.429L129.832 800.355ZM120.951 778.416C120.195 778.756 119.859 779.645 120.199 780.4C120.539 781.155 121.427 781.492 122.182 781.152L120.951 778.416ZM130.78 777.282C131.535 776.942 131.872 776.054 131.532 775.299C131.192 774.543 130.304 774.207 129.549 774.547L130.78 777.282ZM106.971 775.569C106.38 776.15 106.371 777.099 106.951 777.691C107.532 778.282 108.481 778.291 109.073 777.711L106.971 775.569ZM113.426 773.438C114.017 772.857 114.026 771.908 113.446 771.316C112.866 770.725 111.916 770.716 111.325 771.296L113.426 773.438ZM109.312 784.25C108.483 784.25 107.812 784.922 107.812 785.75C107.812 786.579 108.483 787.25 109.312 787.25V784.25ZM113.907 787.25C114.736 787.25 115.407 786.579 115.407 785.75C115.407 784.922 114.736 784.25 113.907 784.25V787.25ZM110.279 793.119C109.451 793.119 108.779 793.79 108.779 794.619C108.779 795.447 109.451 796.119 110.279 796.119V793.119ZM117.052 796.119C117.88 796.119 118.552 795.447 118.552 794.619C118.552 793.79 117.88 793.119 117.052 793.119V796.119ZM112.375 799.891C111.547 799.891 110.875 800.563 110.875 801.391C110.875 802.22 111.547 802.891 112.375 802.891V799.891ZM117.616 802.891C118.444 802.891 119.116 802.22 119.116 801.391C119.116 800.563 118.444 799.891 117.616 799.891V802.891ZM98.3471 800.246C99.095 799.89 99.4126 798.995 99.0565 798.247C98.7003 797.499 97.8052 797.181 97.0573 797.538L98.3471 800.246ZM93.6711 799.15C92.9232 799.506 92.6056 800.401 92.9617 801.149C93.3179 801.897 94.213 802.215 94.9609 801.859L93.6711 799.15ZM86.306 802.719C87.0395 802.334 87.322 801.427 86.9369 800.694C86.5518 799.96 85.645 799.678 84.9115 800.063L86.306 802.719ZM81.6866 801.756C80.9531 802.141 80.6707 803.048 81.0558 803.781C81.4409 804.515 82.3476 804.797 83.0811 804.412L81.6866 801.756ZM90.4908 778.239C91.1066 778.793 92.055 778.743 92.6092 778.127C93.1634 777.511 93.1134 776.563 92.4977 776.009L90.4908 778.239ZM89.2728 773.106C88.657 772.552 87.7086 772.602 87.1544 773.218C86.6002 773.834 86.6501 774.782 87.2659 775.336L89.2728 773.106ZM96.1295 767.836C96.6993 768.437 97.6487 768.463 98.2501 767.893C98.8515 767.323 98.8771 766.374 98.3074 765.772L96.1295 767.836ZM95.405 762.709C94.8352 762.107 93.8858 762.082 93.2844 762.651C92.683 763.221 92.6573 764.171 93.2271 764.772L95.405 762.709ZM102.416 767.289C101.793 767.836 101.731 768.783 102.278 769.406C102.824 770.029 103.772 770.09 104.395 769.544L102.416 767.289ZM108.528 765.916C109.15 765.369 109.212 764.421 108.665 763.799C108.119 763.176 107.171 763.115 106.549 763.661L108.528 765.916ZM116.397 774.162C115.652 774.523 115.34 775.42 115.702 776.166C116.063 776.911 116.961 777.222 117.706 776.861L116.397 774.162ZM120.367 775.571C121.112 775.21 121.423 774.312 121.062 773.567C120.7 772.821 119.803 772.51 119.058 772.872L120.367 775.571ZM99.6209 789.986C100.392 789.684 100.772 788.813 100.469 788.042C100.166 787.271 99.2958 786.891 98.5246 787.194L99.6209 789.986ZM96.1059 788.143C95.3348 788.446 94.9551 789.317 95.2578 790.088C95.5605 790.859 96.4311 791.239 97.2022 790.936L96.1059 788.143ZM98.3392 779.129C98.8232 779.801 99.7607 779.954 100.433 779.47C101.105 778.986 101.258 778.048 100.774 777.376L98.3392 779.129ZM97.8714 773.345C97.3873 772.673 96.4499 772.52 95.7776 773.004C95.1053 773.488 94.9527 774.425 95.4368 775.098L97.8714 773.345ZM80.8503 853.589C81.4358 853.819 82.5796 854.092 83.9796 854.369C85.4289 854.656 87.2792 854.969 89.3613 855.26C93.5194 855.84 98.6538 856.337 103.405 856.337L103.405 853.337C98.8382 853.337 93.8509 852.858 89.776 852.289C87.7418 852.005 85.9479 851.701 84.5616 851.426C83.1262 851.142 82.2433 850.913 81.9473 850.796L80.8503 853.589ZM103.405 856.337C108.144 856.337 112.682 855.932 116.407 855.29C120.053 854.662 123.147 853.77 124.818 852.671L123.17 850.164C122.064 850.891 119.522 851.709 115.898 852.334C112.352 852.945 107.985 853.337 103.405 853.337L103.405 856.337ZM124.818 852.671C125.312 852.346 125.633 851.844 125.839 851.464C126.07 851.039 126.279 850.531 126.472 849.982C126.859 848.879 127.234 847.455 127.593 845.853C128.314 842.641 129.005 838.558 129.604 834.563C130.204 830.562 130.717 826.621 131.079 823.683C131.261 822.213 131.405 820.993 131.503 820.139C131.552 819.713 131.59 819.378 131.616 819.149C131.629 819.035 131.639 818.947 131.645 818.888C131.649 818.858 131.651 818.836 131.653 818.82C131.654 818.813 131.654 818.807 131.655 818.803C131.655 818.801 131.655 818.8 131.655 818.799C131.655 818.798 131.655 818.798 131.655 818.797C131.655 818.797 131.655 818.797 130.164 818.634C128.673 818.47 128.673 818.47 128.673 818.47C128.673 818.471 128.673 818.471 128.673 818.471C128.673 818.472 128.673 818.473 128.673 818.475C128.672 818.479 128.672 818.484 128.671 818.492C128.669 818.506 128.667 818.528 128.664 818.557C128.657 818.615 128.648 818.701 128.635 818.814C128.61 819.04 128.572 819.372 128.523 819.795C128.425 820.642 128.282 821.855 128.102 823.316C127.741 826.239 127.232 830.152 126.637 834.118C126.041 838.091 125.363 842.09 124.666 845.197C124.317 846.754 123.971 848.048 123.641 848.988C123.476 849.46 123.327 849.804 123.202 850.033C123.054 850.307 123.023 850.261 123.17 850.164L124.818 852.671ZM130.164 818.634C130.152 817.134 130.152 817.134 130.152 817.134C130.152 817.134 130.152 817.134 130.152 817.134C130.151 817.134 130.15 817.134 130.149 817.134C130.148 817.134 130.145 817.134 130.141 817.134C130.133 817.134 130.122 817.134 130.107 817.134C130.077 817.134 130.033 817.134 129.974 817.135C129.857 817.136 129.683 817.137 129.458 817.139C129.009 817.142 128.353 817.146 127.533 817.151C125.891 817.161 123.586 817.173 120.936 817.181C115.633 817.196 108.952 817.196 103.422 817.134L103.388 820.133C108.94 820.196 115.638 820.196 120.945 820.181C123.599 820.173 125.906 820.161 127.551 820.151C128.373 820.146 129.029 820.142 129.48 820.139C129.705 820.137 129.879 820.136 129.997 820.135C130.056 820.134 130.101 820.134 130.131 820.134C130.146 820.134 130.157 820.134 130.165 820.134C130.169 820.134 130.171 820.133 130.173 820.133C130.174 820.133 130.175 820.133 130.176 820.133C130.176 820.133 130.176 820.133 130.176 820.133C130.176 820.133 130.176 820.133 130.164 818.634ZM103.422 817.134C97.8509 817.07 90.9595 817.213 85.2973 817.362C79.5585 817.514 75.2172 817.667 74.5713 817.639L74.4395 820.636C75.2259 820.67 79.7938 820.509 85.3765 820.361C91.0358 820.212 97.8781 820.071 103.388 820.133L103.422 817.134ZM74.5054 819.137C73.0239 819.372 73.0239 819.372 73.024 819.373C73.024 819.373 73.0241 819.373 73.0242 819.374C73.0243 819.375 73.0246 819.376 73.0249 819.378C73.0255 819.382 73.0265 819.388 73.0277 819.396C73.0302 819.412 73.0339 819.435 73.0389 819.466C73.0487 819.528 73.0633 819.619 73.0823 819.738C73.1205 819.976 73.1766 820.325 73.2486 820.769C73.3927 821.657 73.6004 822.927 73.8551 824.452C74.3644 827.501 75.0622 831.577 75.8157 835.676C76.5683 839.771 77.3799 843.909 78.117 847.075C78.4843 848.654 78.8408 850.024 79.1698 851.037C79.3325 851.538 79.5033 851.998 79.6832 852.366C79.7721 852.548 79.8845 852.752 80.0257 852.939C80.1412 853.092 80.4056 853.414 80.8503 853.589L81.9473 850.796C82.1311 850.869 82.252 850.964 82.3129 851.018C82.3763 851.075 82.4116 851.12 82.4221 851.134C82.4405 851.159 82.424 851.142 82.3786 851.049C82.2896 850.866 82.1693 850.56 82.023 850.11C81.7341 849.22 81.4005 847.949 81.0389 846.395C80.3182 843.299 79.5167 839.217 78.7663 835.134C78.0168 831.056 77.3218 826.998 76.8141 823.958C76.5603 822.438 76.3534 821.173 76.2099 820.289C76.1382 819.847 76.0824 819.5 76.0446 819.264C76.0256 819.145 76.0112 819.055 76.0015 818.994C75.9966 818.964 75.993 818.941 75.9905 818.925C75.9893 818.918 75.9884 818.912 75.9878 818.908C75.9875 818.906 75.9873 818.905 75.9871 818.904C75.987 818.903 75.987 818.903 75.9869 818.903C75.9869 818.902 75.9869 818.902 74.5054 819.137ZM69.947 812.673C70.0811 810.88 71.2773 809.951 72.8276 809.422C73.5968 809.159 74.375 809.032 74.9736 808.971C75.2693 808.942 75.5124 808.929 75.6772 808.924C75.7595 808.922 75.8216 808.921 75.8604 808.921C75.8798 808.921 75.8933 808.921 75.9005 808.922C75.9041 808.922 75.9061 808.922 75.9065 808.922C75.9067 808.922 75.9065 808.922 75.9058 808.922C75.9055 808.922 75.9051 808.922 75.9046 808.922C75.9043 808.922 75.9039 808.922 75.9037 808.922C75.9032 808.922 75.9027 808.922 75.9377 807.422C75.9728 805.922 75.9722 805.922 75.9716 805.922C75.9713 805.922 75.9707 805.922 75.9702 805.922C75.9693 805.922 75.9682 805.922 75.967 805.922C75.9647 805.922 75.9619 805.922 75.9587 805.922C75.9523 805.922 75.9441 805.922 75.9343 805.922C75.9146 805.921 75.8883 805.921 75.8556 805.921C75.7904 805.921 75.6998 805.922 75.5874 805.926C75.3629 805.933 75.0491 805.949 74.6739 805.986C73.9307 806.061 72.9117 806.223 71.8589 806.583C69.765 807.297 67.218 808.937 66.9553 812.449L69.947 812.673ZM125.713 807.422C125.76 808.921 125.759 808.921 125.759 808.921C125.759 808.921 125.759 808.921 125.759 808.921C125.758 808.921 125.758 808.921 125.758 808.921C125.758 808.921 125.759 808.921 125.76 808.921C125.763 808.921 125.767 808.921 125.774 808.921C125.788 808.921 125.811 808.92 125.842 808.92C125.903 808.919 125.997 808.918 126.119 808.92C126.364 808.922 126.718 808.93 127.144 808.957C128.005 809.01 129.126 809.134 130.225 809.407C131.343 809.685 132.317 810.088 132.982 810.628C133.595 811.124 133.933 811.715 133.926 812.549L136.926 812.573C136.941 810.686 136.076 809.274 134.872 808.298C133.72 807.363 132.263 806.822 130.948 806.495C129.613 806.164 128.297 806.023 127.33 805.963C126.843 805.932 126.435 805.922 126.146 805.92C126.001 805.918 125.886 805.919 125.804 805.92C125.764 805.92 125.732 805.921 125.709 805.922C125.697 805.922 125.688 805.922 125.681 805.922C125.677 805.922 125.674 805.922 125.672 805.922C125.671 805.923 125.67 805.923 125.669 805.923C125.669 805.923 125.668 805.923 125.668 805.923C125.668 805.923 125.667 805.923 125.713 807.422ZM133.926 812.549C133.909 814.682 132.925 815.763 131.97 816.374C131.465 816.697 130.95 816.895 130.556 817.011C130.362 817.068 130.204 817.103 130.101 817.124C130.049 817.134 130.012 817.14 129.992 817.143C129.982 817.145 129.976 817.145 129.974 817.146C129.974 817.146 129.974 817.146 129.976 817.145C129.976 817.145 129.977 817.145 129.979 817.145C129.98 817.145 129.98 817.145 129.981 817.145C129.982 817.145 129.982 817.145 129.982 817.145C129.983 817.144 129.984 817.144 130.164 818.634C130.345 820.123 130.346 820.123 130.346 820.122C130.347 820.122 130.347 820.122 130.348 820.122C130.349 820.122 130.35 820.122 130.352 820.122C130.354 820.121 130.357 820.121 130.361 820.121C130.367 820.12 130.375 820.119 130.384 820.117C130.403 820.115 130.426 820.112 130.454 820.107C130.51 820.098 130.585 820.086 130.676 820.068C130.859 820.032 131.109 819.976 131.404 819.889C131.99 819.716 132.782 819.416 133.587 818.901C135.253 817.835 136.899 815.88 136.926 812.573L133.926 812.549ZM75.9377 808.922H78.894V805.922H75.9377V808.922ZM80.0119 806.422C78.8231 805.093 77.788 802.697 77.2569 798.723C76.7295 794.776 76.7204 789.435 77.4302 782.397L74.4453 782.096C73.7227 789.262 73.7136 794.856 74.2834 799.12C74.8494 803.356 76.0086 806.446 77.7761 808.422L80.0119 806.422ZM77.4302 782.397C78.804 768.774 88.2025 758.025 101.975 757.884L101.944 754.885C86.3067 755.044 75.9362 767.312 74.4453 782.096L77.4302 782.397ZM101.975 757.884C108.788 757.815 114.78 761.241 119.121 766.184C123.475 771.142 126.028 777.475 126.062 782.925L129.062 782.907C129.023 776.623 126.127 769.616 121.375 764.204C116.608 758.777 109.836 754.804 101.944 754.885L101.975 757.884ZM78.894 808.922H125.713V805.922H78.894V808.922ZM126.062 782.925C126.098 788.791 126.068 794.326 125.816 798.659C125.689 800.828 125.51 802.657 125.264 804.058C125.141 804.758 125.007 805.323 124.866 805.754C124.719 806.205 124.593 806.42 124.535 806.494L126.892 808.35C127.266 807.875 127.524 807.279 127.718 806.686C127.918 806.073 128.082 805.359 128.219 804.576C128.493 803.01 128.681 801.049 128.811 798.833C129.069 794.395 129.098 788.775 129.062 782.907L126.062 782.925ZM74.5054 819.137C74.7956 817.666 74.7962 817.666 74.7967 817.666C74.7968 817.666 74.7973 817.666 74.7976 817.666C74.7982 817.666 74.7987 817.666 74.7991 817.666C74.7999 817.666 74.8003 817.666 74.8003 817.666C74.8004 817.666 74.799 817.666 74.7961 817.666C74.7904 817.664 74.7791 817.662 74.7624 817.658C74.729 817.651 74.6747 817.638 74.6024 817.619C74.4576 817.582 74.2431 817.522 73.9836 817.434C73.4585 817.257 72.78 816.978 72.1269 816.568C70.8265 815.751 69.8057 814.562 69.947 812.673L66.9553 812.449C66.6999 815.864 68.7062 817.963 70.5321 819.109C71.4422 819.68 72.3516 820.05 73.0237 820.277C73.3628 820.391 73.6492 820.472 73.8555 820.525C73.9589 820.552 74.0428 820.571 74.1037 820.585C74.1342 820.592 74.159 820.597 74.1777 820.601C74.1871 820.603 74.1949 820.605 74.2012 820.606C74.2043 820.607 74.207 820.607 74.2094 820.608C74.2105 820.608 74.2116 820.608 74.2126 820.608C74.2131 820.608 74.2137 820.609 74.214 820.609C74.2146 820.609 74.2152 820.609 74.5054 819.137ZM79.0222 796.436L74.7301 795.786L74.2807 798.752L78.5728 799.403L79.0222 796.436ZM74.7301 795.786L71.6069 795.313L71.1576 798.279L74.2807 798.752L74.7301 795.786ZM80.0121 787.107L75.72 786.457L75.2707 789.423L79.5628 790.073L80.0121 787.107ZM75.72 786.457L72.5969 785.984L72.1475 788.95L75.2707 789.423L75.72 786.457ZM79.7875 779.332H71.8223V782.332H79.7875V779.332ZM81.2438 772.773L74.3909 770.919L73.6073 773.815L80.4603 775.669L81.2438 772.773ZM92.6055 782.084L88.5743 782.568L88.9318 785.547L92.9629 785.063L92.6055 782.084ZM88.8995 789.368L83.659 790.577L84.3336 793.501L89.5741 792.291L88.8995 789.368ZM86.403 767.513L83.178 763.24L80.7835 765.047L84.0084 769.32L86.403 767.513ZM92.1275 760.526L86.2421 757.785L84.9755 760.505L90.8609 763.246L92.1275 760.526ZM102.346 759.87C102.346 759.29 102.346 755.06 102.346 753.018L99.3465 753.018C99.3465 755.06 99.3465 759.29 99.3465 759.871L102.346 759.87ZM112.04 761.985L116.313 756.342L113.921 754.531L109.648 760.174L112.04 761.985ZM117.479 768.668L123.767 765.04L122.268 762.441L115.98 766.069L117.479 768.668ZM123.905 789.44C124.291 789.44 129.35 789.118 131.741 788.964L131.548 785.97C130.326 786.049 128.473 786.167 126.885 786.265C126.092 786.315 125.366 786.359 124.819 786.391C124.545 786.407 124.318 786.419 124.151 786.428C123.961 786.438 123.896 786.44 123.905 786.44V789.44ZM122.686 798.732L129.832 800.355L130.496 797.429L123.35 795.807L122.686 798.732ZM122.182 781.152L130.78 777.282L129.549 774.547L120.951 778.416L122.182 781.152ZM109.073 777.711L113.426 773.438L111.325 771.296L106.971 775.569L109.073 777.711ZM109.312 787.25H113.907V784.25H109.312V787.25ZM110.279 796.119H117.052V793.119H110.279V796.119ZM112.375 802.891H117.616V799.891H112.375V802.891ZM97.0573 797.538L93.6711 799.15L94.9609 801.859L98.3471 800.246L97.0573 797.538ZM84.9115 800.063L81.6866 801.756L83.0811 804.412L86.306 802.719L84.9115 800.063ZM92.4977 776.009L89.2728 773.106L87.2659 775.336L90.4908 778.239L92.4977 776.009ZM98.3074 765.772L95.405 762.709L93.2271 764.772L96.1295 767.836L98.3074 765.772ZM104.395 769.544L108.528 765.916L106.549 763.661L102.416 767.289L104.395 769.544ZM117.706 776.861L120.367 775.571L119.058 772.872L116.397 774.162L117.706 776.861ZM98.5246 787.194L96.1059 788.143L97.2022 790.936L99.6209 789.986L98.5246 787.194ZM100.774 777.376L97.8714 773.345L95.4368 775.098L98.3392 779.129L100.774 777.376Z" fill="black"/>
</svg>
