<svg width="701" height="901" viewBox="0 0 701 901" fill="none" xmlns="http://www.w3.org/2000/svg">
<g clip-path="url(#clip0_190_6793)">
<path fill-rule="evenodd" clip-rule="evenodd" d="M107.54 98.9511H136.747V88.7288C136.747 88.3637 132.913 76.103 130.997 70.0182L120.683 58.0406L107.54 51.3077L89.9248 50.1211L72.0357 56.2362L61.9042 68.5578C60.4135 72.6954 57.3957 81.0619 57.2497 81.427C57.1036 81.7921 55.5458 90.9496 54.7852 95.4827V98.9511L79.9763 98.4034L107.54 98.9511ZM113.885 61.7325L113.941 61.7787C116.115 63.5551 119.656 69.0388 117.674 70.5655C115.691 72.0922 113.331 67.8236 110.892 65.3049C108.453 62.7862 102.939 60.1617 104.875 58.0406C106.794 55.9378 111.682 59.9328 113.885 61.7325ZM122.929 74.6905C120.729 71.2291 117.673 72.4474 118.313 75.6767C118.952 78.9061 125.13 78.1519 122.929 74.6905Z" fill="#43DDFF"/>
<path d="M104.875 58.0406C102.939 60.1617 108.453 62.7862 110.892 65.3049C113.331 67.8236 115.691 72.0922 117.674 70.5655C119.656 69.0388 116.115 63.5551 113.941 61.7787L113.885 61.7325C111.682 59.9328 106.794 55.9378 104.875 58.0406Z" fill="white"/>
<path d="M122.929 74.6905C120.729 71.2291 117.673 72.4474 118.313 75.6767C118.952 78.9061 125.13 78.1519 122.929 74.6905Z" fill="white"/>
<path d="M44.5071 64.761C45.4652 56.3294 37.9917 56.1377 37.9917 56.1377C37.9917 56.1377 32.0513 57.0958 31.4764 63.6112C30.9015 70.1265 43.5489 73.1926 44.5071 64.761Z" fill="#FF0000"/>
<path d="M99.2492 129.17H70.682C70.682 129.17 71.8224 138.007 74.032 144.493C76.2417 150.979 81.3695 157.23 96.2709 157.038C111.172 156.846 117.583 148.841 120.506 144.065C123.428 139.29 124.212 129.17 124.212 129.17H99.2492Z" fill="#FECD25"/>
<path d="M136.838 129.17H124.212C124.212 129.17 123.428 139.29 120.506 144.065C122.21 146.917 124.287 150.694 138.254 150.48C152.22 150.267 150.805 128.787 150.805 128.787C145.596 128.787 139.945 129.388 136.838 129.17Z" fill="#FECD25"/>
<path d="M70.682 129.17H54.736C51.3924 128.895 45.0826 128.859 39.0102 127.65C39.0102 127.65 40.745 152.334 56.6401 151.977C72.5352 151.621 74.032 144.493 74.032 144.493C71.8224 138.007 70.682 129.17 70.682 129.17Z" fill="#FECD25"/>
<path d="M172.108 113.804C173.505 98.4381 137.424 98.4405 137.424 98.4405H54.736C54.736 98.4405 23.5703 98.4381 23.5703 113.804C23.5703 122.503 31.0882 126.074 39.0102 127.65C45.0826 128.859 51.3924 128.895 54.736 129.17H70.682H99.2492H124.212H136.838C139.945 129.388 145.596 128.787 150.805 128.787C160.572 127.549 171.201 123.79 172.108 113.804Z" fill="#211E6B"/>
<path d="M54.736 98.4405L54.7359 99.9405H54.736V98.4405ZM137.424 98.4405V99.9405H137.424L137.424 98.4405ZM172.108 113.804L173.602 113.94L172.108 113.804ZM54.736 129.17L54.613 130.665L54.6744 130.67H54.736V129.17ZM136.838 129.17L136.943 127.674L136.891 127.67H136.838V129.17ZM39.0102 127.65L39.303 126.179L39.0102 127.65ZM56.2081 98.7285C56.5148 97.1606 56.7611 95.2165 57.0323 93.0855C57.3061 90.9341 57.6098 88.5523 58.0336 86.0332C58.8818 80.9909 60.2008 75.4707 62.6617 70.3525C65.1159 65.2481 68.695 60.5651 74.0681 57.1482C79.4411 53.7314 86.7162 51.5119 96.6752 51.5119V48.5119C86.2598 48.5119 78.4003 50.8381 72.4582 54.6167C66.5163 58.3953 62.5999 63.5576 59.958 69.0525C57.3226 74.5335 55.9447 80.3665 55.0751 85.5355C54.64 88.122 54.3295 90.5604 54.0563 92.7068C53.7806 94.8735 53.5472 96.7046 53.2639 98.1525L56.2081 98.7285ZM96.6752 51.5119C106.541 51.5119 113.849 54.4344 119.302 58.7546C124.777 63.0928 128.466 68.9095 130.948 74.8079C133.429 80.7053 134.677 86.6235 135.302 91.0819C135.614 93.3072 135.77 95.159 135.847 96.4496C135.886 97.0947 135.905 97.5989 135.915 97.9387C135.92 98.1086 135.922 98.2373 135.923 98.322C135.924 98.3643 135.924 98.3956 135.924 98.4155C135.924 98.4254 135.924 98.4325 135.924 98.4367C135.924 98.4388 135.924 98.4402 135.924 98.4408C135.924 98.4411 135.924 98.4411 135.924 98.4412C135.924 98.441 135.924 98.4405 137.424 98.4405C138.924 98.4405 138.924 98.4397 138.924 98.4387C138.924 98.4382 138.924 98.437 138.924 98.4358C138.924 98.4335 138.924 98.4305 138.924 98.4267C138.924 98.4192 138.924 98.4087 138.924 98.3954C138.924 98.3687 138.924 98.3306 138.923 98.2812C138.922 98.1826 138.919 98.0394 138.914 97.8546C138.903 97.485 138.883 96.9488 138.842 96.2696C138.76 94.9118 138.598 92.9801 138.273 90.6652C137.625 86.0432 136.326 79.8543 133.713 73.6445C131.101 67.4357 127.15 61.1453 121.165 56.4032C115.157 51.643 107.184 48.5119 96.6752 48.5119V51.5119ZM173.602 113.94C174.017 109.376 171.587 106.03 168.12 103.68C164.698 101.359 160.098 99.8687 155.608 98.8942C151.091 97.9136 146.548 97.4268 143.147 97.184C141.443 97.0624 140.018 97.0016 139.018 96.9711C138.517 96.9559 138.122 96.9482 137.85 96.9444C137.715 96.9425 137.61 96.9415 137.538 96.941C137.502 96.9408 137.474 96.9407 137.455 96.9406C137.446 96.9406 137.438 96.9406 137.433 96.9405C137.431 96.9405 137.429 96.9405 137.427 96.9405C137.426 96.9405 137.426 96.9405 137.425 96.9405C137.425 96.9405 137.424 96.9405 137.424 98.4405C137.424 99.9405 137.424 99.9405 137.424 99.9405C137.424 99.9405 137.424 99.9405 137.425 99.9405C137.425 99.9405 137.427 99.9405 137.428 99.9405C137.432 99.9405 137.438 99.9406 137.445 99.9406C137.461 99.9406 137.485 99.9407 137.518 99.941C137.582 99.9414 137.68 99.9423 137.808 99.9441C138.064 99.9477 138.443 99.955 138.926 99.9697C139.893 99.9992 141.276 100.058 142.933 100.176C146.254 100.413 150.644 100.886 154.972 101.826C159.328 102.772 163.487 104.162 166.437 106.162C169.343 108.133 170.898 110.549 170.615 113.668L173.602 113.94ZM54.736 130.67C54.8024 130.67 54.8688 130.67 54.9352 130.67C55.0016 130.67 55.0679 130.67 55.1341 130.67C55.2004 130.67 55.2667 130.67 55.3328 130.67C55.399 130.67 55.4652 130.67 55.5312 130.67C55.5973 130.67 55.6634 130.67 55.7294 130.67C55.7954 130.67 55.8614 130.67 55.9273 130.67C55.9932 130.67 56.0591 130.67 56.1249 130.67C56.1907 130.67 56.2565 130.67 56.3223 130.67C56.388 130.67 56.4537 130.67 56.5193 130.67C56.585 130.67 56.6506 130.67 56.7162 130.67C56.7817 130.67 56.8472 130.67 56.9127 130.67C56.9782 130.67 57.0436 130.67 57.109 130.67C57.1744 130.67 57.2398 130.67 57.3051 130.67C57.3704 130.67 57.4356 130.67 57.5008 130.67C57.566 130.67 57.6312 130.67 57.6963 130.67C57.7615 130.67 57.8266 130.67 57.8916 130.67C57.9566 130.67 58.0216 130.67 58.0866 130.67C58.1516 130.67 58.2165 130.67 58.2813 130.67C58.3462 130.67 58.411 130.67 58.4758 130.67C58.5406 130.67 58.6053 130.67 58.67 130.67C58.7347 130.67 58.7994 130.67 58.864 130.67C58.9286 130.67 58.9932 130.67 59.0577 130.67C59.1223 130.67 59.1867 130.67 59.2512 130.67C59.3156 130.67 59.38 130.67 59.4444 130.67C59.5087 130.67 59.5731 130.67 59.6373 130.67C59.7016 130.67 59.7658 130.67 59.83 130.67C59.8942 130.67 59.9584 130.67 60.0225 130.67C60.0866 130.67 60.1507 130.67 60.2147 130.67C60.2787 130.67 60.3427 130.67 60.4066 130.67C60.4706 130.67 60.5345 130.67 60.5983 130.67C60.6622 130.67 60.726 130.67 60.7898 130.67C60.8535 130.67 60.9173 130.67 60.9809 130.67C61.0446 130.67 61.1083 130.67 61.1719 130.67C61.2355 130.67 61.2991 130.67 61.3626 130.67C61.4261 130.67 61.4896 130.67 61.5531 130.67C61.6165 130.67 61.6799 130.67 61.7433 130.67C61.8066 130.67 61.8699 130.67 61.9332 130.67C61.9965 130.67 62.0597 130.67 62.1229 130.67C62.1861 130.67 62.2493 130.67 62.3124 130.67C62.3755 130.67 62.4386 130.67 62.5016 130.67C62.5647 130.67 62.6277 130.67 62.6906 130.67C62.7536 130.67 62.8165 130.67 62.8794 130.67C62.9423 130.67 63.0051 130.67 63.0679 130.67C63.1307 130.67 63.1934 130.67 63.2562 130.67C63.3189 130.67 63.3816 130.67 63.4442 130.67C63.5068 130.67 63.5694 130.67 63.632 130.67C63.6945 130.67 63.757 130.67 63.8195 130.67C63.882 130.67 63.9444 130.67 64.0068 130.67C64.0692 130.67 64.1316 130.67 64.1939 130.67C64.2562 130.67 64.3185 130.67 64.3808 130.67C64.443 130.67 64.5052 130.67 64.5674 130.67C64.6295 130.67 64.6916 130.67 64.7537 130.67C64.8158 130.67 64.8779 130.67 64.9399 130.67C65.0019 130.67 65.0638 130.67 65.1258 130.67C65.1877 130.67 65.2496 130.67 65.3114 130.67C65.3733 130.67 65.4351 130.67 65.4969 130.67C65.5586 130.67 65.6204 130.67 65.6821 130.67C65.7438 130.67 65.8054 130.67 65.867 130.67C65.9287 130.67 65.9902 130.67 66.0518 130.67C66.1133 130.67 66.1748 130.67 66.2363 130.67C66.2978 130.67 66.3592 130.67 66.4206 130.67C66.482 130.67 66.5433 130.67 66.6047 130.67C66.666 130.67 66.7272 130.67 66.7885 130.67C66.8497 130.67 66.9109 130.67 66.9721 130.67C67.0333 130.67 67.0944 130.67 67.1555 130.67C67.2166 130.67 67.2776 130.67 67.3386 130.67C67.3996 130.67 67.4606 130.67 67.5216 130.67C67.5825 130.67 67.6434 130.67 67.7043 130.67C67.7651 130.67 67.826 130.67 67.8867 130.67C67.9475 130.67 68.0083 130.67 68.069 130.67C68.1297 130.67 68.1904 130.67 68.251 130.67C68.3117 130.67 68.3723 130.67 68.4329 130.67C68.4934 130.67 68.554 130.67 68.6145 130.67C68.675 130.67 68.7354 130.67 68.7958 130.67C68.8563 130.67 68.9166 130.67 68.977 130.67C69.0373 130.67 69.0977 130.67 69.1579 130.67C69.2182 130.67 69.2785 130.67 69.3387 130.67C69.3989 130.67 69.459 130.67 69.5192 130.67C69.5793 130.67 69.6394 130.67 69.6995 130.67C69.7595 130.67 69.8195 130.67 69.8795 130.67C69.9395 130.67 69.9995 130.67 70.0594 130.67C70.1193 130.67 70.1792 130.67 70.239 130.67C70.2989 130.67 70.3587 130.67 70.4185 130.67C70.4782 130.67 70.538 130.67 70.5977 130.67C70.6574 130.67 70.7171 130.67 70.7767 130.67C70.8363 130.67 70.8959 130.67 70.9555 130.67C71.015 130.67 71.0746 130.67 71.1341 130.67C71.1936 130.67 71.253 130.67 71.3124 130.67C71.3719 130.67 71.4313 130.67 71.4906 130.67C71.55 130.67 71.6093 130.67 71.6686 130.67C71.7279 130.67 71.7871 130.67 71.8463 130.67C71.9055 130.67 71.9647 130.67 72.0239 130.67C72.083 130.67 72.1421 130.67 72.2012 130.67C72.2603 130.67 72.3193 130.67 72.3783 130.67C72.4373 130.67 72.4963 130.67 72.5553 130.67C72.6142 130.67 72.6731 130.67 72.732 130.67C72.7908 130.67 72.8497 130.67 72.9085 130.67C72.9673 130.67 73.0261 130.67 73.0848 130.67C73.1435 130.67 73.2022 130.67 73.2609 130.67C73.3196 130.67 73.3782 130.67 73.4368 130.67C73.4954 130.67 73.554 130.67 73.6125 130.67C73.6711 130.67 73.7296 130.67 73.788 130.67C73.8465 130.67 73.9049 130.67 73.9633 130.67C74.0217 130.67 74.0801 130.67 74.1385 130.67C74.1968 130.67 74.2551 130.67 74.3134 130.67C74.3716 130.67 74.4299 130.67 74.4881 130.67C74.5463 130.67 74.6045 130.67 74.6626 130.67C74.7207 130.67 74.7788 130.67 74.8369 130.67C74.895 130.67 74.953 130.67 75.011 130.67C75.069 130.67 75.127 130.67 75.185 130.67C75.2429 130.67 75.3008 130.67 75.3587 130.67C75.4166 130.67 75.4744 130.67 75.5322 130.67C75.5901 130.67 75.6478 130.67 75.7056 130.67C75.7633 130.67 75.8211 130.67 75.8788 130.67C75.9364 130.67 75.9941 130.67 76.0517 130.67C76.1093 130.67 76.1669 130.67 76.2245 130.67C76.2821 130.67 76.3396 130.67 76.3971 130.67C76.4546 130.67 76.512 130.67 76.5695 130.67C76.6269 130.67 76.6843 130.67 76.7417 130.67C76.7991 130.67 76.8564 130.67 76.9137 130.67C76.971 130.67 77.0283 130.67 77.0855 130.67C77.1428 130.67 77.2 130.67 77.2572 130.67C77.3144 130.67 77.3715 130.67 77.4286 130.67C77.4858 130.67 77.5429 130.67 77.5999 130.67C77.657 130.67 77.714 130.67 77.771 130.67C77.828 130.67 77.885 130.67 77.9419 130.67C77.9988 130.67 78.0558 130.67 78.1126 130.67C78.1695 130.67 78.2264 130.67 78.2832 130.67C78.34 130.67 78.3968 130.67 78.4535 130.67C78.5103 130.67 78.567 130.67 78.6237 130.67C78.6804 130.67 78.7371 130.67 78.7937 130.67C78.8503 130.67 78.9069 130.67 78.9635 130.67C79.0201 130.67 79.0766 130.67 79.1332 130.67C79.1897 130.67 79.2462 130.67 79.3026 130.67C79.3591 130.67 79.4155 130.67 79.4719 130.67C79.5283 130.67 79.5847 130.67 79.641 130.67C79.6973 130.67 79.7537 130.67 79.8099 130.67C79.8662 130.67 79.9225 130.67 79.9787 130.67C80.0349 130.67 80.0911 130.67 80.1473 130.67C80.2034 130.67 80.2596 130.67 80.3157 130.67C80.3718 130.67 80.4279 130.67 80.4839 130.67C80.54 130.67 80.596 130.67 80.652 130.67C80.708 130.67 80.7639 130.67 80.8199 130.67C80.8758 130.67 80.9317 130.67 80.9876 130.67C81.0434 130.67 81.0993 130.67 81.1551 130.67C81.2109 130.67 81.2667 130.67 81.3225 130.67C81.3783 130.67 81.434 130.67 81.4897 130.67C81.5454 130.67 81.6011 130.67 81.6567 130.67C81.7124 130.67 81.768 130.67 81.8236 130.67C81.8792 130.67 81.9348 130.67 81.9903 130.67C82.0458 130.67 82.1014 130.67 82.1568 130.67C82.2123 130.67 82.2678 130.67 82.3232 130.67C82.3786 130.67 82.434 130.67 82.4894 130.67C82.5448 130.67 82.6001 130.67 82.6554 130.67C82.7108 130.67 82.7661 130.67 82.8213 130.67C82.8766 130.67 82.9318 130.67 82.987 130.67C83.0422 130.67 83.0974 130.67 83.1526 130.67C83.2077 130.67 83.2629 130.67 83.318 130.67C83.3731 130.67 83.4282 130.67 83.4832 130.67C83.5382 130.67 83.5933 130.67 83.6483 130.67C83.7033 130.67 83.7582 130.67 83.8132 130.67C83.8681 130.67 83.923 130.67 83.9779 130.67C84.0328 130.67 84.0877 130.67 84.1425 130.67C84.1973 130.67 84.2522 130.67 84.3069 130.67C84.3617 130.67 84.4165 130.67 84.4712 130.67C84.526 130.67 84.5807 130.67 84.6353 130.67C84.69 130.67 84.7447 130.67 84.7993 130.67C84.8539 130.67 84.9085 130.67 84.9631 130.67C85.0177 130.67 85.0722 130.67 85.1268 130.67C85.1813 130.67 85.2358 130.67 85.2903 130.67C85.3447 130.67 85.3992 130.67 85.4536 130.67C85.508 130.67 85.5624 130.67 85.6168 130.67C85.6712 130.67 85.7255 130.67 85.7799 130.67C85.8342 130.67 85.8885 130.67 85.9427 130.67C85.997 130.67 86.0513 130.67 86.1055 130.67C86.1597 130.67 86.2139 130.67 86.2681 130.67C86.3223 130.67 86.3764 130.67 86.4305 130.67C86.4846 130.67 86.5387 130.67 86.5928 130.67C86.6469 130.67 86.7009 130.67 86.755 130.67C86.809 130.67 86.863 130.67 86.917 130.67C86.971 130.67 87.0249 130.67 87.0788 130.67C87.1328 130.67 87.1867 130.67 87.2405 130.67C87.2944 130.67 87.3483 130.67 87.4021 130.67C87.4559 130.67 87.5098 130.67 87.5635 130.67C87.6173 130.67 87.6711 130.67 87.7248 130.67C87.7786 130.67 87.8323 130.67 87.886 130.67C87.9396 130.67 87.9933 130.67 88.047 130.67C88.1006 130.67 88.1542 130.67 88.2078 130.67C88.2614 130.67 88.315 130.67 88.3685 130.67C88.4221 130.67 88.4756 130.67 88.5291 130.67C88.5826 130.67 88.6361 130.67 88.6895 130.67C88.743 130.67 88.7964 130.67 88.8498 130.67C88.9032 130.67 88.9566 130.67 89.01 130.67C89.0634 130.67 89.1167 130.67 89.17 130.67C89.2233 130.67 89.2766 130.67 89.3299 130.67C89.3832 130.67 89.4364 130.67 89.4897 130.67C89.5429 130.67 89.5961 130.67 89.6493 130.67C89.7025 130.67 89.7556 130.67 89.8088 130.67C89.8619 130.67 89.915 130.67 89.9681 130.67C90.0212 130.67 90.0743 130.67 90.1273 130.67C90.1804 130.67 90.2334 130.67 90.2864 130.67C90.3394 130.67 90.3924 130.67 90.4454 130.67C90.4983 130.67 90.5513 130.67 90.6042 130.67C90.6571 130.67 90.71 130.67 90.7629 130.67C90.8157 130.67 90.8686 130.67 90.9214 130.67C90.9743 130.67 91.0271 130.67 91.0799 130.67C91.1327 130.67 91.1854 130.67 91.2382 130.67C91.2909 130.67 91.3436 130.67 91.3963 130.67C91.4491 130.67 91.5017 130.67 91.5544 130.67C91.6071 130.67 91.6597 130.67 91.7123 130.67C91.7649 130.67 91.8175 130.67 91.8701 130.67C91.9227 130.67 91.9753 130.67 92.0278 130.67C92.0803 130.67 92.1329 130.67 92.1853 130.67C92.2378 130.67 92.2903 130.67 92.3428 130.67C92.3952 130.67 92.4477 130.67 92.5001 130.67C92.5525 130.67 92.6049 130.67 92.6573 130.67C92.7096 130.67 92.762 130.67 92.8143 130.67C92.8667 130.67 92.919 130.67 92.9713 130.67C93.0236 130.67 93.0758 130.67 93.1281 130.67C93.1804 130.67 93.2326 130.67 93.2848 130.67C93.337 130.67 93.3892 130.67 93.4414 130.67C93.4936 130.67 93.5457 130.67 93.5979 130.67C93.65 130.67 93.7021 130.67 93.7542 130.67C93.8063 130.67 93.8584 130.67 93.9104 130.67C93.9625 130.67 94.0145 130.67 94.0666 130.67C94.1186 130.67 94.1706 130.67 94.2226 130.67C94.2746 130.67 94.3265 130.67 94.3785 130.67C94.4304 130.67 94.4823 130.67 94.5342 130.67C94.5861 130.67 94.638 130.67 94.6899 130.67C94.7418 130.67 94.7936 130.67 94.8455 130.67C94.8973 130.67 94.9491 130.67 95.0009 130.67C95.0527 130.67 95.1045 130.67 95.1562 130.67C95.208 130.67 95.2597 130.67 95.3114 130.67C95.3632 130.67 95.4149 130.67 95.4665 130.67C95.5182 130.67 95.5699 130.67 95.6216 130.67C95.6732 130.67 95.7248 130.67 95.7764 130.67C95.8281 130.67 95.8796 130.67 95.9312 130.67C95.9828 130.67 96.0344 130.67 96.0859 130.67C96.1375 130.67 96.189 130.67 96.2405 130.67C96.292 130.67 96.3435 130.67 96.395 130.67C96.4464 130.67 96.4979 130.67 96.5493 130.67C96.6007 130.67 96.6522 130.67 96.7036 130.67C96.755 130.67 96.8064 130.67 96.8577 130.67C96.9091 130.67 96.9604 130.67 97.0118 130.67C97.0631 130.67 97.1144 130.67 97.1657 130.67C97.217 130.67 97.2683 130.67 97.3196 130.67C97.3708 130.67 97.4221 130.67 97.4733 130.67C97.5246 130.67 97.5758 130.67 97.627 130.67C97.6782 130.67 97.7294 130.67 97.7805 130.67C97.8317 130.67 97.8829 130.67 97.934 130.67C97.9851 130.67 98.0362 130.67 98.0873 130.67C98.1384 130.67 98.1895 130.67 98.2406 130.67C98.2917 130.67 98.3427 130.67 98.3938 130.67C98.4448 130.67 98.4958 130.67 98.5468 130.67C98.5978 130.67 98.6488 130.67 98.6998 130.67C98.7508 130.67 98.8017 130.67 98.8527 130.67C98.9036 130.67 98.9546 130.67 99.0055 130.67C99.0564 130.67 99.1073 130.67 99.1581 130.67C99.209 130.67 99.2599 130.67 99.3108 130.67C99.3616 130.67 99.4124 130.67 99.4633 130.67C99.5141 130.67 99.5649 130.67 99.6157 130.67C99.6665 130.67 99.7172 130.67 99.768 130.67C99.8188 130.67 99.8695 130.67 99.9202 130.67C99.971 130.67 100.022 130.67 100.072 130.67C100.123 130.67 100.174 130.67 100.224 130.67C100.275 130.67 100.326 130.67 100.376 130.67C100.427 130.67 100.478 130.67 100.528 130.67C100.579 130.67 100.63 130.67 100.68 130.67C100.731 130.67 100.781 130.67 100.832 130.67C100.882 130.67 100.933 130.67 100.983 130.67C101.034 130.67 101.084 130.67 101.135 130.67C101.186 130.67 101.236 130.67 101.286 130.67C101.337 130.67 101.387 130.67 101.438 130.67C101.488 130.67 101.539 130.67 101.589 130.67C101.64 130.67 101.69 130.67 101.74 130.67C101.791 130.67 101.841 130.67 101.891 130.67C101.942 130.67 101.992 130.67 102.043 130.67C102.093 130.67 102.143 130.67 102.194 130.67C102.244 130.67 102.294 130.67 102.344 130.67C102.395 130.67 102.445 130.67 102.495 130.67C102.546 130.67 102.596 130.67 102.646 130.67C102.696 130.67 102.746 130.67 102.797 130.67C102.847 130.67 102.897 130.67 102.947 130.67C102.997 130.67 103.048 130.67 103.098 130.67C103.148 130.67 103.198 130.67 103.248 130.67C103.298 130.67 103.348 130.67 103.399 130.67C103.449 130.67 103.499 130.67 103.549 130.67C103.599 130.67 103.649 130.67 103.699 130.67C103.749 130.67 103.799 130.67 103.849 130.67C103.899 130.67 103.949 130.67 103.999 130.67C104.049 130.67 104.099 130.67 104.149 130.67C104.199 130.67 104.249 130.67 104.299 130.67C104.349 130.67 104.399 130.67 104.449 130.67C104.499 130.67 104.549 130.67 104.599 130.67C104.649 130.67 104.699 130.67 104.749 130.67C104.799 130.67 104.849 130.67 104.898 130.67C104.948 130.67 104.998 130.67 105.048 130.67C105.098 130.67 105.148 130.67 105.198 130.67C105.247 130.67 105.297 130.67 105.347 130.67C105.397 130.67 105.447 130.67 105.496 130.67C105.546 130.67 105.596 130.67 105.646 130.67C105.696 130.67 105.745 130.67 105.795 130.67C105.845 130.67 105.895 130.67 105.944 130.67C105.994 130.67 106.044 130.67 106.093 130.67C106.143 130.67 106.193 130.67 106.243 130.67C106.292 130.67 106.342 130.67 106.392 130.67C106.441 130.67 106.491 130.67 106.541 130.67C106.59 130.67 106.64 130.67 106.69 130.67C106.739 130.67 106.789 130.67 106.838 130.67C106.888 130.67 106.938 130.67 106.987 130.67C107.037 130.67 107.086 130.67 107.136 130.67C107.186 130.67 107.235 130.67 107.285 130.67C107.334 130.67 107.384 130.67 107.433 130.67C107.483 130.67 107.532 130.67 107.582 130.67C107.631 130.67 107.681 130.67 107.73 130.67C107.78 130.67 107.829 130.67 107.879 130.67C107.928 130.67 107.978 130.67 108.027 130.67C108.077 130.67 108.126 130.67 108.176 130.67C108.225 130.67 108.275 130.67 108.324 130.67C108.373 130.67 108.423 130.67 108.472 130.67C108.522 130.67 108.571 130.67 108.621 130.67C108.67 130.67 108.719 130.67 108.769 130.67C108.818 130.67 108.867 130.67 108.917 130.67C108.966 130.67 109.016 130.67 109.065 130.67C109.114 130.67 109.164 130.67 109.213 130.67C109.262 130.67 109.312 130.67 109.361 130.67C109.41 130.67 109.46 130.67 109.509 130.67C109.558 130.67 109.608 130.67 109.657 130.67C109.706 130.67 109.755 130.67 109.805 130.67C109.854 130.67 109.903 130.67 109.952 130.67C110.002 130.67 110.051 130.67 110.1 130.67C110.15 130.67 110.199 130.67 110.248 130.67C110.297 130.67 110.346 130.67 110.396 130.67C110.445 130.67 110.494 130.67 110.543 130.67C110.593 130.67 110.642 130.67 110.691 130.67C110.74 130.67 110.789 130.67 110.839 130.67C110.888 130.67 110.937 130.67 110.986 130.67C111.035 130.67 111.084 130.67 111.134 130.67C111.183 130.67 111.232 130.67 111.281 130.67C111.33 130.67 111.379 130.67 111.428 130.67C111.478 130.67 111.527 130.67 111.576 130.67C111.625 130.67 111.674 130.67 111.723 130.67C111.772 130.67 111.821 130.67 111.87 130.67C111.92 130.67 111.969 130.67 112.018 130.67C112.067 130.67 112.116 130.67 112.165 130.67C112.214 130.67 112.263 130.67 112.312 130.67C112.361 130.67 112.41 130.67 112.459 130.67C112.508 130.67 112.558 130.67 112.607 130.67C112.656 130.67 112.705 130.67 112.754 130.67C112.803 130.67 112.852 130.67 112.901 130.67C112.95 130.67 112.999 130.67 113.048 130.67C113.097 130.67 113.146 130.67 113.195 130.67C113.244 130.67 113.293 130.67 113.342 130.67C113.391 130.67 113.44 130.67 113.489 130.67C113.538 130.67 113.587 130.67 113.636 130.67C113.685 130.67 113.734 130.67 113.783 130.67C113.832 130.67 113.881 130.67 113.93 130.67C113.979 130.67 114.028 130.67 114.077 130.67C114.126 130.67 114.174 130.67 114.223 130.67C114.272 130.67 114.321 130.67 114.37 130.67C114.419 130.67 114.468 130.67 114.517 130.67C114.566 130.67 114.615 130.67 114.664 130.67C114.713 130.67 114.762 130.67 114.811 130.67C114.86 130.67 114.908 130.67 114.957 130.67C115.006 130.67 115.055 130.67 115.104 130.67C115.153 130.67 115.202 130.67 115.251 130.67C115.3 130.67 115.349 130.67 115.398 130.67C115.446 130.67 115.495 130.67 115.544 130.67C115.593 130.67 115.642 130.67 115.691 130.67C115.74 130.67 115.789 130.67 115.838 130.67C115.886 130.67 115.935 130.67 115.984 130.67C116.033 130.67 116.082 130.67 116.131 130.67C116.18 130.67 116.229 130.67 116.277 130.67C116.326 130.67 116.375 130.67 116.424 130.67C116.473 130.67 116.522 130.67 116.571 130.67C116.619 130.67 116.668 130.67 116.717 130.67C116.766 130.67 116.815 130.67 116.864 130.67C116.913 130.67 116.961 130.67 117.01 130.67C117.059 130.67 117.108 130.67 117.157 130.67C117.206 130.67 117.254 130.67 117.303 130.67C117.352 130.67 117.401 130.67 117.45 130.67C117.499 130.67 117.548 130.67 117.596 130.67C117.645 130.67 117.694 130.67 117.743 130.67C117.792 130.67 117.841 130.67 117.889 130.67C117.938 130.67 117.987 130.67 118.036 130.67C118.085 130.67 118.134 130.67 118.182 130.67C118.231 130.67 118.28 130.67 118.329 130.67C118.378 130.67 118.426 130.67 118.475 130.67C118.524 130.67 118.573 130.67 118.622 130.67C118.671 130.67 118.719 130.67 118.768 130.67C118.817 130.67 118.866 130.67 118.915 130.67C118.964 130.67 119.012 130.67 119.061 130.67C119.11 130.67 119.159 130.67 119.208 130.67C119.257 130.67 119.305 130.67 119.354 130.67C119.403 130.67 119.452 130.67 119.501 130.67C119.55 130.67 119.598 130.67 119.647 130.67C119.696 130.67 119.745 130.67 119.794 130.67C119.842 130.67 119.891 130.67 119.94 130.67C119.989 130.67 120.038 130.67 120.087 130.67C120.135 130.67 120.184 130.67 120.233 130.67C120.282 130.67 120.331 130.67 120.38 130.67C120.428 130.67 120.477 130.67 120.526 130.67C120.575 130.67 120.624 130.67 120.673 130.67C120.722 130.67 120.77 130.67 120.819 130.67C120.868 130.67 120.917 130.67 120.966 130.67C121.015 130.67 121.063 130.67 121.112 130.67C121.161 130.67 121.21 130.67 121.259 130.67C121.308 130.67 121.357 130.67 121.405 130.67C121.454 130.67 121.503 130.67 121.552 130.67C121.601 130.67 121.65 130.67 121.699 130.67C121.747 130.67 121.796 130.67 121.845 130.67C121.894 130.67 121.943 130.67 121.992 130.67C122.041 130.67 122.09 130.67 122.138 130.67C122.187 130.67 122.236 130.67 122.285 130.67C122.334 130.67 122.383 130.67 122.432 130.67C122.481 130.67 122.529 130.67 122.578 130.67C122.627 130.67 122.676 130.67 122.725 130.67C122.774 130.67 122.823 130.67 122.872 130.67C122.921 130.67 122.97 130.67 123.018 130.67C123.067 130.67 123.116 130.67 123.165 130.67C123.214 130.67 123.263 130.67 123.312 130.67C123.361 130.67 123.41 130.67 123.459 130.67C123.508 130.67 123.557 130.67 123.606 130.67C123.655 130.67 123.703 130.67 123.752 130.67C123.801 130.67 123.85 130.67 123.899 130.67C123.948 130.67 123.997 130.67 124.046 130.67C124.095 130.67 124.144 130.67 124.193 130.67C124.242 130.67 124.291 130.67 124.34 130.67C124.389 130.67 124.438 130.67 124.487 130.67C124.536 130.67 124.585 130.67 124.634 130.67C124.683 130.67 124.732 130.67 124.781 130.67C124.83 130.67 124.879 130.67 124.928 130.67C124.977 130.67 125.026 130.67 125.075 130.67C125.124 130.67 125.173 130.67 125.222 130.67C125.271 130.67 125.32 130.67 125.369 130.67C125.418 130.67 125.467 130.67 125.516 130.67C125.565 130.67 125.614 130.67 125.663 130.67C125.712 130.67 125.762 130.67 125.811 130.67C125.86 130.67 125.909 130.67 125.958 130.67C126.007 130.67 126.056 130.67 126.105 130.67C126.154 130.67 126.203 130.67 126.252 130.67C126.301 130.67 126.351 130.67 126.4 130.67C126.449 130.67 126.498 130.67 126.547 130.67C126.596 130.67 126.645 130.67 126.694 130.67C126.744 130.67 126.793 130.67 126.842 130.67C126.891 130.67 126.94 130.67 126.989 130.67C127.039 130.67 127.088 130.67 127.137 130.67C127.186 130.67 127.235 130.67 127.284 130.67C127.334 130.67 127.383 130.67 127.432 130.67C127.481 130.67 127.53 130.67 127.58 130.67C127.629 130.67 127.678 130.67 127.727 130.67C127.777 130.67 127.826 130.67 127.875 130.67C127.924 130.67 127.974 130.67 128.023 130.67C128.072 130.67 128.121 130.67 128.171 130.67C128.22 130.67 128.269 130.67 128.318 130.67C128.368 130.67 128.417 130.67 128.466 130.67C128.516 130.67 128.565 130.67 128.614 130.67C128.663 130.67 128.713 130.67 128.762 130.67C128.811 130.67 128.861 130.67 128.91 130.67C128.96 130.67 129.009 130.67 129.058 130.67C129.108 130.67 129.157 130.67 129.206 130.67C129.256 130.67 129.305 130.67 129.354 130.67C129.404 130.67 129.453 130.67 129.503 130.67C129.552 130.67 129.602 130.67 129.651 130.67C129.7 130.67 129.75 130.67 129.799 130.67C129.849 130.67 129.898 130.67 129.948 130.67C129.997 130.67 130.047 130.67 130.096 130.67C130.145 130.67 130.195 130.67 130.244 130.67C130.294 130.67 130.343 130.67 130.393 130.67C130.442 130.67 130.492 130.67 130.541 130.67C130.591 130.67 130.641 130.67 130.69 130.67C130.74 130.67 130.789 130.67 130.839 130.67C130.888 130.67 130.938 130.67 130.987 130.67C131.037 130.67 131.087 130.67 131.136 130.67C131.186 130.67 131.235 130.67 131.285 130.67C131.335 130.67 131.384 130.67 131.434 130.67C131.484 130.67 131.533 130.67 131.583 130.67C131.633 130.67 131.682 130.67 131.732 130.67C131.782 130.67 131.831 130.67 131.881 130.67C131.931 130.67 131.98 130.67 132.03 130.67C132.08 130.67 132.13 130.67 132.179 130.67C132.229 130.67 132.279 130.67 132.329 130.67C132.378 130.67 132.428 130.67 132.478 130.67C132.528 130.67 132.577 130.67 132.627 130.67C132.677 130.67 132.727 130.67 132.777 130.67C132.827 130.67 132.876 130.67 132.926 130.67C132.976 130.67 133.026 130.67 133.076 130.67C133.126 130.67 133.176 130.67 133.225 130.67C133.275 130.67 133.325 130.67 133.375 130.67C133.425 130.67 133.475 130.67 133.525 130.67C133.575 130.67 133.625 130.67 133.675 130.67C133.725 130.67 133.775 130.67 133.825 130.67C133.875 130.67 133.925 130.67 133.975 130.67C134.025 130.67 134.075 130.67 134.125 130.67C134.175 130.67 134.225 130.67 134.275 130.67C134.325 130.67 134.375 130.67 134.425 130.67C134.475 130.67 134.525 130.67 134.575 130.67C134.625 130.67 134.675 130.67 134.726 130.67C134.776 130.67 134.826 130.67 134.876 130.67C134.926 130.67 134.976 130.67 135.026 130.67C135.077 130.67 135.127 130.67 135.177 130.67C135.227 130.67 135.277 130.67 135.328 130.67C135.378 130.67 135.428 130.67 135.478 130.67C135.529 130.67 135.579 130.67 135.629 130.67C135.679 130.67 135.73 130.67 135.78 130.67C135.83 130.67 135.881 130.67 135.931 130.67C135.981 130.67 136.032 130.67 136.082 130.67C136.132 130.67 136.183 130.67 136.233 130.67C136.283 130.67 136.334 130.67 136.384 130.67C136.435 130.67 136.485 130.67 136.535 130.67C136.586 130.67 136.636 130.67 136.687 130.67C136.737 130.67 136.788 130.67 136.838 130.67V127.67C136.788 127.67 136.737 127.67 136.687 127.67C136.636 127.67 136.586 127.67 136.535 127.67C136.485 127.67 136.435 127.67 136.384 127.67C136.334 127.67 136.283 127.67 136.233 127.67C136.183 127.67 136.132 127.67 136.082 127.67C136.032 127.67 135.981 127.67 135.931 127.67C135.881 127.67 135.83 127.67 135.78 127.67C135.73 127.67 135.679 127.67 135.629 127.67C135.579 127.67 135.529 127.67 135.478 127.67C135.428 127.67 135.378 127.67 135.328 127.67C135.277 127.67 135.227 127.67 135.177 127.67C135.127 127.67 135.077 127.67 135.026 127.67C134.976 127.67 134.926 127.67 134.876 127.67C134.826 127.67 134.776 127.67 134.726 127.67C134.675 127.67 134.625 127.67 134.575 127.67C134.525 127.67 134.475 127.67 134.425 127.67C134.375 127.67 134.325 127.67 134.275 127.67C134.225 127.67 134.175 127.67 134.125 127.67C134.075 127.67 134.025 127.67 133.975 127.67C133.925 127.67 133.875 127.67 133.825 127.67C133.775 127.67 133.725 127.67 133.675 127.67C133.625 127.67 133.575 127.67 133.525 127.67C133.475 127.67 133.425 127.67 133.375 127.67C133.325 127.67 133.275 127.67 133.225 127.67C133.176 127.67 133.126 127.67 133.076 127.67C133.026 127.67 132.976 127.67 132.926 127.67C132.876 127.67 132.827 127.67 132.777 127.67C132.727 127.67 132.677 127.67 132.627 127.67C132.577 127.67 132.528 127.67 132.478 127.67C132.428 127.67 132.378 127.67 132.329 127.67C132.279 127.67 132.229 127.67 132.179 127.67C132.13 127.67 132.08 127.67 132.03 127.67C131.98 127.67 131.931 127.67 131.881 127.67C131.831 127.67 131.782 127.67 131.732 127.67C131.682 127.67 131.633 127.67 131.583 127.67C131.533 127.67 131.484 127.67 131.434 127.67C131.384 127.67 131.335 127.67 131.285 127.67C131.235 127.67 131.186 127.67 131.136 127.67C131.087 127.67 131.037 127.67 130.987 127.67C130.938 127.67 130.888 127.67 130.839 127.67C130.789 127.67 130.74 127.67 130.69 127.67C130.641 127.67 130.591 127.67 130.541 127.67C130.492 127.67 130.442 127.67 130.393 127.67C130.343 127.67 130.294 127.67 130.244 127.67C130.195 127.67 130.145 127.67 130.096 127.67C130.047 127.67 129.997 127.67 129.948 127.67C129.898 127.67 129.849 127.67 129.799 127.67C129.75 127.67 129.7 127.67 129.651 127.67C129.602 127.67 129.552 127.67 129.503 127.67C129.453 127.67 129.404 127.67 129.354 127.67C129.305 127.67 129.256 127.67 129.206 127.67C129.157 127.67 129.108 127.67 129.058 127.67C129.009 127.67 128.96 127.67 128.91 127.67C128.861 127.67 128.811 127.67 128.762 127.67C128.713 127.67 128.663 127.67 128.614 127.67C128.565 127.67 128.516 127.67 128.466 127.67C128.417 127.67 128.368 127.67 128.318 127.67C128.269 127.67 128.22 127.67 128.171 127.67C128.121 127.67 128.072 127.67 128.023 127.67C127.974 127.67 127.924 127.67 127.875 127.67C127.826 127.67 127.777 127.67 127.727 127.67C127.678 127.67 127.629 127.67 127.58 127.67C127.53 127.67 127.481 127.67 127.432 127.67C127.383 127.67 127.334 127.67 127.284 127.67C127.235 127.67 127.186 127.67 127.137 127.67C127.088 127.67 127.039 127.67 126.989 127.67C126.94 127.67 126.891 127.67 126.842 127.67C126.793 127.67 126.744 127.67 126.694 127.67C126.645 127.67 126.596 127.67 126.547 127.67C126.498 127.67 126.449 127.67 126.4 127.67C126.351 127.67 126.301 127.67 126.252 127.67C126.203 127.67 126.154 127.67 126.105 127.67C126.056 127.67 126.007 127.67 125.958 127.67C125.909 127.67 125.86 127.67 125.811 127.67C125.762 127.67 125.712 127.67 125.663 127.67C125.614 127.67 125.565 127.67 125.516 127.67C125.467 127.67 125.418 127.67 125.369 127.67C125.32 127.67 125.271 127.67 125.222 127.67C125.173 127.67 125.124 127.67 125.075 127.67C125.026 127.67 124.977 127.67 124.928 127.67C124.879 127.67 124.83 127.67 124.781 127.67C124.732 127.67 124.683 127.67 124.634 127.67C124.585 127.67 124.536 127.67 124.487 127.67C124.438 127.67 124.389 127.67 124.34 127.67C124.291 127.67 124.242 127.67 124.193 127.67C124.144 127.67 124.095 127.67 124.046 127.67C123.997 127.67 123.948 127.67 123.899 127.67C123.85 127.67 123.801 127.67 123.752 127.67C123.703 127.67 123.655 127.67 123.606 127.67C123.557 127.67 123.508 127.67 123.459 127.67C123.41 127.67 123.361 127.67 123.312 127.67C123.263 127.67 123.214 127.67 123.165 127.67C123.116 127.67 123.067 127.67 123.018 127.67C122.97 127.67 122.921 127.67 122.872 127.67C122.823 127.67 122.774 127.67 122.725 127.67C122.676 127.67 122.627 127.67 122.578 127.67C122.529 127.67 122.481 127.67 122.432 127.67C122.383 127.67 122.334 127.67 122.285 127.67C122.236 127.67 122.187 127.67 122.138 127.67C122.09 127.67 122.041 127.67 121.992 127.67C121.943 127.67 121.894 127.67 121.845 127.67C121.796 127.67 121.747 127.67 121.699 127.67C121.65 127.67 121.601 127.67 121.552 127.67C121.503 127.67 121.454 127.67 121.405 127.67C121.357 127.67 121.308 127.67 121.259 127.67C121.21 127.67 121.161 127.67 121.112 127.67C121.063 127.67 121.015 127.67 120.966 127.67C120.917 127.67 120.868 127.67 120.819 127.67C120.77 127.67 120.722 127.67 120.673 127.67C120.624 127.67 120.575 127.67 120.526 127.67C120.477 127.67 120.428 127.67 120.38 127.67C120.331 127.67 120.282 127.67 120.233 127.67C120.184 127.67 120.135 127.67 120.087 127.67C120.038 127.67 119.989 127.67 119.94 127.67C119.891 127.67 119.842 127.67 119.794 127.67C119.745 127.67 119.696 127.67 119.647 127.67C119.598 127.67 119.55 127.67 119.501 127.67C119.452 127.67 119.403 127.67 119.354 127.67C119.305 127.67 119.257 127.67 119.208 127.67C119.159 127.67 119.11 127.67 119.061 127.67C119.012 127.67 118.964 127.67 118.915 127.67C118.866 127.67 118.817 127.67 118.768 127.67C118.719 127.67 118.671 127.67 118.622 127.67C118.573 127.67 118.524 127.67 118.475 127.67C118.426 127.67 118.378 127.67 118.329 127.67C118.28 127.67 118.231 127.67 118.182 127.67C118.134 127.67 118.085 127.67 118.036 127.67C117.987 127.67 117.938 127.67 117.889 127.67C117.841 127.67 117.792 127.67 117.743 127.67C117.694 127.67 117.645 127.67 117.596 127.67C117.548 127.67 117.499 127.67 117.45 127.67C117.401 127.67 117.352 127.67 117.303 127.67C117.254 127.67 117.206 127.67 117.157 127.67C117.108 127.67 117.059 127.67 117.01 127.67C116.961 127.67 116.913 127.67 116.864 127.67C116.815 127.67 116.766 127.67 116.717 127.67C116.668 127.67 116.619 127.67 116.571 127.67C116.522 127.67 116.473 127.67 116.424 127.67C116.375 127.67 116.326 127.67 116.277 127.67C116.229 127.67 116.18 127.67 116.131 127.67C116.082 127.67 116.033 127.67 115.984 127.67C115.935 127.67 115.886 127.67 115.838 127.67C115.789 127.67 115.74 127.67 115.691 127.67C115.642 127.67 115.593 127.67 115.544 127.67C115.495 127.67 115.446 127.67 115.398 127.67C115.349 127.67 115.3 127.67 115.251 127.67C115.202 127.67 115.153 127.67 115.104 127.67C115.055 127.67 115.006 127.67 114.957 127.67C114.908 127.67 114.86 127.67 114.811 127.67C114.762 127.67 114.713 127.67 114.664 127.67C114.615 127.67 114.566 127.67 114.517 127.67C114.468 127.67 114.419 127.67 114.37 127.67C114.321 127.67 114.272 127.67 114.223 127.67C114.174 127.67 114.126 127.67 114.077 127.67C114.028 127.67 113.979 127.67 113.93 127.67C113.881 127.67 113.832 127.67 113.783 127.67C113.734 127.67 113.685 127.67 113.636 127.67C113.587 127.67 113.538 127.67 113.489 127.67C113.44 127.67 113.391 127.67 113.342 127.67C113.293 127.67 113.244 127.67 113.195 127.67C113.146 127.67 113.097 127.67 113.048 127.67C112.999 127.67 112.95 127.67 112.901 127.67C112.852 127.67 112.803 127.67 112.754 127.67C112.705 127.67 112.656 127.67 112.607 127.67C112.558 127.67 112.508 127.67 112.459 127.67C112.41 127.67 112.361 127.67 112.312 127.67C112.263 127.67 112.214 127.67 112.165 127.67C112.116 127.67 112.067 127.67 112.018 127.67C111.969 127.67 111.92 127.67 111.87 127.67C111.821 127.67 111.772 127.67 111.723 127.67C111.674 127.67 111.625 127.67 111.576 127.67C111.527 127.67 111.478 127.67 111.428 127.67C111.379 127.67 111.33 127.67 111.281 127.67C111.232 127.67 111.183 127.67 111.134 127.67C111.084 127.67 111.035 127.67 110.986 127.67C110.937 127.67 110.888 127.67 110.839 127.67C110.789 127.67 110.74 127.67 110.691 127.67C110.642 127.67 110.593 127.67 110.543 127.67C110.494 127.67 110.445 127.67 110.396 127.67C110.346 127.67 110.297 127.67 110.248 127.67C110.199 127.67 110.15 127.67 110.1 127.67C110.051 127.67 110.002 127.67 109.952 127.67C109.903 127.67 109.854 127.67 109.805 127.67C109.755 127.67 109.706 127.67 109.657 127.67C109.608 127.67 109.558 127.67 109.509 127.67C109.46 127.67 109.41 127.67 109.361 127.67C109.312 127.67 109.262 127.67 109.213 127.67C109.164 127.67 109.114 127.67 109.065 127.67C109.016 127.67 108.966 127.67 108.917 127.67C108.867 127.67 108.818 127.67 108.769 127.67C108.719 127.67 108.67 127.67 108.621 127.67C108.571 127.67 108.522 127.67 108.472 127.67C108.423 127.67 108.373 127.67 108.324 127.67C108.275 127.67 108.225 127.67 108.176 127.67C108.126 127.67 108.077 127.67 108.027 127.67C107.978 127.67 107.928 127.67 107.879 127.67C107.829 127.67 107.78 127.67 107.73 127.67C107.681 127.67 107.631 127.67 107.582 127.67C107.532 127.67 107.483 127.67 107.433 127.67C107.384 127.67 107.334 127.67 107.285 127.67C107.235 127.67 107.186 127.67 107.136 127.67C107.086 127.67 107.037 127.67 106.987 127.67C106.938 127.67 106.888 127.67 106.838 127.67C106.789 127.67 106.739 127.67 106.69 127.67C106.64 127.67 106.59 127.67 106.541 127.67C106.491 127.67 106.441 127.67 106.392 127.67C106.342 127.67 106.292 127.67 106.243 127.67C106.193 127.67 106.143 127.67 106.093 127.67C106.044 127.67 105.994 127.67 105.944 127.67C105.895 127.67 105.845 127.67 105.795 127.67C105.745 127.67 105.696 127.67 105.646 127.67C105.596 127.67 105.546 127.67 105.496 127.67C105.447 127.67 105.397 127.67 105.347 127.67C105.297 127.67 105.247 127.67 105.198 127.67C105.148 127.67 105.098 127.67 105.048 127.67C104.998 127.67 104.948 127.67 104.898 127.67C104.849 127.67 104.799 127.67 104.749 127.67C104.699 127.67 104.649 127.67 104.599 127.67C104.549 127.67 104.499 127.67 104.449 127.67C104.399 127.67 104.349 127.67 104.299 127.67C104.249 127.67 104.199 127.67 104.149 127.67C104.099 127.67 104.049 127.67 103.999 127.67C103.949 127.67 103.899 127.67 103.849 127.67C103.799 127.67 103.749 127.67 103.699 127.67C103.649 127.67 103.599 127.67 103.549 127.67C103.499 127.67 103.449 127.67 103.399 127.67C103.348 127.67 103.298 127.67 103.248 127.67C103.198 127.67 103.148 127.67 103.098 127.67C103.048 127.67 102.997 127.67 102.947 127.67C102.897 127.67 102.847 127.67 102.797 127.67C102.746 127.67 102.696 127.67 102.646 127.67C102.596 127.67 102.546 127.67 102.495 127.67C102.445 127.67 102.395 127.67 102.344 127.67C102.294 127.67 102.244 127.67 102.194 127.67C102.143 127.67 102.093 127.67 102.043 127.67C101.992 127.67 101.942 127.67 101.891 127.67C101.841 127.67 101.791 127.67 101.74 127.67C101.69 127.67 101.64 127.67 101.589 127.67C101.539 127.67 101.488 127.67 101.438 127.67C101.387 127.67 101.337 127.67 101.286 127.67C101.236 127.67 101.186 127.67 101.135 127.67C101.084 127.67 101.034 127.67 100.983 127.67C100.933 127.67 100.882 127.67 100.832 127.67C100.781 127.67 100.731 127.67 100.68 127.67C100.63 127.67 100.579 127.67 100.528 127.67C100.478 127.67 100.427 127.67 100.376 127.67C100.326 127.67 100.275 127.67 100.224 127.67C100.174 127.67 100.123 127.67 100.072 127.67C100.022 127.67 99.971 127.67 99.9202 127.67C99.8695 127.67 99.8188 127.67 99.768 127.67C99.7172 127.67 99.6665 127.67 99.6157 127.67C99.5649 127.67 99.5141 127.67 99.4633 127.67C99.4124 127.67 99.3616 127.67 99.3108 127.67C99.2599 127.67 99.209 127.67 99.1581 127.67C99.1073 127.67 99.0564 127.67 99.0055 127.67C98.9546 127.67 98.9036 127.67 98.8527 127.67C98.8017 127.67 98.7508 127.67 98.6998 127.67C98.6488 127.67 98.5978 127.67 98.5468 127.67C98.4958 127.67 98.4448 127.67 98.3938 127.67C98.3427 127.67 98.2917 127.67 98.2406 127.67C98.1895 127.67 98.1384 127.67 98.0873 127.67C98.0362 127.67 97.9851 127.67 97.934 127.67C97.8829 127.67 97.8317 127.67 97.7805 127.67C97.7294 127.67 97.6782 127.67 97.627 127.67C97.5758 127.67 97.5246 127.67 97.4733 127.67C97.4221 127.67 97.3708 127.67 97.3196 127.67C97.2683 127.67 97.217 127.67 97.1657 127.67C97.1144 127.67 97.0631 127.67 97.0118 127.67C96.9604 127.67 96.9091 127.67 96.8577 127.67C96.8064 127.67 96.755 127.67 96.7036 127.67C96.6522 127.67 96.6007 127.67 96.5493 127.67C96.4979 127.67 96.4464 127.67 96.395 127.67C96.3435 127.67 96.292 127.67 96.2405 127.67C96.189 127.67 96.1375 127.67 96.0859 127.67C96.0344 127.67 95.9828 127.67 95.9312 127.67C95.8796 127.67 95.8281 127.67 95.7764 127.67C95.7248 127.67 95.6732 127.67 95.6216 127.67C95.5699 127.67 95.5182 127.67 95.4665 127.67C95.4149 127.67 95.3632 127.67 95.3114 127.67C95.2597 127.67 95.208 127.67 95.1562 127.67C95.1045 127.67 95.0527 127.67 95.0009 127.67C94.9491 127.67 94.8973 127.67 94.8455 127.67C94.7936 127.67 94.7418 127.67 94.6899 127.67C94.638 127.67 94.5861 127.67 94.5342 127.67C94.4823 127.67 94.4304 127.67 94.3785 127.67C94.3265 127.67 94.2746 127.67 94.2226 127.67C94.1706 127.67 94.1186 127.67 94.0666 127.67C94.0145 127.67 93.9625 127.67 93.9104 127.67C93.8584 127.67 93.8063 127.67 93.7542 127.67C93.7021 127.67 93.65 127.67 93.5979 127.67C93.5457 127.67 93.4936 127.67 93.4414 127.67C93.3892 127.67 93.337 127.67 93.2848 127.67C93.2326 127.67 93.1804 127.67 93.1281 127.67C93.0758 127.67 93.0236 127.67 92.9713 127.67C92.919 127.67 92.8667 127.67 92.8143 127.67C92.762 127.67 92.7096 127.67 92.6573 127.67C92.6049 127.67 92.5525 127.67 92.5001 127.67C92.4477 127.67 92.3952 127.67 92.3428 127.67C92.2903 127.67 92.2378 127.67 92.1853 127.67C92.1329 127.67 92.0803 127.67 92.0278 127.67C91.9753 127.67 91.9227 127.67 91.8701 127.67C91.8175 127.67 91.7649 127.67 91.7123 127.67C91.6597 127.67 91.6071 127.67 91.5544 127.67C91.5017 127.67 91.4491 127.67 91.3963 127.67C91.3436 127.67 91.2909 127.67 91.2382 127.67C91.1854 127.67 91.1327 127.67 91.0799 127.67C91.0271 127.67 90.9743 127.67 90.9214 127.67C90.8686 127.67 90.8157 127.67 90.7629 127.67C90.71 127.67 90.6571 127.67 90.6042 127.67C90.5513 127.67 90.4983 127.67 90.4454 127.67C90.3924 127.67 90.3394 127.67 90.2864 127.67C90.2334 127.67 90.1804 127.67 90.1273 127.67C90.0743 127.67 90.0212 127.67 89.9681 127.67C89.915 127.67 89.8619 127.67 89.8088 127.67C89.7556 127.67 89.7025 127.67 89.6493 127.67C89.5961 127.67 89.5429 127.67 89.4897 127.67C89.4364 127.67 89.3832 127.67 89.3299 127.67C89.2766 127.67 89.2233 127.67 89.17 127.67C89.1167 127.67 89.0634 127.67 89.01 127.67C88.9566 127.67 88.9032 127.67 88.8498 127.67C88.7964 127.67 88.743 127.67 88.6895 127.67C88.6361 127.67 88.5826 127.67 88.5291 127.67C88.4756 127.67 88.4221 127.67 88.3685 127.67C88.315 127.67 88.2614 127.67 88.2078 127.67C88.1542 127.67 88.1006 127.67 88.047 127.67C87.9933 127.67 87.9396 127.67 87.886 127.67C87.8323 127.67 87.7786 127.67 87.7248 127.67C87.6711 127.67 87.6173 127.67 87.5635 127.67C87.5098 127.67 87.4559 127.67 87.4021 127.67C87.3483 127.67 87.2944 127.67 87.2405 127.67C87.1867 127.67 87.1328 127.67 87.0788 127.67C87.0249 127.67 86.971 127.67 86.917 127.67C86.863 127.67 86.809 127.67 86.755 127.67C86.7009 127.67 86.6469 127.67 86.5928 127.67C86.5387 127.67 86.4846 127.67 86.4305 127.67C86.3764 127.67 86.3223 127.67 86.2681 127.67C86.2139 127.67 86.1597 127.67 86.1055 127.67C86.0513 127.67 85.997 127.67 85.9427 127.67C85.8885 127.67 85.8342 127.67 85.7799 127.67C85.7255 127.67 85.6712 127.67 85.6168 127.67C85.5624 127.67 85.508 127.67 85.4536 127.67C85.3992 127.67 85.3447 127.67 85.2903 127.67C85.2358 127.67 85.1813 127.67 85.1268 127.67C85.0722 127.67 85.0177 127.67 84.9631 127.67C84.9085 127.67 84.8539 127.67 84.7993 127.67C84.7447 127.67 84.69 127.67 84.6353 127.67C84.5807 127.67 84.526 127.67 84.4712 127.67C84.4165 127.67 84.3617 127.67 84.3069 127.67C84.2522 127.67 84.1973 127.67 84.1425 127.67C84.0877 127.67 84.0328 127.67 83.9779 127.67C83.923 127.67 83.8681 127.67 83.8132 127.67C83.7582 127.67 83.7033 127.67 83.6483 127.67C83.5933 127.67 83.5382 127.67 83.4832 127.67C83.4282 127.67 83.3731 127.67 83.318 127.67C83.2629 127.67 83.2077 127.67 83.1526 127.67C83.0974 127.67 83.0422 127.67 82.987 127.67C82.9318 127.67 82.8766 127.67 82.8213 127.67C82.7661 127.67 82.7108 127.67 82.6554 127.67C82.6001 127.67 82.5448 127.67 82.4894 127.67C82.434 127.67 82.3786 127.67 82.3232 127.67C82.2678 127.67 82.2123 127.67 82.1568 127.67C82.1014 127.67 82.0458 127.67 81.9903 127.67C81.9348 127.67 81.8792 127.67 81.8236 127.67C81.768 127.67 81.7124 127.67 81.6567 127.67C81.6011 127.67 81.5454 127.67 81.4897 127.67C81.434 127.67 81.3783 127.67 81.3225 127.67C81.2667 127.67 81.2109 127.67 81.1551 127.67C81.0993 127.67 81.0434 127.67 80.9876 127.67C80.9317 127.67 80.8758 127.67 80.8199 127.67C80.7639 127.67 80.708 127.67 80.652 127.67C80.596 127.67 80.54 127.67 80.4839 127.67C80.4279 127.67 80.3718 127.67 80.3157 127.67C80.2596 127.67 80.2034 127.67 80.1473 127.67C80.0911 127.67 80.0349 127.67 79.9787 127.67C79.9225 127.67 79.8662 127.67 79.8099 127.67C79.7537 127.67 79.6973 127.67 79.641 127.67C79.5847 127.67 79.5283 127.67 79.4719 127.67C79.4155 127.67 79.3591 127.67 79.3026 127.67C79.2462 127.67 79.1897 127.67 79.1332 127.67C79.0766 127.67 79.0201 127.67 78.9635 127.67C78.9069 127.67 78.8503 127.67 78.7937 127.67C78.7371 127.67 78.6804 127.67 78.6237 127.67C78.567 127.67 78.5103 127.67 78.4535 127.67C78.3968 127.67 78.34 127.67 78.2832 127.67C78.2264 127.67 78.1695 127.67 78.1126 127.67C78.0558 127.67 77.9988 127.67 77.9419 127.67C77.885 127.67 77.828 127.67 77.771 127.67C77.714 127.67 77.657 127.67 77.5999 127.67C77.5429 127.67 77.4858 127.67 77.4286 127.67C77.3715 127.67 77.3144 127.67 77.2572 127.67C77.2 127.67 77.1428 127.67 77.0855 127.67C77.0283 127.67 76.971 127.67 76.9137 127.67C76.8564 127.67 76.7991 127.67 76.7417 127.67C76.6843 127.67 76.6269 127.67 76.5695 127.67C76.512 127.67 76.4546 127.67 76.3971 127.67C76.3396 127.67 76.2821 127.67 76.2245 127.67C76.1669 127.67 76.1093 127.67 76.0517 127.67C75.9941 127.67 75.9364 127.67 75.8788 127.67C75.8211 127.67 75.7633 127.67 75.7056 127.67C75.6478 127.67 75.5901 127.67 75.5322 127.67C75.4744 127.67 75.4166 127.67 75.3587 127.67C75.3008 127.67 75.2429 127.67 75.185 127.67C75.127 127.67 75.069 127.67 75.011 127.67C74.953 127.67 74.895 127.67 74.8369 127.67C74.7788 127.67 74.7207 127.67 74.6626 127.67C74.6045 127.67 74.5463 127.67 74.4881 127.67C74.4299 127.67 74.3716 127.67 74.3134 127.67C74.2551 127.67 74.1968 127.67 74.1385 127.67C74.0801 127.67 74.0217 127.67 73.9633 127.67C73.9049 127.67 73.8465 127.67 73.788 127.67C73.7296 127.67 73.6711 127.67 73.6125 127.67C73.554 127.67 73.4954 127.67 73.4368 127.67C73.3782 127.67 73.3196 127.67 73.2609 127.67C73.2022 127.67 73.1435 127.67 73.0848 127.67C73.0261 127.67 72.9673 127.67 72.9085 127.67C72.8497 127.67 72.7908 127.67 72.732 127.67C72.6731 127.67 72.6142 127.67 72.5553 127.67C72.4963 127.67 72.4373 127.67 72.3783 127.67C72.3193 127.67 72.2603 127.67 72.2012 127.67C72.1421 127.67 72.083 127.67 72.0239 127.67C71.9647 127.67 71.9055 127.67 71.8463 127.67C71.7871 127.67 71.7279 127.67 71.6686 127.67C71.6093 127.67 71.55 127.67 71.4906 127.67C71.4313 127.67 71.3719 127.67 71.3124 127.67C71.253 127.67 71.1936 127.67 71.1341 127.67C71.0746 127.67 71.015 127.67 70.9555 127.67C70.8959 127.67 70.8363 127.67 70.7767 127.67C70.7171 127.67 70.6574 127.67 70.5977 127.67C70.538 127.67 70.4782 127.67 70.4185 127.67C70.3587 127.67 70.2989 127.67 70.239 127.67C70.1792 127.67 70.1193 127.67 70.0594 127.67C69.9995 127.67 69.9395 127.67 69.8795 127.67C69.8195 127.67 69.7595 127.67 69.6995 127.67C69.6394 127.67 69.5793 127.67 69.5192 127.67C69.459 127.67 69.3989 127.67 69.3387 127.67C69.2785 127.67 69.2182 127.67 69.1579 127.67C69.0977 127.67 69.0373 127.67 68.977 127.67C68.9166 127.67 68.8563 127.67 68.7958 127.67C68.7354 127.67 68.675 127.67 68.6145 127.67C68.554 127.67 68.4934 127.67 68.4329 127.67C68.3723 127.67 68.3117 127.67 68.251 127.67C68.1904 127.67 68.1297 127.67 68.069 127.67C68.0083 127.67 67.9475 127.67 67.8867 127.67C67.826 127.67 67.7651 127.67 67.7043 127.67C67.6434 127.67 67.5825 127.67 67.5216 127.67C67.4606 127.67 67.3996 127.67 67.3386 127.67C67.2776 127.67 67.2166 127.67 67.1555 127.67C67.0944 127.67 67.0333 127.67 66.9721 127.67C66.9109 127.67 66.8497 127.67 66.7885 127.67C66.7272 127.67 66.666 127.67 66.6047 127.67C66.5433 127.67 66.482 127.67 66.4206 127.67C66.3592 127.67 66.2978 127.67 66.2363 127.67C66.1748 127.67 66.1133 127.67 66.0518 127.67C65.9902 127.67 65.9287 127.67 65.867 127.67C65.8054 127.67 65.7438 127.67 65.6821 127.67C65.6204 127.67 65.5586 127.67 65.4969 127.67C65.4351 127.67 65.3733 127.67 65.3114 127.67C65.2496 127.67 65.1877 127.67 65.1258 127.67C65.0638 127.67 65.0019 127.67 64.9399 127.67C64.8779 127.67 64.8158 127.67 64.7537 127.67C64.6916 127.67 64.6295 127.67 64.5674 127.67C64.5052 127.67 64.443 127.67 64.3808 127.67C64.3185 127.67 64.2562 127.67 64.1939 127.67C64.1316 127.67 64.0692 127.67 64.0068 127.67C63.9444 127.67 63.882 127.67 63.8195 127.67C63.757 127.67 63.6945 127.67 63.632 127.67C63.5694 127.67 63.5068 127.67 63.4442 127.67C63.3816 127.67 63.3189 127.67 63.2562 127.67C63.1934 127.67 63.1307 127.67 63.0679 127.67C63.0051 127.67 62.9423 127.67 62.8794 127.67C62.8165 127.67 62.7536 127.67 62.6906 127.67C62.6277 127.67 62.5647 127.67 62.5016 127.67C62.4386 127.67 62.3755 127.67 62.3124 127.67C62.2493 127.67 62.1861 127.67 62.1229 127.67C62.0597 127.67 61.9965 127.67 61.9332 127.67C61.8699 127.67 61.8066 127.67 61.7433 127.67C61.6799 127.67 61.6165 127.67 61.5531 127.67C61.4896 127.67 61.4261 127.67 61.3626 127.67C61.2991 127.67 61.2355 127.67 61.1719 127.67C61.1083 127.67 61.0446 127.67 60.9809 127.67C60.9173 127.67 60.8535 127.67 60.7898 127.67C60.726 127.67 60.6622 127.67 60.5983 127.67C60.5345 127.67 60.4706 127.67 60.4066 127.67C60.3427 127.67 60.2787 127.67 60.2147 127.67C60.1507 127.67 60.0866 127.67 60.0225 127.67C59.9584 127.67 59.8942 127.67 59.83 127.67C59.7658 127.67 59.7016 127.67 59.6373 127.67C59.5731 127.67 59.5087 127.67 59.4444 127.67C59.38 127.67 59.3156 127.67 59.2512 127.67C59.1867 127.67 59.1223 127.67 59.0577 127.67C58.9932 127.67 58.9286 127.67 58.864 127.67C58.7994 127.67 58.7347 127.67 58.67 127.67C58.6053 127.67 58.5406 127.67 58.4758 127.67C58.411 127.67 58.3462 127.67 58.2813 127.67C58.2165 127.67 58.1516 127.67 58.0866 127.67C58.0216 127.67 57.9566 127.67 57.8916 127.67C57.8266 127.67 57.7615 127.67 57.6963 127.67C57.6312 127.67 57.566 127.67 57.5008 127.67C57.4356 127.67 57.3704 127.67 57.3051 127.67C57.2398 127.67 57.1744 127.67 57.109 127.67C57.0436 127.67 56.9782 127.67 56.9127 127.67C56.8472 127.67 56.7817 127.67 56.7162 127.67C56.6506 127.67 56.585 127.67 56.5193 127.67C56.4537 127.67 56.388 127.67 56.3223 127.67C56.2565 127.67 56.1907 127.67 56.1249 127.67C56.0591 127.67 55.9932 127.67 55.9273 127.67C55.8614 127.67 55.7954 127.67 55.7294 127.67C55.6634 127.67 55.5973 127.67 55.5312 127.67C55.4652 127.67 55.399 127.67 55.3328 127.67C55.2667 127.67 55.2004 127.67 55.1341 127.67C55.0679 127.67 55.0016 127.67 54.9352 127.67C54.8688 127.67 54.8024 127.67 54.736 127.67V130.67ZM137.424 96.9405H54.736V99.9405H137.424V96.9405ZM54.736 98.4405C54.7361 96.9405 54.7356 96.9405 54.735 96.9405C54.7347 96.9405 54.7339 96.9405 54.7332 96.9405C54.7318 96.9405 54.7299 96.9405 54.7275 96.9405C54.7228 96.9406 54.7161 96.9406 54.7076 96.9406C54.6907 96.9407 54.6663 96.9408 54.6348 96.941C54.5717 96.9415 54.4799 96.9425 54.3614 96.9445C54.1244 96.9483 53.7803 96.956 53.3442 96.9714C52.4723 97.002 51.2312 97.0631 49.7436 97.1853C46.775 97.429 42.794 97.9179 38.7942 98.9036C34.816 99.884 30.7002 101.384 27.5481 103.715C24.3546 106.076 22.0703 109.364 22.0703 113.804H25.0703C25.0703 110.561 26.6817 108.087 29.3318 106.127C32.0232 104.137 35.6989 102.756 39.5121 101.816C43.3037 100.882 47.1141 100.411 49.9891 100.175C51.4233 100.057 52.617 99.9988 53.4495 99.9695C53.8656 99.9549 54.191 99.9476 54.4105 99.9441C54.5203 99.9423 54.6035 99.9414 54.6584 99.9409C54.6858 99.9407 54.7061 99.9406 54.7191 99.9406C54.7256 99.9406 54.7303 99.9405 54.7331 99.9405C54.7345 99.9405 54.7354 99.9405 54.7359 99.9405C54.7361 99.9405 54.7361 99.9405 54.7362 99.9405C54.7361 99.9405 54.7359 99.9405 54.736 98.4405ZM54.736 130.67H136.838V127.67H54.736V130.67ZM124.212 127.67H99.2492V130.67H124.212V127.67ZM99.2492 127.67H70.682V130.67H99.2492V127.67ZM136.733 130.666C138.396 130.783 140.685 130.68 143.108 130.558C145.575 130.434 148.246 130.287 150.805 130.287V127.287C148.154 127.287 145.395 127.44 142.958 127.562C140.477 127.687 138.387 127.775 136.943 127.674L136.733 130.666ZM150.993 130.275C155.966 129.645 161.295 128.36 165.538 125.87C169.828 123.352 173.093 119.537 173.602 113.94L170.615 113.668C170.216 118.057 167.712 121.115 164.02 123.282C160.28 125.477 155.411 126.691 150.616 127.299L150.993 130.275ZM138.277 151.98C142.209 151.92 145.129 150.34 147.224 148.002C149.278 145.709 150.492 142.748 151.219 139.928C151.95 137.094 152.218 134.29 152.306 132.21C152.351 131.166 152.35 130.295 152.338 129.681C152.332 129.374 152.323 129.131 152.316 128.962C152.312 128.877 152.309 128.811 152.306 128.765C152.305 128.742 152.304 128.724 152.303 128.711C152.303 128.705 152.302 128.7 152.302 128.696C152.302 128.694 152.302 128.692 152.302 128.691C152.302 128.69 152.302 128.69 152.302 128.689C152.301 128.689 152.301 128.688 150.805 128.787C149.308 128.885 149.308 128.885 149.308 128.885C149.308 128.885 149.308 128.884 149.308 128.884C149.308 128.884 149.308 128.885 149.308 128.885C149.308 128.887 149.308 128.889 149.308 128.893C149.309 128.901 149.31 128.914 149.311 128.931C149.313 128.967 149.315 129.021 149.319 129.094C149.325 129.24 149.333 129.459 149.339 129.739C149.349 130.301 149.35 131.11 149.309 132.083C149.226 134.037 148.975 136.616 148.314 139.179C147.65 141.756 146.599 144.204 144.99 146C143.423 147.749 141.282 148.934 138.231 148.981L138.277 151.98ZM96.2902 158.538C104.026 158.438 109.644 156.304 113.728 153.509C117.797 150.723 120.262 147.336 121.785 144.848L119.226 143.282C117.826 145.57 115.626 148.574 112.033 151.033C108.456 153.482 103.418 155.446 96.2516 155.538L96.2902 158.538ZM121.785 144.848C123.406 142.2 124.368 138.228 124.931 135.092C125.219 133.491 125.412 132.045 125.534 130.999C125.595 130.476 125.638 130.051 125.666 129.756C125.68 129.608 125.69 129.493 125.697 129.413C125.7 129.373 125.703 129.342 125.705 129.321C125.706 129.31 125.706 129.302 125.707 129.296C125.707 129.293 125.707 129.291 125.707 129.289C125.707 129.288 125.707 129.288 125.707 129.287C125.707 129.287 125.708 129.287 125.708 129.286C125.708 129.286 125.708 129.286 124.212 129.17C122.717 129.054 122.717 129.054 122.717 129.054C122.717 129.054 122.717 129.054 122.717 129.054C122.717 129.054 122.717 129.054 122.716 129.055C122.716 129.055 122.716 129.057 122.716 129.059C122.716 129.062 122.715 129.069 122.715 129.077C122.713 129.095 122.711 129.121 122.708 129.157C122.702 129.228 122.692 129.334 122.679 129.473C122.653 129.749 122.612 130.152 122.554 130.652C122.437 131.654 122.252 133.036 121.978 134.562C121.419 137.679 120.528 141.155 119.226 143.282L121.785 144.848ZM138.231 148.981C131.349 149.086 127.626 148.198 125.467 147.088C123.393 146.022 122.63 144.696 121.793 143.296L119.218 144.835C120.085 146.286 121.213 148.274 124.095 149.756C126.893 151.195 131.193 152.089 138.277 151.98L138.231 148.981ZM70.682 129.17C69.1943 129.362 69.1943 129.362 69.1943 129.362C69.1944 129.363 69.1944 129.363 69.1944 129.363C69.1945 129.363 69.1945 129.364 69.1946 129.365C69.1948 129.366 69.195 129.368 69.1954 129.37C69.196 129.375 69.1969 129.382 69.1981 129.391C69.2005 129.409 69.204 129.436 69.2086 129.47C69.2179 129.539 69.2315 129.64 69.2497 129.77C69.286 130.03 69.34 130.406 69.4117 130.878C69.5551 131.82 69.7694 133.144 70.0536 134.673C70.6196 137.718 71.4726 141.632 72.6122 144.977L75.4519 144.009C74.3818 140.868 73.5598 137.12 73.0031 134.125C72.726 132.634 72.5171 131.344 72.3776 130.427C72.3079 129.968 72.2556 129.604 72.2209 129.355C72.2035 129.231 72.1905 129.135 72.182 129.072C72.1777 129.04 72.1746 129.016 72.1725 129C72.1715 128.992 72.1707 128.986 72.1702 128.983C72.17 128.981 72.1698 128.98 72.1697 128.979C72.1697 128.978 72.1696 128.978 72.1696 128.978C72.1696 128.978 72.1696 128.978 72.1696 128.978C72.1696 128.978 72.1696 128.978 70.682 129.17ZM72.6122 144.977C73.7862 148.423 75.7784 151.921 79.5429 154.506C83.2939 157.082 88.635 158.636 96.2902 158.538L96.2516 155.538C89.0054 155.631 84.3319 154.156 81.2413 152.033C78.1641 149.92 76.4875 147.049 75.4519 144.009L72.6122 144.977ZM56.6737 153.477C64.8365 153.294 69.5274 151.367 72.2145 149.288C73.556 148.25 74.3671 147.198 74.8491 146.362C75.089 145.946 75.245 145.588 75.3444 145.318C75.3941 145.183 75.4296 145.07 75.4543 144.983C75.4667 144.939 75.4764 144.902 75.4839 144.872C75.4877 144.856 75.4908 144.843 75.4935 144.831C75.4948 144.825 75.496 144.82 75.4971 144.815C75.4977 144.812 75.4982 144.81 75.4987 144.808C75.4989 144.807 75.4992 144.805 75.4994 144.804C75.4997 144.803 75.5 144.801 74.032 144.493C72.5641 144.185 72.5644 144.183 72.5647 144.182C72.5648 144.181 72.5651 144.18 72.5653 144.179C72.5657 144.177 72.5661 144.175 72.5664 144.174C72.5671 144.171 72.5677 144.168 72.5683 144.165C72.5694 144.161 72.5702 144.157 72.5706 144.156C72.5714 144.152 72.5708 144.155 72.5684 144.164C72.5634 144.181 72.5513 144.221 72.529 144.282C72.4844 144.403 72.3993 144.605 72.2505 144.863C71.9551 145.375 71.3986 146.126 70.3789 146.915C68.3438 148.489 64.3388 150.304 56.6065 150.478L56.6737 153.477ZM96.6752 50.0119C97.8417 49.0688 97.8412 49.0682 97.8407 49.0676C97.8404 49.0673 97.8399 49.0666 97.8394 49.066C97.8384 49.0648 97.8373 49.0634 97.836 49.0619C97.8335 49.0587 97.8302 49.0547 97.8262 49.0499C97.8183 49.0403 97.8077 49.0274 97.7943 49.0113C97.7675 48.9792 97.7297 48.9344 97.6809 48.8779C97.5835 48.765 97.4424 48.6051 97.2581 48.406C96.8898 48.0079 96.3483 47.4519 95.6386 46.7991C94.2205 45.4945 92.1228 43.7959 89.384 42.1979C83.8966 38.9959 75.8265 36.1955 65.5475 37.7923L66.0079 40.7567C75.4665 39.2874 82.8451 41.8557 87.8721 44.789C90.3905 46.2585 92.3164 47.8192 93.6076 49.007C94.2525 49.6003 94.7371 50.0987 95.0562 50.4435C95.2156 50.6158 95.3335 50.7496 95.4092 50.8373C95.4471 50.8812 95.4743 50.9136 95.491 50.9335C95.4993 50.9434 95.5049 50.9503 95.5079 50.9539C95.5094 50.9557 95.5102 50.9567 95.5104 50.9569C95.5104 50.957 95.5103 50.9569 95.5101 50.9566C95.5099 50.9564 95.5096 50.956 95.5096 50.9559C95.5092 50.9555 95.5088 50.955 96.6752 50.0119ZM65.5475 37.7923C55.357 39.3752 48.1602 43.7355 43.5079 47.7161C41.1843 49.7042 39.4956 51.5971 38.382 53.0024C37.825 53.7053 37.4111 54.2874 37.1327 54.6998C36.9935 54.9061 36.8882 55.0701 36.8157 55.1857C36.7795 55.2436 36.7515 55.2893 36.7316 55.3223C36.7216 55.3387 36.7137 55.352 36.7078 55.362C36.7048 55.367 36.7024 55.3711 36.7004 55.3744C36.6995 55.3761 36.6986 55.3776 36.6979 55.3788C36.6975 55.3794 36.6971 55.3802 36.6969 55.3805C36.6965 55.3812 36.6961 55.3819 37.9917 56.1377C39.2874 56.8935 39.2871 56.8941 39.2868 56.8946C39.2867 56.8947 39.2865 56.8951 39.2863 56.8953C39.2861 56.8957 39.286 56.8959 39.286 56.8959C39.286 56.8959 39.2865 56.895 39.2875 56.8934C39.2895 56.8901 39.2934 56.8835 39.2993 56.8738C39.311 56.8543 39.3306 56.8222 39.3582 56.7782C39.4132 56.6903 39.5001 56.5549 39.6195 56.3779C39.8584 56.0238 40.2274 55.504 40.7333 54.8656C41.7457 53.588 43.3026 51.84 45.4583 49.9956C49.7646 46.3111 56.4608 42.2398 66.0079 40.7567L65.5475 37.7923ZM37.9917 56.1377C37.9533 57.6372 37.9525 57.6372 37.9517 57.6372C37.9515 57.6371 37.9507 57.6371 37.9503 57.6371C37.9494 57.6371 37.9486 57.6371 37.948 57.637C37.9466 57.637 37.9457 57.637 37.9452 57.637C37.9443 57.6369 37.945 57.6369 37.9473 57.637C37.952 57.6373 37.9632 57.6378 37.9803 57.6389C38.0147 57.6411 38.0729 57.6455 38.1511 57.6538C38.3081 57.6707 38.5421 57.7032 38.8245 57.7649C39.397 57.8898 40.1243 58.1251 40.809 58.5565C41.4819 58.9805 42.1108 59.5908 42.5358 60.4947C42.962 61.4012 43.231 62.7054 43.0167 64.5916L45.9975 64.9303C46.2622 62.6008 45.9563 60.7192 45.2507 59.2183C44.5439 57.7149 43.4842 56.6963 42.4084 56.0184C41.3445 55.348 40.2634 55.0083 39.4645 54.8339C39.0612 54.7459 38.7189 54.6975 38.4709 54.6709C38.3466 54.6576 38.2451 54.6497 38.1705 54.6449C38.1332 54.6425 38.1025 54.641 38.079 54.6399C38.0672 54.6394 38.0572 54.639 38.0491 54.6388C38.045 54.6386 38.0414 54.6385 38.0382 54.6384C38.0367 54.6384 38.0352 54.6383 38.0339 54.6383C38.0332 54.6383 38.0323 54.6382 38.0319 54.6382C38.0311 54.6382 38.0302 54.6382 37.9917 56.1377ZM43.0167 64.5916C42.8249 66.2795 42.0882 67.2376 41.2073 67.7725C40.2734 68.3398 39.0038 68.5317 37.6599 68.311C36.3188 68.0908 35.0494 67.481 34.1724 66.6416C33.3128 65.8188 32.8746 64.8315 32.9706 63.743L29.9822 63.4793C29.7908 65.6485 30.7179 67.4877 32.0979 68.8088C33.4606 70.1132 35.3052 70.9646 37.1738 71.2714C39.0397 71.5777 41.0757 71.3624 42.7646 70.3367C44.5066 69.2788 45.7102 67.4583 45.9975 64.9303L43.0167 64.5916ZM32.9706 63.743C33.2122 61.0054 34.5444 59.5168 35.7905 58.6733C36.4323 58.2389 37.0645 57.9695 37.5357 57.8099C37.7696 57.7307 37.9587 57.6803 38.0826 57.6508C38.1444 57.6361 38.1894 57.6268 38.2151 57.6217C38.2279 57.6192 38.2358 57.6177 38.2385 57.6172C38.2399 57.617 38.2399 57.617 38.2386 57.6172C38.238 57.6173 38.237 57.6175 38.2356 57.6177C38.235 57.6178 38.2342 57.618 38.2334 57.6181C38.2329 57.6182 38.2322 57.6183 38.232 57.6183C38.2313 57.6184 38.2306 57.6186 37.9917 56.1377C37.7529 54.6568 37.7521 54.657 37.7513 54.6571C37.751 54.6571 37.7502 54.6573 37.7496 54.6574C37.7484 54.6576 37.7471 54.6578 37.7457 54.658C37.7429 54.6585 37.7398 54.659 37.7362 54.6596C37.7292 54.6608 37.7207 54.6623 37.7108 54.664C37.691 54.6676 37.6655 54.6723 37.6347 54.6784C37.573 54.6905 37.4899 54.7081 37.3881 54.7323C37.1849 54.7807 36.9055 54.856 36.5735 54.9684C35.9128 55.1921 35.024 55.5695 34.1088 56.189C32.241 57.4534 30.3155 59.7016 29.9822 63.4793L32.9706 63.743ZM136.838 127.67H124.212V130.67H136.838V127.67ZM22.0703 113.804C22.0703 118.669 24.2083 122.162 27.4129 124.593C30.5477 126.971 34.6674 128.315 38.7174 129.121L39.303 126.179C35.431 125.409 31.8307 124.179 29.2261 122.203C26.6913 120.28 25.0703 117.637 25.0703 113.804H22.0703ZM38.7174 129.121C44.8998 130.352 51.432 130.403 54.613 130.665L54.859 127.675C51.3528 127.387 45.2654 127.366 39.303 126.179L38.7174 129.121ZM56.6065 150.478C49.6497 150.634 45.6202 145.371 43.2596 139.396C42.0979 136.456 41.4066 133.486 41.0064 131.239C40.8069 130.118 40.6813 129.186 40.6057 128.537C40.568 128.213 40.5428 127.96 40.5273 127.79C40.5195 127.706 40.5141 127.642 40.5108 127.6C40.5091 127.58 40.508 127.565 40.5073 127.555C40.5069 127.551 40.5067 127.548 40.5066 127.546C40.5065 127.545 40.5065 127.544 40.5065 127.544C40.5065 127.544 40.5065 127.545 40.5065 127.544C40.5065 127.545 40.5065 127.545 39.0102 127.65C37.5139 127.755 37.5139 127.756 37.514 127.757C37.514 127.757 37.5141 127.758 37.5141 127.758C37.5142 127.76 37.5143 127.762 37.5145 127.764C37.5148 127.768 37.5152 127.774 37.5158 127.781C37.5169 127.795 37.5184 127.816 37.5205 127.842C37.5247 127.894 37.531 127.969 37.5398 128.065C37.5575 128.257 37.5851 128.534 37.6258 128.884C37.7073 129.583 37.8413 130.576 38.0529 131.764C38.4747 134.134 39.2105 137.312 40.4695 140.499C42.95 146.777 47.7354 153.677 56.6737 153.477L56.6065 150.478ZM70.682 127.67H54.736V130.67H70.682V127.67Z" fill="black"/>
</g>
<defs>
<clipPath id="clip0_190_6793">
<rect width="700" height="900" fill="white" transform="translate(0.046875 0.357422)"/>
</clipPath>
</defs>
</svg>
