<svg width="701" height="901" viewBox="0 0 701 901" fill="none" xmlns="http://www.w3.org/2000/svg">
<g clip-path="url(#clip0_194_1060)">
<rect width="700" height="900" transform="translate(0.359375 0.695312)" fill="#DEFDFF"/>
<path d="M504.065 510.148C514.431 516.351 543.717 540.506 554.095 541.911C564.472 543.317 570.928 545.694 586.21 530.662C586.21 530.662 584.196 521.609 586.21 515C588.223 508.39 606.626 491.56 606.626 491.56C606.626 491.56 581.16 477.713 555.088 480.37C529.015 483.027 504.065 510.148 504.065 510.148Z" fill="#5C9989"/>
<path d="M639.92 495.335C670.571 487.942 695.406 498.797 697.485 498.797L724.879 508.021L722.105 447.506C722.105 447.506 699.542 450.564 689.701 453.884C679.859 457.204 658.81 471.37 647.853 472.484C636.895 473.598 606.626 491.56 606.626 491.56C606.626 491.56 588.223 508.39 586.21 515C584.196 521.609 586.21 530.662 586.21 530.662C601.491 515.629 609.268 502.729 639.92 495.335Z" fill="#72BDAA"/>
<path d="M195.68 502.136C212.254 491.736 232.699 480.914 250.821 478.103C268.943 475.292 269.718 466.157 276.474 461.843C260.579 455.688 246.186 457.998 234.877 455.688C223.568 453.378 211.707 434.34 183.65 433.569C155.594 432.797 133.944 449.349 124.601 455.688C115.258 462.027 93.625 482.684 83.1393 483.113C72.6537 483.542 38.7407 475.999 31.4669 471.97C24.193 467.941 11.6292 459.798 0.453109 455.688C-10.7229 451.577 -17.4661 450.798 -21.4769 451.259C-25.4876 451.72 -24.7273 477.681 -24.7273 477.681L-22.5656 512.709C-22.3601 503.867 -20.6602 494.968 -14.6903 494.687C-2.73297 494.125 15.2279 519.564 26.4605 525.748C37.6932 531.932 58.913 544.159 75.4862 544.44C92.0594 544.721 118.095 539.041 137.139 533.589C156.184 528.137 179.107 512.537 195.68 502.136Z" fill="#72BDAA"/>
<path d="M697.485 498.797C695.406 498.797 670.571 487.942 639.92 495.335C609.268 502.729 601.491 515.629 586.21 530.662C570.928 545.694 564.472 543.317 554.095 541.911C543.717 540.506 514.431 516.351 504.065 510.148C504.065 510.148 485.788 497.077 470.919 488.083C456.05 479.088 440.525 465.898 436.224 463.768C431.922 461.639 428.351 460.817 422.748 460.817C417.146 460.817 389.447 417.107 353.497 418.395C317.546 419.683 304.413 438.891 294.5 449.854C284.587 460.816 276.474 461.843 276.474 461.843C269.718 466.157 268.943 475.292 250.821 478.103C232.699 480.914 212.254 491.736 195.68 502.136C179.107 512.537 156.184 528.137 137.139 533.589C118.095 539.041 92.0594 544.721 75.4862 544.44C58.913 544.159 37.6932 531.932 26.4605 525.748C15.2279 519.564 -2.73297 494.125 -14.6903 494.687C-20.6602 494.968 -22.3601 503.867 -22.5656 512.709L-21.4746 530.386L-17.9265 555.751C-3.70915 553.968 -4.69713 552.009 13.0207 549.859C30.7384 547.709 60.1161 553.965 75.4862 558.356C90.8563 562.746 112.971 576.866 120.129 576.576C127.287 576.285 141.148 567.535 149.569 568.653C157.99 569.77 168.151 576.136 178.795 577.783C189.44 579.429 222.213 586.943 236.611 591.308C251.009 595.674 280.823 612.01 294.523 622.775C308.224 633.54 324.347 650.151 324.347 650.151L338.218 795.944C465.255 800.664 719.885 810.229 722.105 810.733C724.324 811.236 724.301 584.275 724.879 508.021L697.485 498.797Z" fill="#56C77D"/>
<path d="M13.0207 549.859C-4.69713 552.009 -3.70915 553.968 -17.9265 555.751L-25.9023 793.112L338.218 795.944L324.347 650.151C324.347 650.151 308.224 633.54 294.523 622.775C280.823 612.01 251.009 595.674 236.611 591.308C222.213 586.943 189.44 579.429 178.795 577.783C168.151 576.136 157.99 569.77 149.569 568.653C141.148 567.535 127.287 576.285 120.129 576.576C112.971 576.866 90.8563 562.746 75.4862 558.356C60.1161 553.965 30.7384 547.709 13.0207 549.859Z" fill="#40B668"/>
<path d="M-33.7022 791.949C-33.7022 791.949 210.362 702.227 353.597 709.502C496.832 716.776 724.877 799.223 724.877 799.223L711.07 912.386C454.645 911.847 -58.2031 909.799 -58.2031 905.919V833.172L-33.7022 791.949Z" fill="#BA7340"/>
<path d="M737.852 124.568C729.837 121.948 710.107 120.862 701.266 121.279L700.775 121.302C692.074 121.711 682.711 122.151 668.78 128.526C654.586 135.022 650.321 141.983 647.428 143.077C644.534 144.17 628.646 140.178 608.983 150.818C589.321 161.458 583.74 173.347 582.271 174.685C580.803 176.023 562.327 173.403 545.992 192.357C529.657 211.311 554.302 235.328 562.694 238.014C571.086 240.701 594.538 239.92 596.282 240.188C598.025 240.457 611.063 250.072 621.732 250.613C632.402 251.154 644.308 249.721 646.327 250.167C648.346 250.613 665.361 260.281 674.163 259.979C682.966 259.677 689.642 255.24 692.762 255.463C695.882 255.686 726.783 258.55 731.781 257.917C736.779 257.284 745.866 127.188 737.852 124.568Z" fill="white"/>
<path d="M313.879 116.464C335.239 117.553 376.681 115.983 385.455 114.841C394.229 113.698 417.417 112.485 422.353 110.343C427.288 108.202 435.906 102.206 433.32 86.3584C430.735 70.5112 413.187 70.0115 411.228 70.0829C409.27 70.1543 404.256 52.2369 390.703 45.1699C377.151 38.1029 345.345 30.1079 328.423 42.8142C311.502 55.5205 318.31 66.8287 317.299 66.6564C316.288 66.484 298.106 63.7297 291.29 82.2895C284.475 100.849 292.519 115.374 313.879 116.464Z" fill="white"/>
<path d="M55.4919 237.895C78.7076 237.379 88.6956 236.524 133.335 235.518C177.974 234.513 191.015 223.087 193.322 218.883C195.629 214.678 203.253 198.682 187.905 183.6C172.557 168.518 151.592 171.626 150.482 171.544C149.372 171.463 153.297 143.747 131.028 126.837C108.758 109.927 82.9777 121.261 81.1721 119.799C79.3664 118.336 73.8655 98.9843 63.2161 88.9946C52.5666 79.005 29.6114 65.5033 -13.6236 76.6549C-56.8585 87.8064 -41.6437 167.684 -27.2758 207.048C-13.5031 244.781 44.1296 238.148 55.4919 237.895Z" fill="white"/>
</g>
<defs>
<clipPath id="clip0_194_1060">
<rect width="700" height="900" fill="white" transform="translate(0.359375 0.695312)"/>
</clipPath>
</defs>
</svg>
