<svg width="700" height="900" viewBox="0 0 700 900" fill="none" xmlns="http://www.w3.org/2000/svg">
<path d="M275.529 322.499C277.397 321.891 279.259 321.316 281.111 320.777C287.427 318.938 294.717 317.423 302.611 316.229C302.611 316.229 317.743 312.953 330.107 311.026C342.471 309.099 376.03 306.369 376.03 306.369C376.03 306.369 394.496 303.704 400.115 295.29C405.735 286.877 407.341 278.565 399.152 254.987C390.963 231.409 377.788 224.485 377.788 224.485C368.863 220.094 358.673 217.315 347.642 218.147C324.438 219.897 317.652 222.088 305.175 231.938C292.697 241.789 279.689 257.989 275.529 278.565C271.37 299.142 275.529 322.499 275.529 322.499Z" fill="white"/>
<path d="M411.875 319.546C414.697 320.357 417.59 321.252 420.538 322.226C420.538 322.226 424.167 306.014 423.384 289.078C423.292 287.084 423.091 285.071 422.788 283.052C420.524 267.922 412.579 252.463 402.15 242.227C395.948 236.14 387.638 229.331 377.788 224.485C377.788 224.485 390.963 231.409 399.152 254.987C407.341 278.565 405.735 286.877 400.115 295.29C394.496 303.704 376.03 306.369 376.03 306.369C376.03 306.369 342.471 309.099 330.107 311.026C317.743 312.953 302.611 316.229 302.611 316.229C338.055 310.871 385.673 312.008 411.875 319.546Z" fill="white"/>
<path d="M423.384 289.078C424.167 306.014 420.538 322.226 420.538 322.226C427.201 324.428 434.143 327.039 441.185 330.034C441.185 330.034 441.918 323.846 441.755 317.739C441.634 313.201 441.782 308.303 439.962 301.007C439.333 298.485 438.468 295.677 437.276 292.498C432.635 280.121 422.788 283.052 422.788 283.052C423.091 285.071 423.292 287.084 423.384 289.078Z" fill="white"/>
<path d="M441.755 317.739C441.918 323.846 441.185 330.034 441.185 330.034C445.287 331.78 449.424 333.655 453.557 335.656C453.557 335.656 453.847 321.836 451.851 313.098C449.856 304.361 439.962 301.007 439.962 301.007C441.782 308.303 441.634 313.201 441.755 317.739Z" fill="white"/>
<path d="M189.967 371.892C171.534 390.324 153.37 414.094 141.52 440.866C129.671 467.638 120.231 510.688 123.743 535.264C127.254 559.84 143.009 602.302 163.241 624.793C183.473 647.283 221.61 663.413 247.065 669.557C272.519 675.701 308.286 682.317 346.277 682.307C378.899 682.299 444.141 672.257 482.769 657.748C511.683 639.384 522.65 618.082 527.326 605.925C532.003 593.767 540.675 572.983 543.481 549.603C546.286 526.222 541.143 487.177 535.298 455.847C529.452 424.517 509.345 374.015 469.268 343.901C464.085 340.956 458.823 338.204 453.557 335.656C449.424 333.655 445.287 331.78 441.185 330.034C434.143 327.039 427.201 324.428 420.538 322.226C417.59 321.252 414.697 320.357 411.875 319.546C385.673 312.008 338.055 310.871 302.611 316.229C294.717 317.423 287.427 318.938 281.111 320.777C279.259 321.316 277.397 321.891 275.529 322.499C242.432 333.272 207.414 354.444 189.967 371.892Z" fill="white"/>
<path d="M499.415 650.246C532.33 631.814 564.996 592.316 572.706 559.84C580.415 527.363 574.33 470.533 557.214 440.251C540.098 409.969 539.467 403.002 512.257 375.792C500.04 363.575 485.016 352.848 469.268 343.901C509.345 374.015 529.452 424.517 535.298 455.847C541.143 487.177 546.286 526.222 543.481 549.603C540.675 572.983 532.003 593.767 527.326 605.925C522.65 618.082 511.683 639.384 482.769 657.748C489.126 655.36 494.763 652.851 499.415 650.246Z" fill="white"/>
<path d="M275.529 322.499C277.397 321.891 279.259 321.316 281.111 320.777C315.782 310.683 379.838 310.329 411.875 319.546C414.697 320.357 417.59 321.252 420.538 322.226M275.529 322.499C242.432 333.272 207.414 354.444 189.967 371.892C171.534 390.324 153.37 414.094 141.52 440.866C129.671 467.638 120.231 510.688 123.743 535.264C127.254 559.84 143.009 602.302 163.241 624.793C183.473 647.283 221.61 663.413 247.065 669.557C272.519 675.701 308.286 682.317 346.277 682.307C384.268 682.298 466.499 668.679 499.415 650.246C532.33 631.814 564.996 592.316 572.706 559.84C580.415 527.363 574.33 470.533 557.214 440.251C540.098 409.969 539.467 403.002 512.257 375.792C496.019 359.554 474.821 345.947 453.557 335.656M275.529 322.499C275.529 322.499 271.37 299.142 275.529 278.565C279.689 257.989 292.697 241.789 305.175 231.938C317.652 222.088 324.438 219.897 347.642 218.147C370.846 216.397 390.329 230.625 402.15 242.227C412.579 252.463 420.524 267.922 422.788 283.052M420.538 322.226C420.538 322.226 424.167 306.014 423.384 289.078C423.292 287.084 423.091 285.071 422.788 283.052M420.538 322.226C427.201 324.428 434.143 327.039 441.185 330.034M422.788 283.052C422.788 283.052 432.635 280.121 437.276 292.498C438.468 295.677 439.333 298.485 439.962 301.007M441.185 330.034C441.185 330.034 441.918 323.846 441.755 317.739C441.634 313.201 441.782 308.303 439.962 301.007M441.185 330.034C445.287 331.78 449.424 333.655 453.557 335.656M439.962 301.007C439.962 301.007 449.856 304.361 451.851 313.098C453.847 321.836 453.557 335.656 453.557 335.656" stroke="white" stroke-width="3" stroke-linecap="round"/>
</svg>
