<svg width="700" height="900" viewBox="0 0 700 900" fill="none" xmlns="http://www.w3.org/2000/svg">
<path d="M130.091 424.688C122.192 459.348 126.331 495.276 137.369 521.45C148.407 547.623 164.094 568.738 178.915 580.788C193.737 592.837 217.855 605.01 241.157 611.513C264.46 618.016 304.319 616.853 320.569 618.016C336.82 619.179 395.229 623.106 417.765 619.179C440.301 615.252 474.948 609.075 492.885 599.32C510.822 589.566 536.117 573.96 550.375 553.151C564.632 532.342 576.59 498.04 574.597 465.201C572.604 432.362 571.224 399.36 546.777 364.812C534.046 346.819 516.341 332.379 502.297 322.67C489.373 313.736 479.547 308.809 479.547 308.809C479.547 308.809 444.318 293.305 398.39 285.045C382.694 282.222 365.748 280.245 348.532 280.022C329.764 279.78 312.562 281.528 297.501 284.179C258.322 291.078 233.645 304.095 233.645 304.095C233.645 304.095 215.37 313.069 197.198 325.389C187.407 332.028 177.645 339.637 170.79 347.338C151.211 369.329 137.991 390.029 130.091 424.688Z" fill="white" stroke="white" stroke-width="3" stroke-linecap="round"/>
<path d="M203.878 471.344C198.105 470.787 188.327 472.097 184.804 474.339C181.281 476.58 179.693 482.926 181.27 487.603C182.848 492.281 193.269 495.403 197.831 496.359C202.392 497.315 224.862 500.391 229.581 499.224C234.3 498.056 240.312 493.688 239.901 488.814C239.489 483.94 233.383 478.692 230.036 477.212C226.688 475.733 209.652 471.9 203.878 471.344Z" fill="white"/>
<path d="M200.789 515.385C196.726 515.217 188.607 515.782 183.666 518.795C178.724 521.808 177.705 527.736 179.682 531.863C181.658 535.99 186.6 538.086 191.541 539.56C196.483 541.033 219.969 543.359 223.923 542.573C227.876 541.787 238.5 538.577 237.975 531.863C237.45 525.149 232.262 521.612 228.37 519.712C224.479 517.812 204.853 515.553 200.789 515.385Z" fill="white"/>
<path d="M518.713 506.365C511.733 508.035 508.706 514.193 507.563 517.664C506.42 521.136 505.957 527.948 511.98 529.979C518.003 532.01 537.963 526.519 542.812 523.113C547.661 519.707 552.078 514.728 552.078 510.635C552.078 506.541 550.194 503.2 546.364 501.268C542.534 499.335 525.693 504.695 518.713 506.365Z" fill="white"/>
<path d="M532.114 457.517C525.766 458.396 507.335 461.624 504.915 471.344C502.495 481.064 503.463 485.31 509.753 487.167C516.043 489.023 539.036 483.625 543.899 481.287C548.763 478.949 551.937 475.638 552.427 471.344C552.917 467.049 552.575 461.555 548.789 459.338C545.003 457.121 538.462 456.638 532.114 457.517Z" fill="white"/>
<path d="M394.703 343.841C393.444 343.523 391.935 343.27 390.285 343.072C384.112 342.332 375.968 342.369 371.567 342.667C370.692 342.726 369.559 342.858 368.255 343.059C361.249 344.136 349.295 347.19 345.761 351.539C341.569 356.697 344.614 364.623 351.614 366.636C355.042 367.622 363.074 368.25 371.123 368.556C379.51 368.875 387.915 368.843 391.144 368.501C391.609 368.451 392.084 368.401 392.566 368.35C398.647 367.7 405.885 366.808 408.743 363.971C411.827 360.91 412.223 353.193 408.308 349.754C404.392 346.315 400.675 345.351 394.703 343.841Z" fill="white"/>
<path d="M374.512 307.703C372.242 307.604 366.195 307.598 359.904 307.803C352.823 308.034 345.433 308.532 342.774 309.464C337.751 311.226 336.288 314.12 336.367 318.439C336.446 322.759 343.96 327.036 347.994 327.791C350.162 328.197 357.773 328.687 365.541 329.028C372.228 329.322 379.031 329.504 382.58 329.427C384.306 329.389 386.192 329.326 388.123 329.231C394.778 328.904 401.958 328.201 404.885 326.869C408.662 325.149 409.671 320.368 407.574 317.013C405.478 313.658 398.993 310.89 393.851 309.464C391.325 308.764 387.777 308.377 384.249 308.14C380.597 307.895 376.966 307.81 374.512 307.703Z" fill="white"/>
<path d="M371.567 342.667C375.968 342.369 384.112 342.332 390.285 343.072C389.987 340.574 389.676 338.293 389.356 336.368C388.996 334.212 388.572 331.765 388.123 329.231C386.192 329.326 384.306 329.389 382.58 329.427C379.031 329.504 372.228 329.322 365.541 329.028C366.21 332.032 366.792 334.804 367.283 337.142C367.587 338.593 367.916 340.636 368.255 343.059C369.559 342.858 370.692 342.726 371.567 342.667Z" fill="white"/>
<path d="M359.904 307.803C366.195 307.598 372.242 307.604 374.512 307.703C376.966 307.81 380.597 307.895 384.249 308.14C384.195 307.855 384.166 307.703 384.166 307.703C384.166 307.703 382.15 300.388 379.604 293.322C377.058 286.256 374.512 281.864 374.512 281.864L345.761 280.591C345.761 280.591 352.415 290.038 357.067 300.388C358.064 302.607 359.011 305.124 359.904 307.803Z" fill="white"/>
<path d="M391.144 368.501C387.915 368.843 379.51 368.875 371.123 368.556C371.872 376.204 372.39 382.118 372.39 382.118C372.39 382.118 374.481 393.131 384.166 393.895C393.851 394.659 393.734 385.794 393.187 377.379C393.042 375.156 392.831 371.996 392.566 368.35C392.084 368.401 391.609 368.451 391.144 368.501Z" fill="white"/>
<path d="M390.285 343.072C384.112 342.332 375.968 342.369 371.567 342.667C370.692 342.726 369.559 342.858 368.255 343.059M390.285 343.072C389.987 340.574 389.676 338.293 389.356 336.368C388.996 334.212 388.572 331.765 388.123 329.231M390.285 343.072C391.935 343.27 393.444 343.523 394.703 343.841C400.675 345.351 404.392 346.315 408.308 349.754C412.223 353.193 411.827 360.91 408.743 363.971C405.885 366.808 398.647 367.7 392.566 368.35M390.285 343.072C391.21 350.828 392.008 360.666 392.566 368.35M388.123 329.231C386.192 329.326 384.306 329.389 382.58 329.427C379.031 329.504 372.228 329.322 365.541 329.028M388.123 329.231C394.778 328.904 401.958 328.201 404.885 326.869C408.662 325.149 409.671 320.368 407.574 317.013C405.478 313.658 398.993 310.89 393.851 309.464C391.325 308.764 387.777 308.377 384.249 308.14M388.123 329.231C386.544 320.314 384.662 310.325 384.249 308.14M365.541 329.028C366.21 332.032 366.792 334.804 367.283 337.142C367.587 338.593 367.916 340.636 368.255 343.059M365.541 329.028C357.773 328.687 350.162 328.197 347.994 327.791C343.96 327.036 336.446 322.759 336.367 318.439C336.288 314.12 337.751 311.226 342.774 309.464C345.433 308.532 352.823 308.034 359.904 307.803M365.541 329.028C364.06 322.37 362.157 314.569 359.904 307.803M368.255 343.059C361.249 344.136 349.295 347.19 345.761 351.539C341.569 356.697 344.614 364.623 351.614 366.636C355.042 367.622 363.074 368.25 371.123 368.556M368.255 343.059C369.241 350.093 370.316 360.328 371.123 368.556M359.904 307.803C366.195 307.598 372.242 307.604 374.512 307.703C376.966 307.81 380.597 307.895 384.249 308.14M359.904 307.803C359.011 305.124 358.064 302.607 357.067 300.388C352.415 290.038 345.761 280.591 345.761 280.591L374.512 281.864C374.512 281.864 377.058 286.256 379.604 293.322C382.15 300.388 384.166 307.703 384.166 307.703C384.166 307.703 384.195 307.855 384.249 308.14M371.123 368.556C379.51 368.875 387.915 368.843 391.144 368.501C391.609 368.451 392.084 368.401 392.566 368.35M371.123 368.556C371.872 376.204 372.39 382.118 372.39 382.118C372.39 382.118 374.481 393.131 384.166 393.895C393.851 394.659 393.734 385.794 393.187 377.379C393.042 375.156 392.831 371.996 392.566 368.35M203.878 471.344C198.105 470.787 188.327 472.097 184.804 474.339C181.281 476.58 179.693 482.926 181.27 487.603C182.848 492.281 193.269 495.403 197.831 496.359C202.392 497.315 224.862 500.391 229.581 499.224C234.3 498.056 240.312 493.688 239.901 488.814C239.489 483.94 233.383 478.692 230.036 477.212C226.688 475.733 209.652 471.9 203.878 471.344ZM200.789 515.385C196.726 515.217 188.607 515.782 183.666 518.795C178.724 521.808 177.705 527.736 179.682 531.863C181.658 535.99 186.6 538.086 191.541 539.56C196.483 541.033 219.969 543.359 223.923 542.573C227.876 541.787 238.5 538.577 237.975 531.863C237.45 525.149 232.262 521.612 228.37 519.712C224.479 517.812 204.853 515.553 200.789 515.385ZM532.114 457.517C525.766 458.396 507.335 461.624 504.915 471.344C502.495 481.064 503.463 485.31 509.753 487.167C516.043 489.023 539.036 483.625 543.899 481.287C548.763 478.949 551.937 475.638 552.427 471.344C552.917 467.049 552.575 461.555 548.789 459.338C545.003 457.121 538.462 456.638 532.114 457.517ZM518.713 506.365C511.733 508.035 508.706 514.193 507.563 517.664C506.42 521.136 505.957 527.948 511.98 529.979C518.002 532.01 537.963 526.519 542.812 523.113C547.661 519.707 552.078 514.728 552.078 510.635C552.078 506.541 550.194 503.2 546.364 501.268C542.534 499.335 525.693 504.695 518.713 506.365Z" stroke="white" stroke-width="3" stroke-linecap="round"/>
</svg>
