<svg width="700" height="900" viewBox="0 0 700 900" fill="none" xmlns="http://www.w3.org/2000/svg">
<path d="M230.569 320.742C210.578 343.354 208.571 369.1 206.844 385.28C206.844 385.28 252.203 383.28 279.745 396.006C292.874 402.073 316.013 412.55 328.012 419.912C340.011 427.275 359.405 441.222 361.735 441.365C363.919 441.498 376.36 428.082 389.732 417.004C403.64 405.482 405.73 405.095 418.456 396.279C431.182 387.462 450.18 376.827 462.996 371.827C475.813 366.828 487.486 365.637 487.486 365.637C485.801 357.782 483.597 350.743 481.267 345.739C475.359 333.053 466.123 314.145 451.18 301.472C436.237 288.798 421.256 281.645 407.821 278.02C407.821 278.02 395.522 275.68 384.278 272.748C374.461 271.202 356.827 271.111 346.192 271.202C335.557 271.293 318.104 271.657 301.924 275.02C298.093 275.403 287.108 278.292 273.564 285.382C260.02 292.472 250.56 298.13 230.569 320.742Z" fill="#383838"/>
<path d="M231.023 511.993C240.295 529.445 266.546 542.333 277.018 545.534C287.49 548.736 318.559 549.502 318.559 549.502C318.559 549.502 354.337 550.742 372.371 549.502C390.404 548.261 425.708 539.482 425.708 539.482C425.708 539.482 446.907 533.354 463.633 522.083C480.358 510.811 484.515 497.998 486.267 485.814C488.018 473.63 484.63 462.744 481.904 456.454C479.177 450.163 479.176 444.001 482.449 437.092C485.721 430.184 488.084 422.185 490.175 403.187C491.441 391.683 490.074 377.697 487.486 365.637C487.486 365.637 475.813 366.828 462.996 371.827C450.18 376.827 431.182 387.462 418.456 396.279C405.73 405.095 403.64 405.482 389.732 417.004C376.36 428.082 363.919 441.498 361.735 441.365C359.405 441.222 340.011 427.275 328.012 419.912C316.013 412.55 292.874 402.073 279.745 396.006C252.203 383.28 206.844 385.28 206.844 385.28C206.078 392.459 207.481 416.822 211.662 434.729C215.843 452.636 229.857 465.271 228.842 474.724C227.826 484.178 221.752 494.54 231.023 511.993Z" fill="white"/>
<path d="M206.844 385.28L205.353 385.121L206.844 385.28ZM481.267 345.739L482.627 345.106L482.627 345.106L481.267 345.739ZM490.175 403.187L488.684 403.023L490.175 403.187ZM425.708 539.482L426.07 540.938L426.097 540.931L426.124 540.923L425.708 539.482ZM318.559 549.502L318.611 548.003L318.603 548.002L318.596 548.002L318.559 549.502ZM301.924 275.02L302.073 276.513L302.152 276.505L302.229 276.489L301.924 275.02ZM407.821 278.02L408.212 276.571L408.157 276.557L408.101 276.546L407.821 278.02ZM384.278 272.748L384.657 271.296L384.585 271.277L384.512 271.266L384.278 272.748ZM279.745 396.006L279.116 397.368L279.745 396.006ZM361.735 441.365L361.644 442.862L361.735 441.365ZM487.486 365.637L488.953 365.323L487.486 365.637ZM389.732 417.004L390.689 418.159L390.689 418.159L389.732 417.004ZM277.456 544.1C272.368 542.544 263.311 538.585 254.382 532.846C245.43 527.093 236.805 519.678 232.348 511.289L229.699 512.697C234.514 521.76 243.65 529.515 252.76 535.37C261.892 541.238 271.197 545.323 276.579 546.969L277.456 544.1ZM232.348 511.289C223.363 494.376 229.263 484.849 230.333 474.885L227.35 474.564C226.39 483.507 220.14 494.704 229.699 512.697L232.348 511.289ZM208.336 385.439C210.067 369.221 212.057 343.945 231.693 321.735L229.445 319.748C209.098 342.763 207.076 368.979 205.353 385.121L208.336 385.439ZM231.693 321.735C241.655 310.467 248.95 303.473 255.408 298.423C261.856 293.381 267.51 290.245 274.26 286.711L272.868 284.053C266.074 287.61 260.226 290.847 253.56 296.06C246.904 301.264 239.474 308.405 229.445 319.748L231.693 321.735ZM450.209 302.616C464.871 315.051 473.991 333.668 479.907 346.372L482.627 345.106C476.727 332.437 467.374 313.239 452.15 300.328L450.209 302.616ZM488.684 403.023C486.602 421.945 484.264 429.757 481.093 436.45L483.804 437.734C487.178 430.611 489.567 422.425 491.666 403.351L488.684 403.023ZM481.093 436.45C477.64 443.74 477.625 450.354 480.528 457.05L483.28 455.857C480.73 449.972 480.713 444.261 483.804 437.734L481.093 436.45ZM480.528 457.05C483.196 463.206 486.478 473.797 484.782 485.601L487.751 486.027C489.557 473.463 486.065 462.283 483.28 455.857L480.528 457.05ZM484.782 485.601C483.919 491.601 482.478 497.655 479.248 503.572C476.025 509.477 470.976 515.325 462.794 520.839L464.471 523.326C473.014 517.569 478.407 511.374 481.882 505.009C485.35 498.655 486.863 492.21 487.751 486.027L484.782 485.601ZM462.794 520.839C454.556 526.39 445.185 530.694 437.844 533.616C434.179 535.074 431.034 536.183 428.807 536.926C427.694 537.297 426.811 537.578 426.208 537.764C425.907 537.857 425.675 537.927 425.52 537.974C425.443 537.997 425.385 538.014 425.346 538.025C425.327 538.031 425.313 538.035 425.304 538.038C425.299 538.039 425.296 538.04 425.294 538.041C425.293 538.041 425.292 538.041 425.292 538.041C425.291 538.041 425.291 538.041 425.291 538.041C425.291 538.041 425.291 538.041 425.708 539.482C426.124 540.923 426.125 540.923 426.125 540.923C426.125 540.923 426.126 540.923 426.126 540.923C426.127 540.923 426.128 540.922 426.13 540.922C426.133 540.921 426.137 540.92 426.143 540.918C426.154 540.915 426.171 540.91 426.192 540.904C426.235 540.891 426.298 540.872 426.38 540.848C426.544 540.799 426.784 540.726 427.095 540.63C427.717 540.437 428.621 540.151 429.757 539.772C432.027 539.014 435.227 537.886 438.953 536.403C446.393 533.442 455.984 529.046 464.471 523.326L462.794 520.839ZM425.708 539.482C425.346 538.027 425.346 538.027 425.346 538.027C425.345 538.027 425.345 538.027 425.345 538.027C425.344 538.027 425.342 538.028 425.34 538.028C425.336 538.029 425.33 538.031 425.321 538.033C425.305 538.037 425.279 538.043 425.246 538.051C425.179 538.068 425.08 538.092 424.949 538.125C424.688 538.189 424.301 538.283 423.802 538.404C422.805 538.646 421.359 538.993 419.567 539.413C415.983 540.254 411.018 541.387 405.491 542.56C394.407 544.91 381.167 547.393 372.268 548.005L372.474 550.998C381.608 550.37 395.036 547.843 406.113 545.494C411.666 544.317 416.654 543.178 420.253 542.334C422.052 541.912 423.505 541.563 424.509 541.32C425.011 541.198 425.4 541.103 425.665 541.038C425.797 541.006 425.898 540.981 425.966 540.964C426 540.955 426.026 540.949 426.043 540.945C426.052 540.943 426.059 540.941 426.063 540.94C426.065 540.939 426.067 540.939 426.068 540.939C426.069 540.938 426.069 540.938 426.069 540.938C426.07 540.938 426.07 540.938 425.708 539.482ZM372.268 548.005C363.319 548.621 349.923 548.622 338.723 548.467C333.131 548.39 328.102 548.274 324.471 548.177C322.655 548.128 321.189 548.085 320.178 548.053C319.672 548.038 319.28 548.025 319.014 548.016C318.881 548.012 318.78 548.008 318.713 548.006C318.679 548.005 318.653 548.004 318.636 548.004C318.627 548.003 318.621 548.003 318.617 548.003C318.615 548.003 318.613 548.003 318.612 548.003C318.612 548.003 318.611 548.003 318.611 548.003C318.611 548.003 318.611 548.003 318.559 549.502C318.507 551.001 318.507 551.001 318.507 551.001C318.507 551.001 318.508 551.001 318.508 551.001C318.51 551.001 318.511 551.001 318.513 551.001C318.518 551.001 318.525 551.001 318.533 551.002C318.551 551.002 318.577 551.003 318.611 551.004C318.68 551.007 318.782 551.01 318.915 551.015C319.183 551.023 319.577 551.036 320.085 551.052C321.1 551.083 322.57 551.127 324.391 551.176C328.031 551.273 333.074 551.389 338.681 551.467C349.879 551.622 363.388 551.623 372.474 550.998L372.268 548.005ZM318.559 549.502C318.596 548.002 318.596 548.002 318.595 548.002C318.595 548.002 318.595 548.002 318.594 548.002C318.594 548.002 318.592 548.002 318.59 548.002C318.587 548.002 318.581 548.002 318.574 548.002C318.56 548.001 318.538 548.001 318.508 548C318.45 547.998 318.363 547.996 318.249 547.993C318.02 547.987 317.683 547.977 317.25 547.963C316.384 547.936 315.133 547.894 313.6 547.833C310.532 547.712 306.335 547.516 301.813 547.222C292.693 546.627 282.494 545.64 277.456 544.1L276.579 546.969C282.014 548.63 292.585 549.626 301.618 550.215C306.172 550.512 310.396 550.709 313.481 550.831C315.024 550.892 316.283 550.935 317.156 550.962C317.593 550.976 317.934 550.985 318.165 550.992C318.281 550.995 318.37 550.997 318.43 550.999C318.46 551 318.483 551 318.498 551.001C318.506 551.001 318.511 551.001 318.515 551.001C318.517 551.001 318.519 551.001 318.52 551.001C318.52 551.001 318.521 551.001 318.521 551.001C318.521 551.001 318.522 551.001 318.559 549.502ZM274.26 286.711C287.7 279.675 298.496 276.87 302.073 276.513L301.775 273.527C297.69 273.935 286.515 276.909 272.868 284.053L274.26 286.711ZM302.229 276.489C318.252 273.158 335.574 272.793 346.205 272.702L346.179 269.702C335.54 269.793 317.957 270.155 301.619 273.551L302.229 276.489ZM407.43 279.468C420.653 283.035 435.435 290.085 450.209 302.616L452.15 300.328C437.038 287.511 421.859 280.254 408.212 276.571L407.43 279.468ZM346.205 272.702C356.871 272.611 374.374 272.707 384.045 274.229L384.512 271.266C374.549 269.697 356.783 269.612 346.179 269.702L346.205 272.702ZM383.9 274.199C389.553 275.674 395.463 276.997 399.954 277.951C402.202 278.428 404.096 278.813 405.43 279.079C406.097 279.212 406.624 279.316 406.984 279.386C407.164 279.421 407.303 279.448 407.397 279.466C407.444 279.475 407.48 279.481 407.504 279.486C407.516 279.488 407.525 279.49 407.531 279.491C407.534 279.492 407.537 279.492 407.538 279.493C407.539 279.493 407.54 279.493 407.54 279.493C407.54 279.493 407.54 279.493 407.541 279.493C407.541 279.493 407.541 279.493 407.821 278.02C408.101 276.546 408.101 276.546 408.101 276.546C408.101 276.546 408.101 276.546 408.101 276.546C408.101 276.546 408.1 276.546 408.099 276.546C408.098 276.545 408.096 276.545 408.093 276.544C408.087 276.543 408.079 276.542 408.067 276.539C408.044 276.535 408.009 276.528 407.963 276.52C407.872 276.502 407.735 276.476 407.557 276.441C407.201 276.372 406.679 276.269 406.017 276.137C404.693 275.873 402.811 275.49 400.578 275.016C396.109 274.067 390.248 272.754 384.657 271.296L383.9 274.199ZM230.333 474.885C230.629 472.134 229.822 469.282 228.545 466.398C227.266 463.507 225.428 460.401 223.491 457.132C219.576 450.527 215.153 443.082 213.123 434.388L210.201 435.07C212.352 444.283 217.026 452.109 220.91 458.662C222.872 461.971 224.609 464.916 225.802 467.612C226.998 470.315 227.563 472.588 227.35 474.564L230.333 474.885ZM213.123 434.388C211.054 425.529 209.666 415.04 208.892 405.856C208.116 396.638 207.969 388.876 208.336 385.439L205.353 385.121C204.953 388.863 205.125 396.872 205.903 406.107C206.684 415.376 208.088 426.021 210.201 435.07L213.123 434.388ZM206.844 385.28C206.91 386.779 206.91 386.779 206.91 386.779C206.911 386.779 206.911 386.779 206.912 386.779C206.913 386.779 206.914 386.778 206.917 386.778C206.922 386.778 206.929 386.778 206.94 386.777C206.96 386.777 206.992 386.775 207.034 386.774C207.118 386.77 207.245 386.766 207.412 386.76C207.745 386.749 208.24 386.733 208.882 386.719C210.164 386.689 212.031 386.661 214.358 386.666C219.014 386.678 225.508 386.825 232.856 387.367C247.596 388.455 265.599 391.122 279.116 397.368L280.374 394.644C266.349 388.164 247.901 385.469 233.077 384.375C225.642 383.826 219.075 383.678 214.366 383.667C212.01 383.661 210.118 383.689 208.813 383.719C208.16 383.734 207.654 383.75 207.309 383.762C207.137 383.767 207.006 383.772 206.917 383.776C206.872 383.778 206.838 383.779 206.815 383.78C206.803 383.781 206.794 383.781 206.788 383.781C206.785 383.781 206.783 383.781 206.781 383.781C206.78 383.781 206.78 383.782 206.779 383.782C206.779 383.782 206.778 383.782 206.844 385.28ZM479.907 346.372C482.174 351.241 484.348 358.162 486.019 365.952L488.953 365.323C487.253 357.401 485.02 350.246 482.627 345.106L479.907 346.372ZM486.019 365.952C488.586 377.914 489.927 391.73 488.684 403.023L491.666 403.351C492.955 391.636 491.561 377.48 488.953 365.323L486.019 365.952ZM419.31 397.512C431.968 388.742 450.861 378.171 463.542 373.225L462.451 370.43C449.498 375.482 430.396 386.181 417.602 395.046L419.31 397.512ZM463.542 373.225C469.849 370.764 475.885 369.238 480.347 368.327C482.577 367.872 484.409 367.572 485.679 367.386C486.315 367.292 486.809 367.228 487.143 367.187C487.309 367.167 487.436 367.152 487.519 367.143C487.561 367.138 487.592 367.134 487.612 367.132C487.622 367.131 487.629 367.131 487.633 367.13C487.636 367.13 487.637 367.13 487.638 367.13C487.638 367.13 487.639 367.13 487.639 367.13C487.639 367.13 487.639 367.13 487.639 367.13C487.638 367.13 487.638 367.13 487.486 365.637C487.334 364.145 487.334 364.145 487.333 364.145C487.333 364.145 487.333 364.145 487.332 364.145C487.332 364.145 487.331 364.145 487.33 364.145C487.328 364.146 487.325 364.146 487.322 364.146C487.315 364.147 487.305 364.148 487.293 364.149C487.268 364.152 487.232 364.156 487.185 364.161C487.091 364.172 486.954 364.188 486.776 364.209C486.421 364.253 485.904 364.321 485.244 364.417C483.926 364.61 482.038 364.92 479.748 365.388C475.17 366.322 468.961 367.891 462.451 370.43L463.542 373.225ZM279.116 397.368C292.298 403.459 315.326 413.887 327.228 421.191L328.797 418.634C316.701 411.212 293.451 400.687 280.374 394.644L279.116 397.368ZM327.228 421.191C333.195 424.853 341.006 430.155 347.667 434.594C350.986 436.806 354.024 438.806 356.381 440.264C357.558 440.991 358.588 441.598 359.41 442.031C359.82 442.247 360.201 442.432 360.536 442.569C360.83 442.689 361.236 442.837 361.644 442.862L361.827 439.867C361.944 439.874 361.925 439.896 361.673 439.793C361.462 439.707 361.176 439.57 360.809 439.377C360.077 438.991 359.116 438.427 357.959 437.712C355.65 436.284 352.652 434.311 349.331 432.098C342.713 427.687 334.827 422.335 328.797 418.634L327.228 421.191ZM361.644 442.862C362.137 442.892 362.576 442.735 362.863 442.609C363.183 442.469 363.513 442.278 363.837 442.066C364.488 441.642 365.259 441.04 366.115 440.321C367.833 438.879 370.04 436.841 372.562 434.485C377.63 429.75 384.045 423.663 390.689 418.159L388.775 415.849C382.046 421.423 375.555 427.583 370.514 432.292C367.981 434.658 365.833 436.641 364.186 438.024C363.36 438.717 362.696 439.228 362.197 439.555C361.946 439.719 361.771 439.813 361.662 439.86C361.521 439.922 361.607 439.854 361.827 439.867L361.644 442.862ZM390.689 418.159C404.532 406.692 406.496 406.39 419.31 397.512L417.602 395.046C404.964 403.801 402.749 404.272 388.775 415.849L390.689 418.159Z" fill="black"/>
</svg>
