<svg width="701" height="900" viewBox="0 0 701 900" fill="none" xmlns="http://www.w3.org/2000/svg">
<path d="M167.35 389.772C160.957 417.823 164.307 446.9 173.24 468.083C182.174 489.266 194.869 506.354 206.864 516.106C218.86 525.858 238.379 535.71 257.238 540.973C276.097 546.236 308.356 545.294 321.508 546.236C334.66 547.177 381.932 550.355 400.17 547.177C418.409 543.999 446.45 538.999 460.966 531.105C475.483 523.211 495.955 510.58 507.494 493.739C519.033 476.898 528.71 449.137 527.097 422.559C525.484 395.982 524.368 369.273 504.582 341.313C494.279 326.751 479.95 315.064 468.583 307.206C458.124 299.976 450.172 295.989 450.172 295.989C450.172 295.989 421.66 283.44 384.489 276.756C371.786 274.471 358.072 272.871 344.139 272.691C328.95 272.495 315.027 273.909 302.839 276.055C271.13 281.639 251.158 292.173 251.158 292.173C251.158 292.173 236.368 299.436 221.661 309.407C213.737 314.78 205.837 320.939 200.288 327.171C184.443 344.969 173.743 361.721 167.35 389.772Z" fill="white" stroke="black" stroke-width="3" stroke-linecap="round"/>
<path d="M227.068 427.531C222.395 427.081 214.483 428.141 211.631 429.955C208.78 431.769 207.495 436.905 208.771 440.691C210.048 444.476 218.482 447.003 222.174 447.777C225.866 448.55 244.051 451.04 247.87 450.095C251.689 449.15 256.555 445.615 256.222 441.67C255.889 437.726 250.947 433.478 248.238 432.281C245.529 431.083 231.741 427.982 227.068 427.531Z" fill="black"/>
<path d="M224.568 463.175C221.279 463.039 214.709 463.496 210.71 465.935C206.71 468.373 205.886 473.171 207.485 476.511C209.085 479.851 213.084 481.547 217.084 482.74C221.083 483.933 240.091 485.815 243.29 485.178C246.49 484.542 255.089 481.945 254.664 476.511C254.239 471.077 250.039 468.214 246.89 466.677C243.74 465.139 227.857 463.311 224.568 463.175Z" fill="black"/>
<path d="M481.87 455.875C476.221 457.227 473.771 462.21 472.846 465.02C471.921 467.829 471.547 473.343 476.421 474.986C481.295 476.629 497.45 472.186 501.374 469.429C505.298 466.672 508.873 462.643 508.873 459.33C508.873 456.017 507.348 453.313 504.249 451.749C501.149 450.185 487.519 454.523 481.87 455.875Z" fill="black"/>
<path d="M492.716 416.341C487.578 417.052 472.661 419.665 470.703 427.531C468.745 435.398 469.528 438.835 474.618 440.337C479.709 441.84 498.318 437.471 502.254 435.579C506.19 433.687 508.759 431.007 509.155 427.531C509.552 424.056 509.275 419.61 506.211 417.815C503.147 416.021 497.853 415.63 492.716 416.341Z" fill="black"/>
<path d="M381.506 324.341C380.487 324.083 379.266 323.878 377.931 323.718C372.935 323.12 366.344 323.15 362.782 323.391C362.074 323.439 361.157 323.545 360.102 323.708C354.431 324.58 344.757 327.051 341.897 330.571C338.504 334.746 340.968 341.161 346.634 342.79C349.408 343.588 355.909 344.096 362.422 344.343C369.21 344.601 376.012 344.576 378.626 344.298C379.002 344.258 379.387 344.218 379.777 344.176C384.699 343.651 390.556 342.928 392.869 340.633C395.365 338.155 395.686 331.91 392.517 329.127C389.348 326.343 386.339 325.563 381.506 324.341Z" fill="black"/>
<path d="M365.165 295.094C363.328 295.014 358.434 295.009 353.343 295.175C347.612 295.362 341.631 295.764 339.479 296.519C335.414 297.945 334.23 300.287 334.294 303.783C334.358 307.279 340.439 310.741 343.704 311.352C345.458 311.68 351.618 312.077 357.905 312.353C363.317 312.59 368.823 312.738 371.695 312.675C373.092 312.645 374.619 312.594 376.181 312.517C381.567 312.252 387.378 311.683 389.747 310.605C392.803 309.213 393.62 305.344 391.923 302.629C390.227 299.913 384.978 297.673 380.817 296.519C378.772 295.952 375.901 295.639 373.046 295.447C370.09 295.249 367.152 295.18 365.165 295.094Z" fill="black"/>
<path d="M362.782 323.391C366.344 323.15 372.935 323.12 377.931 323.718C377.69 321.697 377.438 319.851 377.179 318.293C376.888 316.548 376.545 314.567 376.181 312.517C374.619 312.594 373.092 312.645 371.695 312.675C368.823 312.738 363.317 312.59 357.905 312.353C358.446 314.784 358.918 317.027 359.314 318.92C359.56 320.093 359.827 321.747 360.102 323.708C361.157 323.545 362.074 323.439 362.782 323.391Z" fill="black"/>
<path d="M353.343 295.175C358.434 295.009 363.328 295.014 365.165 295.094C367.152 295.18 370.09 295.249 373.046 295.447C373.002 295.217 372.979 295.094 372.979 295.094C372.979 295.094 371.347 289.173 369.287 283.455C367.226 277.736 365.165 274.182 365.165 274.182L341.897 273.151C341.897 273.151 347.282 280.797 351.047 289.173C351.854 290.969 352.62 293.006 353.343 295.175Z" fill="black"/>
<path d="M378.626 344.298C376.012 344.576 369.21 344.601 362.422 344.343C363.029 350.533 363.448 355.32 363.448 355.32C363.448 355.32 365.14 364.232 372.979 364.85C380.817 365.469 380.722 358.294 380.279 351.484C380.162 349.685 379.991 347.127 379.777 344.176C379.387 344.218 379.002 344.258 378.626 344.298Z" fill="black"/>
<path d="M377.931 323.718C372.935 323.12 366.344 323.15 362.782 323.391C362.074 323.439 361.157 323.545 360.102 323.708M377.931 323.718C377.69 321.697 377.438 319.851 377.179 318.293C376.888 316.548 376.545 314.567 376.181 312.517M377.931 323.718C379.266 323.878 380.487 324.083 381.506 324.341C386.339 325.563 389.348 326.343 392.517 329.127C395.686 331.91 395.365 338.155 392.869 340.633C390.556 342.928 384.699 343.651 379.777 344.176M377.931 323.718C378.68 329.996 379.326 337.958 379.777 344.176M376.181 312.517C374.619 312.594 373.092 312.645 371.695 312.675C368.823 312.738 363.317 312.59 357.905 312.353M376.181 312.517C381.567 312.252 387.378 311.683 389.747 310.605C392.803 309.213 393.62 305.344 391.923 302.629C390.227 299.913 384.978 297.673 380.817 296.519C378.772 295.952 375.901 295.639 373.046 295.447M376.181 312.517C374.903 305.3 373.38 297.216 373.046 295.447M357.905 312.353C358.446 314.784 358.918 317.027 359.314 318.92C359.56 320.093 359.827 321.747 360.102 323.708M357.905 312.353C351.618 312.077 345.458 311.68 343.704 311.352C340.439 310.741 334.358 307.279 334.294 303.783C334.23 300.287 335.414 297.945 339.479 296.519C341.631 295.764 347.612 295.362 353.343 295.175M357.905 312.353C356.706 306.964 355.166 300.65 353.343 295.175M360.102 323.708C354.431 324.58 344.757 327.051 341.897 330.571C338.504 334.746 340.968 341.161 346.634 342.79C349.408 343.588 355.909 344.096 362.422 344.343M360.102 323.708C360.9 329.401 361.769 337.684 362.422 344.343M353.343 295.175C358.434 295.009 363.328 295.014 365.165 295.094C367.152 295.18 370.09 295.249 373.046 295.447M353.343 295.175C352.62 293.006 351.854 290.969 351.047 289.173C347.282 280.797 341.897 273.151 341.897 273.151L365.165 274.182C365.165 274.182 367.226 277.736 369.287 283.455C371.347 289.173 372.979 295.094 372.979 295.094C372.979 295.094 373.002 295.217 373.046 295.447M362.422 344.343C369.21 344.601 376.012 344.576 378.626 344.298C379.002 344.258 379.387 344.218 379.777 344.176M362.422 344.343C363.029 350.533 363.448 355.32 363.448 355.32C363.448 355.32 365.14 364.232 372.979 364.85C380.817 365.469 380.722 358.294 380.279 351.484C380.162 349.685 379.991 347.127 379.777 344.176M227.068 427.531C222.395 427.081 214.483 428.141 211.631 429.955C208.78 431.769 207.495 436.905 208.771 440.691C210.048 444.476 218.482 447.003 222.174 447.777C225.866 448.55 244.051 451.04 247.87 450.095C251.689 449.15 256.555 445.615 256.222 441.67C255.889 437.726 250.947 433.478 248.238 432.281C245.529 431.083 231.741 427.982 227.068 427.531ZM224.568 463.175C221.279 463.039 214.709 463.496 210.71 465.935C206.71 468.373 205.886 473.171 207.485 476.511C209.085 479.851 213.084 481.547 217.084 482.74C221.083 483.933 240.091 485.815 243.29 485.178C246.49 484.542 255.089 481.945 254.664 476.511C254.239 471.077 250.039 468.214 246.89 466.677C243.74 465.139 227.857 463.311 224.568 463.175ZM492.716 416.341C487.578 417.052 472.661 419.665 470.703 427.531C468.745 435.398 469.528 438.835 474.618 440.337C479.709 441.84 498.318 437.471 502.254 435.579C506.19 433.687 508.759 431.007 509.155 427.531C509.552 424.056 509.275 419.61 506.211 417.815C503.147 416.021 497.853 415.63 492.716 416.341ZM481.87 455.875C476.221 457.227 473.771 462.21 472.846 465.02C471.921 467.829 471.547 473.343 476.421 474.986C481.295 476.629 497.45 472.186 501.374 469.429C505.298 466.672 508.873 462.643 508.873 459.33C508.873 456.017 507.348 453.313 504.249 451.749C501.149 450.185 487.519 454.523 481.87 455.875Z" stroke="black" stroke-width="3" stroke-linecap="round"/>
</svg>
