<svg width="701" height="900" viewBox="0 0 701 900" fill="none" xmlns="http://www.w3.org/2000/svg">
<path d="M298.255 277.086C299.675 276.624 301.091 276.186 302.499 275.776C307.302 274.378 312.846 273.226 318.849 272.318C318.849 272.318 330.356 269.827 339.758 268.362C349.16 266.896 374.679 264.821 374.679 264.821C374.679 264.821 388.721 262.793 392.995 256.395C397.268 249.998 398.489 243.677 392.262 225.748C386.035 207.818 376.016 202.552 376.016 202.552C369.229 199.213 361.48 197.1 353.092 197.733C335.447 199.064 330.287 200.73 320.798 208.22C311.31 215.711 301.418 228.03 298.255 243.677C295.092 259.325 298.255 277.086 298.255 277.086Z" fill="#DC4A39"/>
<path d="M401.937 274.84C404.083 275.458 406.283 276.138 408.525 276.878C408.525 276.878 411.284 264.55 410.689 251.671C410.619 250.155 410.466 248.624 410.236 247.089C408.514 235.584 402.472 223.828 394.542 216.044C389.826 211.416 383.507 206.238 376.016 202.552C376.016 202.552 386.035 207.818 392.262 225.748C398.489 243.677 397.268 249.998 392.995 256.395C388.721 262.793 374.679 264.821 374.679 264.821C374.679 264.821 349.16 266.896 339.758 268.362C330.356 269.827 318.849 272.318 318.849 272.318C345.802 268.244 382.012 269.108 401.937 274.84Z" fill="#98130C"/>
<path d="M410.689 251.671C411.284 264.55 408.525 276.878 408.525 276.878C413.591 278.553 418.871 280.539 424.225 282.816C424.225 282.816 424.783 278.111 424.659 273.467C424.567 270.016 424.68 266.291 423.296 260.743C422.817 258.825 422.16 256.689 421.253 254.272C417.724 244.86 410.236 247.089 410.236 247.089C410.466 248.624 410.619 250.155 410.689 251.671Z" fill="#971611"/>
<path d="M424.659 273.467C424.783 278.111 424.225 282.816 424.225 282.816C427.345 284.143 430.491 285.57 433.634 287.091C433.634 287.091 433.854 276.582 432.337 269.937C430.819 263.293 423.296 260.743 423.296 260.743C424.68 266.291 424.567 270.016 424.659 273.467Z" fill="#98150A"/>
<path d="M233.19 314.646C219.173 328.663 205.36 346.739 196.349 367.097C187.338 387.455 180.16 420.192 182.83 438.88C185.501 457.569 197.481 489.859 212.866 506.962C228.251 524.064 257.253 536.33 276.609 541.002C295.966 545.675 323.164 550.705 352.054 550.698C376.861 550.692 426.473 543.055 455.847 532.022C477.835 518.058 486.175 501.859 489.731 492.614C493.287 483.368 499.882 467.564 502.015 449.784C504.149 432.005 500.237 402.313 495.792 378.489C491.347 354.664 476.057 316.261 445.581 293.361C441.639 291.122 437.638 289.029 433.634 287.091C430.491 285.57 427.345 284.143 424.225 282.816C418.871 280.539 413.591 278.553 408.525 276.878C406.283 276.138 404.083 275.458 401.937 274.84C382.012 269.108 345.802 268.244 318.849 272.318C312.846 273.226 307.302 274.378 302.499 275.776C301.091 276.186 299.675 276.624 298.255 277.086C273.086 285.278 246.458 301.378 233.19 314.646Z" fill="white"/>
<path d="M468.506 526.318C493.535 512.301 518.376 482.265 524.239 457.569C530.101 432.873 525.474 389.656 512.458 366.629C499.443 343.601 498.963 338.304 478.272 317.612C468.981 308.322 457.556 300.165 445.581 293.361C476.057 316.261 491.347 354.664 495.792 378.489C500.237 402.313 504.149 432.005 502.015 449.784C499.882 467.564 493.287 483.368 489.731 492.614C486.175 501.859 477.835 518.058 455.847 532.022C460.682 530.206 464.968 528.299 468.506 526.318Z" fill="#B7AAA5"/>
<path d="M298.255 277.086C299.675 276.624 301.091 276.186 302.499 275.776C328.864 268.101 377.575 267.832 401.937 274.84C404.083 275.458 406.283 276.138 408.525 276.878M298.255 277.086C273.086 285.278 246.458 301.378 233.19 314.646C219.173 328.663 205.36 346.739 196.349 367.097C187.338 387.455 180.16 420.192 182.83 438.88C185.501 457.569 197.481 489.859 212.866 506.962C228.251 524.064 257.253 536.33 276.609 541.002C295.966 545.675 323.164 550.705 352.054 550.698C380.944 550.691 443.476 540.334 468.506 526.318C493.535 512.301 518.376 482.265 524.239 457.569C530.101 432.873 525.474 389.656 512.458 366.629C499.443 343.601 498.963 338.304 478.272 317.612C465.923 305.264 449.804 294.917 433.634 287.091M298.255 277.086C298.255 277.086 295.092 259.325 298.255 243.677C301.418 228.03 311.31 215.711 320.798 208.22C330.287 200.73 335.447 199.064 353.092 197.733C370.737 196.402 385.553 207.222 394.542 216.044C402.472 223.828 408.514 235.584 410.236 247.089M408.525 276.878C408.525 276.878 411.284 264.55 410.689 251.671C410.619 250.155 410.466 248.624 410.236 247.089M408.525 276.878C413.591 278.553 418.871 280.539 424.225 282.816M410.236 247.089C410.236 247.089 417.724 244.86 421.253 254.272C422.16 256.689 422.817 258.825 423.296 260.743M424.225 282.816C424.225 282.816 424.783 278.111 424.659 273.467C424.567 270.016 424.68 266.291 423.296 260.743M424.225 282.816C427.345 284.143 430.491 285.57 433.634 287.091M423.296 260.743C423.296 260.743 430.819 263.293 432.337 269.937C433.854 276.582 433.634 287.091 433.634 287.091" stroke="black" stroke-width="3" stroke-linecap="round"/>
</svg>
