<svg width="701" height="900" viewBox="0 0 701 900" fill="none" xmlns="http://www.w3.org/2000/svg">
<path fill-rule="evenodd" clip-rule="evenodd" d="M235.497 530.537C250.954 538.341 320.529 550.889 357.617 550.697C394.704 550.505 419.685 548.006 441.208 539.551C462.73 531.096 472.53 525.523 481.946 518.798C491.362 512.072 500.202 506.883 506.543 499.581C512.885 492.279 514.368 490.948 517.656 487.088C520.943 483.229 526.447 475.938 526.447 471.578C526.447 467.218 513.295 469.076 513.295 466.145C513.295 463.215 523.445 457.711 527.877 452.851C532.308 447.99 532.451 441.848 531.665 437.983C530.879 434.118 527.091 430.907 521.658 432.479C516.226 434.052 504.538 441.419 501.716 439.627C498.894 437.835 500.072 428.977 499.5 421.686C498.928 414.395 497.07 385.419 493.145 370.535C489.221 355.651 481.128 337.421 473.509 326.141C465.891 314.86 452.499 300.929 452.499 300.929L429.814 282.185C427.563 290.096 416.735 291.678 416.933 293.846C417.13 296.015 428.525 301.23 430.41 309.551C432.296 317.872 431.665 324.435 427.563 332.287C423.461 340.14 414.589 345.297 411.541 346.82C408.494 348.344 394.525 350.922 387.985 347.64C381.444 344.359 381.539 334.514 380.367 334.28C379.195 334.045 371.46 342.228 364.311 349.739C357.161 357.251 349.309 361.353 338.029 361.235C326.749 361.118 317.197 354.672 312.86 349.739C308.524 344.806 303.953 332.522 304.412 326.108C304.412 326.108 290.593 325.534 286.256 324.34C281.92 323.146 274.864 320.709 270.669 308.613C266.474 296.518 274.795 282.185 274.795 282.185C269.38 286.229 247.052 303.63 247.052 303.63C247.052 303.63 231.295 317.437 225.292 324.34C219.289 331.243 207.433 352.253 202.031 375.664C196.628 399.075 203.832 444.097 202.031 446.798C200.23 449.499 193.627 446.198 188.675 444.247C183.722 442.296 178.921 443.046 177.42 450.85C175.918 458.653 188.132 470.509 187.203 471.71C186.273 472.91 178.62 472.91 177.42 477.862C176.219 482.815 179.82 489.118 188.675 497.522C197.529 505.926 220.039 522.734 235.497 530.537ZM234.103 480.87C238.106 475.509 246.04 472.936 255.903 476.652C265.767 480.369 270.628 488.947 268.698 494.879C266.768 500.812 257.19 503.242 247.112 499.883C237.033 496.523 230.1 486.23 234.103 480.87ZM450.016 489.64C447.001 483.332 451.635 474.568 460.845 470.828C470.055 467.088 479.657 466.865 481.945 474.513C484.234 482.16 479.768 487.519 472.902 491.594C466.036 495.669 453.03 495.948 450.016 489.64Z" fill="#FEF0FE"/>
<path d="M308.173 268.134C311.323 269.469 295.59 266.891 287.78 271.227C279.97 275.564 274.795 282.185 274.795 282.185C274.795 282.185 266.474 296.518 270.669 308.613C274.864 320.709 281.92 323.146 286.256 324.34C290.593 325.534 304.412 326.108 304.412 326.108C303.953 332.522 308.524 344.806 312.86 349.739C317.197 354.672 326.749 361.118 338.029 361.235C349.309 361.353 357.161 357.251 364.311 349.739C371.46 342.228 379.195 334.045 380.367 334.28C381.539 334.514 381.444 344.359 387.985 347.64C394.525 350.922 408.494 348.344 411.541 346.82C414.589 345.297 423.461 340.14 427.563 332.287C431.665 324.435 432.296 317.872 430.41 309.551C428.525 301.23 417.13 296.015 416.933 293.846C416.735 291.678 427.563 290.096 429.814 282.185C432.066 274.273 428.301 264.103 426.074 260.985C426.074 260.985 420.331 252.827 412.948 251.119C405.564 249.412 400.994 249.311 393.61 251.772C393.61 251.772 387.047 257.867 385.289 259.507C383.531 261.148 382.359 243.803 376.734 237.826C371.108 231.849 360.545 226.34 360.545 226.34C360.545 226.34 354.231 224.348 349.309 223.176C344.387 222.004 338.058 222.004 338.058 222.004C338.058 222.004 325.518 222.762 314.18 228.434C302.842 234.105 302.547 251.772 302.547 251.772C302.664 259.507 305.022 266.798 308.173 268.134Z" fill="white"/>
<path d="M460.845 470.828C451.635 474.568 447.001 483.332 450.016 489.64C453.03 495.948 466.036 495.669 472.902 491.594C479.768 487.519 484.234 482.16 481.945 474.513C479.657 466.865 470.055 467.088 460.845 470.828Z" fill="#EC93B4"/>
<path d="M255.903 476.652C246.04 472.936 238.106 475.509 234.103 480.87C230.1 486.23 237.033 496.523 247.112 499.883C257.19 503.242 266.768 500.812 268.698 494.879C270.628 488.947 265.767 480.369 255.903 476.652Z" fill="#EC93B4"/>
<path d="M302.547 251.772L301.047 251.747L301.047 251.771L301.047 251.795L302.547 251.772ZM393.61 251.772L393.136 250.349L392.828 250.452L392.589 250.673L393.61 251.772ZM426.074 260.985L424.847 261.848L424.853 261.856L426.074 260.985ZM304.412 326.108L305.909 326.216L305.927 325.965L305.862 325.723L304.412 326.108ZM247.052 303.63L246.13 302.447L246.096 302.474L246.064 302.502L247.052 303.63ZM338.058 222.004L338.058 220.504L338.013 220.504L337.968 220.507L338.058 222.004ZM360.545 226.34L361.239 225.01L361.122 224.949L360.996 224.91L360.545 226.34ZM452.499 300.929L453.58 299.889L453.521 299.827L453.455 299.772L452.499 300.929ZM357.609 549.197C339.193 549.292 312.627 546.22 288.698 542.137C276.743 540.097 265.474 537.81 256.24 535.549C246.961 533.278 239.867 531.063 236.173 529.198L234.821 531.876C238.855 533.913 246.255 536.194 255.527 538.463C264.845 540.745 276.186 543.045 288.193 545.094C312.187 549.188 338.952 552.294 357.624 552.197L357.609 549.197ZM236.173 529.198C220.863 521.469 198.47 504.751 189.707 496.434L187.642 498.61C196.588 507.1 219.216 523.998 234.821 531.876L236.173 529.198ZM189.707 496.434C185.327 492.276 182.331 488.716 180.578 485.653C178.828 482.593 178.401 480.182 178.877 478.216L175.962 477.509C175.238 480.495 176.011 483.712 177.975 487.143C179.936 490.57 183.169 494.364 187.642 498.61L189.707 496.434ZM178.877 478.216C179.283 476.541 180.805 475.537 182.912 474.794C183.943 474.43 184.93 474.188 185.861 473.924C186.3 473.799 186.752 473.662 187.139 473.501C187.47 473.364 188.015 473.11 188.389 472.628L186.017 470.791C186.158 470.609 186.26 470.618 185.99 470.73C185.776 470.818 185.469 470.917 185.041 471.038C184.238 471.266 183.062 471.559 181.914 471.965C179.662 472.759 176.756 474.232 175.962 477.509L178.877 478.216ZM188.389 472.628C188.886 471.986 188.751 471.269 188.686 471.005C188.604 470.671 188.453 470.349 188.311 470.083C188.02 469.537 187.575 468.876 187.08 468.175C186.045 466.71 184.709 464.953 183.342 462.919C181.988 460.906 180.695 458.752 179.832 456.66C178.959 454.545 178.598 452.665 178.893 451.133L175.947 450.566C175.491 452.936 176.093 455.465 177.059 457.805C178.035 460.168 179.455 462.516 180.852 464.593C182.234 466.648 183.684 468.567 184.63 469.907C185.126 470.608 185.471 471.132 185.664 471.494C185.764 471.682 185.779 471.746 185.773 471.721C185.769 471.705 185.745 471.608 185.756 471.458C185.768 471.298 185.823 471.042 186.017 470.791L188.389 472.628ZM178.893 451.133C179.593 447.492 180.978 445.895 182.378 445.254C183.844 444.582 185.81 444.73 188.125 445.642L189.224 442.851C186.587 441.812 183.676 441.36 181.128 442.526C178.513 443.724 176.747 446.404 175.947 450.566L178.893 451.133ZM188.125 445.642C190.486 446.572 193.532 447.95 196.112 448.706C197.412 449.087 198.748 449.362 199.943 449.312C201.162 449.261 202.464 448.852 203.279 447.63L200.783 445.966C200.697 446.095 200.499 446.286 199.818 446.314C199.114 446.344 198.152 446.178 196.957 445.827C194.547 445.121 191.815 443.872 189.224 442.851L188.125 445.642ZM203.279 447.63C203.48 447.328 203.578 447.002 203.633 446.77C203.694 446.516 203.734 446.238 203.761 445.957C203.816 445.396 203.833 444.701 203.826 443.912C203.812 442.329 203.696 440.219 203.527 437.734C203.186 432.716 202.628 426.175 202.177 418.904C201.275 404.362 200.847 387.464 203.492 376.002L200.569 375.327C197.812 387.275 198.284 404.594 199.183 419.09C199.633 426.338 200.2 433.023 200.534 437.938C200.703 440.419 200.813 442.452 200.826 443.94C200.833 444.686 200.815 445.259 200.775 445.664C200.755 445.868 200.733 445.999 200.715 446.075C200.691 446.173 200.694 446.099 200.783 445.966L203.279 447.63ZM203.492 376.002C208.849 352.79 220.607 332.013 226.424 325.324L224.16 323.356C217.971 330.473 206.018 351.717 200.569 375.327L203.492 376.002ZM288.508 272.539C292.045 270.575 297.571 270.12 302.108 270.055C303.218 270.039 304.247 270.046 305.148 270.056C306.038 270.065 306.832 270.078 307.432 270.071C307.731 270.067 308.014 270.058 308.254 270.038C308.421 270.025 308.803 269.993 309.145 269.837C309.272 269.779 309.881 269.49 310.047 268.74C310.226 267.934 309.731 267.401 309.605 267.276C309.43 267.103 309.243 266.992 309.138 266.934C309.014 266.866 308.883 266.806 308.758 266.753L307.587 269.515C307.621 269.529 307.646 269.541 307.665 269.549C307.683 269.558 307.69 269.562 307.689 269.561C307.689 269.561 307.671 269.552 307.643 269.532C307.617 269.514 307.56 269.473 307.492 269.406C307.422 269.336 306.95 268.853 307.118 268.091C307.275 267.384 307.843 267.133 307.898 267.108C308.095 267.018 308.213 267.032 308.006 267.049C307.872 267.06 307.673 267.068 307.396 267.071C306.841 267.077 306.101 267.066 305.18 267.056C304.271 267.046 303.213 267.039 302.065 267.055C297.571 267.119 291.326 267.543 287.052 269.916L288.508 272.539ZM308.758 266.753C308.344 266.577 307.808 266.133 307.226 265.266C306.656 264.416 306.114 263.268 305.643 261.873C304.703 259.086 304.103 255.486 304.047 251.75L301.047 251.795C301.108 255.793 301.746 259.707 302.801 262.833C303.328 264.394 303.974 265.803 304.735 266.938C305.485 268.055 306.426 269.023 307.587 269.515L308.758 266.753ZM302.547 251.772C304.047 251.797 304.047 251.798 304.047 251.798C304.047 251.798 304.047 251.798 304.047 251.798C304.047 251.798 304.047 251.798 304.047 251.798C304.047 251.797 304.047 251.795 304.047 251.792C304.047 251.786 304.047 251.776 304.048 251.762C304.048 251.733 304.05 251.689 304.052 251.629C304.057 251.509 304.065 251.328 304.079 251.094C304.108 250.624 304.161 249.94 304.26 249.098C304.458 247.411 304.836 245.111 305.552 242.649C307.002 237.663 309.744 232.33 314.851 229.775L313.509 227.092C307.278 230.209 304.203 236.545 302.671 241.811C301.897 244.474 301.492 246.945 301.28 248.748C301.174 249.652 301.116 250.392 301.085 250.911C301.069 251.17 301.06 251.374 301.054 251.516C301.051 251.587 301.05 251.642 301.049 251.681C301.048 251.7 301.048 251.716 301.048 251.727C301.048 251.732 301.047 251.737 301.047 251.74C301.047 251.742 301.047 251.743 301.047 251.745C301.047 251.745 301.047 251.746 301.047 251.746C301.047 251.747 301.047 251.747 302.547 251.772ZM375.641 238.854C376.845 240.133 377.889 242.119 378.794 244.499C379.69 246.854 380.402 249.461 381.006 251.886C381.597 254.258 382.107 256.55 382.564 258.082C382.785 258.821 383.047 259.575 383.385 260.103C383.538 260.34 383.87 260.8 384.457 261.011C385.239 261.293 385.919 260.971 386.312 260.604L384.266 258.411C384.439 258.249 384.904 257.984 385.473 258.189C385.847 258.323 385.968 258.573 385.909 258.481C385.826 258.351 385.663 257.973 385.439 257.223C385.007 255.777 384.542 253.667 383.917 251.16C383.306 248.707 382.56 245.96 381.598 243.433C380.647 240.93 379.434 238.507 377.826 236.798L375.641 238.854ZM394.084 253.195C397.677 251.998 400.514 251.447 403.314 251.382C406.123 251.317 408.973 251.74 412.61 252.581L413.286 249.658C409.539 248.792 406.412 248.31 403.244 248.383C400.067 248.456 396.926 249.086 393.136 250.349L394.084 253.195ZM424.853 261.856C425.819 263.208 427.254 266.332 428.165 270.136C429.072 273.929 429.399 278.164 428.372 281.774L431.257 282.595C432.481 278.294 432.051 273.488 431.082 269.438C430.116 265.4 428.556 261.88 427.295 260.113L424.853 261.856ZM428.372 281.774C427.419 285.122 424.622 287.241 421.723 288.86C421.011 289.258 420.312 289.615 419.648 289.953C418.997 290.284 418.355 290.607 417.808 290.916C417.277 291.215 416.727 291.559 416.306 291.957C415.905 292.337 415.351 293.024 415.439 293.983L418.426 293.71C418.464 294.127 418.206 294.29 418.368 294.137C418.51 294.003 418.791 293.806 419.282 293.529C419.758 293.26 420.33 292.971 421.007 292.627C421.672 292.289 422.417 291.908 423.186 291.479C426.216 289.787 429.958 287.159 431.257 282.595L428.372 281.774ZM415.439 293.983C415.512 294.788 416.032 295.428 416.383 295.813C416.793 296.263 417.332 296.734 417.905 297.204C418.484 297.68 419.161 298.205 419.861 298.754C420.568 299.31 421.316 299.903 422.073 300.539C425.162 303.137 428.123 306.245 428.947 309.882L431.873 309.22C430.812 304.536 427.133 300.875 424.004 298.244C423.207 297.573 422.427 296.954 421.713 296.394C420.992 295.828 420.355 295.334 419.809 294.885C419.256 294.432 418.857 294.074 418.599 293.792C418.282 293.444 418.402 293.447 418.426 293.71L415.439 293.983ZM428.947 309.882C430.759 317.88 430.16 324.077 426.233 331.593L428.892 332.982C433.17 324.794 433.832 317.864 431.873 309.22L428.947 309.882ZM426.233 331.593C424.317 335.262 421.249 338.36 418.226 340.751C415.213 343.134 412.325 344.751 410.871 345.478L412.212 348.162C413.805 347.365 416.877 345.642 420.087 343.104C423.288 340.572 426.707 337.166 428.892 332.982L426.233 331.593ZM410.871 345.478C410.284 345.772 408.992 346.187 407.173 346.588C405.393 346.979 403.22 347.332 400.938 347.538C396.278 347.96 391.523 347.738 388.657 346.3L387.312 348.981C390.987 350.825 396.487 350.954 401.208 350.526C403.617 350.308 405.916 349.936 407.817 349.517C409.678 349.108 411.275 348.63 412.212 348.162L410.871 345.478ZM388.657 346.3C385.944 344.938 384.497 342.155 383.589 339.355C383.138 337.964 382.857 336.694 382.585 335.633C382.457 335.134 382.317 334.623 382.15 334.217C382.067 334.016 381.947 333.76 381.767 333.524C381.597 333.3 381.244 332.926 380.661 332.809L380.073 335.751C379.636 335.663 379.42 335.393 379.38 335.341C379.331 335.277 379.335 335.26 379.375 335.356C379.452 335.546 379.548 335.869 379.679 336.377C379.923 337.33 380.246 338.77 380.735 340.28C381.708 343.281 383.484 347.061 387.312 348.981L388.657 346.3ZM380.661 332.809C380.152 332.707 379.716 332.859 379.517 332.939C379.27 333.037 379.034 333.172 378.825 333.305C378.403 333.575 377.917 333.956 377.397 334.397C376.35 335.288 375.016 336.557 373.523 338.041C370.53 341.015 366.791 344.957 363.224 348.705L365.397 350.774C368.979 347.011 372.682 343.106 375.637 340.169C377.118 338.698 378.385 337.496 379.34 336.683C379.823 336.273 380.189 335.994 380.442 335.832C380.57 335.75 380.628 335.726 380.627 335.726C380.624 335.727 380.58 335.745 380.503 335.759C380.43 335.772 380.274 335.791 380.073 335.751L380.661 332.809ZM363.224 348.705C356.317 355.962 348.848 359.848 338.045 359.736L338.014 362.735C349.77 362.858 358.006 358.539 365.397 350.774L363.224 348.705ZM338.045 359.736C327.288 359.624 318.114 353.443 313.987 348.749L311.734 350.73C316.28 355.901 326.211 362.613 338.014 362.735L338.045 359.736ZM313.987 348.749C311.998 346.486 309.849 342.383 308.248 337.968C306.644 333.54 305.702 329.105 305.909 326.216L302.916 326.001C302.664 329.526 303.778 334.439 305.428 338.99C307.082 343.554 309.387 348.06 311.734 350.73L313.987 348.749ZM304.412 326.108C305.862 325.723 305.862 325.724 305.863 325.725C305.863 325.726 305.863 325.727 305.863 325.728C305.864 325.729 305.864 325.731 305.864 325.732C305.865 325.735 305.866 325.737 305.866 325.739C305.867 325.743 305.868 325.746 305.868 325.747C305.869 325.75 305.868 325.748 305.867 325.74C305.864 325.725 305.857 325.69 305.849 325.634C305.832 325.522 305.81 325.327 305.804 325.053C305.79 324.505 305.837 323.629 306.111 322.441C306.657 320.068 308.121 316.405 311.894 311.595L309.534 309.744C305.535 314.842 303.848 318.898 303.187 321.768C302.857 323.201 302.785 324.327 302.805 325.126C302.814 325.525 302.847 325.84 302.88 326.069C302.897 326.184 302.914 326.277 302.929 326.347C302.936 326.383 302.943 326.413 302.949 326.437C302.952 326.449 302.954 326.46 302.957 326.47C302.958 326.474 302.959 326.479 302.96 326.483C302.96 326.485 302.961 326.487 302.961 326.489C302.962 326.489 302.962 326.491 302.962 326.491C302.962 326.493 302.963 326.494 304.412 326.108ZM311.894 311.595C315.564 306.916 321.211 303.477 326.341 301.081C331.518 298.662 335.774 297.461 337.098 296.942L336.003 294.149C335.084 294.509 330.308 295.916 325.071 298.363C319.786 300.831 313.636 304.514 309.534 309.744L311.894 311.595ZM274.795 282.185C273.498 281.432 273.497 281.432 273.497 281.433C273.497 281.433 273.497 281.433 273.496 281.434C273.496 281.435 273.495 281.436 273.494 281.437C273.493 281.44 273.491 281.444 273.488 281.448C273.483 281.457 273.476 281.469 273.467 281.485C273.449 281.517 273.423 281.562 273.391 281.621C273.326 281.737 273.234 281.907 273.119 282.124C272.889 282.559 272.57 283.188 272.201 283.98C271.464 285.56 270.527 287.796 269.724 290.425C268.132 295.641 267.001 302.616 269.252 309.105L272.086 308.122C270.142 302.516 271.074 296.276 272.593 291.301C273.346 288.836 274.227 286.733 274.92 285.247C275.266 284.505 275.563 283.921 275.772 283.524C275.877 283.326 275.959 283.176 276.014 283.077C276.041 283.027 276.062 282.99 276.075 282.967C276.082 282.955 276.087 282.947 276.09 282.942C276.091 282.94 276.092 282.938 276.092 282.937C276.093 282.937 276.093 282.937 276.093 282.937C276.093 282.937 276.093 282.937 276.093 282.937C276.092 282.938 276.092 282.938 274.795 282.185ZM269.252 309.105C271.429 315.381 274.391 319.264 277.471 321.735C280.542 324.198 283.627 325.172 285.858 325.786L286.655 322.894C284.549 322.314 281.938 321.472 279.348 319.395C276.768 317.325 274.105 313.941 272.086 308.122L269.252 309.105ZM285.858 325.786C288.197 326.43 292.898 326.878 296.851 327.168C298.862 327.315 300.736 327.425 302.106 327.498C302.791 327.534 303.351 327.562 303.74 327.58C303.935 327.589 304.087 327.596 304.19 327.6C304.242 327.602 304.282 327.604 304.309 327.605C304.322 327.606 304.332 327.606 304.339 327.607C304.343 327.607 304.345 327.607 304.347 327.607C304.348 327.607 304.349 327.607 304.349 327.607C304.35 327.607 304.35 327.607 304.35 327.607C304.35 327.607 304.35 327.607 304.412 326.108C304.475 324.61 304.475 324.61 304.475 324.61C304.475 324.61 304.475 324.61 304.474 324.61C304.474 324.61 304.473 324.61 304.473 324.61C304.471 324.61 304.469 324.609 304.466 324.609C304.459 324.609 304.45 324.609 304.437 324.608C304.411 324.607 304.373 324.605 304.322 324.603C304.221 324.599 304.072 324.592 303.88 324.583C303.497 324.565 302.943 324.538 302.265 324.502C300.908 324.43 299.056 324.321 297.07 324.176C293.03 323.88 288.652 323.444 286.655 322.894L285.858 325.786ZM472.266 326.98C479.78 338.106 487.808 356.178 491.695 370.917L494.596 370.152C490.633 355.124 482.475 336.736 474.752 325.301L472.266 326.98ZM491.695 370.917C495.575 385.633 497.426 414.422 498.005 421.803L500.996 421.569C500.431 414.369 498.565 385.204 494.596 370.152L491.695 370.917ZM498.005 421.803C498.143 423.569 498.177 425.445 498.191 427.324C498.205 429.184 498.199 431.071 498.265 432.777C498.331 434.475 498.47 436.103 498.803 437.453C499.124 438.751 499.703 440.125 500.912 440.893L502.52 438.361C502.318 438.233 501.986 437.828 501.716 436.734C501.458 435.691 501.327 434.312 501.263 432.661C501.199 431.017 501.205 429.21 501.191 427.302C501.177 425.414 501.143 423.448 500.996 421.569L498.005 421.803ZM500.912 440.893C501.646 441.36 502.506 441.437 503.243 441.397C504.005 441.355 504.838 441.174 505.681 440.927C507.37 440.431 509.349 439.589 511.334 438.678C513.269 437.79 515.463 436.715 517.279 435.872C519.186 434.987 520.841 434.278 522.075 433.92L521.241 431.039C519.76 431.467 517.916 432.269 516.016 433.151C514.024 434.076 512.101 435.025 510.083 435.952C508.113 436.855 506.302 437.618 504.836 438.048C504.102 438.264 503.516 438.377 503.078 438.401C502.614 438.427 502.491 438.343 502.52 438.361L500.912 440.893ZM522.075 433.92C524.417 433.242 526.273 433.62 527.603 434.46C528.959 435.317 529.878 436.723 530.195 438.282L533.135 437.684C532.666 435.378 531.298 433.246 529.205 431.924C527.086 430.585 524.332 430.144 521.241 431.039L522.075 433.92ZM530.195 438.282C530.927 441.878 530.761 447.461 526.768 451.84L528.985 453.861C533.856 448.519 533.976 441.818 533.135 437.684L530.195 438.282ZM526.768 451.84C524.673 454.139 521.195 456.611 518.017 459.028C516.473 460.201 514.995 461.367 513.899 462.446C513.35 462.986 512.852 463.546 512.482 464.115C512.125 464.665 511.795 465.363 511.795 466.145L514.795 466.145C514.795 466.195 514.783 466.08 514.998 465.749C515.201 465.437 515.53 465.049 516.002 464.585C516.947 463.655 518.284 462.592 519.832 461.416C522.836 459.132 526.65 456.423 528.985 453.861L526.768 451.84ZM511.795 466.145C511.795 467.188 512.422 467.888 513.032 468.292C513.608 468.674 514.322 468.908 514.989 469.073C516.326 469.405 518.103 469.599 519.669 469.812C521.331 470.038 522.802 470.288 523.844 470.698C524.932 471.125 524.947 471.463 524.947 471.578H527.947C527.947 469.513 526.319 468.447 524.941 467.906C523.516 467.346 521.699 467.06 520.073 466.839C518.352 466.605 516.841 466.442 515.712 466.162C515.146 466.021 514.832 465.886 514.689 465.791C514.58 465.719 514.795 465.835 514.795 466.145L511.795 466.145ZM524.947 471.578C524.947 472.383 524.685 473.444 524.152 474.719C523.627 475.975 522.881 477.341 522.014 478.724C520.279 481.49 518.131 484.217 516.514 486.116L518.797 488.061C520.468 486.1 522.716 483.251 524.555 480.318C525.475 478.851 526.31 477.334 526.92 475.877C527.521 474.438 527.947 472.953 527.947 471.578H524.947ZM516.514 486.116C514.889 488.023 513.713 489.302 512.136 491.034C510.556 492.767 508.592 494.935 505.411 498.598L507.676 500.565C510.837 496.925 512.784 494.776 514.353 493.054C515.925 491.33 517.134 490.013 518.797 488.061L516.514 486.116ZM505.411 498.598C499.224 505.722 490.65 510.737 481.075 517.577L482.818 520.018C492.075 513.407 501.18 508.045 507.676 500.565L505.411 498.598ZM481.075 517.577C471.785 524.213 462.101 529.732 440.659 538.155L441.756 540.947C463.359 532.461 473.276 526.834 482.818 520.018L481.075 517.577ZM440.659 538.155C419.411 546.503 394.666 549.005 357.609 549.197L357.624 552.197C394.743 552.004 419.96 549.51 441.756 540.947L440.659 538.155ZM226.424 325.324C229.362 321.945 234.742 316.821 239.439 312.5C241.776 310.349 243.928 308.413 245.495 307.014C246.278 306.315 246.915 305.751 247.356 305.361C247.577 305.166 247.748 305.015 247.864 304.913C247.922 304.862 247.967 304.823 247.996 304.797C248.011 304.784 248.022 304.774 248.03 304.768C248.033 304.765 248.036 304.762 248.038 304.761C248.039 304.76 248.04 304.759 248.04 304.759C248.04 304.759 248.04 304.759 248.04 304.759C248.041 304.758 248.041 304.758 247.052 303.63C246.064 302.502 246.063 302.502 246.063 302.502C246.063 302.502 246.063 302.503 246.063 302.503C246.062 302.503 246.061 302.504 246.06 302.505C246.058 302.507 246.055 302.509 246.052 302.513C246.044 302.519 246.032 302.529 246.017 302.543C245.987 302.569 245.942 302.609 245.883 302.661C245.765 302.764 245.592 302.917 245.37 303.113C244.926 303.505 244.285 304.073 243.497 304.776C241.922 306.182 239.759 308.129 237.407 310.292C232.725 314.601 227.224 319.832 224.16 323.356L226.424 325.324ZM247.052 303.63C247.974 304.813 247.974 304.813 247.974 304.813C247.975 304.813 247.975 304.813 247.975 304.813C247.976 304.812 247.977 304.811 247.978 304.81C247.981 304.808 247.985 304.805 247.99 304.801C248.001 304.792 248.017 304.78 248.038 304.763C248.081 304.73 248.144 304.681 248.226 304.617C248.391 304.489 248.633 304.3 248.944 304.058C249.565 303.574 250.458 302.879 251.547 302.032C253.724 300.338 256.684 298.036 259.812 295.609C266.076 290.749 272.999 285.398 275.692 283.387L273.897 280.983C271.176 283.015 264.227 288.387 257.973 293.239C254.843 295.667 251.882 297.969 249.704 299.664C248.615 300.512 247.722 301.207 247.1 301.691C246.79 301.933 246.547 302.122 246.382 302.251C246.3 302.315 246.237 302.364 246.194 302.397C246.173 302.414 246.157 302.426 246.146 302.434C246.141 302.439 246.137 302.442 246.134 302.444C246.133 302.445 246.132 302.446 246.131 302.446C246.131 302.447 246.13 302.447 246.13 302.447C246.13 302.447 246.13 302.447 247.052 303.63ZM314.851 229.775C320.358 227.021 326.186 225.447 330.661 224.564C332.894 224.123 334.777 223.857 336.097 223.701C336.758 223.623 337.276 223.572 337.627 223.542C337.803 223.527 337.936 223.516 338.024 223.51C338.068 223.507 338.101 223.504 338.122 223.503C338.132 223.502 338.14 223.502 338.144 223.501C338.146 223.501 338.148 223.501 338.149 223.501C338.149 223.501 338.149 223.501 338.149 223.501C338.149 223.501 338.149 223.501 338.149 223.501C338.149 223.501 338.149 223.501 338.058 222.004C337.968 220.507 337.967 220.507 337.967 220.507C337.967 220.507 337.966 220.507 337.966 220.507C337.965 220.507 337.964 220.507 337.963 220.507C337.961 220.507 337.958 220.507 337.954 220.508C337.946 220.508 337.935 220.509 337.922 220.51C337.895 220.511 337.855 220.514 337.805 220.518C337.704 220.525 337.556 220.537 337.367 220.553C336.988 220.586 336.438 220.64 335.746 220.721C334.361 220.885 332.4 221.162 330.08 221.62C325.451 222.534 319.34 224.175 313.509 227.092L314.851 229.775ZM338.058 222.004C338.058 223.504 338.058 223.504 338.058 223.504C338.058 223.504 338.058 223.504 338.058 223.504C338.058 223.504 338.058 223.504 338.058 223.504C338.059 223.504 338.059 223.504 338.061 223.504C338.063 223.504 338.067 223.504 338.072 223.504C338.083 223.504 338.099 223.504 338.121 223.504C338.166 223.504 338.233 223.505 338.321 223.506C338.497 223.508 338.756 223.513 339.083 223.522C339.738 223.54 340.662 223.575 341.738 223.647C343.903 223.791 346.62 224.078 348.962 224.635L349.657 221.717C347.076 221.102 344.167 220.802 341.938 220.654C340.816 220.579 339.851 220.542 339.165 220.523C338.822 220.513 338.548 220.509 338.358 220.506C338.264 220.505 338.19 220.505 338.139 220.504C338.114 220.504 338.094 220.504 338.081 220.504C338.074 220.504 338.069 220.504 338.065 220.504C338.063 220.504 338.061 220.504 338.06 220.504C338.06 220.504 338.059 220.504 338.059 220.504C338.059 220.504 338.059 220.504 338.058 220.504C338.058 220.504 338.058 220.504 338.058 222.004ZM348.962 224.635C351.385 225.212 354.165 225.995 356.35 226.637C357.44 226.957 358.377 227.241 359.042 227.445C359.374 227.547 359.638 227.628 359.818 227.684C359.908 227.713 359.978 227.734 360.024 227.749C360.047 227.756 360.065 227.762 360.077 227.765C360.082 227.767 360.087 227.769 360.09 227.769C360.091 227.77 360.092 227.77 360.093 227.77C360.093 227.771 360.093 227.771 360.093 227.771C360.094 227.771 360.094 227.771 360.094 227.771C360.094 227.771 360.094 227.771 360.545 226.34C360.996 224.91 360.996 224.91 360.996 224.91C360.996 224.91 360.996 224.91 360.996 224.91C360.996 224.91 360.995 224.909 360.995 224.909C360.994 224.909 360.993 224.909 360.991 224.908C360.988 224.907 360.983 224.906 360.977 224.904C360.964 224.9 360.946 224.894 360.922 224.886C360.873 224.871 360.802 224.849 360.71 224.82C360.526 224.763 360.258 224.68 359.921 224.577C359.248 224.37 358.299 224.083 357.196 223.758C354.994 223.111 352.156 222.312 349.657 221.717L348.962 224.635ZM360.545 226.34C359.851 227.67 359.851 227.67 359.851 227.67C359.851 227.67 359.851 227.67 359.851 227.67C359.851 227.67 359.852 227.67 359.852 227.671C359.853 227.671 359.855 227.672 359.857 227.673C359.861 227.675 359.868 227.679 359.877 227.684C359.896 227.693 359.924 227.708 359.962 227.728C360.037 227.768 360.15 227.829 360.296 227.908C360.588 228.066 361.015 228.3 361.545 228.6C362.606 229.2 364.08 230.062 365.725 231.108C369.042 233.215 372.96 236.005 375.641 238.854L377.826 236.798C374.881 233.669 370.705 230.717 367.334 228.575C365.636 227.497 364.117 226.608 363.022 225.989C362.474 225.679 362.031 225.436 361.724 225.269C361.57 225.186 361.451 225.122 361.368 225.079C361.327 225.057 361.296 225.04 361.274 225.029C361.263 225.023 361.255 225.019 361.249 225.015C361.246 225.014 361.243 225.013 361.242 225.012C361.241 225.011 361.24 225.011 361.24 225.011C361.239 225.011 361.239 225.011 361.239 225.01C361.239 225.01 361.239 225.01 360.545 226.34ZM428.859 283.341L451.544 302.085L453.455 299.772L430.77 281.028L428.859 283.341ZM452.499 300.929C451.418 301.968 451.418 301.968 451.418 301.968C451.418 301.968 451.418 301.969 451.418 301.969C451.418 301.969 451.419 301.97 451.42 301.97C451.421 301.972 451.423 301.974 451.426 301.977C451.433 301.984 451.442 301.994 451.454 302.007C451.479 302.033 451.517 302.072 451.566 302.123C451.664 302.227 451.811 302.38 451.999 302.58C452.378 302.98 452.927 303.564 453.611 304.302C454.978 305.776 456.881 307.86 459.02 310.295C463.309 315.175 468.511 321.42 472.266 326.98L474.752 325.301C470.888 319.58 465.585 313.22 461.274 308.314C459.113 305.856 457.192 303.752 455.81 302.262C455.12 301.517 454.563 300.925 454.179 300.519C453.987 300.316 453.838 300.159 453.737 300.053C453.686 300 453.647 299.959 453.621 299.932C453.608 299.918 453.598 299.908 453.591 299.9C453.588 299.897 453.585 299.894 453.583 299.892C453.583 299.891 453.582 299.891 453.581 299.89C453.581 299.89 453.581 299.89 453.581 299.89C453.581 299.889 453.58 299.889 452.499 300.929ZM412.61 252.581C415.912 253.345 418.957 255.593 421.244 257.777C422.371 258.854 423.28 259.882 423.905 260.639C424.217 261.017 424.457 261.325 424.617 261.536C424.697 261.642 424.757 261.723 424.796 261.776C424.815 261.803 424.829 261.823 424.838 261.835C424.842 261.841 424.845 261.845 424.847 261.847C424.848 261.848 424.848 261.849 424.848 261.849C424.848 261.849 424.848 261.849 424.848 261.849C424.848 261.849 424.848 261.849 424.848 261.849C424.848 261.848 424.847 261.848 426.074 260.985C427.301 260.121 427.3 260.121 427.3 260.121C427.3 260.12 427.3 260.12 427.299 260.12C427.299 260.119 427.298 260.118 427.298 260.117C427.297 260.116 427.295 260.113 427.293 260.11C427.289 260.105 427.284 260.097 427.277 260.088C427.263 260.069 427.244 260.043 427.22 260.009C427.171 259.942 427.1 259.846 427.009 259.725C426.826 259.484 426.56 259.142 426.218 258.728C425.536 257.902 424.547 256.784 423.316 255.608C420.886 253.287 417.367 250.602 413.286 249.658L412.61 252.581ZM386.312 260.604C387.19 259.785 389.269 257.853 391.13 256.123C392.06 255.259 392.935 254.446 393.578 253.849C393.899 253.551 394.163 253.306 394.345 253.136C394.437 253.052 394.508 252.985 394.557 252.94C394.581 252.918 394.599 252.901 394.612 252.889C394.618 252.883 394.623 252.879 394.626 252.876C394.628 252.874 394.629 252.873 394.63 252.873C394.63 252.872 394.63 252.872 394.63 252.872C394.631 252.872 394.631 252.872 394.631 252.872C394.631 252.871 394.631 252.871 393.61 251.772C392.589 250.673 392.589 250.673 392.589 250.673C392.589 250.673 392.589 250.673 392.589 250.673C392.589 250.674 392.589 250.674 392.588 250.674C392.587 250.675 392.586 250.676 392.585 250.678C392.581 250.68 392.577 250.685 392.571 250.691C392.558 250.702 392.54 250.719 392.515 250.742C392.467 250.787 392.395 250.853 392.304 250.938C392.121 251.108 391.858 251.353 391.536 251.651C390.894 252.248 390.018 253.061 389.088 253.926C387.228 255.654 385.146 257.589 384.266 258.411L386.312 260.604ZM274.795 282.185C275.977 283.108 275.977 283.109 275.976 283.109C275.976 283.109 275.976 283.109 275.976 283.109C275.976 283.109 275.976 283.109 275.976 283.109C275.976 283.109 275.977 283.108 275.978 283.107C275.979 283.106 275.982 283.102 275.986 283.097C275.994 283.087 276.007 283.071 276.024 283.049C276.06 283.005 276.115 282.937 276.188 282.848C276.336 282.67 276.558 282.406 276.851 282.075C277.436 281.411 278.299 280.477 279.402 279.41C281.613 277.269 284.754 274.623 288.508 272.539L287.052 269.916C282.995 272.168 279.644 275 277.315 277.254C276.148 278.384 275.23 279.377 274.601 280.09C274.286 280.447 274.043 280.735 273.877 280.936C273.794 281.036 273.73 281.115 273.686 281.17C273.664 281.197 273.646 281.219 273.634 281.234C273.628 281.242 273.623 281.248 273.62 281.252C273.618 281.255 273.617 281.256 273.616 281.258C273.615 281.259 273.614 281.259 273.614 281.26C273.614 281.26 273.614 281.26 273.614 281.26C273.613 281.261 273.613 281.261 274.795 282.185ZM256.432 475.249C246.089 471.351 237.39 473.96 232.901 479.972L235.305 481.767C238.821 477.057 245.99 474.52 255.375 478.056L256.432 475.249ZM232.901 479.972C230.31 483.442 231.477 488.136 234.087 491.971C236.763 495.903 241.283 499.521 246.637 501.306L247.586 498.46C242.862 496.885 238.877 493.677 236.567 490.283C234.191 486.791 233.893 483.658 235.305 481.767L232.901 479.972ZM246.637 501.306C251.899 503.06 257.1 503.328 261.309 502.325C265.483 501.329 268.936 498.995 270.124 495.343L267.272 494.415C266.53 496.696 264.229 498.544 260.613 499.407C257.03 500.261 252.403 500.065 247.586 498.46L246.637 501.306ZM270.124 495.343C271.271 491.819 270.352 487.717 267.976 484.11C265.584 480.478 261.641 477.211 256.432 475.249L255.375 478.056C260.03 479.81 263.449 482.691 265.471 485.76C267.509 488.854 268.055 492.007 267.272 494.415L270.124 495.343ZM460.281 469.439C455.386 471.426 451.65 474.771 449.538 478.538C447.43 482.297 446.895 486.588 448.662 490.287L451.369 488.993C450.122 486.384 450.397 483.139 452.154 480.005C453.908 476.878 457.094 473.971 461.409 472.218L460.281 469.439ZM448.662 490.287C450.545 494.227 455.322 495.793 459.945 496.009C464.673 496.229 469.942 495.095 473.668 492.884L472.137 490.304C468.997 492.167 464.33 493.21 460.085 493.012C455.734 492.809 452.501 491.361 451.369 488.993L448.662 490.287ZM473.668 492.884C477.201 490.787 480.272 488.273 482.142 485.166C484.05 481.996 484.647 478.307 483.382 474.083L480.508 474.943C481.533 478.366 481.04 481.18 479.572 483.619C478.065 486.122 475.469 488.326 472.137 490.304L473.668 492.884ZM483.382 474.083C482.721 471.873 481.506 470.172 479.862 468.973C478.235 467.786 476.266 467.147 474.159 466.91C469.976 466.438 465.007 467.519 460.281 469.439L461.409 472.218C465.893 470.397 470.33 469.497 473.823 469.891C475.554 470.086 476.99 470.591 478.094 471.397C479.181 472.19 480.025 473.328 480.508 474.943L483.382 474.083Z" fill="black"/>
</svg>
