<svg width="701" height="900" viewBox="0 0 701 900" fill="none" xmlns="http://www.w3.org/2000/svg">
<path d="M351.979 271.211C321.593 271.688 289.723 280.863 289.723 280.863C289.723 280.863 282.808 282.99 276.425 286.27C270.043 289.55 262.528 294.694 262.528 294.694C262.528 294.694 250.053 303.379 244.202 308.698C238.351 314.017 223.815 329.871 223.815 329.871C219.255 336.106 215.997 342.527 213.485 346.994C210.972 351.461 203.217 374.196 203.217 374.196C201.001 382.967 200.238 400.254 201.001 415.208C201.764 430.161 204.081 450.829 204.009 453.182C203.862 458.029 195.365 463.789 193.249 478.818C193.249 478.818 196.695 475.423 201.009 474.117C205.322 472.812 220.136 477.523 227.003 479.282C233.871 481.042 247.776 484.674 256.346 486.547C264.917 488.42 276.325 492.109 290.57 491.201C304.816 490.293 313.782 485.523 319.062 482.404C324.342 479.284 338.846 467.31 355.386 467.023C371.926 466.736 379.451 472.528 385.864 476.274C392.278 480.02 402.267 486.661 413.221 488.079C424.175 489.498 439.102 487.625 448.126 484.334C457.15 481.042 467.423 478.147 475.539 475.65C483.656 473.153 493.418 470.939 502.839 467.817C512.261 464.696 516.485 469.07 516.485 469.07C513.962 456.713 508.112 451.178 506.486 448.022C504.538 444.243 505.192 428.473 505.192 422.223C505.192 415.972 505.904 399.402 504.305 388.719C502.707 378.036 502.271 371.931 500.308 366.189C500.308 366.189 494.567 348.747 488.753 340.68C482.939 332.613 482.648 332.323 477.415 325.418C477.415 325.418 467.422 312.835 456.34 304.851C445.257 296.867 437.111 292.019 434.537 290.389C428.817 286.768 414.54 280.627 406.675 278.837C393.567 275.501 382.366 270.734 351.979 271.211Z" fill="#2E2E2E"/>
<path d="M261.423 540.975C292.892 545.917 319.564 551.367 352.922 549.768C386.28 548.17 404.594 547.152 430.103 542.356C455.613 537.559 479.814 528.402 492.823 519.245C505.832 510.088 518.623 495.48 517.532 477.238C517.352 474.226 516.984 471.515 516.485 469.07C516.485 469.07 512.261 464.696 502.839 467.817C493.418 470.939 483.656 473.153 475.539 475.65C467.423 478.147 457.15 481.042 448.126 484.334C439.102 487.625 424.175 489.498 413.221 488.079C402.267 486.661 392.278 480.02 385.864 476.274C379.451 472.528 371.926 466.736 355.386 467.023C338.846 467.31 324.342 479.284 319.062 482.404C313.782 485.523 304.816 490.293 290.57 491.201C276.325 492.109 264.917 488.42 256.346 486.547C247.776 484.674 233.871 481.042 227.003 479.282C220.136 477.523 205.322 472.812 201.009 474.117C196.695 475.423 193.249 478.818 193.249 478.818C193.168 479.392 193.097 479.98 193.035 480.581C191.366 496.932 198.413 507.108 207.207 514.303C216.001 521.498 229.955 536.033 261.423 540.975Z" fill="#FFE8D4"/>
<path d="M193.035 480.581L194.528 480.734L193.035 480.581ZM204.009 453.182L202.51 453.137L204.009 453.182ZM203.217 374.196L201.798 373.712L201.778 373.77L201.763 373.829L203.217 374.196ZM289.723 280.863L289.308 279.421L289.294 279.425L289.281 279.429L289.723 280.863ZM434.537 290.389L435.339 289.121L434.537 290.389ZM506.486 448.022L505.152 448.71L506.486 448.022ZM517.532 477.238L516.035 477.328L517.532 477.238ZM500.308 366.189L498.884 366.658L498.886 366.666L498.889 366.675L500.308 366.189ZM406.675 278.837L406.305 280.291L406.323 280.296L406.342 280.3L406.675 278.837ZM223.815 329.871L222.709 328.858L222.653 328.919L222.604 328.986L223.815 329.871ZM262.528 294.694L261.68 293.457L261.671 293.463L262.528 294.694ZM477.415 325.418L478.611 324.512L478.601 324.499L478.59 324.485L477.415 325.418ZM193.249 478.818L191.764 478.609L193.249 478.818ZM352.85 548.27C319.683 549.86 293.197 544.446 261.656 539.493L261.19 542.457C292.586 547.387 319.444 552.875 352.994 551.267L352.85 548.27ZM261.656 539.493C230.645 534.623 216.986 520.365 208.157 513.142L206.257 515.464C215.016 522.63 229.264 537.443 261.19 542.457L261.656 539.493ZM208.157 513.142C199.644 506.177 192.922 496.458 194.528 480.734L191.543 480.429C189.81 497.405 197.182 508.039 206.257 515.464L208.157 513.142ZM289.723 280.863C290.138 282.304 290.138 282.304 290.138 282.304C290.138 282.304 290.138 282.304 290.138 282.304C290.139 282.304 290.14 282.303 290.142 282.303C290.145 282.302 290.151 282.3 290.158 282.298C290.173 282.294 290.195 282.288 290.224 282.279C290.284 282.263 290.373 282.237 290.492 282.204C290.729 282.138 291.082 282.04 291.543 281.915C292.466 281.666 293.82 281.308 295.542 280.877C298.985 280.014 303.895 278.858 309.75 277.686C321.472 275.342 336.937 272.947 352.003 272.711L351.956 269.711C336.635 269.951 320.972 272.382 309.162 274.745C303.251 275.927 298.294 277.094 294.813 277.967C293.071 278.403 291.699 278.765 290.76 279.02C290.29 279.147 289.929 279.246 289.684 279.315C289.562 279.349 289.469 279.375 289.405 279.393C289.374 279.402 289.35 279.409 289.334 279.414C289.325 279.416 289.319 279.418 289.315 279.419C289.313 279.42 289.311 279.42 289.31 279.421C289.309 279.421 289.309 279.421 289.308 279.421C289.308 279.421 289.308 279.421 289.723 280.863ZM502.822 388.941C504.399 399.477 503.692 415.837 503.692 422.223H506.692C506.692 416.108 507.41 399.327 505.789 388.497L502.822 388.941ZM503.692 422.223C503.692 425.26 503.529 430.882 503.609 436.072C503.649 438.687 503.751 441.257 503.97 443.426C504.181 445.52 504.52 447.481 505.152 448.71L507.819 447.335C507.478 446.674 507.169 445.247 506.955 443.125C506.748 441.08 506.648 438.608 506.609 436.026C506.529 430.824 506.692 425.435 506.692 422.223H503.692ZM516.035 477.328C517.078 494.778 504.828 508.959 491.959 518.018L493.686 520.471C506.835 511.216 520.167 496.181 519.03 477.149L516.035 477.328ZM491.959 518.018C479.192 527.005 455.222 536.106 429.826 540.881L430.381 543.83C456.003 539.012 480.435 529.799 493.686 520.471L491.959 518.018ZM429.826 540.881C404.43 545.657 386.209 546.671 352.85 548.27L352.994 551.267C386.351 549.668 404.759 548.648 430.381 543.83L429.826 540.881ZM487.536 341.557C490.327 345.429 493.159 351.655 495.319 357.02C496.391 359.682 497.284 362.095 497.908 363.843C498.22 364.716 498.464 365.422 498.631 365.909C498.714 366.153 498.778 366.341 498.82 366.468C498.841 366.532 498.857 366.58 498.868 366.612C498.873 366.628 498.877 366.64 498.88 366.648C498.881 366.651 498.882 366.654 498.883 366.656C498.883 366.657 498.883 366.658 498.883 366.658C498.883 366.658 498.884 366.658 498.884 366.658C498.884 366.658 498.884 366.658 500.308 366.189C501.733 365.72 501.733 365.72 501.733 365.72C501.733 365.72 501.733 365.72 501.733 365.719C501.732 365.719 501.732 365.718 501.732 365.716C501.731 365.714 501.73 365.71 501.728 365.706C501.725 365.697 501.721 365.684 501.715 365.666C501.704 365.632 501.687 365.581 501.665 365.515C501.62 365.383 501.555 365.188 501.47 364.939C501.299 364.441 501.05 363.721 500.733 362.833C500.099 361.059 499.193 358.607 498.102 355.9C495.939 350.527 492.993 343.998 489.97 339.803L487.536 341.557ZM498.889 366.675C500.793 372.245 501.199 378.098 502.822 388.941L505.789 388.497C504.214 377.973 503.748 371.617 501.728 365.704L498.889 366.675ZM352.003 272.711C382.154 272.238 393.156 276.944 406.305 280.291L407.045 277.384C393.979 274.058 382.578 269.231 351.956 269.711L352.003 272.711ZM406.342 280.3C410.148 281.166 415.589 283.109 420.829 285.309C426.072 287.51 430.98 289.912 433.734 291.656L435.339 289.121C432.373 287.244 427.284 284.765 421.991 282.543C416.696 280.32 411.067 278.298 407.008 277.375L406.342 280.3ZM223.815 329.871C224.92 330.885 224.92 330.885 224.92 330.885C224.92 330.885 224.921 330.885 224.921 330.884C224.921 330.884 224.922 330.883 224.923 330.882C224.924 330.88 224.927 330.878 224.93 330.874C224.937 330.866 224.948 330.855 224.961 330.84C224.989 330.81 225.03 330.765 225.084 330.707C225.191 330.59 225.35 330.417 225.554 330.196C225.962 329.753 226.552 329.114 227.278 328.33C228.73 326.763 230.726 324.619 232.905 322.309C237.279 317.671 242.336 312.422 245.211 309.808L243.193 307.588C240.217 310.294 235.08 315.631 230.723 320.25C228.536 322.568 226.533 324.72 225.077 326.291C224.349 327.077 223.757 327.719 223.347 328.163C223.142 328.386 222.983 328.559 222.875 328.677C222.821 328.736 222.779 328.781 222.751 328.811C222.737 328.827 222.727 328.838 222.72 328.846C222.716 328.85 222.713 328.853 222.712 328.855C222.711 328.856 222.71 328.856 222.71 328.857C222.709 328.857 222.709 328.857 222.709 328.857C222.709 328.857 222.709 328.858 223.815 329.871ZM245.211 309.808C248.073 307.206 252.598 303.746 256.448 300.909C258.365 299.497 260.101 298.251 261.357 297.357C261.985 296.91 262.492 296.552 262.843 296.305C263.018 296.182 263.154 296.087 263.246 296.022C263.292 295.99 263.327 295.966 263.35 295.95C263.362 295.942 263.37 295.935 263.376 295.931C263.379 295.929 263.381 295.928 263.383 295.927C263.383 295.926 263.384 295.926 263.384 295.926C263.384 295.926 263.384 295.926 263.385 295.926C263.385 295.926 263.385 295.926 262.528 294.694C261.671 293.463 261.67 293.463 261.67 293.464C261.67 293.464 261.67 293.464 261.67 293.464C261.669 293.464 261.669 293.465 261.668 293.465C261.666 293.466 261.664 293.468 261.661 293.47C261.655 293.475 261.645 293.481 261.633 293.489C261.609 293.506 261.573 293.531 261.526 293.564C261.433 293.63 261.295 293.726 261.117 293.851C260.763 294.1 260.25 294.462 259.617 294.912C258.351 295.813 256.602 297.07 254.669 298.494C250.819 301.33 246.181 304.871 243.193 307.588L245.211 309.808ZM476.22 326.324C481.454 333.23 481.734 333.507 487.536 341.557L489.97 339.803C484.144 331.72 483.843 331.415 478.611 324.512L476.22 326.324ZM433.734 291.656C436.333 293.301 444.427 298.118 455.463 306.068L457.216 303.634C446.087 295.616 437.889 290.736 435.339 289.121L433.734 291.656ZM455.463 306.068C460.891 309.979 466.084 315.041 469.939 319.154C471.861 321.206 473.441 323.01 474.538 324.3C475.087 324.944 475.515 325.46 475.804 325.813C475.949 325.99 476.059 326.126 476.133 326.217C476.17 326.262 476.197 326.297 476.215 326.319C476.224 326.33 476.231 326.339 476.235 326.344C476.237 326.347 476.239 326.349 476.24 326.35C476.24 326.351 476.241 326.351 476.241 326.351C476.241 326.351 476.241 326.351 476.241 326.351C476.241 326.351 476.241 326.351 477.415 325.418C478.59 324.485 478.59 324.485 478.59 324.485C478.59 324.485 478.589 324.485 478.589 324.484C478.589 324.484 478.588 324.483 478.587 324.482C478.586 324.48 478.584 324.478 478.581 324.474C478.576 324.467 478.568 324.458 478.558 324.445C478.537 324.419 478.507 324.382 478.468 324.333C478.39 324.236 478.274 324.094 478.124 323.911C477.824 323.545 477.385 323.015 476.823 322.355C475.701 321.036 474.089 319.195 472.128 317.103C468.215 312.928 462.87 307.707 457.216 303.634L455.463 306.068ZM205.509 453.228C205.53 452.527 205.385 450.675 205.171 448.228C204.952 445.723 204.644 442.442 204.312 438.784C203.646 431.453 202.879 422.575 202.499 415.131L199.503 415.284C199.886 422.794 200.659 431.726 201.324 439.056C201.658 442.728 201.964 445.99 202.182 448.49C202.406 451.048 202.524 452.662 202.51 453.137L205.509 453.228ZM202.499 415.131C201.738 400.217 202.512 383.111 204.672 374.564L201.763 373.829C199.491 382.822 198.738 400.291 199.503 415.284L202.499 415.131ZM203.217 374.196C204.637 374.68 204.637 374.68 204.637 374.68C204.637 374.68 204.637 374.68 204.637 374.68C204.637 374.679 204.638 374.678 204.638 374.677C204.639 374.674 204.641 374.67 204.642 374.664C204.646 374.654 204.652 374.637 204.659 374.616C204.674 374.573 204.695 374.509 204.724 374.426C204.781 374.259 204.865 374.013 204.974 373.699C205.19 373.07 205.502 372.166 205.885 371.067C206.65 368.869 207.696 365.894 208.82 362.78C209.944 359.664 211.144 356.418 212.217 353.676C213.305 350.898 214.224 348.739 214.792 347.73L212.177 346.259C211.489 347.483 210.497 349.841 209.424 352.582C208.336 355.36 207.126 358.635 205.998 361.761C204.869 364.889 203.819 367.876 203.052 370.081C202.668 371.183 202.354 372.091 202.137 372.722C202.028 373.038 201.944 373.285 201.886 373.454C201.857 373.538 201.835 373.602 201.82 373.646C201.813 373.667 201.807 373.684 201.803 373.695C201.801 373.701 201.8 373.705 201.799 373.708C201.799 373.709 201.798 373.71 201.798 373.711C201.798 373.711 201.798 373.711 201.798 373.712C201.798 373.712 201.798 373.712 203.217 374.196ZM214.792 347.73C217.343 343.196 220.534 336.897 225.025 330.757L222.604 328.986C217.975 335.315 214.652 341.859 212.177 346.259L214.792 347.73ZM262.528 294.694C263.375 295.932 263.375 295.932 263.375 295.932C263.375 295.932 263.375 295.932 263.375 295.932C263.375 295.932 263.375 295.932 263.376 295.932C263.377 295.931 263.378 295.93 263.379 295.929C263.383 295.927 263.388 295.923 263.395 295.919C263.408 295.909 263.429 295.895 263.457 295.876C263.512 295.839 263.595 295.783 263.702 295.71C263.917 295.565 264.232 295.354 264.631 295.089C265.428 294.56 266.558 293.821 267.886 292.979C270.548 291.292 273.979 289.214 277.111 287.604L275.74 284.936C272.489 286.606 268.971 288.74 266.28 290.445C264.931 291.3 263.784 292.051 262.972 292.589C262.567 292.859 262.245 293.075 262.024 293.224C261.913 293.298 261.828 293.356 261.77 293.395C261.741 293.415 261.719 293.43 261.704 293.441C261.696 293.446 261.691 293.45 261.687 293.452C261.685 293.454 261.683 293.455 261.682 293.455C261.682 293.456 261.681 293.456 261.681 293.456C261.681 293.456 261.681 293.457 261.681 293.457C261.68 293.457 261.68 293.457 262.528 294.694ZM277.111 287.604C280.231 286.001 283.496 284.672 285.991 283.742C287.237 283.278 288.284 282.915 289.019 282.669C289.386 282.545 289.675 282.452 289.871 282.389C289.969 282.358 290.043 282.334 290.093 282.319C290.117 282.311 290.136 282.305 290.148 282.301C290.154 282.299 290.158 282.298 290.161 282.297C290.162 282.297 290.163 282.297 290.163 282.296C290.164 282.296 290.164 282.296 290.164 282.296C290.164 282.296 290.164 282.296 290.164 282.296C290.164 282.296 290.164 282.296 289.723 280.863C289.281 279.429 289.281 279.429 289.281 279.429C289.281 279.429 289.281 279.429 289.281 279.429C289.28 279.429 289.28 279.429 289.279 279.43C289.278 279.43 289.276 279.431 289.274 279.431C289.27 279.432 289.265 279.434 289.257 279.436C289.243 279.441 289.222 279.448 289.194 279.456C289.139 279.473 289.059 279.499 288.955 279.532C288.748 279.598 288.446 279.696 288.066 279.824C287.305 280.079 286.225 280.453 284.943 280.931C282.386 281.884 279.003 283.259 275.74 284.936L277.111 287.604ZM194.528 480.734C194.587 480.151 194.656 479.583 194.734 479.028L191.764 478.609C191.68 479.202 191.606 479.809 191.543 480.429L194.528 480.734ZM194.734 479.028C195.754 471.785 198.304 466.785 200.646 462.966C201.237 462.004 201.812 461.119 202.358 460.276C202.898 459.441 203.414 458.638 203.859 457.876C204.728 456.387 205.46 454.84 205.509 453.228L202.51 453.137C202.485 453.948 202.1 454.939 201.268 456.363C200.863 457.057 200.383 457.804 199.839 458.646C199.299 459.48 198.702 460.398 198.089 461.398C195.617 465.428 192.86 470.823 191.764 478.609L194.734 479.028ZM193.249 478.818C194.302 479.887 194.302 479.887 194.301 479.887C194.301 479.887 194.301 479.888 194.301 479.888C194.301 479.888 194.301 479.888 194.301 479.888C194.3 479.888 194.3 479.888 194.301 479.888C194.301 479.888 194.302 479.886 194.304 479.884C194.309 479.88 194.316 479.873 194.326 479.863C194.347 479.843 194.381 479.811 194.427 479.769C194.518 479.684 194.656 479.558 194.838 479.401C195.201 479.085 195.732 478.649 196.39 478.173C197.72 477.212 199.507 476.139 201.443 475.553L200.574 472.682C198.197 473.401 196.104 474.678 194.633 475.742C193.89 476.278 193.29 476.772 192.872 477.134C192.663 477.316 192.499 477.465 192.384 477.571C192.327 477.624 192.283 477.667 192.251 477.697C192.235 477.712 192.223 477.724 192.214 477.733C192.209 477.737 192.205 477.741 192.202 477.744C192.201 477.745 192.2 477.747 192.199 477.748C192.198 477.748 192.198 477.748 192.197 477.749C192.197 477.749 192.197 477.749 192.197 477.749C192.196 477.75 192.196 477.75 193.249 478.818ZM201.443 475.553C202.178 475.331 203.618 475.327 205.723 475.613C207.751 475.888 210.164 476.396 212.695 477.008C217.834 478.252 223.062 479.821 226.631 480.735L227.376 477.829C224.077 476.984 218.465 475.318 213.401 474.093C210.831 473.471 208.304 472.936 206.126 472.64C204.025 472.355 201.996 472.251 200.574 472.682L201.443 475.553ZM226.631 480.735C233.479 482.49 247.422 486.132 256.026 488.012L256.667 485.082C248.13 483.216 234.263 479.594 227.376 477.829L226.631 480.735ZM256.026 488.012C264.448 489.853 276.148 493.623 290.666 492.698L290.475 489.704C276.501 490.595 265.385 486.987 256.667 485.082L256.026 488.012ZM290.666 492.698C305.237 491.769 314.437 486.879 319.825 483.695L318.299 481.112C313.127 484.168 304.395 488.817 290.475 489.704L290.666 492.698ZM319.825 483.695C321.189 482.889 323.169 481.5 325.468 479.975C327.812 478.421 330.594 476.651 333.713 474.972C339.968 471.606 347.483 468.66 355.412 468.523L355.36 465.523C346.75 465.673 338.743 468.858 332.291 472.33C329.056 474.071 326.188 475.897 323.81 477.475C321.388 479.081 319.575 480.358 318.299 481.112L319.825 483.695ZM355.412 468.523C363.489 468.382 369.309 469.725 373.871 471.531C378.481 473.356 381.803 475.639 385.108 477.569L386.621 474.979C383.513 473.163 379.865 470.677 374.975 468.741C370.036 466.786 363.823 465.376 355.36 465.523L355.412 468.523ZM385.108 477.569C391.392 481.24 401.697 488.099 413.028 489.567L413.414 486.592C402.837 485.222 393.163 478.8 386.621 474.979L385.108 477.569ZM413.028 489.567C424.224 491.017 439.393 489.116 448.64 485.743L447.612 482.924C438.81 486.135 424.125 487.979 413.414 486.592L413.028 489.567ZM448.64 485.743C457.616 482.468 467.814 479.596 475.981 477.083L475.098 474.216C467.033 476.698 456.684 479.615 447.612 482.924L448.64 485.743ZM475.981 477.083C480.007 475.844 484.442 474.676 489.092 473.415C493.728 472.159 498.558 470.816 503.311 469.241L502.367 466.394C497.699 467.94 492.937 469.265 488.307 470.52C483.692 471.771 479.188 472.958 475.098 474.216L475.981 477.083ZM505.152 448.71C507.03 452.354 512.542 457.256 515.015 469.37L517.954 468.77C515.382 456.17 509.193 450.001 507.819 447.335L505.152 448.71ZM515.015 469.37C515.499 471.743 515.859 474.384 516.035 477.328L519.03 477.149C518.846 474.068 518.468 471.286 517.954 468.77L515.015 469.37ZM503.311 469.241C507.742 467.773 510.83 468.101 512.745 468.704C513.712 469.009 514.408 469.393 514.847 469.684C515.067 469.831 515.222 469.954 515.315 470.033C515.361 470.072 515.392 470.1 515.407 470.114C515.415 470.121 515.418 470.125 515.418 470.125C515.418 470.125 515.417 470.124 515.415 470.122C515.414 470.12 515.413 470.119 515.411 470.118C515.41 470.117 515.409 470.116 515.409 470.115C515.408 470.115 515.407 470.114 515.407 470.114C515.406 470.113 515.406 470.112 516.485 469.07C517.564 468.028 517.563 468.028 517.562 468.027C517.562 468.026 517.561 468.026 517.561 468.025C517.56 468.024 517.558 468.023 517.557 468.021C517.555 468.019 517.552 468.016 517.549 468.013C517.542 468.006 517.535 467.999 517.527 467.991C517.51 467.974 517.489 467.954 517.463 467.93C517.412 467.881 517.342 467.818 517.255 467.744C517.08 467.596 516.832 467.402 516.508 467.187C515.861 466.756 514.912 466.241 513.646 465.843C511.093 465.039 507.358 464.74 502.367 466.394L503.311 469.241Z" fill="black"/>
</svg>
