<svg width="701" height="901" viewBox="0 0 701 901" fill="none" xmlns="http://www.w3.org/2000/svg">
<path d="M223.43 410.049C226.132 398.009 230.205 388.575 230.205 388.575C230.205 388.575 238.196 393.69 247.083 394.008C255.97 394.325 259.386 392.352 265.915 386.919C270.275 383.291 271.165 377.557 271.752 373.78C272.044 371.902 272.261 370.507 272.791 370.098C273.302 369.703 274.945 370.566 277.47 371.891C282.845 374.713 292.214 379.632 303.155 378.985C319.237 378.032 329.311 369.213 334.06 359.975C338.809 350.737 338.528 337.576 337.53 334.183C337.073 332.628 338.371 334.496 340.198 337.2L340.57 337.751C342.68 340.878 345.346 344.828 346.867 346.011C349.841 348.324 354.967 352.268 365.399 352.81C375.83 353.352 384.249 348.314 390.528 339.071C390.245 345.593 393.4 352.424 395.769 357.312C398.137 362.2 400.666 365.343 406.356 370.22C412.045 375.097 420.732 375.177 430.316 375.26C436.694 375.315 443.874 370.701 448.321 367.843C450.557 366.406 452.102 365.414 452.507 365.681C453.172 366.119 453.314 368.89 453.484 372.219C453.624 374.96 453.783 378.077 454.269 380.583C455.345 386.132 458.875 390.879 462.397 394.401C465.919 397.923 472.151 402.394 480.686 401.581C489.221 400.768 493.691 398.194 493.691 398.194C494.481 403.748 497.964 422.183 496.339 438.033C496.339 444.283 495.685 460.054 497.632 463.833C499.258 466.988 505.109 472.524 507.631 484.881C508.13 487.325 508.499 490.036 508.679 493.049C509.655 509.381 495.631 521.444 483.348 530.362C483.348 530.362 529.192 527.99 535.629 502.615C542.066 477.24 514.518 480.828 512.794 477.852C511.071 474.876 553.91 455.817 551.597 424.017C549.283 392.216 523.543 382.001 517.309 384.891C511.074 387.78 525.513 375.26 517.309 363.855C509.105 352.45 494.59 360.468 499.218 354.599C503.846 348.731 520.405 315.053 507.422 292.965C494.439 270.878 470.005 264.377 448.321 267.983C426.637 271.59 417.357 281.289 416.812 283.485C416.267 285.681 416.812 261.622 394.251 257.626C371.69 253.629 364.072 269.341 361.856 272.561C359.641 275.78 332.196 227.334 282.342 243.321C232.488 259.308 232.831 307.242 235.092 309.32C237.353 311.398 217.833 298.514 205.309 306.93C192.785 315.346 197.214 331.313 198.496 332.679C199.777 334.045 172.326 324.775 162.229 352.81C152.132 380.845 174.659 397.805 177.478 397.477C179.773 397.21 155.88 401.913 150.493 432.022C145.106 462.13 172.1 481.978 170.817 481.85C169.534 481.722 151.503 487.608 157.587 516.049C163.671 544.49 238.802 529.88 238.802 529.88C229.881 524.603 224 518.967 219.481 515.27C210.687 508.075 203.64 497.899 205.309 481.549C205.37 480.947 205.442 480.36 205.522 479.786C207.639 464.757 216.136 458.996 216.283 454.15C216.354 451.797 220.727 422.089 223.43 410.049Z" fill="#FFF3F3"/>
<path d="M230.205 388.575C230.205 388.575 226.132 398.009 223.43 410.049C220.727 422.089 216.354 451.797 216.283 454.15C216.136 458.996 207.639 464.757 205.522 479.786C205.442 480.36 205.37 480.947 205.309 481.549C203.64 497.899 210.687 508.075 219.481 515.27C224 518.967 229.881 524.603 238.802 529.88C247.241 534.871 258.4 539.54 273.697 541.942C305.165 546.884 331.837 552.335 365.195 550.736C398.554 549.137 408.011 548.046 417.437 547.505C426.863 546.963 466.13 542.52 479.139 533.363C480.5 532.405 481.912 531.405 483.348 530.362C495.631 521.444 509.655 509.381 508.679 493.049C508.499 490.036 508.13 487.325 507.631 484.881C505.109 472.524 499.258 466.988 497.632 463.833C495.685 460.054 496.339 444.283 496.339 438.033C497.964 422.183 494.481 403.748 493.691 398.194C493.691 398.194 489.221 400.768 480.686 401.581C472.151 402.394 465.919 397.923 462.397 394.401C458.875 390.879 455.345 386.132 454.269 380.583C453.783 378.077 453.624 374.96 453.484 372.219C453.314 368.89 453.172 366.119 452.507 365.681C452.102 365.414 450.557 366.406 448.321 367.843C443.874 370.701 436.694 375.315 430.316 375.26C420.732 375.177 412.045 375.097 406.356 370.22C400.666 365.343 398.137 362.2 395.769 357.312C393.4 352.424 390.245 345.593 390.528 339.071C384.249 348.314 375.83 353.352 365.399 352.81C354.967 352.268 349.841 348.324 346.867 346.011C345.346 344.828 342.68 340.878 340.57 337.751L340.198 337.2C338.371 334.496 337.073 332.628 337.53 334.183C338.528 337.576 338.809 350.737 334.06 359.975C329.311 369.213 319.237 378.032 303.155 378.985C292.214 379.632 282.845 374.713 277.47 371.891C274.945 370.566 273.302 369.703 272.791 370.098C272.261 370.507 272.044 371.902 271.752 373.78C271.165 377.557 270.275 383.291 265.915 386.919C259.386 392.352 255.97 394.325 247.083 394.008C238.196 393.69 230.205 388.575 230.205 388.575Z" fill="#FFF9EC"/>
<path d="M228.133 380.58C227.986 379.764 227.206 379.222 226.391 379.369C225.576 379.516 225.034 380.296 225.18 381.111L228.133 380.58ZM265.915 386.919L264.955 385.766L264.955 385.766L265.915 386.919ZM272.791 370.098L271.875 368.91L271.875 368.91L272.791 370.098ZM303.155 378.985L303.244 380.482L303.244 380.482L303.155 378.985ZM337.53 334.183L336.091 334.606L336.091 334.606L337.53 334.183ZM346.867 346.011L347.788 344.827L347.788 344.827L346.867 346.011ZM392.527 334.298C392.591 333.472 391.973 332.751 391.147 332.687C390.321 332.624 389.6 333.242 389.536 334.068L392.527 334.298ZM430.316 375.26L430.329 373.76L430.329 373.76L430.316 375.26ZM452.507 365.681L451.682 366.933L451.682 366.933L452.507 365.681ZM454.269 380.583L455.741 380.297L455.741 380.297L454.269 380.583ZM501.451 393.771C502.001 393.151 501.944 392.203 501.325 391.653C500.705 391.103 499.757 391.16 499.207 391.78L501.451 393.771ZM496.339 438.033L494.846 437.88L494.839 437.956V438.033H496.339ZM177.478 397.477L177.305 395.987L177.478 397.477ZM271.752 373.78L273.234 374.011L273.234 374.011L271.752 373.78ZM277.47 371.891L276.773 373.22L276.773 373.22L277.47 371.891ZM340.57 337.751L341.814 336.912L341.814 336.912L340.57 337.751ZM448.321 367.843L449.132 369.105L449.132 369.105L448.321 367.843ZM453.484 372.219L454.982 372.143L454.982 372.143L453.484 372.219ZM273.697 541.942L273.929 540.46L273.929 540.46L273.697 541.942ZM219.481 515.27L220.43 514.109L220.43 514.109L219.481 515.27ZM205.309 481.549L203.817 481.396L203.817 481.396L205.309 481.549ZM497.632 463.833L496.299 464.52L496.299 464.52L497.632 463.833ZM508.679 493.049L507.181 493.138L507.181 493.138L508.679 493.049ZM479.139 533.363L480.002 534.59L479.139 533.363ZM216.283 454.15L217.782 454.195L217.782 454.195L216.283 454.15ZM205.522 479.786L207.008 479.995L207.008 479.995L205.522 479.786ZM507.631 484.881L509.101 484.581L509.101 484.581L507.631 484.881ZM224.893 410.377C226.228 404.429 227.904 399.119 229.246 395.294C229.917 393.383 230.504 391.846 230.921 390.789C231.13 390.261 231.297 389.853 231.41 389.578C231.467 389.441 231.511 389.338 231.54 389.269C231.555 389.235 231.565 389.209 231.572 389.192C231.576 389.184 231.579 389.178 231.58 389.174C231.581 389.172 231.582 389.171 231.582 389.17C231.582 389.17 231.582 389.17 231.582 389.17C231.582 389.17 231.582 389.17 231.582 389.17C231.582 389.17 231.582 389.17 230.205 388.575C228.828 387.981 228.828 387.981 228.828 387.981C228.828 387.981 228.828 387.981 228.827 387.982C228.827 387.982 228.827 387.983 228.827 387.984C228.826 387.985 228.825 387.987 228.824 387.99C228.822 387.995 228.818 388.003 228.814 388.013C228.806 388.033 228.793 388.062 228.777 388.099C228.745 388.175 228.699 388.286 228.639 388.43C228.519 388.718 228.347 389.142 228.131 389.686C227.701 390.774 227.101 392.348 226.415 394.3C225.046 398.202 223.333 403.628 221.966 409.72L224.893 410.377ZM231.044 387.332C230.713 387.109 230.324 386.653 229.925 385.938C229.538 385.245 229.206 384.424 228.932 383.611C228.661 382.804 228.459 382.04 228.326 381.475C228.259 381.194 228.21 380.965 228.178 380.808C228.162 380.73 228.15 380.67 228.143 380.631C228.139 380.612 228.136 380.598 228.135 380.589C228.134 380.584 228.133 380.581 228.133 380.58C228.133 380.579 228.133 380.579 228.133 380.579C228.133 380.579 228.133 380.579 228.133 380.579C228.133 380.579 228.133 380.579 228.133 380.579C228.133 380.579 228.133 380.58 226.657 380.845C225.18 381.111 225.181 381.111 225.181 381.112C225.181 381.112 225.181 381.112 225.181 381.112C225.181 381.113 225.181 381.114 225.181 381.114C225.181 381.116 225.182 381.117 225.182 381.12C225.183 381.124 225.184 381.13 225.185 381.137C225.188 381.151 225.192 381.171 225.196 381.196C225.206 381.247 225.22 381.319 225.239 381.411C225.276 381.593 225.332 381.852 225.406 382.166C225.554 382.792 225.78 383.649 226.089 384.567C226.395 385.48 226.796 386.488 227.305 387.4C227.801 388.289 228.47 389.214 229.366 389.819L231.044 387.332ZM230.205 388.575C229.396 389.839 229.397 389.839 229.397 389.839C229.397 389.839 229.398 389.839 229.398 389.84C229.398 389.84 229.399 389.84 229.4 389.841C229.402 389.842 229.404 389.844 229.407 389.845C229.412 389.849 229.42 389.853 229.429 389.859C229.448 389.871 229.474 389.888 229.508 389.908C229.575 389.95 229.673 390.01 229.798 390.084C230.049 390.234 230.412 390.444 230.874 390.696C231.797 391.2 233.118 391.872 234.725 392.553C237.924 393.91 242.333 395.339 247.029 395.507L247.136 392.509C242.945 392.359 238.915 391.072 235.897 389.792C234.396 389.155 233.164 388.528 232.311 388.063C231.885 387.83 231.554 387.639 231.333 387.507C231.223 387.441 231.14 387.39 231.086 387.357C231.059 387.34 231.039 387.328 231.027 387.321C231.021 387.317 231.017 387.314 231.015 387.313C231.014 387.312 231.013 387.311 231.013 387.311C231.013 387.311 231.013 387.311 231.013 387.311C231.013 387.311 231.013 387.312 231.013 387.312C231.013 387.312 231.014 387.312 230.205 388.575ZM247.029 395.507C251.591 395.67 254.9 395.251 257.949 394.009C260.963 392.781 263.604 390.794 266.874 388.072L264.955 385.766C261.697 388.478 259.364 390.193 256.817 391.231C254.304 392.254 251.461 392.663 247.136 392.509L247.029 395.507ZM303.244 380.482C319.898 379.496 330.423 370.331 335.394 360.661L332.726 359.289C328.199 368.095 318.576 376.569 303.067 377.487L303.244 380.482ZM335.394 360.661C337.893 355.8 339.038 349.984 339.445 345.009C339.849 340.078 339.546 335.721 338.969 333.76L336.091 334.606C336.512 336.038 336.849 339.958 336.455 344.765C336.065 349.529 334.976 354.912 332.726 359.289L335.394 360.661ZM345.946 347.195C349.034 349.597 354.453 353.744 365.321 354.308L365.476 351.312C355.481 350.793 350.648 347.052 347.788 344.827L345.946 347.195ZM365.321 354.308C376.384 354.883 385.261 349.494 391.769 339.914L389.287 338.228C383.237 347.135 375.276 351.821 365.476 351.312L365.321 354.308ZM390.528 339.071C392.018 339.239 392.018 339.239 392.018 339.239C392.018 339.239 392.018 339.239 392.018 339.239C392.018 339.239 392.019 339.238 392.019 339.238C392.019 339.238 392.019 339.237 392.019 339.236C392.019 339.234 392.019 339.232 392.02 339.228C392.02 339.221 392.022 339.211 392.023 339.198C392.026 339.171 392.03 339.132 392.036 339.081C392.047 338.98 392.064 338.835 392.083 338.656C392.123 338.299 392.177 337.809 392.234 337.278C392.346 336.225 392.475 334.98 392.527 334.298L389.536 334.068C389.488 334.696 389.365 335.895 389.251 336.958C389.194 337.485 389.141 337.972 389.102 338.326C389.082 338.504 389.066 338.648 389.055 338.748C389.049 338.798 389.045 338.837 389.042 338.863C389.04 338.876 389.039 338.886 389.038 338.893C389.038 338.896 389.038 338.899 389.038 338.9C389.037 338.901 389.037 338.902 389.037 338.902C389.037 338.903 389.037 338.903 389.037 338.903C389.037 338.903 389.037 338.903 389.037 338.903C389.037 338.903 389.037 338.903 390.528 339.071ZM389.029 339.006C388.728 345.964 392.074 353.128 394.419 357.966L397.118 356.658C394.726 351.721 391.763 345.223 392.026 339.136L389.029 339.006ZM394.419 357.966C396.901 363.089 399.58 366.388 405.379 371.359L407.332 369.081C401.751 364.298 399.373 361.312 397.118 356.658L394.419 357.966ZM405.379 371.359C408.516 374.048 412.416 375.357 416.643 376.02C420.854 376.68 425.539 376.719 430.303 376.76L430.329 373.76C425.509 373.719 421.059 373.676 417.108 373.056C413.173 372.439 409.884 371.269 407.332 369.081L405.379 371.359ZM452.796 380.868C453.955 386.842 457.722 391.847 461.336 395.461L463.458 393.34C460.028 389.91 456.735 385.422 455.741 380.297L452.796 380.868ZM461.336 395.461C465.005 399.131 471.654 403.948 480.828 403.074L480.544 400.088C472.648 400.84 466.833 396.716 463.458 393.34L461.336 395.461ZM480.828 403.074C485.22 402.656 488.586 401.782 490.873 401.002C492.016 400.612 492.889 400.246 493.486 399.972C493.784 399.835 494.013 399.721 494.172 399.638C494.252 399.597 494.314 399.563 494.359 399.539C494.381 399.527 494.399 399.517 494.412 399.509C494.419 399.506 494.425 399.502 494.429 399.5C494.432 399.499 494.434 399.497 494.435 399.496C494.436 399.496 494.437 399.495 494.438 399.495C494.438 399.495 494.439 399.495 494.439 399.494C494.439 399.494 494.44 399.494 493.691 398.194C492.943 396.894 492.943 396.894 492.944 396.894C492.944 396.894 492.944 396.893 492.944 396.893C492.945 396.893 492.945 396.893 492.945 396.893C492.946 396.892 492.946 396.892 492.946 396.892C492.947 396.892 492.946 396.892 492.944 396.893C492.94 396.896 492.932 396.9 492.919 396.907C492.894 396.921 492.852 396.944 492.792 396.974C492.674 397.036 492.487 397.129 492.233 397.246C491.724 397.48 490.946 397.808 489.905 398.163C487.823 398.873 484.686 399.693 480.544 400.088L480.828 403.074ZM494.546 399.426C496.976 397.74 498.682 396.349 499.791 395.368C500.345 394.877 500.75 394.489 501.022 394.218C501.158 394.083 501.26 393.977 501.331 393.901C501.366 393.864 501.394 393.834 501.414 393.812C501.424 393.801 501.432 393.792 501.438 393.785C501.441 393.782 501.444 393.779 501.446 393.776C501.447 393.775 501.448 393.774 501.449 393.773C501.45 393.773 501.45 393.772 501.45 393.772C501.451 393.771 501.451 393.771 501.451 393.771C501.451 393.771 501.451 393.771 500.329 392.775C499.207 391.78 499.207 391.779 499.208 391.779C499.208 391.779 499.208 391.779 499.208 391.779C499.208 391.778 499.209 391.778 499.209 391.778C499.209 391.778 499.209 391.777 499.21 391.777C499.21 391.777 499.21 391.777 499.209 391.777C499.208 391.779 499.205 391.782 499.2 391.787C499.19 391.798 499.173 391.817 499.148 391.843C499.098 391.897 499.017 391.981 498.902 392.095C498.674 392.324 498.313 392.67 497.803 393.121C496.784 394.023 495.171 395.341 492.836 396.962L494.546 399.426ZM492.206 398.405C493.011 404.068 496.448 422.262 494.846 437.88L497.831 438.186C499.48 422.103 495.951 403.429 495.176 397.983L492.206 398.405ZM537.083 502.984C538.751 496.407 538.275 491.47 536.35 487.767C534.428 484.071 531.193 481.855 527.853 480.451C524.529 479.054 520.968 478.408 518.254 477.931C516.86 477.686 515.744 477.495 514.913 477.278C514.5 477.17 514.227 477.073 514.062 476.993C513.868 476.899 513.979 476.904 514.092 477.1L511.496 478.604C511.826 479.172 512.353 479.498 512.75 479.691C513.174 479.897 513.663 480.053 514.156 480.181C515.136 480.437 516.404 480.652 517.735 480.886C520.47 481.366 523.717 481.967 526.691 483.217C529.649 484.46 532.201 486.291 533.688 489.151C535.172 492.006 535.725 496.136 534.175 502.246L537.083 502.984ZM514.092 477.1C514.474 477.759 514.009 478.239 514.199 477.969C514.308 477.814 514.563 477.539 515.044 477.122C515.985 476.307 517.447 475.236 519.334 473.872C523.063 471.177 528.246 467.478 533.416 462.862C543.7 453.681 554.303 440.541 553.093 423.908L550.101 424.125C551.204 439.293 541.545 451.583 531.418 460.625C526.382 465.121 521.324 468.732 517.577 471.441C515.726 472.779 514.142 473.934 513.08 474.855C512.558 475.307 512.073 475.777 511.745 476.244C511.497 476.596 510.899 477.573 511.496 478.604L514.092 477.1ZM553.093 423.908C551.905 407.583 544.684 396.705 536.875 390.286C532.983 387.087 528.941 384.991 525.422 383.882C523.663 383.328 522.009 383.012 520.552 382.94C519.117 382.868 517.761 383.027 516.678 383.53L517.939 386.251C518.415 386.031 519.227 385.877 520.403 385.936C521.555 385.993 522.953 386.25 524.52 386.744C527.653 387.731 531.359 389.635 534.97 392.604C542.168 398.52 548.974 408.65 550.101 424.125L553.093 423.908ZM516.678 383.53C516.318 383.696 516.099 383.776 515.982 383.807C515.788 383.86 516.039 383.741 516.417 383.893C516.667 383.994 516.903 384.188 517.051 384.46C517.183 384.702 517.196 384.911 517.196 384.996C517.197 385.133 517.164 385.15 517.239 384.946C517.377 384.572 517.655 384.018 518.073 383.184C518.471 382.39 518.955 381.419 519.425 380.326C521.289 375.995 523.106 369.346 518.526 362.979L516.091 364.731C519.715 369.769 518.415 375.083 516.669 379.14C516.237 380.145 515.788 381.048 515.391 381.84C515.014 382.592 514.636 383.336 514.425 383.908C514.326 384.176 514.196 384.578 514.196 385.003C514.197 385.232 514.235 385.562 514.419 385.899C514.62 386.266 514.934 386.53 515.293 386.675C515.889 386.916 516.478 386.781 516.761 386.704C517.121 386.607 517.52 386.446 517.939 386.251L516.678 383.53ZM518.526 362.979C514.014 356.706 507.737 355.813 503.508 355.652C502.486 355.613 501.482 355.616 500.779 355.6C499.979 355.582 499.564 355.539 499.37 355.481C499.286 355.455 499.422 355.476 499.579 355.65C499.786 355.879 499.84 356.158 499.825 356.337C499.816 356.453 499.785 356.447 499.884 356.266C499.975 356.1 500.135 355.86 500.396 355.528L498.04 353.671C497.723 354.073 497.454 354.458 497.253 354.825C497.06 355.177 496.875 355.61 496.835 356.091C496.791 356.635 496.939 357.203 497.353 357.661C497.717 358.064 498.173 358.254 498.507 358.354C499.152 358.548 499.974 358.583 500.712 358.599C501.546 358.618 502.38 358.611 503.395 358.65C507.317 358.799 512.399 359.599 516.091 364.731L518.526 362.979ZM500.396 355.528C502.871 352.389 508.244 342.298 511.376 330.242C514.505 318.195 515.51 303.765 508.715 292.205L506.129 293.725C512.316 304.253 511.533 317.706 508.472 329.487C505.414 341.26 500.193 350.941 498.04 353.671L500.396 355.528ZM508.715 292.205C495.329 269.431 470.177 262.828 448.075 266.504L448.567 269.463C469.833 265.926 493.55 272.325 506.129 293.725L508.715 292.205ZM448.075 266.504C437.052 268.337 429.125 271.729 423.851 274.987C421.217 276.614 419.236 278.214 417.86 279.578C417.173 280.26 416.624 280.895 416.217 281.458C415.835 281.987 415.494 282.566 415.356 283.124L418.268 283.847C418.265 283.855 418.334 283.651 418.649 283.214C418.939 282.813 419.373 282.302 419.972 281.709C421.167 280.524 422.963 279.062 425.428 277.539C430.352 274.497 437.907 271.236 448.567 269.463L448.075 266.504ZM415.356 283.124C415.356 283.124 415.356 283.122 415.357 283.119C415.358 283.116 415.359 283.112 415.361 283.106C415.364 283.095 415.371 283.074 415.381 283.045C415.389 283.023 415.452 282.845 415.611 282.655C415.776 282.457 416.362 281.922 417.209 282.201C417.782 282.39 418.013 282.845 418.027 282.871C418.124 283.045 418.146 283.182 418.126 283.101C418.119 283.071 418.107 283.01 418.088 282.905C418.026 282.557 417.886 281.627 417.703 280.656C417.314 278.584 416.599 275.536 415.16 272.272C412.265 265.71 406.415 258.257 394.513 256.149L393.989 259.103C404.648 260.991 409.805 267.566 412.415 273.483C413.728 276.46 414.389 279.264 414.755 281.211C414.951 282.249 415.034 282.869 415.135 283.432C415.156 283.554 415.181 283.682 415.208 283.797C415.223 283.86 415.278 284.1 415.406 284.33C415.436 284.384 415.682 284.856 416.27 285.05C417.133 285.335 417.734 284.793 417.915 284.576C418.089 284.367 418.168 284.158 418.192 284.093C418.228 283.998 418.252 283.91 418.268 283.847L415.356 283.124ZM394.513 256.149C382.816 254.077 374.845 257.111 369.512 261.196C364.265 265.216 361.622 270.255 360.621 271.711L363.092 273.411C364.306 271.647 366.581 267.221 371.336 263.578C376.006 260.001 383.126 257.178 393.989 259.103L394.513 256.149ZM360.621 271.711C360.823 271.417 361.172 271.225 361.534 271.215C361.787 271.209 361.913 271.295 361.838 271.257C361.699 271.184 361.394 270.962 360.87 270.475C359.854 269.53 358.46 268.023 356.594 266.067C352.913 262.21 347.642 256.876 340.845 251.94C327.225 242.047 307.406 233.709 281.884 241.893L282.8 244.75C307.133 236.947 325.963 244.838 339.082 254.367C345.655 259.141 350.776 264.316 354.423 268.138C356.22 270.021 357.724 271.646 358.827 272.672C359.363 273.17 359.924 273.643 360.454 273.918C360.714 274.054 361.126 274.228 361.616 274.214C362.214 274.198 362.752 273.906 363.092 273.411L360.621 271.711ZM281.884 241.893C256.479 250.04 243.794 266.374 237.787 280.966C234.791 288.243 233.456 295.081 233.015 300.252C232.795 302.836 232.796 305.027 232.933 306.668C233.001 307.484 233.105 308.197 233.245 308.768C233.314 309.052 233.4 309.332 233.509 309.586C233.606 309.811 233.776 310.148 234.077 310.424L236.107 308.215C236.266 308.362 236.299 308.479 236.265 308.4C236.243 308.35 236.204 308.241 236.159 308.056C236.069 307.689 235.983 307.143 235.923 306.419C235.803 304.978 235.796 302.959 236.005 300.507C236.422 295.607 237.693 289.072 240.561 282.108C246.28 268.216 258.351 252.59 282.8 244.75L281.884 241.893ZM234.077 310.424C234.137 310.48 234.112 310.463 234.062 310.4C234.048 310.382 233.942 310.251 233.864 310.043C233.801 309.875 233.575 309.114 234.207 308.482C234.683 308.006 235.26 308.05 235.297 308.051C235.439 308.057 235.539 308.084 235.555 308.088C235.601 308.1 235.605 308.105 235.533 308.076C235.237 307.957 234.684 307.692 233.779 307.276C232.049 306.482 229.361 305.298 226.188 304.315C219.94 302.379 211.334 301.074 204.472 305.685L206.145 308.175C211.807 304.37 219.223 305.298 225.301 307.181C228.29 308.107 230.841 309.229 232.527 310.003C233.33 310.371 234.029 310.706 234.417 310.861C234.515 310.9 234.655 310.954 234.799 310.991C234.864 311.008 235.004 311.042 235.176 311.049C235.243 311.052 235.84 311.091 236.328 310.604C236.971 309.961 236.745 309.183 236.674 308.992C236.587 308.76 236.462 308.599 236.419 308.544C236.312 308.407 236.187 308.29 236.107 308.215L234.077 310.424ZM204.472 305.685C197.713 310.227 195.544 316.826 195.228 322.362C195.07 325.124 195.368 327.648 195.793 329.584C196.006 330.553 196.254 331.391 196.503 332.053C196.627 332.383 196.756 332.684 196.89 332.943C197.01 333.178 197.178 333.467 197.402 333.705L199.59 331.653C199.653 331.72 199.636 331.724 199.557 331.571C199.491 331.442 199.406 331.252 199.311 330.998C199.121 330.492 198.911 329.793 198.724 328.941C198.349 327.236 198.083 324.987 198.223 322.534C198.502 317.641 200.38 312.049 206.145 308.175L204.472 305.685ZM197.402 333.705C197.365 333.666 197.226 333.516 197.132 333.265C197.018 332.964 196.959 332.464 197.262 331.981C197.513 331.581 197.866 331.437 197.981 331.395C198.121 331.345 198.228 331.333 198.254 331.33C198.307 331.325 198.237 331.332 197.876 331.295C197.329 331.237 196.182 331.082 194.93 330.965C192.311 330.72 188.539 330.556 184.377 331.265C180.209 331.976 175.625 333.567 171.414 336.846C167.195 340.132 163.429 345.053 160.818 352.302L163.64 353.319C166.078 346.55 169.529 342.117 173.258 339.213C176.994 336.303 181.085 334.87 184.882 334.223C188.684 333.574 192.167 333.719 194.65 333.952C195.949 334.074 196.814 334.2 197.563 334.278C197.85 334.308 198.248 334.348 198.568 334.314C198.66 334.304 198.821 334.282 199.002 334.216C199.158 334.16 199.539 333.997 199.804 333.574C200.122 333.067 200.064 332.54 199.938 332.205C199.831 331.922 199.667 331.735 199.59 331.653L197.402 333.705ZM160.818 352.302C155.593 366.809 158.807 378.531 163.731 386.564C166.182 390.563 169.056 393.648 171.519 395.725C172.749 396.763 173.898 397.566 174.864 398.109C175.345 398.38 175.806 398.6 176.228 398.75C176.603 398.884 177.124 399.028 177.651 398.967L177.305 395.987C177.48 395.966 177.494 396.017 177.234 395.924C177.021 395.848 176.72 395.711 176.335 395.494C175.568 395.063 174.573 394.376 173.453 393.432C171.216 391.545 168.56 388.7 166.289 384.996C161.769 377.622 158.768 366.846 163.64 353.319L160.818 352.302ZM149.017 431.758C146.23 447.334 151.833 460.22 157.875 469.117C160.899 473.57 164.049 477.05 166.354 479.402C167.503 480.575 168.453 481.479 169.045 482.055C169.359 482.361 169.531 482.536 169.607 482.623C169.691 482.721 169.551 482.588 169.456 482.34C169.437 482.29 169.141 481.554 169.708 480.877C170.229 480.256 170.944 480.355 170.967 480.358L170.668 483.343C170.731 483.349 171.472 483.443 172.006 482.806C172.587 482.114 172.29 481.353 172.258 481.268C172.136 480.951 171.918 480.709 171.876 480.662C171.7 480.458 171.429 480.19 171.138 479.906C170.52 479.304 169.614 478.443 168.497 477.303C166.269 475.029 163.248 471.689 160.357 467.432C154.57 458.91 149.37 446.818 151.97 432.286L149.017 431.758ZM170.967 480.358C170.635 480.324 170.291 480.388 170.077 480.434C169.808 480.491 169.495 480.579 169.151 480.695C168.46 480.929 167.593 481.296 166.63 481.826C164.702 482.888 162.353 484.626 160.257 487.314C156.024 492.741 153.005 501.799 156.12 516.363L159.054 515.735C156.085 501.858 159.04 493.753 162.622 489.159C164.434 486.835 166.453 485.348 168.077 484.454C168.89 484.006 169.594 483.712 170.112 483.537C170.371 483.449 170.571 483.396 170.704 483.367C170.892 483.327 170.839 483.36 170.668 483.343L170.967 480.358ZM266.874 388.072C271.733 384.029 272.661 377.701 273.234 374.011L270.27 373.55C269.67 377.413 268.816 382.553 264.955 385.766L266.874 388.072ZM273.234 374.011C273.384 373.047 273.501 372.304 273.638 371.748C273.706 371.474 273.766 371.303 273.81 371.205C273.861 371.094 273.848 371.177 273.708 371.285L271.875 368.91C271.469 369.224 271.23 369.635 271.082 369.958C270.928 370.296 270.815 370.667 270.726 371.028C270.549 371.742 270.412 372.635 270.27 373.55L273.234 374.011ZM273.708 371.285C273.316 371.587 272.966 371.475 273.126 371.503C273.223 371.52 273.432 371.58 273.794 371.732C274.511 372.034 275.485 372.544 276.773 373.22L278.167 370.563C276.93 369.914 275.82 369.33 274.957 368.967C274.529 368.787 274.073 368.623 273.64 368.547C273.269 368.483 272.522 368.411 271.875 368.91L273.708 371.285ZM276.773 373.22C282.127 376.031 291.838 381.157 303.244 380.482L303.067 377.487C292.59 378.108 283.562 373.396 278.167 370.563L276.773 373.22ZM339.327 338.59C340.378 340.148 341.589 341.943 342.73 343.498C343.832 344.998 344.995 346.455 345.946 347.195L347.788 344.827C347.219 344.384 346.288 343.275 345.149 341.722C344.049 340.225 342.873 338.481 341.814 336.912L339.327 338.59ZM430.303 376.76C433.828 376.79 437.462 375.539 440.689 373.997C443.935 372.447 446.916 370.529 449.132 369.105L447.51 366.581C445.279 368.015 442.447 369.833 439.396 371.29C436.327 372.756 433.182 373.785 430.329 373.76L430.303 376.76ZM449.132 369.105C450.269 368.375 451.163 367.801 451.824 367.437C452.16 367.252 452.364 367.162 452.466 367.129C452.517 367.112 452.479 367.131 452.38 367.136C452.288 367.141 451.997 367.141 451.682 366.933L453.333 364.428C452.917 364.154 452.488 364.126 452.226 364.14C451.956 364.154 451.713 364.218 451.528 364.279C451.156 364.401 450.758 364.6 450.377 364.809C449.605 365.234 448.61 365.875 447.51 366.581L449.132 369.105ZM451.682 366.933C451.578 366.865 451.511 366.794 451.473 366.749C451.436 366.705 451.419 366.674 451.417 366.67C451.415 366.667 451.44 366.714 451.477 366.841C451.552 367.096 451.625 367.491 451.692 368.045C451.824 369.146 451.9 370.612 451.986 372.296L454.982 372.143C454.898 370.498 454.818 368.913 454.67 367.687C454.597 367.077 454.5 366.489 454.356 365.997C454.284 365.75 454.187 365.483 454.05 365.232C453.919 364.992 453.698 364.669 453.333 364.428L451.682 366.933ZM451.986 372.296C452.124 375.006 452.286 378.238 452.796 380.868L455.741 380.297C455.279 377.916 455.123 374.913 454.982 372.143L451.986 372.296ZM341.814 336.912C341.688 336.725 341.563 336.541 341.441 336.36L338.955 338.04C339.077 338.219 339.201 338.403 339.327 338.59L341.814 336.912ZM338.969 333.76C338.918 333.583 338.932 333.585 338.937 333.679C338.938 333.703 338.956 333.951 338.825 334.252C338.75 334.425 338.606 334.657 338.345 334.845C338.074 335.04 337.776 335.114 337.52 335.118C337.089 335.124 336.806 334.935 336.772 334.913C336.728 334.885 336.698 334.862 336.684 334.85C336.676 334.844 336.67 334.839 336.667 334.836C336.665 334.835 336.664 334.833 336.663 334.833C336.662 334.832 336.662 334.832 336.662 334.832C336.662 334.832 336.662 334.832 336.663 334.833C336.664 334.833 336.665 334.834 336.666 334.836C336.669 334.838 336.673 334.842 336.677 334.847C336.687 334.857 336.7 334.871 336.717 334.89C336.75 334.927 336.792 334.976 336.843 335.04C337.287 335.587 338.026 336.664 338.955 338.04L341.441 336.36C340.544 335.032 339.72 333.823 339.172 333.149C339.034 332.979 338.879 332.799 338.722 332.651C338.645 332.578 338.53 332.476 338.385 332.384C338.286 332.321 337.948 332.111 337.475 332.118C337.197 332.122 336.881 332.202 336.594 332.408C336.318 332.607 336.161 332.856 336.075 333.052C335.925 333.398 335.935 333.715 335.941 333.831C335.955 334.11 336.029 334.393 336.091 334.606L338.969 333.76ZM338.955 338.039L339.327 338.59L341.814 336.912L341.441 336.361L338.955 338.039ZM283.079 546.708L283.083 546.708L283.433 543.729L283.43 543.728L283.079 546.708ZM177.651 398.967C177.771 398.953 177.648 398.976 177.483 398.961C177.453 398.958 177.232 398.942 176.98 398.822C176.847 398.758 176.577 398.604 176.371 398.283C176.129 397.907 176.085 397.475 176.179 397.106C176.257 396.795 176.415 396.59 176.493 396.5C176.58 396.399 176.662 396.331 176.708 396.296C176.799 396.225 176.876 396.183 176.899 396.17C176.978 396.128 177.027 396.113 176.937 396.147C176.879 396.169 176.8 396.198 176.685 396.24C176.232 396.405 175.431 396.697 174.387 397.153C172.301 398.064 169.249 399.626 165.95 402.171C159.33 407.278 151.783 416.296 149.017 431.758L151.97 432.286C154.59 417.639 161.684 409.251 167.783 404.546C170.844 402.185 173.671 400.739 175.588 399.903C176.545 399.485 177.276 399.218 177.712 399.059C177.819 399.02 177.921 398.983 178.003 398.952C178.052 398.933 178.197 398.879 178.325 398.81C178.361 398.79 178.448 398.742 178.546 398.666C178.595 398.628 178.68 398.558 178.769 398.454C178.848 398.362 179.008 398.155 179.087 397.842C179.181 397.471 179.137 397.038 178.894 396.66C178.686 396.338 178.415 396.183 178.279 396.117C178.023 395.994 177.794 395.977 177.753 395.973C177.544 395.954 177.328 395.984 177.305 395.987L177.651 398.967ZM365.124 549.238C331.957 550.827 305.471 545.414 273.929 540.46L273.464 543.424C304.86 548.354 331.718 553.842 365.267 552.234L365.124 549.238ZM220.43 514.109C211.918 507.144 205.196 497.425 206.801 481.701L203.817 481.396C202.084 498.373 209.456 509.006 218.531 516.431L220.43 514.109ZM494.839 438.033C494.839 441.07 494.675 446.692 494.755 451.883C494.795 454.498 494.897 457.067 495.116 459.237C495.327 461.33 495.666 463.292 496.299 464.52L498.965 463.146C498.625 462.485 498.315 461.058 498.101 458.936C497.895 456.89 497.795 454.418 497.755 451.837C497.675 446.634 497.839 441.246 497.839 438.033H494.839ZM478.275 532.136C475.223 534.285 470.516 536.224 464.9 537.924C459.315 539.615 452.951 541.034 446.673 542.189C434.109 544.502 421.998 545.74 417.351 546.007L417.523 549.002C422.302 548.727 434.537 547.473 447.216 545.14C453.558 543.972 460.039 542.53 465.77 540.795C471.47 539.07 476.549 537.02 480.002 534.59L478.275 532.136ZM417.351 546.007C407.832 546.554 398.505 547.638 365.124 549.238L365.267 552.234C398.602 550.636 408.189 549.539 417.523 549.002L417.351 546.007ZM217.782 454.195C217.797 453.711 218.066 451.522 218.535 448.167C218.996 444.872 219.633 440.57 220.352 435.963C221.792 426.735 223.554 416.343 224.893 410.377L221.966 409.72C220.603 415.795 218.827 426.277 217.388 435.501C216.667 440.12 216.028 444.438 215.564 447.752C215.109 451.005 214.805 453.412 214.783 454.104L217.782 454.195ZM206.801 481.701C206.86 481.118 206.93 480.55 207.008 479.995L204.037 479.577C203.954 480.169 203.88 480.776 203.817 481.396L206.801 481.701ZM207.008 479.995C208.028 472.752 210.577 467.753 212.92 463.934C213.51 462.971 214.086 462.086 214.631 461.243C215.171 460.408 215.687 459.605 216.132 458.843C217.002 457.354 217.733 455.807 217.782 454.195L214.783 454.104C214.759 454.916 214.373 455.906 213.542 457.33C213.136 458.024 212.657 458.772 212.112 459.614C211.573 460.447 210.976 461.365 210.362 462.365C207.891 466.395 205.134 471.79 204.037 479.577L207.008 479.995ZM496.299 464.52C498.177 468.164 503.689 473.067 506.161 485.181L509.101 484.581C506.529 471.981 500.339 465.812 498.965 463.146L496.299 464.52ZM506.161 485.181C506.646 487.554 507.005 490.194 507.181 493.138L510.176 492.959C509.992 489.878 509.614 487.097 509.101 484.581L506.161 485.181ZM507.181 493.138C507.64 500.816 504.587 507.56 499.813 513.551C495.025 519.557 488.586 524.705 482.467 529.149L484.23 531.576C490.393 527.101 497.107 521.758 502.159 515.421C507.223 509.067 510.693 501.613 510.176 492.959L507.181 493.138ZM482.467 529.149C481.04 530.185 479.635 531.179 478.275 532.136L480.002 534.59C481.365 533.63 482.785 532.625 484.23 531.576L482.467 529.149ZM534.175 502.246C531.17 514.091 518.856 520.819 506.635 524.57C500.6 526.423 494.75 527.498 490.403 528.11C488.231 528.415 486.44 528.604 485.196 528.717C484.573 528.773 484.088 528.81 483.76 528.833C483.596 528.845 483.472 528.852 483.389 528.857C483.348 528.86 483.317 528.862 483.297 528.863C483.288 528.863 483.28 528.864 483.276 528.864C483.274 528.864 483.272 528.864 483.271 528.864C483.271 528.864 483.271 528.864 483.27 528.864C483.27 528.864 483.271 528.864 483.348 530.362C483.426 531.86 483.426 531.86 483.427 531.86C483.428 531.86 483.428 531.86 483.429 531.86C483.431 531.86 483.434 531.86 483.437 531.86C483.444 531.859 483.453 531.859 483.465 531.858C483.49 531.857 483.525 531.855 483.571 531.852C483.662 531.846 483.796 531.838 483.969 531.826C484.316 531.802 484.822 531.763 485.466 531.705C486.753 531.588 488.594 531.394 490.821 531.08C495.27 530.454 501.284 529.351 507.515 527.438C519.824 523.66 533.651 516.514 537.083 502.984L534.175 502.246ZM273.929 540.46C258.827 538.088 247.848 533.487 239.566 528.588L238.039 531.171C246.635 536.254 257.972 540.991 273.464 543.424L273.929 540.46ZM239.566 528.588C230.775 523.389 225.04 517.881 220.43 514.109L218.531 516.431C222.959 520.054 228.988 525.818 238.039 531.171L239.566 528.588ZM156.12 516.363C157.804 524.231 164.252 528.929 172.37 531.632C180.499 534.338 190.653 535.179 200.484 535.13C210.339 535.08 219.987 534.136 227.161 533.206C230.751 532.74 233.727 532.278 235.809 531.931C236.849 531.758 237.666 531.614 238.225 531.513C238.504 531.462 238.719 531.422 238.864 531.395C238.937 531.381 238.992 531.371 239.03 531.363C239.049 531.36 239.063 531.357 239.073 531.355C239.078 531.354 239.082 531.353 239.084 531.353C239.086 531.353 239.087 531.352 239.087 531.352C239.088 531.352 239.089 531.352 238.802 529.88C238.516 528.407 238.516 528.407 238.516 528.407C238.515 528.407 238.515 528.407 238.514 528.408C238.512 528.408 238.509 528.409 238.505 528.409C238.496 528.411 238.483 528.413 238.466 528.417C238.431 528.423 238.379 528.433 238.309 528.446C238.17 528.473 237.962 528.511 237.69 528.561C237.144 528.66 236.341 528.801 235.316 528.972C233.265 529.314 230.324 529.77 226.775 530.23C219.672 531.151 210.157 532.081 200.469 532.13C190.756 532.178 180.986 531.338 173.318 528.785C165.637 526.228 160.413 522.087 159.054 515.735L156.12 516.363Z" fill="black"/>
<path d="M258.182 490.476C253.383 490.224 242.864 493.511 241.714 501.907C240.564 510.303 254.898 511.988 258.182 511.988C261.465 511.988 273.091 509.317 273.584 501.907C274.077 494.497 262.981 490.729 258.182 490.476Z" fill="#FF8DAF"/>
<path d="M465.588 492.545C460.789 492.292 450.27 495.579 449.12 503.975C447.97 512.371 462.304 514.056 465.588 514.056C468.872 514.056 480.497 511.385 480.99 503.975C481.483 496.565 470.387 492.797 465.588 492.545Z" fill="#FF8DAF"/>
</svg>
