<svg width="701" height="900" viewBox="0 0 701 900" fill="none" xmlns="http://www.w3.org/2000/svg">
<path d="M257.192 492.923C252.393 492.67 241.874 495.958 240.724 504.354C239.574 512.749 253.909 514.434 257.192 514.434C260.476 514.434 272.101 511.764 272.594 504.354C273.087 496.943 261.991 493.176 257.192 492.923Z" fill="#FF8DAF"/>
<path d="M228.023 439.598C227.075 416.297 231.602 388.524 231.602 388.524C231.602 388.524 237.512 393.64 246.399 393.957C255.286 394.274 258.702 392.301 265.231 386.869C269.591 383.241 270.482 377.506 271.068 373.73C271.36 371.851 271.577 370.457 272.108 370.047C272.619 369.652 274.262 370.515 276.786 371.841C282.161 374.663 291.53 379.582 302.472 378.934C318.553 377.982 328.628 369.162 333.377 359.924C338.126 350.686 337.844 337.526 336.847 334.132C336.39 332.577 337.688 334.445 339.515 337.149L339.887 337.7C341.997 340.827 344.663 344.778 346.183 345.96C349.158 348.274 354.284 352.218 364.715 352.76C375.146 353.301 383.565 348.263 389.844 339.02C389.562 345.542 392.717 352.374 395.085 357.262C397.453 362.15 399.982 365.292 405.672 370.169C411.362 375.046 420.048 375.127 429.632 375.209C436.011 375.264 443.19 370.65 447.638 367.792C449.873 366.356 451.418 365.363 451.824 365.63C452.489 366.068 452.63 368.839 452.8 372.169C452.94 374.909 453.099 378.026 453.585 380.532C454.662 386.081 458.191 390.828 461.713 394.35C465.236 397.872 471.467 402.343 480.002 401.53C488.537 400.717 493.008 398.143 493.008 398.143C493.797 403.698 495.717 420.903 494.091 436.753C493.502 442.501 492.271 448.676 491.109 454.504C489.068 464.747 487.24 473.916 489.485 477.801C490.283 479.182 491.365 480.388 492.549 481.709C496.597 486.222 501.839 492.066 501 510.721C500.669 518.085 497.749 523.591 493.056 527.847C493.056 527.847 532.81 523.263 534.945 502.564C537.081 481.865 513.834 480.777 512.111 477.801C510.388 474.825 553.227 455.766 550.913 423.966C548.599 392.165 522.86 381.95 516.625 384.84C510.39 387.729 524.829 375.209 516.625 363.804C508.421 352.399 493.907 360.417 498.535 354.549C503.162 348.68 519.721 315.002 506.738 292.915C493.756 270.827 469.322 264.326 447.638 267.933C425.954 271.539 416.673 281.238 416.128 283.434C415.583 285.63 416.128 261.572 393.568 257.575C371.007 253.578 363.389 269.291 361.173 272.51C358.957 275.73 331.513 227.284 281.659 243.271C231.804 259.258 232.147 307.192 234.408 309.269C236.669 311.347 217.149 298.463 204.625 306.879C192.101 315.295 196.531 331.262 197.812 332.628C199.094 333.995 171.643 324.725 161.546 352.76C151.449 380.795 173.975 397.754 176.794 397.426C179.09 397.159 155.197 401.863 149.81 431.971C144.422 462.079 171.417 481.928 170.134 481.799C168.851 481.671 149.992 493.657 155.434 514.434C160.875 535.212 206.618 540.931 233.059 529.688C224.581 523.508 218.838 515.131 219.082 504.354C219.332 493.271 222.964 488.852 226.354 484.727C228.475 482.146 230.502 479.68 231.545 475.769C232.949 470.506 232.207 467.242 231.035 462.079C229.944 457.276 228.48 450.829 228.023 439.598Z" fill="#FFF3F3"/>
<path fill-rule="evenodd" clip-rule="evenodd" d="M293.05 546.35C310.39 548.517 340.33 550.55 358.89 550.685C377.449 550.821 415.246 550.143 443.154 544.589C444.752 544.271 446.354 543.957 447.953 543.644C458.31 541.615 468.571 539.605 477.271 536.529C483.519 534.319 488.962 531.559 493.056 527.847C497.749 523.591 500.669 518.085 501 510.721C501.839 492.066 496.597 486.222 492.549 481.709C491.365 480.388 490.283 479.182 489.485 477.801C487.24 473.916 489.068 464.747 491.109 454.504C492.271 448.676 493.502 442.501 494.091 436.753C495.717 420.903 493.797 403.698 493.008 398.143C493.008 398.143 488.537 400.717 480.002 401.53C471.467 402.343 465.236 397.872 461.713 394.35C458.191 390.828 454.662 386.081 453.585 380.532C453.099 378.026 452.94 374.909 452.8 372.169C452.63 368.839 452.489 366.068 451.824 365.63C451.418 365.363 449.873 366.356 447.638 367.792C443.19 370.65 436.011 375.264 429.632 375.209C420.048 375.127 411.362 375.046 405.672 370.169C399.982 365.292 397.453 362.15 395.085 357.262C392.717 352.374 389.562 345.542 389.844 339.02C383.565 348.263 375.146 353.301 364.715 352.76C354.284 352.218 349.158 348.274 346.183 345.96C344.663 344.778 341.997 340.827 339.887 337.7L339.515 337.149C337.688 334.445 336.39 332.577 336.847 334.132C337.844 337.526 338.126 350.686 333.377 359.924C328.628 369.162 318.553 377.982 302.472 378.934C291.53 379.582 282.161 374.663 276.786 371.841C274.262 370.515 272.619 369.652 272.108 370.047C271.577 370.457 271.36 371.851 271.068 373.73C270.482 377.506 269.591 383.241 265.231 386.869C258.702 392.301 255.286 394.274 246.399 393.957C237.512 393.64 231.602 388.524 231.602 388.524C231.602 388.524 227.075 416.297 228.023 439.598C228.48 450.829 229.944 457.276 231.035 462.079C232.207 467.242 232.949 470.506 231.545 475.769C230.502 479.68 228.475 482.146 226.354 484.727C222.964 488.852 219.332 493.271 219.082 504.354C218.838 515.131 224.581 523.508 233.059 529.688C238.755 533.841 245.686 537.001 252.866 539.232C266.546 543.482 272.669 544.126 282.571 545.167L282.574 545.168C285.604 545.486 288.988 545.842 293.05 546.35ZM240.724 504.354C241.874 495.958 252.393 492.67 257.192 492.923C261.991 493.176 273.087 496.943 272.594 504.354C272.101 511.764 260.476 514.434 257.192 514.434C253.909 514.434 239.574 512.749 240.724 504.354ZM448.132 506.423C449.282 498.027 459.801 494.74 464.6 494.992C469.399 495.245 480.495 499.013 480.002 506.423C479.509 513.833 467.884 516.504 464.6 516.504C461.317 516.504 446.982 514.819 448.132 506.423Z" fill="#FFF9EC"/>
<path d="M464.6 494.992C459.801 494.74 449.282 498.027 448.132 506.423C446.982 514.819 461.317 516.504 464.6 516.504C467.884 516.504 479.509 513.833 480.002 506.423C480.495 499.013 469.399 495.245 464.6 494.992Z" fill="#FF8DAF"/>
<path d="M293.05 546.35L292.864 547.838L292.864 547.838L293.05 546.35ZM252.866 539.232L252.421 540.664L252.421 540.664L252.866 539.232ZM219.082 504.354L217.582 504.32L217.582 504.32L219.082 504.354ZM231.545 475.769L230.096 475.383L230.096 475.383L231.545 475.769ZM228.023 439.598L226.524 439.659L228.023 439.598ZM231.602 388.524L232.584 387.39L232.516 387.331L232.441 387.281L231.602 388.524ZM227.303 380.1C226.919 379.366 226.013 379.081 225.278 379.465C224.544 379.849 224.26 380.755 224.644 381.489L227.303 380.1ZM265.231 386.869L264.271 385.716L264.271 385.716L265.231 386.869ZM272.108 370.047L271.191 368.86L271.191 368.86L272.108 370.047ZM302.472 378.934L302.56 380.431L302.56 380.431L302.472 378.934ZM336.847 334.132L335.408 334.555L335.408 334.555L336.847 334.132ZM346.183 345.96L347.104 344.776L347.104 344.776L346.183 345.96ZM391.844 334.247C391.907 333.421 391.289 332.7 390.463 332.637C389.637 332.573 388.916 333.191 388.853 334.017L391.844 334.247ZM429.632 375.209L429.645 373.709L429.645 373.709L429.632 375.209ZM451.824 365.63L450.999 366.882L450.999 366.882L451.824 365.63ZM453.585 380.532L455.058 380.246L455.058 380.246L453.585 380.532ZM500.768 393.72C501.318 393.1 501.261 392.152 500.641 391.602C500.021 391.052 499.073 391.109 498.524 391.729L500.768 393.72ZM494.091 436.753L495.584 436.906L495.584 436.906L494.091 436.753ZM489.485 477.801L490.784 477.051L490.784 477.051L489.485 477.801ZM501 510.721L499.502 510.653L499.502 510.653L501 510.721ZM443.154 544.589L442.861 543.118L442.861 543.118L443.154 544.589ZM477.271 536.529L477.771 537.943L477.771 537.943L477.271 536.529ZM176.794 397.426L176.621 395.936L176.794 397.426ZM282.571 545.167L282.746 543.678L282.737 543.676L282.728 543.676L282.571 545.167ZM226.354 484.727L227.513 485.68L227.513 485.68L226.354 484.727ZM231.035 462.079L229.572 462.412L229.572 462.412L231.035 462.079ZM271.068 373.73L272.551 373.96L272.551 373.96L271.068 373.73ZM276.786 371.841L276.089 373.169L276.089 373.169L276.786 371.841ZM339.887 337.7L341.13 336.861L341.13 336.861L339.887 337.7ZM447.638 367.792L448.449 369.054L448.449 369.054L447.638 367.792ZM452.8 372.169L454.298 372.092L454.298 372.092L452.8 372.169ZM491.109 454.504L492.58 454.797L492.58 454.797L491.109 454.504ZM492.549 481.709L493.666 480.707L493.666 480.707L492.549 481.709ZM447.953 543.644L448.241 545.116L448.241 545.116L447.953 543.644ZM282.574 545.168L282.399 546.657L282.408 546.658L282.417 546.659L282.574 545.168ZM358.901 549.185C340.4 549.05 310.52 547.022 293.236 544.861L292.864 547.838C310.261 550.013 340.259 552.049 358.879 552.185L358.901 549.185ZM229.522 439.537C229.052 427.99 229.939 415.303 230.949 405.477C231.454 400.569 231.988 396.387 232.396 393.433C232.6 391.956 232.772 390.787 232.893 389.988C232.953 389.589 233.001 389.282 233.034 389.075C233.05 388.972 233.062 388.894 233.071 388.842C233.075 388.816 233.078 388.797 233.08 388.784C233.081 388.778 233.082 388.773 233.082 388.77C233.082 388.768 233.083 388.767 233.083 388.767C233.083 388.766 233.083 388.766 233.083 388.766C233.083 388.766 233.083 388.766 231.602 388.524C230.122 388.283 230.122 388.283 230.122 388.284C230.122 388.284 230.122 388.284 230.122 388.285C230.122 388.286 230.121 388.287 230.121 388.289C230.12 388.293 230.12 388.298 230.118 388.305C230.116 388.319 230.113 388.34 230.108 388.367C230.1 388.422 230.087 388.503 230.07 388.609C230.037 388.821 229.988 389.133 229.927 389.539C229.804 390.349 229.63 391.532 229.424 393.023C229.012 396.004 228.474 400.222 227.965 405.17C226.949 415.055 226.046 427.904 226.524 439.659L229.522 439.537ZM232.441 387.281C232.018 386.995 231.472 386.447 230.858 385.68C230.261 384.935 229.666 384.069 229.132 383.232C228.6 382.398 228.141 381.611 227.814 381.032C227.651 380.743 227.522 380.507 227.434 380.345C227.39 380.264 227.356 380.201 227.334 380.159C227.323 380.139 227.315 380.123 227.309 380.113C227.307 380.108 227.305 380.104 227.304 380.102C227.303 380.101 227.303 380.1 227.303 380.1C227.302 380.1 227.302 380.1 227.302 380.099C227.302 380.099 227.302 380.1 227.302 380.1C227.302 380.1 227.303 380.1 225.973 380.795C224.644 381.489 224.644 381.49 224.644 381.49C224.644 381.49 224.644 381.49 224.644 381.49C224.644 381.491 224.645 381.491 224.645 381.492C224.645 381.493 224.646 381.494 224.647 381.496C224.649 381.5 224.652 381.505 224.655 381.511C224.662 381.524 224.672 381.543 224.685 381.567C224.71 381.615 224.747 381.684 224.795 381.773C224.89 381.949 225.028 382.2 225.201 382.507C225.546 383.118 226.034 383.954 226.603 384.845C227.169 385.734 227.828 386.697 228.517 387.556C229.188 388.394 229.96 389.226 230.764 389.768L232.441 387.281ZM231.602 388.524C230.621 389.659 230.621 389.659 230.622 389.659C230.622 389.66 230.622 389.66 230.623 389.66C230.623 389.661 230.624 389.662 230.625 389.662C230.627 389.664 230.629 389.666 230.631 389.668C230.636 389.672 230.643 389.678 230.651 389.684C230.667 389.698 230.688 389.716 230.716 389.739C230.77 389.784 230.848 389.847 230.947 389.925C231.147 390.081 231.434 390.299 231.805 390.558C232.546 391.076 233.622 391.763 234.987 392.458C237.713 393.847 241.627 395.288 246.345 395.456L246.452 392.458C242.284 392.309 238.8 391.034 236.349 389.785C235.126 389.162 234.169 388.55 233.524 388.099C233.202 387.874 232.959 387.69 232.8 387.565C232.721 387.503 232.662 387.455 232.626 387.425C232.608 387.411 232.595 387.4 232.588 387.394C232.585 387.391 232.583 387.389 232.582 387.389C232.582 387.388 232.582 387.388 232.582 387.389C232.582 387.389 232.582 387.389 232.583 387.389C232.583 387.389 232.583 387.39 232.583 387.39C232.584 387.39 232.584 387.39 231.602 388.524ZM246.345 395.456C250.907 395.619 254.217 395.2 257.265 393.958C260.28 392.73 262.92 390.743 266.19 388.022L264.271 385.716C261.013 388.427 258.681 390.142 256.133 391.18C253.62 392.204 250.777 392.613 246.452 392.458L246.345 395.456ZM302.56 380.431C319.214 379.445 329.739 370.28 334.711 360.61L332.043 359.238C327.516 368.045 317.892 376.518 302.383 377.436L302.56 380.431ZM334.711 360.61C337.209 355.749 338.354 349.933 338.762 344.959C339.165 340.027 338.862 335.67 338.286 333.709L335.408 334.555C335.829 335.987 336.165 339.908 335.772 344.714C335.382 349.478 334.293 354.861 332.043 359.238L334.711 360.61ZM345.262 347.144C348.351 349.546 353.769 353.693 364.637 354.258L364.793 351.262C354.798 350.742 349.964 347.001 347.104 344.776L345.262 347.144ZM364.637 354.258C375.7 354.832 384.577 349.443 391.085 339.863L388.603 338.177C382.553 347.084 374.593 351.771 364.793 351.262L364.637 354.258ZM389.844 339.02C391.335 339.188 391.335 339.188 391.335 339.188C391.335 339.188 391.335 339.188 391.335 339.188C391.335 339.188 391.335 339.188 391.335 339.187C391.335 339.187 391.335 339.186 391.335 339.185C391.335 339.184 391.336 339.181 391.336 339.177C391.337 339.171 391.338 339.16 391.339 339.147C391.342 339.12 391.347 339.081 391.353 339.03C391.364 338.93 391.38 338.784 391.4 338.606C391.439 338.248 391.493 337.759 391.55 337.227C391.663 336.174 391.791 334.929 391.844 334.247L388.853 334.017C388.804 334.646 388.681 335.844 388.567 336.908C388.511 337.435 388.457 337.921 388.418 338.276C388.398 338.453 388.382 338.597 388.371 338.697C388.366 338.747 388.361 338.786 388.358 338.812C388.357 338.825 388.356 338.835 388.355 338.842C388.354 338.846 388.354 338.848 388.354 338.85C388.354 338.851 388.354 338.851 388.354 338.852C388.354 338.852 388.354 338.852 388.354 338.852C388.354 338.852 388.354 338.852 388.354 338.852C388.354 338.852 388.354 338.852 389.844 339.02ZM388.346 338.955C388.044 345.913 391.391 353.077 393.735 357.916L396.435 356.608C394.043 351.67 391.079 345.172 391.343 339.085L388.346 338.955ZM393.735 357.916C396.217 363.038 398.896 366.337 404.696 371.308L406.648 369.03C401.068 364.247 398.69 361.261 396.435 356.608L393.735 357.916ZM404.696 371.308C407.833 373.997 411.732 375.306 415.959 375.969C420.17 376.629 424.855 376.668 429.62 376.709L429.645 373.709C424.826 373.668 420.375 373.625 416.424 373.005C412.49 372.388 409.201 371.218 406.648 369.03L404.696 371.308ZM452.112 380.817C453.271 386.791 457.038 391.796 460.653 395.411L462.774 393.289C459.344 389.859 456.052 385.371 455.058 380.246L452.112 380.817ZM460.653 395.411C464.322 399.08 470.971 403.897 480.144 403.023L479.86 400.037C471.964 400.789 466.149 396.665 462.774 393.289L460.653 395.411ZM480.144 403.023C484.537 402.605 487.903 401.732 490.19 400.951C491.333 400.562 492.206 400.195 492.802 399.921C493.101 399.784 493.33 399.67 493.489 399.587C493.568 399.546 493.631 399.513 493.675 399.488C493.697 399.476 493.715 399.466 493.729 399.459C493.736 399.455 493.741 399.452 493.746 399.449C493.748 399.448 493.75 399.447 493.752 399.446C493.753 399.445 493.753 399.445 493.754 399.444C493.754 399.444 493.755 399.444 493.755 399.444C493.756 399.443 493.756 399.443 493.008 398.143C492.259 396.843 492.26 396.843 492.26 396.843C492.26 396.843 492.26 396.843 492.261 396.842C492.261 396.842 492.261 396.842 492.262 396.842C492.262 396.841 492.263 396.841 492.263 396.841C492.263 396.841 492.262 396.842 492.26 396.843C492.256 396.845 492.248 396.849 492.235 396.856C492.21 396.87 492.168 396.893 492.109 396.924C491.99 396.985 491.803 397.078 491.549 397.195C491.041 397.429 490.263 397.757 489.221 398.112C487.139 398.822 484.002 399.642 479.86 400.037L480.144 403.023ZM493.863 399.376C496.292 397.689 497.998 396.298 499.107 395.317C499.662 394.827 500.067 394.439 500.338 394.168C500.474 394.032 500.576 393.926 500.647 393.851C500.683 393.813 500.71 393.783 500.73 393.761C500.74 393.75 500.749 393.741 500.755 393.734C500.758 393.731 500.761 393.728 500.763 393.726C500.764 393.724 500.765 393.723 500.766 393.722C500.766 393.722 500.766 393.721 500.767 393.721C500.767 393.721 500.767 393.72 500.767 393.72C500.768 393.72 500.768 393.72 499.646 392.724C498.524 391.729 498.524 391.729 498.524 391.728C498.524 391.728 498.524 391.728 498.524 391.728C498.525 391.728 498.525 391.727 498.525 391.727C498.526 391.727 498.526 391.726 498.526 391.726C498.526 391.726 498.526 391.726 498.526 391.727C498.525 391.728 498.522 391.731 498.517 391.737C498.507 391.747 498.49 391.766 498.465 391.793C498.414 391.846 498.333 391.93 498.219 392.044C497.99 392.273 497.629 392.62 497.119 393.07C496.1 393.972 494.487 395.29 492.152 396.911L493.863 399.376ZM491.523 398.354C492.306 403.866 494.206 420.93 492.599 436.6L495.584 436.906C497.228 420.875 495.288 403.529 494.493 397.932L491.523 398.354ZM442.861 543.118C415.116 548.64 377.452 549.32 358.901 549.185L358.879 552.185C377.447 552.321 415.377 551.647 443.446 546.06L442.861 543.118ZM536.437 502.718C537.002 497.244 535.892 492.956 533.794 489.588C531.711 486.244 528.724 483.92 525.709 482.228C522.701 480.541 519.584 479.441 517.206 478.601C515.99 478.171 515.014 477.826 514.285 477.501C513.923 477.339 513.672 477.205 513.507 477.095C513.327 476.974 513.351 476.949 513.409 477.05L510.813 478.553C511.086 479.025 511.494 479.358 511.842 479.59C512.206 479.833 512.629 480.047 513.064 480.241C513.927 480.626 515.034 481.015 516.206 481.429C518.605 482.277 521.489 483.301 524.241 484.845C526.987 486.385 529.519 488.399 531.248 491.174C532.961 493.925 533.956 497.535 533.453 502.41L536.437 502.718ZM513.409 477.05C513.79 477.708 513.326 478.188 513.515 477.918C513.624 477.763 513.88 477.488 514.36 477.072C515.302 476.256 516.764 475.186 518.651 473.822C522.379 471.126 527.563 467.427 532.732 462.812C543.016 453.63 553.619 440.49 552.409 423.857L549.417 424.075C550.521 439.242 540.861 451.532 530.734 460.574C525.699 465.07 520.641 468.681 516.893 471.39C515.042 472.728 513.459 473.884 512.396 474.804C511.875 475.256 511.389 475.726 511.061 476.193C510.813 476.545 510.216 477.522 510.813 478.553L513.409 477.05ZM552.409 423.857C551.221 407.532 544.001 396.654 536.192 390.235C532.3 387.036 528.257 384.94 524.738 383.832C522.98 383.277 521.326 382.961 519.868 382.889C518.433 382.817 517.078 382.977 515.994 383.479L517.256 386.201C517.731 385.98 518.544 385.827 519.719 385.885C520.871 385.942 522.269 386.199 523.837 386.693C526.97 387.68 530.675 389.584 534.287 392.553C541.485 398.469 548.291 408.599 549.417 424.075L552.409 423.857ZM515.994 383.479C515.634 383.646 515.415 383.725 515.298 383.757C515.104 383.809 515.356 383.69 515.734 383.843C515.984 383.944 516.219 384.137 516.368 384.409C516.5 384.651 516.513 384.861 516.513 384.946C516.513 385.082 516.48 385.099 516.556 384.895C516.694 384.521 516.971 383.967 517.389 383.133C517.787 382.339 518.271 381.368 518.741 380.275C520.605 375.944 522.422 369.295 517.843 362.928L515.407 364.68C519.032 369.719 517.732 375.032 515.986 379.09C515.553 380.094 515.104 380.997 514.707 381.789C514.33 382.541 513.952 383.285 513.741 383.857C513.642 384.125 513.512 384.527 513.513 384.952C513.513 385.181 513.551 385.511 513.735 385.848C513.936 386.215 514.25 386.479 514.609 386.624C515.205 386.865 515.794 386.73 516.078 386.653C516.438 386.557 516.836 386.395 517.256 386.201L515.994 383.479ZM517.843 362.928C513.331 356.655 507.053 355.762 502.825 355.601C501.802 355.562 500.799 355.565 500.095 355.549C499.295 355.531 498.88 355.488 498.687 355.43C498.602 355.405 498.738 355.425 498.895 355.599C499.103 355.828 499.156 356.108 499.142 356.286C499.132 356.403 499.101 356.396 499.201 356.215C499.291 356.049 499.451 355.809 499.712 355.477L497.357 353.62C497.04 354.022 496.77 354.407 496.569 354.774C496.377 355.126 496.191 355.56 496.152 356.04C496.107 356.584 496.255 357.152 496.67 357.61C497.034 358.013 497.489 358.203 497.824 358.303C498.468 358.497 499.29 358.532 500.028 358.548C500.862 358.567 501.696 358.561 502.711 358.599C506.634 358.748 511.716 359.548 515.407 364.68L517.843 362.928ZM499.712 355.477C502.188 352.338 507.56 342.247 510.692 330.191C513.822 318.144 514.826 303.715 508.032 292.154L505.445 293.675C511.633 304.202 510.849 317.655 507.789 329.437C504.73 341.209 499.509 350.891 497.357 353.62L499.712 355.477ZM508.032 292.154C494.645 269.38 469.494 262.777 447.392 266.453L447.884 269.412C469.149 265.875 492.866 272.274 505.445 293.675L508.032 292.154ZM447.392 266.453C436.368 268.286 428.441 271.678 423.168 274.936C420.534 276.564 418.552 278.163 417.176 279.528C416.489 280.209 415.94 280.844 415.533 281.408C415.152 281.936 414.811 282.515 414.672 283.073L417.584 283.796C417.582 283.804 417.65 283.6 417.965 283.164C418.255 282.762 418.69 282.251 419.288 281.658C420.483 280.473 422.28 279.011 424.744 277.489C429.668 274.447 437.223 271.185 447.884 269.412L447.392 266.453ZM414.672 283.073C414.672 283.073 414.673 283.071 414.674 283.068C414.674 283.066 414.676 283.061 414.677 283.055C414.681 283.044 414.687 283.023 414.698 282.994C414.706 282.973 414.769 282.794 414.928 282.604C415.093 282.406 415.678 281.871 416.526 282.15C417.099 282.339 417.329 282.794 417.344 282.82C417.44 282.994 417.462 283.131 417.443 283.05C417.436 283.02 417.423 282.96 417.404 282.854C417.342 282.507 417.202 281.576 417.02 280.605C416.63 278.533 415.915 275.485 414.476 272.222C411.582 265.659 405.731 258.206 393.829 256.098L393.306 259.052C403.965 260.94 409.122 267.515 411.731 273.432C413.044 276.409 413.705 279.213 414.072 281.16C414.267 282.198 414.35 282.818 414.451 283.381C414.473 283.503 414.497 283.631 414.525 283.746C414.54 283.809 414.594 284.049 414.722 284.279C414.752 284.334 414.998 284.806 415.587 285C416.449 285.284 417.051 284.742 417.232 284.525C417.406 284.316 417.485 284.107 417.509 284.042C417.544 283.947 417.568 283.859 417.584 283.796L414.672 283.073ZM393.829 256.098C382.132 254.026 374.162 257.061 368.829 261.146C363.581 265.165 360.939 270.205 359.937 271.66L362.408 273.361C363.623 271.596 365.897 267.17 370.653 263.527C375.323 259.95 382.442 257.127 393.306 259.052L393.829 256.098ZM359.937 271.66C360.139 271.366 360.489 271.175 360.85 271.165C361.103 271.158 361.229 271.245 361.154 271.206C361.015 271.133 360.71 270.911 360.186 270.424C359.17 269.479 357.776 267.972 355.91 266.016C352.23 262.159 346.959 256.826 340.162 251.889C326.541 241.996 306.722 233.658 281.2 241.842L282.117 244.699C306.449 236.896 325.279 244.788 338.399 254.316C344.971 259.09 350.093 264.265 353.739 268.087C355.537 269.97 357.04 271.595 358.143 272.621C358.679 273.119 359.24 273.592 359.771 273.868C360.031 274.003 360.442 274.177 360.932 274.164C361.531 274.147 362.068 273.855 362.408 273.361L359.937 271.66ZM281.2 241.842C255.796 249.989 243.111 266.323 237.103 280.915C234.107 288.192 232.772 295.03 232.332 300.201C232.112 302.785 232.113 304.976 232.25 306.617C232.318 307.434 232.422 308.146 232.561 308.717C232.631 309.001 232.716 309.282 232.825 309.535C232.922 309.76 233.092 310.097 233.393 310.374L235.423 308.165C235.582 308.311 235.615 308.429 235.581 308.35C235.559 308.299 235.521 308.19 235.476 308.005C235.386 307.638 235.3 307.092 235.239 306.368C235.119 304.927 235.112 302.908 235.321 300.456C235.738 295.556 237.01 289.021 239.877 282.057C245.596 268.166 257.667 252.539 282.117 244.699L281.2 241.842ZM233.393 310.374C233.454 310.429 233.428 310.412 233.379 310.349C233.364 310.331 233.258 310.2 233.18 309.992C233.118 309.824 232.891 309.063 233.523 308.431C234 307.955 234.577 307.999 234.613 308.001C234.755 308.006 234.855 308.033 234.871 308.037C234.917 308.049 234.921 308.054 234.849 308.025C234.553 307.907 234 307.641 233.095 307.226C231.366 306.431 228.678 305.247 225.505 304.264C219.257 302.329 210.65 301.023 203.789 305.634L205.462 308.124C211.124 304.319 218.54 305.247 224.617 307.13C227.607 308.056 230.158 309.178 231.843 309.952C232.646 310.32 233.346 310.655 233.733 310.81C233.832 310.85 233.971 310.903 234.115 310.94C234.18 310.957 234.32 310.991 234.493 310.998C234.559 311.001 235.157 311.04 235.644 310.553C236.287 309.911 236.062 309.132 235.99 308.941C235.904 308.709 235.779 308.548 235.735 308.493C235.628 308.357 235.504 308.239 235.423 308.165L233.393 310.374ZM203.789 305.634C197.03 310.176 194.86 316.775 194.544 322.312C194.386 325.073 194.685 327.598 195.11 329.534C195.322 330.502 195.571 331.341 195.819 332.002C195.943 332.332 196.073 332.633 196.206 332.892C196.327 333.127 196.495 333.416 196.718 333.654L198.906 331.602C198.969 331.669 198.953 331.673 198.874 331.52C198.807 331.391 198.723 331.201 198.628 330.947C198.437 330.441 198.227 329.743 198.04 328.89C197.666 327.185 197.399 324.936 197.539 322.483C197.819 317.59 199.697 311.998 205.462 308.124L203.789 305.634ZM196.718 333.654C196.681 333.615 196.543 333.465 196.448 333.215C196.334 332.913 196.276 332.413 196.579 331.93C196.829 331.53 197.182 331.386 197.297 331.345C197.437 331.294 197.544 331.282 197.57 331.28C197.623 331.274 197.554 331.282 197.192 331.244C196.646 331.186 195.498 331.031 194.246 330.914C191.627 330.669 187.856 330.505 183.694 331.214C179.526 331.925 174.941 333.516 170.73 336.796C166.512 340.081 162.745 345.003 160.134 352.251L162.957 353.268C165.395 346.499 168.846 342.066 172.574 339.162C176.31 336.253 180.401 334.819 184.198 334.172C188.001 333.524 191.483 333.669 193.966 333.901C195.265 334.023 196.131 334.149 196.879 334.227C197.166 334.257 197.565 334.297 197.884 334.263C197.976 334.253 198.137 334.231 198.318 334.166C198.474 334.109 198.855 333.946 199.12 333.523C199.438 333.017 199.381 332.489 199.255 332.155C199.148 331.871 198.983 331.684 198.906 331.602L196.718 333.654ZM160.134 352.251C154.909 366.758 158.124 378.48 163.048 386.513C165.499 390.512 168.372 393.597 170.836 395.675C172.066 396.712 173.215 397.515 174.18 398.058C174.661 398.329 175.123 398.549 175.544 398.7C175.919 398.833 176.44 398.977 176.968 398.916L176.621 395.936C176.796 395.916 176.811 395.966 176.551 395.873C176.338 395.798 176.036 395.66 175.651 395.443C174.884 395.012 173.89 394.326 172.769 393.381C170.532 391.494 167.876 388.649 165.605 384.945C161.085 377.571 158.085 366.796 162.957 353.268L160.134 352.251ZM148.333 431.707C145.546 447.283 151.15 460.17 157.192 469.067C160.215 473.519 163.366 476.999 165.67 479.352C166.82 480.525 167.769 481.428 168.361 482.004C168.675 482.31 168.847 482.485 168.923 482.573C169.007 482.67 168.867 482.537 168.772 482.289C168.753 482.239 168.457 481.503 169.024 480.827C169.546 480.205 170.26 480.305 170.283 480.307L169.985 483.292C170.047 483.298 170.788 483.392 171.323 482.755C171.903 482.063 171.606 481.302 171.574 481.217C171.453 480.9 171.234 480.659 171.193 480.611C171.017 480.407 170.745 480.139 170.455 479.856C169.837 479.254 168.93 478.392 167.813 477.252C165.586 474.978 162.565 471.638 159.674 467.381C153.886 458.859 148.686 446.767 151.286 432.235L148.333 431.707ZM170.283 480.307C169.968 480.275 169.699 480.341 169.576 480.374C169.418 480.416 169.264 480.472 169.124 480.531C168.841 480.648 168.517 480.811 168.171 481.008C167.473 481.404 166.594 481.983 165.617 482.733C163.662 484.233 161.254 486.463 159.063 489.376C154.668 495.219 151.117 503.874 153.982 514.814L156.885 514.054C154.308 504.217 157.466 496.49 161.461 491.179C163.465 488.514 165.672 486.473 167.444 485.113C168.33 484.432 169.093 483.934 169.651 483.617C169.932 483.458 170.14 483.357 170.271 483.302C170.338 483.275 170.362 483.269 170.351 483.272C170.344 483.274 170.314 483.282 170.264 483.288C170.221 483.294 170.12 483.305 169.985 483.292L170.283 480.307ZM253.311 537.799C246.243 535.604 239.472 532.507 233.943 528.476L232.176 530.901C238.038 535.174 245.129 538.399 252.421 540.664L253.311 537.799ZM233.943 528.476C225.725 522.486 220.352 514.526 220.581 504.387L217.582 504.32C217.324 515.736 223.437 524.53 232.176 530.901L233.943 528.476ZM153.982 514.814C155.475 520.515 159.698 525.046 165.368 528.45C171.041 531.857 178.288 534.216 186.12 535.548C201.764 538.207 220.11 536.824 233.646 531.069L232.472 528.308C219.567 533.795 201.821 535.174 186.623 532.59C179.034 531.3 172.172 529.037 166.912 525.878C161.648 522.718 158.112 518.742 156.885 514.054L153.982 514.814ZM499.502 510.653C499.19 517.601 496.458 522.737 492.048 526.735L494.064 528.958C499.04 524.446 502.149 518.569 502.499 510.788L499.502 510.653ZM492.048 526.735C488.161 530.261 482.925 532.938 476.771 535.115L477.771 537.943C484.113 535.7 489.763 532.857 494.064 528.958L492.048 526.735ZM533.453 502.41C532.972 507.076 530.373 510.915 526.542 514.092C522.699 517.28 517.706 519.722 512.685 521.559C507.676 523.391 502.719 524.593 499.006 525.336C497.152 525.708 495.614 525.964 494.543 526.126C494.007 526.208 493.589 526.266 493.306 526.303C493.165 526.322 493.057 526.335 492.986 526.344C492.951 526.349 492.924 526.352 492.907 526.354C492.898 526.355 492.892 526.356 492.888 526.356C492.886 526.356 492.885 526.356 492.884 526.356C492.884 526.357 492.884 526.357 492.884 526.357C492.884 526.357 492.884 526.357 493.056 527.847C493.228 529.337 493.228 529.337 493.229 529.337C493.229 529.337 493.23 529.336 493.231 529.336C493.233 529.336 493.235 529.336 493.238 529.336C493.244 529.335 493.252 529.334 493.263 529.333C493.284 529.33 493.314 529.326 493.354 529.322C493.433 529.312 493.55 529.297 493.7 529.277C494 529.237 494.438 529.177 494.994 529.092C496.105 528.923 497.689 528.66 499.595 528.278C503.403 527.515 508.518 526.277 513.715 524.376C518.899 522.48 524.245 519.895 528.457 516.401C532.68 512.898 535.851 508.402 536.437 502.718L533.453 502.41ZM257.271 491.425C254.568 491.283 250.465 492.118 246.872 494.078C243.261 496.047 239.902 499.307 239.238 504.15L242.21 504.557C242.697 501.004 245.172 498.422 248.308 496.712C251.461 494.992 255.017 494.311 257.113 494.421L257.271 491.425ZM239.238 504.15C238.883 506.741 239.746 508.858 241.247 510.487C242.702 512.066 244.729 513.168 246.76 513.944C250.821 515.495 255.415 515.934 257.192 515.934L257.192 512.934C255.686 512.934 251.471 512.532 247.831 511.141C246.012 510.446 244.466 509.553 243.454 508.454C242.488 507.407 241.99 506.164 242.21 504.557L239.238 504.15ZM257.192 515.934C259.076 515.934 263.021 515.209 266.58 513.529C270.085 511.875 273.788 509.011 274.091 504.453L271.098 504.254C270.908 507.106 268.551 509.282 265.3 510.816C262.102 512.325 258.592 512.934 257.192 512.934L257.192 515.934ZM274.091 504.453C274.396 499.867 271.091 496.641 267.624 494.653C264.109 492.637 259.907 491.564 257.271 491.425L257.113 494.421C259.277 494.535 263.022 495.472 266.131 497.255C269.289 499.066 271.285 501.43 271.098 504.254L274.091 504.453ZM282.728 543.676C272.877 542.64 266.861 542.009 253.311 537.799L252.421 540.664C266.232 544.955 272.462 545.612 282.414 546.659L282.728 543.676ZM220.581 504.387C220.702 499.013 221.64 495.342 222.906 492.551C224.178 489.746 225.814 487.747 227.513 485.68L225.195 483.775C223.504 485.833 221.628 488.105 220.174 491.312C218.714 494.532 217.711 498.612 217.582 504.32L220.581 504.387ZM227.513 485.68C229.631 483.103 231.859 480.414 232.994 476.156L230.096 475.383C229.145 478.947 227.32 481.19 225.195 483.775L227.513 485.68ZM232.994 476.156C234.5 470.508 233.674 466.927 232.498 461.747L229.572 462.412C230.741 467.557 231.397 470.503 230.096 475.383L232.994 476.156ZM232.498 461.747C231.416 456.986 229.974 450.638 229.522 439.537L226.524 439.659C226.987 451.019 228.472 457.566 229.572 462.412L232.498 461.747ZM266.19 388.022C271.049 383.979 271.977 377.65 272.551 373.96L269.586 373.499C268.986 377.362 268.133 382.503 264.271 385.716L266.19 388.022ZM272.551 373.96C272.7 372.996 272.817 372.253 272.955 371.698C273.022 371.424 273.082 371.253 273.127 371.155C273.178 371.043 273.165 371.126 273.025 371.234L271.191 368.86C270.785 369.173 270.546 369.584 270.398 369.907C270.244 370.245 270.132 370.617 270.042 370.977C269.866 371.691 269.728 372.584 269.586 373.499L272.551 373.96ZM273.025 371.234C272.633 371.537 272.282 371.424 272.442 371.452C272.54 371.469 272.749 371.529 273.111 371.682C273.827 371.983 274.802 372.493 276.089 373.169L277.484 370.513C276.246 369.863 275.137 369.279 274.273 368.916C273.845 368.736 273.389 368.572 272.956 368.496C272.586 368.432 271.838 368.36 271.191 368.86L273.025 371.234ZM276.089 373.169C281.443 375.98 291.154 381.107 302.56 380.431L302.383 377.436C291.906 378.057 282.879 373.345 277.484 370.513L276.089 373.169ZM338.643 338.539C339.695 340.097 340.906 341.892 342.047 343.447C343.148 344.947 344.311 346.404 345.262 347.144L347.104 344.776C346.535 344.333 345.605 343.224 344.465 341.672C343.366 340.174 342.189 338.43 341.13 336.861L338.643 338.539ZM429.62 376.709C433.144 376.74 436.778 375.488 440.006 373.947C443.251 372.396 446.233 370.478 448.449 369.054L446.827 366.53C444.595 367.964 441.764 369.782 438.713 371.24C435.644 372.706 432.499 373.734 429.645 373.709L429.62 376.709ZM448.449 369.054C449.585 368.324 450.48 367.75 451.141 367.386C451.477 367.201 451.68 367.111 451.782 367.078C451.834 367.061 451.795 367.08 451.696 367.085C451.605 367.09 451.313 367.09 450.999 366.882L452.649 364.377C452.233 364.103 451.805 364.076 451.542 364.089C451.272 364.103 451.029 364.167 450.844 364.228C450.472 364.351 450.074 364.549 449.694 364.758C448.922 365.183 447.926 365.824 446.827 366.53L448.449 369.054ZM450.999 366.882C450.894 366.814 450.827 366.743 450.79 366.698C450.752 366.654 450.735 366.623 450.733 366.619C450.732 366.616 450.756 366.663 450.793 366.79C450.868 367.045 450.942 367.44 451.008 367.994C451.14 369.095 451.216 370.561 451.302 372.245L454.298 372.092C454.214 370.447 454.134 368.863 453.987 367.636C453.914 367.026 453.817 366.438 453.672 365.946C453.6 365.7 453.503 365.432 453.366 365.181C453.235 364.941 453.014 364.618 452.649 364.377L450.999 366.882ZM451.302 372.245C451.44 374.955 451.602 378.187 452.112 380.817L455.058 380.246C454.596 377.866 454.44 374.863 454.298 372.092L451.302 372.245ZM492.599 436.6C492.018 442.264 490.803 448.368 489.638 454.211L492.58 454.797C493.739 448.985 494.985 442.737 495.584 436.906L492.599 436.6ZM489.638 454.211C488.622 459.311 487.638 464.238 487.198 468.378C486.978 470.452 486.887 472.38 487.009 474.07C487.129 475.743 487.464 477.301 488.186 478.552L490.784 477.051C490.384 476.359 490.106 475.314 490.001 473.855C489.897 472.412 489.971 470.68 490.181 468.695C490.604 464.719 491.555 459.94 492.58 454.797L489.638 454.211ZM488.186 478.552C489.076 480.091 490.27 481.414 491.433 482.71L493.666 480.707C492.46 479.363 491.49 478.272 490.784 477.051L488.186 478.552ZM491.433 482.71C493.441 484.95 495.604 487.37 497.211 491.46C498.824 495.567 499.915 501.469 499.502 510.653L502.499 510.788C502.925 501.318 501.813 494.97 500.003 490.363C498.187 485.739 495.705 482.981 493.666 480.707L491.433 482.71ZM476.771 535.115C468.195 538.147 458.05 540.138 447.665 542.172L448.241 545.116C458.57 543.093 468.947 541.063 477.771 537.943L476.771 535.115ZM447.665 542.172C446.066 542.485 444.462 542.799 442.861 543.118L443.446 546.06C445.042 545.742 446.642 545.429 448.241 545.116L447.665 542.172ZM464.679 493.495C461.976 493.352 457.873 494.188 454.28 496.148C450.669 498.117 447.31 501.377 446.646 506.219L449.619 506.627C450.105 503.073 452.58 500.492 455.716 498.781C458.869 497.062 462.425 496.38 464.521 496.49L464.679 493.495ZM446.646 506.219C446.291 508.811 447.154 510.927 448.655 512.557C450.11 514.135 452.137 515.237 454.168 516.013C458.229 517.564 462.823 518.004 464.6 518.004L464.6 515.004C463.094 515.004 458.879 514.601 455.239 513.211C453.42 512.516 451.874 511.622 450.862 510.524C449.896 509.476 449.398 508.233 449.619 506.627L446.646 506.219ZM464.6 518.004C466.484 518.004 470.429 517.278 473.988 515.599C477.493 513.945 481.196 511.08 481.499 506.523L478.506 506.323C478.316 509.176 475.959 511.352 472.708 512.886C469.51 514.394 466 515.004 464.6 515.004L464.6 518.004ZM481.499 506.523C481.804 501.936 478.499 498.711 475.032 496.722C471.517 494.706 467.315 493.633 464.679 493.495L464.521 496.49C466.685 496.604 470.43 497.541 473.539 499.325C476.697 501.136 478.693 503.5 478.506 506.323L481.499 506.523ZM341.13 336.861C341.004 336.675 340.88 336.49 340.757 336.309L338.272 337.989C338.393 338.169 338.517 338.352 338.643 338.539L341.13 336.861ZM338.286 333.709C338.234 333.532 338.249 333.534 338.253 333.628C338.255 333.652 338.273 333.9 338.142 334.201C338.066 334.374 337.922 334.606 337.661 334.794C337.39 334.989 337.092 335.063 336.836 335.067C336.406 335.073 336.123 334.885 336.088 334.863C336.044 334.834 336.014 334.811 336 334.8C335.992 334.793 335.987 334.788 335.983 334.785C335.982 334.784 335.98 334.783 335.98 334.782C335.979 334.781 335.978 334.781 335.978 334.781C335.978 334.781 335.979 334.781 335.979 334.782C335.98 334.783 335.981 334.784 335.983 334.785C335.985 334.788 335.989 334.791 335.994 334.796C336.004 334.807 336.017 334.821 336.033 334.839C336.066 334.876 336.108 334.926 336.16 334.989C336.604 335.536 337.342 336.613 338.272 337.989L340.757 336.309C339.86 334.982 339.036 333.772 338.489 333.098C338.351 332.928 338.196 332.749 338.038 332.6C337.961 332.527 337.846 332.426 337.702 332.334C337.602 332.27 337.265 332.06 336.792 332.067C336.514 332.071 336.198 332.151 335.911 332.358C335.634 332.556 335.477 332.806 335.392 333.002C335.241 333.347 335.251 333.664 335.257 333.78C335.271 334.059 335.345 334.343 335.408 334.555L338.286 333.709ZM338.271 337.988L338.644 338.54L341.13 336.861L340.758 336.31L338.271 337.988ZM282.396 546.657L282.399 546.657L282.749 543.678L282.746 543.678L282.396 546.657ZM282.417 546.659C285.447 546.978 288.818 547.333 292.864 547.838L293.236 544.861C289.158 544.352 285.761 543.994 282.731 543.676L282.417 546.659ZM176.968 398.916C177.088 398.902 176.964 398.925 176.799 398.91C176.769 398.907 176.548 398.892 176.297 398.771C176.163 398.707 175.894 398.553 175.687 398.232C175.445 397.856 175.402 397.424 175.495 397.055C175.574 396.744 175.732 396.54 175.809 396.45C175.896 396.348 175.978 396.28 176.024 396.245C176.115 396.174 176.192 396.132 176.216 396.119C176.294 396.077 176.343 396.063 176.253 396.097C176.196 396.119 176.116 396.147 176.001 396.189C175.549 396.354 174.748 396.646 173.704 397.102C171.618 398.013 168.565 399.575 165.267 402.12C158.646 407.227 151.099 416.245 148.333 431.707L151.286 432.235C153.907 417.588 161 409.2 167.099 404.495C170.16 402.134 172.987 400.689 174.904 399.852C175.861 399.434 176.592 399.167 177.028 399.008C177.135 398.969 177.238 398.932 177.319 398.901C177.368 398.882 177.513 398.828 177.641 398.759C177.678 398.739 177.765 398.691 177.862 398.616C177.912 398.577 177.997 398.507 178.086 398.403C178.165 398.311 178.324 398.105 178.403 397.791C178.497 397.421 178.453 396.987 178.21 396.61C178.003 396.287 177.731 396.132 177.595 396.067C177.339 395.943 177.11 395.926 177.069 395.922C176.86 395.903 176.644 395.933 176.621 395.936L176.968 398.916Z" fill="black"/>
</svg>
