<svg width="701" height="901" viewBox="0 0 701 901" fill="none" xmlns="http://www.w3.org/2000/svg">
<path d="M272 543.699C295.869 549.036 317.37 550.603 346.762 550.998C376.155 551.392 422.709 546.461 445.985 540.543C469.262 534.625 486.03 529.299 498.457 517.463C510.885 505.627 516.014 483.534 515.027 463.611C514.041 443.687 500.006 426.131 496.652 420.41C493.299 414.69 498.457 383.992 493.798 361.626C489.139 339.259 475.772 326.908 462.556 312.31C449.339 297.713 428.67 286.981 422.529 283.956C416.387 280.932 422.529 276.165 415.594 274.119C406.567 271.537 396.593 269.318 386.137 267.642C381.055 266.827 382.637 273.823 374.773 272.499C366.909 271.174 360.575 271.558 350.95 271.675C341.326 271.793 334.442 271.575 329.584 272.499C324.726 273.422 325.503 267.995 320.271 268.676C309.568 270.069 299.609 272.107 291.464 274.52C286.622 275.955 292.125 280.123 286.228 282.215C280.331 284.307 244.989 302.25 236.112 312.31C227.235 322.371 212.229 339.138 206.903 361.626C201.577 384.114 207.176 414.125 204.809 420.634C202.442 427.144 189.15 441.714 187.177 461.046C185.205 480.378 190.847 494.975 201.933 509.178C213.019 523.381 248.131 538.361 272 543.699Z" fill="#ECAE5A"/>
<path d="M320.271 268.676C320.271 268.676 309.213 243.095 299.697 245.02C290.182 246.946 291.464 274.52 291.464 274.52C299.609 272.107 309.568 270.069 320.271 268.676Z" fill="white"/>
<path d="M408.366 245.02C397.951 242.963 386.137 267.642 386.137 267.642C396.593 269.318 406.567 271.537 415.594 274.119C415.594 274.119 418.782 247.078 408.366 245.02Z" fill="white"/>
<path d="M346.783 549.498C317.438 549.104 296.052 547.54 272.327 542.235L271.673 545.162C295.685 550.532 317.303 552.102 346.742 552.497L346.783 549.498ZM272.327 542.235C260.511 539.592 245.869 534.551 232.812 528.406C219.689 522.23 208.425 515.057 203.115 508.255L200.751 510.101C206.527 517.501 218.361 524.92 231.534 531.12C244.771 537.35 259.621 542.468 271.673 545.162L272.327 542.235ZM203.115 508.255C192.221 494.297 186.743 480.075 188.669 461.198L185.685 460.894C183.666 480.68 189.474 495.653 200.751 510.101L203.115 508.255ZM188.669 461.198C189.626 451.826 193.332 443.56 197.153 436.767C199.064 433.368 200.984 430.372 202.606 427.77C204.192 425.224 205.563 422.951 206.219 421.147L203.399 420.122C202.872 421.572 201.693 423.562 200.06 426.183C198.462 428.748 196.492 431.822 194.538 435.296C190.627 442.25 186.701 450.934 185.685 460.894L188.669 461.198ZM206.219 421.147C206.593 420.118 206.772 418.756 206.858 417.236C206.945 415.687 206.94 413.845 206.885 411.79C206.777 407.709 206.462 402.567 206.245 397.063C205.807 385.942 205.751 372.998 208.363 361.971L205.444 361.28C202.729 372.741 202.809 386.047 203.248 397.181C203.469 402.804 203.778 407.791 203.887 411.87C203.941 413.896 203.943 415.642 203.863 417.068C203.781 418.524 203.617 419.523 203.399 420.122L206.219 421.147ZM208.363 361.971C213.591 339.897 228.337 323.39 237.237 313.303L234.987 311.318C226.134 321.352 210.868 338.378 205.444 361.28L208.363 361.971ZM237.237 313.303C239.32 310.941 243.056 308.023 247.695 304.903C252.304 301.803 257.702 298.573 263.022 295.582C273.706 289.577 283.915 284.627 286.73 283.629L285.727 280.801C282.644 281.895 272.233 286.963 261.552 292.967C256.191 295.981 250.719 299.254 246.021 302.413C241.353 305.552 237.342 308.649 234.987 311.318L237.237 313.303ZM421.866 285.302C427.999 288.323 448.436 298.95 461.444 313.317L463.667 311.304C450.242 296.476 429.341 285.64 423.191 282.611L421.866 285.302ZM461.444 313.317C474.759 328.023 487.771 340.05 492.329 361.932L495.266 361.32C490.506 338.468 476.786 325.792 463.667 311.304L461.444 313.317ZM492.329 361.932C494.619 372.921 494.504 386.021 494.215 397.222C494.072 402.784 493.886 407.907 493.947 411.98C493.978 414.019 494.071 415.841 494.271 417.356C494.466 418.829 494.781 420.184 495.358 421.169L497.946 419.652C497.686 419.206 497.428 418.35 497.245 416.963C497.067 415.616 496.977 413.927 496.947 411.934C496.887 407.943 497.07 402.921 497.214 397.299C497.502 386.129 497.637 372.697 495.266 361.32L492.329 361.932ZM495.358 421.169C496.22 422.639 497.783 424.895 499.543 427.592C501.334 430.335 503.408 433.648 505.404 437.39C509.406 444.892 513.052 454.036 513.529 463.685L516.525 463.536C516.017 453.261 512.152 443.666 508.051 435.978C505.996 432.126 503.87 428.732 502.056 425.952C500.21 423.125 498.761 421.042 497.946 419.652L495.358 421.169ZM513.529 463.685C514.506 483.421 509.39 504.979 497.423 516.377L499.492 518.549C512.379 506.275 517.521 483.647 516.525 463.536L513.529 463.685ZM497.423 516.377C485.316 527.907 468.926 533.163 445.616 539.089L446.355 541.996C469.599 536.087 486.743 530.691 499.492 518.549L497.423 516.377ZM445.616 539.089C422.49 544.968 376.07 549.891 346.783 549.498L346.742 552.497C376.239 552.893 422.927 547.953 446.355 541.996L445.616 539.089ZM320.271 268.676C321.648 268.081 321.648 268.08 321.648 268.08C321.648 268.08 321.648 268.079 321.647 268.078C321.647 268.077 321.646 268.076 321.645 268.074C321.644 268.07 321.641 268.065 321.639 268.058C321.633 268.045 321.624 268.025 321.613 268C321.591 267.949 321.558 267.874 321.515 267.778C321.429 267.586 321.303 267.306 321.14 266.952C320.813 266.244 320.337 265.238 319.736 264.037C318.536 261.641 316.83 258.452 314.815 255.315C312.809 252.193 310.449 249.046 307.927 246.787C305.457 244.574 302.5 242.923 299.4 243.55L299.995 246.49C301.652 246.155 303.646 246.98 305.925 249.021C308.153 251.017 310.342 253.904 312.291 256.937C314.229 259.954 315.882 263.041 317.053 265.38C317.638 266.548 318.1 267.525 318.416 268.209C318.573 268.55 318.694 268.818 318.775 269C318.815 269.09 318.846 269.159 318.866 269.205C318.876 269.228 318.883 269.245 318.888 269.256C318.89 269.262 318.892 269.266 318.893 269.268C318.894 269.269 318.894 269.27 318.894 269.271C318.894 269.271 318.894 269.271 318.895 269.271C318.895 269.271 318.894 269.271 320.271 268.676ZM286.73 283.629C288.416 283.03 289.543 282.19 290.168 281.055C290.768 279.963 290.758 278.834 290.741 278.087C290.721 277.194 290.712 276.867 290.82 276.604C290.851 276.527 290.961 276.234 291.89 275.958L291.038 273.082C289.546 273.524 288.528 274.29 288.045 275.463C287.639 276.451 287.729 277.566 287.742 278.155C287.759 278.891 287.717 279.286 287.539 279.609C287.386 279.888 286.989 280.353 285.727 280.801L286.73 283.629ZM291.89 275.958C299.944 273.572 309.823 271.548 320.465 270.163L320.078 267.188C309.312 268.589 299.273 270.642 291.038 273.082L291.89 275.958ZM386.137 267.642C387.49 268.289 387.49 268.289 387.49 268.289C387.49 268.289 387.49 268.289 387.49 268.289C387.491 268.289 387.491 268.288 387.492 268.287C387.493 268.284 387.494 268.281 387.497 268.275C387.502 268.265 387.51 268.249 387.521 268.227C387.542 268.183 387.574 268.117 387.617 268.029C387.703 267.855 387.832 267.597 388.001 267.269C388.337 266.611 388.831 265.671 389.456 264.547C390.709 262.297 392.481 259.33 394.563 256.436C396.656 253.528 399.014 250.765 401.427 248.866C403.871 246.942 406.112 246.104 408.075 246.492L408.657 243.549C405.412 242.908 402.271 244.383 399.571 246.508C396.84 248.658 394.291 251.678 392.128 254.683C389.956 257.702 388.123 260.776 386.835 263.088C386.191 264.246 385.68 265.218 385.33 265.902C385.155 266.244 385.02 266.514 384.928 266.7C384.882 266.794 384.847 266.866 384.822 266.915C384.81 266.94 384.801 266.959 384.795 266.972C384.792 266.979 384.789 266.984 384.787 266.987C384.787 266.989 384.786 266.991 384.785 266.992C384.785 266.992 384.785 266.993 384.785 266.993C384.785 266.994 384.784 266.994 386.137 267.642ZM385.9 269.123C396.3 270.791 406.216 272.996 415.182 275.561L416.007 272.677C406.919 270.077 396.886 267.846 386.375 266.161L385.9 269.123ZM415.17 275.558C416.705 276.011 417.242 276.533 417.472 276.897C417.734 277.309 417.81 277.817 417.861 278.752C417.906 279.584 417.928 280.829 418.456 282.033C419.021 283.323 420.08 284.423 421.866 285.302L423.191 282.611C421.907 281.978 421.43 281.347 421.203 280.829C420.938 280.225 420.911 279.583 420.857 278.589C420.808 277.699 420.736 276.443 420.007 275.291C419.247 274.092 417.951 273.251 416.019 272.681L415.17 275.558ZM408.075 246.492C409.963 246.865 411.421 248.386 412.503 251.007C413.579 253.614 414.142 257.002 414.39 260.449C414.636 263.874 414.566 267.252 414.432 269.782C414.365 271.045 414.282 272.091 414.217 272.819C414.184 273.183 414.156 273.467 414.136 273.659C414.125 273.755 414.118 273.827 414.112 273.875C414.109 273.899 414.107 273.917 414.106 273.929C414.105 273.934 414.105 273.939 414.105 273.941C414.105 273.942 414.104 273.943 414.104 273.944C414.104 273.944 414.104 273.944 414.104 273.944C414.104 273.944 414.104 273.944 415.594 274.119C417.084 274.295 417.084 274.294 417.084 274.294C417.084 274.294 417.084 274.293 417.084 274.292C417.084 274.291 417.084 274.29 417.085 274.288C417.085 274.284 417.086 274.278 417.087 274.271C417.088 274.256 417.091 274.235 417.094 274.208C417.1 274.153 417.108 274.074 417.119 273.971C417.141 273.766 417.171 273.467 417.205 273.088C417.273 272.329 417.358 271.246 417.427 269.941C417.565 267.337 417.641 263.826 417.382 260.234C417.125 256.663 416.532 252.905 415.276 249.863C414.026 246.834 411.978 244.205 408.657 243.549L408.075 246.492ZM299.4 243.55C296.275 244.182 294.292 246.863 293.017 249.854C291.717 252.901 290.964 256.69 290.523 260.311C290.08 263.951 289.941 267.517 289.913 270.165C289.898 271.492 289.911 272.593 289.928 273.364C289.936 273.75 289.946 274.054 289.953 274.262C289.957 274.367 289.96 274.447 289.962 274.502C289.963 274.53 289.964 274.551 289.965 274.566C289.965 274.573 289.965 274.579 289.966 274.583C289.966 274.585 289.966 274.586 289.966 274.588C289.966 274.588 289.966 274.589 289.966 274.589C289.966 274.59 289.966 274.59 291.464 274.52C292.963 274.451 292.963 274.451 292.963 274.451C292.963 274.451 292.963 274.451 292.963 274.45C292.963 274.45 292.963 274.449 292.962 274.448C292.962 274.445 292.962 274.441 292.962 274.435C292.961 274.423 292.961 274.404 292.96 274.38C292.958 274.33 292.955 274.256 292.951 274.158C292.944 273.961 292.935 273.671 292.927 273.299C292.911 272.555 292.898 271.487 292.912 270.198C292.941 267.616 293.076 264.168 293.501 260.674C293.929 257.16 294.64 253.695 295.776 251.03C296.937 248.31 298.362 246.821 299.995 246.49L299.4 243.55ZM320.465 270.163C321.498 270.029 322.108 270.204 322.538 270.436C323.025 270.698 323.413 271.097 323.965 271.696C324.464 272.236 325.154 273.011 326.11 273.52C327.144 274.07 328.361 274.258 329.864 273.972L329.304 271.025C328.378 271.201 327.87 271.058 327.52 270.871C327.092 270.643 326.738 270.277 326.17 269.661C325.656 269.104 324.954 268.33 323.963 267.796C322.915 267.231 321.66 266.982 320.078 267.188L320.465 270.163ZM329.864 273.972C332.163 273.535 334.994 273.36 338.512 273.284C342.045 273.209 346.108 273.234 350.968 273.175L350.932 270.175C346.168 270.234 341.977 270.209 338.448 270.285C334.903 270.361 331.863 270.539 329.304 271.025L329.864 273.972ZM350.968 273.175C360.673 273.057 366.829 272.682 374.524 273.978L375.022 271.02C366.989 269.667 360.476 270.059 350.932 270.175L350.968 273.175ZM374.524 273.978C376.699 274.344 378.386 274.161 379.757 273.557C381.117 272.957 381.996 272.015 382.655 271.216C383.385 270.332 383.725 269.82 384.228 269.44C384.579 269.175 385.017 268.981 385.9 269.123L386.375 266.161C384.716 265.895 383.447 266.27 382.419 267.046C381.544 267.708 380.835 268.709 380.341 269.307C379.778 269.99 379.261 270.497 378.547 270.811C377.844 271.121 376.78 271.316 375.022 271.02L374.524 273.978Z" fill="black"/>
</svg>
