<svg width="701" height="900" viewBox="0 0 701 900" fill="none" xmlns="http://www.w3.org/2000/svg">
<path d="M386.543 227.955C383.537 242.987 374.656 272.307 374.656 272.307C385.111 273.984 395.086 276.202 404.113 278.785C404.113 278.785 410.043 254.539 413.696 252.759C417.349 250.979 434.99 255.521 437.561 253.699C440.131 251.876 443.162 229.188 441.413 227.203C439.664 225.218 424.358 222.892 421.119 223.069C417.88 223.247 420.223 194.3 418.206 191.031C416.188 187.761 394.59 185.017 391.805 191.613C389.019 198.208 389.55 212.922 386.543 227.955Z" fill="#FBF5B9"/>
<path d="M325.929 272.307C325.929 272.307 318.933 244.078 316.077 232.371C313.22 220.663 309.19 190.435 306.4 188.494C303.61 186.552 286.291 188.649 282.065 189.996C277.839 191.343 282.913 221.024 280.28 222.317C277.647 223.609 262.455 223.831 259.422 226.639C256.389 229.446 258.67 254.355 264.308 255.013C269.945 255.671 280.188 251.255 284.744 251.349C289.3 251.443 291.085 259.053 293.246 265.348C295.407 271.643 297.122 278.151 297.122 278.151C305.266 275.738 315.225 273.7 325.929 272.307Z" fill="#FBF5B9"/>
<path d="M271.922 543.379C295.791 548.716 317.292 550.283 346.684 550.678C376.076 551.072 422.63 546.141 445.907 540.223C469.184 534.305 485.952 528.979 498.379 517.143C510.807 505.308 515.935 483.214 514.949 463.291C513.963 443.367 499.928 425.811 496.574 420.09C493.221 414.37 498.379 383.673 493.72 361.306C489.06 338.939 475.694 326.588 462.477 311.99C449.261 297.393 435.65 291.475 426.629 286.809C423.132 284.999 414.321 281.705 404.113 278.785C395.086 276.202 385.111 273.984 374.656 272.307C366.443 270.99 358.341 270.209 351.221 270.368C342.674 270.559 334.085 271.246 325.929 272.307C315.225 273.7 305.266 275.738 297.122 278.151C292.279 279.586 288.078 281.153 284.744 282.795C271.527 289.305 244.911 301.93 236.034 311.99C227.157 322.051 212.151 338.818 206.825 361.306C201.499 383.794 207.098 413.805 204.731 420.314C202.364 426.824 189.071 441.394 187.099 460.726C185.126 480.058 190.769 494.655 201.855 508.858C212.94 523.061 248.053 538.042 271.922 543.379Z" fill="#83D6A7"/>
<path d="M284.744 282.795L284.081 281.45L284.744 282.795ZM351.221 270.368L351.255 271.868L351.255 271.868L351.221 270.368ZM426.629 286.809L425.94 288.141L426.629 286.809ZM374.656 272.307L374.418 273.788L374.418 273.788L374.656 272.307ZM346.704 549.178C317.36 548.784 295.974 547.22 272.249 541.915L271.595 544.843C295.607 550.212 317.225 551.783 346.664 552.178L346.704 549.178ZM272.249 541.915C260.432 539.273 245.791 534.231 232.733 528.086C219.611 521.91 208.347 514.737 203.037 507.935L200.672 509.781C206.449 517.181 218.283 524.601 231.456 530.8C244.693 537.03 259.543 542.148 271.595 544.843L272.249 541.915ZM203.037 507.935C192.143 493.977 186.665 479.755 188.591 460.878L185.607 460.574C183.588 480.36 189.396 495.333 200.672 509.781L203.037 507.935ZM188.591 460.878C189.547 451.506 193.254 443.24 197.074 436.447C198.986 433.049 200.906 430.052 202.528 427.45C204.114 424.904 205.484 422.632 206.141 420.827L203.321 419.802C202.794 421.252 201.615 423.242 199.982 425.863C198.384 428.428 196.414 431.502 194.46 434.977C190.549 441.93 186.623 450.614 185.607 460.574L188.591 460.878ZM206.141 420.827C206.515 419.798 206.694 418.436 206.78 416.917C206.867 415.368 206.862 413.525 206.807 411.47C206.698 407.389 206.384 402.247 206.167 396.743C205.729 385.622 205.673 372.678 208.285 361.652L205.365 360.96C202.651 372.421 202.731 385.727 203.17 396.861C203.391 402.484 203.7 407.471 203.808 411.55C203.862 413.576 203.865 415.322 203.785 416.748C203.702 418.204 203.539 419.203 203.321 419.802L206.141 420.827ZM208.285 361.652C213.513 339.577 228.258 323.07 237.159 312.983L234.909 310.998C226.056 321.032 210.789 338.059 205.365 360.96L208.285 361.652ZM237.159 312.983C241.403 308.172 250.054 302.611 259.49 297.373C268.865 292.168 278.78 287.405 285.407 284.141L284.081 281.45C277.491 284.695 267.49 289.5 258.033 294.75C248.637 299.967 239.541 305.748 234.909 310.998L237.159 312.983ZM425.94 288.141C435.017 292.837 448.364 298.638 461.365 312.997L463.589 310.984C450.157 296.148 436.282 290.114 427.319 285.476L425.94 288.141ZM461.365 312.997C474.681 327.703 487.693 339.73 492.251 361.612L495.188 361C490.428 338.148 476.707 325.472 463.589 310.984L461.365 312.997ZM492.251 361.612C494.541 372.601 494.426 385.701 494.137 396.902C493.994 402.464 493.808 407.588 493.869 411.66C493.9 413.699 493.993 415.521 494.193 417.036C494.387 418.509 494.703 419.864 495.28 420.849L497.868 419.332C497.607 418.887 497.35 418.031 497.167 416.643C496.989 415.296 496.899 413.607 496.869 411.615C496.808 407.623 496.991 402.601 497.136 396.979C497.424 385.81 497.558 372.377 495.188 361L492.251 361.612ZM495.28 420.849C496.142 422.319 497.705 424.575 499.465 427.272C501.256 430.015 503.329 433.328 505.326 437.07C509.328 444.572 512.973 453.716 513.451 463.365L516.447 463.216C515.939 452.941 512.074 443.346 507.973 435.658C505.918 431.806 503.792 428.412 501.977 425.632C500.132 422.805 498.683 420.722 497.868 419.332L495.28 420.849ZM513.451 463.365C514.428 483.101 509.312 504.659 497.345 516.057L499.414 518.229C512.301 505.956 517.443 483.327 516.447 463.216L513.451 463.365ZM497.345 516.057C485.238 527.587 468.848 532.843 445.538 538.769L446.277 541.677C469.521 535.767 486.665 530.371 499.414 518.229L497.345 516.057ZM445.538 538.769C422.412 544.649 375.992 549.571 346.704 549.178L346.664 552.178C376.161 552.574 422.849 547.633 446.277 541.677L445.538 538.769ZM326.122 273.794C334.228 272.74 342.764 272.058 351.255 271.868L351.188 268.868C342.584 269.061 333.942 269.752 325.735 270.819L326.122 273.794ZM325.929 272.307C327.385 271.946 327.385 271.946 327.385 271.946C327.384 271.946 327.384 271.945 327.384 271.945C327.384 271.944 327.384 271.943 327.383 271.941C327.382 271.938 327.381 271.932 327.38 271.926C327.376 271.912 327.371 271.892 327.364 271.865C327.351 271.811 327.331 271.731 327.305 271.626C327.253 271.417 327.177 271.108 327.078 270.71C326.882 269.916 326.597 268.767 326.247 267.353C325.547 264.523 324.583 260.629 323.53 256.369C321.424 247.848 318.962 237.866 317.534 232.015L314.62 232.726C316.048 238.582 318.512 248.568 320.618 257.089C321.671 261.349 322.634 265.244 323.335 268.074C323.685 269.488 323.97 270.637 324.166 271.432C324.265 271.829 324.341 272.138 324.393 272.348C324.419 272.453 324.439 272.533 324.452 272.586C324.459 272.613 324.464 272.634 324.468 272.647C324.469 272.654 324.471 272.659 324.471 272.663C324.472 272.664 324.472 272.666 324.472 272.666C324.472 272.667 324.473 272.667 324.473 272.667C324.473 272.668 324.473 272.668 325.929 272.307ZM317.534 232.015C316.119 226.216 314.414 215.825 312.688 206.497C311.831 201.863 310.97 197.499 310.143 194.161C309.731 192.497 309.318 191.048 308.906 189.936C308.701 189.381 308.483 188.873 308.248 188.45C308.035 188.065 307.72 187.585 307.256 187.262L305.543 189.725C305.428 189.645 305.471 189.628 305.625 189.905C305.757 190.144 305.915 190.496 306.092 190.976C306.447 191.934 306.828 193.257 307.231 194.883C308.034 198.125 308.882 202.413 309.738 207.043C311.44 216.241 313.178 226.818 314.62 232.726L317.534 232.015ZM307.256 187.262C306.621 186.821 305.767 186.599 304.975 186.466C304.131 186.324 303.133 186.249 302.054 186.22C299.894 186.163 297.274 186.29 294.642 186.517C289.423 186.968 283.893 187.839 281.61 188.567L282.521 191.425C284.463 190.806 289.706 189.955 294.9 189.506C297.475 189.284 299.971 189.166 301.975 189.219C302.979 189.246 303.824 189.315 304.478 189.425C304.804 189.479 305.059 189.541 305.251 189.603C305.346 189.633 305.417 189.662 305.468 189.685C305.493 189.697 305.511 189.706 305.524 189.714C305.531 189.717 305.535 189.72 305.538 189.722C305.541 189.724 305.543 189.725 305.543 189.725L307.256 187.262ZM281.61 188.567C280.925 188.785 280.45 189.257 280.132 189.732C279.817 190.2 279.601 190.751 279.441 191.305C279.123 192.412 278.958 193.82 278.876 195.353C278.711 198.436 278.872 202.389 279.077 206.256C279.285 210.166 279.537 213.985 279.575 216.931C279.595 218.407 279.559 219.591 279.452 220.419C279.397 220.839 279.333 221.095 279.283 221.228C279.212 221.419 279.254 221.15 279.619 220.97L280.941 223.663C281.635 223.322 281.946 222.67 282.092 222.283C282.259 221.839 282.36 221.323 282.427 220.805C282.563 219.757 282.595 218.4 282.575 216.891C282.535 213.866 282.277 209.938 282.073 206.097C281.867 202.215 281.717 198.414 281.871 195.513C281.949 194.053 282.101 192.912 282.325 192.133C282.437 191.744 282.547 191.517 282.623 191.403C282.697 191.294 282.677 191.376 282.521 191.425L281.61 188.567ZM279.619 220.97C279.478 221.04 279.119 221.155 278.457 221.288C277.831 221.414 277.048 221.534 276.138 221.656C274.283 221.904 272.13 222.13 269.814 222.422C267.552 222.707 265.224 223.045 263.254 223.499C262.268 223.726 261.339 223.989 260.536 224.303C259.754 224.608 258.983 225.001 258.403 225.538L260.441 227.74C260.619 227.575 260.987 227.347 261.626 227.097C262.245 226.856 263.021 226.631 263.927 226.423C265.741 226.005 267.944 225.681 270.189 225.398C272.379 225.122 274.707 224.874 276.536 224.629C277.468 224.505 278.327 224.374 279.048 224.229C279.733 224.092 280.424 223.917 280.941 223.663L279.619 220.97ZM258.403 225.538C257.665 226.221 257.292 227.318 257.068 228.303C256.823 229.374 256.679 230.677 256.615 232.096C256.485 234.942 256.669 238.431 257.127 241.832C257.583 245.224 258.323 248.615 259.341 251.24C259.849 252.547 260.454 253.739 261.181 254.654C261.897 255.555 262.872 256.356 264.134 256.503L264.482 253.523C264.334 253.506 264.004 253.384 263.529 252.787C263.064 252.202 262.59 251.318 262.138 250.154C261.238 247.835 260.54 244.7 260.1 241.432C259.662 238.173 259.492 234.867 259.612 232.232C259.672 230.911 259.803 229.802 259.992 228.97C260.087 228.555 260.189 228.241 260.288 228.018C260.391 227.783 260.458 227.724 260.441 227.74L258.403 225.538ZM264.134 256.503C265.758 256.692 267.623 256.511 269.498 256.182C271.388 255.851 273.391 255.349 275.313 254.843C277.26 254.33 279.1 253.819 280.759 253.436C282.439 253.047 283.776 252.829 284.713 252.849L284.775 249.849C283.434 249.822 281.783 250.12 280.084 250.513C278.365 250.91 276.438 251.444 274.549 251.942C272.637 252.446 270.737 252.919 268.979 253.227C267.206 253.538 265.676 253.663 264.482 253.523L264.134 256.503ZM285.407 284.141C288.641 282.548 292.757 281.009 297.548 279.59L296.695 276.713C291.802 278.163 287.515 279.758 284.081 281.45L285.407 284.141ZM297.548 279.59C305.601 277.203 315.48 275.179 326.122 273.794L325.735 270.819C314.97 272.22 304.931 274.273 296.695 276.713L297.548 279.59ZM351.255 271.868C358.252 271.711 366.256 272.479 374.418 273.788L374.893 270.826C366.629 269.5 358.431 268.707 351.188 268.868L351.255 271.868ZM374.656 272.307C376.092 272.742 376.092 272.742 376.092 272.741C376.092 272.741 376.092 272.741 376.092 272.74C376.092 272.739 376.093 272.738 376.093 272.736C376.094 272.732 376.096 272.727 376.098 272.72C376.102 272.706 376.109 272.684 376.117 272.656C376.134 272.6 376.16 272.516 376.193 272.406C376.259 272.187 376.356 271.864 376.48 271.448C376.73 270.615 377.089 269.409 377.529 267.915C378.41 264.927 379.616 260.787 380.916 256.175C383.511 246.968 386.498 235.829 388.014 228.249L385.072 227.66C383.582 235.113 380.625 246.151 378.028 255.361C376.732 259.958 375.53 264.087 374.652 267.067C374.213 268.556 373.855 269.758 373.606 270.588C373.482 271.002 373.386 271.324 373.32 271.541C373.287 271.65 373.262 271.733 373.246 271.789C373.237 271.816 373.231 271.837 373.227 271.851C373.225 271.858 373.223 271.864 373.222 271.867C373.221 271.869 373.221 271.87 373.221 271.871C373.221 271.871 373.22 271.872 373.22 271.872C373.22 271.872 373.22 271.872 374.656 272.307ZM388.014 228.249C389.536 220.639 390.161 213.117 390.75 206.758C391.047 203.563 391.332 200.678 391.713 198.186C392.096 195.681 392.563 193.671 393.186 192.196L390.423 191.029C389.653 192.852 389.142 195.155 388.748 197.733C388.351 200.325 388.059 203.294 387.763 206.481C387.17 212.886 386.557 220.237 385.072 227.66L388.014 228.249ZM393.186 192.196C393.595 191.229 394.848 190.326 397.189 189.734C399.443 189.163 402.307 188.989 405.226 189.121C408.134 189.252 411.004 189.682 413.242 190.266C414.364 190.559 415.287 190.88 415.963 191.201C416.3 191.361 416.548 191.509 416.72 191.635C416.899 191.767 416.94 191.835 416.929 191.818L419.482 190.243C418.99 189.444 418.087 188.889 417.25 188.492C416.347 188.062 415.23 187.684 414 187.363C411.534 186.719 408.452 186.263 405.361 186.124C402.279 185.985 399.095 186.157 396.453 186.825C393.898 187.472 391.407 188.699 390.423 191.029L393.186 192.196ZM416.929 191.818C416.923 191.808 416.941 191.835 416.973 191.924C417.004 192.008 417.04 192.126 417.077 192.283C417.153 192.598 417.225 193.015 417.289 193.536C417.416 194.576 417.501 195.924 417.558 197.495C417.671 200.639 417.668 204.52 417.704 208.357C417.74 212.16 417.813 215.928 418.088 218.743C418.224 220.136 418.417 221.396 418.718 222.335C418.865 222.795 419.074 223.297 419.4 223.707C419.745 224.142 420.349 224.614 421.201 224.567L421.036 221.571C421.483 221.547 421.726 221.813 421.749 221.842C421.752 221.846 421.678 221.741 421.575 221.421C421.376 220.798 421.205 219.799 421.074 218.452C420.814 215.788 420.74 212.148 420.704 208.329C420.669 204.542 420.671 200.584 420.556 197.387C420.498 195.787 420.409 194.339 420.266 193.171C420.195 192.587 420.107 192.047 419.994 191.579C419.887 191.137 419.733 190.65 419.482 190.243L416.929 191.818ZM421.201 224.567C421.865 224.531 423.31 224.626 425.236 224.851C427.121 225.071 429.361 225.403 431.557 225.801C433.757 226.2 435.882 226.662 437.548 227.137C438.383 227.376 439.07 227.609 439.582 227.828C440.155 228.073 440.308 228.219 440.287 228.195L442.538 226.212C442.08 225.691 441.372 225.33 440.761 225.069C440.088 224.781 439.268 224.509 438.371 224.253C436.574 223.739 434.342 223.258 432.092 222.849C429.837 222.44 427.535 222.099 425.584 221.871C423.674 221.648 421.991 221.519 421.036 221.571L421.201 224.567ZM440.287 228.195C440.163 228.054 440.181 227.986 440.236 228.193C440.281 228.361 440.326 228.62 440.362 228.983C440.432 229.705 440.449 230.689 440.411 231.876C440.335 234.242 440.046 237.265 439.621 240.304C439.196 243.343 438.64 246.354 438.04 248.697C437.739 249.872 437.436 250.843 437.147 251.552C437.002 251.907 436.873 252.166 436.767 252.34C436.647 252.536 436.612 252.532 436.693 252.475L438.428 254.922C438.831 254.637 439.12 254.242 439.327 253.904C439.546 253.545 439.744 253.128 439.925 252.684C440.287 251.797 440.629 250.68 440.946 249.441C441.582 246.956 442.157 243.828 442.592 240.72C443.027 237.611 443.329 234.476 443.409 231.973C443.45 230.726 443.436 229.597 443.348 228.691C443.304 228.24 443.237 227.806 443.136 227.423C443.044 227.079 442.881 226.6 442.538 226.212L440.287 228.195ZM436.693 252.475C436.736 252.445 436.549 252.56 435.838 252.612C435.205 252.659 434.372 252.643 433.363 252.574C431.349 252.436 428.842 252.103 426.231 251.758C423.649 251.417 420.97 251.065 418.704 250.915C417.571 250.839 416.502 250.811 415.576 250.866C414.688 250.918 413.77 251.055 413.039 251.411L414.353 254.107C414.536 254.018 414.968 253.907 415.754 253.86C416.502 253.816 417.431 253.836 418.505 253.908C420.655 254.051 423.231 254.388 425.838 254.732C428.415 255.072 431.029 255.421 433.159 255.567C434.223 255.64 435.218 255.666 436.056 255.604C436.816 255.549 437.743 255.408 438.428 254.922L436.693 252.475ZM374.418 273.788C384.818 275.456 394.734 277.662 403.7 280.227L404.525 277.342C395.438 274.743 385.404 272.511 374.893 270.826L374.418 273.788ZM403.7 280.227C413.883 283.14 422.578 286.402 425.94 288.141L427.319 285.476C423.685 283.597 414.759 280.27 404.525 277.342L403.7 280.227ZM413.039 251.411C412.161 251.838 411.478 252.756 410.957 253.603C410.39 254.528 409.825 255.698 409.277 256.991C408.177 259.584 407.076 262.838 406.101 265.997C405.124 269.164 404.263 272.27 403.647 274.582C403.339 275.739 403.091 276.699 402.921 277.37C402.836 277.706 402.769 277.969 402.725 278.149C402.702 278.239 402.685 278.309 402.673 278.356C402.668 278.379 402.663 278.397 402.66 278.409C402.659 278.415 402.658 278.42 402.657 278.423C402.657 278.425 402.656 278.426 402.656 278.427C402.656 278.427 402.656 278.427 402.656 278.428C402.656 278.428 402.656 278.428 404.113 278.785C405.57 279.141 405.57 279.141 405.57 279.141C405.57 279.141 405.57 279.14 405.57 279.14C405.57 279.14 405.57 279.139 405.571 279.137C405.571 279.134 405.572 279.13 405.574 279.125C405.576 279.114 405.581 279.097 405.586 279.074C405.597 279.029 405.614 278.962 405.636 278.874C405.68 278.698 405.744 278.439 405.828 278.109C405.997 277.447 406.241 276.499 406.546 275.354C407.156 273.065 408.006 269.999 408.968 266.881C409.932 263.756 410.998 260.615 412.039 258.162C412.56 256.932 413.058 255.916 413.514 255.173C413.741 254.803 413.941 254.529 414.109 254.34C414.286 254.14 414.371 254.099 414.353 254.107L413.039 251.411ZM284.713 252.849C286.03 252.876 287.261 253.984 288.539 256.668C289.776 259.267 290.705 262.565 291.827 265.835L294.665 264.861C293.626 261.836 292.582 258.182 291.247 255.378C289.953 252.66 288.014 249.916 284.775 249.849L284.713 252.849ZM291.827 265.835C292.897 268.951 293.858 272.126 294.553 274.527C294.9 275.727 295.18 276.73 295.373 277.433C295.47 277.785 295.545 278.061 295.595 278.249C295.62 278.342 295.639 278.414 295.652 278.462C295.659 278.486 295.663 278.504 295.666 278.516C295.668 278.522 295.669 278.527 295.67 278.53C295.67 278.531 295.671 278.532 295.671 278.533C295.671 278.533 295.671 278.533 295.671 278.533C295.671 278.533 295.671 278.533 295.671 278.533C295.671 278.533 295.671 278.533 297.122 278.151C298.572 277.769 298.572 277.769 298.572 277.769C298.572 277.769 298.572 277.769 298.572 277.769C298.572 277.768 298.572 277.768 298.572 277.768C298.571 277.767 298.571 277.765 298.571 277.764C298.57 277.76 298.568 277.755 298.567 277.749C298.563 277.736 298.558 277.716 298.551 277.691C298.538 277.641 298.518 277.567 298.492 277.47C298.441 277.277 298.364 276.996 298.266 276.639C298.07 275.925 297.787 274.908 297.435 273.693C296.732 271.266 295.756 268.04 294.665 264.861L291.827 265.835Z" fill="black"/>
</svg>
