<svg width="701" height="900" viewBox="0 0 701 900" fill="none" xmlns="http://www.w3.org/2000/svg">
<path d="M352.703 550.698C381.593 550.691 444.124 540.335 469.154 526.318C494.184 512.301 519.025 482.265 524.887 457.569C530.75 432.873 524.887 388.82 511.872 365.793C498.856 342.765 496.186 340.095 475.495 319.404C454.804 298.712 421.43 283.694 397.068 276.686C372.706 269.678 324.648 269.01 298.283 276.686C271.918 284.362 244.886 298.379 230.869 312.396C216.852 326.413 203.837 345.434 194.826 365.793C185.815 386.151 180.809 420.192 183.479 438.88C186.149 457.569 196.16 492.945 213.515 506.962C230.869 520.979 257.901 536.33 277.258 541.003C296.614 545.675 323.813 550.705 352.703 550.698Z" fill="#FFE3E2" stroke="black" stroke-width="3" stroke-linecap="round"/>
</svg>
