<svg width="701" height="900" viewBox="0 0 701 900" fill="none" xmlns="http://www.w3.org/2000/svg">
<path d="M391.36 241.716C386.646 251.08 383.111 256.91 375.151 272.796C388.916 274.873 401.875 278.185 413.191 282.112C413.191 282.112 431.795 277.437 441.841 274.522C451.888 271.607 474.152 261.747 471.982 259.08C469.811 256.413 465.78 253.312 461.551 248.821C457.322 244.33 452.269 240.405 450.338 238.552C448.407 236.7 440.105 241.281 428.993 245.192C434.275 238.614 446.191 217.899 447.671 214.242C449.151 210.585 436.694 209.032 427.205 206.551C417.717 204.071 411.761 203.712 407.484 203.078C403.207 202.445 396.073 232.351 391.36 241.716Z" fill="#6F3A22"/>
<path d="M262.826 284.811C272.356 280.686 282.792 277.186 296.493 274.657C296.493 274.657 289.094 265.22 284.814 258.15C280.535 251.08 276.442 244.072 269.682 235.266C262.923 226.459 254.24 204.381 250.209 204.939C246.178 205.498 243.077 207.296 234.147 211.141C225.216 214.986 220.999 216.04 217.402 218.645C213.805 221.25 220.826 228.134 225.278 234.025C229.73 239.917 238.661 244.692 239.356 247.967C240.051 251.242 235.188 250.088 229.73 248.475C224.273 246.863 220.112 244.35 218.146 243.762C216.181 243.174 212.565 249.344 209.092 253.065C205.619 256.786 201.03 261.003 199.355 263.173C197.681 265.344 213.061 270.801 218.146 273.158C223.232 275.515 232.534 278.181 239.356 280.166C246.178 282.151 252.938 284.073 262.826 284.811Z" fill="#6F3A22"/>
<path d="M250.209 511.632C260.877 513.232 269.411 505.586 268.166 497.408C266.922 489.229 259.099 485.496 255.365 484.607C251.631 483.718 242.03 483.362 236.697 491.185C231.363 499.008 239.541 510.031 250.209 511.632Z" fill="#B81611"/>
<path d="M460.034 508.573C471.413 509.32 480.302 507.72 481.902 497.408C483.503 487.096 473.368 479.806 463.59 480.162C453.811 480.517 448.477 482.829 444.743 490.83C441.01 498.83 448.655 507.827 460.034 508.573Z" fill="#C1122A"/>
<path fill-rule="evenodd" clip-rule="evenodd" d="M359.701 550.694C379.919 550.875 416.471 546.136 435.221 541.449C453.971 536.761 488.866 520.616 497.85 511.632C506.835 502.647 524.413 481.293 525.324 459.679C526.235 438.064 510.48 432.335 510.741 424.523C511.001 416.71 506.444 371.268 493.814 349.003C481.184 326.737 457.616 303.69 435.872 291.911C429.52 288.471 421.835 285.112 413.191 282.112C401.875 278.185 388.916 274.873 375.151 272.796C363.432 271.027 351.129 270.154 338.759 270.559C321.515 271.124 307.877 272.556 296.493 274.657C282.792 277.186 272.356 280.686 262.826 284.811C245.378 292.363 223.51 311.33 214.005 324.611C204.5 337.893 196.941 362.674 193.425 380.122C189.91 397.57 191.993 425.695 193.425 431.424C194.858 437.153 185.483 447.439 184.832 461.372C184.181 475.304 195.218 494.108 207.358 505.382C219.498 516.655 237.175 530.381 255.274 536.631C273.373 542.881 285.873 544.885 305.274 547.569C324.675 550.252 339.482 550.512 359.701 550.694ZM268.166 497.408C269.411 505.586 260.877 513.232 250.209 511.632C239.541 510.031 231.363 499.008 236.697 491.185C242.03 483.362 251.631 483.718 255.365 484.607C259.099 485.496 266.922 489.229 268.166 497.408ZM481.902 497.408C480.302 507.72 471.413 509.32 460.034 508.573C448.655 507.827 441.01 498.83 444.743 490.83C448.477 482.829 453.811 480.517 463.59 480.162C473.368 479.806 483.503 487.096 481.902 497.408Z" fill="#D6722E"/>
<path d="M435.872 291.911L435.157 293.23L435.157 293.23L435.872 291.911ZM338.759 270.559L338.71 269.06L338.759 270.559ZM375.151 272.796L374.927 274.279L375.151 272.796ZM422.912 246.503C422.103 246.324 421.303 246.835 421.124 247.643C420.945 248.452 421.456 249.253 422.264 249.432L422.912 246.503ZM296.493 274.657L296.765 276.132L296.493 274.657ZM359.687 552.194C380.044 552.376 416.724 547.619 435.585 542.904L434.857 539.994C416.218 544.653 379.793 549.374 359.714 549.194L359.687 552.194ZM435.585 542.904C445.093 540.527 458.604 535.274 470.837 529.508C476.963 526.621 482.796 523.593 487.673 520.713C492.522 517.851 496.525 515.079 498.911 512.692L496.79 510.571C494.684 512.677 490.955 515.292 486.148 518.13C481.37 520.951 475.623 523.936 469.558 526.795C457.41 532.52 444.098 537.683 434.857 539.994L435.585 542.904ZM498.911 512.692C503.465 508.138 510.186 500.462 515.892 491.177C521.589 481.908 526.352 470.911 526.823 459.742L523.825 459.616C523.385 470.061 518.903 480.548 513.336 489.606C507.78 498.647 501.22 506.141 496.79 510.571L498.911 512.692ZM526.823 459.742C527.297 448.492 523.41 441.325 519.481 436.031C518.51 434.722 517.536 433.527 516.643 432.433C515.742 431.327 514.936 430.338 514.253 429.394C512.869 427.478 512.192 426.003 512.24 424.573L509.242 424.473C509.159 426.949 510.354 429.12 511.822 431.151C512.566 432.18 513.431 433.24 514.318 434.328C515.215 435.428 516.147 436.573 517.072 437.819C520.728 442.746 524.262 449.251 523.825 459.616L526.823 459.742ZM512.24 424.573C512.375 420.508 511.279 407.072 508.588 391.92C505.898 376.776 501.568 359.632 495.119 348.263L492.509 349.743C498.69 360.638 502.953 377.349 505.634 392.445C508.314 407.534 509.367 420.725 509.242 424.473L512.24 424.573ZM495.119 348.263C482.351 325.755 458.58 302.506 436.586 290.593L435.157 293.23C456.652 304.874 480.016 327.719 492.509 349.743L495.119 348.263ZM262.23 283.434C253.327 287.288 243.375 294.013 234.478 301.409C225.581 308.806 217.636 316.96 212.785 323.738L215.225 325.484C219.879 318.981 227.621 311.011 236.396 303.716C245.172 296.42 254.877 289.885 263.422 286.187L262.23 283.434ZM212.785 323.738C207.91 330.55 203.588 340.223 200.054 350.308C196.511 360.416 193.725 371.041 191.955 379.826L194.896 380.418C196.641 371.756 199.392 361.266 202.885 351.3C206.385 341.313 210.595 331.954 215.225 325.484L212.785 323.738ZM191.955 379.826C190.164 388.716 189.809 400.242 190.071 410.207C190.331 420.139 191.21 428.748 191.97 431.788L194.881 431.06C194.208 428.37 193.33 420.053 193.07 410.128C192.81 400.237 193.172 388.976 194.896 380.418L191.955 379.826ZM191.97 431.788C192.217 432.775 192.029 434.139 191.361 436.07C190.701 437.978 189.684 440.148 188.54 442.71C186.289 447.752 183.673 454.031 183.334 461.302L186.33 461.442C186.642 454.78 189.039 448.949 191.28 443.933C192.382 441.465 193.481 439.119 194.196 437.051C194.903 435.007 195.35 432.937 194.881 431.06L191.97 431.788ZM183.334 461.302C182.99 468.65 185.719 477.114 189.976 485.08C194.247 493.074 200.141 500.727 206.337 506.481L208.379 504.282C202.435 498.763 196.741 491.377 192.622 483.667C188.488 475.93 186.023 468.026 186.33 461.442L183.334 461.302ZM206.337 506.481C218.527 517.8 236.388 531.696 254.785 538.049L255.764 535.213C237.963 529.066 220.47 515.51 208.379 504.282L206.337 506.481ZM254.785 538.049C273.025 544.348 285.642 546.368 305.068 549.055L305.479 546.083C286.104 543.403 273.721 541.415 255.764 535.213L254.785 538.049ZM305.068 549.055C324.572 551.752 339.463 552.012 359.687 552.194L359.714 549.194C339.502 549.012 324.777 548.752 305.479 546.083L305.068 549.055ZM375.375 271.313C363.576 269.532 351.181 268.652 338.71 269.06L338.809 272.058C351.077 271.657 363.288 272.523 374.927 274.279L375.375 271.313ZM376.492 273.468C380.464 265.54 383.332 260.124 385.796 255.518C388.259 250.913 390.332 247.093 392.699 242.39L390.02 241.041C387.674 245.702 385.623 249.48 383.15 254.103C380.678 258.724 377.798 264.165 373.81 272.124L376.492 273.468ZM392.699 242.39C393.931 239.943 395.291 236.223 396.686 232.122C397.388 230.058 398.107 227.874 398.83 225.677C399.554 223.477 400.282 221.264 401.006 219.13C402.46 214.845 403.876 210.946 405.181 208.169C405.838 206.77 406.427 205.742 406.933 205.103C407.186 204.783 407.367 204.628 407.465 204.564C407.553 204.507 407.465 204.592 407.264 204.562L407.704 201.594C406.968 201.485 406.324 201.73 405.835 202.045C405.356 202.355 404.941 202.786 404.58 203.242C403.858 204.154 403.152 205.431 402.465 206.893C401.082 209.838 399.619 213.882 398.165 218.166C397.436 220.315 396.703 222.542 395.98 224.739C395.256 226.939 394.542 229.109 393.846 231.156C392.444 235.276 391.145 238.806 390.02 241.041L392.699 242.39ZM446.281 213.679C445.592 215.38 442.31 221.367 438.467 227.857C434.637 234.326 430.388 241.059 427.824 244.253L430.163 246.131C432.88 242.747 437.23 235.834 441.049 229.386C444.854 222.959 448.27 216.76 449.061 214.804L446.281 213.679ZM428.198 243.92C425.79 245.427 424.308 246.053 423.487 246.309C423.08 246.436 422.852 246.467 422.765 246.475C422.723 246.478 422.717 246.476 422.744 246.477C422.757 246.478 422.778 246.48 422.806 246.484C422.821 246.486 422.837 246.488 422.854 246.491C422.863 246.493 422.872 246.494 422.882 246.496C422.887 246.497 422.892 246.498 422.897 246.499C422.899 246.5 422.902 246.5 422.904 246.501C422.906 246.501 422.908 246.502 422.908 246.502C422.91 246.502 422.912 246.503 422.588 247.967C422.264 249.432 422.266 249.432 422.268 249.433C422.269 249.433 422.271 249.433 422.272 249.434C422.275 249.434 422.278 249.435 422.28 249.435C422.286 249.436 422.291 249.438 422.297 249.439C422.308 249.441 422.319 249.443 422.331 249.445C422.355 249.449 422.379 249.453 422.405 249.457C422.458 249.464 422.515 249.469 422.577 249.473C422.703 249.48 422.849 249.478 423.021 249.464C423.362 249.435 423.806 249.352 424.381 249.173C425.525 248.816 427.246 248.054 429.789 246.464L428.198 243.92ZM429.491 246.607C435.039 244.654 440.058 242.469 443.639 241.114C445.486 240.415 446.945 239.936 448.028 239.732C448.568 239.631 448.936 239.614 449.169 239.637C449.397 239.661 449.377 239.71 449.299 239.635L451.376 237.47C450.815 236.932 450.114 236.719 449.475 236.653C448.841 236.588 448.156 236.656 447.473 236.784C446.109 237.041 444.437 237.604 442.577 238.308C438.747 239.758 434.059 241.819 428.495 243.777L429.491 246.607ZM470.818 260.027C470.638 259.805 470.607 259.526 470.644 259.351C470.665 259.248 470.688 259.278 470.546 259.457C470.267 259.81 469.685 260.324 468.746 260.975C466.904 262.253 464.095 263.786 460.841 265.357C454.343 268.495 446.345 271.654 441.423 273.081L442.259 275.963C447.384 274.476 455.542 271.247 462.145 268.059C465.442 266.467 468.419 264.853 470.456 263.44C471.456 262.747 472.335 262.03 472.897 261.321C473.176 260.97 473.465 260.512 473.579 259.97C473.708 259.357 473.597 258.688 473.145 258.133L470.818 260.027ZM436.586 290.593C430.152 287.107 422.391 283.717 413.683 280.695L412.699 283.529C421.279 286.507 428.888 289.834 435.157 293.23L436.586 290.593ZM413.683 280.695C402.282 276.739 389.233 273.404 375.375 271.313L374.927 274.279C388.599 276.342 401.469 279.632 412.699 283.529L413.683 280.695ZM441.423 273.081C436.422 274.532 429.278 276.425 423.372 277.958C420.421 278.724 417.784 279.399 415.885 279.883C414.935 280.124 414.17 280.318 413.642 280.451C413.378 280.518 413.174 280.57 413.036 280.605C412.966 280.622 412.914 280.635 412.878 280.644C412.861 280.649 412.847 280.652 412.838 280.654C412.834 280.655 412.831 280.656 412.828 280.657C412.827 280.657 412.826 280.657 412.826 280.657C412.826 280.657 412.825 280.657 412.825 280.657C412.825 280.658 412.825 280.658 413.191 282.112C413.556 283.567 413.556 283.567 413.557 283.567C413.557 283.567 413.557 283.567 413.557 283.567C413.558 283.567 413.559 283.566 413.56 283.566C413.562 283.566 413.566 283.565 413.57 283.564C413.579 283.561 413.593 283.558 413.61 283.553C413.646 283.544 413.699 283.531 413.769 283.514C413.908 283.479 414.113 283.427 414.377 283.36C414.906 283.226 415.673 283.032 416.625 282.79C418.527 282.306 421.169 281.629 424.125 280.862C430.033 279.329 437.214 277.427 442.259 275.963L441.423 273.081ZM338.71 269.06C321.41 269.626 307.695 271.064 296.221 273.182L296.765 276.132C308.059 274.047 321.62 272.621 338.809 272.058L338.71 269.06ZM296.221 273.182C282.399 275.734 271.855 279.268 262.23 283.434L263.422 286.187C272.856 282.103 283.185 278.639 296.765 276.132L296.221 273.182ZM296.493 274.657C297.674 273.732 297.674 273.732 297.674 273.732C297.673 273.732 297.673 273.732 297.673 273.731C297.673 273.731 297.673 273.731 297.672 273.73C297.672 273.729 297.67 273.728 297.669 273.726C297.665 273.721 297.66 273.715 297.653 273.706C297.64 273.688 297.619 273.662 297.592 273.627C297.538 273.557 297.457 273.454 297.352 273.319C297.144 273.05 296.84 272.656 296.462 272.161C295.706 271.172 294.653 269.779 293.467 268.166C291.089 264.932 288.202 260.849 286.098 257.373L283.531 258.927C285.707 262.521 288.659 266.691 291.05 269.943C292.249 271.574 293.313 272.982 294.078 273.983C294.461 274.483 294.769 274.882 294.981 275.157C295.087 275.294 295.17 275.4 295.226 275.472C295.254 275.508 295.276 275.535 295.29 275.554C295.297 275.563 295.303 275.57 295.307 275.575C295.309 275.577 295.31 275.579 295.311 275.581C295.312 275.581 295.312 275.582 295.312 275.582C295.312 275.582 295.312 275.582 295.313 275.582C295.313 275.583 295.313 275.583 296.493 274.657ZM286.098 257.373C281.826 250.316 277.691 243.236 270.872 234.352L268.492 236.179C275.193 244.909 279.244 251.844 283.531 258.927L286.098 257.373ZM270.872 234.352C267.59 230.076 263.817 222.531 260.244 215.881C258.486 212.61 256.774 209.555 255.232 207.345C254.464 206.246 253.69 205.284 252.924 204.602C252.223 203.976 251.201 203.288 250.003 203.454L250.415 206.425C250.225 206.452 250.356 206.331 250.928 206.841C251.435 207.293 252.053 208.033 252.772 209.063C254.202 211.111 255.839 214.022 257.601 217.301C261.067 223.752 265.015 231.649 268.492 236.179L270.872 234.352ZM216.522 217.43C215.836 217.927 215.346 218.576 215.096 219.355C214.854 220.113 214.873 220.89 215.019 221.614C215.301 223.02 216.122 224.512 217.075 225.937C218.049 227.392 219.271 228.934 220.498 230.448C221.742 231.982 222.989 233.484 224.081 234.93L226.475 233.121C225.342 231.621 224.041 230.053 222.829 228.558C221.6 227.043 220.457 225.597 219.568 224.269C218.66 222.91 218.121 221.825 217.96 221.023C217.883 220.644 217.909 220.409 217.954 220.269C217.992 220.15 218.069 220.014 218.282 219.86L216.522 217.43ZM224.081 234.93C226.441 238.052 229.951 240.841 232.779 243.141C234.229 244.32 235.489 245.361 236.431 246.299C237.428 247.291 237.815 247.932 237.889 248.279L240.823 247.656C240.549 246.366 239.56 245.181 238.548 244.173C237.48 243.11 236.099 241.975 234.673 240.814C231.748 238.435 228.568 235.891 226.475 233.121L224.081 234.93ZM237.889 248.279C237.99 248.754 237.827 248.592 238.022 248.448C238.04 248.435 237.987 248.48 237.783 248.517C237.583 248.554 237.299 248.573 236.917 248.556C235.322 248.484 232.924 247.855 230.155 247.037L229.305 249.914C231.995 250.708 234.756 251.462 236.784 251.553C237.754 251.596 238.921 251.513 239.803 250.862C240.885 250.064 241.07 248.818 240.823 247.656L237.889 248.279ZM230.155 247.037C227.527 246.26 225.197 245.263 223.254 244.371C222.373 243.967 221.323 243.467 220.641 243.156C219.892 242.813 219.178 242.505 218.576 242.325L217.716 245.199C218.097 245.313 218.64 245.54 219.395 245.884C220.217 246.26 220.916 246.599 222.003 247.098C223.997 248.013 226.476 249.078 229.305 249.914L230.155 247.037ZM198.167 262.257C197.819 262.709 197.671 263.26 197.748 263.821C197.817 264.325 198.053 264.734 198.272 265.027C198.702 265.602 199.363 266.118 200.04 266.567C201.435 267.493 203.455 268.494 205.598 269.463C207.76 270.44 210.13 271.42 212.258 272.296C214.407 273.18 216.282 273.947 217.516 274.519L218.777 271.797C217.468 271.19 215.513 270.392 213.4 269.522C211.267 268.644 208.943 267.682 206.833 266.729C204.705 265.767 202.877 264.85 201.699 264.068C201.09 263.664 200.785 263.379 200.675 263.231C200.624 263.163 200.695 263.229 200.72 263.414C200.754 263.655 200.682 263.91 200.543 264.09L198.167 262.257ZM217.516 274.519C222.731 276.936 232.176 279.639 238.937 281.606L239.775 278.726C232.893 276.724 223.732 274.093 218.777 271.797L217.516 274.519ZM238.937 281.606C245.78 283.597 252.663 285.557 262.714 286.306L262.937 283.315C253.212 282.589 246.576 280.704 239.775 278.726L238.937 281.606ZM218.576 242.325C217.903 242.123 217.267 242.248 216.769 242.451C216.28 242.651 215.83 242.961 215.435 243.288C214.645 243.941 213.823 244.871 213.024 245.847C211.339 247.904 209.696 250.219 207.995 252.041L210.188 254.088C211.96 252.19 213.862 249.559 215.345 247.748C216.129 246.79 216.797 246.055 217.347 245.6C217.621 245.373 217.803 245.269 217.901 245.229C217.991 245.193 217.899 245.254 217.716 245.199L218.576 242.325ZM207.995 252.041C206.282 253.877 204.293 255.835 202.488 257.64C200.722 259.406 199.077 261.079 198.167 262.257L200.543 264.09C201.308 263.098 202.795 261.576 204.61 259.761C206.387 257.984 208.429 255.973 210.188 254.088L207.995 252.041ZM449.299 239.635C450.297 240.592 452.12 242.103 454.096 243.827C456.117 245.591 458.395 247.657 460.459 249.85L462.643 247.793C460.478 245.494 458.115 243.353 456.069 241.567C453.979 239.743 452.309 238.365 451.376 237.47L449.299 239.635ZM460.459 249.85C462.615 252.139 464.718 254.071 466.52 255.736C468.352 257.429 469.814 258.793 470.818 260.027L473.145 258.133C471.978 256.7 470.34 255.181 468.556 253.533C466.743 251.858 464.716 249.994 462.643 247.793L460.459 249.85ZM407.264 204.562C411.644 205.211 417.443 205.55 426.826 208.003L427.585 205.1C417.991 202.592 411.877 202.213 407.704 201.594L407.264 204.562ZM426.826 208.003C429.231 208.631 431.819 209.2 434.289 209.75C436.775 210.303 439.135 210.835 441.146 211.4C443.192 211.974 444.723 212.542 445.632 213.115C446.087 213.402 446.247 213.605 446.29 213.683C446.291 213.684 446.297 213.638 446.281 213.679L449.061 214.804C449.415 213.931 449.356 213.036 448.921 212.243C448.529 211.526 447.885 210.989 447.232 210.577C445.925 209.753 444.026 209.092 441.957 208.511C439.853 207.921 437.412 207.371 434.94 206.821C432.451 206.267 429.924 205.712 427.585 205.1L426.826 208.003ZM250.003 203.454C247.803 203.758 245.884 204.402 243.437 205.423C241.06 206.416 237.932 207.878 233.553 209.763L234.74 212.519C239.291 210.559 242.179 209.2 244.593 208.192C246.937 207.213 248.584 206.679 250.415 206.425L250.003 203.454ZM233.553 209.763C229.099 211.681 225.884 212.877 223.207 213.97C220.563 215.049 218.472 216.018 216.522 217.43L218.282 219.86C219.929 218.667 221.745 217.807 224.341 216.747C226.905 215.7 230.264 214.446 234.74 212.519L233.553 209.763ZM249.987 513.115C261.321 514.815 271.093 506.669 269.649 497.182L266.683 497.634C267.729 504.504 260.432 511.648 250.432 510.148L249.987 513.115ZM269.649 497.182C268.957 492.63 266.429 489.341 263.637 487.103C260.865 484.88 257.767 483.637 255.713 483.147L255.018 486.066C256.697 486.466 259.378 487.533 261.761 489.444C264.125 491.34 266.131 494.007 266.683 497.634L269.649 497.182ZM255.713 483.147C253.657 482.658 250.093 482.331 246.308 483.164C242.495 484.003 238.388 486.042 235.457 490.34L237.936 492.03C240.339 488.506 243.7 486.81 246.953 486.094C250.236 485.371 253.339 485.666 255.018 486.066L255.713 483.147ZM235.457 490.34C232.336 494.918 233.274 500.323 236.217 504.593C239.157 508.858 244.23 512.251 249.987 513.115L250.432 510.148C245.52 509.411 241.17 506.493 238.687 502.891C236.208 499.293 235.724 495.275 237.936 492.03L235.457 490.34ZM459.936 510.07C465.662 510.446 471.026 510.259 475.21 508.523C477.332 507.642 479.174 506.354 480.594 504.529C482.013 502.706 482.953 500.422 483.385 497.638L480.42 497.178C480.052 499.55 479.28 501.333 478.227 502.687C477.175 504.039 475.783 505.037 474.06 505.752C470.554 507.207 465.784 507.448 460.132 507.077L459.936 510.07ZM483.385 497.638C484.277 491.886 481.871 486.994 477.993 483.649C474.142 480.327 468.792 478.472 463.535 478.663L463.644 481.661C468.166 481.496 472.772 483.108 476.033 485.92C479.267 488.709 481.128 492.618 480.42 497.178L483.385 497.638ZM463.535 478.663C458.568 478.843 454.515 479.522 451.19 481.307C447.814 483.119 445.351 485.98 443.384 490.195L446.103 491.464C447.869 487.678 449.94 485.383 452.609 483.95C455.329 482.49 458.833 481.836 463.644 481.661L463.535 478.663ZM443.384 490.195C441.221 494.83 442.41 499.699 445.583 503.398C448.74 507.079 453.888 509.673 459.936 510.07L460.132 507.077C454.801 506.727 450.437 504.449 447.86 501.445C445.299 498.459 444.532 494.83 446.103 491.464L443.384 490.195Z" fill="black"/>
</svg>
